<svg viewBox="0 0 20 15" fill="none" xmlns="http://www.w3.org/2000/svg"><path d="M5 0h10v15H5V0Z" fill="#ffd018"/><path d="M0 0h5v15H0V0Z" fill="#2e42a5"/><path d="M15 0h5v15h-5V0Z" fill="#e31d1c"/><path d="M10.19 12.14c.14-.04.25-.28.25-.28s.1.07.24.14c.14.07.29-.14.29-.14s.2 0 .3-.24c.08-.24-.19-.34-.19-.34s.32-.33.84-.33c.53 0 .94 0 1.28-.14.35-.15.68-.4.8-.92.13-.52-.27-.85-.27-.85s.1.03.27-.12c.19-.15-.1-.63-.27-.63-.15 0-.17.08-.17.08s-.1-.08-.24-.37c-.13-.29.14-.54.14-.54s.15.08.27-.06c.13-.14-.06-.35-.06-.35s.61-.2.53-1c-.1-.79-.9-.74-.9-.74s.02-.14-.1-.21c-.11-.08-.2.07-.2.07-.09-.2.18-.49.39-.72l.17-.19c.18-.23.06-.53-.6-.84-.67-.32-1.04.1-1.09.26-.05.15.15.24.15.24-.16.15-.5.2-.71.1-.23-.1-.13-.4-.08-.5l.02-.03c.06-.1.2-.33.06-.54-.16-.24-.42-.24-.63-.1-.18.11-.44.18-.51.2a1.73 1.73 0 0 1-.51-.2c-.21-.14-.48-.14-.63.1-.14.21 0 .44.06.54l.02.04c.05.08.14.4-.08.5a.73.73 0 0 1-.72-.1s.21-.1.16-.25c-.06-.15-.42-.58-1.09-.26-.67.31-.78.6-.6.84l.17.2c.21.22.47.5.38.71 0 0-.08-.15-.2-.07-.11.07-.09.2-.09.2s-.8-.04-.9.75c-.09.8.53 1 .53 1s-.2.21-.07.35c.13.14.28.06.28.06s.27.25.13.54c-.13.29-.23.37-.23.37s-.02-.08-.18-.08-.45.48-.27.63c.19.15.27.12.27.12s-.4.33-.27.85.46.77.8.92c.35.14.76.14 1.29.14.52 0 .83.33.83.33s-.26.1-.17.34c.09.24.29.24.29.24s.15.21.29.14c.14-.07.23-.14.23-.14s.12.24.26.28h.04Z" fill="#bf9937"/><path d="m7.57 10 .06-.16c.76.32 1.62.49 2.58.49a6 6 0 0 0 2.51-.49l.07.16c-.73.33-1.6.5-2.58.5s-1.86-.17-2.64-.5Z" fill="#805440"/><path d="M7.8 4.52h4.71v4.4s0 .38-.4.55c-.42.17-.9.11-.9.11s-.46-.1-.7 0c-.16.06-.26.1-.33.1v.02h-.05v-.01a2.14 2.14 0 0 1-.32-.11c-.25-.1-.7 0-.7 0s-.49.06-.9-.1C7.8 9.3 7.8 8.9 7.8 8.9V4.52Z" fill="#bf9937"/><path fill="#d00f3a" d="M7.73 4.47h2.29v2.44H7.73z"/><path d="M10.27 4.47h2.37V6.9h-2.37V4.47Zm0 2.7h2.29V9.7h-2.29V7.17ZM7.73 7.17h2.29V9.7H7.73z" fill="#fedf00"/><path d="M11.96 8.31s.11-.1.11-.36c0-.25.1-.42-.1-.42h-.65c-.2 0-.1.11-.28 0-.2-.12-.34-.08-.34 0 0 .07.19.04.19.2 0 .15.07.02.07.3 0 .28.04.23.06.23.02 0 .02-.05.02-.12 0-.08-.01-.37.04-.28.05.09.08.05.1.15.03.1.1.2.05.25-.05.05-.14.1-.07.1s.18-.13.12-.33c-.05-.2.07-.02.07-.02s.27.06.3-.02c.01-.09.04.08.11.08.08 0-.07.17-.13.2-.07.02 0 .04 0 .04s.05.05.1 0c.03-.05.17-.2.17-.28 0-.08.08-.03.08.04s-.08.32-.05.28l.03-.04Zm0 .99s.11-.1.11-.36c0-.25.1-.42-.1-.42h-.65c-.2 0-.1.11-.28 0-.2-.11-.34-.08-.34 0s.19.04.19.2.07.02.07.3c0 .28.04.24.06.24.02 0 .02-.05.02-.13 0-.07-.01-.37.04-.28.05.1.08.05.1.15.03.1.1.21.05.26-.05.04-.14.09-.07.09s.18-.13.12-.33c-.05-.2.07-.02.07-.02s.27.06.3-.02c.01-.08.04.08.11.08.08 0-.07.17-.13.2-.07.02 0 .04 0 .04s.05.05.1 0c.03-.04.17-.2.17-.28 0-.08.08-.03.08.04s-.08.33-.05.29l.03-.05Z" fill="#d00f3a"/><path d="M8.88 6.44c0 .1-.05.18-.17.3l-.05.05-.04.04c-.1.12-.28.02-.33-.1l-.1-.18-.04-.06-.03-.06a3.7 3.7 0 0 1-.04-.07s-.03 0-.07.06c-.01.02.02.09.12.2l-.06.06c-.14-.14-.21-.23-.21-.3 0-.1.08-.15.24-.15.1 0 .15.07.23.24l.02.05a.8.8 0 0 0 .1.17c.03.04.06.04.1 0a1.02 1.02 0 0 0 .13-.29l.01-.04-.03.01-.01.01-.04.02-.36-.86.68-.83v1.72l-.05-.04a.5.5 0 0 0 0 .05Zm.05 0Zm0 0Zm0-1.73.68.83-.36.86-.04-.02-.04-.02.03.08c.05.13.08.2.12.24.03.05.06.05.1 0a.8.8 0 0 0 .09-.16l.02-.05c.08-.17.13-.24.23-.24.15 0 .24.05.24.16 0 .06-.07.15-.21.3l-.06-.07c.1-.11.13-.18.12-.2-.04-.06-.07-.07-.07-.06l-.04.07-.03.06-.04.06-.1.19c-.05.1-.23.2-.33.1a1.14 1.14 0 0 0-.04-.05l-.05-.05c-.12-.12-.17-.2-.17-.3a.5.5 0 0 0 0-.05l-.05.04V4.71Zm0 0Zm0 0Zm-.04 1.65Z" fill="#fff"/><path d="M8.92 6.28v-1.4l.6.67-.31.73c-.11-.04-.15.04-.1.2l.1.19c-.1-.1-.15-.17-.15-.23s0-.1-.02-.12c0-.01-.05-.03-.09-.03a.3.3 0 0 1-.03 0Zm-.27 0-.3-.73.57-.66v1.4H8.9c-.03 0-.08.02-.08.03a.26.26 0 0 0-.02.12c0 .06-.05.13-.15.23l.1-.2c.05-.15.01-.23-.1-.19Z" fill="#fedf00"/><path d="M8.24 7.17H8V9.7h.25V7.17Zm.5 0H8.5V9.7h.26V7.17Zm.26 0h.26V9.7H9V7.17Zm.76 0h-.25V9.7h.25V7.17Zm1.1-2.7h-.25v2.52h.25V4.47Zm.51 0h-.25v2.52h.25V4.47Zm.26 0h.25v2.52h-.25V4.47Zm.76 0h-.26v2.52h.26V4.47Z" fill="#d00f3a"/></svg>