<svg xmlns="http://www.w3.org/2000/svg" width="20" height="15" fill="transparent" viewBox="0 0 20 15"><g clip-path="url(#a)"><mask id="b" width="20" height="15" x="0" y="0" maskUnits="userSpaceOnUse" style="mask-type:luminance"><path fill="#fff" d="M0 0h20v15H0z"/></mask><g mask="url(#b)"><path fill="#67BD38" fill-rule="evenodd" d="M14 0h6v15h-6V0Z" clip-rule="evenodd"/><path fill="#D51700" fill-rule="evenodd" d="M6 0h8v15H6V0Z" clip-rule="evenodd"/><path fill="#272727" fill-rule="evenodd" d="M0 0h6v15H0V0Z" clip-rule="evenodd"/><path fill="#F7FCFF" fill-rule="evenodd" d="m7.705 4.986.216.135c-.36.607-.602 1.163-.727 1.668a.59.59 0 0 1 .12.15c.097.17.18.334.246.494l-.287.122a3.82 3.82 0 0 0-.16-.333c-.029.246-.027.48.006.699a.586.586 0 0 1 .148.035c.184.066.352.14.506.219l-.142.278a3.967 3.967 0 0 0-.431-.189l.003.01c.134.403.338.775.614 1.114a.596.596 0 0 1 .13-.013c.196 0 .38.011.55.033l-.037.31a3.822 3.822 0 0 0-.37-.028c.248.248.539.476.873.686l-.132.222a5.031 5.031 0 0 1-1.058-.869 4.102 4.102 0 0 0-.143.06l-.022.01c.254.266.554.51.9.734l-.134.22a5.094 5.094 0 0 1-1.028-.86.678.678 0 0 1-.385-.005l.083-.3c.02.006.04.01.06.013a3.883 3.883 0 0 1-.597-1.151 2.486 2.486 0 0 1-.06-.224.666.666 0 0 1-.282-.125l.18-.254a.426.426 0 0 0 .048.03 3.56 3.56 0 0 1 .134-1.24.667.667 0 0 1-.151-.295l.265-.069c.143-.405.346-.834.607-1.286l.218.133a7.229 7.229 0 0 0-.634 1.382c.039.035.086.073.144.116.138-.504.382-1.048.729-1.632Zm-.806 1.963a4.956 4.956 0 0 0-.16-.12 3.138 3.138 0 0 0-.085 1.102c.046 0 .099-.002.16-.005l.05-.003a3.035 3.035 0 0 1 .035-.974Zm-.072 1.287.098-.005c.012.042.024.085.038.126.134.405.334.78.6 1.122l-.052.023c-.044.02-.084.036-.12.05a3.637 3.637 0 0 1-.68-1.31l.116-.006Zm5.26-3.25-.216.135c.36.607.602 1.163.727 1.668a.591.591 0 0 0-.12.15 4.33 4.33 0 0 0-.246.494l.287.122a3.85 3.85 0 0 1 .16-.333c.029.246.027.48-.006.699a.586.586 0 0 0-.148.035 4.33 4.33 0 0 0-.506.219l.142.278c.13-.067.274-.13.431-.189l-.003.01a3.494 3.494 0 0 1-.614 1.114.595.595 0 0 0-.13-.013c-.196 0-.38.011-.55.033l.037.31a3.84 3.84 0 0 1 .37-.028 4.925 4.925 0 0 1-.873.686l.132.222a5.03 5.03 0 0 0 1.058-.869l.143.06.022.01a4.97 4.97 0 0 1-.9.734l.134.22c.4-.257.744-.544 1.028-.86a.673.673 0 0 0 .385-.005l-.083-.3a.42.42 0 0 1-.06.013c.264-.352.464-.736.597-1.151a2.11 2.11 0 0 0 .06-.224.666.666 0 0 0 .282-.125l-.18-.254a.424.424 0 0 1-.048.03 3.56 3.56 0 0 0-.134-1.24.667.667 0 0 0 .151-.295l-.265-.069a7.77 7.77 0 0 0-.607-1.286l-.218.133c.285.493.496.954.634 1.382a1.893 1.893 0 0 1-.144.116c-.139-.504-.382-1.048-.729-1.632Zm.806 1.963a5.091 5.091 0 0 1 .16-.12c.096.398.124.765.085 1.102a3.36 3.36 0 0 1-.16-.005l-.05-.003c.042-.305.03-.63-.035-.974Zm.072 1.287a6.19 6.19 0 0 0-.098-.005 3.745 3.745 0 0 1-.637 1.249l.051.022c.044.02.084.036.12.05a3.638 3.638 0 0 0 .68-1.31 3.261 3.261 0 0 1-.116-.006Z" clip-rule="evenodd"/><path fill="#F7FCFF" fill-rule="evenodd" d="m8.808 10.165-.697.69s.601.369 1.735.369c1.134 0 1.794-.369 1.794-.369l-.53-.69s-.723.28-1.234.28c-.512 0-1.068-.28-1.068-.28Z" clip-rule="evenodd"/><path stroke="#C00001" stroke-width=".5" d="M8.823 10.606s.59.14 1.043.14c.453 0 1.044-.14 1.044-.14"/><path fill="#F7FCFF" fill-rule="evenodd" d="M10.457 5.912c0 .273-.25.494-.557.494-.308 0-.557-.221-.557-.494 0-.274.25-.495.557-.495.308 0 .557.221.557.495Zm-.557.494h-.6l-.165.127h-.033v-.99h-.304v.99h-.266v.169h.266v1.786c-.036.285-.12.447-.236.503l-.62.297h3.735l-.268-.268c-.236-.235-.349-.417-.349-.522V6.702h.107v-.169h-.107v-.99h-.304v.99h-.098l-.196-.127H9.9Zm-.798.296h1.654v1.796c0 .145.069.302.203.478H8.977c.061-.123.102-.277.125-.468V6.702Zm.849.798h-.66v1.302h1.319L9.95 7.5Zm.68-3.652.001.002v-.002Zm.963.338.001.006v-.006Zm.187.023.001-.003v.003Zm-.757.384h.004-.004Z" clip-rule="evenodd"/><path fill="#F7FCFF" fill-rule="evenodd" d="m8.02 6.668-.124.09.129.188c-.11.04-.287.14-.287.374 0 .341-.12.62-.12.62l.358.23s.037-.398.134-.624a.365.365 0 0 1 .189-.198l.556.816.124-.09-.958-1.406Zm3.8 0 .124.09-.128.188c.11.04.287.14.287.374 0 .341.12.62.12.62l-.358.23s-.037-.398-.135-.624a.365.365 0 0 0-.188-.198l-.556.816-.125-.09.959-1.406Z" clip-rule="evenodd"/></g></g><defs><clipPath id="a"><rect width="20" height="15" fill="#fff" rx="2"/></clipPath></defs></svg>