<svg viewBox="0 0 20 15" fill="none" xmlns="http://www.w3.org/2000/svg"><path d="M14 0h6v15h-6V0Z" fill="#67bd38"/><path d="M6 0h8v15H6V0Z" fill="#d51700"/><path d="M0 0h6v15H0V0Z" fill="#272727"/><path d="m7.7 4.99.22.13A6.3 6.3 0 0 0 7.2 6.8c.06.05.09.1.12.15.1.17.18.33.25.5l-.29.11-.16-.33a2.6 2.6 0 0 0 0 .7c.06 0 .1.02.16.04.18.06.35.14.5.21l-.14.28a3.97 3.97 0 0 0-.43-.19v.01c.14.4.34.78.62 1.12a4.32 4.32 0 0 1 .68.02l-.04.3a3.82 3.82 0 0 0-.37-.02c.25.25.54.48.87.69l-.13.22a5.03 5.03 0 0 1-1.06-.87l-.14.06h-.02c.25.28.55.52.9.74l-.14.22a5.1 5.1 0 0 1-1.02-.86.68.68 0 0 1-.39 0l.08-.3.06.01a3.88 3.88 0 0 1-.65-1.37.67.67 0 0 1-.29-.13l.19-.25.04.03c-.03-.39.02-.8.14-1.24a.67.67 0 0 1-.15-.3l.26-.07c.14-.4.35-.83.6-1.28l.23.13c-.29.5-.5.95-.64 1.38l.15.12c.13-.5.38-1.05.72-1.63Zm-.8 1.96a5.06 5.06 0 0 0-.16-.12c-.1.4-.13.76-.09 1.1h.21c-.04-.31-.03-.64.04-.98Zm-.07 1.29h.1l.03.12c.14.4.34.78.6 1.12l-.05.02-.12.05a3.64 3.64 0 0 1-.68-1.3l.12-.01Zm5.26-3.25-.22.13c.36.6.6 1.16.73 1.67a.59.59 0 0 0-.12.15c-.1.17-.18.33-.25.5l.29.11.16-.33c.03.25.03.48 0 .7-.06 0-.1.02-.16.04-.18.06-.35.14-.5.21l.14.28.43-.19v.01c-.13.4-.34.78-.62 1.12a4.32 4.32 0 0 0-.68.02l.04.3.37-.02c-.25.25-.54.48-.87.69l.13.22c.42-.26.77-.55 1.06-.87l.14.06h.02c-.25.28-.55.52-.9.74l.14.22c.4-.25.74-.54 1.03-.86.13.04.25.04.38 0l-.08-.3a.42.42 0 0 1-.06.01 3.88 3.88 0 0 0 .66-1.37c.1-.02.19-.06.28-.13l-.18-.25a.42.42 0 0 1-.05.03c.03-.39-.01-.8-.14-1.24a.67.67 0 0 0 .16-.3l-.27-.07c-.14-.4-.35-.83-.6-1.28l-.22.13c.28.5.5.95.63 1.38a1.9 1.9 0 0 1-.14.12 6.75 6.75 0 0 0-.73-1.63Zm.8 1.96a4.89 4.89 0 0 1 .16-.12c.1.4.13.76.09 1.1h-.21c.04-.31.03-.64-.04-.98Zm.07 1.29h-.1l-.03.12c-.14.4-.34.78-.6 1.12l.05.02.12.05a3.64 3.64 0 0 0 .68-1.3l-.12-.01Z" fill="#f7fcff"/><path d="m8.8 10.17-.69.69s.6.36 1.74.36c1.13 0 1.79-.36 1.79-.36l-.53-.7s-.72.29-1.23.29c-.52 0-1.07-.28-1.07-.28Z" fill="#f7fcff"/><path d="M8.82 10.6s.6.14 1.05.14c.45 0 1.04-.13 1.04-.13" stroke="#c00001" stroke-width=".5"/><path d="M10.46 5.91c0 .27-.25.5-.56.5-.3 0-.56-.23-.56-.5s.25-.5.56-.5c.3 0 .56.23.56.5Zm-.56.5h-.6l-.17.12H9.1v-.99h-.3v1h-.27v.16h.27v1.8c-.04.28-.12.44-.24.5l-.62.3h3.74l-.27-.27c-.24-.24-.35-.42-.35-.52V6.7h.1v-.17h-.1v-.99h-.3v1h-.1l-.2-.13H9.9Zm-.8.3h1.66V8.5c0 .14.06.3.2.48H8.98c.06-.13.1-.28.12-.47V6.7Zm.85.79H9.3v1.3h1.32l-.66-1.3Zm.68-3.65Zm.96.34Zm.2.02Zm-.77.38Z" fill="#f7fcff"/><path d="m8.02 6.67-.12.09.12.19c-.1.04-.28.14-.28.37 0 .34-.12.62-.12.62l.36.23s.03-.4.13-.62a.37.37 0 0 1 .19-.2l.55.81.13-.09-.96-1.4Zm3.8 0 .12.09-.12.19c.1.04.28.14.28.37 0 .34.12.62.12.62l-.36.23s-.03-.4-.13-.62a.37.37 0 0 0-.19-.2l-.55.81-.13-.09.96-1.4Z" fill="#f7fcff"/></svg>