<svg viewBox="0 0 20 15" fill="none" xmlns="http://www.w3.org/2000/svg"><path d="M0 0h20v15H0V0Z" fill="#1B1B1B"/><path d="m10 8.75-1.4 2.37.04-2.62-2.54 1.66L7.56 7.8l-3.2.6 2.6-1.6-3.21-.56 3.2-.56-2.58-1.6 3.19.6L6.1 2.34 8.64 4l-.03-2.62L10 3.75l1.4-2.37L11.35 4l2.54-1.66-1.46 2.35 3.2-.6-2.6 1.6 3.21.56-3.2.56 2.58 1.6-3.19-.6 1.46 2.35-2.54-1.66.03 2.62L10 8.75Z" fill="#f9d313"/><path fill="#f1f9ff" d="M3.75 8.75h12.5V15H3.75z"/><path fill="#4A80E8" d="M1.25 6.25h17.5v2.5H1.25z"/><path d="M0 3.75 10 15 20 3.75V15H0V3.75Z" fill="#e31d1c"/></svg>