<svg viewBox="0 0 20 15" fill="none" xmlns="http://www.w3.org/2000/svg"><path d="M0 0v15h20V0H0Z" fill="#2e42a5"/><path d="M16.219 13.477c-.628 0-1.052-.148-1.35-.394-.298-.249-.5-.624-.632-1.14-.132-.52-.186-1.158-.207-1.907-.014-.527-.012-1.098-.009-1.712l.002-.554h4.453c.079 1.475.1 2.89-.184 3.953-.149.555-.375.99-.7 1.286-.32.291-.758.468-1.373.468Z" fill="#fff" stroke="#e6e617" stroke-width=".5"/><path d="M14.246 12.696c.373.834 1.027 1.25 1.96 1.25.928 0 1.583-.41 1.967-1.233l-3.927-.017Z" fill="#82E5FF"/><path d="M14.653 9.75c0 .83.675 1.5 1.506 1.5s1.507-.67 1.507-1.5-.676-1.5-1.507-1.5c-.83 0-1.506.67-1.506 1.5Zm2.388 0a.878.878 0 0 1-.882.875.878.878 0 0 1-.88-.875c0-.483.394-.875.88-.875.487 0 .882.392.882.875Z" fill="#e18600"/><path d="M15.905 8.041s-.548.249-.429.716c.119.467.253.534.253.534s.194-1.012.976-1.012l-.8-.238ZM14.908 10.562s.457.392.83.086c.373-.305.377-.455.377-.455s-1 .252-1.33-.456l.123.825ZM17.65 10.51s.017-.602-.455-.7c-.472-.098-.591-.007-.591-.007s.824.618.482 1.32l.564-.614Z" fill="#e18600"/><path fill="#2e42a5" d="M0 0h11v9H0z"/><mask id="a" maskUnits="userSpaceOnUse" x="0" y="0" width="11" height="9"><path fill="#fff" d="M0 0h11v9H0z"/></mask><g mask="url(#a)"><path d="M-1.253 8.125 1.223 9.21l10.083-8.03 1.306-1.614-2.647-.363-4.113 3.46-3.31 2.332-3.795 3.129Z" fill="#f7fcff"/><path d="m-.914 8.886 1.261.63L12.143-.583h-1.77L-.915 8.886Z" fill="#f50100"/><path d="M12.503 8.125 10.306 9.52-.056 1.18-1.362-.434l2.647-.363 4.113 3.46 3.31 2.332 3.795 3.129Z" fill="#f7fcff"/><path d="m12.418 8.67-1.261.63-5.023-4.323-1.489-.483-6.133-4.921H.283l6.13 4.804 1.628.58 4.377 3.714Z" fill="#f50100"/><mask id="b" maskUnits="userSpaceOnUse" x="-1" y="-1" width="13" height="11" fill="#000"><path fill="#fff" d="M-1-1h13v11H-1z"/><path d="M6 0H5v4H0v1h5v4h1V5h5V4H6V0Z"/></mask><path d="M6 0H5v4H0v1h5v4h1V5h5V4H6V0Z" fill="#f50100"/><path d="M5 0v-.938h-.938V0H5Zm1 0h.938v-.938H6V0ZM5 4v.938h.938V4H5ZM0 4v-.938h-.938V4H0Zm0 1h-.938v.938H0V5Zm5 0h.938v-.938H5V5Zm0 4h-.938v.938H5V9Zm1 0v.938h.938V9H6Zm0-4v-.938h-.938V5H6Zm5 0v.938h.938V5H11Zm0-1h.938v-.938H11V4ZM6 4h-.938v.938H6V4ZM5 .937h1V-.938H5V.938ZM5.938 4V0H4.063v4h1.875ZM0 4.938h5V3.063H0v1.874ZM.938 5V4H-.938v1H.938ZM5 4.062H0v1.875h5V4.063ZM5.938 9V5H4.063v4h1.875ZM6 8.062H5v1.876h1V8.062ZM5.062 5v4h1.875V5H5.063ZM11 4.062H6v1.875h5V4.063ZM10.062 4v1h1.876V4h-1.876ZM6 4.938h5V3.063H6v1.874ZM5.062 0v4h1.875V0H5.063Z" fill="#f7fcff" mask="url(#b)"/></g></svg>