<svg viewBox="0 0 20 15" fill="none" xmlns="http://www.w3.org/2000/svg"><path d="M0 0h20v15H0V0Z" fill="#f50100"/><path d="M10.31 12.03v1.47s-.69-1.2-.63-1.2c.05 0 .26-.39.34-.59.08-.2-.18-.33-.23-.2-.04.15-.22.34-.47.5-.25.16-.3-.24-.3-.33 0-.07.1-.07.25-.06h.15c.24 0 .26-.52.2-.66-.03-.07-.1 0-.2.12-.09.1-.2.2-.33.3-.3.2-.47-.01-.47-.2 0-.11.06-.11.16-.1.08 0 .17 0 .28-.05.23-.1.4-.57.36-.6-.03-.04-.23.07-.44.2l-.16.1c-.27.15-.38-.22-.38-.3 0-.1.25-.1.38-.1s.6-.29.86-.65c.27-.35.19-.78 0-.92-.13-.1-.23.05-.32.2l-.14.18c-.08.08-.19.3-.29.5-.1.2-.2.4-.24.4-.1 0-.37-.3-.37-.3l-1.01.3s.41.23.55.23c.14 0 .2.24.2.3 0 .05-.24.13-.4.08-.16-.06-.06-.23-.06-.23l-.53-.3s-.41.15-.41.3c0 .16-.19.23-.4.23-.23 0-.2-.1 0-.38.03-.07.07-.1.09-.12h.04c.02.03 0 .12 0 .12s.6-.22.27-.15l-.27.03c0-.01-.02-.02-.04 0l-.2-.02a.58.58 0 0 0-.09-.01c-.09 0-.43-.2-.43-.2s.12-.14.43-.14.2.13.2.13h.73s-.33-.23-.44-.23c-.06 0-.13-.04-.2-.09-.08-.04-.15-.09-.2-.09-.1 0-.09-.23.1-.23.2 0 .4.17.4.23 0 .07.42.28.42.28l1.08-.28s-.16-.36 0-.36.66-.33.87-.73c.2-.41.18-.6.07-.6-.11 0-.2.18-.2.26 0 .08-.27.48-.33.56-.06.09-.28-.08-.12-.3.13-.18.13-.47.12-.6v-.05c0-.1-.28.11-.28.5 0 .4-.61.54-.78.54-.18 0 0-.31.32-.39.26-.05.22-.39.19-.62l-.02-.16c0-.2-.4.27-.54.52-.16.24-.8.83-.98.9-.18.08-.54-.16-.62-.34-.07-.12.13-.15.4-.18l.3-.04c.4-.08.95-.86 1.05-1.01.1-.15-.15-.27-.3 0-.13.26-.82.5-1.04.59-.23.08-.41-.28-.41-.44 0-.1.1-.08.28-.05.11.02.26.05.42.05.4 0 .9-.7.9-.88 0-.17-.22-.1-.38 0l-.14.1c-.15.12-.34.27-.53.27-.26 0-.47-.19-.47-.19s-.08-.27.13-.27h.6c.32 0 .84-.68.84-.8 0-.07-.25.03-.5.15-.22.1-.44.2-.53.2-.2 0-.62-.2-.62-.36l.01-.11c.02-.02.08 0 .2 0 .1 0 .19.02.3.04.12.04.26.07.44.07.22 0 .4-.17.52-.28.06-.05.1-.09.13-.09.07 0-.08-.25-.22-.25a.75.75 0 0 0-.26.1c-.15.06-.33.15-.5.15-.29 0-.62-.46-.62-.58 0-.13.16-.08.4 0 .25.08.43.13.98 0 .55-.14.22-.34.08-.34H6.25c-.4 0-.4-.59-.4-.7 0-.08.08-.03.29.08l.2.11c.27.15.65.12.91.1h.2c.24 0-.14-.29-.14-.29s-.36 0-.97-.26-.5-.97-.5-.97.19-.25.3 0c.13.26.9.9 1.17.9.16 0 .16-.06.15-.1 0-.03 0-.05.04-.06.1-.02.87.24.87.24.31.03.36.5.36.77s.23.52.59.52c.27 0 .16-.4.07-.74a2.83 2.83 0 0 1-.07-.3c-.05-.32-1.04-.5-1.04-.5-.35-.05-.29-.25-.29-.25.13 0 .33-.09.33-.09.2-.05-.87-.15-.87-.15-.24-.02-.14-.31-.14-.31 0-.13.1-.06.25.04.14.1.32.21.5.21.34 0-.11-.25-.24-.25H7.8s.3-.03.57-.18c.16-.1.3-.04.5.04.16.06.36.14.63.14.32 0 .32.2.3.45 0 .19 0 .41.14.6.22.3.33.35.37.36.04 0 .15-.07.38-.37.14-.18.13-.4.13-.6-.01-.24-.02-.44.3-.44.28 0 .47-.08.64-.14.19-.08.34-.14.5-.04.26.15.57.17.57.18h-.03c-.12 0-.57.25-.23.25.17 0 .36-.12.5-.21.15-.1.25-.17.25-.04 0 0 .1.29-.14.3 0 0-1.08.11-.87.16 0 0 .2.08.32.09 0 0 .06.2-.29.25 0 0-.99.18-1.03.5l-.07.3c-.1.34-.2.74.07.74.35 0 .59-.25.59-.52 0-.28.04-.74.36-.77 0 0 .77-.26.87-.24.04 0 .03.03.03.06 0 .04 0 .1.16.1.26 0 1.04-.64 1.16-.9.12-.25.3 0 .3 0s.12.71-.5.97c-.6.26-.96.26-.96.26s-.38.28-.14.28l.2.01c.26.02.63.05.9-.1l.2-.1c.21-.12.3-.17.3-.09 0 .11 0 .7-.4.7h-1.06c-.14 0-.47.2.08.34.55.13.73.08.97 0 .25-.08.41-.13.41 0 0 .12-.34.58-.63.58-.17 0-.35-.09-.5-.16a.75.75 0 0 0-.25-.1c-.15 0-.3.26-.22.26.02 0 .07.04.12.1.12.1.3.27.53.27.18 0 .32-.03.44-.07.1-.02.2-.05.3-.05h.2l.01.12c0 .17-.43.35-.63.35-.09 0-.3-.1-.52-.2-.25-.1-.5-.21-.5-.15 0 .13.52.8.84.8h.6c.21 0 .12.28.12.28s-.2.19-.46.19c-.2 0-.39-.15-.54-.27a1.9 1.9 0 0 0-.13-.1c-.16-.1-.38-.17-.38 0 0 .18.5.88.9.88.16 0 .3-.03.42-.05.17-.03.28-.05.28.05 0 .16-.19.52-.4.44h-.01c-.23-.08-.91-.33-1.05-.6-.14-.26-.4-.14-.3 0 .1.16.65.94 1.06 1.02l.3.04c.27.03.46.06.4.18-.09.18-.44.42-.63.34a4.07 4.07 0 0 1-.97-.9c-.15-.25-.55-.71-.55-.52l-.01.16c-.03.23-.08.57.18.62.33.08.5.4.33.4-.17 0-.79-.16-.79-.55s-.28-.6-.28-.5v.05c0 .13 0 .42.13.6.15.22-.07.39-.13.3a2.9 2.9 0 0 1-.32-.56c0-.08-.1-.26-.2-.26-.11 0-.13.19.07.6.2.4.7.73.86.73.16 0 0 .36 0 .36l1.09.28s.4-.2.4-.28c0-.06.22-.23.41-.23.2 0 .2.23.1.23-.04 0-.12.05-.19.1a.52.52 0 0 1-.2.08c-.11 0-.44.23-.44.23h.73s-.11-.13.2-.13c.3 0 .43.13.43.13s-.35.2-.44.2l-.08.02-.2.02c-.03-.02-.04-.01-.05 0l-.26-.03c-.33-.07.26.15.26.15s-.02-.09 0-.12h.05l.1.12c.18.29.21.38 0 .38-.23 0-.41-.07-.41-.23 0-.15-.41-.3-.41-.3l-.53.3s.1.17-.07.23c-.16.05-.39-.03-.39-.08 0-.06.06-.3.2-.3.13 0 .55-.23.55-.23l-1.01-.3s-.28.3-.38.3c-.04 0-.14-.2-.24-.4-.1-.2-.2-.42-.28-.5a.935.935 0 0 1-.14-.19c-.1-.14-.2-.28-.32-.19-.2.14-.27.57 0 .92.26.36.73.64.86.64.12 0 .38.01.38.1 0 .1-.12.46-.38.3l-.17-.1c-.2-.12-.4-.23-.43-.2-.04.04.12.5.36.61.1.05.2.05.27.04.1 0 .16 0 .16.1 0 .2-.16.41-.46.2-.14-.08-.25-.2-.33-.3-.1-.1-.18-.18-.21-.1-.05.13-.03.65.2.65h.16c.15 0 .25-.01.25.06 0 .1-.06.5-.3.33-.25-.16-.43-.35-.48-.5-.04-.13-.3 0-.22.2.08.2.28.6.34.6.05 0-.63 1.19-.63 1.19v-1.47Z" fill="#1a1a1a"/></svg>