<svg viewBox="0 0 20 15" fill="none" xmlns="http://www.w3.org/2000/svg"><path d="M0 0v15h20V0H0Z" fill="#1D1D1D"/><path d="M0 0v7.5h20V0H0Z" fill="#f50100"/><path d="M9.719 8.37c.484-.599.636-1.373.636-1.856 0-2.573-3.211-3.997-3.211-3.997 2.208 0 4.666 1.79 4.666 3.997 0 .935-.32 1.802-.858 2.492.984.49 1.817.874 1.817.874.309.202.395.742.192 1.052a.67.67 0 0 1-.926.192s-.79-.467-1.271-.783c-.221-.144-.476-.301-.748-.462a3.932 3.932 0 0 1-2.203.675s-2.936-.36-2.852-1.865c0 0 .71.543 2.802.543.332 0 .625-.046.881-.128-.905-.494-1.673-.886-1.673-.886-.31-.202-1.113-1.23-.91-1.538.202-.31 1.427.04 1.736.242 0 0 .43.59 1.036.951.268.16.57.328.886.497ZM8.238 6.127l-.631.42.201-.72-.463-.46.627-.025.266-.712.265.712h.627l-.463.485.232.678-.661-.378Z" fill="#fcff01"/><path d="M9.719 8.37c.484-.599.636-1.373.636-1.856 0-2.573-3.211-3.997-3.211-3.997 2.208 0 4.666 1.79 4.666 3.997 0 .935-.32 1.802-.858 2.492.984.49 1.817.874 1.817.874.309.202.395.742.192 1.052a.67.67 0 0 1-.926.192s-.79-.467-1.271-.783c-.221-.144-.476-.301-.748-.462a3.932 3.932 0 0 1-2.203.675s-2.936-.36-2.852-1.865c0 0 .71.543 2.802.543.332 0 .625-.046.881-.128-.905-.494-1.673-.886-1.673-.886-.31-.202-1.113-1.23-.91-1.538.202-.31 1.427.04 1.736.242 0 0 .43.59 1.036.951.268.16.57.328.886.497ZM8.238 6.127l-.631.42.201-.72-.463-.46.627-.025.266-.712.265.712h.627l-.463.485.232.678-.661-.378Z" fill="#ffea42"/></svg>