<svg viewBox="0 0 20 15" fill="none" xmlns="http://www.w3.org/2000/svg"><path d="M0 0v15h20V0H0Z" fill="#5196ed"/><path d="M5.448 4.934s1.29.707 1.47.903c.18.196.467.915.915.508.448-.406.897-.09.897-.738 0-.647.67-2.15 1.64-1.773.972.376 1.77.14 1.995.291.224.151.762.899 1.18.899.419 0 .628.436.658 1.069.03.633-.135.693.254.768.388.076.538.362.344.738-.195.377-.18.211-.15.603.03.391-.388 2.7-1.674 2.927-1.285.225-2.504.105-2.175-.332.33-.437.784-.94.112-1.045-.673-.105-1.097-.195-1.77-.014-.672.18-1.374.467-1.793-.075-.418-.543-.328-.934-.672-1.19-.344-.256-.763-.211-.419-.708.344-.497.628-.311.344-.703-.284-.392-1.356-.562-1.356-.954 0-.391-.681-1.25.2-1.174Z" fill="#fff"/><path d="M5.448 4.934s1.29.707 1.47.903c.18.196.467.915.915.508.448-.406.897-.09.897-.738 0-.647.67-2.15 1.64-1.773.972.376 1.77.14 1.995.291.224.151.762.899 1.18.899.419 0 .628.436.658 1.069.03.633-.135.693.254.768.388.076.538.362.344.738-.195.377-.18.211-.15.603.03.391-.388 2.7-1.674 2.927-1.285.225-2.504.105-2.175-.332.33-.437.784-.94.112-1.045-.673-.105-1.097-.195-1.77-.014-.672.18-1.374.467-1.793-.075-.418-.543-.328-.934-.672-1.19-.344-.256-.763-.211-.419-.708.344-.497.628-.311.344-.703-.284-.392-1.356-.562-1.356-.954 0-.391-.681-1.25.2-1.174Z" fill="#f5f8fb"/></svg>