<svg xmlns="http://www.w3.org/2000/svg" width="20" height="15" fill="transparent" viewBox="0 0 20 15"><g clip-path="url(#a)"><mask id="b" width="20" height="15" x="0" y="0" maskUnits="userSpaceOnUse" style="mask-type:luminance"><path fill="#fff" d="M0 0h20v15H0z"/></mask><g mask="url(#b)"><path fill="#5196ED" fill-rule="evenodd" d="M0 0v15h20V0H0Z" clip-rule="evenodd"/><mask id="d" width="20" height="15" x="0" y="0" maskUnits="userSpaceOnUse" style="mask-type:luminance"><path fill="#fff" fill-rule="evenodd" d="M0 0v15h20V0H0Z" clip-rule="evenodd"/></mask><g fill-rule="evenodd" clip-rule="evenodd" filter="url(#c)" mask="url(#d)"><path fill="#fff" d="M5.448 4.934s1.29.707 1.47.903c.18.196.467.915.915.508.448-.406.897-.09.897-.738 0-.647.67-2.15 1.64-1.773.972.376 1.77.14 1.995.291.224.151.762.899 1.18.899.419 0 .628.436.658 1.069.03.633-.135.693.254.768.388.076.538.362.344.738-.195.377-.18.211-.15.603.03.391-.388 2.7-1.674 2.927-1.285.225-2.504.105-2.175-.332.33-.437.784-.94.112-1.045-.673-.105-1.097-.195-1.77-.014-.672.18-1.374.467-1.793-.075-.418-.543-.328-.934-.672-1.19-.344-.256-.763-.211-.419-.708.344-.497.628-.311.344-.703-.284-.392-1.356-.562-1.356-.954 0-.391-.681-1.25.2-1.174Z"/><path fill="#F5F8FB" d="M5.448 4.934s1.29.707 1.47.903c.18.196.467.915.915.508.448-.406.897-.09.897-.738 0-.647.67-2.15 1.64-1.773.972.376 1.77.14 1.995.291.224.151.762.899 1.18.899.419 0 .628.436.658 1.069.03.633-.135.693.254.768.388.076.538.362.344.738-.195.377-.18.211-.15.603.03.391-.388 2.7-1.674 2.927-1.285.225-2.504.105-2.175-.332.33-.437.784-.94.112-1.045-.673-.105-1.097-.195-1.77-.014-.672.18-1.374.467-1.793-.075-.418-.543-.328-.934-.672-1.19-.344-.256-.763-.211-.419-.708.344-.497.628-.311.344-.703-.284-.392-1.356-.562-1.356-.954 0-.391-.681-1.25.2-1.174Z"/></g></g></g><defs><clipPath id="a"><rect width="20" height="15" fill="#fff" rx="2"/></clipPath><filter id="c" width="11.889" height="9.466" x="3.997" y="2.774" color-interpolation-filters="sRGB" filterUnits="userSpaceOnUse"><feFlood flood-opacity="0" result="BackgroundImageFix"/><feColorMatrix in="SourceAlpha" result="hardAlpha" values="0 0 0 0 0 0 0 0 0 0 0 0 0 0 0 0 0 0 127 0"/><feOffset/><feGaussianBlur stdDeviation=".5"/><feColorMatrix values="0 0 0 0 0.0941176 0 0 0 0 0.32549 0 0 0 0 0.639216 0 0 0 0.43 0"/><feBlend in2="BackgroundImageFix" result="effect1_dropShadow_429_22319"/><feBlend in="SourceGraphic" in2="effect1_dropShadow_429_22319" result="shape"/></filter></defs></svg>