<svg xmlns="http://www.w3.org/2000/svg" width="20" height="15" fill="transparent" viewBox="0 0 20 15"><g clip-path="url(#a)"><mask id="b" width="20" height="15" x="0" y="0" maskUnits="userSpaceOnUse" style="mask-type:luminance"><path fill="#fff" d="M0 0h20v15H0z"/></mask><g mask="url(#b)"><path fill="#5BA3DA" fill-rule="evenodd" d="M0 0v15h20V0H0Z" clip-rule="evenodd"/><mask id="c" width="20" height="15" x="0" y="0" maskUnits="userSpaceOnUse" style="mask-type:luminance"><path fill="#fff" fill-rule="evenodd" d="M0 0v15h20V0H0Z" clip-rule="evenodd"/></mask><g fill-rule="evenodd" clip-rule="evenodd" mask="url(#c)"><g filter="url(#d)"><path fill="#EF2929" d="M3.546 4.975.808 4.397l2.771-.549L4.381.98l.633 2.845 2.474.575-2.445.575-.706 2.34-.791-2.34Z"/><path fill="red" d="M3.546 4.975.808 4.397l2.771-.549L4.381.98l.633 2.845 2.474.575-2.445.575-.706 2.34-.791-2.34Z"/></g><path fill="#FAD615" d="M20 9H0v1h20V9Zm0 2H0v1h20v-1Z"/></g></g></g><defs><clipPath id="a"><rect width="20" height="15" fill="#fff" rx="2"/></clipPath><filter id="d" width="8.68" height="8.335" x="-.192" y="-.02" color-interpolation-filters="sRGB" filterUnits="userSpaceOnUse"><feFlood flood-opacity="0" result="BackgroundImageFix"/><feColorMatrix in="SourceAlpha" result="hardAlpha" values="0 0 0 0 0 0 0 0 0 0 0 0 0 0 0 0 0 0 127 0"/><feOffset/><feGaussianBlur stdDeviation=".5"/><feColorMatrix values="0 0 0 0 1 0 0 0 0 1 0 0 0 0 1 0 0 0 0.2 0"/><feBlend in2="BackgroundImageFix" result="effect1_dropShadow_429_22324"/><feBlend in="SourceGraphic" in2="effect1_dropShadow_429_22324" result="shape"/></filter></defs></svg>