<svg xmlns="http://www.w3.org/2000/svg" width="20" height="15" fill="transparent" viewBox="0 0 20 15"><g clip-path="url(#a)"><mask id="b" width="20" height="15" x="0" y="0" maskUnits="userSpaceOnUse" style="mask-type:luminance"><path fill="#fff" d="M0 0h20v15H0z"/></mask><g mask="url(#b)"><path fill="#AF0100" fill-rule="evenodd" d="M0 0v15h20V0H0Z" clip-rule="evenodd"/><mask id="c" width="20" height="15" x="0" y="0" maskUnits="userSpaceOnUse" style="mask-type:luminance"><path fill="#fff" fill-rule="evenodd" d="M0 0v15h20V0H0Z" clip-rule="evenodd"/></mask><g fill-rule="evenodd" clip-rule="evenodd" mask="url(#c)"><path fill="#3CA5D9" d="M0 0v5h20V0H0Z"/><path fill="#73BE4A" d="M0 10v5h20v-5H0Z"/><path fill="#F7FCFF" d="M10.726 9.317c-.842-.194-1.5-.856-1.492-1.828.008-.909.595-1.678 1.52-1.887.927-.209 1.741.232 1.741.232-.255-.567-1.143-.965-1.872-.963-1.357.003-2.804 1.039-2.818 2.62-.015 1.64 1.546 2.571 2.919 2.568 1.1-.003 1.623-.712 1.732-1.013 0 0-.888.465-1.73.27Zm.535-.93.735-.51.734.51-.259-.856.714-.54-.895-.019-.294-.845-.294.845-.895.018.713.541-.259.857Z"/></g></g></g><defs><clipPath id="a"><rect width="20" height="15" fill="#fff" rx="2"/></clipPath></defs></svg>