<svg viewBox="0 0 20 15" fill="none" xmlns="http://www.w3.org/2000/svg"><path d="M0 0v15h20V0H0Z" fill="#af0100"/><path d="M0 0v5h20V0H0Z" fill="#3ca5d9"/><path d="M0 10v5h20v-5H0Z" fill="#73be4a"/><path d="M10.726 9.317c-.842-.194-1.5-.856-1.492-1.827.008-.91.595-1.679 1.52-1.888.927-.209 1.741.232 1.741.232-.255-.567-1.143-.965-1.872-.963-1.357.003-2.804 1.039-2.818 2.62-.015 1.64 1.546 2.571 2.919 2.568 1.1-.003 1.624-.712 1.732-1.013 0 0-.888.465-1.73.27Zm.535-.93.735-.51.735.51-.26-.856.714-.54-.895-.019-.294-.845-.294.845-.895.018.713.541-.259.857Z" fill="#f7fcff"/></svg>