<svg viewBox="0 0 20 15" fill="none" xmlns="http://www.w3.org/2000/svg"><path d="M0 0h20.25v15H0V0Z" fill="#2e42a5"/><path d="M6.25 0H19v15L6.25 0Z" fill="#feca00"/><path d="m4.442 1.746-.734.386.14-.818-.594-.58.821-.119.367-.744.368.744.821.12-.594.58.14.817-.735-.386ZM6.622 4.421l-.735.386.14-.818-.594-.58.821-.118.368-.745.367.745.822.119-.595.58.14.817-.734-.386ZM8.665 7.024l-.735.386.14-.818-.594-.58.821-.119.368-.744.367.744.821.12-.594.58.14.817-.734-.386ZM10.666 9.518l-.735.387.14-.819-.594-.579.822-.12.367-.744.367.745.822.119-.595.58.14.818-.734-.387ZM12.822 12.085l-.735.387.14-.818-.594-.58.821-.12.367-.744.368.745.821.12-.594.579.14.818-.734-.386ZM15.204 14.57l-.735.386.14-.819-.594-.579.822-.12.367-.744.368.745.821.12-.594.579.14.818-.735-.387Z" fill="#f7fcff"/></svg>