<svg xmlns="http://www.w3.org/2000/svg" width="20" height="15" fill="transparent" viewBox="0 0 20 15"><g clip-path="url(#a)"><mask id="b" width="22" height="15" x="0" y="0" maskUnits="userSpaceOnUse" style="mask-type:luminance"><path fill="#fff" d="M0 0h21.25v15H0z"/></mask><g fill-rule="evenodd" clip-rule="evenodd" mask="url(#b)"><path fill="#2E42A5" d="M0 0h20.25v15H0V0Z"/><path fill="#FECA00" d="M6.25 0H19v15L6.25 0Z"/><path fill="#F7FCFF" d="m4.442 1.746-.734.386.14-.818-.594-.58.821-.119.367-.744.368.744.821.12-.594.58.14.817-.735-.386Zm2.18 2.675-.735.386.14-.818-.594-.58.821-.118.368-.745.367.745.822.119-.595.58.14.817-.734-.386Zm2.043 2.603-.735.386.14-.818-.594-.58.821-.119.368-.744.367.744.821.12-.594.58.14.817-.734-.386Zm2.001 2.494-.735.387.14-.819-.594-.579.822-.12.367-.744.367.745.822.119-.595.58.14.818-.734-.387Zm2.155 2.567-.734.387.14-.818-.594-.58.821-.12.367-.744.368.745.821.12-.594.579.14.818-.735-.387Zm2.383 2.485-.735.386.14-.819-.594-.579.822-.12.367-.744.368.745.821.12-.594.579.14.818-.735-.387Z"/></g></g><defs><clipPath id="a"><rect width="20" height="15" fill="#fff" rx="2"/></clipPath></defs></svg>