<svg xmlns="http://www.w3.org/2000/svg" width="20" height="15" fill="transparent" viewBox="0 0 20 15"><g clip-path="url(#a)"><mask id="b" width="20" height="15" x="0" y="0" maskUnits="userSpaceOnUse" style="mask-type:luminance"><path fill="#fff" d="M0 0h20v15H0z"/></mask><g mask="url(#b)"><rect width="20" height="15" fill="#5EAA22" rx="1.25"/><mask id="c" width="30" height="19" x="-5" y="-2" fill="#000" maskUnits="userSpaceOnUse"><path fill="#fff" d="M-5-2h30v19H-5z"/><path fill-rule="evenodd" d="M10 7.5 20 0H0l10 7.5Zm0 0L0 15h20L10 7.5Z" clip-rule="evenodd"/></mask><path fill="#DD2C2B" fill-rule="evenodd" d="M10 7.5 20 0H0l10 7.5Zm0 0L0 15h20L10 7.5Z" clip-rule="evenodd"/><path fill="#fff" d="m20 0 .938 1.25 3.75-2.813H20V0ZM0 0v-1.563h-4.688l3.75 2.813L0 0Zm0 15-.938-1.25-3.75 2.813H0V15Zm20 0v1.563h4.688l-3.75-2.813L20 15Zm-.938-16.25-10 7.5 1.876 2.5 10-7.5-1.875-2.5ZM0 1.563h20v-3.125H0v3.125ZM10.938 6.25l-10-7.5-1.875 2.5 10 7.5 1.874-2.5Zm-1.876 0-10 7.5 1.875 2.5 10-7.5-1.874-2.5ZM0 16.563h20v-3.125H0v3.124Zm20.938-2.813-10-7.5-1.876 2.5 10 7.5 1.875-2.5Z" mask="url(#c)"/><path fill="#fff" fill-rule="evenodd" d="M10 11.25a3.75 3.75 0 1 0 0-7.5 3.75 3.75 0 0 0 0 7.5Z" clip-rule="evenodd"/><path fill="#DD2C2B" fill-rule="evenodd" d="m10.104 6.518-.734.386.14-.818-.594-.58h.821l.367-.863.368.864h.821l-.594.58.14.817-.735-.386Zm-1.753 2.5-.734.386.14-.818-.594-.58h.821l.367-.863.368.864h.821l-.594.58.14.817-.735-.386Zm3.5 0-.734.386.14-.818-.594-.58h.821l.367-.863.368.864h.821l-.594.58.14.817-.735-.386Z" clip-rule="evenodd"/></g></g><defs><clipPath id="a"><rect width="20" height="15" fill="#fff" rx="2"/></clipPath></defs></svg>