<svg viewBox="0 0 20 15" fill="none" xmlns="http://www.w3.org/2000/svg"><rect width="20" height="15" rx="1.25" fill="#5eaa22"/><path d="M10 7.5 20 0H0l10 7.5Zm0 0L0 15h20L10 7.5Z" fill="#dd2c2b"/><path d="m20 0 .938 1.25 3.75-2.813H20V0ZM0 0v-1.563h-4.688l3.75 2.813L0 0Zm0 15-.938-1.25-3.75 2.813H0V15Zm20 0v1.563h4.688l-3.75-2.813L20 15Zm-.938-16.25-10 7.5 1.876 2.5 10-7.5-1.875-2.5ZM0 1.563h20v-3.125H0v3.125ZM10.938 6.25l-10-7.5-1.875 2.5 10 7.5 1.874-2.5Zm-1.876 0-10 7.5 1.875 2.5 10-7.5-1.874-2.5ZM0 16.563h20v-3.125H0v3.124Zm20.938-2.813-10-7.5-1.876 2.5 10 7.5 1.875-2.5Z" fill="#fff" mask="url(#path-4-outside-1)"/><path d="M10 11.25a3.75 3.75 0 1 0 0-7.5 3.75 3.75 0 0 0 0 7.5Z" fill="#fff"/><path d="m10.104 6.518-.734.386.14-.818-.594-.58h.821l.367-.863.368.864h.821l-.594.58.14.817-.735-.386ZM8.351 9.018l-.734.386.14-.818-.595-.58h.822l.367-.863.368.864h.821l-.594.58.14.817-.735-.386ZM11.851 9.018l-.734.386.14-.818-.595-.58h.822l.367-.863.368.864h.821l-.594.58.14.817-.735-.386Z" fill="#dd2c2b"/></svg>