<svg xmlns="http://www.w3.org/2000/svg" width="20" height="15" fill="transparent" viewBox="0 0 20 15"><g clip-path="url(#a)"><mask id="b" width="20" height="15" x="0" y="0" maskUnits="userSpaceOnUse" style="mask-type:luminance"><path fill="#fff" d="M0 0h20v15H0z"/></mask><g mask="url(#b)"><path fill="#AF0100" fill-rule="evenodd" d="M0 0v15h20V0H0Z" clip-rule="evenodd"/><mask id="c" width="20" height="15" x="0" y="0" maskUnits="userSpaceOnUse" style="mask-type:luminance"><path fill="#fff" fill-rule="evenodd" d="M0 0v15h20V0H0Z" clip-rule="evenodd"/></mask><g mask="url(#c)"><path fill="#F7FCFF" fill-rule="evenodd" d="M13.755 7.5c0 3.68.348 4.957 2.445 4.957s2.67-1.854 2.494-4.957h-4.94Z" clip-rule="evenodd"/><path fill="#AF0100" fill-rule="evenodd" d="M16.313 9.625c.586 0 1.062-.56 1.062-1.25s-.476-1.25-1.063-1.25c-.586 0-1.062.56-1.062 1.25s.476 1.25 1.063 1.25Z" clip-rule="evenodd"/><path fill="#5EAA22" fill-rule="evenodd" d="M14.246 11.446c.374.834 1.027 1.25 1.96 1.25.928 0 1.583-.41 1.967-1.233l-3.927-.017Z" clip-rule="evenodd"/><path fill="#82B2CB" d="m14.762 9.394-.349-.87c.64-.257 1.258-.387 1.85-.387.594 0 1.211.13 1.852.387l-.35.87c-.533-.214-1.033-.32-1.501-.32-.468 0-.968.106-1.502.32Z"/><path fill="#FECA00" fill-rule="evenodd" d="M15.625 10a.625.625 0 1 0 0-1.25.625.625 0 0 0 0 1.25Z" clip-rule="evenodd"/><path fill="#8A4E22" fill-rule="evenodd" d="M16 11a.625.625 0 1 0 0-1.25.625.625 0 0 0 0 1.25Z" clip-rule="evenodd"/><path fill="#AF0100" fill-rule="evenodd" d="M15 10.5a.625.625 0 1 0 0-1.25.625.625 0 0 0 0 1.25Zm2.125 0a.625.625 0 1 0 0-1.25.625.625 0 0 0 0 1.25Zm-.437 1.375c.241 0 .437-.28.437-.625s-.196-.625-.438-.625c-.241 0-.437.28-.437.625s.196.625.438.625Zm-1.5 0c.241 0 .437-.28.437-.625s-.196-.625-.438-.625c-.241 0-.437.28-.437.625s.196.625.438.625Z" clip-rule="evenodd"/><path fill="#2E42A5" d="M0 0h11v9H0z"/><mask id="d" width="11" height="9" x="0" y="0" maskUnits="userSpaceOnUse" style="mask-type:luminance"><path fill="#fff" d="M0 0h11v9H0z"/></mask><g mask="url(#d)"><path fill="#fff" d="M-1.253 8.125 1.223 9.21l10.083-8.03 1.306-1.614-2.648-.363-4.112 3.46-3.31 2.332-3.795 3.129Z"/><path fill="#F50100" d="m-.914 8.886 1.261.63L12.143-.583h-1.771L-.914 8.886Z"/><path fill="#fff" d="M12.502 8.125 10.305 9.52-.056 1.18-1.362-.433l2.647-.363 4.113 3.46 3.31 2.332 3.794 3.129Z"/><path fill="#F50100" d="m12.418 8.67-1.261.63-5.023-4.323-1.49-.483-6.132-4.921H.283l6.13 4.804 1.627.58 4.378 3.714Z"/><mask id="e" width="13" height="11" x="-1" y="-1" fill="#000" maskUnits="userSpaceOnUse"><path fill="#fff" d="M-1-1h13v11H-1z"/><path fill-rule="evenodd" d="M6 0H5v4H0v1h5v4h1V5h5V4H6V0Z" clip-rule="evenodd"/></mask><path fill="#F50100" fill-rule="evenodd" d="M6 0H5v4H0v1h5v4h1V5h5V4H6V0Z" clip-rule="evenodd"/><path fill="#F7FCFF" d="M5 0v-.938h-.938V0H5Zm1 0h.938v-.938H6V0ZM5 4v.938h.938V4H5ZM0 4v-.938h-.938V4H0Zm0 1h-.938v.938H0V5Zm5 0h.938v-.938H5V5Zm0 4h-.938v.938H5V9Zm1 0v.938h.938V9H6Zm0-4v-.938h-.938V5H6Zm5 0v.938h.938V5H11Zm0-1h.938v-.938H11V4ZM6 4h-.938v.938H6V4ZM5 .937h1V-.938H5V.938ZM5.938 4V0H4.063v4h1.875ZM0 4.938h5V3.063H0v1.874ZM.938 5V4H-.938v1H.938ZM5 4.062H0v1.875h5V4.063ZM5.938 9V5H4.063v4h1.875ZM6 8.062H5v1.876h1V8.062ZM5.062 5v4h1.875V5H5.063ZM11 4.062H6v1.875h5V4.063ZM10.062 4v1h1.876V4h-1.876ZM6 4.938h5V3.063H6v1.874ZM5.062 0v4h1.875V0H5.063Z" mask="url(#e)"/></g></g></g></g><defs><clipPath id="a"><rect width="20" height="15" fill="#fff" rx="2"/></clipPath></defs></svg>