<svg xmlns="http://www.w3.org/2000/svg" width="20" height="15" fill="transparent" viewBox="0 0 20 15"><g clip-path="url(#a)"><mask id="b" width="20" height="15" x="0" y="0" maskUnits="userSpaceOnUse" style="mask-type:luminance"><path fill="#fff" d="M0 0h20v15H0z"/></mask><g mask="url(#b)"><path fill="#FFD221" fill-rule="evenodd" d="M0 0v15h20V0H0Z" clip-rule="evenodd"/><mask id="c" width="20" height="15" x="0" y="0" maskUnits="userSpaceOnUse" style="mask-type:luminance"><path fill="#fff" fill-rule="evenodd" d="M0 0v15h20V0H0Z" clip-rule="evenodd"/></mask><g mask="url(#c)"><path fill="#313131" d="m-1.917 6.635 1.255-2.862 21.767 9.545-1.255 2.862-21.767-9.545Z"/><path fill="#FAF9F9" d="M-1.886 3.48-.63.62l22.849 10.014-1.255 2.863L-1.886 3.48Z"/><path fill="#CF1225" fill-rule="evenodd" d="M4.582 7.748c-.887-1.088-.739-1.824-.739-1.824s.908.034.898.619c0 .247.325.48.605.683.213.152.399.286.399.393 0 .249.187 2.756.187 2.756s-.13.229-.757.229-.593-.361-.593-.361c.38-.466 0-2.495 0-2.495Zm10.836 0c.887-1.088.739-1.824.739-1.824s-.908.034-.897.619c0 .247-.326.48-.606.683-.212.152-.399.286-.399.393 0 .249-.187 2.756-.187 2.756s.13.229.757.229.593-.361.593-.361c-.38-.466 0-2.495 0-2.495Zm-5.381-5.951.705.502-.462.124.462.399-.575-.146v.403h.575l.192.945-.223-.158-.222.158-.222-.158-.223.158-.229-.158-.229.158-.229-.158-.229.158.289-.945h.531V1.797h.09Zm3.141 3.173s-.215.19-.675 0a3.25 3.25 0 0 1-.498-.29c-.35-.23-.73-.48-1.08-.411-.524.104-.757.354-.757.354v-.576h-.226v.576s-.233-.25-.757-.354c-.35-.07-.729.18-1.08.41a3.249 3.249 0 0 1-.498.29c-.46.19-.675 0-.675 0s0 .161.342.409c.149.107.319.1.463.056-.107.081-.159.176.012.252.354.158.936-.257 1-.304-.072.053-.775.581-.453.581.34 0 .889-.444.889-.444s-.667.64-.308.74c.228.063.5-.27.629-.467.004.042.042.067.084.095.054.036.113.076.113.158 0 .106.027.124.05.14.018.012.033.023.033.073v.146l-.083.122s0 .191.083.342c.063.115.031.211-.025.377a4.24 4.24 0 0 0-.058.183c-.083.288.083.78.083.78h-.083s.083.06.083.303c0 .198-.055.31-.159.522-.023.048-.05.102-.078.163-.155.328.154.745.154.745s-.518-.228-.414 0c.08.175.518.345.717.414v.033l.05-.016.048.016v-.033c.2-.07.638-.24.718-.414.103-.228-.415 0-.415 0s.31-.417.155-.745c-.03-.061-.055-.115-.08-.163-.103-.212-.158-.324-.158-.522 0-.242.083-.303.083-.303h-.083s.166-.492.083-.78a4.15 4.15 0 0 0-.058-.183c-.056-.166-.088-.262-.025-.377.083-.151.083-.342.083-.342l-.083-.122v-.146c0-.05.016-.061.034-.073.023-.016.049-.034.049-.14 0-.082.06-.122.113-.158.042-.028.08-.053.085-.095.128.197.4.53.628.466.359-.1-.308-.739-.308-.739s.55.444.889.444c.322 0-.381-.528-.452-.581.064.047.645.462 1 .304.17-.076.118-.171.011-.252.145.043.314.051.463-.056.342-.248.342-.408.342-.408Zm-1.14.291s.146.117.335.173a1.614 1.614 0 0 0-.335-.173Zm-1.476.425c-.057-.075-.03-.007.043.106.002-.027-.01-.06-.043-.106Zm-1.013 0c.056-.075.03-.007-.043.106-.003-.027.009-.06.043-.106Zm-1.477-.425s-.146.117-.335.173c.128-.096.335-.173.335-.173Z" clip-rule="evenodd"/><path fill="#CF1225" fill-rule="evenodd" d="M7.018 5.986s-.746 1.015-.663 2.1c.083 1.084.968 3.606 3.592 3.606h.067c2.781 0 3.57-2.782 3.57-3.782 0-1.009-.629-1.924-.629-1.924s.074 1.354 0 1.924c-.221 1.719-1.304 2.513-2.96 2.513-1.664 0-2.695-.824-2.977-2.513-.091-.546 0-1.924 0-1.924Z" clip-rule="evenodd"/><path fill="#CF1225" fill-rule="evenodd" d="M5.666 12.345s.135-.388.302-.388c.166 0-.319-.337 0-.432.318-.095.808.38.808-.095s-.414-.734-.11-.734c.305 0 .623-.09.623-.09s1.296 1.35 2.593 1.35 2.857-1.26 2.857-1.26.575-.146.575.082c0 .228-.126.572-.126.572s.403-.08.607 0c.206.08 0 .46 0 .46v.147s.534-.118.534.092-.258.09-.78.15c-.521.06-.719.468-1.047.468-.327 0-.398-.322-.398-.322s-1.015.55-2.222.55-1.936-.55-1.936-.55.114.565-.272.444c-.385-.122-.78-.89-1.243-.74-.463.15-.765.296-.765.296Z" clip-rule="evenodd"/><path fill="#F6E017" fill-rule="evenodd" d="M7.539 10.103c.022-.021.045-.045.075-.078.085-.092.109-.116.126-.128a.385.385 0 0 1 .006.077c0 .236.008.413.031.537.016.088.04.145.08.172.058.04.117.005.171-.077.126-.188.361-.211.361-.14 0 .02-.007.04-.053.151l-.02.05a.423.423 0 0 0-.04.2c.011.079.07.124.164.124.106 0 .175-.069.252-.203a7.61 7.61 0 0 0 .036-.065l.004-.007a.585.585 0 0 1 .033-.055c.028-.04.034-.036.096.11l.079.19.05.12c.04.095.069.152.099.191.068.09.15.09.249.006a.804.804 0 0 1 .066-.05c.013-.01.044-.03.074-.049l.064-.042c.057-.04.086-.07.085-.117 0-.058-.05-.095-.147-.131a.586.586 0 0 1-.045-.02l-.017-.006.012-.005.004-.003a.773.773 0 0 1 .295-.052l.01.001c.003.002.003.008.002.022v.002a.747.747 0 0 1-.035.167l-.009.036c-.03.12-.04.191-.018.254.03.091.119.123.256.096.185-.037.275-.11.299-.223a.413.413 0 0 0 .007-.094c0-.073 0-.073.063-.073.088 0 .123.031.16.118l.013.032c.043.104.083.149.174.149.06 0 .102-.025.094-.084a.143.143 0 0 0-.015-.046l-.008-.014-.013-.026c-.056-.114-.034-.202.16-.325.054-.036.14-.095.213-.147l.126-.087a.833.833 0 0 1 .005.069l.003.082.002.04c.008.21.051.4.115.479.107.131.211.01.282-.28.067-.277.164-.539.258-.697.046-.078.089-.127.122-.142.022-.01.037-.003.06.038.085.155.215.298.326.34.164.063.26-.07.26-.366 0-.247.041-.445.108-.598a.74.74 0 0 1 .1-.165l-.071-.076a.657.657 0 0 0-.123.198 1.6 1.6 0 0 0-.116.641c0 .234-.046.297-.122.268-.084-.032-.199-.159-.273-.293-.047-.085-.116-.117-.19-.083-.057.026-.113.088-.169.183-.1.169-.2.44-.27.726-.03.125-.062.204-.104.238-.044-.055-.084-.228-.091-.415l-.001-.04-.004-.083a.826.826 0 0 0-.006-.086c-.01-.068-.045-.108-.106-.091a2.23 2.23 0 0 0-.244.158l-.145.1c-.238.152-.276.299-.196.461l.006.013c-.019-.009-.032-.031-.053-.08l-.013-.033c-.052-.122-.119-.181-.255-.181-.13 0-.164.054-.165.178a.334.334 0 0 1-.004.072c-.014.067-.07.112-.219.142-.092.018-.128.005-.14-.028-.011-.035-.004-.094.021-.193l.01-.034a.783.783 0 0 0 .038-.193c.002-.079-.037-.133-.115-.133a.86.86 0 0 0-.34.064c-.125.062-.1.168.056.227.031.011.052.02.064.027l.015.006-.009.006a.467.467 0 0 1-.03.024l-.057.037-.081.052a.915.915 0 0 0-.075.057c-.057.05-.073.05-.103.01a.85.85 0 0 1-.086-.168 24.44 24.44 0 0 1-.048-.118l-.08-.192c-.088-.208-.183-.255-.272-.13a.662.662 0 0 0-.04.065l-.005.008-.035.063c-.06.104-.106.15-.163.15-.046 0-.059-.009-.062-.032a.35.35 0 0 1 .034-.147c.005-.014.01-.03.019-.048.057-.14.06-.15.06-.191 0-.214-.377-.176-.547.08a.193.193 0 0 1-.036.043.326.326 0 0 1-.03-.099 3.137 3.137 0 0 1-.03-.517c0-.144-.043-.221-.137-.18-.042.02-.044.021-.171.16a1.31 1.31 0 0 1-.07.071.343.343 0 0 1-.07.053c-.029.015-.04.006-.055-.062a1.602 1.602 0 0 1-.022-.335v-.14c0-.117-.031-.183-.108-.183a.19.19 0 0 0-.085.026.864.864 0 0 0-.04.022l-.042.024c-.07.04-.117.058-.161.058a.054.054 0 0 0-.015.002H6.87h.001a1.341 1.341 0 0 1 .246-.293l-.071-.076c-.133.13-.217.23-.253.3-.05.097-.011.172.094.172a.418.418 0 0 0 .211-.071c.098-.056.103-.059.117-.059 0 0 .006.011.006.078v.14c0 .174.005.278.024.36.029.124.1.184.202.13a.439.439 0 0 0 .092-.068Zm.212-.212h.001-.001Zm1.664.967a.015.015 0 0 1-.003-.003c.001.005.002.008.004.009l-.001-.006Zm1.813-.309Zm-2.583 1.795c-.045.123-.117.163-.198.102a.466.466 0 0 1-.082-.088l-.007-.01-.078-.102a.534.534 0 0 0-.195-.169l-.006-.002a3.457 3.457 0 0 1-.114-.05l-.018-.008a.422.422 0 0 1-.203-.186 2.29 2.29 0 0 1-.149-.352l.096-.037c.066.18.104.271.14.335a.32.32 0 0 0 .16.145l.016.008a3.5 3.5 0 0 0 .111.048l.006.002c.084.036.155.1.235.2l.081.105.005.007a.393.393 0 0 0 .07.077c.008-.005.02-.024.035-.063.031-.084.004-.15-.073-.218a.872.872 0 0 0-.02-.017c-.03-.024-.08-.063-.088-.077-.03-.043-.004-.087.04-.099a.414.414 0 0 1 .099-.007c.165 0 .21.097.241.345v.005c.025.196.05.25.133.25.094 0 .152-.038.252-.145l.022-.024c.128-.136.217-.182.368-.14.12.033.171.092.183.184a.57.57 0 0 1 .003.035c.006.077.02.09.17.09.113 0 .218.005.356.018l.016.001c.032.003.101.01.122.01a.866.866 0 0 0 .101.006.26.26 0 0 0 .041-.002c.004-.03.022-.052.094-.133a1.06 1.06 0 0 0 .02-.024.225.225 0 0 0 .048-.07s-.03-.012-.111-.012c-.075 0-.112-.009-.119-.061-.005-.044.02-.066.076-.096.065-.034.182-.078.323-.123.136-.043.28-.082.388-.105a1.02 1.02 0 0 1 .142-.022c.066-.004.106.005.106.065 0 .025.07.111.14.15.084.047.144.03.185-.08a1.1 1.1 0 0 1 .306-.43c.066-.054.126-.082.178-.078.07.007.107.067.107.158h-.103c0-.043-.006-.052-.013-.053-.02-.002-.059.017-.105.055a1 1 0 0 0-.275.386c-.064.172-.193.21-.328.135a.44.44 0 0 1-.187-.203.921.921 0 0 0-.132.02 4.144 4.144 0 0 0-.604.182c.073.01.115.038.126.09.011.05-.014.095-.07.161l-.022.026c-.05.056-.068.08-.068.08 0 .07-.053.09-.143.09-.028 0-.062-.002-.11-.006a19.52 19.52 0 0 1-.122-.011l-.016-.002a3.797 3.797 0 0 0-.348-.018c-.201 0-.26-.053-.27-.186a.48.48 0 0 0-.003-.029c-.007-.05-.029-.074-.11-.097-.104-.029-.162 0-.266.112l-.022.024c-.118.125-.196.176-.326.176-.147 0-.195-.078-.226-.282a.351.351 0 0 1-.01.034Zm.009-.093v-.004a.904.904 0 0 0-.033-.152.22.22 0 0 1 .043.215 1.872 1.872 0 0 1-.01-.06Zm1.874-.076h.003-.003Zm-.002.343-.002.001h.002Z" clip-rule="evenodd"/></g></g></g><defs><clipPath id="a"><rect width="20" height="15" fill="#fff" rx="2"/></clipPath></defs></svg>