<svg viewBox="0 0 20 15" fill="none" xmlns="http://www.w3.org/2000/svg"><path d="M0 0v15h20V0H0Z" fill="#feca00"/><path d="M0 0v5h20V0H0Z" fill="#db501c"/><path d="M0 10v5h20v-5H0Z" fill="#5eaa22"/><path d="M7.28 7.038s-.233 2.38 1.883 2.38h1.577s2.226-.145 1.968-2.38" stroke="#db501c" stroke-width=".938"/><path d="M11.406 7.375a1.406 1.406 0 1 1-2.812 0 1.406 1.406 0 0 1 2.812 0Z" fill="#feca00" stroke="#68B9E8" stroke-width=".938"/><path d="M10 7.5a.625.625 0 1 0 0-1.25.625.625 0 0 0 0 1.25Z" fill="#db501c"/><path d="M10.063 8.5c.586 0 1.062-.224 1.062-.5s-.476-.5-1.063-.5C9.476 7.5 9 7.724 9 8s.476.5 1.063.5Z" fill="#5eaa22"/><path d="M10.063 6.25c.828 0 1.5-.224 1.5-.5s-.672-.5-1.5-.5c-.829 0-1.5.224-1.5.5s.671.5 1.5.5Z" fill="#674F28"/></svg>