<svg xmlns="http://www.w3.org/2000/svg" width="20" height="15" fill="transparent" viewBox="0 0 20 15"><g clip-path="url(#a)"><mask id="b" width="20" height="15" x="0" y="0" maskUnits="userSpaceOnUse" style="mask-type:luminance"><path fill="#fff" d="M0 0h20v15H0z"/></mask><g mask="url(#b)"><path fill="#FECA00" fill-rule="evenodd" d="M0 0v15h20V0H0Z" clip-rule="evenodd"/><mask id="c" width="20" height="15" x="0" y="0" maskUnits="userSpaceOnUse" style="mask-type:luminance"><path fill="#fff" fill-rule="evenodd" d="M0 0v15h20V0H0Z" clip-rule="evenodd"/></mask><g mask="url(#c)"><path fill="#DB501C" fill-rule="evenodd" d="M0 0v5h20V0H0Z" clip-rule="evenodd"/><path fill="#5EAA22" fill-rule="evenodd" d="M0 10v5h20v-5H0Z" clip-rule="evenodd"/><path stroke="#DB501C" stroke-width=".938" d="M7.28 7.037s-.233 2.381 1.883 2.381h1.578s2.226-.145 1.967-2.38"/><path fill="#FECA00" stroke="#68B9E8" stroke-width=".938" d="M11.406 7.375a1.406 1.406 0 1 1-2.812 0 1.406 1.406 0 0 1 2.812 0Z"/><path fill="#DB501C" fill-rule="evenodd" d="M10 7.5a.625.625 0 1 0 0-1.25.625.625 0 0 0 0 1.25Z" clip-rule="evenodd"/><path fill="#5EAA22" fill-rule="evenodd" d="M10.063 8.5c.587 0 1.063-.224 1.063-.5s-.476-.5-1.063-.5S9 7.724 9 8s.476.5 1.063.5Z" clip-rule="evenodd"/><path fill="#674F28" fill-rule="evenodd" d="M10.063 6.25c.828 0 1.5-.224 1.5-.5s-.672-.5-1.5-.5-1.5.224-1.5.5.672.5 1.5.5Z" clip-rule="evenodd"/></g></g></g><defs><clipPath id="a"><rect width="20" height="15" fill="#fff" rx="2"/></clipPath></defs></svg>