<svg xmlns="http://www.w3.org/2000/svg" width="20" height="15" fill="transparent" viewBox="0 0 20 15"><g clip-path="url(#a)"><mask id="b" width="20" height="15" x="0" y="0" maskUnits="userSpaceOnUse" style="mask-type:luminance"><path fill="#fff" d="M0 0h20v15H0z"/></mask><g mask="url(#b)"><path fill="#fff" fill-rule="evenodd" d="M0 0h20v15H0V0Z" clip-rule="evenodd"/><path fill="#FEDA00" fill-rule="evenodd" d="M0 6.833V0h10L0 6.833Z" clip-rule="evenodd"/><path fill="#00268D" fill-rule="evenodd" d="M0 15h20.006V0L0 15Z" clip-rule="evenodd"/><mask id="c" fill="#fff"><path fill-rule="evenodd" d="m5.846 3.125.33.707a2.75 2.75 0 0 1 2.419 2.661l.597.299-.652.326A2.752 2.752 0 0 1 6.2 9.29l-.354.71-.355-.71a2.752 2.752 0 0 1-2.34-2.172L2.5 6.792l.597-.299a2.75 2.75 0 0 1 2.397-2.658l.352-.71Z" clip-rule="evenodd"/></mask><path fill="#fff" fill-rule="evenodd" d="m5.846 3.125.33.707a2.75 2.75 0 0 1 2.419 2.661l.597.299-.652.326A2.752 2.752 0 0 1 6.2 9.29l-.354.71-.355-.71a2.752 2.752 0 0 1-2.34-2.172L2.5 6.792l.597-.299a2.75 2.75 0 0 1 2.397-2.658l.352-.71Z" clip-rule="evenodd"/><path fill="#000" d="m6.175 3.832-.453.211.117.252.277.033.06-.496Zm-.33-.707.454-.211-.44-.943-.461.932.448.222Zm2.75 3.368-.5.013.008.3.268.135.224-.448Zm.597.299.223.447.895-.447-.895-.448-.223.448Zm-.652.326-.224-.448-.217.11-.049.237.49.1ZM6.2 9.29l-.063-.496-.264.034-.12.238.448.224Zm-.354.71-.447.224.447.894.447-.894L5.846 10Zm-.355-.71.447-.224-.12-.238-.263-.034-.064.496ZM3.15 7.118l.49-.1-.048-.239-.218-.109-.223.448Zm-.65-.326-.224-.448-.894.448.894.447.224-.447Zm.597-.299.223.448.27-.135.007-.3-.5-.013Zm2.397-2.658.063.496.266-.034.12-.24-.449-.222Zm1.134-.214L6.3 2.914l-.906.422.329.707.906-.422Zm2.467 2.86a3.25 3.25 0 0 0-2.86-3.145l-.12.992a2.25 2.25 0 0 1 1.98 2.178l1-.025Zm.32-.137-.596-.298-.448.895.597.298.447-.895Zm-.652 1.22.652-.325-.447-.895-.652.326.447.895ZM6.265 9.787A3.252 3.252 0 0 0 9.03 7.218l-.98-.2a2.252 2.252 0 0 1-1.913 1.776l.128.992Zm-.511-.72-.355.71.894.448.355-.71-.894-.448Zm.54.71-.356-.71-.894.447.355.71.894-.447ZM2.661 7.218a3.252 3.252 0 0 0 2.765 2.568l.128-.992a2.252 2.252 0 0 1-1.913-1.777l-.98.201Zm-.386.02.652.327.447-.895-.651-.326-.448.895Zm.597-1.192-.597.298.448.895.596-.298-.447-.895ZM5.431 3.34a3.25 3.25 0 0 0-2.834 3.14l1 .025a2.25 2.25 0 0 1 1.96-2.175l-.126-.992Zm-.033-.436-.352.71.896.444.352-.71-.896-.444Z" mask="url(#c)"/><path fill="#F00A17" fill-rule="evenodd" d="m5.86 5.188-.406.68h-.8l.4.715-.4.686h.8l.406.7.412-.7h.793l-.39-.686.39-.715h-.793l-.412-.68Z" clip-rule="evenodd"/></g></g><defs><clipPath id="a"><rect width="20" height="15" fill="#fff" rx="2"/></clipPath></defs></svg>