<svg xmlns="http://www.w3.org/2000/svg" width="20" height="15" fill="transparent" viewBox="0 0 20 15"><g clip-path="url(#a)"><mask id="b" width="20" height="15" x="0" y="0" maskUnits="userSpaceOnUse" style="mask-type:luminance"><path fill="#fff" d="M0 0h20v15H0z"/></mask><g fill-rule="evenodd" clip-rule="evenodd" mask="url(#b)"><path fill="#fff" d="M0 0h20v15H0V0Z"/><path fill="#F00000" d="M0 7.29V0h10L0 7.29Zm20 0V0H10l10 7.29Z"/><path fill="#00268D" d="M0 7.29V15h10L0 7.29Zm20 0v7.92L10 15l10-7.71Z"/><path fill="#FEDA00" d="m9.821 8.91-2.198 1.567.807-2.588-2.18-1.585h2.715l.856-2.554.907 2.554h2.642L11.21 7.89l.82 2.588L9.822 8.91Z"/></g></g><defs><clipPath id="a"><rect width="20" height="15" fill="#fff" rx="2"/></clipPath></defs></svg>