<svg viewBox="0 0 20 15" fill="none" xmlns="http://www.w3.org/2000/svg"><path d="M0 0h20v15H0V0Z" fill="#00268D"/><path d="M.625.625h18.75v13.75H.625V.625Z" fill="#00268D" stroke="#e31d1c" stroke-width="1.25"/><path fill="#e31d1c" d="M9.375 0h1.25v15h-1.25z"/><path fill="#e31d1c" d="M0 8.125v-1.25h20v1.25z"/><path d="m10.28 3.816-.28-.14-.28.14-6.25 3.125-1.118.559 1.118.559 6.25 3.125.28.14.28-.14 6.25-3.125 1.117-.559-1.117-.559-6.25-3.125Z" fill="#fff" stroke="#e31d1c" stroke-width="1.25"/><mask id="a" maskUnits="userSpaceOnUse" x="0" y="2" width="20" height="11"><path d="m10.28 3.816-.28-.14-.28.14-6.25 3.125-1.118.559 1.118.559 6.25 3.125.28.14.28-.14 6.25-3.125 1.117-.559-1.117-.559-6.25-3.125Z" fill="#fff" stroke="#fff" stroke-width="1.25"/></mask><g mask="url(#a)"><path d="M7.256 10h8.369l-.885-.957s-1.77-1.893-1.883-1.98c-.114-.086-.302-.124-.516.152-.215.276-.337-.151-.516-.151-.178 0-.253 0-.512.353l-1.19 1.626H8.755s-.231-.209-.363-.134c-.131.074-.872-.825-1.136-.892-.264-.067-.438.243-.438.49 0 .248-.124-.226-.377-.087-.253.14-.171.489-.171.489S7.087 10 7.256 10Z" fill="#059334"/><path d="m9.753 7.034-.617.466.226-.77-.612-.47h.763l.24-.76.255.76h.742l-.607.47.23.77-.62-.466Z" fill="#feda00"/></g></svg>