<svg xmlns="http://www.w3.org/2000/svg" width="20" height="15" fill="transparent" viewBox="0 0 20 15"><g clip-path="url(#a)"><mask id="b" width="20" height="15" x="0" y="0" maskUnits="userSpaceOnUse" style="mask-type:luminance"><path fill="#fff" d="M0 0h20v15H0z"/></mask><g mask="url(#b)"><path fill="#093" fill-rule="evenodd" d="M0 0v15h20V0H0Z" clip-rule="evenodd"/><mask id="c" width="20" height="15" x="0" y="0" maskUnits="userSpaceOnUse" style="mask-type:luminance"><path fill="#fff" fill-rule="evenodd" d="M0 0v15h20V0H0Z" clip-rule="evenodd"/></mask><g mask="url(#c)"><g fill-rule="evenodd" clip-rule="evenodd" filter="url(#d)"><path fill="#FFD221" d="M9.954 2.315 17.58 7.63l-7.73 4.977-7.47-5.08 7.574-5.212Z"/><path fill="url(#e)" d="M9.954 2.315 17.58 7.63l-7.73 4.977-7.47-5.08 7.574-5.212Z"/></g><path fill="#2E42A5" fill-rule="evenodd" d="M10 10.75a3.125 3.125 0 1 0 0-6.25 3.125 3.125 0 0 0 0 6.25Z" clip-rule="evenodd"/><mask id="f" width="8" height="7" x="6" y="4" maskUnits="userSpaceOnUse" style="mask-type:luminance"><path fill="#fff" fill-rule="evenodd" d="M10 10.75a3.125 3.125 0 1 0 0-6.25 3.125 3.125 0 0 0 0 6.25Z" clip-rule="evenodd"/></mask><g fill="#F7FCFF" mask="url(#f)"><path fill-rule="evenodd" d="m8.988 9.106-.14.074.027-.156-.113-.11.156-.023.07-.141.07.141.155.023-.113.11.027.156-.14-.074Zm1.25 0-.14.074.027-.156-.113-.11.156-.023.07-.141.07.141.155.023-.113.11.027.156-.14-.074Zm0 .75-.14.074.027-.156-.113-.11.156-.023.07-.141.07.141.155.023-.113.11.027.156-.14-.074Zm-.625-2.625-.14.074.027-.156-.113-.11.156-.023.07-.141.07.141.155.023-.113.11.027.156-.14-.074Zm0 1.25-.14.074.027-.156-.113-.11.156-.023.07-.141.07.141.155.023-.113.11.027.156-.14-.074Zm-.875-.625-.14.074.027-.156-.113-.11.156-.023.07-.141.07.141.155.023-.113.11.027.156-.14-.074Zm-.876.5-.14.074.028-.156-.113-.11.156-.023.07-.141.07.141.155.023-.113.11.027.156-.14-.074Zm2.876-2.125-.14.074.027-.156-.113-.11.156-.023.07-.141.07.141.155.023-.113.11.027.156-.14-.074Z" clip-rule="evenodd"/><path d="m6.203 6.873.094-1.246c2.999.226 5.366 1.212 7.07 2.966l-.896.871c-1.477-1.52-3.557-2.386-6.268-2.59Z"/></g></g></g></g><defs><linearGradient id="e" x1="20" x2="20" y1="15" y2="0" gradientUnits="userSpaceOnUse"><stop stop-color="#FFC600"/><stop offset="1" stop-color="#FFDE42"/></linearGradient><clipPath id="a"><rect width="20" height="15" fill="#fff" rx="2"/></clipPath><filter id="d" width="15.2" height="10.292" x="2.381" y="2.315" color-interpolation-filters="sRGB" filterUnits="userSpaceOnUse"><feFlood flood-opacity="0" result="BackgroundImageFix"/><feColorMatrix in="SourceAlpha" result="hardAlpha" values="0 0 0 0 0 0 0 0 0 0 0 0 0 0 0 0 0 0 127 0"/><feOffset/><feColorMatrix values="0 0 0 0 0.0313726 0 0 0 0 0.368627 0 0 0 0 0 0 0 0 0.28 0"/><feBlend in2="BackgroundImageFix" result="effect1_dropShadow_429_22353"/><feBlend in="SourceGraphic" in2="effect1_dropShadow_429_22353" result="shape"/></filter></defs></svg>