<svg viewBox="0 0 20 15" fill="none" xmlns="http://www.w3.org/2000/svg"><path d="M0 0v15h20V0H0Z" fill="#093"/><path d="M9.954 2.315 17.58 7.63l-7.73 4.977-7.47-5.08 7.574-5.212Z" fill="#ffd221"/><path d="M9.954 2.315 17.58 7.63l-7.73 4.977-7.47-5.08 7.574-5.212Z" fill="url(#a)"/><path d="M10 10.75a3.125 3.125 0 1 0 0-6.25 3.125 3.125 0 0 0 0 6.25Z" fill="#2e42a5"/><path d="m8.988 9.106-.14.074.027-.156-.113-.11.156-.023.07-.141.07.141.155.023-.113.11.027.156-.14-.074ZM10.238 9.106l-.14.074.027-.156-.113-.11.156-.023.07-.141.07.141.155.023-.113.11.027.156-.14-.074ZM10.238 9.856l-.14.074.027-.156-.113-.11.156-.023.07-.141.07.141.155.023-.113.11.027.156-.14-.074ZM9.613 7.231l-.14.074.027-.156-.113-.11.156-.023.07-.141.07.141.155.023-.113.11.027.156-.14-.074ZM9.613 8.481l-.14.074.027-.156-.113-.11.156-.023.07-.141.07.141.155.023-.113.11.027.156-.14-.074ZM8.738 7.856l-.14.074.027-.156-.113-.11.156-.023.07-.141.07.141.155.023-.113.11.027.156-.14-.074ZM7.862 8.356l-.14.074.028-.156-.113-.11.156-.023.07-.141.07.141.155.023-.113.11.027.156-.14-.074ZM10.738 6.231l-.14.074.027-.156-.113-.11.156-.023.07-.141.07.141.155.023-.113.11.027.156-.14-.074Z" fill="#f7fcff"/><path d="m6.203 6.873.094-1.246c2.999.226 5.365 1.212 7.07 2.966l-.896.871c-1.478-1.52-3.557-2.386-6.268-2.59Z" fill="#f7fcff"/><defs><linearGradient id="a" x1="20" y1="15" x2="20" y2="0" gradientUnits="userSpaceOnUse"><stop stop-color="#ffc600"/><stop offset="1" stop-color="#ffde42"/></linearGradient></defs></svg>