<svg xmlns="http://www.w3.org/2000/svg" width="20" height="15" fill="transparent" viewBox="0 0 20 15"><g clip-path="url(#a)"><mask id="b" width="20" height="15" x="0" y="0" maskUnits="userSpaceOnUse" style="mask-type:luminance"><path fill="#fff" d="M0 0h20v15H0z"/></mask><g mask="url(#b)"><path fill="#73BE4A" fill-rule="evenodd" d="M0 0h20v15H0V0Z" clip-rule="evenodd"/><path fill="#AF0100" fill-rule="evenodd" d="M0 0v10h20V0H0Z" clip-rule="evenodd"/><path fill="#F7FCFF" d="M0 0h3.75v15H0z"/><path fill="#D0181A" fill-rule="evenodd" d="M.625 0a.625.625 0 1 1 0 1.25.625.625 0 0 1 0-1.25Zm2.5 0a.625.625 0 1 1 0 1.25.625.625 0 0 1 0-1.25ZM1.25 3.125a.625.625 0 1 0-1.25 0 .625.625 0 0 0 1.25 0ZM3.125 2.5a.625.625 0 1 1 0 1.25.625.625 0 0 1 0-1.25Zm0 8.75a.625.625 0 1 1 0 1.25.625.625 0 0 1 0-1.25Zm-1.875.625a.625.625 0 1 0-1.25 0 .625.625 0 0 0 1.25 0ZM.625 13.75a.625.625 0 1 1 0 1.25.625.625 0 0 1 0-1.25Zm3.125.625a.625.625 0 1 0-1.25 0 .625.625 0 0 0 1.25 0ZM1.875 12.5a.625.625 0 1 1 0 1.25.625.625 0 0 1 0-1.25ZM2.5 1.875a.625.625 0 1 0-1.25 0 .625.625 0 0 0 1.25 0Zm.069 5.65L3.75 8.75V10l.027.058-1.845-1.847L.274 10H0V8.75l1.24-1.232L0 6.278V5h.136l1.779 1.846 1.787-1.778L3.75 5v1.25L2.569 7.524ZM1.875 3.75a.625.625 0 1 1 0 1.25.625.625 0 0 1 0-1.25Zm.625 6.875a.625.625 0 1 0-1.25 0 .625.625 0 0 0 1.25 0Z" clip-rule="evenodd"/><path fill="#8F181A" fill-rule="evenodd" d="M0 0h1.25v1.25H0V0Zm1.25 2.5H0v1.25h1.25V2.5ZM0 5h1.25v1.25H0V5Zm1.25 3.75H0V10h1.25V8.75ZM0 11.25h1.25v1.25H0v-1.25Zm1.25 2.5H0V15h1.25v-1.25Zm2.5 0H2.5V15h1.25v-1.25ZM3.75 0H2.5v1.25h1.25V0Z" clip-rule="evenodd" opacity=".4"/></g></g><defs><clipPath id="a"><rect width="20" height="15" fill="#fff" rx="2"/></clipPath></defs></svg>