<svg viewBox="0 0 20 15" fill="none" xmlns="http://www.w3.org/2000/svg"><path d="M0 0v15h20V0H0Z" fill="#0168B4"/><path d="M0-1v3h20v-3H0ZM0 13v3h20v-3H0Z" fill="#e93c43"/><path d="M10 11.25a3.75 3.75 0 1 1 0-7.5 3.75 3.75 0 0 1 0 7.5Z" fill="#f7fcff"/><path d="M5.625 7.5a4.375 4.375 0 1 0 8.75 0 4.375 4.375 0 0 0-8.75 0Zm8.125 0a3.75 3.75 0 1 1-7.5 0 3.75 3.75 0 0 1 7.5 0Z" fill="#fff"/><path d="M6.25 7.5a3.75 3.75 0 1 0 7.5 0 3.75 3.75 0 0 0-7.5 0Zm6.625 0a2.875 2.875 0 1 1-5.75 0 2.875 2.875 0 0 1 5.75 0Z" fill="#5B8C39"/><path d="m8.125 8.75 1.837-.235 1.913.235v.625L9.962 9.14l-1.837.235V8.75Z" fill="#5B8C39"/><path d="M8.75 6.25h2.5S11.427 10 10 10 8.75 6.25 8.75 6.25Z" fill="#769DF1"/><path fill="#feca00" d="M10 6.25h1.25V7.5H10z"/><path opacity=".6" fill="#f6f7f8" d="M8.75 6.25H10V7.5H8.75z"/><rect opacity=".66" x="8.75" y="5" width="2.5" height="1.25" rx=".625" fill="#5B8C39"/><path d="M8.625 8c.345 0 .625-.56.625-1.25S8.97 5.5 8.625 5.5 8 6.06 8 6.75 8.28 8 8.625 8Z" fill="#e9ad35"/><path d="M11.375 8C11.72 8 12 7.44 12 6.75s-.28-1.25-.625-1.25-.625.56-.625 1.25.28 1.25.625 1.25Z" fill="#5C2216"/></svg>