<svg xmlns="http://www.w3.org/2000/svg" width="20" height="15" fill="transparent" viewBox="0 0 20 15"><g clip-path="url(#a)"><mask id="b" width="20" height="15" x="0" y="0" maskUnits="userSpaceOnUse" style="mask-type:luminance"><path fill="#fff" d="M0 0h20v15H0z"/></mask><g fill-rule="evenodd" clip-rule="evenodd" mask="url(#b)"><path fill="#3D58DB" d="M0 0h20v3.75H0V0Z"/><path fill="#F7FCFF" d="M0 3.75h20V7.5H0V3.75Z"/><path fill="#73BE4A" d="M0 7.5h20v3.75H0V7.5Z"/><path fill="#FFD018" d="M0 11.25h20V15H0v-3.75Z"/><path fill="#FECA00" d="M2.83 3.385 1.316 4.436l.485-1.8-1.113-1.15 1.507-.062.637-1.78.637 1.78h1.504l-1.11 1.212.556 1.694-1.587-.945Z"/><path fill="#E11C1B" d="M8 0h4v15H8V0Z"/></g></g><defs><clipPath id="a"><rect width="20" height="15" fill="#fff" rx="2"/></clipPath></defs></svg>