<svg xmlns="http://www.w3.org/2000/svg" width="20" height="15" fill="transparent" viewBox="0 0 20 15"><g clip-path="url(#a)"><mask id="b" width="20" height="15" x="0" y="0" maskUnits="userSpaceOnUse" style="mask-type:luminance"><path fill="#fff" d="M0 0h20v15H0z"/></mask><g mask="url(#b)"><path fill="#2E42A5" fill-rule="evenodd" d="M0 0v15h20V0H0Z" clip-rule="evenodd"/><mask id="c" width="20" height="15" x="0" y="0" maskUnits="userSpaceOnUse" style="mask-type:luminance"><path fill="#fff" fill-rule="evenodd" d="M0 0v15h20V0H0Z" clip-rule="evenodd"/></mask><g mask="url(#c)"><path fill="#2E42A5" d="M0 0h11v9H0z"/><mask id="d" width="11" height="9" x="0" y="0" maskUnits="userSpaceOnUse" style="mask-type:luminance"><path fill="#fff" d="M0 0h11v9H0z"/></mask><g mask="url(#d)"><path fill="#F7FCFF" d="M-1.253 8.125 1.223 9.21l10.083-8.03 1.306-1.614-2.647-.363-4.113 3.46-3.31 2.332-3.795 3.129Z"/><path fill="#F50100" d="m-.914 8.886 1.261.63L12.143-.583h-1.77L-.915 8.886Z"/><path fill="#F7FCFF" d="M12.503 8.125 10.306 9.52-.056 1.18-1.362-.433l2.647-.363 4.113 3.46 3.31 2.332 3.795 3.129Z"/><path fill="#F50100" d="m12.418 8.67-1.261.63-5.023-4.323-1.489-.483-6.133-4.921H.283l6.13 4.804 1.628.58 4.377 3.714Z"/><mask id="e" width="13" height="11" x="-1" y="-1" fill="#000" maskUnits="userSpaceOnUse"><path fill="#fff" d="M-1-1h13v11H-1z"/><path fill-rule="evenodd" d="M6 0H5v4H0v1h5v4h1V5h5V4H6V0Z" clip-rule="evenodd"/></mask><path fill="#F50100" fill-rule="evenodd" d="M6 0H5v4H0v1h5v4h1V5h5V4H6V0Z" clip-rule="evenodd"/><path fill="#F7FCFF" d="M5 0v-.938h-.938V0H5Zm1 0h.938v-.938H6V0ZM5 4v.938h.938V4H5ZM0 4v-.938h-.938V4H0Zm0 1h-.938v.938H0V5Zm5 0h.938v-.938H5V5Zm0 4h-.938v.938H5V9Zm1 0v.938h.938V9H6Zm0-4v-.938h-.938V5H6Zm5 0v.938h.938V5H11Zm0-1h.938v-.938H11V4ZM6 4h-.938v.938H6V4ZM5 .937h1V-.938H5V.938ZM5.938 4V0H4.063v4h1.875ZM0 4.938h5V3.063H0v1.874ZM.938 5V4H-.938v1H.938ZM5 4.062H0v1.875h5V4.063ZM5.938 9V5H4.063v4h1.875ZM6 8.062H5v1.876h1V8.062ZM5.062 5v4h1.875V5H5.063ZM11 4.062H6v1.875h5V4.063ZM10.062 4v1h1.876V4h-1.876ZM6 4.938h5V3.063H6v1.874ZM5.062 0v4h1.875V0H5.063Z" mask="url(#e)"/></g><path fill="#fff" fill-rule="evenodd" d="m14.907 9.284.662-.461.641.461-.2-.82.515-.521h-.655l-.302-.67-.258.67h-.768l.588.52-.223.821Zm1.758.787.662-.462.391.282-.125.326h-.769l.589.52-.11.401-.075-.169-.258.67h-.77l.589.52-.224.822.663-.462.64.462-.199-.821.515-.52h-.655l-.11-.242.431-.3.641.461-.199-.821.515-.52h-.655l-.302-.67-.006.015-.076-.313.515-.52h-.656l-.302-.67-.258.67H16.3l.588.52-.223.82Zm-1.03 3.227-.662.462.224-.822-.535-.473.131.54-.64-.461-.663.461.224-.82-.589-.521h.769l.052-.135-.585-.421-.663.461.224-.82-.588-.521h.768l.258-.67.035.078.098-.357-.588-.52h.768l.258-.67.302.67h.655l-.515.52.2.82-.641-.46-.408.283.138.306h.655l-.514.52.171.707.177-.461.303.67h.655l-.515.52.057.234h.726l.258-.67.302.67h.655l-.514.52.199.822-.641-.462Z" clip-rule="evenodd"/></g></g></g><defs><clipPath id="a"><rect width="20" height="15" fill="#fff" rx="2"/></clipPath></defs></svg>