<svg xmlns="http://www.w3.org/2000/svg" width="20" height="15" fill="transparent" viewBox="0 0 20 15"><g clip-path="url(#a)"><mask id="b" width="20" height="15" x="0" y="0" maskUnits="userSpaceOnUse" style="mask-type:luminance"><path fill="#fff" d="M0 0h20v15H0z"/></mask><g mask="url(#b)"><path fill="#4141DB" fill-rule="evenodd" d="M0 0v15h20V0H0Z" clip-rule="evenodd"/><mask id="c" width="20" height="15" x="0" y="0" maskUnits="userSpaceOnUse" style="mask-type:luminance"><path fill="#fff" fill-rule="evenodd" d="M0 0v15h20V0H0Z" clip-rule="evenodd"/></mask><g mask="url(#c)"><path fill="#F90000" stroke="#F7FCFF" stroke-width="1.25" d="M0 8.125h-.625v2.5h21.25v-2.5H0Z"/><g filter="url(#d)"><path fill="#FFDE00" fill-rule="evenodd" d="m5.119 6.32.53-.37.597.43-.009.032.027-.019.027.02-.008-.033.617-.43.596.43-.009.032.027-.019.027.02-.008-.033.617-.43.513.37h-.29l.588.521-.224.821.663-.461.513.37h-.29l.588.52-.199.73h-.39l.589.52-.199.73h-.39l.589.52-.199.73h-.311l-.302-.67-.258.67h-.768l.588.52-.199.73h-.311l-.302-.67-.258.67h-.69l-.302-.67-.258.67h-.69l-.302-.67-.258.67h-.373l-.177-.73.515-.52h-.655l-.302-.67-.258.67h-.373l-.177-.73.515-.52h-.338l-.177-.73.515-.52h-.338l-.177-.73.515-.52h-.237l.53-.37.642.461-.2-.821.515-.52h-.237Zm-.107 0 .199-.729-.588-.52h.768l.258-.67.302.67h.689l.258-.67.302.67h.69l.258-.67.302.67h.655l-.515.52.177.73h.373l.258-.67.302.67h.655l-.515.52.177.73h.373l.258-.67.302.67h.655l-.515.52.177.73h.338l-.515.52.177.73h.338l-.515.52.2.821-.641-.461-.531.37h.237l-.515.52.2.821-.641-.461-.531.37h.237l-.515.52.2.821-.641-.461-.617.43.008.031-.027-.019-.027.02.009-.033-.596-.43-.617.43.008.032-.027-.019-.027.02.009-.033-.596-.43-.663.462.224-.821-.588-.52h.29L4.4 12.2l-.663.461.224-.821-.588-.52h.29l-.513-.37-.663.461.224-.821-.588-.52h.39l.198-.73-.588-.52h.39l.198-.73-.588-.52h.768l.258-.67.302.67h.311l.199-.73-.588-.52h.768l.258-.67.302.67h.311ZM3.35 8.595l.314.227h-.212l-.102-.227Zm-.73.227.372-.26-.1.26H2.62Zm0 1.25h.272l.1-.26-.372.26Zm.73-.227.102.227h.212l-.314-.227Zm2.742 3.247.173-.174.197.174-.196.718-.174-.718Zm1.424.718.196-.718-.197-.174-.173.174.174.718Zm2.876-3.738h-.272l.372-.26-.1.26Zm.56 0-.102-.227.315.227h-.213Zm.213-1.25-.315-.227.102.227h.213Zm-.673-.26-.372.26h.272l.1-.26Zm-2.78-2.97-.196.718-.174-.718.173-.174.197.174Zm-1.447-.174-.173.174.174.718.196-.718-.197-.174Z" clip-rule="evenodd"/></g></g></g></g><defs><clipPath id="a"><rect width="20" height="15" fill="#fff" rx="2"/></clipPath><filter id="d" width="15.483" height="15.512" x="-.877" y="1.401" color-interpolation-filters="sRGB" filterUnits="userSpaceOnUse"><feFlood flood-opacity="0" result="BackgroundImageFix"/><feColorMatrix in="SourceAlpha" result="hardAlpha" values="0 0 0 0 0 0 0 0 0 0 0 0 0 0 0 0 0 0 127 0"/><feOffset/><feGaussianBlur stdDeviation="1.5"/><feColorMatrix values="0 0 0 0 0 0 0 0 0 0 0 0 0 0 0 0 0 0 0.24 0"/><feBlend in2="BackgroundImageFix" result="effect1_dropShadow_431_22374"/><feBlend in="SourceGraphic" in2="effect1_dropShadow_431_22374" result="shape"/></filter></defs></svg>