<svg xmlns="http://www.w3.org/2000/svg" width="20" height="15" fill="transparent" viewBox="0 0 20 15"><g clip-path="url(#a)"><mask id="b" width="20" height="15" x="0" y="0" maskUnits="userSpaceOnUse" style="mask-type:luminance"><path fill="#fff" d="M0 0h20v15H0z"/></mask><g mask="url(#b)"><path fill="#2E42A5" fill-rule="evenodd" d="M0 0v15h20V0H0Z" clip-rule="evenodd"/><mask id="c" width="20" height="15" x="0" y="0" maskUnits="userSpaceOnUse" style="mask-type:luminance"><path fill="#fff" fill-rule="evenodd" d="M0 0v15h20V0H0Z" clip-rule="evenodd"/></mask><g fill-rule="evenodd" clip-rule="evenodd" mask="url(#c)"><path fill="#F7FCFF" d="M2.659 3.843 1.416 4.5l.6-1.167-.766-.855.952-.035.457-1.192.349 1.192 1.114.035-.802.855.509 1.167-1.17-.656Zm4.436 3.08-1.534.642.602-1.61-1.334-1.08h1.598l.668-1.742.51 1.742h1.6l-1.137 1.08.565 1.61-1.538-.642Z"/><path fill="#F9E813" d="M0 8.75v2.5h20v-2.5H0Z"/></g></g></g><defs><clipPath id="a"><rect width="20" height="15" fill="#fff" rx="2"/></clipPath></defs></svg>