<svg xmlns="http://www.w3.org/2000/svg" width="1760" height="15" fill="transparent" viewBox="0 0 1760 15"><g clip-path="url(#a)"><g clip-path="url(#b)"><mask id="c" width="20" height="15" x="0" y="0" maskUnits="userSpaceOnUse" style="mask-type:luminance"><path fill="#fff" d="M0 0h20v15H0z"/></mask><g mask="url(#c)"><path fill="#C51918" fill-rule="evenodd" d="M0 0v15h20V0H0Z" clip-rule="evenodd"/><mask id="d" width="20" height="15" x="0" y="0" maskUnits="userSpaceOnUse" style="mask-type:luminance"><path fill="#fff" fill-rule="evenodd" d="M0 0v15h20V0H0Z" clip-rule="evenodd"/></mask><g mask="url(#d)"><path fill="#F7FCFF" fill-rule="evenodd" d="M6 0h3v6h11v3H9v6H6V9H0V6h6V0Z" clip-rule="evenodd"/></g></g></g><g clip-path="url(#e)"><mask id="f" width="20" height="15" x="60" y="0" maskUnits="userSpaceOnUse" style="mask-type:luminance"><path fill="#fff" d="M60 0h20v15H60z"/></mask><g mask="url(#f)"><path fill="#279E19" fill-rule="evenodd" d="M60 0v15h20V0H60Z" clip-rule="evenodd"/><mask id="g" width="20" height="15" x="60" y="0" maskUnits="userSpaceOnUse" style="mask-type:luminance"><path fill="#fff" fill-rule="evenodd" d="M60 0v15h20V0H60Z" clip-rule="evenodd"/></mask><g fill-rule="evenodd" clip-rule="evenodd" mask="url(#g)"><path fill="#F7FCFF" d="M70 0h1.25v8.75H80V10h-8.75v5H70v-5H60V8.75h10V0Z"/><path fill="#272727" d="M68.75 0H70v7.5h10v1.25H70V15h-1.25V8.75H60V7.5h8.75V0Z"/><path fill="#FECA00" d="M67.5 0h1.25v6.25H80V7.5H68.75V15H67.5V7.5H60V6.25h7.5V0Z"/><path fill="#C51918" d="M70 12.5a5 5 0 1 0 0-10 5 5 0 0 0 0 10Z"/><path fill="#804BFF" d="M69.204 5.258s.237-.77.789-.372c.865.426 1.15.915 1.484 1.47.334.554-.819.148-1.034-.164-.215-.312-1.408-.413-1.24-.674.17-.26 0-.26 0-.26Z"/><path fill="#A95601" d="M69.008 9.203s-.587.804 0 .804c.588 0 2.969-.173 2.683-.402-.285-.229-2.4 0-2.4 0l-.283-.402Z"/><path fill="#804BFF" d="M69.886 9.178c-.06-.069-1.13-2.497-.633-3.002.497-.504.789-.208.789.55 0 .756.03 2.64-.156 2.452Z"/><path fill="#279E19" d="M69.823 8.784s-.061.59.242 1.28c.304.688.917.675.917.111 0-.564.447-.035.62.342.17.376-.274-3.342-.905-4.174-.632-.832-1.241-.886-1.057-.348.183.537.183 2.79.183 2.79Z"/><path fill="#FECA00" d="M69.455 4.75s-.267.171-.267.643.632-.146.632-.146l-.365-.497Zm.056-.18.552-.289.55.29-.105-.614.446-.434-.616-.09-.275-.558-.276.558-.616.09.446.434-.106.614Zm0 7.376.552-.29.55.29-.105-.614.446-.434-.616-.09-.275-.558-.276.558-.616.09.446.434-.106.614Zm4.052-3.79-.552.29.106-.614-.446-.434.616-.09.275-.558.276.558.616.09-.446.434.106.614-.552-.29Zm-7.571-.324-.106.614.552-.29.55.29-.105-.614.446-.434-.616-.09-.275-.558-.276.558-.616.09.446.434Zm1.8-2.393-.174.597-.368-.502-.623.02.364-.506-.21-.586.593.19.492-.381.003.622.515.35-.592.196Zm5.131 5.473.174-.597.592-.195-.515-.35-.003-.623-.492.38-.593-.189.21.586-.363.505.622-.018.368.502Zm.088-5.546-.174.598-.368-.502-.623.018.364-.505-.21-.586.593.19.492-.381.003.622.514.35-.59.196Zm-5.248 5.723.175-.598.591-.195-.514-.35-.003-.623-.493.38-.593-.189.21.586-.363.506.622-.02.368.503Z"/></g></g></g><g clip-path="url(#h)"><mask id="i" width="20" height="15" x="120" y="0" maskUnits="userSpaceOnUse" style="mask-type:luminance"><path fill="#fff" d="M120 0h20v15h-20z"/></mask><g mask="url(#i)"><path fill="#C51918" fill-rule="evenodd" d="M120 0v15h20V0h-20Z" clip-rule="evenodd"/><mask id="j" width="20" height="15" x="120" y="0" maskUnits="userSpaceOnUse" style="mask-type:luminance"><path fill="#fff" fill-rule="evenodd" d="M120 0v15h20V0h-20Z" clip-rule="evenodd"/></mask><g mask="url(#j)"><path fill="#F7FCFF" fill-rule="evenodd" d="M128.75 0h2.5v6.25H140v2.5h-8.75V15h-2.5V8.75H120v-2.5h8.75V0Z" clip-rule="evenodd"/><path fill="#4257BF" d="M120 0h8.75v6.25H120zm11.25 8.75H140V15h-8.75z"/><path fill="#309404" d="m128.523 6.944.622.06c-.106 1.112.032 1.581.257 1.581v.625c-.778 0-1.018-.814-.879-2.266Zm2.994 0-.622.06c.106 1.112-.032 1.581-.257 1.581v.625c.777 0 1.018-.814.879-2.266Z"/><path fill="#003994" d="M129.205 6.683h.591v.923h-.591zm.909 1.096h.591v.468a.455.455 0 0 1-.455.455h-.136v-.923Z"/><path fill="#DE2110" d="M130.068 6.625h.591v.923h-.591zm-.863 1.154h.59v.923h-.136a.454.454 0 0 1-.454-.455V7.78Z"/><path fill="#00319C" d="m128.959 6.63-.418-.464c.441-.397.902-.604 1.375-.604.474 0 .934.207 1.376.604l-.418.465c-.335-.301-.652-.444-.958-.444-.305 0-.623.143-.957.444Z"/><path fill="#DE2110" d="m129.004 9.746-.418-.464c.442-.398.902-.604 1.376-.604.474 0 .934.206 1.375.604l-.418.464c-.334-.3-.652-.443-.957-.443-.306 0-.623.142-.958.443Z"/></g></g></g><g fill-rule="evenodd" clip-path="url(#k)" clip-rule="evenodd"><path fill="#F7FCFF" d="M190 0h10v15h-10V0Z"/><path fill="#36A400" d="M180 0h10v15h-10V0Z"/><path fill="red" d="M191.637 3.908a4.7 4.7 0 0 1 2.441.673 5.323 5.323 0 1 0-.302 7.222 4.723 4.723 0 0 1-2.139.505c-2.482 0-4.494-1.88-4.494-4.2 0-2.32 2.012-4.2 4.494-4.2Zm1.76 1.608-1.292 1.465-1.857-.511 1.03 1.61-1.03 1.713 1.948-.701 1.064 1.662V8.825L195 8.08l-1.74-.623.137-1.94Z"/></g><g clip-path="url(#l)"><mask id="m" width="20" height="15" x="240" y="0" maskUnits="userSpaceOnUse" style="mask-type:luminance"><path fill="#fff" d="M240 0h20v15h-20z"/></mask><g mask="url(#m)"><path fill="#2E42A5" fill-rule="evenodd" d="M240 0v15h20V0h-20Z" clip-rule="evenodd"/><mask id="n" width="20" height="15" x="240" y="0" maskUnits="userSpaceOnUse" style="mask-type:luminance"><path fill="#fff" fill-rule="evenodd" d="M240 0v15h20V0h-20Z" clip-rule="evenodd"/></mask><g mask="url(#n)"><path fill="#FECA00" fill-rule="evenodd" d="M240 0v7.5h20V0h-20Z" clip-rule="evenodd"/><path fill="#E31D1C" fill-rule="evenodd" d="M240 11.25V15h20v-3.75h-20Z" clip-rule="evenodd"/><path fill="#7B2900" fill-rule="evenodd" d="M245.758 3.62c-.075-.17 2.819-1.029 3.036-1.029.217 0 .491.515.491.515l1.76.142s-.208-.657 0-.657 3.395 1.107 3.395 1.107-3.984.48-3.984.589c0 .108.261.701.261.701l-.737.242s.044-.716-.076-.716c-.121 0-.477.856-.477.856l-.35-1.083s-3.244-.497-3.319-.667Z" clip-rule="evenodd"/><path fill="#FECA00" d="m245.77 6.261.788.189c-.824 3.447-.062 5.1 2.284 5.254l-.053.809c-2.94-.193-3.946-2.375-3.019-6.252Z"/><path fill="#07138E" d="m246.25 5.797.801.125c-.565 3.608-.113 5.24 1.155 5.195l.028.81c-2.025.07-2.619-2.073-1.984-6.13Z"/><path fill="#E10001" d="m247.06 5.466.801.125c-.565 3.608-.113 5.24 1.155 5.195l.028.81c-2.025.07-2.619-2.073-1.984-6.13Z"/><path fill="#07138E" d="m248.564 12.046.806-.079c.066.683.016 1.272-.157 1.766l-.765-.267c.131-.373.171-.847.116-1.42Z"/><path stroke="#FECA00" stroke-width=".81" d="M253.437 6.355s1.292 5.809-2.687 5.708"/><path fill="#07138E" d="m253.351 5.797-.8.125c.564 3.608.112 5.24-1.155 5.195l-.028.81c2.024.07 2.618-2.073 1.983-6.13Z"/><path fill="#E10001" d="m252.541 5.466-.8.125c.564 3.608.112 5.24-1.155 5.195l-.029.81c2.025.07 2.619-2.073 1.984-6.13Z"/><path fill="#07138E" d="m250.88 12.05-.805-.087c-.068.623-.016 1.164.161 1.618l.755-.294c-.126-.323-.165-.734-.111-1.237Z"/><path fill="#908F89" d="M248.667 10.938h2.431v1.158h-2.431z"/><path stroke="#FEE901" stroke-width=".625" d="M249.882 11.25c.685 0 1.277-.386 1.686-.954.409-.567.652-1.336.652-2.171 0-.835-.243-1.604-.652-2.171-.409-.568-1.001-.954-1.686-.954s-1.277.386-1.686.954c-.409.567-.652 1.336-.652 2.171 0 .835.243 1.604.652 2.171.409.568 1.001.954 1.686.954Z"/><mask id="o" width="6" height="8" x="247" y="4" maskUnits="userSpaceOnUse" style="mask-type:luminance"><path fill="#fff" stroke="#fff" stroke-width=".625" d="M249.882 11.25c.685 0 1.277-.386 1.686-.954.409-.567.652-1.336.652-2.171 0-.835-.243-1.604-.652-2.171-.409-.568-1.001-.954-1.686-.954s-1.277.386-1.686.954c-.409.567-.652 1.336-.652 2.171 0 .835.243 1.604.652 2.171.409.568 1.001.954 1.686.954Z"/></mask><g fill-rule="evenodd" clip-rule="evenodd" mask="url(#o)"><path fill="#8DDD61" d="M251.349 9.628s-.985-.536-1.268-.727c-.282-.19-.119-.617-.606-.503-.486.114-.878.312-.878.856s-.382.867-.512.495c-.13-.371-.743-2.109 0-2.109s2.479.39 2.99.39c.511 0 .808.265.808.745 0 .644-.534.853-.534.853Z"/><path fill="#FEE901" d="M249.882 6.801a.41.41 0 0 0 .405-.413.41.41 0 0 0-.405-.414.41.41 0 0 0-.405.414.41.41 0 0 0 .405.413Z"/><path fill="#F7FCFF" d="M248.543 6.838s.472-.114 1.123.325c.651.438 2.229.688 2.229.344v.67s-3.502-.217-3.69 0c-.187.219-.206-1.217 0-1.34.206-.121.338 0 .338 0Z"/></g></g></g></g><g clip-path="url(#p)"><mask id="q" width="20" height="15" x="300" y="0" maskUnits="userSpaceOnUse" style="mask-type:luminance"><path fill="#fff" d="M300 0h20v15h-20z"/></mask><g mask="url(#q)"><path fill="#F7FCFF" fill-rule="evenodd" d="M300 0v15h20V0h-20Z" clip-rule="evenodd"/><mask id="r" width="20" height="15" x="300" y="0" maskUnits="userSpaceOnUse" style="mask-type:luminance"><path fill="#fff" fill-rule="evenodd" d="M300 0v15h20V0h-20Z" clip-rule="evenodd"/></mask><g fill-rule="evenodd" clip-rule="evenodd" mask="url(#r)"><path fill="#40A8FF" d="M300 0v5h20V0h-20Z"/><path fill="#272727" d="M300 5v5h20V5h-20Z"/></g></g></g><g clip-path="url(#s)"><mask id="t" width="20" height="15" x="360" y="0" maskUnits="userSpaceOnUse" style="mask-type:luminance"><path fill="#fff" d="M360 0h20v15h-20z"/></mask><g mask="url(#t)"><path fill="#F7FCFF" fill-rule="evenodd" d="M360 0v15h20V0h-20Z" clip-rule="evenodd"/><mask id="u" width="20" height="15" x="360" y="0" maskUnits="userSpaceOnUse" style="mask-type:luminance"><path fill="#fff" fill-rule="evenodd" d="M360 0v15h20V0h-20Z" clip-rule="evenodd"/></mask><g mask="url(#u)"><path fill="#BF2714" fill-rule="evenodd" d="M360 0v5h20V0h-20Z" clip-rule="evenodd"/><path fill="#272727" fill-rule="evenodd" d="M360 10v5h20v-5h-20Z" clip-rule="evenodd"/><path fill="#C09302" d="m367.663 6.388.624.028-.157 3.419-.624-.029.157-3.418Zm.652.212.624.035-.157 2.772-.624-.035.157-2.772Z"/><path fill="#C09302" d="m368.968 6.808.623.05-.157 1.91-.623-.05.157-1.91Zm3.369-.42-.624.028.157 3.419.624-.029-.157-3.418Zm-.652.212-.624.035.157 2.772.624-.035-.157-2.772Z"/><path fill="#C09302" d="m371.032 6.808-.623.05.157 1.91.623-.05-.157-1.91Zm-1.049 2.772-.609-.14.258-1.126.609.14-.258 1.125Z"/><path fill="#C09302" d="m370.45 9.58.609-.14-.258-1.126-.609.14.258 1.125Z"/><path fill="#C09302" d="M370.295 9.569h-.625V8.464h.625v1.105Zm-1.148-2.749.625.016-.037 1.488-.625-.015.037-1.488Zm1.087 0 .625.016-.037 1.488-.625-.015.037-1.488Z"/><path fill="#C09302" d="m368.336 9.952.163-.604c.663.179 1.172.267 1.519.267.348 0 .857-.088 1.52-.267l.162.604c-.711.191-1.269.288-1.682.288-.412 0-.97-.097-1.682-.288Zm-.659-3.562c-.042-.414.2-.693.609-.657.135.011.286.051.487.12l.116.04c.277.098.353.124.368.127-.061-.014.12-.34.161-.396.005.035-.016.03-.066.02l-.564-.113.402-.411a.73.73 0 0 1 .54-.216c.022 0 .043 0 .11-.005l.107-.005c.39-.013.669.098.669.499 0 .143.019.374.048.549.011.059.03.114-.027.138.002-.02.139-.075.351-.164l.026-.01c.617-.258.689-.282.888-.16.132.08.259.225.4.44l-.523.343a1.105 1.105 0 0 0-.198-.248c.078.055-.187.143-.327.201l-.025.011c-.48.2-.544.225-.681.225-.374 0-.508-.383-.545-.932-.115.38-.459.86-.743.86-.124 0-.065.02-.58-.164l-.107-.038a1.698 1.698 0 0 0-.34-.089c.003-.003.013-.014.025-.024l-.581.058Z"/></g></g></g><g clip-path="url(#v)"><mask id="w" width="20" height="15" x="420" y="0" maskUnits="userSpaceOnUse" style="mask-type:luminance"><path fill="#fff" d="M420 0h20v15h-20z"/></mask><g fill-rule="evenodd" clip-rule="evenodd" mask="url(#w)"><path fill="#F7FCFF" d="M420 0h20v15h-20V0Z"/><path fill="#272727" d="M420 0v5h20V0h-20Z"/><path fill="#5EAA22" d="M420 10v5h20v-5h-20Z"/><path fill="#E31D1C" d="m420 0 10 7.5-10 7.5V0Zm13.555 9.673s-1.422-.859-1.422-2.279 1.422-2.167 1.422-2.167c-.636-.404-2.843.173-2.843 2.213 0 2.041 2.186 2.418 2.843 2.233Zm1.15-2.603-.827-.775.286.99-.801.38.983.32.427 1.07.187-.991.972.214-.735-.717.248-.766-.74.275Z"/></g></g><g clip-path="url(#x)"><mask id="y" width="22" height="15" x="480" y="0" maskUnits="userSpaceOnUse" style="mask-type:luminance"><path fill="#fff" d="M480 0h21.25v15H480z"/></mask><g fill-rule="evenodd" clip-rule="evenodd" mask="url(#y)"><path fill="#43B764" d="M480 0v7.5h20.25V0H480Z"/><path fill="#B4D7F4" d="M480 7.5V15h20.25V7.5H480Z"/><path fill="#BE0027" d="m480 0 20.875 7.5L480 15V0Z"/><path fill="#F3E294" d="M485.063 11.572a.774.774 0 0 1 .304-.192 16.31 16.31 0 0 0-.022-1.246c-.033-.049-.09-.09-.19-.09-.25 0-.799-.214-.799-.521 0 0 .409.185.524.092.048-.04-.079-.161-.232-.309-.207-.199-.462-.444-.4-.596 0 0 .402.356.487.356.039 0 .013-.115-.014-.231-.032-.138-.064-.277.014-.223.145.098.545.778.545 1.003 0 .122.032.315.062.465l-.001-.005a7.235 7.235 0 0 0-.072-.69c-.18-1.125-.186-2.278.064-2.891-.125-.078-.216-.176-.216-.29 0 0 .41.167.524.084.048-.035-.078-.145-.232-.278-.207-.179-.461-.4-.4-.536 0 0 .402.32.488.32.039 0 .012-.104-.015-.208-.032-.124-.064-.249.015-.2.144.088.544.7.544.902v.005c.156-.193.337-.372.432-.417.102-.048.06.076.019.2-.035.105-.07.208-.019.208.111 0 .633-.32.633-.32.081.137-.251.357-.519.536-.2.133-.365.243-.302.278.149.084.681-.083.681-.083 0 .277-.714.469-1.038.469-.121 0-.194.032-.238.072a5.5 5.5 0 0 0-.031.641c.163-.209.365-.414.468-.463.102-.048.06.077.019.2-.035.105-.07.209-.019.209.112 0 .634-.32.634-.32.08.136-.251.357-.52.536-.2.132-.365.242-.301.278.148.083.68-.084.68-.084 0 .246-.564.425-.917.462.02.202.046.407.078.61a10.34 10.34 0 0 1 .096 1.094c.016-.1.027-.198.027-.271 0-.225.401-.905.545-1.003.079-.054.046.085.014.223-.026.115-.053.23-.014.23.086 0 .487-.355.487-.355.062.152-.193.397-.399.596-.154.147-.281.27-.232.309.114.092.524-.093.524-.093 0 .308-.549.521-.799.521a.237.237 0 0 0-.147.044c.007.264.007.527.003.777a.782.782 0 0 1 .324.207c.161-.01.319-.035.474-.073.3-.165.965-.697 1.133-.906.127-.158.176-.47.222-.765.026-.168.052-.331.09-.457.107-.344.296.42.296.538 0 .119.155-.44.155-.833 0-.197-.039-.323-.078-.45a1.352 1.352 0 0 1-.077-.445c0-.23.134-.189.258-.07a1.654 1.654 0 0 1-.103-.548c0-.254-.032-.33-.046-.35.013.006.046.01.116-.029.12-.065.176.015.223.082.041.059.075.107.139.04.07-.073-.081-.156-.305-.28-.215-.118-.498-.274-.717-.494-.448-.45.139-.604.24-.447.1.157.697.333.35-.189-.211-.317-.471-.313-.708-.31-.153.003-.296.005-.409-.079-.196-.146.077-.296.226-.378.071-.039.114-.062.064-.062a1 1 0 0 1-.24-.05 1.796 1.796 0 0 0-.49-.084c-.318 0-.945-.284-.728-.284.077 0 .191-.027.317-.058.138-.033.29-.069.42-.076a7.248 7.248 0 0 0-1.307-.445l.083-.332c.486.12.923.266 1.31.44-.066-.102-.139-.214-.199-.319-.208-.362.441.2.697.573l.001.001a3.85 3.85 0 0 1 1.033.849V4.56c.243.083.381.867.453 1.457.053.118.099.24.137.367.094-.251.272-.519.433-.287.19.275-.147 1.838-.271 2.378a4.627 4.627 0 0 1-.018.169c.295-.188.448-.623.527-.846.068-.192.08-.226.08.191 0 .54-.42 1.074-.764 1.421-.05.171-.108.337-.175.5a2.48 2.48 0 0 0 .597-.309c.276-.178.411-.266.342.201-.076.51-.815.697-1.279.766a5.393 5.393 0 0 1-.105.16l-.02.024a4.871 4.871 0 0 1-.218.208l.136-.06c.182-.082.347-.157.556-.157.126 0-.047.066-.291.159-.288.11-.677.258-.791.382a1.541 1.541 0 0 0-.104.126c-.074.1-.097.13-.33.136a3.262 3.262 0 0 1-1.127.361.764.764 0 0 1 .035.098h-1.645s.013-.048.044-.117a3.283 3.283 0 0 1-.992-.341h-.026c-.356 0-.373-.022-.459-.137a1.541 1.541 0 0 0-.104-.127c-.114-.123-.503-.271-.791-.381-.244-.093-.417-.16-.291-.16.209 0 .374.076.556.158a4.175 4.175 0 0 0 .404.162 5.154 5.154 0 0 1-.334-.31l-.019-.024a3.134 3.134 0 0 1-.092-.14c-.431-.047-1.351-.214-1.436-.786-.069-.467.066-.38.342-.201.166.107.383.248.637.32l.123.033a4.642 4.642 0 0 1-.133-.349c-.351-.314-.969-.961-.969-1.616 0-.417.012-.383.08-.19.081.228.24.68.552.86 0 0-.545-2.228-.314-2.562.232-.334.5.37.5.57 0 .034.004-.004.011-.09.037-.406.172-1.9.512-2.017v.808c0 .037.016.052.046.048.226-.298.512-.565.856-.798.051-.064.096-.123.131-.174.257-.372.905-.935.698-.573-.062.109-.138.224-.206.33l-.057.088a7.322 7.322 0 0 1 1.518-.539l.083.332a7.21 7.21 0 0 0-1.334.458c.099.015.205.04.303.063.126.03.24.058.317.058.217 0-.41.284-.728.284-.187 0-.353.046-.49.084a1 1 0 0 1-.24.05c-.05 0-.007.023.064.062.149.082.422.232.226.378-.114.084-.257.082-.409.08-.169-.003-.351-.006-.517.109a2.73 2.73 0 0 0-.281.511c.076.1.372-.016.44-.122.1-.157.688-.003.24.447-.22.22-.502.376-.717.494-.07.04-.133.074-.185.106l-.019.183a.348.348 0 0 0 .038-.049c.046-.067.102-.147.223-.082.07.038.103.035.116.03-.014.018-.046.095-.046.35 0 .199-.047.391-.104.547.125-.119.259-.16.259.07 0 .195-.039.32-.077.446a1.365 1.365 0 0 0-.078.449c0 .392.155.952.155.833s.189-.882.295-.538c.039.126.065.289.091.457.046.295.095.607.222.765.146.182.665.606.996.823.204.072.412.12.625.144Zm-2.332-4.352s-.003 0-.006.005c.004-.002.006-.004.006-.005Zm5.803.005c-.003-.005-.006-.006-.006-.005 0 0 .001.003.006.005Zm.112 2.746a3.02 3.02 0 0 0 .041-.089c-.035.034-.061.07-.041.089Zm-2.886-3.128a1.867 1.867 0 0 1-.056.282c.015-.104.034-.198.056-.282Z"/></g></g><g clip-path="url(#z)"><mask id="A" width="20" height="15" x="540" y="0" maskUnits="userSpaceOnUse" style="mask-type:luminance"><path fill="#fff" d="M540 0h20v15h-20z"/></mask><g mask="url(#A)"><path fill="#FFB400" fill-rule="evenodd" d="M540 0v15h20V0h-20Z" clip-rule="evenodd"/><mask id="B" width="20" height="15" x="540" y="0" maskUnits="userSpaceOnUse" style="mask-type:luminance"><path fill="#fff" fill-rule="evenodd" d="M540 0v15h20V0h-20Z" clip-rule="evenodd"/></mask><g mask="url(#B)"><path fill="#C51918" fill-rule="evenodd" d="M540 0v3.75h20V0h-20Zm0 11.25V15h20v-3.75h-20Z" clip-rule="evenodd"/><path fill="#F1F9FF" d="M543.13 6.42h.7v3.64h-.7z"/><path fill="#C88A02" fill-rule="evenodd" d="M544.11 5.79h-1.26v.35h.21v.28h.84v-.28h.21v-.35Zm-.21 4.48h.21v.35h-1.26v-.35h.21v-.28h.84v.28Z" clip-rule="evenodd"/><path fill="#AD1619" fill-rule="evenodd" d="M543.48 5.86c.152 0 .168-.057.258-.143.069-.067.232-.15.232-.242 0-.213-.219-.385-.49-.385s-.49.172-.49.385c0 .104.112.173.197.242.089.073.154.143.293.143Z" clip-rule="evenodd"/><path fill="#005BBF" fill-rule="evenodd" d="M542.85 10.62h1.26v.56s-.157-.07-.315-.07c-.157 0-.315.07-.315.07s-.157-.07-.315-.07a.898.898 0 0 0-.315.07v-.56Z" clip-rule="evenodd"/><mask id="C" width="3" height="2" x="542" y="10" maskUnits="userSpaceOnUse" style="mask-type:luminance"><path fill="#fff" fill-rule="evenodd" d="M542.85 10.62h1.26v.56s-.157-.07-.315-.07c-.157 0-.315.07-.315.07s-.157-.07-.315-.07a.898.898 0 0 0-.315.07v-.56Z" clip-rule="evenodd"/></mask><g fill="#fff" mask="url(#C)"><path d="m542.839 11.07-.028-.067a.837.837 0 0 1 .342-.076.37.37 0 0 1 .177.04.31.31 0 0 0 .15.033.31.31 0 0 0 .151-.034.367.367 0 0 1 .177-.039.83.83 0 0 1 .342.076l-.028.067a.768.768 0 0 0-.314-.07.306.306 0 0 0-.15.033.37.37 0 0 1-.178.04.368.368 0 0 1-.177-.04.308.308 0 0 0-.15-.033.765.765 0 0 0-.314.07Zm0-.21-.028-.067a.839.839 0 0 1 .342-.076.37.37 0 0 1 .177.04.31.31 0 0 0 .15.033.31.31 0 0 0 .151-.034.367.367 0 0 1 .177-.039.83.83 0 0 1 .342.076l-.028.067a.768.768 0 0 0-.314-.07.304.304 0 0 0-.15.034.37.37 0 0 1-.178.039.37.37 0 0 1-.177-.04.307.307 0 0 0-.15-.033.765.765 0 0 0-.314.07Z"/></g><path fill="#F1F9FF" d="M549.99 6.42h.7v3.64h-.7z"/><path fill="#C88A02" fill-rule="evenodd" d="M550.97 5.79h-1.26v.35h.21v.28h.84v-.28h.21v-.35Zm-.21 4.48h.21v.35h-1.26v-.35h.21v-.28h.84v.28Z" clip-rule="evenodd"/><path fill="#AD1619" fill-rule="evenodd" d="M550.34 5.86c.152 0 .168-.057.258-.143.07-.067.232-.15.232-.242 0-.213-.219-.385-.49-.385s-.49.172-.49.385c0 .104.112.173.197.242.089.073.154.143.293.143Z" clip-rule="evenodd"/><path fill="#005BBF" fill-rule="evenodd" d="M549.71 10.62h1.26v.56s-.158-.07-.315-.07c-.158 0-.315.07-.315.07s-.158-.07-.315-.07a.89.89 0 0 0-.315.07v-.56Z" clip-rule="evenodd"/><mask id="D" width="2" height="2" x="549" y="10" maskUnits="userSpaceOnUse" style="mask-type:luminance"><path fill="#fff" fill-rule="evenodd" d="M549.71 10.62h1.26v.56s-.158-.07-.315-.07c-.158 0-.315.07-.315.07s-.158-.07-.315-.07a.89.89 0 0 0-.315.07v-.56Z" clip-rule="evenodd"/></mask><g fill="#fff" mask="url(#D)"><path d="m549.699 11.07-.028-.067a.837.837 0 0 1 .342-.076.37.37 0 0 1 .177.04.307.307 0 0 0 .15.033.304.304 0 0 0 .15-.034.373.373 0 0 1 .178-.039c.114 0 .228.025.341.076l-.027.067a.768.768 0 0 0-.314-.07.306.306 0 0 0-.15.033.372.372 0 0 1-.178.04.368.368 0 0 1-.177-.04.31.31 0 0 0-.15-.033.765.765 0 0 0-.314.07Zm0-.21-.028-.067a.839.839 0 0 1 .342-.076.37.37 0 0 1 .177.04.307.307 0 0 0 .15.033.304.304 0 0 0 .15-.034.373.373 0 0 1 .178-.039.83.83 0 0 1 .341.076l-.027.067a.768.768 0 0 0-.314-.07.304.304 0 0 0-.15.034.373.373 0 0 1-.178.039.37.37 0 0 1-.177-.04.31.31 0 0 0-.15-.033.765.765 0 0 0-.314.07Z"/></g><path fill="#AD1619" fill-rule="evenodd" d="M543.117 9.8c.127-.153.197-.292.197-.44a.392.392 0 0 0-.076-.24l.008-.003c-.001 0 .139-.06.187-.084.09-.043.17-.089.247-.145a1.96 1.96 0 0 1 .216-.13l.095-.05.026-.013.119-.066a.748.748 0 0 0 .229-.18.334.334 0 0 0-.077-.499c-.087-.06-.204-.093-.376-.12l-.035-.005-.211-.033a14.746 14.746 0 0 1-.221-.036c.431-.072 1.045-.046 1.315.094l.257-.498c-.55-.284-1.806-.255-2.274.068-.344.237-.298.595.06.749.149.064.344.107.705.165a1.614 1.614 0 0 0-.157.101 1.058 1.058 0 0 1-.16.093l-.157.07-.02.009c-.291.132-.433.316-.39.647l.023.179.041.012.429.355Zm-.36-.463-.001.003.001-.002v-.001Zm7.684.023c0 .148.071.287.197.44l.43-.355.041-.012.023-.18c.042-.33-.099-.514-.391-.646l-.02-.009a7.206 7.206 0 0 1-.156-.07.967.967 0 0 1-.16-.093 1.901 1.901 0 0 0-.157-.101c.36-.058.555-.1.705-.165.358-.154.404-.512.06-.75-.469-.322-1.724-.351-2.275-.067l.257.498c.27-.14.885-.166 1.315-.094l-.221.036-.21.033-.036.005c-.172.027-.289.06-.376.12a.335.335 0 0 0-.077.499.76.76 0 0 0 .229.18c.034.02.071.04.12.066l.025.013.095.05a2.1 2.1 0 0 1 .217.13c.077.056.156.102.246.145l.187.084.009.003a.393.393 0 0 0-.077.24Z" clip-rule="evenodd"/><path fill="#F1F9FF" d="m543.702 7.75.207.043V8.1c-.22.175-.779.471-.779.471V7.75h.572Zm6.495 0-.207.043V8.1c.22.175.779.471.779.471V7.75h-.572Z"/><path fill="#AD1619" fill-rule="evenodd" d="M549.235 4.504V4.4c-.36-.258-.737-.387-1.131-.387a2.258 2.258 0 0 0-1.147-.195v-.002c-.582-.057-1.168.197-1.168.197-.591 0-1.132.387-1.132.387v.103l.706.709s.199.682 1.591.522v.002s.921-.026.986-.047c.026-.009.053-.016.08-.024.18-.053.386-.113.509-.453l.706-.71Zm-2.281-.654c-.02.236-.135 1.66 0 1.88V3.85Z" clip-rule="evenodd"/><path fill="#C88A02" fill-rule="evenodd" d="M545.196 5.093v-.002l-.496-.467.048-.051.466.439.012-.055a.591.591 0 0 0 .164.019V4.88l.103.056a.35.35 0 0 0 .22.019c.07-.011.118-.093.133-.267l.032-.352.105.337c.047.152.12.22.223.22.101 0 .142-.037.147-.13l.012-.265.12.236c.043.085.102.124.187.124.121 0 .202-.1.202-.26h.142c0 .16.081.26.202.26.084 0 .144-.039.187-.124l.119-.236.013.264c.005.094.045.13.146.13.103 0 .176-.067.224-.22l.105-.336.031.352c.016.174.063.256.134.267.096.016.168.008.219-.02l.103-.055v.095a.594.594 0 0 0 .165-.02l.022.102.516-.485.048.051-.642.604c-.094.173-.141.286-.141.334 0 .072-.188.115-.554.159a9.027 9.027 0 0 1-.903.06v.001h-.07a9.027 9.027 0 0 1-.903-.061c-.367-.044-.554-.087-.554-.16a.17.17 0 0 0-.005-.033.564.564 0 0 1-.081-.194 2.74 2.74 0 0 0-.055-.106l-.142-.134h-.004Zm3.441.012c-.115.02-.198.018-.242-.018a.548.548 0 0 1-.241.007c-.098-.016-.167-.081-.208-.19a.317.317 0 0 1-.203.125c.448.063.762.153.762.153s-.008.066-.027.144l.071-.136.007-.01.081-.075Zm-1.105-.103a.229.229 0 0 1-.093-.083.308.308 0 0 1-.113.064c.07.005.139.012.206.02Zm-.453-.033a.32.32 0 0 1-.134-.117.324.324 0 0 1-.133.117l.097-.002h.056l.114.002Zm-1.69.207-.066-.061c.079.007.137 0 .171-.028.069.02.149.022.241.007.099-.016.167-.081.208-.19a.321.321 0 0 0 .196.124 6.516 6.516 0 0 0-.75.148Zm1.172-.194a6.329 6.329 0 0 0-.199.018.219.219 0 0 0 .088-.081c.033.028.07.05.111.063Zm1.722.581c.049.023.088 0 .119-.044l-.005.033a.703.703 0 0 1-.122.04c-.09.02-.219.041-.37.06-.297.035-.65.058-.93.06a8.871 8.871 0 0 1-.93-.06 3.823 3.823 0 0 1-.37-.06.838.838 0 0 1-.092-.026c.003 0 .005-.002.008-.003.153-.071 1.164-.139 1.346-.15.182.011 1.193.079 1.346.15Zm.193-.013-.001.002V5.55h.001Z" clip-rule="evenodd"/><path fill="#005BBF" fill-rule="evenodd" d="M546.945 3.342a.21.21 0 1 0 0-.42.21.21 0 0 0 0 .42Z" clip-rule="evenodd"/><path fill="#C88A02" fill-rule="evenodd" d="M546.809 4.373a.25.25 0 0 0 .02.064.264.264 0 0 0-.094-.017c-.097 0-.175.047-.175.105 0 .058.078.105.175.105.097 0 .175-.047.175-.105 0 .058.078.105.175.105.097 0 .175-.047.175-.105 0-.058-.078-.105-.175-.105a.29.29 0 0 0-.069.009.257.257 0 0 0-.001-.096c-.019-.095-.08-.163-.137-.152-.057.011-.088.097-.069.192Zm.101.152v-.003.003Zm-1.131-.018a.25.25 0 0 1-.02-.064c-.019-.095.012-.18.069-.192.057-.011.118.057.137.152a.257.257 0 0 1 .001.096.29.29 0 0 1 .069-.009c.097 0 .175.047.175.105 0 .058-.078.105-.175.105-.097 0-.175-.047-.175-.105v-.003.003c0 .058-.078.105-.175.105-.097 0-.175-.047-.175-.105 0-.058.078-.105.175-.105a.25.25 0 0 1 .094.017Zm2.192.064c-.008.057-.092.093-.188.08-.095-.014-.166-.072-.158-.13.008-.057.092-.092.188-.079a.26.26 0 0 1 .09.03.272.272 0 0 1-.011-.066c-.005-.097.038-.178.096-.18.058-.004.109.072.114.169a.285.285 0 0 1-.012.095.277.277 0 0 1 .069 0c.096.014.167.072.159.13-.008.057-.092.092-.188.079-.096-.014-.167-.071-.159-.128Zm0 0 .001-.004-.001.004Zm.667.277c.085.046.176.04.204-.01l.001-.003a.063.063 0 0 0 .03.019c.055.017.123-.045.151-.137.029-.092.006-.181-.049-.198-.055-.017-.123.044-.152.137a.316.316 0 0 0-.011.065.275.275 0 0 0-.076-.058c-.085-.046-.176-.04-.203.01-.028.052.019.13.105.175Zm-3.435.022c-.085.045-.177.04-.204-.01l-.001-.004a.075.075 0 0 1-.03.02c-.055.016-.123-.045-.151-.138-.029-.092-.007-.18.049-.198.055-.017.123.045.151.137a.264.264 0 0 1 .012.066.27.27 0 0 1 .075-.059c.086-.045.177-.04.204.01.027.052-.02.13-.105.176Zm1.664-2.322h.146v.092h.095v.146h-.095v.291h.095v.146h-.338v-.146h.097v-.291h-.097V2.64h.097v-.092Z" clip-rule="evenodd"/><path fill="#C88A02" d="M546.84 3.34h.28v.91h-.28z"/><path fill="#fff" d="m545.713 3.492-.001.07c-.621-.01-.977.08-1.067.26-.094.187-.077.414.054.684l-.063.03c-.139-.287-.158-.536-.054-.745.107-.214.484-.31 1.131-.299Z"/><path fill="#fff" d="m545.833 4.113-.036.06c-.135-.08-.203-.218-.203-.408 0-.273.141-.433.452-.542.198-.07.469-.042.813.083l-.023.066c-.331-.12-.587-.147-.767-.083-.285.1-.405.236-.405.476 0 .167.056.28.169.348Z"/><path fill="#C88A02" d="m544.788 4.398-.132.047c-.138-.39-.098-.656.136-.77.206-.1.507-.142.904-.125l-.006.14c-.376-.016-.655.022-.837.111-.154.075-.182.266-.065.597Z"/><path fill="#C88A02" d="M546.331 3.4c-.32 0-.452.077-.527.307-.048.147-.001.272.149.389l-.086.11c-.194-.15-.263-.336-.196-.542.096-.293.284-.405.66-.405.246 0 .439.065.572.197l.021.02v.675h-.14v-.615c-.104-.09-.254-.137-.453-.137Z"/><path fill="#fff" d="m548.156 3.562.001.07c.62-.01.976.08 1.067.26.093.187.076.414-.055.684l.063.03c.14-.287.159-.536.054-.745-.107-.214-.484-.31-1.13-.299Z"/><path fill="#fff" d="m547.936 4.128.036.06c.135-.081.203-.219.203-.409 0-.272-.14-.432-.451-.542-.199-.07-.47-.041-.814.084l.024.066c.33-.12.586-.147.766-.084.286.1.405.237.405.476 0 .167-.056.281-.169.349Z"/><path fill="#C88A02" d="m549.124 4.468.133.047c.137-.39.097-.655-.137-.77-.206-.1-.507-.141-.903-.125l.005.14c.376-.016.655.022.837.111.154.075.182.266.065.597Z"/><path fill="#C88A02" d="M547.573 3.41c.32 0 .452.078.527.308.048.147.001.272-.149.389l.086.11c.195-.15.263-.336.196-.542-.096-.294-.284-.405-.66-.405-.246 0-.438.065-.572.197l-.021.02v.675h.14v-.615c.104-.09.254-.137.453-.137Z"/><path fill="#E1E5E8" fill-rule="evenodd" d="M544.67 5.79h4.55v4.088s-.338 1.372-2.275 1.372c-1.937 0-2.275-1.408-2.275-1.408V5.79Z" clip-rule="evenodd" opacity=".3"/><mask id="E" width="6" height="7" x="544" y="5" maskUnits="userSpaceOnUse" style="mask-type:luminance"><path fill="#fff" fill-rule="evenodd" d="M544.67 5.79h4.55v4.088s-.338 1.372-2.275 1.372c-1.937 0-2.275-1.408-2.275-1.408V5.79Z" clip-rule="evenodd"/></mask><g mask="url(#E)"><path fill="#FFC034" d="M544.67 8.31h2.31v2.73h-2.31z"/><path fill="#AD1619" d="M544.95 8.45h.28v2.59h-.28zm.98 0h.28v2.59h-.28zm-.49 0h.28v2.59h-.28zm.98 0h.28v2.59h-.28zm-1.75-2.73h2.31v2.66h-2.31z"/><path fill="#AD1619" d="M546.91 8.24h2.31v2.66h-2.31z"/><path fill="#F1F9FF" d="M546.91 5.79h2.45v2.59h-2.45z"/><path fill="#C88A02" fill-rule="evenodd" d="M545.65 6h.21v.58h.14v-.29h.21v.29h.21v.364h-.21v.653h.21v.363h-1.26v-.363h.21v-.653h-.21V6.58h.14v-.29h.21v.29h.14V6Z" clip-rule="evenodd"/><path fill="#C88A02" d="m548.112 6.122.143-.153.301.28-.143.154-.301-.281Z"/><path fill="#FFC034" fill-rule="evenodd" d="M548.975 10.088V8.555h-1.75v1.52l.003.012c.088.377.39.568.872.568.481 0 .783-.186.872-.555l.003-.012Zm-.875.357c-.387 0-.598-.13-.665-.395V8.765h1.33v1.297c-.067.256-.278.383-.665.383Z" clip-rule="evenodd"/><path fill="#FFC034" fill-rule="evenodd" d="M548.172 8.683h-.146v.695l-.575-.625-.103.094.52.566h-.471v.21h.483l-.532.578.103.095.575-.626v.812h.146v-.739l.508.553.103-.095-.531-.578h.593v-.21h-.582l.52-.566-.103-.094-.508.552v-.622Z" clip-rule="evenodd"/><path fill="#F1F9FF" fill-rule="evenodd" d="M548.427 10.902s-1.483.116-1.483-.84c0 0-.014.84-1.562.84v.755h3.045v-.755Z" clip-rule="evenodd"/><path fill="#005BBF" fill-rule="evenodd" stroke="#AD1619" stroke-width=".729" d="M546.945 8.87c.29 0 .525-.25.525-.56 0-.31-.235-.56-.525-.56-.29 0-.525.25-.525.56 0 .31.235.56.525.56Z" clip-rule="evenodd"/></g></g></g></g><g clip-path="url(#F)"><mask id="G" width="20" height="15" x="600" y="0" maskUnits="userSpaceOnUse" style="mask-type:luminance"><path fill="#fff" d="M600 0h20v15h-20z"/></mask><g mask="url(#G)"><path fill="#FECA00" fill-rule="evenodd" d="M600 0v15h20V0h-20Z" clip-rule="evenodd"/><mask id="H" width="20" height="15" x="600" y="0" maskUnits="userSpaceOnUse" style="mask-type:luminance"><path fill="#fff" fill-rule="evenodd" d="M600 0v15h20V0h-20Z" clip-rule="evenodd"/></mask><g mask="url(#H)"><path fill="#5EAA22" fill-rule="evenodd" d="M600 0v5h20V0h-20Z" clip-rule="evenodd"/><path fill="#E31D1C" fill-rule="evenodd" d="M600 10v5h20v-5h-20Z" clip-rule="evenodd"/><path fill="#2B77B8" fill-rule="evenodd" d="M610 11.25a3.75 3.75 0 1 0 0-7.5 3.75 3.75 0 0 0 0 7.5Z" clip-rule="evenodd"/><path stroke="#FECA00" stroke-width=".938" d="m610 8.75-1.726.58.537-1.444-1.171-1.397h1.625L610 5l.735 1.489h1.661l-1.207 1.397.428 1.443L610 8.75Z" clip-rule="evenodd"/><path stroke="#2B77B8" stroke-width=".625" d="m609.81 7.522-1.303 2.725m1.098-3.072h-2.5m2.971.848 2.443 1.128m-1.915-1.73 1.769-1.936"/></g></g></g><g clip-path="url(#I)"><mask id="J" width="20" height="15" x="660" y="0" maskUnits="userSpaceOnUse" style="mask-type:luminance"><path fill="#fff" d="M660 0h20v15h-20z"/></mask><g mask="url(#J)"><path fill="#F7FCFF" fill-rule="evenodd" d="M660 0v15h20V0h-20Z" clip-rule="evenodd"/><mask id="K" width="20" height="15" x="660" y="0" maskUnits="userSpaceOnUse" style="mask-type:luminance"><path fill="#fff" fill-rule="evenodd" d="M660 0v15h20V0h-20Z" clip-rule="evenodd"/></mask><g mask="url(#K)"><path fill="#2E42A5" stroke="#2E42A5" d="M667 .5h-.5v6h-7v2h7v7h2v-7h12v-2h-12v-6H667Z"/></g></g></g><g clip-path="url(#L)"><mask id="M" width="20" height="15" x="720" y="0" maskUnits="userSpaceOnUse" style="mask-type:luminance"><path fill="#fff" d="M720 0h20v15h-20z"/></mask><g mask="url(#M)"><path fill="#67BFE5" fill-rule="evenodd" d="M720 0v15h20V0h-20Z" clip-rule="evenodd"/><mask id="N" width="20" height="15" x="720" y="0" maskUnits="userSpaceOnUse" style="mask-type:luminance"><path fill="#fff" fill-rule="evenodd" d="M720 0v15h20V0h-20Z" clip-rule="evenodd"/></mask><g mask="url(#N)"><path fill="#2E42A5" d="M720 0h11v9h-11z"/><mask id="O" width="11" height="9" x="720" y="0" maskUnits="userSpaceOnUse" style="mask-type:luminance"><path fill="#fff" d="M720 0h11v9h-11z"/></mask><g mask="url(#O)"><path fill="#F7FCFF" d="m718.747 8.125 2.476 1.086 10.083-8.03 1.306-1.614-2.647-.363-4.113 3.46-3.31 2.332-3.795 3.129Z"/><path fill="#F50100" d="m719.086 8.886 1.261.63L732.143-.583h-1.771l-11.286 9.469Z"/><path fill="#F7FCFF" d="m732.503 8.125-2.197 1.396-10.362-8.34-1.306-1.614 2.647-.363 4.113 3.46 3.31 2.332 3.795 3.129Z"/><path fill="#F50100" d="m732.418 8.67-1.261.63-5.023-4.323-1.489-.483-6.133-4.921h1.771l6.13 4.804 1.628.58 4.377 3.714Z"/><mask id="P" width="13" height="11" x="719" y="-1" fill="#000" maskUnits="userSpaceOnUse"><path fill="#fff" d="M719-1h13v11h-13z"/><path fill-rule="evenodd" d="M726 0h-1v4h-5v1h5v4h1V5h5V4h-5V0Z" clip-rule="evenodd"/></mask><path fill="#F50100" fill-rule="evenodd" d="M726 0h-1v4h-5v1h5v4h1V5h5V4h-5V0Z" clip-rule="evenodd"/><path fill="#F7FCFF" d="M725 0v-.938h-.938V0H725Zm1 0h.938v-.938H726V0Zm-1 4v.938h.938V4H725Zm-5 0v-.938h-.938V4H720Zm0 1h-.938v.938H720V5Zm5 0h.938v-.938H725V5Zm0 4h-.938v.938H725V9Zm1 0v.938h.938V9H726Zm0-4v-.938h-.938V5H726Zm5 0v.938h.938V5H731Zm0-1h.938v-.938H731V4Zm-5 0h-.938v.938H726V4Zm-1-3.063h1V-.938h-1V.938ZM725.938 4V0h-1.876v4h1.876ZM720 4.938h5V3.063h-5v1.874Zm.938.062V4h-1.876v1h1.876ZM725 4.062h-5v1.875h5V4.063ZM725.938 9V5h-1.876v4h1.876Zm.062-.938h-1v1.876h1V8.062ZM725.062 5v4h1.876V5h-1.876ZM731 4.062h-5v1.875h5V4.063ZM730.062 4v1h1.876V4h-1.876ZM726 4.938h5V3.063h-5v1.874ZM725.062 0v4h1.876V0h-1.876Z" mask="url(#P)"/></g><path fill="#F7FCFF" fill-rule="evenodd" d="M732.5 6.25h6.034v5.208s-.506 2.292-3.017 2.292-3.017-2.292-3.017-2.292V6.25Z" clip-rule="evenodd"/><mask id="Q" width="7" height="8" x="732" y="6" maskUnits="userSpaceOnUse" style="mask-type:luminance"><path fill="#fff" fill-rule="evenodd" d="M732.5 6.25h6.034v5.208s-.506 2.292-3.017 2.292-3.017-2.292-3.017-2.292V6.25Z" clip-rule="evenodd"/></mask><g mask="url(#Q)"><path fill="#C3352C" d="M732.5 6.25h6.034v1.875H732.5z"/><path fill="#C3352C" d="M735.086 7.917h.862v5.833h-.862z"/><path fill="#C3352C" fill-rule="evenodd" d="M732.5 10.208h6.034v.834H732.5v-.834Z" clip-rule="evenodd"/><path fill="#979797" fill-rule="evenodd" d="M734.088 12.96c.363.514.658.714.867.411.147-.212.162-.424-.047-.466a3.557 3.557 0 0 1-.256-.358l.007-.007c.059-.057.061-.133.049-.162-.004-.038.025-.091.214-.235.171-.13.246-.254.134-.39-.058-.07-.111-.085-.278-.11l-.051-.008a.841.841 0 0 1-.108-.023l-.116-.222a1.43 1.43 0 0 0-.639.122l-.189.08a.618.618 0 0 1-.077.032l.003-.003c.005-.003.013-.01.001-.01-.043 0-.091-.005-.222-.021l-.025-.004c-.378-.047-.472-.045-.533.13-.093.267.457.757.75.816.146.03.321.17.516.429Zm.41-.367a.339.339 0 0 0 .087-.008l.007-.016a.162.162 0 0 1-.094.024Zm-1.377-.738c-.007-.009-.01-.02-.004-.036-.001.003.002.01.01.02a.37.37 0 0 0 .032.036.08.08 0 0 1-.038-.02Zm.512.37c-.104-.02-.371-.242-.474-.35a.648.648 0 0 0 .103.016h.001l.053.006.025.003c.147.018.199.024.261.024.037 0 .029.012.025.02-.002.002-.003.004-.002.005.002.004.03-.009.173-.069l.188-.08c.11-.046.211-.077.322-.09.013.052.043.1.093.138.066.051.141.073.271.094-.161.133-.242.243-.267.351-.145.046-.132.209-.045.371.061.114.175.275.345.488l.122.058a.105.105 0 0 1-.072-.029c-.019-.016-.03-.025-.057.013-.001.002-.115-.075-.358-.417-.238-.318-.47-.504-.707-.551Zm.762.188c.003-.002.002-.004.002-.007l-.002.007Zm.1-.133h-.009.009Zm.003 0h-.003Z" clip-rule="evenodd"/><path stroke="#964C36" stroke-width=".625" d="M733.534 10.069s-.298-.413-.298-.56"/><path stroke="#2A8E51" stroke-width=".625" d="M733.349 9.714s-.381-.162-.381 0m.375-.171s-.268-.341-.47-.341c-.201 0-.197.17-.197.17m.514-.171s-.12-.558-.311-.558c-.192 0-.192.28-.192.28m.551.277s-.053-.478.194-.478"/><path stroke="#964C36" stroke-width=".625" d="M733.913 9.988s-.139-.49-.089-.628"/><path stroke="#2A8E51" stroke-width=".625" d="M733.86 9.592s-.302-.284-.358-.13m.411-.033s-.135-.413-.325-.482c-.189-.068-.243.093-.243.093m.541.015s.079-.565-.101-.63c-.181-.066-.276.196-.276.196m.423.449s.114-.467.346-.383"/><path stroke="#964C36" stroke-width=".5" d="M734.22 10.163s.198-.47.165-.613"/><path stroke="#2A8E51" stroke-width=".5" d="M734.321 9.775s.335-.244.371-.085m-.404-.083s.185-.393.381-.438c.197-.045.23.122.23.122m-.539-.051s-.009-.57.178-.614c.187-.043.25.229.25.229m-.475.395s-.056-.479-.296-.423m2.669 1.049s.152-.696.582-.696c.43 0 .623.736.623.736"/><path stroke="#2A8E51" stroke-width=".5" d="M736.331 9.401s.232-.41.996-.377c.765.033.905.377.905.377m-2.056-.523s.42-.52 1.009-.079l.2.08s.2-.59 1.166 0"/><path stroke="#964C36" stroke-width=".625" d="M737.336 10.023s.031-.65.134-.828m.717 2.251s-.387-.181-.502 0c-.116.182-1.508 1.851-1.508 1.851"/><path fill="#FFF203" fill-rule="evenodd" d="m736.853 11.622.863.603s.397-.283.198-.443c-.198-.16-.739-.442-.739-.442l-.322.282Z" clip-rule="evenodd"/><path fill="#00A651" fill-rule="evenodd" d="M736.823 11.653s-.2.21-.2.37-.186.588-.186.588.52.32.628.116c.108-.204.81-.082.686-.393-.124-.312-.928-.681-.928-.681Z" clip-rule="evenodd"/><path fill="#FFD100" fill-rule="evenodd" d="M733.16 6.989s.461-.237.689 0c.228.236.415-.02.415-.162 0-.143.362-.633.362-.235 0 .397-.112.621.206.621s1.752-.549 2.096-.386c.344.162.607.122.519-.111-.087-.233-.312-.378-.744-.251-.433.127-.331.25-.704.25-.374 0-.79-.123-.79-.123s.117-.21.543-.06c.427.148 1.016-.185 1.176-.185.16 0 .6-.01.644.118.044.127.31.243.107.362-.203.118-.537.192-.307.344.23.152.759.123.784.28.026.158.277.394.176.394-.101 0-.282.222-.452.155-.169-.068-.189-.127-.027-.182.163-.055.161-.286.027-.286s-.068.081-.373 0c-.305-.08-.709-.17-.685 0 .025.17.223.433-.143.468-.366.035-.538.175-.609.062-.071-.113-.326-.263-.126-.312.2-.048.392.164.464.13.072-.035.236-.054.099-.201-.137-.147-.363-.233-.154-.343.21-.11.045-.112-.354.115-.399.228-.621.421-.972.394-.35-.027-.481.01-.594-.027-.112-.037-.661.407-.819.294-.158-.112-.667-.156-.576-.294.092-.139.215-.21.353-.139.137.071.273.143.366.071.092-.071.359-.316.292-.365-.067-.049-.002-.214-.383-.214-.38 0-.514.184-.604.068-.091-.116.098-.25.098-.25Z" clip-rule="evenodd"/></g></g></g></g><g clip-path="url(#R)"><mask id="S" width="20" height="15" x="780" y="0" maskUnits="userSpaceOnUse" style="mask-type:luminance"><path fill="#fff" d="M780 0h20v15h-20z"/></mask><g mask="url(#S)"><path fill="#2E42A5" fill-rule="evenodd" d="M780 0v15h20V0h-20Z" clip-rule="evenodd"/><mask id="T" width="20" height="15" x="780" y="0" maskUnits="userSpaceOnUse" style="mask-type:luminance"><path fill="#fff" fill-rule="evenodd" d="M780 0v15h20V0h-20Z" clip-rule="evenodd"/></mask><g mask="url(#T)"><path fill="#2E42A5" d="M780 0h11v9h-11z"/><mask id="U" width="11" height="9" x="780" y="0" maskUnits="userSpaceOnUse" style="mask-type:luminance"><path fill="#fff" d="M780 0h11v9h-11z"/></mask><g mask="url(#U)"><path fill="#F7FCFF" d="m778.747 8.125 2.476 1.086 10.083-8.03 1.306-1.614-2.647-.363-4.113 3.46-3.31 2.332-3.795 3.129Z"/><path fill="#F50100" d="m779.086 8.886 1.261.63L792.143-.583h-1.771l-11.286 9.469Z"/><path fill="#F7FCFF" d="m792.503 8.125-2.197 1.396-10.362-8.34-1.306-1.614 2.647-.363 4.113 3.46 3.31 2.332 3.795 3.129Z"/><path fill="#F50100" d="m792.418 8.67-1.261.63-5.023-4.323-1.489-.483-6.133-4.921h1.771l6.13 4.804 1.628.58 4.377 3.714Z"/><mask id="V" width="13" height="11" x="779" y="-1" fill="#000" maskUnits="userSpaceOnUse"><path fill="#fff" d="M779-1h13v11h-13z"/><path fill-rule="evenodd" d="M786 0h-1v4h-5v1h5v4h1V5h5V4h-5V0Z" clip-rule="evenodd"/></mask><path fill="#F50100" fill-rule="evenodd" d="M786 0h-1v4h-5v1h5v4h1V5h5V4h-5V0Z" clip-rule="evenodd"/><path fill="#F7FCFF" d="M785 0v-.938h-.938V0H785Zm1 0h.938v-.938H786V0Zm-1 4v.938h.938V4H785Zm-5 0v-.938h-.938V4H780Zm0 1h-.938v.938H780V5Zm5 0h.938v-.938H785V5Zm0 4h-.938v.938H785V9Zm1 0v.938h.938V9H786Zm0-4v-.938h-.938V5H786Zm5 0v.938h.938V5H791Zm0-1h.938v-.938H791V4Zm-5 0h-.938v.938H786V4Zm-1-3.063h1V-.938h-1V.938ZM785.938 4V0h-1.876v4h1.876ZM780 4.938h5V3.063h-5v1.874Zm.938.062V4h-1.876v1h1.876ZM785 4.062h-5v1.875h5V4.063ZM785.938 9V5h-1.876v4h1.876Zm.062-.938h-1v1.876h1V8.062ZM785.062 5v4h1.876V5h-1.876ZM791 4.062h-5v1.875h5V4.063ZM790.062 4v1h1.876V4h-1.876ZM786 4.938h5V3.063h-5v1.874ZM785.062 0v4h1.876V0h-1.876Z" mask="url(#V)"/></g><path fill="#6DC2FF" stroke="#F7FCFF" stroke-width=".5" d="M796.219 12.227c-.628 0-1.052-.148-1.349-.394-.299-.249-.502-.624-.633-1.14-.132-.52-.186-1.158-.207-1.907a55.828 55.828 0 0 1-.009-1.712l.002-.554h4.453c.079 1.475.101 2.89-.184 3.953-.149.555-.375.99-.7 1.286-.32.291-.758.468-1.373.468Z"/><mask id="W" width="6" height="7" x="793" y="6" maskUnits="userSpaceOnUse" style="mask-type:luminance"><path fill="#fff" stroke="#fff" stroke-width=".5" d="M796.219 12.227c-.628 0-1.052-.148-1.349-.394-.299-.249-.502-.624-.633-1.14-.132-.52-.186-1.158-.207-1.907a55.828 55.828 0 0 1-.009-1.712l.002-.554h4.453c.079 1.475.101 2.89-.184 3.953-.149.555-.375.99-.7 1.286-.32.291-.758.468-1.373.468Z"/></mask><g mask="url(#W)"><path fill="#E1E5E8" fill-rule="evenodd" d="M795.326 8.492s-.247-.183-.352-.478c-.106-.296-.315-1.083-.315-1.15 0-.07-.279 0-.279 0s.004-.334.109-.334.109-.308.364-.23c.255.077.456.362.716.362.259 0 1.346.083 1.52.083.175 0 .635.369.635.644 0 .276-.125.687-.224.687s-.223.24-.411.16c-.187-.078-.636-.241-1.037-.16-.401.082-.483.03-.483.16s-.243.256-.243.256Z" clip-rule="evenodd"/><path fill="#49801E" fill-rule="evenodd" d="M794.75 8.3h3.222l-.555.716h-2.276l-.391-.717Z" clip-rule="evenodd"/><path stroke="#fff" stroke-width=".667" d="M794.708 11.435s.557.199.79.175c.257-.027.486-.32.658-.32.172 0 .503.293.76.32.233.024.688-.175.688-.175m-3.508-.85c.193-.163.612-.175.612-.175s.557.2.79.175c.257-.027.486-.32.658-.32.172 0 .503.293.76.32.233.024.688-.175.688-.175s.254-.286.573.016"/><path fill="#fff" d="m794.038 9.706-.422-.516c.166-.135.443-.268.848-.415l.197-.01c.42.108.701.155.803.145.034-.004.091-.031.195-.1.294-.195.322-.21.497-.21.159 0 .192.015.526.195.062.033.085.045.119.061a.54.54 0 0 0 .148.054c.08.008.242-.03.467-.12.294-.267.665-.24.985.052.214.194.385.351.514.471l-.453.49c-.128-.12-.298-.275-.51-.468-.084-.077-.066-.077-.103-.036l-.116.081c-.35.148-.626.216-.85.193a1.105 1.105 0 0 1-.371-.116 3.275 3.275 0 0 1-.147-.076c-.161-.087-.222-.115-.209-.115.028 0-.011.022-.129.1-.19.126-.321.19-.496.207-.193.02-.494-.027-.934-.136-.286.108-.476.202-.559.27Z"/></g><path stroke="#B85F3C" stroke-width=".625" d="M794.352 11.496s.615.59.244.988c-.372.4-.712.168-.712.168m4.272-1.156s-.615.59-.244.988c.372.4.712.168.712.168"/><path stroke="#CB8B73" stroke-width=".625" d="M793.95 11.97s1.06 1.013 2.362 1.013c1.303 0 2.351-.773 2.351-.773"/></g></g></g><g clip-path="url(#X)"><mask id="Y" width="20" height="15" x="840" y="0" maskUnits="userSpaceOnUse" style="mask-type:luminance"><path fill="#fff" d="M840 0h20v15h-20z"/></mask><g mask="url(#Y)"><path fill="#63B3E1" fill-rule="evenodd" d="M840 0v15h20V0h-20Z" clip-rule="evenodd"/><mask id="Z" width="20" height="15" x="840" y="0" maskUnits="userSpaceOnUse" style="mask-type:luminance"><path fill="#fff" fill-rule="evenodd" d="M840 0v15h20V0h-20Z" clip-rule="evenodd"/></mask><g fill="#F7FCFF" fill-rule="evenodd" clip-rule="evenodd" mask="url(#Z)"><path d="m850 4.563-1.102.579.21-1.227-.891-.87 1.232-.178L850 1.75l.551 1.117 1.232.179-.891.869.21 1.227-1.102-.58Zm0 7.5-1.102.579.21-1.227-.891-.87 1.232-.178L850 9.25l.551 1.117 1.232.179-.891.869.21 1.227-1.102-.58Zm-3.875-3.625-1.102.579.21-1.227-.891-.87 1.232-.178.551-1.117.551 1.117 1.232.179-.891.869.21 1.227-1.102-.58Zm7.625 0-1.102.579.21-1.227-.891-.87 1.232-.178.551-1.117.551 1.117 1.232.179-.891.869.21 1.227-1.102-.58Z"/></g></g></g><g clip-path="url(#aa)"><mask id="ab" width="20" height="15" x="900" y="0" maskUnits="userSpaceOnUse" style="mask-type:luminance"><path fill="#fff" d="M900 0h20v15h-20z"/></mask><g mask="url(#ab)"><path fill="#F7FCFF" fill-rule="evenodd" d="M900 0v15h20V0h-20Z" clip-rule="evenodd"/><mask id="ac" width="20" height="15" x="900" y="0" maskUnits="userSpaceOnUse" style="mask-type:luminance"><path fill="#fff" fill-rule="evenodd" d="M900 0v15h20V0h-20Z" clip-rule="evenodd"/></mask><g mask="url(#ac)"><path fill="#F50100" stroke="#2E42A5" stroke-width="1.25" d="M906.25-.625h-.625v6.25h-6.25v3.75h6.25v6.25h3.75v-6.25h11.25v-3.75h-11.25v-6.25h-3.125Z"/></g></g></g><g clip-path="url(#ad)"><mask id="ae" width="20" height="15" x="960" y="0" maskUnits="userSpaceOnUse" style="mask-type:luminance"><path fill="#fff" d="M960 0h20v15h-20z"/></mask><g fill-rule="evenodd" clip-rule="evenodd" mask="url(#ae)"><path fill="#F50100" d="M974 0h6v15h-6V0Z"/><path fill="#2E42A5" d="M960 0h7v15h-7V0Z"/><path fill="#F7FCFF" d="M966 0h8v15h-8V0Z"/></g></g><g clip-path="url(#af)"><mask id="ag" width="20" height="15" x="1020" y="0" maskUnits="userSpaceOnUse" style="mask-type:luminance"><path fill="#fff" d="M1020 0h20v15h-20z"/></mask><g fill-rule="evenodd" clip-rule="evenodd" mask="url(#ag)"><path fill="#40A8FF" d="M1020 10h20v5h-20v-5Z"/><path fill="#FECA00" d="M1020 5h20v5h-20V5Z"/><path fill="#73BE4A" d="M1020 0h20v5h-20V0Z"/></g></g><g clip-path="url(#ah)"><mask id="ai" width="20" height="15" x="1080" y="0" maskUnits="userSpaceOnUse" style="mask-type:luminance"><path fill="#fff" d="M1080 0h20v15h-20z"/></mask><g mask="url(#ai)"><path fill="#F7FCFF" d="M1080 0h20v15h-20z"/><path fill="#F50302" fill-rule="evenodd" d="M1091 0h-2.5v6.25h-8.5v2.5h8.5V15h2.5V8.75h9v-2.5h-9V0Z" clip-rule="evenodd"/></g></g><g clip-path="url(#aj)"><mask id="ak" width="20" height="15" x="1140" y="0" maskUnits="userSpaceOnUse" style="mask-type:luminance"><path fill="#fff" d="M1140 0h20v15h-20z"/></mask><g mask="url(#ak)"><path fill="#2E42A5" fill-rule="evenodd" d="M1140 0v15h20V0h-20Z" clip-rule="evenodd"/><mask id="al" width="20" height="15" x="1140" y="0" maskUnits="userSpaceOnUse" style="mask-type:luminance"><path fill="#fff" fill-rule="evenodd" d="M1140 0v15h20V0h-20Z" clip-rule="evenodd"/></mask><g mask="url(#al)"><mask id="am" width="20" height="15" x="1140" y="0" maskUnits="userSpaceOnUse" style="mask-type:luminance"><path fill="#fff" d="M1140 0h20v15h-20z"/></mask><g mask="url(#am)"><path fill="#fff" d="m1137.77 13.928 4.4 1.862 17.93-13.766 2.32-2.766-4.71-.622-7.31 5.932-5.88 3.997-6.75 5.363Z"/><path fill="#F50100" d="m1138.38 15.232 2.24 1.08 20.97-17.311h-3.15l-20.06 16.231Z"/><path fill="#fff" d="m1162.23 13.928-4.4 1.862-17.93-13.766-2.32-2.766 4.7-.622 7.32 5.932 5.88 3.997 6.75 5.363Z"/><path fill="#F50100" d="m1162.08 14.864-2.25 1.08-8.92-7.412-2.65-.828-10.9-8.437h3.14l10.9 8.237 2.89.993 7.79 6.367Z"/><mask id="an" fill="#fff"><path fill-rule="evenodd" d="M1152.36-1.25h-4.72V5h-8.87v5h8.87v6.25h4.72V10h8.91V5h-8.91v-6.25Z" clip-rule="evenodd"/></mask><path fill="#F50100" fill-rule="evenodd" d="M1152.36-1.25h-4.72V5h-8.87v5h8.87v6.25h4.72V10h8.91V5h-8.91v-6.25Z" clip-rule="evenodd"/><path fill="#fff" d="M1147.64-1.25V-2.5h-1.25v1.25h1.25Zm4.72 0h1.25V-2.5h-1.25v1.25ZM1147.64 5v1.25h1.25V5h-1.25Zm-8.87 0V3.75h-1.25V5h1.25Zm0 5h-1.25v1.25h1.25V10Zm8.87 0h1.25V8.75h-1.25V10Zm0 6.25h-1.25v1.25h1.25v-1.25Zm4.72 0v1.25h1.25v-1.25h-1.25Zm0-6.25V8.75h-1.25V10h1.25Zm8.91 0v1.25h1.25V10h-1.25Zm0-5h1.25V3.75h-1.25V5Zm-8.91 0h-1.25v1.25h1.25V5Zm-4.72-5h4.72v-2.5h-4.72V0Zm1.25 5v-6.25h-2.5V5h2.5Zm-10.12 1.25h8.87v-2.5h-8.87v2.5Zm1.25 3.75V5h-2.5v5h2.5Zm7.62-1.25h-8.87v2.5h8.87v-2.5Zm1.25 7.5V10h-2.5v6.25h2.5Zm3.47-1.25h-4.72v2.5h4.72V15Zm-1.25-5v6.25h2.5V10h-2.5Zm10.16-1.25h-8.91v2.5h8.91v-2.5ZM1160.02 5v5h2.5V5h-2.5Zm-7.66 1.25h8.91v-2.5h-8.91v2.5Zm-1.25-7.5V5h2.5v-6.25h-2.5Z" mask="url(#an)"/></g></g></g></g><g clip-path="url(#ao)"><mask id="ap" width="20" height="15" x="1200" y="0" maskUnits="userSpaceOnUse" style="mask-type:luminance"><path fill="#fff" d="M1200 0h20v15h-20z"/></mask><g mask="url(#ap)"><path fill="#0067C3" fill-rule="evenodd" d="M1200 0h20v15h-20V0Z" clip-rule="evenodd"/><path fill="#fff" d="m1199.25 1 20 15 1.5-2-20-15-1.5 2Z"/><path fill="#fff" d="m1220.75 1-20 15-1.5-2 20-15 1.5 2Z"/></g></g><g clip-path="url(#aq)"><mask id="ar" width="20" height="15" x="1260" y="0" maskUnits="userSpaceOnUse" style="mask-type:luminance"><path fill="#fff" d="M1260 0h20v15h-20z"/></mask><g mask="url(#ar)"><path fill="#2E42A5" fill-rule="evenodd" d="M1260 0v15h20V0h-20Z" clip-rule="evenodd"/><mask id="as" width="20" height="15" x="1260" y="0" maskUnits="userSpaceOnUse" style="mask-type:luminance"><path fill="#fff" fill-rule="evenodd" d="M1260 0v15h20V0h-20Z" clip-rule="evenodd"/></mask><g mask="url(#as)"><mask id="at" width="20" height="15" x="1260" y="0" maskUnits="userSpaceOnUse" style="mask-type:luminance"><path fill="#fff" d="M1260 0h20v15h-20z"/></mask><g mask="url(#at)"><path fill="#fff" d="m1257.77 13.928 4.4 1.862 17.93-13.766 2.32-2.766-4.71-.622-7.31 5.932-5.88 3.997-6.75 5.363Z"/><path fill="#F50100" d="m1258.38 15.232 2.24 1.08 20.97-17.311h-3.15l-20.06 16.231Z"/><path fill="#fff" d="m1282.23 13.928-4.4 1.862-17.93-13.766-2.32-2.766 4.7-.622 7.32 5.932 5.88 3.997 6.75 5.363Z"/><path fill="#F50100" d="m1282.08 14.864-2.25 1.08-8.92-7.412-2.65-.828-10.9-8.437h3.14l10.9 8.237 2.89.993 7.79 6.367Z"/><mask id="au" fill="#fff"><path fill-rule="evenodd" d="M1272.36-1.25h-4.72V5h-8.87v5h8.87v6.25h4.72V10h8.91V5h-8.91v-6.25Z" clip-rule="evenodd"/></mask><path fill="#F50100" fill-rule="evenodd" d="M1272.36-1.25h-4.72V5h-8.87v5h8.87v6.25h4.72V10h8.91V5h-8.91v-6.25Z" clip-rule="evenodd"/><path fill="#fff" d="M1267.64-1.25V-2.5h-1.25v1.25h1.25Zm4.72 0h1.25V-2.5h-1.25v1.25ZM1267.64 5v1.25h1.25V5h-1.25Zm-8.87 0V3.75h-1.25V5h1.25Zm0 5h-1.25v1.25h1.25V10Zm8.87 0h1.25V8.75h-1.25V10Zm0 6.25h-1.25v1.25h1.25v-1.25Zm4.72 0v1.25h1.25v-1.25h-1.25Zm0-6.25V8.75h-1.25V10h1.25Zm8.91 0v1.25h1.25V10h-1.25Zm0-5h1.25V3.75h-1.25V5Zm-8.91 0h-1.25v1.25h1.25V5Zm-4.72-5h4.72v-2.5h-4.72V0Zm1.25 5v-6.25h-2.5V5h2.5Zm-10.12 1.25h8.87v-2.5h-8.87v2.5Zm1.25 3.75V5h-2.5v5h2.5Zm7.62-1.25h-8.87v2.5h8.87v-2.5Zm1.25 7.5V10h-2.5v6.25h2.5Zm3.47-1.25h-4.72v2.5h4.72V15Zm-1.25-5v6.25h2.5V10h-2.5Zm10.16-1.25h-8.91v2.5h8.91v-2.5ZM1280.02 5v5h2.5V5h-2.5Zm-7.66 1.25h8.91v-2.5h-8.91v2.5Zm-1.25-7.5V5h2.5v-6.25h-2.5Z" mask="url(#au)"/></g></g></g></g><g clip-path="url(#av)"><mask id="aw" width="20" height="15" x="1320" y="0" maskUnits="userSpaceOnUse" style="mask-type:luminance"><path fill="#fff" d="M1320 0h20v15h-20z"/></mask><g mask="url(#aw)"><path fill="#5DAA22" fill-rule="evenodd" d="M1320 0v15h20V0h-20Z" clip-rule="evenodd"/><mask id="ax" width="20" height="15" x="1320" y="0" maskUnits="userSpaceOnUse" style="mask-type:luminance"><path fill="#fff" fill-rule="evenodd" d="M1320 0v15h20V0h-20Z" clip-rule="evenodd"/></mask><g fill-rule="evenodd" clip-rule="evenodd" mask="url(#ax)"><path fill="#F7FCFF" d="M1320 0v7.5h20V0h-20Z"/><path fill="#D21034" d="M1329.19 5.61c-.01-.348-.02-.683.42-1.083 1.12-.996 2.27-1.776 3.55-2.527-.26.46-.44 1.314.24 1.368.22.004 2.61-1.064 2.61-1.064-.83.644-1.79 1.542-.67 1.931-1.03.337-1.87 1.43-1.13 2.312-.53-.16-1.23.202-1.35.61.13 0 .36.02.64.044 1.02.09 2.72.238 2.81-.345-.55.285-1.51.169-1.54-.648.01-.7 1-1.093 1.85-.569.04-.094.09-.189.13-.283.04-.096.09-.191.13-.287l-.11.015c-.27.037-.52.072-.8.002.65-.654 1.26-1.298 1.82-2.023-.12.904 0 2.215.21 2.643a1.334 1.334 0 0 1-.69-.63l-.15.495-.15.495c.49 1.043-.03 2.59-.3 3.405-.09.254-.15.438-.15.513-.22.088-.39-.05-.55-.188a1.094 1.094 0 0 0-.25-.178c.14.385.04.995-.05 1.528-.03.2-.06.39-.08.552-.02.236.08.401.13.481.01.018.01.032.02.041.13.055.44.204.46.225 0 0 .38.02.36.427-.19-.24-.44-.163-.44-.163-.04.022-.32-.074-.32-.074-.15-.102-.56-.188-.98-.17-.28.012-.62.102-.68.12-.01 0-.01.002-.01.002-.01 0-.35.244-.35.244s-.08-.02-.09-.02c-.01 0-.23-.003-.51.189a.716.716 0 0 1 .38-.501c.13-.073.29-.109.39-.13l.07-.02c-.11-.04-.33-.099-.49-.084-.04.004-.09.005-.15.007-.22.005-.52.011-.61.152 0-.165.17-.352.35-.44.1-.045.2-.058.27-.067.05-.006.08-.01.09-.021.03-.07-.09-.18-.13-.214-.01-.006-.01-.01-.01-.01 0-.007-.24-.159-.41.013.04-.36.57-.364.63-.311l.15.162c.05.054.11.108.16.162.05.033.1.065.14.098l.15.1c.17.075.58.014.8-.224.12-.14.12-.402.12-.535 0-.022 0-.04.01-.055 0-.039 0-.09.01-.149.02-.28.05-.742-.01-.966-.03-.101-.27-.089-.58-.073-.31.016-.68.036-.99-.052-.47-.14-.96-.417-1.25-.586-.15-.085-.24-.142-.27-.14-.02.031-.06.062-.1.097-.07.057-.16.126-.2.23-.11.26-.09.628 0 .724 0 0 .75.006.92.1.42.232.39.58.38.758v.057c-.17-.053-.47-.165-.63-.226-.02-.01-.05-.018-.06-.025-.42.706-1 1.2-1.84 1.43.09.046.28.088.43.123.11.025.2.045.22.06.25.056.43.14.42.387-.16-.197-.32-.192-.46-.095-.17.079-.3-.01-.43-.098-.06-.044-.12-.089-.19-.112-.18-.135-.89-.052-1.09-.027-.25.026-.53.094-.66.244-.06.053-.09.004-.11-.018 0-.007-.01-.01-.01-.01-.29-.098-.41.17-.41.17-.07-.31.08-.376.23-.42l-.32-.197c0-.038-.22-.08-.36.054.02-.282.35-.459.49-.365.1-.078.28-.093.41.026.15.121.38.137.53.089a.49.49 0 0 0-.39-.312.357.357 0 0 1-.11-.078c-.05-.04-.1-.084-.16-.112-.15-.069-.35-.07-.44 0 .06-.35.71-.447.97-.04.16.17.41.258.61.291.36-.044.74-.351.97-.546.09-.074.16-.131.2-.152 0 0-.67-.685-1.17-1.038-.48-.33-1.84.31-2.02.397-.01.007-.02.01-.02.01-.03.307-.26.59-.26.59-.04-.1-.09-.192-.14-.28-.09-.177-.17-.343-.16-.536a5.6 5.6 0 0 1-.61.706c-.09.093-.18.186-.28.3-.24.26-.37.569-.45.908.18.109.68.204.68.204.22.004.38.132.38.372-.2-.213-.4-.08-.4-.08-.16.14-.36.076-.55 0-.17-.191-.99-.25-1.37-.021-.28.265-.66.29-.76.128 0 0-.18-.006-.48.102.08-.495.37-.36.37-.36-.01-.025 0-.043 0-.06v-.061l-.11-.04c-.2-.091-.44-.069-.55.026.08-.324.36-.326.57-.291.03-.033.05-.091.07-.145 0-.02.01-.04.02-.058l-.03-.033c-.11-.119-.24-.252-.37-.133.13-.555.77-.13.99.017l.05.034c.46.161 1.64-1.686 1.7-1.814-.34-.016-.71.02-.98.118-.07.243-.21.37-.36.52a.495.495 0 0 0-.08.076c0-.697-.31-1.049-.76-1.554-.02-.028-.05-.056-.07-.085-.56-.388-.81-1.17-.85-1.424-.09.238-.15.31-.17.331-.01.005-.01.007-.01.008-.12.143-.5.104-.42.047.06-.01.31-.407.31-.407l.11-1.063c-.07-.03-.1-.132-.14-.27a1.369 1.369 0 0 0-.1-.289c-.11-.282-.34-.588-.43-.614.18-.033.41-.036.56.14.13.153.21.397.28.589.04.11.07.204.1.254-.11-.389-.06-.651.06-.99v-.046c0-.155 0-.25-.15-.347.31-.008.39.234.42.305v.02c.14.188.08.342.04.465-.03.082-.06.15-.02.206a.267.267 0 0 0 .07-.072c.04-.054.07-.108.14-.097a.547.547 0 0 0 .15-.44c.22.133.17.329.1.52.01.288-.03.367-.21.468-.18.114-.21.208-.19.346.04.044.07.136.1.255.05.189.13.445.3.68.25.348.66.667.87.831.06.052.11.089.13.106.02-.043.13-.132.23-.216.06-.051.12-.1.16-.137-.12-.105-.04-1.043.22-1.899.25-.82.66-1.56.74-1.571 0-.007-.11-.272-.11-.272s-.52.083-.62.59c-.06-.106-.12-.264-.12-.264s-.46.59-.46.576c-.18-.116-.1-.4-.1-.4-.09-.1-.11-.22-.13-.34l-.03-.175a32.64 32.64 0 0 1-.61-.034c-.19-.011-.37-.023-.61-.034 0 0 .16.325.16.318-.17.004-1.02-.763-1.18-1.416.43.356.88.454 1.37.558l.02.004c-.07.034-.13.068-.2.101-.06.035-.13.069-.19.103 1.35.123 2.74-.143 2.74-.15-.15-.333-.65-.331-.65-.331l-.02.204s-.62.107-.62.1c-.06-.339-.37-.345-.37-.345-.23-.032-.43-.008-.64.017-.1.012-.2.025-.3.03.39-.521.91-.56 1.43-.6a8.3 8.3 0 0 0 .28-.023c.04-.274.27-.354.53-.393l1.26.067c.16-.225 1.11-.426 1.37-.426-.04.308-.43.646-.57.745-.15.236-.14.26-.08.366 0 .01.01.021.02.034l.14.27c.25.082.43.194.49.367-.27-.034-.47.018-.46.142 0 .061.1.1.18.135a.54.54 0 0 1 .11.05c.16.154.21.29.22.48-.07-.004-.14-.041-.22-.079-.14-.074-.29-.15-.38.045-.07.142.01.335.18.4.31.091.34.549.34.549s-.01-.002-.01-.004c-.07-.034-.52-.24-.49.18 0 .032-.02.055-.04.082-.04.05-.1.112-.08.263.04.294.08.6.11.665.19-.042.39-.085.59-.127.2-.044.41-.088.61-.131.17-.17.25-.45.24-.752 0-.09 0-.179-.01-.266Zm7.07.7c-.19-.206-.37-.276-.53-.274-.23.003-.39.163-.38.283.05.4.82.261.91-.008Z"/></g></g></g><g clip-path="url(#ay)"><mask id="az" width="20" height="15" x="1380" y="0" maskUnits="userSpaceOnUse" style="mask-type:luminance"><path fill="#fff" d="M1380 0h20v15h-20z"/></mask><g mask="url(#az)"><path fill="#C51918" fill-rule="evenodd" d="M1380 0h20v13.75c0 .69-.56 1.25-1.25 1.25h-17.5c-.69 0-1.25-.56-1.25-1.25V0Z" clip-rule="evenodd"/><path fill="#FECA00" fill-rule="evenodd" d="M1383.75 3.75h12.5v7.5h-12.5v-7.5Z" clip-rule="evenodd"/><mask id="aA" width="14" height="9" x="1383" y="3" maskUnits="userSpaceOnUse" style="mask-type:luminance"><path fill="#fff" fill-rule="evenodd" d="M1383.75 3.75h12.5v7.5h-12.5v-7.5Z" clip-rule="evenodd"/></mask><g fill-rule="evenodd" clip-rule="evenodd" mask="url(#aA)"><path fill="#23875F" d="M1383.75 3.75 1390 7.5l-6.25 3.75v-7.5Zm12.5 0L1390 7.5l6.25 3.75v-7.5Z"/><path fill="#C51918" d="M1390 10a2.5 2.5 0 1 0 0-5 2.5 2.5 0 0 0 0 5Z"/><path fill="#FECA00" d="m1389.96 8.32-1.3.899.42-1.538-.96-.982 1.29-.053.55-1.521.54 1.52h1.28l-.94 1.036.47 1.447-1.35-.807Z"/></g><path fill="#FECA00" fill-rule="evenodd" d="m1385.49 2.776.7-.438.74.394-.26-.707.52-.506h-.7l-.3-.743-.29.743-.71.026.52.48-.22.751Zm3.75 0 .7-.438.74.394-.26-.707.52-.506h-.7l-.3-.743-.29.743-.71.026.52.48-.22.751Zm4.45-.438-.7.438.22-.751-.52-.48.71-.026.29-.743.3.743h.7l-.52.506.26.707-.74-.394Zm-8.21 11.517.71-.44.74.395-.26-.707.52-.506h-.7l-.3-.742-.3.742-.7.026.52.48-.23.752Zm4.46-.44-.71.44.23-.752-.52-.48.7-.026.3-.742.3.742h.7l-.52.506.26.707-.74-.394Zm3.04.44.71-.44.74.395-.26-.707.52-.506h-.7l-.3-.742-.3.742-.7.026.52.48-.23.752Z" clip-rule="evenodd"/><path fill="#C51918" fill-rule="evenodd" d="M1385.4 7.983s.33.3.52.401c.06-.24-.08-.782-.08-.782-.04-.13-.47-.363-.47-.363s-.13.41.03.744Z" clip-rule="evenodd"/><path fill="#FECA00" fill-rule="evenodd" d="M1385.75 8.706s-.87-.403-.96-.975c-.08-.57.1-1.481.1-1.481s1.41.32 1.5 1.004c.1.684-.22 1.114-.22 1.114s-.32-.834-.63-.927c0 0 0 .827.21 1.265Z" clip-rule="evenodd"/></g></g><g clip-path="url(#aB)"><mask id="aC" width="20" height="15" x="1440" y="0" maskUnits="userSpaceOnUse" style="mask-type:luminance"><path fill="#fff" d="M1440 0h20v15h-20z"/></mask><g mask="url(#aC)"><path fill="#F7FCFF" fill-rule="evenodd" d="M1440 0v15h20V0h-20Z" clip-rule="evenodd"/><mask id="aD" width="20" height="15" x="1440" y="0" maskUnits="userSpaceOnUse" style="mask-type:luminance"><path fill="#fff" fill-rule="evenodd" d="M1440 0v15h20V0h-20Z" clip-rule="evenodd"/></mask><g fill="#E31D1C" fill-rule="evenodd" clip-rule="evenodd" mask="url(#aD)"><path d="M1448.75 0h2.5v6.25h8.75v2.5h-8.75V15h-2.5V8.75H1440v-2.5h8.75V0Z"/><path d="m1446.25 10.764 1.37-.139v1.25s-1.37-.086-1.37-.061c0 .025.13 1.311.13 1.311h-1.26l.11-1.25h-1.35v-1.25l1.35.139-.11-1.389h1.26l-.13 1.389Zm0-7.5 1.37-.139v1.25s-1.37-.086-1.37-.061c0 .025.13 1.311.13 1.311h-1.26l.11-1.25h-1.35v-1.25l1.35.139-.11-1.389h1.26l-.13 1.389Zm8.75 0 1.38-.139v1.25s-1.38-.086-1.38-.061c0 .025.12 1.311.12 1.311h-1.24l.1-1.25h-1.36v-1.25l1.36.139-.1-1.389h1.24l-.12 1.389Zm0 7.5 1.38-.139v1.25s-1.38-.086-1.38-.061c0 .025.12 1.311.12 1.311h-1.24l.1-1.25h-1.36v-1.25l1.36.139-.1-1.389h1.24l-.12 1.389Z"/></g></g></g><g clip-path="url(#aE)"><mask id="aF" width="20" height="15" x="1500" y="0" maskUnits="userSpaceOnUse" style="mask-type:luminance"><path fill="#fff" d="M1500 0h20v15h-20z"/></mask><g mask="url(#aF)"><path fill="#5EAA22" d="M1500 0h20v15h-20z"/><path fill="#FECA00" fill-rule="evenodd" d="m1500 0 20 15h-20V0Z" clip-rule="evenodd"/><path fill="#E21835" fill-rule="evenodd" d="m1509.96 9.004-2.18 1.511.69-2.588-1.59-1.653 2.16-.09.92-2.559.91 2.56h2.16l-1.59 1.742.8 2.435-2.28-1.358Z" clip-rule="evenodd"/></g></g><g clip-path="url(#aG)"><mask id="aH" width="20" height="15" x="1560" y="0" maskUnits="userSpaceOnUse" style="mask-type:luminance"><path fill="#fff" d="M1560 0h20v15h-20z"/></mask><g mask="url(#aH)"><path fill="#F7FCFF" fill-rule="evenodd" d="M1560 0v15h20V0h-20Z" clip-rule="evenodd"/><mask id="aI" width="20" height="15" x="1560" y="0" maskUnits="userSpaceOnUse" style="mask-type:luminance"><path fill="#fff" fill-rule="evenodd" d="M1560 0v15h20V0h-20Z" clip-rule="evenodd"/></mask><g fill-rule="evenodd" clip-rule="evenodd" mask="url(#aI)"><path fill="#E31D1C" d="M1567.5 0h5v5h7.5v5h-7.5v5h-5v-5h-7.5V5h7.5V0Z"/><path fill="#FECA00" d="m1568.13 1.904.62 1.096v3.25h-4.46v-.036l-1.1-.623v3.725l1.04-.566h4.52v3.157l-.62 1.096h3.72l-.59-1.1h-.01V8.75h4.5l1.04.566V5.591l-1.1.623v.036h-4.44V3.003h.01l.59-1.1h-3.72Z"/></g></g></g><g clip-path="url(#aJ)"><mask id="aK" width="20" height="15" x="1620" y="0" maskUnits="userSpaceOnUse" style="mask-type:luminance"><path fill="#fff" d="M1620 0h20v15h-20z"/></mask><g fill-rule="evenodd" clip-rule="evenodd" mask="url(#aK)"><path fill="#5EAA22" d="M1620 10h20v5h-20v-5Z"/><path fill="#FECA00" d="M1620 5h20v5h-20V5Z"/><path fill="#E11C1B" d="M1620 0h20v5h-20V0Z"/><path fill="#1D1D1D" d="m1630.05 9.057-2.18 1.51.69-2.587-1.59-1.654 2.16-.09.92-2.558.91 2.559h2.16l-1.59 1.743.8 2.435-2.28-1.358Z" opacity=".9"/></g></g><g clip-path="url(#aL)"><mask id="aM" width="20" height="15" x="1680" y="0" maskUnits="userSpaceOnUse" style="mask-type:luminance"><path fill="#fff" d="M1680 0h20v15h-20z"/></mask><g mask="url(#aM)"><path fill="#F7FCFF" d="M1680 0h20v15h-20z"/><path fill="#C51918" fill-rule="evenodd" d="M1680 10h20v5h-20v-5Z" clip-rule="evenodd"/><path fill="#DB000B" fill-rule="evenodd" d="M1689.84 2.042h-.92v.916h.45l-.03 2.521H1688V4.333h.46v-.916h-.92v.458h-.47v-.458h-.92v.916h.46V5.48h-.97v.917h.46v2.75h-.46v.916h8.75v-.916h-.92v-2.75h.92V5.48h-.9l.02-1.146h.47v-.916h-.92v.458h-.46v-.458h-.92v.916h.45l-.02 1.146h-1.39l.03-2.52h.47v-.917h-.92V2.5h-.46v-.458Z" clip-rule="evenodd"/><path fill="#272727" d="M1687.13 5.48c0-.127.1-.23.23-.23s.23.103.23.23v1.145h-.46V5.48Z"/><path fill="#272727" fill-rule="evenodd" d="M1686.76 8.556a.691.691 0 0 1 1.38 0V9.7h-1.38V8.556Zm5.07 0a.691.691 0 0 1 1.38 0V9.7h-1.38V8.556Zm-2.77-.228a.925.925 0 0 1 1.85 0v1.83h-1.85v-1.83Z" clip-rule="evenodd"/><path fill="#272727" d="M1689.9 5.48c0-.127.1-.23.23-.23.12 0 .23.103.23.23v1.145h-.46V5.48Zm2.76 0c0-.127.1-.23.23-.23s.23.103.23.23v1.145h-.46V5.48Z"/><path fill="#E8AA00" fill-rule="evenodd" d="m1690.33 9.498-.12.208-.21-.314-1.72 1.155 1.92.915 1.7-1.108-1.57-.856Zm-.79.957.55-.372.59.32-.53.344-.61-.292Zm-.57 2.378h.92v.917h-.92v-.917Z" clip-rule="evenodd"/><path fill="#E8AA00" fill-rule="evenodd" d="M1689.5 11.25h1.09v2.5h-1.09v-2.5Z" clip-rule="evenodd"/></g></g><g clip-path="url(#aN)"><mask id="aO" width="20" height="15" x="1740" y="0" maskUnits="userSpaceOnUse" style="mask-type:luminance"><path fill="#fff" d="M1740 0h20v15h-20z"/></mask><g mask="url(#aO)"><path fill="#C51918" fill-rule="evenodd" d="M1740 7.5h20V15h-20V7.5Z" clip-rule="evenodd"/><mask id="aP" width="20" height="8" x="1740" y="7" maskUnits="userSpaceOnUse" style="mask-type:luminance"><path fill="#fff" fill-rule="evenodd" d="M1740 7.5h20V15h-20V7.5Z" clip-rule="evenodd"/></mask><g mask="url(#aP)"><path fill="#F7FCFF" fill-rule="evenodd" d="M1747.5 12.5a5 5 0 0 0 0-10 5 5 0 0 0 0 10Z" clip-rule="evenodd"/></g><path fill="#F7FCFF" fill-rule="evenodd" d="M1740 0h20v7.5h-20V0Z" clip-rule="evenodd"/><mask id="aQ" width="20" height="8" x="1740" y="0" maskUnits="userSpaceOnUse" style="mask-type:luminance"><path fill="#fff" fill-rule="evenodd" d="M1740 0h20v7.5h-20V0Z" clip-rule="evenodd"/></mask><g mask="url(#aQ)"><path fill="#C51918" fill-rule="evenodd" d="M1747.5 12.5a5 5 0 0 0 0-10 5 5 0 0 0 0 10Z" clip-rule="evenodd"/></g></g></g></g><defs><clipPath id="a"><rect width="1760" height="15" fill="#fff" rx="2"/></clipPath><clipPath id="b"><rect width="20" height="15" fill="#fff" rx="2"/></clipPath><clipPath id="e"><rect width="20" height="15" x="60" fill="#fff" rx="2"/></clipPath><clipPath id="h"><rect width="20" height="15" x="120" fill="#fff" rx="2"/></clipPath><clipPath id="k"><rect width="20" height="15" x="180" fill="#fff" rx="2"/></clipPath><clipPath id="l"><rect width="20" height="15" x="240" fill="#fff" rx="2"/></clipPath><clipPath id="p"><rect width="20" height="15" x="300" fill="#fff" rx="2"/></clipPath><clipPath id="s"><rect width="20" height="15" x="360" fill="#fff" rx="2"/></clipPath><clipPath id="v"><rect width="20" height="15" x="420" fill="#fff" rx="2"/></clipPath><clipPath id="x"><rect width="20" height="15" x="480" fill="#fff" rx="2"/></clipPath><clipPath id="z"><rect width="20" height="15" x="540" fill="#fff" rx="2"/></clipPath><clipPath id="F"><rect width="20" height="15" x="600" fill="#fff" rx="2"/></clipPath><clipPath id="I"><rect width="20" height="15" x="660" fill="#fff" rx="2"/></clipPath><clipPath id="L"><rect width="20" height="15" x="720" fill="#fff" rx="2"/></clipPath><clipPath id="R"><rect width="20" height="15" x="780" fill="#fff" rx="2"/></clipPath><clipPath id="X"><rect width="20" height="15" x="840" fill="#fff" rx="2"/></clipPath><clipPath id="aa"><rect width="20" height="15" x="900" fill="#fff" rx="2"/></clipPath><clipPath id="ad"><rect width="20" height="15" x="960" fill="#fff" rx="2"/></clipPath><clipPath id="af"><rect width="20" height="15" x="1020" fill="#fff" rx="2"/></clipPath><clipPath id="ah"><rect width="20" height="15" x="1080" fill="#fff" rx="2"/></clipPath><clipPath id="aj"><rect width="20" height="15" x="1140" fill="#fff" rx="2"/></clipPath><clipPath id="ao"><rect width="20" height="15" x="1200" fill="#fff" rx="2"/></clipPath><clipPath id="aq"><rect width="20" height="15" x="1260" fill="#fff" rx="2"/></clipPath><clipPath id="av"><rect width="20" height="15" x="1320" fill="#fff" rx="2"/></clipPath><clipPath id="ay"><rect width="20" height="15" x="1380" fill="#fff" rx="2"/></clipPath><clipPath id="aB"><rect width="20" height="15" x="1440" fill="#fff" rx="2"/></clipPath><clipPath id="aE"><rect width="20" height="15" x="1500" fill="#fff" rx="2"/></clipPath><clipPath id="aG"><rect width="20" height="15" x="1560" fill="#fff" rx="2"/></clipPath><clipPath id="aJ"><rect width="20" height="15" x="1620" fill="#fff" rx="2"/></clipPath><clipPath id="aL"><rect width="20" height="15" x="1680" fill="#fff" rx="2"/></clipPath><clipPath id="aN"><rect width="20" height="15" x="1740" fill="#fff" rx="2"/></clipPath></defs></svg>