<svg xmlns="http://www.w3.org/2000/svg" width="20" height="15" fill="transparent" viewBox="0 0 20 15"><g clip-path="url(#a)"><mask id="b" width="20" height="15" x="0" y="0" maskUnits="userSpaceOnUse" style="mask-type:luminance"><path fill="#fff" d="M0 0h20v15H0z"/></mask><g mask="url(#b)"><path fill="#C51918" fill-rule="evenodd" d="M0 0v15h20V0H0Z" clip-rule="evenodd"/><mask id="c" width="20" height="15" x="0" y="0" maskUnits="userSpaceOnUse" style="mask-type:luminance"><path fill="#fff" fill-rule="evenodd" d="M0 0v15h20V0H0Z" clip-rule="evenodd"/></mask><g mask="url(#c)"><path fill="#F7FCFF" fill-rule="evenodd" d="M8.75 0h2.5v6.25H20v2.5h-8.75V15h-2.5V8.75H0v-2.5h8.75V0Z" clip-rule="evenodd"/><path fill="#4257BF" d="M0 0h8.75v6.25H0zm11.25 8.75H20V15h-8.75z"/><path fill="#309404" d="m8.523 6.944.622.06c-.106 1.112.032 1.581.257 1.581v.625c-.778 0-1.018-.814-.879-2.266Zm2.994 0-.622.06c.106 1.112-.032 1.581-.257 1.581v.625c.777 0 1.018-.814.879-2.266Z"/><path fill="#003994" d="M9.205 6.683h.591v.923h-.591zm.909 1.096h.59v.468a.455.455 0 0 1-.454.455h-.136v-.923Z"/><path fill="#DE2110" d="M10.068 6.625h.591v.923h-.591zm-.863 1.154h.59v.923H9.66a.455.455 0 0 1-.454-.455V7.78Z"/><path fill="#00319C" d="m8.96 6.63-.419-.464c.441-.397.902-.604 1.375-.604.474 0 .934.207 1.376.604l-.418.465c-.335-.301-.652-.444-.958-.444-.305 0-.623.143-.957.444Z"/><path fill="#DE2110" d="m9.004 9.746-.418-.464c.442-.398.902-.604 1.376-.604.474 0 .934.206 1.375.604l-.418.464c-.334-.3-.652-.443-.957-.443-.306 0-.623.142-.958.443Z"/></g></g></g><defs><clipPath id="a"><rect width="20" height="15" fill="#fff" rx="2"/></clipPath></defs></svg>