<svg viewBox="0 0 20 15" fill="none" xmlns="http://www.w3.org/2000/svg"><path d="M0 0v15h20V0H0Z" fill="#c51918"/><path d="M8.75 0h2.5v6.25H20v2.5h-8.75V15h-2.5V8.75H0v-2.5h8.75V0Z" fill="#f7fcff"/><path fill="#4257BF" d="M0 0h8.75v6.25H0zM11.25 8.75H20V15h-8.75z"/><path d="m8.523 6.944.622.06c-.106 1.112.032 1.581.257 1.581v.625c-.778 0-1.018-.814-.879-2.266ZM11.517 6.944l-.622.06c.106 1.112-.032 1.581-.257 1.581v.625c.777 0 1.018-.814.879-2.266Z" fill="#309404"/><path fill="#003994" d="M9.205 6.683h.591v.923h-.591zM10.114 7.779h.59v.468a.455.455 0 0 1-.454.455h-.136v-.923Z"/><path fill="#de2110" d="M10.068 6.625h.591v.923h-.591zM9.205 7.779h.59v.923H9.66a.455.455 0 0 1-.454-.455V7.78Z"/><path d="m8.959 6.63-.418-.464c.441-.397.902-.604 1.375-.604.474 0 .934.207 1.376.604l-.418.465c-.335-.301-.652-.444-.958-.444-.305 0-.623.143-.957.444Z" fill="#00319C"/><path d="m9.004 9.746-.418-.464c.442-.398.902-.604 1.376-.604.474 0 .934.206 1.375.604l-.418.464c-.334-.3-.652-.443-.957-.443-.306 0-.623.142-.958.443Z" fill="#de2110"/></svg>