<svg xmlns="http://www.w3.org/2000/svg" width="20" height="15" fill="transparent" viewBox="0 0 20 15"><g fill-rule="evenodd" clip-path="url(#a)" clip-rule="evenodd"><path fill="#F7FCFF" d="M10 0h10v15H10V0Z"/><path fill="#36A400" d="M0 0h10v15H0V0Z"/><path fill="red" d="M11.637 3.908c.9 0 1.739.247 2.441.673a5.322 5.322 0 1 0-.302 7.222 4.725 4.725 0 0 1-2.139.505c-2.482 0-4.494-1.88-4.494-4.2 0-2.32 2.012-4.2 4.494-4.2Zm1.76 1.608-1.292 1.465-1.857-.511 1.03 1.61-1.03 1.713 1.948-.701 1.064 1.662V8.825L15 8.08l-1.74-.623.137-1.94Z"/></g><defs><clipPath id="a"><rect width="20" height="15" fill="#fff" rx="2"/></clipPath></defs></svg>