<svg xmlns="http://www.w3.org/2000/svg" width="20" height="15" fill="transparent" viewBox="0 0 20 15"><g clip-path="url(#a)"><mask id="b" width="20" height="15" x="0" y="0" maskUnits="userSpaceOnUse" style="mask-type:luminance"><path fill="#fff" d="M0 0h20v15H0z"/></mask><g mask="url(#b)"><path fill="#2E42A5" fill-rule="evenodd" d="M0 0v15h20V0H0Z" clip-rule="evenodd"/><mask id="c" width="20" height="15" x="0" y="0" maskUnits="userSpaceOnUse" style="mask-type:luminance"><path fill="#fff" fill-rule="evenodd" d="M0 0v15h20V0H0Z" clip-rule="evenodd"/></mask><g mask="url(#c)"><path fill="#FECA00" fill-rule="evenodd" d="M0 0v7.5h20V0H0Z" clip-rule="evenodd"/><path fill="#E31D1C" fill-rule="evenodd" d="M0 11.25V15h20v-3.75H0Z" clip-rule="evenodd"/><path fill="#7B2900" fill-rule="evenodd" d="M5.758 3.62c-.075-.17 2.819-1.03 3.036-1.03.217 0 .491.515.491.515l1.76.142s-.208-.657 0-.657 3.395 1.107 3.395 1.107-3.984.48-3.984.589c0 .108.261.701.261.701l-.737.242s.044-.716-.076-.716-.477.856-.477.856l-.35-1.083s-3.244-.497-3.32-.667Z" clip-rule="evenodd"/><path fill="#FECA00" d="m5.77 6.261.788.189c-.824 3.447-.062 5.1 2.284 5.254l-.053.809C5.85 12.32 4.843 10.138 5.77 6.26Z"/><path fill="#07138E" d="m6.25 5.797.8.125c-.564 3.608-.112 5.24 1.156 5.195l.028.81c-2.025.07-2.619-2.073-1.984-6.13Z"/><path fill="#E10001" d="m7.06 5.466.8.125c-.564 3.608-.112 5.24 1.156 5.195l.028.81c-2.025.07-2.619-2.073-1.984-6.13Z"/><path fill="#07138E" d="m8.564 12.046.806-.079c.066.683.016 1.272-.157 1.766l-.765-.267c.131-.373.171-.847.116-1.42Z"/><path stroke="#FECA00" stroke-width=".81" d="M13.437 6.355s1.292 5.809-2.688 5.708"/><path fill="#07138E" d="m13.351 5.797-.8.125c.565 3.608.112 5.24-1.155 5.195l-.029.81c2.025.07 2.62-2.073 1.984-6.13Z"/><path fill="#E10001" d="m12.541 5.466-.8.125c.564 3.608.112 5.24-1.155 5.195l-.029.81c2.025.07 2.62-2.073 1.984-6.13Z"/><path fill="#07138E" d="m10.88 12.05-.805-.087c-.068.623-.016 1.164.161 1.618l.755-.294c-.126-.323-.165-.734-.11-1.237Z"/><path fill="#908F89" d="M8.666 10.938h2.431v1.158H8.666z"/><path stroke="#FEE901" stroke-width=".625" d="M9.882 11.25c.685 0 1.277-.386 1.686-.954.409-.567.652-1.336.652-2.171 0-.835-.243-1.604-.652-2.171-.409-.568-1-.954-1.686-.954-.685 0-1.277.386-1.686.954-.409.567-.652 1.336-.652 2.171 0 .835.243 1.604.652 2.171.409.568 1 .954 1.686.954Z"/><mask id="d" width="6" height="8" x="7" y="4" maskUnits="userSpaceOnUse" style="mask-type:luminance"><path fill="#fff" stroke="#fff" stroke-width=".625" d="M9.882 11.25c.685 0 1.277-.386 1.686-.954.409-.567.652-1.336.652-2.171 0-.835-.243-1.604-.652-2.171-.409-.568-1-.954-1.686-.954-.685 0-1.277.386-1.686.954-.409.567-.652 1.336-.652 2.171 0 .835.243 1.604.652 2.171.409.568 1 .954 1.686.954Z"/></mask><g fill-rule="evenodd" clip-rule="evenodd" mask="url(#d)"><path fill="#8DDD61" d="M11.349 9.628s-.985-.536-1.268-.727c-.282-.19-.119-.617-.606-.503-.486.114-.878.312-.878.856s-.382.867-.512.495c-.13-.371-.743-2.109 0-2.109s2.479.39 2.99.39c.51 0 .808.265.808.745 0 .644-.534.853-.534.853Z"/><path fill="#FEE901" d="M9.882 6.801a.41.41 0 0 0 .405-.413.41.41 0 0 0-.405-.414.41.41 0 0 0-.405.414.41.41 0 0 0 .405.413Z"/><path fill="#F7FCFF" d="M8.543 6.838s.472-.114 1.123.325c.65.438 2.23.688 2.23.344v.67s-3.503-.217-3.69 0c-.188.219-.207-1.217 0-1.34.205-.121.337 0 .337 0Z"/></g></g></g></g><defs><clipPath id="a"><rect width="20" height="15" fill="#fff" rx="2"/></clipPath></defs></svg>