<svg xmlns="http://www.w3.org/2000/svg" width="20" height="15" fill="transparent" viewBox="0 0 20 15"><g clip-path="url(#a)"><mask id="b" width="20" height="15" x="0" y="0" maskUnits="userSpaceOnUse" style="mask-type:luminance"><path fill="#fff" d="M0 0h20v15H0z"/></mask><g mask="url(#b)"><path fill="#F7FCFF" fill-rule="evenodd" d="M0 0v15h20V0H0Z" clip-rule="evenodd"/><mask id="c" width="20" height="15" x="0" y="0" maskUnits="userSpaceOnUse" style="mask-type:luminance"><path fill="#fff" fill-rule="evenodd" d="M0 0v15h20V0H0Z" clip-rule="evenodd"/></mask><g mask="url(#c)"><path fill="#BF2714" fill-rule="evenodd" d="M0 0v5h20V0H0Z" clip-rule="evenodd"/><path fill="#272727" fill-rule="evenodd" d="M0 10v5h20v-5H0Z" clip-rule="evenodd"/><path fill="#C09302" d="m7.663 6.388.624.028-.157 3.419-.624-.029.157-3.418Zm.652.212.624.035-.157 2.772-.624-.035.157-2.772Z"/><path fill="#C09302" d="m8.968 6.808.623.05-.157 1.91-.623-.05.157-1.91Zm3.369-.42-.624.028.157 3.419.624-.029-.157-3.418Zm-.652.212-.624.035.157 2.772.624-.035-.157-2.772Z"/><path fill="#C09302" d="m11.032 6.808-.623.05.157 1.91.623-.05-.157-1.91ZM9.983 9.58l-.609-.14.258-1.126.61.14-.259 1.125Z"/><path fill="#C09302" d="m10.45 9.58.61-.14-.259-1.126-.609.14.258 1.125Z"/><path fill="#C09302" d="M10.295 9.569H9.67V8.464h.625v1.105ZM9.147 6.82l.625.016-.037 1.488-.625-.015.037-1.488Zm1.087 0 .625.016-.037 1.488-.625-.015.037-1.488Z"/><path fill="#C09302" d="m8.336 9.952.163-.604c.663.179 1.172.267 1.52.267.347 0 .856-.088 1.519-.267l.162.604c-.711.191-1.27.288-1.682.288-.412 0-.97-.097-1.682-.288ZM7.677 6.39c-.042-.414.2-.693.609-.657.135.011.286.051.487.12l.116.04c.277.098.353.124.368.127-.061-.014.12-.34.161-.396.005.035-.016.03-.066.02l-.564-.113.402-.411a.732.732 0 0 1 .54-.216c.022 0 .043 0 .11-.005l.107-.005c.39-.013.67.098.67.499 0 .143.018.374.047.549.01.059.03.114-.027.138.002-.02.139-.075.351-.164l.026-.01c.617-.258.689-.282.888-.16.132.08.259.225.4.44l-.523.343a1.09 1.09 0 0 0-.198-.248c.078.055-.187.143-.327.201l-.025.011c-.48.2-.544.225-.681.225-.374 0-.508-.383-.545-.932-.115.38-.46.86-.743.86-.124 0-.065.02-.58-.164l-.107-.038a1.682 1.682 0 0 0-.34-.089.284.284 0 0 1 .025-.024l-.581.058Z"/></g></g></g><defs><clipPath id="a"><rect width="20" height="15" fill="#fff" rx="2"/></clipPath></defs></svg>