<svg viewBox="0 0 20 15" fill="none" xmlns="http://www.w3.org/2000/svg"><path d="M0 0v15h20V0H0Z" fill="#f7fcff"/><path d="M0 0v5h20V0H0Z" fill="#bf2714"/><path d="M0 10v5h20v-5H0Z" fill="#272727"/><path d="m7.663 6.388.624.028-.157 3.419-.624-.029.157-3.418ZM8.315 6.6l.624.035-.157 2.772-.624-.035.157-2.772Z" fill="#c09302"/><path d="m8.968 6.807.623.052-.157 1.91-.623-.052.157-1.91ZM12.337 6.388l-.624.028.157 3.419.624-.029-.157-3.418ZM11.685 6.6l-.624.035.157 2.772.624-.035-.157-2.772Z" fill="#c09302"/><path d="m11.032 6.807-.623.052.157 1.91.623-.052-.157-1.91ZM9.983 9.58l-.609-.14.258-1.126.61.14-.259 1.125Z" fill="#c09302"/><path d="m10.45 9.58.609-.14-.258-1.126-.61.14.259 1.125Z" fill="#c09302"/><path d="M10.295 9.569H9.67V8.464h.625v1.105ZM9.147 6.82l.625.016-.037 1.488-.625-.015.037-1.488ZM10.234 6.82l.624.016-.036 1.488-.625-.015.037-1.488Z" fill="#c09302"/><path d="m8.336 9.952.162-.604c.664.179 1.173.267 1.52.267s.856-.088 1.52-.267l.162.604c-.711.191-1.27.288-1.682.288-.412 0-.97-.097-1.682-.288ZM7.676 6.39c-.041-.414.2-.693.61-.658.135.012.286.052.487.12l.116.04c.277.1.352.125.368.128-.061-.014.12-.34.16-.396.006.035-.015.03-.065.02l-.564-.113.402-.411a.732.732 0 0 1 .54-.216c.022 0 .043 0 .11-.005l.107-.005c.39-.013.67.098.67.499 0 .143.017.374.047.549.01.059.03.114-.027.138.002-.02.138-.075.35-.164l.026-.01c.617-.258.69-.282.889-.16.132.08.258.225.4.44l-.523.343a1.09 1.09 0 0 0-.199-.248c.08.055-.186.143-.326.201l-.025.011c-.48.2-.544.225-.681.225-.374 0-.508-.383-.545-.932-.115.38-.46.86-.743.86-.124 0-.065.019-.58-.164l-.108-.038a1.682 1.682 0 0 0-.34-.089.284.284 0 0 1 .026-.024l-.582.058Z" fill="#c09302"/></svg>