<svg viewBox="0 0 20 15" fill="none" xmlns="http://www.w3.org/2000/svg"><path d="M0 0v15h20V0H0Z" fill="#feca00"/><path d="M0 0v5h20V0H0Z" fill="#5eaa22"/><path d="M0 10v5h20v-5H0Z" fill="#e31d1c"/><path d="M10 11.25a3.75 3.75 0 1 0 0-7.5 3.75 3.75 0 0 0 0 7.5Z" fill="#2B77B8"/><path d="m10 8.75-1.726.58.537-1.444-1.17-1.397h1.624L10 5l.735 1.489h1.66L11.19 7.886l.428 1.443L10 8.75Z" stroke="#feca00" stroke-width=".938"/><path d="m9.81 7.522-1.303 2.725M9.605 7.175h-2.5M10.076 8.024l2.443 1.127M10.604 7.421l1.769-1.936" stroke="#2B77B8" stroke-width=".625"/></svg>