<svg viewBox="0 0 20 15" fill="none" xmlns="http://www.w3.org/2000/svg"><path d="M0 0v15h20V0H0Z" fill="#63B3E1"/><path d="m10 4.563-1.102.579.21-1.227-.891-.87 1.232-.178L10 1.75l.551 1.117 1.232.179-.891.869.21 1.227L10 4.562ZM10 12.063l-1.102.579.21-1.227-.891-.87 1.232-.178L10 9.25l.551 1.117 1.232.179-.891.869.21 1.227-1.102-.58ZM6.125 8.438l-1.102.579.21-1.227-.891-.87 1.232-.178.551-1.117.551 1.117 1.232.179-.891.869.21 1.227-1.102-.58ZM13.75 8.438l-1.102.579.21-1.227-.891-.87 1.232-.178.551-1.117.551 1.117 1.232.179-.891.869.21 1.227-1.102-.58Z" fill="#f7fcff"/></svg>