<svg viewBox="0 0 20 15" fill="none" xmlns="http://www.w3.org/2000/svg"><path d="M0 0v15h20V0H0Z" fill="#2e42a5"/><path d="m-2.227 13.928 4.401 1.862L20.1 2.024 22.42-.742l-4.706-.622-7.311 5.932-5.885 3.997-6.746 5.363Z" fill="#fff"/><path d="m-1.624 15.232 2.242 1.08L21.588-.998h-3.149L-1.623 15.232Z" fill="#f50100"/><path d="m22.227 13.928-4.401 1.862L-.1 2.024-2.42-.742l4.706-.622 7.312 5.932 5.885 3.997 6.745 5.363Z" fill="#fff"/><path d="m22.077 14.864-2.242 1.08-8.93-7.412-2.647-.828L-2.645-.733H.504L11.4 7.504l2.895.993 7.782 6.367Z" fill="#f50100"/><mask id="a" fill="#fff"><path d="M12.361-1.25H7.64V5h-8.872v5H7.64v6.25h4.722V10h8.906V5h-8.906v-6.25Z"/></mask><path d="M12.361-1.25H7.64V5h-8.872v5H7.64v6.25h4.722V10h8.906V5h-8.906v-6.25Z" fill="#f50100"/><path d="M7.639-1.25V-2.5h-1.25v1.25h1.25Zm4.722 0h1.25V-2.5h-1.25v1.25ZM7.64 5v1.25h1.25V5h-1.25Zm-8.872 0V3.75h-1.25V5h1.25Zm0 5h-1.25v1.25h1.25V10Zm8.872 0h1.25V8.75h-1.25V10Zm0 6.25h-1.25v1.25h1.25v-1.25Zm4.722 0v1.25h1.25v-1.25h-1.25Zm0-6.25V8.75h-1.25V10h1.25Zm8.906 0v1.25h1.25V10h-1.25Zm0-5h1.25V3.75h-1.25V5Zm-8.906 0h-1.25v1.25h1.25V5ZM7.64 0h4.722v-2.5H7.64V0Zm1.25 5v-6.25h-2.5V5h2.5ZM-1.233 6.25H7.64v-2.5h-8.872v2.5ZM.017 10V5h-2.5v5h2.5ZM7.64 8.75h-8.872v2.5H7.64v-2.5Zm1.25 7.5V10h-2.5v6.25h2.5ZM12.36 15H7.64v2.5h4.722V15Zm-1.25-5v6.25h2.5V10h-2.5Zm10.156-1.25h-8.906v2.5h8.906v-2.5ZM20.017 5v5h2.5V5h-2.5Zm-7.656 1.25h8.906v-2.5h-8.906v2.5Zm-1.25-7.5V5h2.5v-6.25h-2.5Z" fill="#fff" mask="url(#a)"/></svg>