<svg xmlns="http://www.w3.org/2000/svg" width="20" height="15" fill="transparent" viewBox="0 0 20 15"><g clip-path="url(#a)"><mask id="b" width="20" height="15" x="0" y="0" maskUnits="userSpaceOnUse" style="mask-type:luminance"><path fill="#fff" d="M0 0h20v15H0z"/></mask><g mask="url(#b)"><path fill="#2E42A5" fill-rule="evenodd" d="M0 0v15h20V0H0Z" clip-rule="evenodd"/><mask id="c" width="20" height="15" x="0" y="0" maskUnits="userSpaceOnUse" style="mask-type:luminance"><path fill="#fff" fill-rule="evenodd" d="M0 0v15h20V0H0Z" clip-rule="evenodd"/></mask><g mask="url(#c)"><mask id="d" width="20" height="15" x="0" y="0" maskUnits="userSpaceOnUse" style="mask-type:luminance"><path fill="#fff" d="M0 0h20v15H0z"/></mask><g mask="url(#d)"><path fill="#fff" d="m-2.227 13.928 4.401 1.862L20.1 2.024l2.32-2.766-4.706-.622-7.312 5.932-5.885 3.997-6.745 5.363Z"/><path fill="#F50100" d="m-1.625 15.232 2.243 1.08 20.97-17.31h-3.149l-20.064 16.23Z"/><path fill="#fff" d="m22.227 13.928-4.401 1.862L-.1 2.024-2.421-.742l4.706-.622 7.311 5.932 5.885 3.997 6.746 5.363Z"/><path fill="#F50100" d="m22.077 14.864-2.243 1.08-8.929-7.412-2.647-.828L-2.645-.733H.503L11.4 7.504l2.894.993 7.783 6.367Z"/><mask id="e" fill="#fff"><path fill-rule="evenodd" d="M12.361-1.25H7.639V5h-8.872v5H7.64v6.25h4.722V10h8.906V5h-8.906v-6.25Z" clip-rule="evenodd"/></mask><path fill="#F50100" fill-rule="evenodd" d="M12.361-1.25H7.639V5h-8.872v5H7.64v6.25h4.722V10h8.906V5h-8.906v-6.25Z" clip-rule="evenodd"/><path fill="#fff" d="M7.639-1.25V-2.5h-1.25v1.25h1.25Zm4.722 0h1.25V-2.5h-1.25v1.25ZM7.639 5v1.25h1.25V5h-1.25Zm-8.872 0V3.75h-1.25V5h1.25Zm0 5h-1.25v1.25h1.25V10Zm8.872 0h1.25V8.75h-1.25V10Zm0 6.25h-1.25v1.25h1.25v-1.25Zm4.722 0v1.25h1.25v-1.25h-1.25Zm0-6.25V8.75h-1.25V10h1.25Zm8.906 0v1.25h1.25V10h-1.25Zm0-5h1.25V3.75h-1.25V5Zm-8.906 0h-1.25v1.25h1.25V5ZM7.639 0h4.722v-2.5H7.639V0Zm1.25 5v-6.25h-2.5V5h2.5ZM-1.233 6.25H7.64v-2.5h-8.872v2.5ZM.017 10V5h-2.5v5h2.5ZM7.64 8.75h-8.872v2.5H7.64v-2.5Zm1.25 7.5V10h-2.5v6.25h2.5ZM12.36 15H7.639v2.5h4.722V15Zm-1.25-5v6.25h2.5V10h-2.5Zm10.156-1.25H12.36v2.5h8.906v-2.5ZM20.017 5v5h2.5V5h-2.5Zm-7.656 1.25h8.906v-2.5h-8.906v2.5Zm-1.25-7.5V5h2.5v-6.25h-2.5Z" mask="url(#e)"/></g></g></g></g><defs><clipPath id="a"><rect width="20" height="15" fill="#fff" rx="2"/></clipPath></defs></svg>