<svg xmlns="http://www.w3.org/2000/svg" width="20" height="15" fill="transparent" viewBox="0 0 20 15"><g clip-path="url(#a)"><mask id="b" width="20" height="15" x="0" y="0" maskUnits="userSpaceOnUse" style="mask-type:luminance"><path fill="#fff" d="M0 0h20v15H0z"/></mask><g mask="url(#b)"><path fill="#F7FCFF" fill-rule="evenodd" d="M0 0v15h20V0H0Z" clip-rule="evenodd"/><mask id="c" width="20" height="15" x="0" y="0" maskUnits="userSpaceOnUse" style="mask-type:luminance"><path fill="#fff" fill-rule="evenodd" d="M0 0v15h20V0H0Z" clip-rule="evenodd"/></mask><g fill="#E31D1C" fill-rule="evenodd" clip-rule="evenodd" mask="url(#c)"><path d="M8.75 0h2.5v6.25H20v2.5h-8.75V15h-2.5V8.75H0v-2.5h8.75V0Z"/><path d="m6.25 10.764 1.375-.139v1.25s-1.376-.086-1.376-.061c0 .025.126 1.311.126 1.311h-1.25l.1-1.25h-1.35v-1.25l1.35.139-.1-1.389h1.25l-.126 1.389Zm0-7.5 1.375-.139v1.25s-1.376-.086-1.376-.061c0 .025.126 1.311.126 1.311h-1.25l.1-1.25h-1.35v-1.25l1.35.139-.1-1.389h1.25l-.126 1.389Zm8.75 0 1.375-.139v1.25s-1.376-.086-1.376-.061c0 .025.126 1.311.126 1.311h-1.25l.1-1.25h-1.35v-1.25l1.35.139-.1-1.389h1.25l-.126 1.389Zm0 7.5 1.375-.139v1.25s-1.376-.086-1.376-.061c0 .025.126 1.311.126 1.311h-1.25l.1-1.25h-1.35v-1.25l1.35.139-.1-1.389h1.25l-.126 1.389Z"/></g></g></g><defs><clipPath id="a"><rect width="20" height="15" fill="#fff" rx="2"/></clipPath></defs></svg>