<svg viewBox="0 0 20 15" fill="none" xmlns="http://www.w3.org/2000/svg"><path d="M0 0v15h20V0H0Z" fill="#f7fcff"/><path d="M8.75 0h2.5v6.25H20v2.5h-8.75V15h-2.5V8.75H0v-2.5h8.75V0Z" fill="#e31d1c"/><path d="m6.25 10.764 1.375-.139v1.25s-1.376-.086-1.376-.061c0 .025.126 1.311.126 1.311h-1.25l.1-1.25h-1.35v-1.25l1.35.139-.1-1.389h1.25l-.126 1.389ZM6.25 3.264l1.375-.139v1.25s-1.376-.086-1.376-.061c0 .025.126 1.311.126 1.311h-1.25l.1-1.25h-1.35v-1.25l1.35.139-.1-1.389h1.25l-.126 1.389ZM15 3.264l1.375-.139v1.25s-1.376-.086-1.376-.061c0 .025.126 1.311.126 1.311h-1.25l.1-1.25h-1.35v-1.25l1.35.139-.1-1.389h1.25l-.126 1.389ZM15 10.764l1.375-.139v1.25s-1.376-.086-1.376-.061c0 .025.126 1.311.126 1.311h-1.25l.1-1.25h-1.35v-1.25l1.35.139-.1-1.389h1.25l-.126 1.389Z" fill="#e31d1c"/></svg>