<svg xmlns="http://www.w3.org/2000/svg" width="20" height="15" fill="transparent" viewBox="0 0 20 15"><g clip-path="url(#a)"><mask id="b" width="20" height="15" x="0" y="0" maskUnits="userSpaceOnUse" style="mask-type:luminance"><path fill="#fff" d="M0 0h20v15H0z"/></mask><g mask="url(#b)"><path fill="#F7FCFF" fill-rule="evenodd" d="M0 0v15h20V0H0Z" clip-rule="evenodd"/><mask id="c" width="20" height="15" x="0" y="0" maskUnits="userSpaceOnUse" style="mask-type:luminance"><path fill="#fff" fill-rule="evenodd" d="M0 0v15h20V0H0Z" clip-rule="evenodd"/></mask><g fill-rule="evenodd" clip-rule="evenodd" mask="url(#c)"><path fill="#E31D1C" d="M7.5 0h5v5H20v5h-7.5v5h-5v-5H0V5h7.5V0Z"/><path fill="#FECA00" d="M8.129 1.904 8.75 3v3.25H4.29v-.036l-1.099-.623v3.725l1.04-.566h4.52v3.157l-.622 1.096h3.725l-.598-1.1h-.006V8.75h4.5l1.04.566V5.591l-1.099.623v.036h-4.44V3.003h.005l.598-1.1H8.129Z"/></g></g></g><defs><clipPath id="a"><rect width="20" height="15" fill="#fff" rx="2"/></clipPath></defs></svg>