<svg xmlns="http://www.w3.org/2000/svg" width="20" height="15" fill="transparent" viewBox="0 0 20 15"><g clip-path="url(#a)"><mask id="b" width="20" height="15" x="0" y="0" maskUnits="userSpaceOnUse" style="mask-type:luminance"><path fill="#fff" d="M0 0h20v15H0z"/></mask><g mask="url(#b)"><path fill="#F7FCFF" d="M0 0h20v15H0z"/><path fill="#C51918" fill-rule="evenodd" d="M0 10h20v5H0v-5Z" clip-rule="evenodd"/><path fill="#DB000B" fill-rule="evenodd" d="M9.838 2.042h-.921v.916h.455L9.339 5.48H7.996V4.333h.46v-.916h-.92v.458h-.461v-.458h-.921v.916h.46V5.48h-.97v.917h.46v2.75h-.46v.916h8.75v-.916h-.922v-2.75h.921V5.48h-.903l.023-1.146h.47v-.916h-.921v.458h-.46v-.458h-.922v.916h.451L12.11 5.48h-1.39l.032-2.52h.466v-.917h-.92V2.5h-.461v-.458Z" clip-rule="evenodd"/><path fill="#272727" d="M7.132 5.48a.23.23 0 1 1 .46 0v1.145h-.46V5.48Z"/><path fill="#272727" fill-rule="evenodd" d="M6.76 8.556a.69.69 0 0 1 1.382 0V9.7H6.76V8.556Zm5.066 0a.69.69 0 0 1 1.382 0V9.7h-1.382V8.556Zm-2.763-.228a.921.921 0 0 1 1.842 0v1.83H9.063v-1.83Z" clip-rule="evenodd"/><path fill="#272727" d="M9.895 5.48a.23.23 0 1 1 .46 0v1.145h-.46V5.48Zm2.763 0a.23.23 0 1 1 .46 0v1.145h-.46V5.48Z"/><path fill="#E8AA00" fill-rule="evenodd" d="m10.327 9.498-.114.208-.21-.314-1.724 1.155 1.922.915 1.696-1.108-1.57-.856Zm-.788.957.555-.372.586.32-.527.344-.614-.292Zm-.565 2.378h.92v.917h-.92v-.917Z" clip-rule="evenodd"/><path fill="#E8AA00" fill-rule="evenodd" d="M9.5 11.25h1.093v2.5H9.5v-2.5Z" clip-rule="evenodd"/></g></g><defs><clipPath id="a"><rect width="20" height="15" fill="#fff" rx="2"/></clipPath></defs></svg>