<svg viewBox="0 0 20 15" fill="none" xmlns="http://www.w3.org/2000/svg"><path fill="#f7fcff" d="M0 0h20v15H0z"/><path d="M0 10h20v5H0v-5Z" fill="#c51918"/><path d="M9.838 2.042h-.921v.916h.454L9.34 5.48H7.996V4.333h.46v-.916h-.92v.458h-.461v-.458h-.922v.916h.461V5.48h-.971v.917h.46v2.75h-.46v.916h8.75v-.916h-.921v-2.75h.92v-.917h-.902l.023-1.146h.47v-.916h-.922v.458h-.46v-.458h-.921v.916h.451l-.023 1.146H10.72l.033-2.52h.466v-.917h-.92V2.5h-.461v-.458Z" fill="#db000b"/><path d="M7.132 5.48a.23.23 0 1 1 .46 0v1.145h-.46V5.48ZM6.76 8.556a.69.69 0 1 1 1.381 0V9.7H6.76V8.556ZM11.826 8.556a.69.69 0 0 1 1.381 0V9.7h-1.381V8.556ZM9.063 8.328a.921.921 0 0 1 1.842 0v1.83H9.063v-1.83ZM9.895 5.48a.23.23 0 1 1 .46 0v1.145h-.46V5.48ZM12.658 5.48a.23.23 0 0 1 .46 0v1.145h-.46V5.48Z" fill="#272727"/><path d="m10.326 9.498-.113.208-.21-.314-1.724 1.155 1.922.915 1.696-1.108-1.57-.856Zm-.787.957.555-.372.586.32-.527.344-.614-.292ZM8.974 12.833h.92v.917h-.92v-.917Z" fill="#e8aa00"/><path d="M9.5 11.25h1.093v2.5H9.5v-2.5Z" fill="#e8aa00"/></svg>