<svg xmlns="http://www.w3.org/2000/svg" width="1760" height="15" fill="transparent" viewBox="0 0 1760 15"><g clip-path="url(#a)"><g clip-path="url(#b)"><mask id="c" width="20" height="15" x="0" y="0" maskUnits="userSpaceOnUse" style="mask-type:luminance"><path fill="#fff" d="M0 0h20v15H0z"/></mask><g mask="url(#c)"><path fill="#5EAA22" fill-rule="evenodd" d="M0 10h20v5H0v-5Z" clip-rule="evenodd"/><path fill="#E31D1C" fill-rule="evenodd" d="M0 0h20v5H0V0Z" clip-rule="evenodd"/><path fill="#3D58DB" stroke="#fff" stroke-width="1.5" d="M0 5.25h-.75v4.5h21.5v-4.5H0Z"/></g></g><g clip-path="url(#d)"><mask id="e" width="20" height="15" x="60" y="0" maskUnits="userSpaceOnUse" style="mask-type:luminance"><path fill="#fff" d="M60 0h20v15H60z"/></mask><g fill-rule="evenodd" clip-rule="evenodd" mask="url(#e)"><path fill="#FBCD17" d="M66 0h8v15h-8V0Z"/><path fill="#0B9E7A" d="M74 0h6v15h-6V0Z"/><path fill="#E11C1B" d="M60 0h6v15h-6V0Z"/></g></g><g clip-path="url(#f)"><mask id="g" width="20" height="15" x="120" y="0" maskUnits="userSpaceOnUse" style="mask-type:luminance"><path fill="#fff" d="M120 0h20v15h-20z"/></mask><g fill-rule="evenodd" clip-rule="evenodd" mask="url(#g)"><path fill="#F50100" d="M134 0h6v15h-6V0Z"/><path fill="#2E42A5" d="M120 0h6v15h-6V0Z"/><path fill="#F7FCFF" d="M126 0h8v15h-8V0Z"/></g></g><g clip-path="url(#h)"><path fill="#002488" d="M180 0v5h20V0h-20Z"/><path fill="#DA121A" d="M180 5v10h20V5h-20Z"/><path fill="#FCDD09" d="M183.468.708c-.241.397-.27.715-.105 1.263.079.256.166.639.202.846.049.292.044.32.051.384h.263c.009-.102.016-.219.038-.38.025-.187.1-.579.18-.851.16-.544.15-.878-.1-1.256-.091-.14-.213-.256-.268-.256-.054 0-.178.108-.261.25Zm.524 2.232c-.02.106-.025.143-.036.26.074.001.103.002.175.001.016-.08.027-.121.062-.234.137-.436.542-.611.524-.203a.357.357 0 0 1-.106.236 1.62 1.62 0 0 0 .317-.145c.626-.378.38-1.303-.278-1.023-.341.146-.546.55-.658 1.109Zm-.734.425c.275.002.75.005.978.003.001-.076.002-.037.002-.099-.168-.002-.812.001-.979.001l-.001.095Zm-.174.488s.137.015.265.006a.682.682 0 0 0 .274-.062c-.02.152-.021.3-.021.3a.838.838 0 0 0 .082.341c.057.08.091.08.133-.004a.85.85 0 0 0 .086-.339 1.576 1.576 0 0 0-.036-.296.755.755 0 0 0 .276.06c.135.012.259.006.259.006s-.182-.092-.262-.204c-.079-.111-.063-.092-.12-.235-.07-.003-.425 0-.538 0-.061.13-.068.157-.144.24-.099.107-.254.187-.254.187Zm-.247-2.021c.341.146.546.55.658 1.109.021.104.026.141.036.26h-.174a2.177 2.177 0 0 0-.062-.234c-.138-.436-.543-.611-.525-.203a.358.358 0 0 0 .107.236 1.679 1.679 0 0 1-.317-.145c-.627-.378-.38-1.304.277-1.023Zm6.931-1.124c-.241.397-.27.715-.105 1.263.079.256.166.639.202.846.049.292.044.32.051.384h.263c.009-.102.016-.219.038-.38.025-.187.1-.579.18-.851.161-.544.15-.878-.1-1.256-.091-.14-.213-.256-.268-.256-.054 0-.178.108-.261.25Zm1.182 1.124c-.341.146-.546.55-.658 1.109-.02.105-.025.142-.036.26h.175c.016-.08.027-.121.062-.234.137-.436.542-.611.524-.203a.357.357 0 0 1-.106.236 1.62 1.62 0 0 0 .317-.145c.626-.378.38-1.303-.278-1.023Zm-1.392 1.533c.275.002.75.005.978.003.001-.076.002-.037.002-.099-.168-.002-.812.001-.979.001l-.001.095Zm.08.301c-.099.107-.254.187-.254.187s.137.015.265.006a.682.682 0 0 0 .274-.062c-.02.152-.021.3-.021.3a.838.838 0 0 0 .082.341c.057.08.091.08.133-.004a.85.85 0 0 0 .086-.339 1.497 1.497 0 0 0-.036-.296.76.76 0 0 0 .276.06c.135.012.259.006.259.006s-.182-.092-.262-.204c-.079-.111-.063-.092-.12-.235-.07-.003-.425 0-.538 0-.061.13-.067.157-.144.24Zm-.501-1.834c.341.146.546.55.658 1.109.021.104.026.141.036.26h-.174a1.963 1.963 0 0 0-.062-.234c-.138-.436-.543-.611-.525-.203a.362.362 0 0 0 .107.236 1.708 1.708 0 0 1-.317-.145c-.627-.378-.38-1.304.277-1.023Zm6.931-1.124c-.241.397-.27.715-.106 1.263.079.256.166.639.203.846.049.292.044.32.05.384h.263c.01-.102.017-.219.039-.38.025-.187.1-.579.18-.851.16-.544.15-.878-.1-1.256-.091-.14-.213-.256-.268-.256-.055 0-.178.108-.261.25Zm1.182 1.124c-.341.146-.546.55-.658 1.109-.02.105-.025.142-.036.26h.175c.016-.08.027-.121.062-.234.137-.436.542-.611.524-.203a.362.362 0 0 1-.106.236 1.59 1.59 0 0 0 .316-.145c.627-.378.38-1.303-.277-1.023Zm-1.393 1.533c.275.002.751.005.979.003l.002-.099c-.168-.002-.812.001-.979.001l-.002.095Zm.081.301c-.099.107-.254.187-.254.187s.137.015.265.006a.682.682 0 0 0 .274-.062c-.02.152-.022.3-.022.3.019.196.04.246.083.341.057.08.091.08.133-.004a.85.85 0 0 0 .086-.339 1.576 1.576 0 0 0-.036-.296.755.755 0 0 0 .276.06c.135.012.259.006.259.006s-.182-.092-.262-.204c-.08-.111-.063-.092-.12-.235-.07-.003-.425 0-.538 0-.061.13-.068.157-.144.24Zm-.501-1.834c.341.146.546.55.658 1.109.021.104.026.141.036.26h-.175a1.93 1.93 0 0 0-.061-.234c-.138-.436-.543-.611-.525-.203a.358.358 0 0 0 .107.236 1.65 1.65 0 0 1-.317-.145c-.627-.378-.38-1.304.277-1.023Z"/><path fill="green" d="M187.118 8.271c.132.062.301.11.386.113.101.004.074-.021-.114-.094a1.992 1.992 0 0 1-.4-.214c-.14-.115-.14-.115-.125-.014.008.058.113.147.253.209Z"/><path fill="green" d="M186.296 7.082c.086.341.439.969.56.993.11.019.11.012.019-.091-.153-.177-.481-.823-.481-.945 0-.067-.031-.115-.067-.115-.043 0-.055.06-.031.158Zm-2.225 1.011c-.103.079-.097.085.128.048.134-.018.329-.054.426-.079.158-.042.146-.049-.128-.055-.182-.006-.353.03-.426.086Z"/><path fill="green" d="M182.559 7.452c1.004.183 3.019.86 2.897.975-.03.03-.596-.11-.675-.165-.031-.03-.329-.018-.658.025-.614.067-.718.122-.706.372.007.121.007.121.037 0 .055-.226.146-.275.493-.275.377 0 1.412.153 1.868.275.609.17.627.17.426.06-.261-.146-.657-.414-.73-.493-.134-.152-2.562-.823-2.915-.81-.165.012-.171.012-.037.036Zm3.564.701c.049.085.524.323.56.286.019-.018-.036-.067-.109-.11a.96.96 0 0 1-.225-.158c-.098-.091-.28-.11-.226-.018Z"/><path fill="green" d="M186.16 8.732c.049.085.523.323.56.286.018-.018-.037-.067-.11-.11a.982.982 0 0 1-.225-.158c-.097-.091-.28-.11-.225-.018Zm-.68-.726c.008-.008.145.037.308.1.162.064.372.123.462.13.159.006.723.275.718.34-.002.06-.854-.201-1.152-.353-.359-.178-.367-.187-.336-.217Z"/><path fill="green" d="M186.488 8.452a.623.623 0 0 0-.264.18c-.042.067-.006.068.14-.006.115-.058.281-.105.372-.112.17-.009.17-.009.062-.077-.062-.038-.194-.035-.31.015Zm-2.849-2.054c.189.36.956 1.188 1.382 1.505a1.2 1.2 0 0 0 .45.189l.238.036-.177-.195c-.286-.31-.724-.908-.864-1.17-.152-.286-.171-.213-.043.153.049.146.244.439.432.646.189.213.311.39.28.39-.079 0-.59-.604-.955-1.128-.396-.572-.414-.59-.305-.274.055.152.177.378.28.5.098.128.159.231.128.231-.061 0-.328-.304-.663-.743-.092-.128-.219-.293-.274-.366-.061-.079-.018.025.091.226Zm2.579 3.062c-.458-.082-.677-.01-.862.277l-.158.246.203-.193c.277-.27.478-.295.975-.15.233.068.43.113.437.103.037-.055-.355-.247-.595-.284Z"/><path fill="green" d="M186.343 9.587c-.426.19-.566.372-.56.713l.006.293.061-.274c.079-.378.231-.512.724-.67.232-.074.42-.147.42-.16 0-.066-.432-.005-.651.098Z"/><path fill="green" d="M186.262 10.11a.617.617 0 0 0-.127.293c0 .08.03.061.115-.08.067-.109.183-.237.256-.292.14-.097.14-.097.012-.097-.073 0-.183.073-.256.177Zm6.581.994c.197.085 1.223.344 1.948.557.726.213 1.574.458 1.762.484.268-.586-.22.51.058-.154-.362-.092-1.79-.429-2.363-.594-.494-.138-1.195-.354-1.375-.394-.179-.04-.182.035-.03.1Z"/><path fill="green" d="M192.968 10.952c.201.079 1.234.301 1.967.489.732.187 1.589.402 1.777.422.248-.595-.202.517.054-.156-.366-.08-1.805-.366-2.383-.511-.499-.121-1.207-.313-1.388-.346-.181-.033-.181.041-.027.102Zm-.284.262c.193.096 1.204.408 1.917.659.713.25 1.548.54 1.734.575.298-.57-.247.498.066-.15-.357-.112-1.765-.522-2.329-.717-.486-.164-1.175-.417-1.352-.466-.177-.049-.184.025-.036.1Z"/><path fill="green" d="M192.561 11.339c.188.106 1.18.47 1.88.758.699.288 1.517.62 1.701.666.328-.554-.272.484.075-.147-.351-.13-1.736-.614-2.289-.838-.477-.19-1.152-.478-1.326-.536-.174-.058-.185.015-.041.097Z"/><path fill="green" d="M192.445 11.496c.184.113 1.163.512 1.852.824.689.311 1.495.672 1.677.724.348-.542-.288.474.08-.144-.346-.142-1.714-.674-2.258-.917-.47-.206-1.134-.518-1.307-.582-.172-.065-.185.009-.044.095Z"/><path fill="#FCDD09" d="M190.392 13.076c.283.197.438.47.423.753l-.011.234.093-.23c.101-.24.087-.604-.032-.874l-.07-.157.222.097c.317.134.526.37.57.65l.038.23.043-.244c.049-.257-.04-.61-.213-.848l-.101-.14.237.049c.338.065.591.252.692.516l.086.218-.009-.248c-.005-.26-.166-.588-.385-.785l-.127-.115.242-.002c.344-.007.631.123.784.361l.129.195-.06-.24c-.059-.255-.284-.54-.539-.688l-.149-.086.236-.053c.336-.078.643-.01.843.19l.166.164-.109-.223c-.11-.236-.39-.47-.67-.56l-.163-.053.22-.1c.312-.147.627-.145.863.01l.197.125-.152-.195c-.157-.208-.479-.378-.772-.409l-.171-.018.195-.144c.274-.208.582-.271.846-.17l.219.083-.19-.16c-.197-.17-.547-.27-.84-.239l-.171.018.161-.182c.225-.26.513-.386.793-.341l.23.034-.218-.116c-.228-.126-.591-.15-.872-.06l-.163.054.119-.211c.166-.302.422-.485.705-.5l.233-.014-.238-.068c-.25-.076-.61-.024-.865.124l-.149.086.073-.232c.1-.33.312-.562.586-.635l.225-.062-.247-.017c-.26-.023-.601.103-.82.3l-.128.116.023-.242c.029-.343.189-.615.441-.743l.207-.108-.245.035c-.259.032-.566.226-.74.465l-.101.14-.027-.242c-.043-.342.057-.641.277-.819l.18-.148-.233.085c-.246.085-.507.339-.627.608l-.07.158-.076-.23c-.113-.326-.078-.64.1-.859l.146-.183-.21.132c-.223.134-.426.437-.487.726l-.036.168-.122-.209c-.179-.295-.209-.609-.08-.86l.104-.21-.178.172c-.19.179-.325.517-.325.812v.172l-.164-.179c-.235-.251-.331-.552-.257-.825l.059-.226-.139.205c-.149.214-.211.573-.149.862l.035.168-.197-.14c-.282-.198-.438-.472-.422-.755l.01-.233-.093.23c-.101.24-.087.604.033.874l.07.157-.223-.097c-.317-.134-.526-.37-.569-.65l-.039-.23-.043.244c-.049.256.04.61.213.848l.101.14-.237-.049c-.338-.065-.591-.252-.692-.517l-.085-.217.008.248c.005.26.166.587.385.785l.128.115-.243.002c-.344.007-.631-.123-.784-.361l-.129-.195.06.24c.059.254.284.54.539.688l.149.086-.236.053c-.336.078-.643.01-.843-.19L186.228 8l.109.222c.11.237.39.47.67.561l.164.053-.221.1c-.312.147-.626.145-.863-.01l-.197-.126.152.196c.158.208.479.378.772.409l.171.018-.194.144c-.275.208-.583.271-.847.17l-.219-.083.19.16c.197.17.547.27.84.239l.171-.018-.16.181c-.226.261-.514.387-.793.342l-.231-.034.218.116c.228.126.591.15.872.059l.163-.053-.119.21c-.166.303-.422.486-.705.5l-.233.014.238.069c.25.076.61.024.865-.124l.149-.086-.073.231c-.1.33-.312.563-.586.636l-.225.062.247.017c.26.022.601-.103.82-.3l.128-.116-.023.242c-.029.343-.189.615-.441.743l-.207.108.245-.035c.259-.032.567-.226.74-.465l.101-.14.027.242c.043.342-.056.64-.277.819l-.18.148.233-.085c.246-.085.507-.339.627-.608l.07-.158.076.23c.113.326.078.639-.1.859l-.146.182.21-.13c.223-.136.426-.438.487-.727l.036-.168.123.209c.178.295.208.608.079.86l-.104.21.178-.173c.19-.178.326-.516.326-.811v-.172l.163.179c.236.251.331.552.257.825l-.059.226.139-.205c.149-.214.211-.573.149-.862l-.035-.168.197.14Z"/></g><g clip-path="url(#i)"><mask id="j" width="20" height="15" x="240" y="0" maskUnits="userSpaceOnUse" style="mask-type:luminance"><path fill="#fff" d="M240 0h20v15h-20z"/></mask><g mask="url(#j)"><path fill="#F7FCFF" fill-rule="evenodd" d="M240 0v15.36h20.48V0H240Z" clip-rule="evenodd"/><mask id="k" width="21" height="16" x="240" y="0" maskUnits="userSpaceOnUse" style="mask-type:luminance"><path fill="#fff" fill-rule="evenodd" d="M240 0v15.36h20.48V0H240Z" clip-rule="evenodd"/></mask><g fill-rule="evenodd" clip-rule="evenodd" mask="url(#k)"><path fill="#009D00" d="M240 0v5.12h20.48V0H240Z"/><path fill="#fff" d="M240 5.12v5.12h20.48V5.12H240Z"/><path fill="#F80000" d="M240 10.24v5.12h20.48v-5.12H240Z"/></g><path fill="#0075D5" fill-rule="evenodd" d="M240 0v15.36l5.12-7.583L240 0Z" clip-rule="evenodd"/><path fill="#FFD500" stroke="#000" stroke-width=".04" d="m249.326 5.689-.01.002-.008-.007-.126-.117-.016.172-.001.01-.009.005-.15.084.158.068.009.004.002.01.034.17.113-.13.007-.008.011.002.171.02-.088-.148-.006-.01.005-.009.072-.156-.168.038Zm.64 0-.01.002-.008-.007-.126-.117-.016.172-.001.01-.009.005-.15.084.158.068.009.004.002.01.034.17.113-.13.007-.008.011.002.17.02-.087-.148-.006-.01.005-.009.072-.156-.168.038Zm.64 0-.01.002-.008-.007-.126-.117-.016.172-.001.01-.009.005-.15.084.158.068.009.004.002.01.034.17.113-.13.007-.008.011.002.171.02-.088-.148-.006-.01.005-.009.072-.156-.168.038Zm.64 0-.01.002-.008-.007-.126-.117-.016.172-.001.01-.009.005-.15.084.158.068.009.004.002.01.034.17.113-.13.007-.008.011.002.17.02-.087-.148-.006-.01.005-.009.072-.156-.168.038Zm.64 0-.01.002-.008-.007-.126-.117-.016.172-.001.01-.009.005-.15.084.158.068.009.004.002.01.034.17.113-.13.007-.008.011.002.171.02-.088-.148-.006-.01.005-.009.072-.156-.168.038Zm.64 0-.01.002-.008-.007-.126-.117-.016.172-.001.01-.009.005-.15.084.158.068.009.004.002.01.034.17.113-.13.007-.008.011.002.171.02-.088-.148-.006-.01.005-.009.072-.156-.168.038Z"/><path stroke="#373737" stroke-width=".08" d="M249.64 6.44h2.48v1.88a1.24 1.24 0 1 1-2.48 0V6.44Z"/><path fill="#6F3E1D" fill-rule="evenodd" d="M250.705 7.654s-.129 1.514-.258 1.606c-.129.092.617.137.689.069.071-.07-.326-1.303-.189-1.675.136-.372.356-.402.356-.402s-.277-.058-.356.053c-.08.112-.316-.053-.316-.053l.074.402Z" clip-rule="evenodd"/><path fill="#009D29" fill-rule="evenodd" d="M250.677 7.569h-.1s-.067.263-.221.131c-.155-.131-.372-.085-.372-.085s.019-.157.256-.22c.237-.062.337-.57.337-.57s.335-.125.539.13c.204.256.491.147.491.147s.21.12.105.293c-.105.174-.284.3-.44.174-.156-.127-.595 0-.595 0Z" clip-rule="evenodd"/></g></g><g clip-path="url(#l)"><mask id="m" width="20" height="15" x="300" y="0" maskUnits="userSpaceOnUse" style="mask-type:luminance"><path fill="#fff" d="M300 0h20v15h-20z"/></mask><g mask="url(#m)"><path fill="#F7FCFF" fill-rule="evenodd" d="M300 0h20v15h-20V0Z" clip-rule="evenodd"/><path fill="#4564F9" d="M300.017 3.438h20v1.875h-20z"/><path fill="#4564F9" fill-rule="evenodd" d="M300 0h20v1.875h-20V0Z" clip-rule="evenodd"/><path fill="#4564F9" d="M299.963 6.875h20V8.75h-20zm.107 3.375h20v1.875h-20zm-.007 3.188h20v1.875h-20z"/><path fill="#4564F9" fill-rule="evenodd" d="M300 0h10v8.75h-10V0Z" clip-rule="evenodd"/><path fill="#F7FCFF" fill-rule="evenodd" d="M304.044 0h1.978v3.438H310v2.366h-3.978v3.571h-1.978V5.804H300V3.437h4.044V0Z" clip-rule="evenodd"/></g></g><g clip-path="url(#n)"><mask id="o" width="20" height="15" x="360" y="0" maskUnits="userSpaceOnUse" style="mask-type:luminance"><path fill="#fff" d="M360 0h20v15h-20z"/></mask><g mask="url(#o)"><path fill="#2B409A" fill-rule="evenodd" d="M360 0h20v15h-20V0Z" clip-rule="evenodd"/><path fill="#6A4C2D" d="M375.199 11.595a.808.808 0 0 1-.178-.075s-.101.16-.154.169c-.053.009-.327-.099-.327-.099s-.192.15-.235.14a81.61 81.61 0 0 1-.486-.102l-.24-.15s-.134.215-.139.21c-.005-.004-.404-.08-.404-.08s.12-.164.12-.168a.277.277 0 0 0-.057-.024l-.087.07-.356.034.087-.245.139-.206 1.706-1.62.841 1.516-.124.456s-.068.174-.106.174Z"/><path stroke="#FB0" stroke-linecap="round" stroke-linejoin="round" stroke-width=".5" d="M373.569 11.288c.059.072.842.872.969 1.25.127.38-1.029-.104-1.029-.104s1.456-.946 2.183-.946c.727 0 2.157.946 2.157.946s-.96.675-.95.25c.01-.427.451-1.266.976-1.396"/><path fill="#F7FCFF" d="m378.464 11.35-.24-.089-.211-.28-.877-.065-.799-.218-.337.225.181.237.444.163 1.839.027Z"/><g filter="url(#p)"><path fill="#656263" d="M374.962 6.166c.008.02.187-.016.225.092.192-.285.418-.014.418-.014l.19-.225.214.204.197-.016.206.483-1.623-.03s.164-.514.173-.494Z"/></g><path fill="#656263" d="M376.645 8.221c-.013-.153-.149-.17-.225-.165a.275.275 0 0 0-.143.068l-.251-.155s.126-.772.259-.82c.126-.09.148-.128.148-.149a.509.509 0 0 0-.047-.103l-.816-.094-.772.09s-.06.12-.052.156c.008.035.01.074.148.178.154.115.259.775.259.775s-.217.104-.23.092c-.013-.013-.078-.026-.112-.02a.204.204 0 0 0-.146.206c0 .145.112.23.112.23s.738.54.848.739c.107-.24.808-.78.892-.821.034-.02.141-.054.128-.207Z"/><path fill="#000" d="M377.381 7.5c.062-.039.47-.059.568 0 .098.06.135.356.135.356s.061.104.065.18c.004.076.013.128.013.128s.326.415.33.79c.037.255.029.938-.073 1.197-.004.324-.143.535-.143.535s.033.056.029.116a.322.322 0 0 1-.037.116l-.307.132-.339-.056-.384-1.122.09-1.896.025-.096-.041-.255s.008-.084.069-.124Z"/><path fill="#F7FCFF" d="M375.164 8.496s.413 0 .458.131c.078-.174.435-.163.435-.163l.648-.022.011 1.528a1.647 1.647 0 0 1-1.05 1.19c-.577-.182-.942-.659-1.061-1.201l-.067-1.452.626-.01Z"/><path fill="#006B00" d="m374.761 8.502.911 2.372.823-2.424c-.255.016-.803-.04-.871.188-.105-.203-.682-.121-.863-.136Z"/><path fill="#FFD100" fill-rule="evenodd" d="M375.817 8.674s.083.216 0 .323c-.083.107.007.195.057.195s.221.17.082.17-.218-.053-.218.096c0 .15.307 1.08.263.878-.045-.203-.088-.155-.088-.33 0-.176.043-.371.043-.371s.073.055.021.255c-.052.2-.291.49-.35.502-.06.011-.152.104-.164-.067-.012-.172-.062-.253-.022-.286.04-.034.092-.153.109-.06.017.095-.057.185-.045.219.012.033.019.11.07.046.052-.064.082-.17.12-.072.039.098.04.02-.04-.167s-.148-.291-.138-.455c.01-.165-.003-.226.01-.28.012-.052-.143-.31-.104-.383.04-.074.055-.314.104-.27.048.043.073.1.048.165-.025.064-.05.128-.025.172.025.043.111.168.128.137.017-.032.075-.001.075-.18 0-.178-.064-.241-.024-.284.041-.042.088.047.088.047Z" clip-rule="evenodd"/><path fill="#1E5AA6" d="m376.501 8.45.122-.003-.219.272.263.3-.518.638.489.574a1.502 1.502 0 0 1-.199.352l-.281-.303.509-.62-.418-.463.252-.747Zm-1.888.057.246.26-.26.318.541.575-.448.586c.054.128.131.271.214.377l.266-.329-.547-.594.401-.498-.281-.697-.132.002Z"/><path fill="#1E5AA6" d="m375.353 10.048-.193.252.691.78c.122-.06.217-.128.322-.21l-.36-.407.146-.42.211.237-.658.82a1.436 1.436 0 0 1-.343-.205l.348-.432-.164-.415Z"/><path fill="url(#q)" d="M377.741 8.032c0 .04.043 2.395.091 2.373.118-.056.146.066.146.066s.041.387-.062.439a1.475 1.475 0 0 1-.264.117l-.177-.129s-.179-.252-.22-.363a3.098 3.098 0 0 1-.074-.719c.016-.108.029-.738.021-.77-.009-.032-.041-.56-.021-.639.021-.08.147-.431.143-.431 0 0 .417.016.417.056Z"/><path fill="#FF7000" d="M377.332 7.629c.086 0 .151.072.172.136.004.027-.008.047-.004.1.004.051-.621.011-.625.007 0 0 .29-.275.457-.243Z"/><path fill="#000" d="M377.73 7.806a.05.05 0 0 1-.05.05.05.05 0 0 1-.05-.05.05.05 0 0 1 .05-.05.05.05 0 0 1 .05.05Z"/><path fill="#F7FCFF" d="M376.138 7.443s.325.344.536.34c.038.101-.096.195-.15.24-.107-.033-.204.006-.452-.293.015-.19.07-.28.066-.287Zm1.294-1.732c.03.221.549.492.698.308-.015.083.013.34-.776.336.299.277-.297.576-.466.508.31-.232-.088-.37-.31-.22.042-.128.352-.767.854-.932Z"/><path fill="#00F" fill-rule="evenodd" d="M376.906 7.26c-.059-.243-.087-.522.043-.629-.172-.116-.359.004-.359.004l-.01.015c-.04.055-.174.24.01.573-.49-.127-.285.317-.249.35.019-.07.279-.137.344.225.022.074-.11.18-.152.214l-.012.01s.414.085.468-.463a.846.846 0 0 0 .404-.744c-.316.006-.455.354-.487.445Z" clip-rule="evenodd"/><path fill="#F7FCFF" d="M375.055 7.54s-.318.27-.498.183c-.134.08-.291-.06-.291-.06s.184.663.842.184a1.528 1.528 0 0 0-.053-.307Z"/><path fill="#00F" d="M374.553 7.712c.027-.138.138-.206.226-.075.119.023.237-.452-.184-.374.119-.62-.237-.852-.237-.852s-.126.688-.069.815c.058.127-.084-.236-.539-.337-.008.52.509.763.509.763s.145.131.294.06Z"/><path fill="#F7FCFF" d="M374.123 6.962c-.134.04-.46-.156-.253-.41-.678-.015-1.046-.587-.821-.478.226.109.387-.124.556 0-.207-.187.072-.337.072-.337s.578.169.681.67c-.034.097-.05.27-.057.262 0-.004-.358-.006-.178.293Z"/><path fill="#923F00" d="M375.422 4.672c-.064.186-.295.115-.295.115s.008.094-.015.139c.019.014.155.119.299.146.206.039.627-.068.769.09.141.157.134.284.134.284s-.184.02-.133.086c.033.042.125.073.133.117.026.138-.086.388-.046.481-.064.006-.069.071-.069.071-.003.074-.187.03-.187.03s.114-.288.122-.355c.008-.068-.08-.187-.149-.187-.069 0-.119.213-.119.213s-.034.16-.023.176l-.046-.053s-.018.066-.048.105a.212.212 0 0 1-.078.064s-.035-.098-.023-.135c.011-.037.188-.183.172-.288-.007-.046-.013-.127-.071-.154-.073-.033-.207-.009-.289-.025-.044.076-.065.493-.034.52.031.026-.077.082-.077.082l-.126.003c-.002-.056.075-.21.075-.342 0-.13.009-.27.009-.27s-.085.02-.13.104a.482.482 0 0 0-.034.22c.007.042.046.158.034.191-.011.034-.21.079-.21.079l-.008-.109s.084-.052.084-.183c0-.13.008-.318.004-.33-.002-.006-.069-.292-.157-.485-.058-.129-.148-.188-.153-.199-.011-.026-.011-.056-.011-.056s-.127.09-.276-.1c.137-.115.283-.03.283-.03s.039-.105.214-.098c.177.008.211.105.203.094 0 0 .13-.112.272-.011Z"/><path fill="#B4B6B9" d="m374.767 7.102.805.515.726-.476s.151-.082.138-.14c-.013-.06-.065-.036-.091-.026-.026.01-.759.517-.759.517l-.78-.482s-.058-.017-.068.018c-.011.036.021.056.029.074Z"/><path fill="#FF7000" d="M377.467 10.892s-.3-.02-.254.067c.025.048.422.042.422.042l-.168-.109Zm.142.116-.312.01s-.079.069-.084.086c-.005.017.052.021.052.021s.322.082.566.03c.123-.043.145-.093.058-.124-.086-.03-.277-.021-.28-.023Z"/><path fill="#8A9396" d="M373.994 8.119s-.041.125 0 .187c.041.063.297.568.297.568s.174-.21.238-.216c.064-.005.035.546.035.546s-.105.096-.169.09c-.064-.005.157.217.151.404-.006.188-.29 1.12-.395 1.136-.105.017-.195-.175-.195-.342 0-.166.108-.43.102-.504-.006-.074-.52.792-.551.927-.006.025.028.118.028.118s-.202.017-.157.273c-.593-.205-.884-.557-.878-.915.002-.137-.129-.46 0-.816.207-.574.711-1.228.715-1.291.006-.103.047-.148.052-.205.006-.057-.017-.347.041-.398.058-.05.361-.176.436-.17a.29.29 0 0 1 .14.057s.285 0 .302.107c.017.109-.058.148-.058.148s.041.154-.134.296Z"/><path fill="#2B2B2B" d="M374.164 11.341c.096.066.318.106.318.106s-.545.147-1.099-.138c-.051-.222.119-.272.161-.274.097-.025.524.24.62.306Z"/><path fill="#00713D" d="M374.831 11.318c.596.315.66.103 1.071-.197.028-.02.164.481.739.197.815-.403-.698-1.074-.912-1.06-.214.015-1.495.744-.898 1.06Z"/><path stroke="#CDAD56" stroke-linecap="round" stroke-width=".25" d="M374.815 4.64s-.277-.364-.277-.447m.5.447s.277-.364.277-.447"/><path fill="#2B409A" d="M360 0h11.25v8.75H360z"/><mask id="r" width="12" height="9" x="360" y="0" maskUnits="userSpaceOnUse" style="mask-type:luminance"><path fill="#fff" d="M360 0h11.25v8.75H360z"/></mask><g mask="url(#r)"><path fill="#F7FCFF" d="m358.747 8.125 2.476 1.086 10.083-8.03 1.306-1.614-2.647-.363-4.113 3.46-3.31 2.332-3.795 3.129Z"/><path fill="#F50100" d="m359.086 8.886 1.261.63L372.143-.583h-1.771l-11.286 9.469Z"/><path fill="#F7FCFF" d="m372.503 8.125-2.476 1.086-10.083-8.03-1.306-1.614 2.647-.363 4.113 3.46 3.31 2.332 3.795 3.129Z"/><path fill="#F50100" d="m372.418 8.67-1.261.63-5.023-4.323-1.489-.483-6.133-4.921h1.771l6.13 4.804 1.628.58 4.377 3.714Z"/><mask id="s" width="14" height="11" x="359" y="-1" fill="#000" maskUnits="userSpaceOnUse"><path fill="#fff" d="M359-1h14v11h-14z"/><path fill-rule="evenodd" d="M366.24 0h-1.25v3.75H360V5h4.99v3.75h1.25V5h5.01V3.75h-5.01V0Z" clip-rule="evenodd"/></mask><path fill="#F50100" fill-rule="evenodd" d="M366.24 0h-1.25v3.75H360V5h4.99v3.75h1.25V5h5.01V3.75h-5.01V0Z" clip-rule="evenodd"/><path fill="#F7FCFF" d="M364.99 0v-.938h-.937V0h.937Zm1.25 0h.938v-.938h-.938V0Zm-1.25 3.75v.938h.938V3.75h-.938Zm-4.99 0v-.938h-.938v.938H360ZM360 5h-.938v.938H360V5Zm4.99 0h.938v-.938h-.938V5Zm0 3.75h-.937v.938h.937V8.75Zm1.25 0v.938h.938V8.75h-.938Zm0-3.75v-.938h-.937V5h.937Zm5.01 0v.938h.938V5h-.938Zm0-1.25h.938v-.938h-.938v.938Zm-5.01 0h-.937v.938h.937V3.75ZM364.99.937h1.25V-.938h-1.25V.938Zm.938 2.813V0h-1.875v3.75h1.875ZM360 4.688h4.99V2.813H360v1.874Zm.938.312V3.75h-1.876V5h1.876Zm4.052-.938H360v1.875h4.99V4.063Zm.938 4.688V5h-1.875v3.75h1.875Zm.312-.938h-1.25v1.875h1.25V7.813ZM365.303 5v3.75h1.875V5h-1.875Zm5.947-.938h-5.01v1.875h5.01V4.063Zm-.938-.312V5h1.876V3.75h-1.876Zm-4.072.938h5.01V2.813h-5.01v1.874ZM365.303 0v3.75h1.875V0h-1.875Z" mask="url(#s)"/></g></g></g><g clip-path="url(#t)"><mask id="u" width="20" height="15" x="420" y="0" maskUnits="userSpaceOnUse" style="mask-type:luminance"><path fill="#fff" d="M420 0h20v15h-20z"/></mask><g mask="url(#u)"><path fill="#58A5FF" fill-rule="evenodd" d="M434 0h6v15h-6V0Zm-14 0h6v15h-6V0Z" clip-rule="evenodd"/><path fill="#fff" fill-rule="evenodd" d="M426 0h8v15h-8V0Z" clip-rule="evenodd"/><path fill="#C6C6C6" d="m427.978 10.648-.454-.429 4.804-5.08.454.43-4.804 5.08Z"/><path fill="#5AB92D" fill-rule="evenodd" d="M428.115 5.066s-1.538.928-1.538 3.255 3.745 2.642 3.745 2.642-2.241-1.367-2.534-2.345c-.293-.979.327-3.552.327-3.552Z" clip-rule="evenodd"/><path fill="#5AB92D" fill-rule="evenodd" d="M431.909 5.066s1.538.928 1.538 3.255-3.745 2.642-3.745 2.642 2.355-1.35 2.685-2.642c.33-1.291-.478-3.255-.478-3.255Z" clip-rule="evenodd"/><path fill="#5AB92D" d="m429.255 4.75.622.056c-.02.226.103.455.407.702.981.793 1.508 1.782 1.095 2.906-.3.815-.707 1.504-1.222 2.063l-.46-.423c.458-.497.823-1.114 1.095-1.856.297-.807-.105-1.56-.901-2.204-.453-.367-.678-.786-.636-1.244Z"/><path fill="#EFE298" fill-rule="evenodd" d="m428.859 6.13.655 1.854h-.482s-.173.585.155.585h2.017s.22-.146.11-.585c-.11-.438-.665-1.648-.665-1.648s.237-.2.237-.35c0-.149-.237-.165-.237-.165h-1.497c-.191.033-.293.31-.293.31Z" clip-rule="evenodd"/></g></g><g clip-path="url(#v)"><mask id="w" width="20" height="15" x="480" y="0" maskUnits="userSpaceOnUse" style="mask-type:luminance"><path fill="#fff" d="M480 0h20v15h-20z"/></mask><g mask="url(#w)"><path fill="#C51918" fill-rule="evenodd" d="M480 0h20v15h-20V0Z" clip-rule="evenodd"/><path fill="#4564F9" fill-rule="evenodd" d="M482 2h16v11h-16V2Z" clip-rule="evenodd"/><path stroke="#CBDAFF" stroke-opacity=".12" stroke-width="1.25" d="M482.625 2.625h14.75v9.75h-14.75v-9.75Z"/><mask id="x" width="16" height="11" x="482" y="2" maskUnits="userSpaceOnUse" style="mask-type:luminance"><path fill="#fff" fill-rule="evenodd" d="M482 2h16v11h-16V2Z" clip-rule="evenodd"/><path stroke="#fff" stroke-width="1.25" d="M482.625 2.625h14.75v9.75h-14.75v-9.75Z"/></mask><g mask="url(#x)"><path fill="#CCE0E5" stroke="#6D87FB" stroke-width="1.813" d="m490.25 3 .406-.81-.415-.208-.412.215.421.803Zm0 0 .407-.81.002.001.004.002.011.006.036.019c.03.016.072.038.123.067a9.112 9.112 0 0 1 1.655 1.201c.886.814 1.918 2.124 1.918 3.855 0 1.715-1.016 3.1-1.885 3.982a10.419 10.419 0 0 1-1.753 1.422l-.035.022-.011.007-.004.002h-.001l-.001.001-.466-.777m0-9c-.421-.803-.421-.802-.422-.802h-.002l-.003.003-.012.006-.035.02-.122.068a9.58 9.58 0 0 0-1.646 1.223c-.877.816-1.914 2.126-1.914 3.823 0 1.68 1.02 3.065 1.881 3.95a10.959 10.959 0 0 0 1.745 1.446l.035.022.01.007.004.002h.001l.001.001.479-.769m0 0 .466.777-.475.285-.47-.293.479-.769Z" opacity=".4"/><path fill="#CCE0E5" d="m490.25 3.773.429-.798-.439-.236-.434.244.444.79Zm0 0 .43-.798.002.001.003.002.01.005.03.017a5.729 5.729 0 0 1 .429.27c.266.184.622.455.982.809.702.692 1.52 1.807 1.52 3.276 0 1.454-.804 2.627-1.488 3.374a8.385 8.385 0 0 1-1.288 1.136l-.096.067-.029.02-.01.005-.003.002-.001.001h-.001l-.49-.762m0-7.425-.445-.79h-.001l-.001.002-.003.002-.01.005-.03.017a6.985 6.985 0 0 0-.424.278 7.66 7.66 0 0 0-.976.82c-.694.692-1.516 1.806-1.516 3.248 0 1.426.808 2.6 1.485 3.346a8.84 8.84 0 0 0 1.279 1.154l.096.068.028.02.009.006.004.002h.001v.001l.504-.754m0 0 .49.763-.5.32-.493-.329.503-.754Z"/><path stroke="#C1C9F1" stroke-opacity=".748" stroke-width="1.813" d="m490.25 3.773.429-.798-.439-.236-.434.244.444.79Zm0 0 .43-.798.002.001.003.002.01.005.03.017a5.729 5.729 0 0 1 .429.27c.266.184.622.455.982.809.702.692 1.52 1.807 1.52 3.276 0 1.454-.804 2.627-1.488 3.374a8.385 8.385 0 0 1-1.288 1.136l-.096.067-.029.02-.01.005-.003.002-.001.001h-.001l-.49-.762m0-7.425-.445-.79h-.001l-.001.002-.003.002-.01.005-.03.017a6.985 6.985 0 0 0-.424.278 7.66 7.66 0 0 0-.976.82c-.694.692-1.516 1.806-1.516 3.248 0 1.426.808 2.6 1.485 3.346a8.84 8.84 0 0 0 1.279 1.154l.096.068.028.02.009.006.004.002h.001v.001l.504-.754m0 0 .49.763-.5.32-.493-.329.503-.754Z"/><path stroke="#C51918" stroke-width="1.813" d="m490.25 3.773.429-.798-.439-.236-.434.244.444.79Zm0 0 .43-.798.002.001.003.002.01.005.03.017a5.729 5.729 0 0 1 .429.27c.266.184.622.455.982.809.702.692 1.52 1.807 1.52 3.276 0 1.454-.804 2.627-1.488 3.374a8.385 8.385 0 0 1-1.288 1.136l-.096.067-.029.02-.01.005-.003.002-.001.001h-.001l-.49-.762m0-7.425-.445-.79h-.001l-.001.002-.003.002-.01.005-.03.017a6.985 6.985 0 0 0-.424.278 7.66 7.66 0 0 0-.976.82c-.694.692-1.516 1.806-1.516 3.248 0 1.426.808 2.6 1.485 3.346a8.84 8.84 0 0 0 1.279 1.154l.096.068.028.02.009.006.004.002h.001v.001l.504-.754m0 0 .49.763-.5.32-.493-.329.503-.754Z"/><mask id="y" width="6" height="9" x="487" y="3" maskUnits="userSpaceOnUse" style="mask-type:luminance"><path fill="#fff" d="M490.832 9.503c-.199.218-.4.404-.575.552a7.026 7.026 0 0 1-.586-.572c-.573-.631-1.015-1.38-1.015-2.128 0-.734.428-1.41.984-1.965.216-.216.434-.395.618-.533.181.132.394.305.606.513.548.54.98 1.216.98 1.985 0 .783-.446 1.532-1.012 2.148Z"/><path stroke="#fff" stroke-width="1.813" d="M490.832 9.503c-.199.218-.4.404-.575.552a7.026 7.026 0 0 1-.586-.572c-.573-.631-1.015-1.38-1.015-2.128 0-.734.428-1.41.984-1.965.216-.216.434-.395.618-.533.181.132.394.305.606.513.548.54.98 1.216.98 1.985 0 .783-.446 1.532-1.012 2.148Z"/></mask><g mask="url(#y)"><path fill="#91CBCB" d="M488.083 8.75h4.667v.938h-4.667z"/><path fill="#FDF9A1" fill-rule="evenodd" d="M488.501 9.499s3.309 0 3.613-.113c.304-.114-.571 2.192-1.689 2.192s-1.924-2.08-1.924-2.08Z" clip-rule="evenodd"/><path fill="#A68861" d="m491.621 9.222-.594.457c-.937-1.217-1.33-2.477-1.162-3.762l.743.097c-.14 1.077.192 2.14 1.013 3.208Z"/><path fill="#239E46" fill-rule="evenodd" d="m490.246 6.023-.567.664c-.021.025-.062.005-.054-.027l.195-.829h-.887c-.034 0-.044-.046-.013-.06l.758-.332-.538-.709c-.019-.025.007-.06.036-.048l.846.33.193-.777a.031.031 0 0 1 .061 0l.192.777.839-.327a.032.032 0 0 1 .035.05l-.581.704.802.332c.032.013.022.06-.012.06h-.79l.121.848c.004.031-.035.049-.055.025l-.581-.681Zm-.496 2.102h3v.656h-3v-.656Z" clip-rule="evenodd"/><path fill="#C51918" fill-rule="evenodd" d="M489.295 7.745h-.003a.14.14 0 0 1-.063.08.244.244 0 0 1-.131.033.287.287 0 0 1-.117-.024.244.244 0 0 1-.092-.067.323.323 0 0 1-.059-.112.477.477 0 0 1-.022-.153c0-.057.007-.108.021-.152a.309.309 0 0 1 .06-.111.255.255 0 0 1 .094-.069.306.306 0 0 1 .122-.023.28.28 0 0 1 .157.041.279.279 0 0 1 .097.11l-.069.04a.198.198 0 0 0-.071-.086.203.203 0 0 0-.114-.031.21.21 0 0 0-.084.016.197.197 0 0 0-.108.117.27.27 0 0 0-.015.092v.111c0 .034.005.065.015.093a.196.196 0 0 0 .11.117.252.252 0 0 0 .159.007.184.184 0 0 0 .057-.028.13.13 0 0 0 .038-.046.152.152 0 0 0 .014-.067v-.068h-.154v-.073h.236v.354h-.078v-.1Zm.522-.586v.425c0 .066.012.115.037.15.025.033.068.05.13.05s.105-.017.13-.05a.249.249 0 0 0 .037-.15v-.425h.084v.405c0 .05-.004.093-.013.13a.227.227 0 0 1-.044.092.179.179 0 0 1-.078.054.352.352 0 0 1-.119.018.332.332 0 0 1-.117-.018.17.17 0 0 1-.077-.054.224.224 0 0 1-.041-.092.553.553 0 0 1-.013-.13V7.16h.084Zm1.223.687-.07-.203h-.282l-.07.203h-.085l.244-.687h.107l.244.687h-.088Zm-.209-.61h-.005l-.118.334h.241l-.118-.335Zm1.157.03h-.005l-.059.116-.167.3-.167-.3-.059-.115h-.005v.579h-.082v-.687h.112l.2.37h.005l.201-.37h.108v.687h-.082v-.58Z" clip-rule="evenodd"/></g></g></g></g><g clip-path="url(#z)"><mask id="A" width="20" height="15" x="540" y="0" maskUnits="userSpaceOnUse" style="mask-type:luminance"><path fill="#fff" d="M540 0h20v15h-20z"/></mask><g fill-rule="evenodd" clip-rule="evenodd" mask="url(#A)"><path fill="#FBCD17" d="M550 0h10v7.5h-10V0Z"/><path fill="#0B9E7A" d="M550 7.5h10V15h-10V7.5Z"/><path fill="#E11C1B" d="M540 0h10v15h-10V0Z"/><path fill="#1D1D1D" d="m545.582 9.129-2.179 1.511.696-2.588-1.599-1.653 2.165-.09.917-2.559.916 2.56h2.162l-1.596 1.742.799 2.435-2.281-1.358Z"/></g></g><g clip-path="url(#B)"><mask id="C" width="20" height="15" x="600" y="0" maskUnits="userSpaceOnUse" style="mask-type:luminance"><path fill="#fff" d="M600 0h20v15h-20z"/></mask><g mask="url(#C)"><path fill="#5EAA22" fill-rule="evenodd" d="M600 0h20v15h-20V0Z" clip-rule="evenodd"/><path fill="#FECA00" stroke="#F7FCFF" stroke-width="1.25" d="M600.625 14.117V.883L619.372 7.5l-18.747 6.617Z"/><path fill="#E11C1B" stroke="#272727" stroke-width="1.25" d="M599.375 14.972V.028l9.607 7.472-9.607 7.472Z"/></g></g><g clip-path="url(#D)"><mask id="E" width="20" height="15" x="660" y="0" maskUnits="userSpaceOnUse" style="mask-type:luminance"><path fill="#fff" d="M660 0h20v15h-20z"/></mask><g mask="url(#E)"><path fill="#EA1A1A" fill-rule="evenodd" d="M660 0v15h20V0h-20Z" clip-rule="evenodd"/><mask id="F" width="20" height="15" x="660" y="0" maskUnits="userSpaceOnUse" style="mask-type:luminance"><path fill="#fff" fill-rule="evenodd" d="M660 0v15h20V0h-20Z" clip-rule="evenodd"/></mask><g mask="url(#F)"><g filter="url(#G)"><path fill="#fff" fill-rule="evenodd" d="M669.919 7.234s-3.619-3.227.699-5.107c0 0 1.256 1.385.314 2.94-.309.51-.57.875-.766 1.149-.401.56-.531.741-.247 1.018Zm-5.341-2.317c-.248 4.703 4.256 2.91 4.256 2.91-.374.129-.478-.068-.8-.677-.158-.298-.367-.694-.685-1.199-.97-1.538-2.771-1.034-2.771-1.034Zm6.821 2.475s4.645 1.39 1.53 4.923c0 0-1.725-.723-1.53-2.531.064-.593.146-1.033.207-1.364.126-.678.167-.897-.207-1.028Zm-1.221 1.084s.833 4.776-3.719 3.57c0 0-.124-1.866 1.58-2.5.559-.209.989-.332 1.313-.425.662-.19.876-.252.826-.645Zm5.746-2.054c-2.847-3.751-5.128.527-5.128.527.202-.34.409-.257 1.048 0 .312.126.728.293 1.297.473 1.734.548 2.783-1 2.783-1Z" clip-rule="evenodd"/></g><path stroke="#EA1A1A" stroke-width=".625" d="M666.351 6.38s.91 1.432 2.4 1.432m1.162-3.406s-.817 1.507-.117 2.822m4.023-1.127s-1.907-.289-2.904.818m1.79 2.671s-.38-1.89-1.762-2.448m-2.235 3.475s1.646-1.004 1.698-2.493"/></g></g></g><g clip-path="url(#H)"><mask id="I" width="20" height="15" x="720" y="0" maskUnits="userSpaceOnUse" style="mask-type:luminance"><path fill="#fff" d="M720 0h20v15h-20z"/></mask><g mask="url(#I)"><path fill="#2E42A5" fill-rule="evenodd" d="M720 0h20v15h-20V0Z" clip-rule="evenodd"/><path fill="#2E42A5" d="M720 0h11v9h-11z"/><mask id="J" width="11" height="9" x="720" y="0" maskUnits="userSpaceOnUse" style="mask-type:luminance"><path fill="#fff" d="M720 0h11v9h-11z"/></mask><g mask="url(#J)"><path fill="#F7FCFF" d="m718.747 8.125 2.476 1.086 10.083-8.03 1.306-1.614-2.647-.363-4.113 3.46-3.31 2.332-3.795 3.129Z"/><path fill="#F50100" d="m719.086 8.886 1.261.63L732.143-.583h-1.771l-11.286 9.469Z"/><path fill="#F7FCFF" d="m732.503 8.125-2.197 1.396-10.362-8.34-1.306-1.614 2.647-.363 4.113 3.46 3.31 2.332 3.795 3.129Z"/><path fill="#F50100" d="m732.418 8.67-1.261.63-5.023-4.323-1.489-.483-6.133-4.921h1.771l6.13 4.804 1.628.58 4.377 3.714Z"/><mask id="K" width="13" height="11" x="719" y="-1" fill="#000" maskUnits="userSpaceOnUse"><path fill="#fff" d="M719-1h13v11h-13z"/><path fill-rule="evenodd" d="M726 0h-1v4h-5v1h5v4h1V5h5V4h-5V0Z" clip-rule="evenodd"/></mask><path fill="#F50100" fill-rule="evenodd" d="M726 0h-1v4h-5v1h5v4h1V5h5V4h-5V0Z" clip-rule="evenodd"/><path fill="#F7FCFF" d="M725 0v-.938h-.938V0H725Zm1 0h.938v-.938H726V0Zm-1 4v.938h.938V4H725Zm-5 0v-.938h-.938V4H720Zm0 1h-.938v.938H720V5Zm5 0h.938v-.938H725V5Zm0 4h-.938v.938H725V9Zm1 0v.938h.938V9H726Zm0-4v-.938h-.938V5H726Zm5 0v.938h.938V5H731Zm0-1h.938v-.938H731V4Zm-5 0h-.938v.938H726V4Zm-1-3.063h1V-.938h-1V.938ZM725.938 4V0h-1.876v4h1.876ZM720 4.938h5V3.063h-5v1.874Zm.938.062V4h-1.876v1h1.876ZM725 4.062h-5v1.875h5V4.063ZM725.938 9V5h-1.876v4h1.876Zm.062-.938h-1v1.876h1V8.062ZM725.062 5v4h1.876V5h-1.876ZM731 4.062h-5v1.875h5V4.063ZM730.062 4v1h1.876V4h-1.876ZM726 4.938h5V3.063h-5v1.874ZM725.062 0v4h1.876V0h-1.876Z" mask="url(#K)"/></g></g><g fill="#F7FCFF" clip-path="url(#L)"><path d="m725.92 12.278-.82.758.081-1.113-1.104-.17.922-.63-.557-.968 1.068.327.41-1.039.41 1.039 1.068-.327-.557.968.922.63-1.104.17.081 1.113-.82-.758Zm7.32-3.981-.547.505.054-.743-.735-.112.614-.42-.371-.646.712.218.273-.692.273.692.712-.218-.371.645.614.421-.735.112.054.743-.547-.505Zm1.28-5.334-.547.506.054-.743-.735-.112.614-.42-.371-.646.712.218.273-.693.273.693.712-.218-.371.645.614.42-.735.113.054.743-.547-.506Zm3.2 2.667-.547.505.054-.742-.735-.113.614-.42-.371-.646.712.218.273-.692.273.692.712-.218-.371.646.614.42-.735.113.054.742-.547-.505Zm-2.56 7.667-.547.505.054-.743-.736-.112.615-.42-.371-.646.712.218.273-.692.273.692.712-.218-.371.645.614.421-.736.112.055.743-.547-.505Zm2.24-4.157-.555.291.106-.618-.45-.438.621-.09.278-.563.278.562.621.09-.45.439.107.618-.556-.292Z"/></g></g><g clip-path="url(#M)"><mask id="N" width="20" height="15" x="780" y="0" maskUnits="userSpaceOnUse" style="mask-type:luminance"><path fill="#fff" d="M780 0h20v15h-20z"/></mask><g mask="url(#N)"><path fill="#F7FCFF" fill-rule="evenodd" d="M780 0v15h20V0h-20Z" clip-rule="evenodd"/><mask id="O" width="20" height="15" x="780" y="0" maskUnits="userSpaceOnUse" style="mask-type:luminance"><path fill="#fff" fill-rule="evenodd" d="M780 0v15h20V0h-20Z" clip-rule="evenodd"/></mask><g fill="#4564F9" fill-rule="evenodd" clip-rule="evenodd" mask="url(#O)"><path d="M780 0v5h20V0h-20Zm0 10v5h20v-5h-20Zm10.511-1.793-.734.387.14-.818-.594-.64h.821l.367-.804.368.804h.821l-.594.64.14.818-.735-.387Zm-3.75-1.25-.734.387.14-.818-.594-.64h.821l.367-.804.368.804h.821l-.594.64.14.818-.735-.387Zm0 2.5-.734.387.14-.818-.594-.64h.821l.367-.804.368.804h.821l-.594.64.14.818-.735-.387Zm7.5-2.5-.734.387.14-.818-.594-.64h.821l.367-.804.368.804h.821l-.594.64.14.818-.735-.387Zm0 2.5-.734.387.14-.818-.594-.64h.821l.367-.804.368.804h.821l-.594.64.14.818-.735-.387Z"/></g></g></g><g clip-path="url(#P)"><mask id="Q" width="20" height="15" x="840" y="0" maskUnits="userSpaceOnUse" style="mask-type:luminance"><path fill="#fff" d="M840 0h20v15h-20z"/></mask><g mask="url(#Q)"><path fill="#F7FCFF" fill-rule="evenodd" d="M840 0v15h20V0h-20Z" clip-rule="evenodd"/><mask id="R" width="20" height="15" x="840" y="0" maskUnits="userSpaceOnUse" style="mask-type:luminance"><path fill="#fff" fill-rule="evenodd" d="M840 0v15h20V0h-20Z" clip-rule="evenodd"/></mask><g mask="url(#R)"><path fill="#E31D1C" fill-rule="evenodd" d="M840 0v5h20V0h-20Z" clip-rule="evenodd"/><path fill="#3D58DB" fill-rule="evenodd" d="M840 10v5h20v-5h-20Z" clip-rule="evenodd"/><path fill="#E31D1C" d="M846.298 3.998h7.125v2.5h-7.125z"/><path fill="#F7FCFF" stroke="#E31D1C" stroke-width=".703" d="M846.658 5.6h6.33c.011.48.014 1.319.014 2.126 0 .521-.002 1.023-.003 1.395l-.002.445-.001.124v.019c-.003.017-.007.043-.015.078a3.392 3.392 0 0 1-.509 1.188c-.434.633-1.222 1.285-2.691 1.285-1.467 0-2.217-.651-2.616-1.279a3.21 3.21 0 0 1-.45-1.184l-.011-.077-.002-.011v-.028l-.001-.122-.006-.443-.016-1.388c-.009-.794-.018-1.632-.021-2.128Zm.043 4.1c0-.001 0-.001 0 0Z"/><mask id="S" width="8" height="8" x="846" y="5" maskUnits="userSpaceOnUse" style="mask-type:luminance"><path fill="#fff" stroke="#fff" stroke-width=".703" d="M846.658 5.6h6.33c.011.48.014 1.319.014 2.126 0 .521-.002 1.023-.003 1.395l-.002.445-.001.124v.019c-.003.017-.007.043-.015.078a3.392 3.392 0 0 1-.509 1.188c-.434.633-1.222 1.285-2.691 1.285-1.467 0-2.217-.651-2.616-1.279a3.21 3.21 0 0 1-.45-1.184l-.011-.077-.002-.011v-.028l-.001-.122-.006-.443-.016-1.388c-.009-.794-.018-1.632-.021-2.128Zm.043 4.1c0-.001 0-.001 0 0Z"/></mask><g mask="url(#S)"><path fill="#F50100" fill-rule="evenodd" d="M846.562 5.65h1.318v1.339h-1.318V5.65Zm2.636 1.339h-1.318v1.338h-1.318v1.34h1.318v1.338h-1.318v1.338h1.318v-1.338h1.318v1.338h1.319v-1.338h1.318v1.338h1.318v-1.338h-1.318V9.666h1.318V8.327h-1.318V6.99h1.318V5.65h-1.318v1.339h-1.318V5.65h-1.319v1.339Zm0 1.338V6.99h1.319v1.338h-1.319Zm0 1.34v-1.34h-1.318v1.34h1.318Zm1.319 0v1.338h-1.319V9.666h1.319Zm0 0v-1.34h1.318v1.34h-1.318Z" clip-rule="evenodd"/></g><path fill="#56C6F5" fill-rule="evenodd" stroke="#fff" stroke-width=".5" d="M846.533 5.102s.408-.218.756-.33c.348-.113.622-.174.622-.174l-.517-1.908-1.036-.387-.587.968.762 1.83Z" clip-rule="evenodd"/><path fill="#fff" d="m846.363 4.057.119-.058c.123.263.285.345.508.262.227-.085.319-.245.287-.5l.13-.016c.041.315-.086.535-.372.641-.29.109-.521-.007-.672-.33Z"/><path fill="#FECA00" fill-rule="evenodd" d="m846.645 3.464-.114.069c-.025.015-.056-.007-.051-.036l.026-.13-.116-.065a.034.034 0 0 1 .005-.061l.126-.043-.003-.133c0-.03.034-.046.057-.027l.1.088.114-.069a.033.033 0 0 1 .05.036l-.026.13.117.064a.034.034 0 0 1-.005.062l-.126.043.002.133a.034.034 0 0 1-.056.026l-.1-.087Z" clip-rule="evenodd"/><path fill="#56C6F5" fill-rule="evenodd" stroke="#fff" stroke-width=".5" d="M849.088 4.422s.348-.03.713-.024c.366.008.675.01.675.01l.178-1.88-.783-.708-.87.724.087 1.878Z" clip-rule="evenodd"/><path fill="#FECA00" fill-rule="evenodd" d="M849.844 4.116c.301 0 .33-.326.33-.548-.077-.123-.061-.21-.308-.21s-.276.074-.348.21c0 .222.025.548.326.548Zm.339-.92c.302 0 .33-.326.33-.548-.077-.123-.061-.21-.308-.21s-.275.074-.348.21c0 .222.025.548.326.548Zm-.659 0c.301 0 .33-.326.33-.548-.077-.123-.061-.21-.308-.21s-.276.074-.348.21c0 .222.024.548.326.548Z" clip-rule="evenodd"/><path fill="#2E42A5" stroke="#fff" stroke-width=".5" d="m847.643 4.627.072.244.243-.077h.004l.012-.005.047-.014c.041-.012.097-.029.16-.046.13-.036.278-.072.383-.087a5.608 5.608 0 0 1 .514-.043l.042-.002h.015l.261-.012-.022-.26-.158-1.828-.01-.115-.094-.067-.852-.605-.175-.125-.15.155-.774.803-.101.104.041.14.542 1.84Z"/><mask id="T" width="4" height="5" x="846" y="1" maskUnits="userSpaceOnUse" style="mask-type:luminance"><path fill="#fff" stroke="#fff" stroke-width=".5" d="m847.643 4.627.072.244.243-.077h.004l.012-.005.047-.014c.041-.012.097-.029.16-.046.13-.036.278-.072.383-.087a5.608 5.608 0 0 1 .514-.043l.042-.002h.015l.261-.012-.022-.26-.158-1.828-.01-.115-.094-.067-.852-.605-.175-.125-.15.155-.774.803-.101.104.041.14.542 1.84Z"/></mask><g fill="#C51918" mask="url(#T)"><path d="m847.773 4.149-.157-.37c.336-.146.904-.237 1.502-.272l.023.401c-.555.033-1.081.115-1.368.24Zm-.265-.892-.156-.37c.336-.146 1.059-.266 1.657-.3l.023.4c-.556.033-1.237.144-1.524.27Z"/></g><path fill="#2E42A5" stroke="#fff" stroke-width=".5" d="m851.988 4.621-.068.252-.248-.079h-.004l-.013-.005-.047-.014a7.278 7.278 0 0 0-.159-.046 3.442 3.442 0 0 0-.383-.087 5.575 5.575 0 0 0-.515-.043l-.042-.002h-.014l-.261-.012.022-.26.158-1.828.01-.115.094-.067.852-.605.18-.128.149.163.73.8.092.1-.035.133-.498 1.843Z"/><mask id="U" width="4" height="5" x="849" y="1" maskUnits="userSpaceOnUse" style="mask-type:luminance"><path fill="#fff" stroke="#fff" stroke-width=".5" d="m851.988 4.621-.068.252-.248-.079h-.004l-.013-.005-.047-.014a7.278 7.278 0 0 0-.159-.046 3.442 3.442 0 0 0-.383-.087 5.575 5.575 0 0 0-.515-.043l-.042-.002h-.014l-.261-.012.022-.26.158-1.828.01-.115.094-.067.852-.605.18-.128.149.163.73.8.092.1-.035.133-.498 1.843Z"/></mask><g fill-rule="evenodd" clip-rule="evenodd" mask="url(#U)"><path fill="#FECA00" d="M851.499 4.042s.183-.103.21-.275c.026-.173.31-.385.168-.36-.142.026-.061.045-.266 0-.206-.045-.472-.074-.472-.2 0-.127.132-.228.024-.228-.108 0-.339-.12-.293-.028.046.091-.107-.012-.03.178.076.19-.016.381.03.432.046.05-.03.297-.03.297s.028.092.077-.046c.049-.137.157-.233.103-.116-.054.116-.122.394-.061.346a.436.436 0 0 0 .122-.23c0-.045.154-.224.154-.089s-.145.241-.072.241c.072 0 .113.029.159-.106s.156-.224.202-.135c.045.09.035.085-.025.202-.061.117 0 .117 0 .117Z"/><path fill="#C51918" d="m851.067 3.042-.068-.115c.122-.076.235-.096.334-.054.045.02.079.041.167.104l.012.008c.092.064.141.09.171.09v.134c-.069 0-.128-.032-.246-.114l-.012-.008a.8.8 0 0 0-.143-.09c-.055-.023-.125-.01-.215.045Zm-.216.873a.07.07 0 0 0 .07-.07.07.07 0 0 0-.07-.07.07.07 0 0 0-.071.07c0 .039.032.07.071.07Zm.202.064a.07.07 0 0 1-.071.07.07.07 0 0 1-.07-.07.07.07 0 0 1 .07-.07.07.07 0 0 1 .071.07Zm.166.064a.07.07 0 0 0 .071-.07.07.07 0 0 0-.071-.069.07.07 0 1 0 0 .14Zm.291.042a.07.07 0 0 1-.07.07.07.07 0 0 1-.071-.07.07.07 0 0 1 .071-.07.07.07 0 0 1 .07.07Z"/></g><path fill="#56C6F5" stroke="#fff" stroke-width=".5" d="m853.431 5.154-.108.248-.239-.127h-.001l-.003-.002-.012-.007-.048-.025a6.885 6.885 0 0 0-.172-.084 4.36 4.36 0 0 0-.478-.195 8.14 8.14 0 0 0-.429-.125l-.127-.032-.034-.008-.009-.002h-.002l-.258-.058.072-.255.529-1.86.034-.121.119-.045 1.036-.387.194-.072.108.177.587.967.067.11-.052.12-.774 1.783Z"/><mask id="V" width="4" height="5" x="851" y="1" maskUnits="userSpaceOnUse" style="mask-type:luminance"><path fill="#fff" stroke="#fff" stroke-width=".5" d="m853.431 5.154-.108.248-.239-.127h-.001l-.003-.002-.012-.007-.048-.025a6.885 6.885 0 0 0-.172-.084 4.36 4.36 0 0 0-.478-.195 8.14 8.14 0 0 0-.429-.125l-.127-.032-.034-.008-.009-.002h-.002l-.258-.058.072-.255.529-1.86.034-.121.119-.045 1.036-.387.194-.072.108.177.587.967.067.11-.052.12-.774 1.783Z"/></mask><g mask="url(#V)"><path fill="#FECA00" fill-rule="evenodd" d="m853.205 3.18-.089.1a.034.034 0 0 1-.059-.02l-.014-.132-.13-.027a.034.034 0 0 1-.013-.06l.108-.078-.041-.127c-.01-.028.019-.053.046-.041l.121.054.089-.099c.019-.022.056-.01.059.02l.013.132.131.027a.033.033 0 0 1 .012.06l-.107.078.041.127a.034.034 0 0 1-.046.041l-.121-.054Z" clip-rule="evenodd"/><path fill="#E31D1C" d="m851.872 4.055.133-.518c.588.155 1.201.354 1.65.546l-.204.494a12.27 12.27 0 0 0-1.579-.522Z"/><path fill="#fff" d="m852.052 3.576.031-.13c.564.14 1.163.363 1.599.571l-.057.121a8.81 8.81 0 0 0-1.573-.562Zm-.167.534.031-.13a8.09 8.09 0 0 1 1.52.538l-.056.121a7.965 7.965 0 0 0-1.495-.529Z"/><path fill="#272727" d="m852.139 3.86.121-.055c.051.119.114.145.219.094.247-.12.862.048.862.275 0 .088-.051.142-.129.139a.408.408 0 0 1-.161-.054l-.028-.013a.834.834 0 0 0-.102-.05l.043-.128c.029.01.033.013.118.056l.026.013a.34.34 0 0 0 .109.04c.002 0-.008.01-.008-.003 0-.1-.5-.237-.674-.152-.174.084-.316.025-.396-.163Z"/></g></g></g></g><g clip-path="url(#W)"><mask id="X" width="20" height="15" x="900" y="0" maskUnits="userSpaceOnUse" style="mask-type:luminance"><path fill="#fff" d="M900 0h20v15h-20z"/></mask><g mask="url(#X)"><path fill="#2E42A5" fill-rule="evenodd" d="M900 0v15h20V0h-20Z" clip-rule="evenodd"/><mask id="Y" width="20" height="15" x="900" y="0" maskUnits="userSpaceOnUse" style="mask-type:luminance"><path fill="#fff" fill-rule="evenodd" d="M900 0v15h20V0h-20Z" clip-rule="evenodd"/></mask><g mask="url(#Y)"><path fill="#E31D1C" fill-rule="evenodd" d="M900 7.5V15h20V7.5h-20Z" clip-rule="evenodd"/><path fill="#fff" d="M906.25 5h7.5v5h-7.5z"/><mask id="Z" width="8" height="5" x="906" y="5" maskUnits="userSpaceOnUse" style="mask-type:luminance"><path fill="#fff" d="M906.25 5h7.5v5h-7.5z"/></mask><g mask="url(#Z)"><path fill="#279E19" fill-rule="evenodd" d="M906.25 9.111s1.8-.473 3.75-.444c1.95.029 3.75.555 3.75.555V10h-7.5v-.889Z" clip-rule="evenodd"/><path stroke="#026A16" stroke-width=".5" d="M910.046 5.563s-.582-.262-.988-.262-.632.4-.632.4"/><path stroke="#026A16" stroke-width=".5" d="M910.175 5.826s-.535-.191-.909-.191-.581.292-.581.292"/><path stroke="#026A16" stroke-width=".5" d="M910.175 6.048s-.396-.191-.672-.191c-.277 0-.43.292-.43.292"/><path stroke="#026A16" stroke-width=".5" d="M910.013 6.27s-.245-.191-.416-.191c-.171 0-.266.292-.266.292"/><path stroke="#026A16" stroke-width=".5" d="M909.992 6.422s-.098-.12-.167-.12c-.068 0-.106.184-.106.184m.235-.923s.582-.262.988-.262.632.4.632.4"/><path stroke="#026A16" stroke-width=".5" d="M909.825 5.826s.535-.191.909-.191.581.292.581.292"/><path stroke="#026A16" stroke-width=".5" d="M909.825 6.048s.396-.191.672-.191c.277 0 .43.292.43.292"/><path stroke="#026A16" stroke-width=".5" d="M909.987 6.27s.245-.191.416-.191c.171 0 .266.292.266.292"/><path stroke="#026A16" stroke-width=".5" d="M910.008 6.422s.098-.12.167-.12c.068 0 .106.184.106.184"/><path fill="#FECA00" fill-rule="evenodd" d="M909.93 6.499s-.072.836-.072 1.176c0 .34.072 1.074.072 1.074h.183V7.675c0-.284-.107-1.176-.107-1.176h-.076Z" clip-rule="evenodd"/><path fill="#C51918" fill-rule="evenodd" d="M909.208 7.45s-.453.241-.453.959l.453.866h.816V7.848l-.816-.399Z" clip-rule="evenodd"/><path fill="#0A328C" fill-rule="evenodd" d="M908.537 6.766s-1.057.313-1.057 1.468l1.369.117s-.075-.671.347-.981l-.659-.604Z" clip-rule="evenodd"/><path stroke="#FFD018" stroke-width=".5" d="m908.101 6.326 1.812 1.66m-2.442-1.284 2.528 1.642m-2.963-1.007 2.849 1.303"/><path fill="#FECA00" fill-rule="evenodd" d="m907.487 8.225 1.891.212-.106.263h-.3l.204.15.461.107V8.7h.403v.546h-.864l-.331-.396s-.278.274-.55.274c-.271 0-.539-.09-.539-.388v-.208l-.269-.091v-.212Z" clip-rule="evenodd"/><path fill="#C51918" fill-rule="evenodd" d="M910.534 7.45s.452.241.452.959l-.452.866h-.817V7.848l.817-.399Z" clip-rule="evenodd"/><path fill="#0A328C" fill-rule="evenodd" d="M911.204 6.766s1.057.313 1.057 1.468l-1.369.117s.075-.671-.346-.981l.658-.604Z" clip-rule="evenodd"/><path stroke="#FFD018" stroke-width=".5" d="m911.641 6.326-1.813 1.66m2.442-1.284-2.528 1.642m2.964-1.007-2.85 1.303"/><path fill="#FECA00" fill-rule="evenodd" d="m912.254 8.225-1.891.212.106.263h.3l-.204.15-.46.107V8.7h-.404v.546h.864l.331-.396s.278.274.55.274c.271 0 .539-.09.539-.388v-.208l.269-.091v-.212Z" clip-rule="evenodd"/></g></g></g></g><g clip-path="url(#aa)"><mask id="ab" width="20" height="15" x="960" y="0" maskUnits="userSpaceOnUse" style="mask-type:luminance"><path fill="#fff" d="M960 0h20v15h-20z"/></mask><g mask="url(#ab)"><path fill="#F7FCFF" fill-rule="evenodd" d="M960 0v15h20V0h-20Z" clip-rule="evenodd"/><mask id="ac" width="20" height="15" x="960" y="0" maskUnits="userSpaceOnUse" style="mask-type:luminance"><path fill="#fff" fill-rule="evenodd" d="M960 0v15h20V0h-20Z" clip-rule="evenodd"/></mask><g fill-rule="evenodd" clip-rule="evenodd" mask="url(#ac)"><path fill="#F14423" d="M960 0v5h20V0h-20Z"/><path fill="#5EAA22" d="M960 10v5h20v-5h-20Z"/></g></g></g><g clip-path="url(#ad)"><mask id="ae" width="20" height="15" x="1020" y="0" maskUnits="userSpaceOnUse" style="mask-type:luminance"><path fill="#fff" d="M1020 0h20v15h-20z"/></mask><g mask="url(#ae)"><path fill="#F7FCFF" fill-rule="evenodd" d="M1020 0v15h20V0h-20Z" clip-rule="evenodd"/><mask id="af" width="20" height="15" x="1020" y="0" maskUnits="userSpaceOnUse" style="mask-type:luminance"><path fill="#fff" fill-rule="evenodd" d="M1020 0v15h20V0h-20Z" clip-rule="evenodd"/></mask><g mask="url(#af)"><path fill="#E31D1C" fill-rule="evenodd" d="M1020 0v7.5h20V0h-20Z" clip-rule="evenodd"/></g></g></g><g clip-path="url(#ag)"><mask id="ah" width="20" height="15" x="1080" y="0" maskUnits="userSpaceOnUse" style="mask-type:luminance"><path fill="#fff" d="M1080 0h20v15h-20z"/></mask><g fill-rule="evenodd" clip-rule="evenodd" mask="url(#ah)"><path fill="#FF8C1A" d="M1094 0h6v15h-6V0Z"/><path fill="#5EAA22" d="M1080 0h6v15h-6V0Z"/><path fill="#F7FCFF" d="M1086 0h8v15h-8V0Z"/></g></g><g clip-path="url(#ai)"><mask id="aj" width="20" height="15" x="1140" y="0" maskUnits="userSpaceOnUse" style="mask-type:luminance"><path fill="#fff" d="M1140 0h20v15h-20z"/></mask><g mask="url(#aj)"><path fill="#F7FCFF" fill-rule="evenodd" d="M1140 0v15h20V0h-20Z" clip-rule="evenodd"/><mask id="ak" width="20" height="15" x="1140" y="0" maskUnits="userSpaceOnUse" style="mask-type:luminance"><path fill="#fff" fill-rule="evenodd" d="M1140 0v15h20V0h-20Z" clip-rule="evenodd"/></mask><g fill="#3D58DB" fill-rule="evenodd" clip-rule="evenodd" mask="url(#ak)"><path d="M1140 2.5v2.228h20V2.5h-20Zm0 7.717V12.5h20v-2.283h-20Z"/><path d="M1147.11 9.337h5.86l-2.9-5.013-2.96 5.013Zm4.67-.688h-3.46l1.75-2.963 1.71 2.963Z"/><path d="M1146.93 5.578h6l-2.85 5.029-3.15-5.029Zm4.82.688h-3.58l1.88 2.997 1.7-2.997Z"/></g></g></g><g clip-path="url(#al)"><mask id="am" width="20" height="15" x="1200" y="0" maskUnits="userSpaceOnUse" style="mask-type:luminance"><path fill="#fff" d="M1200 0h20v15h-20z"/></mask><g mask="url(#am)"><path fill="#E31D1C" fill-rule="evenodd" d="M1200 0v15h20V0h-20Z" clip-rule="evenodd"/><mask id="an" width="20" height="15" x="1200" y="0" maskUnits="userSpaceOnUse" style="mask-type:luminance"><path fill="#fff" fill-rule="evenodd" d="M1200 0v15h20V0h-20Z" clip-rule="evenodd"/></mask><g mask="url(#an)"><path fill="#F7FCFF" fill-rule="evenodd" d="M1203.81 2.588c-.01-.058.06-.086.1-.043.28.307 1.02 1.072 1.45 1.072.54 0 2.65-1.776 3.27-1.487.63.29 1.89 3.316 1.89 3.316l-.82 1.031-1.07-.58-.2-2.28s-2.04 1.053-3.07.67l-.57.483s-.55-1.095-.77-1.43c-.15-.222-.2-.553-.21-.752Z" clip-rule="evenodd"/><path fill="#FECA00" fill-rule="evenodd" d="m1205.16 5.078-.35.212.07-.45-.28-.317.39-.066.17-.408.18.408.39.066-.28.318.06.449-.35-.212Zm2.97-2.708c0-.125.1-.227.23-.227.12 0 .23.102.23.227v1.071c0 .125-.11.227-.23.227a.226.226 0 0 1-.23-.227V2.37Z" clip-rule="evenodd"/><path fill="#F7FCFF" fill-rule="evenodd" d="M1215.76 3.19c.05.026.04.1-.02.11-.4.075-1.45.3-1.67.663-.29.455.1 3.185-.48 3.56-.57.375-3.81-.158-3.81-.158l-.43-1.244 1.05-.594 2.04 1.038s.19-2.293 1.06-2.957l-.11-.743s1.22.111 1.62.104c.27-.005.58.13.75.22Z" clip-rule="evenodd"/><path fill="#FECA00" fill-rule="evenodd" d="m1212.93 3.02.01-.41.34.295.42-.071-.15.366.26.365-.44-.068-.27.297-.12-.409-.41-.181.36-.184Zm.77 3.983c.11.07.15.216.08.33a.246.246 0 0 1-.35.082l-.97-.647a.227.227 0 0 1-.08-.266.226.226 0 0 1 .33-.113l.99.614Z" clip-rule="evenodd"/><path fill="#F7FCFF" fill-rule="evenodd" d="M1209.29 13.115a.06.06 0 0 1-.09-.072c.14-.392.47-1.406.27-1.785-.25-.474-2.81-1.501-2.85-2.187-.04-.687 2.04-3.221 2.04-3.221l1.3.242-.01 1.21-1.92 1.248s1.89 1.312 2.03 2.394l.7.28s-.71 1.003-.91 1.353c-.12.231-.39.43-.56.538Z" clip-rule="evenodd"/><path fill="#FECA00" fill-rule="evenodd" d="m1210.85 10.75.35.209-.43.152-.14.399-.24-.315-.45.037.28-.346-.12-.376.41.1.36-.27-.02.41Zm-3.91-1.402a.262.262 0 0 1-.34-.168.256.256 0 0 1 .16-.306l1.04-.407a.25.25 0 0 1 .31.104c.09.138.03.32-.12.378l-1.05.4Z" clip-rule="evenodd"/><path fill="#FECA00" d="M1208.54 6.103a.147.147 0 0 1-.09-.193c.02-.08.15-.213.23-.186l1.08.38c.06.019.1.07.1.13l.1 1.19c0 .085-.12.152-.2.16-.08.006-.15-.056-.16-.14l-.09-1.023-.97-.318Z"/><path fill="#FECA00" d="M1210.43 5.48c.06-.052.18.008.23.074.05.067.04.163-.03.214l-.75.77c-.07.052-.21-.049-.26-.115-.05-.066-.07-.247 0-.3l.81-.643Z"/></g></g></g><g clip-path="url(#ao)"><mask id="ap" width="20" height="15" x="1260" y="0" maskUnits="userSpaceOnUse" style="mask-type:luminance"><path fill="#fff" d="M1260 0h20v15h-20z"/></mask><g mask="url(#ap)"><path fill="#F7FCFF" fill-rule="evenodd" d="M1260 0v15h20V0h-20Z" clip-rule="evenodd"/><mask id="aq" width="20" height="15" x="1260" y="0" maskUnits="userSpaceOnUse" style="mask-type:luminance"><path fill="#fff" fill-rule="evenodd" d="M1260 0v15h20V0h-20Z" clip-rule="evenodd"/></mask><g fill-rule="evenodd" clip-rule="evenodd" mask="url(#aq)"><path fill="#FF8C1A" d="M1260 0v5h20V0h-20Z"/><path fill="#5EAA22" d="M1260 10v5h20v-5h-20Z"/><path fill="#3D58DB" d="M1267.5 7.5a2.5 2.5 0 1 0 5 0 2.5 2.5 0 0 0-5 0Zm4.38 0c0 1.036-.84 1.875-1.88 1.875s-1.88-.84-1.88-1.875c0-1.036.84-1.875 1.88-1.875s1.88.84 1.88 1.875Z"/><path fill="#3D58DB" d="m1270 8.038-.52 1.921.3-1.967-1.26 1.543 1.08-1.673-1.77.898 1.66-1.089-1.99.098 1.97-.318-1.86-.719 1.93.51-1.41-1.413 1.55 1.248-.7-1.86.91 1.77L1270 5l.11 1.987.91-1.77-.71 1.86 1.55-1.248-1.4 1.412 1.92-.509-1.86.72 1.97.317-1.99-.098 1.67 1.09-1.78-.899 1.08 1.673-1.26-1.543.31 1.967-.52-1.921Z"/></g></g></g><g clip-path="url(#ar)"><mask id="as" width="20" height="15" x="1320" y="0" maskUnits="userSpaceOnUse" style="mask-type:luminance"><path fill="#fff" d="M1320 0h20v15h-20z"/></mask><g mask="url(#as)"><path fill="#F7FCFF" fill-rule="evenodd" d="M1320 0v15h20V0h-20Z" clip-rule="evenodd"/><mask id="at" width="20" height="15" x="1320" y="0" maskUnits="userSpaceOnUse" style="mask-type:luminance"><path fill="#fff" fill-rule="evenodd" d="M1320 0v15h20V0h-20Z" clip-rule="evenodd"/></mask><g mask="url(#at)"><path fill="#2E42A5" fill-rule="evenodd" d="m1319.06 1.657.93.886c.77-.726 1.49-1.068 2.18-1.068.33 0 .47.08.86.443.6.575 1.01.807 1.78.807s1.18-.232 1.79-.807c.38-.363.53-.443.86-.443.33 0 .47.08.86.443.6.575 1.01.807 1.78.807s1.18-.232 1.79-.807c.38-.363.52-.443.86-.443.33 0 .47.08.85.443.61.575 1.02.807 1.79.807s1.18-.232 1.79-.807c.38-.363.52-.443.86-.443.68 0 1.41.342 2.18 1.068l.93-.886c-1-.941-2.04-1.432-3.11-1.432-.77 0-1.18.232-1.79.807-.38.363-.53.443-.86.443-.33 0-.47-.08-.86-.443-.6-.575-1.01-.807-1.78-.807s-1.18.232-1.79.807c-.38.363-.53.443-.86.443-.33 0-.47-.08-.86-.443-.6-.575-1.01-.807-1.78-.807s-1.18.232-1.79.807c-.38.363-.52.443-.86.443-.33 0-.47-.08-.85-.443-.61-.575-1.02-.807-1.79-.807-1.08 0-2.12.491-3.11 1.432Zm.93 3.386-.93-.886c.99-.941 2.03-1.432 3.11-1.432.77 0 1.18.232 1.79.807.38.363.52.443.85.443.34 0 .48-.08.86-.443.61-.575 1.02-.807 1.79-.807s1.18.232 1.78.807c.39.363.53.443.86.443.33 0 .48-.08.86-.443.61-.575 1.02-.807 1.79-.807s1.18.232 1.78.807c.39.363.53.443.86.443.33 0 .48-.08.86-.443.61-.575 1.02-.807 1.79-.807 1.07 0 2.11.491 3.11 1.432l-.93.886c-.77-.726-1.5-1.068-2.18-1.068-.34 0-.48.08-.86.443-.61.575-1.02.807-1.79.807s-1.18-.232-1.79-.807c-.38-.363-.52-.443-.85-.443-.34 0-.48.08-.86.443-.61.575-1.02.807-1.79.807s-1.18-.232-1.78-.807c-.39-.363-.53-.443-.86-.443-.33 0-.48.08-.86.443-.61.575-1.02.807-1.79.807s-1.18-.232-1.78-.807c-.39-.363-.53-.443-.86-.443-.69 0-1.41.342-2.18 1.068Zm0 2.5-.93-.886c.99-.941 2.03-1.432 3.11-1.432.77 0 1.18.232 1.79.807.38.363.52.443.85.443.34 0 .48-.08.86-.443.61-.575 1.02-.807 1.79-.807s1.18.232 1.78.807c.39.363.53.443.86.443.33 0 .48-.08.86-.443.61-.575 1.02-.807 1.79-.807s1.18.232 1.78.807c.39.363.53.443.86.443.33 0 .48-.08.86-.443.61-.575 1.02-.807 1.79-.807 1.07 0 2.11.491 3.11 1.432l-.93.886c-.77-.726-1.5-1.068-2.18-1.068-.34 0-.48.08-.86.443-.61.575-1.02.807-1.79.807s-1.18-.232-1.79-.807c-.38-.363-.52-.443-.85-.443-.34 0-.48.08-.86.443-.61.575-1.02.807-1.79.807s-1.18-.232-1.78-.807c-.39-.363-.53-.443-.86-.443-.33 0-.48.08-.86.443-.61.575-1.02.807-1.79.807s-1.18-.232-1.78-.807c-.39-.363-.53-.443-.86-.443-.69 0-1.41.342-2.18 1.068Zm0 2.5-.93-.886c.99-.941 2.03-1.432 3.11-1.432.77 0 1.18.232 1.79.807.38.363.52.443.85.443.34 0 .48-.08.86-.443.61-.575 1.02-.807 1.79-.807s1.18.232 1.78.807c.39.363.53.443.86.443.33 0 .48-.08.86-.443.61-.575 1.02-.807 1.79-.807s1.18.232 1.78.807c.39.363.53.443.86.443.33 0 .48-.08.86-.443.61-.575 1.02-.807 1.79-.807 1.07 0 2.11.491 3.11 1.432l-.93.886c-.77-.726-1.5-1.068-2.18-1.068-.34 0-.48.08-.86.443-.61.575-1.02.807-1.79.807s-1.18-.232-1.79-.807c-.38-.363-.52-.443-.85-.443-.34 0-.48.08-.86.443-.61.575-1.02.807-1.79.807s-1.18-.232-1.78-.807c-.39-.363-.53-.443-.86-.443-.33 0-.48.08-.86.443-.61.575-1.02.807-1.79.807s-1.18-.232-1.78-.807c-.39-.363-.53-.443-.86-.443-.69 0-1.41.342-2.18 1.068Zm0 2.5-.93-.886c.99-.941 2.03-1.432 3.11-1.432.77 0 1.18.232 1.79.807.38.363.52.443.85.443.34 0 .48-.08.86-.443.61-.575 1.02-.807 1.79-.807s1.18.232 1.78.807c.39.363.53.443.86.443.33 0 .48-.08.86-.443.61-.575 1.02-.807 1.79-.807s1.18.232 1.78.807c.39.363.53.443.86.443.33 0 .48-.08.86-.443.61-.575 1.02-.807 1.79-.807 1.07 0 2.11.491 3.11 1.432l-.93.886c-.77-.726-1.5-1.068-2.18-1.068-.34 0-.48.08-.86.443-.61.575-1.02.807-1.79.807s-1.18-.232-1.79-.807c-.38-.363-.52-.443-.85-.443-.34 0-.48.08-.86.443-.61.575-1.02.807-1.79.807s-1.18-.232-1.78-.807c-.39-.363-.53-.443-.86-.443-.33 0-.48.08-.86.443-.61.575-1.02.807-1.79.807s-1.18-.232-1.78-.807c-.39-.363-.53-.443-.86-.443-.69 0-1.41.342-2.18 1.068Zm0 2.5-.93-.886c.99-.941 2.03-1.432 3.11-1.432.77 0 1.18.232 1.79.807.38.363.52.443.85.443.34 0 .48-.08.86-.443.61-.575 1.02-.807 1.79-.807s1.18.232 1.78.807c.39.363.53.443.86.443.33 0 .48-.08.86-.443.61-.575 1.02-.807 1.79-.807s1.18.232 1.78.807c.39.363.53.443.86.443.33 0 .48-.08.86-.443.61-.575 1.02-.807 1.79-.807 1.07 0 2.11.491 3.11 1.432l-.93.886c-.77-.726-1.5-1.068-2.18-1.068-.34 0-.48.08-.86.443-.61.575-1.02.807-1.79.807s-1.18-.232-1.79-.807c-.38-.363-.52-.443-.85-.443-.34 0-.48.08-.86.443-.61.575-1.02.807-1.79.807s-1.18-.232-1.78-.807c-.39-.363-.53-.443-.86-.443-.33 0-.48.08-.86.443-.61.575-1.02.807-1.79.807s-1.18-.232-1.78-.807c-.39-.363-.53-.443-.86-.443-.69 0-1.41.342-2.18 1.068Z" clip-rule="evenodd"/><mask id="au" width="9" height="7" x="1320" y="0" maskUnits="userSpaceOnUse" style="mask-type:luminance"><path fill="#fff" fill-rule="evenodd" d="M1320 0h9v7h-9V0Z" clip-rule="evenodd"/></mask><g mask="url(#au)"><path fill="#2E42A5" d="M1320 0h10v8h-10z"/><path fill="#fff" d="m1318.45 7.083 2.29.965 9.3-7.138 1.21-1.434-2.44-.322-3.8 3.076-3.06 2.072-3.5 2.781Z"/><path fill="#F50100" d="m1318.76 7.76 1.17.56 10.89-8.977h-1.64l-10.42 8.416Z"/><path fill="#fff" d="m1331.15 7.083-2.29.965-9.3-7.138-1.21-1.434 2.44-.322 3.8 3.076 3.06 2.072 3.5 2.781Z"/><path fill="#F50100" d="m1331.07 7.569-1.16.56-4.64-3.844-1.37-.43-5.67-4.374h1.64l5.66 4.271 1.5.515 4.04 3.302Z"/><mask id="av" width="13" height="10" x="1319" y="-1" fill="#000" maskUnits="userSpaceOnUse"><path fill="#fff" d="M1319-1h13V9h-13z"/><path fill-rule="evenodd" d="M1325 0h-1v3h-4v1h4v4h1V4h6V3h-6V0Z" clip-rule="evenodd"/></mask><path fill="#F50100" fill-rule="evenodd" d="M1325 0h-1v3h-4v1h4v4h1V4h6V3h-6V0Z" clip-rule="evenodd"/><path fill="#F7FCFF" d="M1324 0v-.5h-.5V0h.5Zm1 0h.5v-.5h-.5V0Zm-1 3v.5h.5V3h-.5Zm-4 0v-.5h-.5V3h.5Zm0 1h-.5v.5h.5V4Zm4 0h.5v-.5h-.5V4Zm0 4h-.5v.5h.5V8Zm1 0v.5h.5V8h-.5Zm0-4v-.5h-.5V4h.5Zm6 0v.5h.5V4h-.5Zm0-1h.5v-.5h-.5V3Zm-6 0h-.5v.5h.5V3Zm-1-2.5h1v-1h-1v1Zm.5 2.5V0h-1v3h1Zm-4.5.5h4v-1h-4v1Zm.5.5V3h-1v1h1Zm3.5-.5h-4v1h4v-1Zm.5 4.5V4h-1v4h1Zm.5-.5h-1v1h1v-1Zm-.5-3.5v4h1V4h-1Zm6.5-.5h-6v1h6v-1Zm-.5-.5v1h1V3h-1Zm-5.5.5h6v-1h-6v1Zm-.5-3.5v3h1V0h-1Z" mask="url(#av)"/></g><rect width=".625" height="7.888" x="1332.75" y="5.862" fill="#D86D00" rx=".313"/><path fill="#449A01" stroke="#fff" stroke-width=".15" d="M1332.75 1.286c.64.876.72 2.052.64 3.105l-.5-.036c.08-1.005-.14-3.07-.14-3.07Z"/><path fill="#449A01" stroke="#fff" stroke-width=".15" d="m1333.57 4.615-.46-.19c.44-1.403 2.65-2.598 2.65-2.598-.99.474-1.33 1.757-2.19 2.788Z"/><path fill="#449A01" stroke="#fff" stroke-width=".15" d="m1333.36 4.906-.24-.425c1.18-.822 3.09-1 3.09-1-.98.28-1.98.96-2.85 1.425Z"/><path fill="#449A01" stroke="#fff" stroke-width=".15" d="m1333.05 5.113.21-.441c2.31.718 2.65 1.918 2.65 1.918-.3-.268-1.27-.768-2.86-1.477Z"/><path fill="#449A01" stroke="#fff" stroke-width=".15" d="m1332.81 5.081.49-.091c.17.862.61 1.384.84 1.937 0 0-1.3-.58-1.33-1.846Z"/><path fill="#449A01" stroke="#fff" stroke-width=".15" d="m1332.77 4.677.53.133c-.87 1.062-2.16 1.62-2.67 1.802 0 0 1.12-1.011 2.14-1.935Z"/><path fill="#449A01" stroke="#fff" stroke-width=".15" d="m1333.01 4.447-.08.493c-1.04-.315-2.9-.183-2.9-.183.78-.185 1.86-.492 2.98-.31Z"/><path fill="#449A01" stroke="#fff" stroke-width=".15" d="m1333.1 4.194-.21.444c-1.52-.66-2.34-1.895-2.34-1.895.05.227 1.2.868 2.55 1.451Z"/><path fill="#F50100" fill-rule="evenodd" d="M1334.94 9.567v-.09c-.28-.228-.58-.341-.9-.341-.3-.147-.61-.205-.92-.172v-.001c-.46-.05-.93.173-.93.173-.47 0-.91.34-.91.34v.091l.57.624s.16.601 1.27.46v.001s.74-.022.79-.04l.06-.022c.15-.046.31-.1.41-.399l.56-.624Zm-1.82-.575c-.02.208-.11 1.46 0 1.655V8.992Z" clip-rule="evenodd"/><path fill="#FECA00" fill-rule="evenodd" d="M1332.2 8.866c.06-.202.17-.271.42-.271.16 0 .28.04.36.12v.542h.05v.055c-.03.027-.05.081-.03.14 0 .02.01.038.01.054a.184.184 0 0 0-.07-.012c-.07 0-.14.041-.14.092s.07.093.14.093c.08 0 .14-.042.14-.093 0 .026.02.05.05.066h-.07c0 .14-.07.228-.17.228-.06 0-.11-.034-.15-.11l-.09-.207-.01.233c0 .082-.04.114-.12.114-.08 0-.13-.053-.17-.173l.03.003c.08 0 .14-.041.14-.092s-.06-.093-.14-.093c-.01 0-.03.002-.04.006v-.083c-.02-.075-.07-.13-.12-.12-.05.01-.08.08-.06.156 0 .02.01.037.01.053a.184.184 0 0 0-.07-.012c-.07 0-.14.042-.14.093 0 .05.07.092.14.092s.12-.027.14-.064l-.01.054c-.01.153-.05.225-.1.235-.08.014-.14.008-.18-.017l-.08-.049v.084a.41.41 0 0 1-.13-.017l-.01.048-.1-.102a.16.16 0 0 0 .09-.023c.07-.036.11-.102.08-.147-.02-.045-.1-.052-.16-.016a.146.146 0 0 0-.05.037c0-.014-.01-.029-.01-.043-.02-.074-.08-.122-.13-.107-.03.008-.04.03-.05.06l-.04-.045-.04.045.08.084v.017c.02.068.07.114.12.11l.19.2v.002l.01.001.11.118c.02.034.03.065.04.093.02.062.04.13.07.17v.03c0 .064.15.102.45.14.23.03.5.051.72.054h.06c.22-.003.49-.023.72-.053.29-.04.44-.077.44-.14 0-.042.04-.142.11-.294l.52-.532-.04-.045-.14.146v-.019c.03-.074.01-.146-.04-.16-.05-.016-.11.032-.13.106-.01.014-.01.029-.01.043a.146.146 0 0 0-.05-.037c-.07-.036-.14-.029-.17.016-.02.045.01.111.08.147.07.037.15.03.17-.015v-.006c.01.006.02.01.03.013.01.004.02.003.03 0l-.18.194-.02-.09a.44.44 0 0 1-.13.017v-.084l-.09.05c-.04.024-.09.03-.17.016-.06-.01-.1-.082-.11-.235v-.014c.02.011.04.02.07.023.08.01.14-.021.15-.072.01-.05-.05-.1-.12-.111a.266.266 0 0 0-.06 0 .22.22 0 0 0 .02-.085c-.01-.077-.05-.137-.1-.135-.05.003-.09.068-.09.145 0 .018.01.036.01.052a.227.227 0 0 0-.06-.02c-.08-.01-.15.022-.15.072-.01.05.05.1.12.111.05.006.09-.001.11-.018l-.01.039c-.04.134-.09.193-.18.193-.08 0-.11-.032-.11-.114l-.01-.233-.1.208c-.03.075-.08.109-.15.109-.09 0-.15-.08-.16-.209.02.005.04.008.05.008.08 0 .14-.042.14-.093 0-.05-.06-.092-.14-.092-.01 0-.03.002-.04.006v-.083a.666.666 0 0 0-.03-.073h.1v-.619c.09-.08.21-.12.37-.12.25 0 .36.068.42.27.04.13 0 .24-.12.343l.07.097c.13-.115.19-.252.17-.404.29-.01.5.023.64.1.13.065.15.233.06.525l.1.04c.11-.343.08-.576-.11-.676-.16-.09-.4-.125-.72-.111v.009c-.08-.229-.23-.317-.51-.317a.68.68 0 0 0-.37.093v-.031h-.22v.054a.624.624 0 0 0-.41-.125c-.28 0-.43.084-.51.302v-.047c-.31-.014-.55.022-.72.11-.19.102-.22.335-.11.678l.11-.04c-.1-.292-.07-.46.05-.526.14-.077.36-.11.65-.1-.05.173.01.329.16.457l.07-.098c-.12-.103-.16-.213-.12-.342Zm.88.72c0-.005.01-.01.01-.015h-.01v.015Zm1.39.51c-.1.018-.16.016-.2-.015a.387.387 0 0 1-.19.006c-.08-.014-.13-.072-.17-.167a.231.231 0 0 1-.16.11c.36.055.61.134.61.134l-.02.127c.02-.036.03-.076.06-.12v-.008l.07-.067Zm-.89-.09a.2.2 0 0 1-.07-.074.314.314 0 0 1-.09.057c.05.005.11.01.16.017Zm-.36-.029a.322.322 0 0 1-.11-.103.231.231 0 0 1-.1.103l.07-.002h.05l.09.002Zm-1.35.182-.05-.054c.06.007.1 0 .13-.024.06.017.12.02.2.006.07-.014.13-.072.16-.167.04.058.1.095.16.108a4.75 4.75 0 0 0-.6.131Zm.94-.17c-.06.004-.11.009-.16.015a.203.203 0 0 0 .07-.072.17.17 0 0 0 .09.056Zm1.37.51c.04.021.07 0 .1-.038 0 .01 0 .02-.01.03 0 .002 0 .004-.01.007-.02.009-.05.018-.08.027a3.48 3.48 0 0 1-.3.052c-.24.032-.52.052-.74.054a6.5 6.5 0 0 1-.75-.054 2.614 2.614 0 0 1-.29-.052c-.03-.008-.06-.015-.08-.022l.01-.003c.12-.063.93-.122 1.08-.133.14.01.95.07 1.07.133Zm.17-.01Z" clip-rule="evenodd"/><path fill="#fff" d="M1332.13 8.677v.062c-.5-.01-.79.07-.86.229-.07.164-.06.364.05.6l-.05.028c-.12-.253-.13-.473-.05-.656.09-.189.39-.273.91-.263Z"/><path fill="#fff" d="m1332.22 9.223-.03.053c-.1-.07-.16-.192-.16-.36 0-.24.11-.38.36-.476.16-.062.38-.037.65.073l-.01.058c-.27-.105-.47-.13-.62-.073-.23.088-.32.208-.32.419 0 .146.04.247.13.306Zm1.86-.484V8.8c.5-.01.78.07.86.23.07.164.06.363-.05.6l.05.027c.11-.253.13-.472.05-.655-.09-.189-.39-.273-.91-.263Z"/><path fill="#fff" d="m1333.91 9.236.02.053c.11-.071.17-.192.17-.36 0-.24-.12-.38-.36-.477-.16-.061-.38-.036-.65.074l.01.058c.27-.106.47-.13.62-.074.23.089.32.209.32.42 0 .146-.04.247-.13.306Z"/></g></g></g><g clip-path="url(#aw)"><mask id="ax" width="20" height="15" x="1380" y="0" maskUnits="userSpaceOnUse" style="mask-type:luminance"><path fill="#fff" d="M1380 0h20v15h-20z"/></mask><g mask="url(#ax)"><path fill="#F7FCFF" fill-rule="evenodd" d="M1380 0v15h20V0h-20Z" clip-rule="evenodd"/><mask id="ay" width="20" height="15" x="1380" y="0" maskUnits="userSpaceOnUse" style="mask-type:luminance"><path fill="#fff" fill-rule="evenodd" d="M1380 0v15h20V0h-20Z" clip-rule="evenodd"/></mask><g fill-rule="evenodd" clip-rule="evenodd" mask="url(#ay)"><path fill="#BF2714" d="M1380 0v5h20V0h-20Z"/><path fill="#272727" d="M1380 10v5h20v-5h-20Z"/><path fill="#009C4E" d="M1383.34 8.007c.56.816-.22 1.368-.22 1.368s.69 0 .95-.546h5.57V7.625s-.12-.578-.61-.578c-.5 0-.61.578-.61.578h-1.96l1.9-1.674-.37-.326-2.11 1.86v.394h2.99v-.232s.02-.134.16-.134.1.134.1.134v.496h-3.77v-.678l-.4.182v.496s-.5-.136-.82-.136c-.32 0-.33-.36-.33-.36l-.47.36Zm7.56.046.31.761h-1.22V5.76l.52.164v2.13h.39Zm5.67 0 .31.761h-1.22V5.76l.51.164v2.13h.4Zm-1.51-2.262-.31.214v2.046h-.33v-1.64l-.53.306V8.05h-.35v-.926l-.41.26v.251s-.78.054-.78 1.153h2.71V5.791Zm-10.38 3.563c.1 0 .18-.07.18-.157 0-.086-.08-.156-.18-.156-.1 0-.17.07-.17.156 0 .087.07.157.17.157Zm9.02-3.328c-.14.181-.56 0-.56 0l1.18-.137c-.12.238-.62.137-.62.137Z"/></g></g></g><g clip-path="url(#az)"><mask id="aA" width="20" height="15" x="1440" y="0" maskUnits="userSpaceOnUse" style="mask-type:luminance"><path fill="#fff" d="M1440 0h20v15h-20z"/></mask><g mask="url(#aA)"><path fill="#F7FCFF" fill-rule="evenodd" d="M1440 0v15h20V0h-20Z" clip-rule="evenodd"/><mask id="aB" width="20" height="15" x="1440" y="0" maskUnits="userSpaceOnUse" style="mask-type:luminance"><path fill="#fff" fill-rule="evenodd" d="M1440 0v15h20V0h-20Z" clip-rule="evenodd"/></mask><g mask="url(#aB)"><path fill="#5EAA22" fill-rule="evenodd" d="M1440 0v5h20V0h-20Z" clip-rule="evenodd"/><path fill="#E31D1C" fill-rule="evenodd" d="M1440 10v5h20v-5h-20Z" clip-rule="evenodd"/><path stroke="#F7FCFF" stroke-width=".625" d="M1440.23 10.854h-1.42m-.01.563v-.326h.46v.315h.47v-.315h-.25m.73.313h-.23v-.306h.49v-.251.557h.23v-.557m.25.033v.526h-.23m1.95-.552h-1.42m-.01.563v-.326h.46v.315h.47v-.315h-.25m.77.313h-.23v-.306h.49v-.251.557h.23v-.557m.25.033v.526h-.23m1.95-.552h-1.42m-.01.563v-.326h.46v.315h.47v-.315h-.24m.72.313h-.23v-.306h.49v-.251.557h.23v-.557m.25.033v.526h-.23m1.95-.552h-1.42m-.01.563v-.326h.46v.315h.47v-.315h-.24m.72.313h-.23v-.306h.49v-.251.557h.23v-.557m.25.033v.526h-.23m1.95-.552h-1.42m-.01.563v-.326h.46v.315h.47v-.315h-.25m.77.313h-.23v-.306h.49v-.251.557h.23v-.557m.25.033v.526h-.23m1.96-.552h-1.43m-.01.563v-.326h.46v.315h.47v-.315h-.24m.77.313h-.24v-.306h.5v-.251.557h.22v-.557m.25.033v.526h-.23m1.96-.552h-1.42m-.02.563v-.326h.46v.315h.47v-.315h-.24m.77.313h-.24v-.306h.5v-.251.557h.22v-.557m.26.033v.526h-.24m1.96-.552h-1.42m-.02.563v-.326h.47v.315h.46v-.315h-.24m.73.313h-.24v-.306h.5v-.251.557h.22v-.557m.26.033v.526h-.24m1.96-.552h-1.42m-.02.563v-.326h.47v.315h.46v-.315h-.24m.86.313h-.24v-.306h.5v-.251.557h.22v-.557m-20.28-7.617h-1.42m-.01.562v-.326h.46v.315h.47v-.315h-.25m.73.313h-.23v-.306h.49v-.251.557h.23v-.557m.25.033v.526h-.23m1.95-.551h-1.42m-.01.562v-.326h.46v.315h.47v-.315h-.25m.77.313h-.23v-.306h.49v-.251.557h.23v-.557m.25.033v.526h-.23m1.95-.551h-1.42m-.01.562v-.326h.46v.315h.47v-.315h-.24m.72.313h-.23v-.306h.49v-.251.557h.23v-.557m.25.033v.526h-.23m1.95-.551h-1.42m-.01.562v-.326h.46v.315h.47v-.315h-.24m.72.313h-.23v-.306h.49v-.251.557h.23v-.557m.25.033v.526h-.23m1.95-.551h-1.42m-.01.562v-.326h.46v.315h.47v-.315h-.25m.77.313h-.23v-.306h.49v-.251.557h.23v-.557m.25.033v.526h-.23m1.96-.551h-1.43m-.01.562v-.326h.46v.315h.47v-.315h-.24m.77.313h-.24v-.306h.5v-.251.557h.22v-.557m.25.033v.526h-.23m1.96-.551h-1.42m-.02.562v-.326h.46v.315h.47v-.315h-.24m.77.313h-.24v-.306h.5v-.251.557h.22v-.557m.26.033v.526h-.24m1.96-.551h-1.42m-.02.562v-.326h.47v.315h.46v-.315h-.24m.73.313h-.24v-.306h.5v-.251.557h.22v-.557m.26.033v.526h-.24m1.96-.551h-1.42m-.02.562v-.326h.47v.315h.46v-.315h-.24m.86.313h-.24v-.306h.5v-.251.557h.22v-.557"/><path fill="#E31D1C" fill-rule="evenodd" d="M1449.13 5.156s.27.14.54.14.55-.14.55-.14v.188s-.3.14-.57.14c-.26 0-.52-.14-.52-.14v-.188Zm-1.97 2.213c0-1.111 1.53-1.838 1.53-1.838s-.89.473-.89 1.792c0 1.318.46 1.89.46 1.89s-1.1-.733-1.1-1.844Zm5.15-.061c0-1.111-1.53-1.777-1.53-1.777s.89.473.89 1.792c0 1.318-.46 1.89-.46 1.89s1.1-.794 1.1-1.905Zm-4.11.303c-.06-1.11.87-2.104.87-2.104s-.34.457-.27 1.774c.02.452.2 1.124.43 1.521V5.578h.93V8.83c.23-.37.4-1.002.43-1.46.06-1.318-.26-1.863-.26-1.863s.93.994.87 2.104c-.03.66-.54 1.36-.95 1.817.2.044.46.098.83.17 0 .04-.08.038-.24.034-.18-.004-.45-.01-.81.035-.17.17-.28.27-.28.27l-.05-.058-.05.059s-.11-.101-.28-.27c-.36-.046-.63-.04-.81-.036-.16.004-.24.006-.23-.035.36-.071.62-.125.82-.169-.4-.457-.91-1.156-.95-1.817Z" clip-rule="evenodd"/></g></g></g><g clip-path="url(#aC)"><mask id="aD" width="20" height="15" x="1500" y="0" maskUnits="userSpaceOnUse" style="mask-type:luminance"><path fill="#fff" d="M1500 0h20v15h-20z"/></mask><g mask="url(#aD)"><path fill="#0061C1" fill-rule="evenodd" d="M1500 0v15h20V0h-20Z" clip-rule="evenodd"/><mask id="aE" width="20" height="15" x="1500" y="0" maskUnits="userSpaceOnUse" style="mask-type:luminance"><path fill="#fff" fill-rule="evenodd" d="M1500 0v15h20V0h-20Z" clip-rule="evenodd"/></mask><g mask="url(#aE)"><path fill="#D21034" stroke="#F1F9FF" stroke-width="1.25" d="M1505-.625h-.62v6h-5v4.25h5v6h4.24v-6h12v-4.25h-12v-6H1505Z"/></g></g></g><g clip-path="url(#aF)"><mask id="aG" width="20" height="15" x="1560" y="0" maskUnits="userSpaceOnUse" style="mask-type:luminance"><path fill="#fff" d="M1560 0h20v15h-20z"/></mask><g fill-rule="evenodd" clip-rule="evenodd" mask="url(#aG)"><path fill="#C51918" d="M1574 0h6v15h-6V0Z"/><path fill="#5EAA22" d="M1560 0h6v15h-6V0Z"/><path fill="#fff" d="M1566 0h8v15h-8V0Z"/></g></g><g clip-path="url(#aH)"><mask id="aI" width="20" height="15" x="1620" y="0" maskUnits="userSpaceOnUse" style="mask-type:luminance"><path fill="#fff" d="M1620 0h20v15h-20z"/></mask><g mask="url(#aI)"><path fill="#F7FCFF" fill-rule="evenodd" d="M1620 0h20v15h-20V0Z" clip-rule="evenodd"/><path fill="#F7FCFF" stroke="#E31D1C" stroke-width="1.688" d="m1618.31.778-1.28-.774v15.492l1.28-.774 10.34-6.25 1.19-.722-1.19-.722-10.34-6.25Z"/><path fill="#F7FCFF" stroke="#E31D1C" stroke-width="1.688" d="m1641.83.77 1.26-.736v15.432l-1.26-.736-10.77-6.25-1.25-.73 1.25-.73 10.77-6.25Z"/><path fill="#E31D1C" fill-rule="evenodd" d="M1628.55 2.94s-.54 2.373 1.31 3.285c0 0 1.78-.97 1.38-3.286 0 0-.76-.255-1.37-.255-.61 0-1.32.255-1.32.255Z" clip-rule="evenodd"/><path fill="#FFD100" fill-rule="evenodd" d="M1628.74 3.437s.2-.088.3 0c.09.087.17-.008.17-.06 0-.054.16-.235.16-.088 0 .148-.05.23.09.23s.75-.203.9-.143c.15.06.26.046.22-.04-.03-.087-.13-.141-.32-.094-.18.047-.14.093-.3.093-.16 0-.34-.046-.34-.046s.05-.077.23-.022c.19.055.44-.068.51-.068s.26-.004.28.043c.02.047.13.09.04.134-.08.044-.23.072-.13.128.1.056.33.046.34.104.01.059.12.146.07.146-.04 0-.12.083-.19.058-.07-.026-.08-.048-.01-.068.07-.02.07-.106.01-.106-.06 0-.03.03-.16 0s-.31-.063-.3 0c.01.063.1.16-.06.174-.15.013-.23.065-.26.023s-.14-.098-.05-.116c.08-.018.17.06.2.048.03-.013.1-.02.04-.074-.06-.055-.16-.087-.07-.128.09-.04.02-.041-.15.043-.17.085-.27.156-.42.146-.15-.01-.2.004-.25-.01-.05-.014-.29.151-.36.11-.06-.042-.28-.058-.24-.11.04-.051.09-.078.15-.051.06.026.12.053.16.026.04-.026.15-.117.12-.135-.03-.019 0-.08-.16-.08-.17 0-.22.068-.26.025-.04-.043.04-.092.04-.092Zm.16.78s.18-.078.26 0c.09.077.16-.007.16-.053 0-.047.14-.207.14-.077s-.05.203.07.203c.13 0 .67-.18.8-.126.13.053.23.04.19-.036-.03-.076-.11-.124-.28-.082-.16.041-.12.082-.26.082-.15 0-.3-.041-.3-.041s.04-.068.2-.02c.16.049.39-.06.45-.06s.22-.003.24.039c.02.041.12.08.04.118-.08.038-.2.063-.11.112.08.05.28.04.29.091.01.052.11.129.07.129-.04 0-.11.072-.17.05-.07-.022-.07-.041-.01-.059.06-.018.06-.093.01-.093-.05 0-.03.026-.14 0-.12-.027-.27-.056-.26 0 .01.056.08.14-.06.152-.14.012-.2.057-.23.02-.02-.036-.12-.085-.04-.101.07-.016.14.053.17.042.03-.011.09-.017.04-.065-.05-.048-.14-.076-.06-.112.08-.036.02-.037-.13.037-.15.075-.24.138-.37.129-.13-.009-.18.003-.23-.009-.04-.012-.25.133-.31.096-.06-.037-.25-.05-.21-.096.03-.045.08-.069.13-.045.05.023.1.046.14.023.03-.023.13-.103.11-.12-.03-.015 0-.069-.15-.069-.14 0-.19.06-.22.022-.04-.038.03-.081.03-.081Zm.23.791s.14-.058.2 0c.07.059.12-.004.12-.04 0-.035.1-.156.1-.058s-.03.154.06.154.51-.136.6-.096c.1.04.18.03.15-.027-.02-.058-.09-.094-.21-.062-.12.031-.1.062-.2.062-.11 0-.23-.03-.23-.03s.03-.052.16-.016c.12.037.29-.045.33-.045.05 0 .18-.003.19.029.01.031.09.06.03.09-.06.029-.15.047-.09.084.07.038.22.03.23.07 0 .039.08.097.05.097s-.08.055-.13.038c-.05-.016-.06-.031-.01-.045.05-.013.05-.07.01-.07s-.02.02-.11 0-.2-.042-.2 0c.01.042.07.107-.04.115-.1.01-.15.044-.17.016-.02-.028-.1-.065-.04-.077.06-.012.11.04.14.032.02-.009.06-.014.02-.05-.04-.036-.1-.058-.04-.085.06-.027.01-.027-.1.029-.12.056-.18.104-.28.097-.1-.007-.14.003-.17-.007-.03-.009-.19.101-.24.073-.04-.028-.19-.038-.16-.073.03-.034.06-.052.1-.034.04.018.08.035.1.018.03-.018.11-.078.09-.09-.02-.013 0-.054-.11-.054s-.15.046-.17.017c-.03-.028.02-.062.02-.062Z" clip-rule="evenodd"/></g></g><g clip-path="url(#aJ)"><mask id="aK" width="20" height="15" x="1680" y="0" maskUnits="userSpaceOnUse" style="mask-type:luminance"><path fill="#fff" d="M1680 0h20v15h-20z"/></mask><g mask="url(#aK)"><path fill="#093" fill-rule="evenodd" d="M1680 0h20v15h-20V0Z" clip-rule="evenodd"/><path fill="#272727" stroke="#FECA00" stroke-width="1.688" d="m1679.91-.65-1.38-1.14v18.58l1.38-1.14 9.09-7.5.79-.65-.79-.65-9.09-7.5Z"/><path fill="#272727" stroke="#FECA00" stroke-width="1.688" d="m1700.1-.663 1.37-1.077v18.48l-1.37-1.077-9.51-7.5-.84-.663.84-.663 9.51-7.5Z"/></g></g><g clip-path="url(#aL)"><mask id="aM" width="20" height="15" x="1740" y="0" maskUnits="userSpaceOnUse" style="mask-type:luminance"><path fill="#fff" d="M1740 0h20v15h-20z"/></mask><g mask="url(#aM)"><path fill="#F7FCFF" fill-rule="evenodd" d="M1740 0v15h20V0h-20Z" clip-rule="evenodd"/><mask id="aN" width="20" height="15" x="1740" y="0" maskUnits="userSpaceOnUse" style="mask-type:luminance"><path fill="#fff" fill-rule="evenodd" d="M1740 0v15h20V0h-20Z" clip-rule="evenodd"/></mask><g fill-rule="evenodd" clip-rule="evenodd" mask="url(#aN)"><path fill="#272727" d="M1740 0v5h20V0h-20Z"/><path fill="#093" d="M1740 10v5h20v-5h-20Z"/></g><path fill="#E31D1C" fill-rule="evenodd" d="M1740 0v15l12.5-7.5L1740 0Z" clip-rule="evenodd"/><mask id="aO" width="13" height="15" x="1740" y="0" maskUnits="userSpaceOnUse" style="mask-type:luminance"><path fill="#fff" fill-rule="evenodd" d="M1740 0v15l12.5-7.5L1740 0Z" clip-rule="evenodd"/></mask><g mask="url(#aO)"><path fill="#F7FCFF" fill-rule="evenodd" d="m1745.63 8.67-1.17.705.26-1.377-.97-1.031 1.32-.056.56-1.286.55 1.286h1.32l-.97 1.087.29 1.377-1.19-.706Z" clip-rule="evenodd"/></g></g></g></g><defs><clipPath id="a"><rect width="1760" height="15" fill="#fff" rx="2"/></clipPath><clipPath id="b"><rect width="20" height="15" fill="#fff" rx="2"/></clipPath><clipPath id="d"><rect width="20" height="15" x="60" fill="#fff" rx="2"/></clipPath><clipPath id="f"><rect width="20" height="15" x="120" fill="#fff" rx="2"/></clipPath><clipPath id="h"><rect width="20" height="15" x="180" fill="#fff" rx="2"/></clipPath><clipPath id="i"><rect width="20" height="15" x="240" fill="#fff" rx="2"/></clipPath><clipPath id="l"><rect width="20" height="15" x="300" fill="#fff" rx="2"/></clipPath><clipPath id="n"><rect width="20" height="15" x="360" fill="#fff" rx="2"/></clipPath><clipPath id="t"><rect width="20" height="15" x="420" fill="#fff" rx="2"/></clipPath><clipPath id="v"><rect width="20" height="15" x="480" fill="#fff" rx="2"/></clipPath><clipPath id="z"><rect width="20" height="15" x="540" fill="#fff" rx="2"/></clipPath><clipPath id="B"><rect width="20" height="15" x="600" fill="#fff" rx="2"/></clipPath><clipPath id="D"><rect width="20" height="15" x="660" fill="#fff" rx="2"/></clipPath><clipPath id="H"><rect width="20" height="15" x="720" fill="#fff" rx="2"/></clipPath><clipPath id="L"><path fill="#fff" d="M724 1h15v13h-15z"/></clipPath><clipPath id="M"><rect width="20" height="15" x="780" fill="#fff" rx="2"/></clipPath><clipPath id="P"><rect width="20" height="15" x="840" fill="#fff" rx="2"/></clipPath><clipPath id="W"><rect width="20" height="15" x="900" fill="#fff" rx="2"/></clipPath><clipPath id="aa"><rect width="20" height="15" x="960" fill="#fff" rx="2"/></clipPath><clipPath id="ad"><rect width="20" height="15" x="1020" fill="#fff" rx="2"/></clipPath><clipPath id="ag"><rect width="20" height="15" x="1080" fill="#fff" rx="2"/></clipPath><clipPath id="ai"><rect width="20" height="15" x="1140" fill="#fff" rx="2"/></clipPath><clipPath id="al"><rect width="20" height="15" x="1200" fill="#fff" rx="2"/></clipPath><clipPath id="ao"><rect width="20" height="15" x="1260" fill="#fff" rx="2"/></clipPath><clipPath id="ar"><rect width="20" height="15" x="1320" fill="#fff" rx="2"/></clipPath><clipPath id="aw"><rect width="20" height="15" x="1380" fill="#fff" rx="2"/></clipPath><clipPath id="az"><rect width="20" height="15" x="1440" fill="#fff" rx="2"/></clipPath><clipPath id="aC"><rect width="20" height="15" x="1500" fill="#fff" rx="2"/></clipPath><clipPath id="aF"><rect width="20" height="15" x="1560" fill="#fff" rx="2"/></clipPath><clipPath id="aH"><rect width="20" height="15" x="1620" fill="#fff" rx="2"/></clipPath><clipPath id="aJ"><rect width="20" height="15" x="1680" fill="#fff" rx="2"/></clipPath><clipPath id="aL"><rect width="20" height="15" x="1740" fill="#fff" rx="2"/></clipPath><filter id="p" width="1.624" height=".921" x="374.789" y="6.019" color-interpolation-filters="sRGB" filterUnits="userSpaceOnUse"><feFlood flood-opacity="0" result="BackgroundImageFix"/><feColorMatrix in="SourceAlpha" result="hardAlpha" values="0 0 0 0 0 0 0 0 0 0 0 0 0 0 0 0 0 0 127 0"/><feOffset dy=".25"/><feColorMatrix values="0 0 0 0 1 0 0 0 0 1 0 0 0 0 1 0 0 0 1 0"/><feBlend in2="BackgroundImageFix" result="effect1_dropShadow_434_15"/><feBlend in="SourceGraphic" in2="effect1_dropShadow_434_15" result="shape"/></filter><filter id="G" width="13.356" height="12.188" x="663.568" y="1.127" color-interpolation-filters="sRGB" filterUnits="userSpaceOnUse"><feFlood flood-opacity="0" result="BackgroundImageFix"/><feColorMatrix in="SourceAlpha" result="hardAlpha" values="0 0 0 0 0 0 0 0 0 0 0 0 0 0 0 0 0 0 127 0"/><feOffset/><feGaussianBlur stdDeviation=".5"/><feColorMatrix values="0 0 0 0 0.6 0 0 0 0 0 0 0 0 0 0 0 0 0 0.36 0"/><feBlend in2="BackgroundImageFix" result="effect1_dropShadow_434_15"/><feBlend in="SourceGraphic" in2="effect1_dropShadow_434_15" result="shape"/></filter><linearGradient id="q" x1="377.672" x2="378.136" y1="9.754" y2="9.749" gradientUnits="userSpaceOnUse"><stop stop-color="#D5DFFF"/><stop offset="1" stop-color="#fff"/></linearGradient></defs></svg>