<svg viewBox="0 0 20 15" fill="none" xmlns="http://www.w3.org/2000/svg"><path d="M0 0v5.12h20.48V0H0Z" fill="#009D00"/><path d="M0 5.12v5.12h20.48V5.12H0Z" fill="#fff"/><path d="M0 10.24v5.12h20.48v-5.12H0Z" fill="#f80000"/><path d="M0 0v15.36l5.12-7.583L0 0Z" fill="#0075D5"/><path d="m9.326 5.689-.01.002-.008-.007-.127-.117-.015.172-.001.01-.01.005-.15.084.159.068.01.004.001.01.034.17.113-.13.007-.008.01.001.171.02-.087-.147-.006-.01.005-.009.072-.156-.168.038ZM9.966 5.689l-.01.002-.008-.007-.126-.117-.016.172-.001.01-.01.005-.15.084.159.068.01.004.001.01.034.17.113-.13.007-.008.01.001.171.02-.087-.147-.006-.01.005-.009.072-.156-.168.038ZM10.606 5.689l-.01.002-.008-.007-.127-.117-.015.172-.001.01-.01.005-.15.084.159.068.01.004.001.01.034.17.113-.13.007-.008.01.001.171.02-.087-.147-.006-.01.005-.009.072-.156-.168.038ZM11.246 5.689l-.01.002-.008-.007-.127-.117-.015.172-.001.01-.01.005-.15.084.159.068.01.004.001.01.034.17.113-.13.007-.008.01.001.171.02-.087-.147-.006-.01.005-.009.072-.156-.168.038ZM11.886 5.689l-.01.002-.008-.007-.127-.117-.015.172-.001.01-.01.005-.15.084.159.068.01.004.001.01.034.17.113-.13.007-.008.01.001.171.02-.087-.147-.006-.01.005-.009.072-.156-.168.038ZM12.526 5.689l-.01.002-.008-.007-.126-.117-.016.172-.001.01-.01.005-.15.084.159.068.01.004.001.01.034.17.113-.13.007-.008.01.001.171.02-.087-.147-.006-.01.005-.009.072-.156-.168.038Z" fill="#ffd500" stroke="#000" stroke-width=".04"/><path d="M9.64 6.44h2.48v1.88a1.24 1.24 0 0 1-2.48 0V6.44Z" stroke="#373737" stroke-width=".08"/><path d="M10.705 7.654s-.13 1.514-.258 1.606c-.129.092.618.137.689.069.071-.07-.326-1.303-.19-1.675.137-.372.357-.402.357-.402s-.277-.058-.356.053c-.08.112-.316-.053-.316-.053l.074.402Z" fill="#6F3E1D"/><path d="M10.677 7.569h-.1s-.067.263-.221.131c-.154-.131-.372-.085-.372-.085s.02-.157.256-.22c.237-.062.337-.57.337-.57s.335-.125.54.13c.203.256.49.147.49.147s.21.12.105.293c-.105.174-.284.3-.44.174-.156-.127-.595 0-.595 0Z" fill="#009D29"/></svg>