<svg xmlns="http://www.w3.org/2000/svg" width="20" height="15" fill="transparent" viewBox="0 0 20 15"><g clip-path="url(#a)"><mask id="b" width="20" height="15" x="0" y="0" maskUnits="userSpaceOnUse" style="mask-type:luminance"><path fill="#fff" d="M0 0h20v15H0z"/></mask><g mask="url(#b)"><path fill="#F7FCFF" fill-rule="evenodd" d="M0 0v15.36h20.48V0H0Z" clip-rule="evenodd"/><mask id="c" width="21" height="16" x="0" y="0" maskUnits="userSpaceOnUse" style="mask-type:luminance"><path fill="#fff" fill-rule="evenodd" d="M0 0v15.36h20.48V0H0Z" clip-rule="evenodd"/></mask><g fill-rule="evenodd" clip-rule="evenodd" mask="url(#c)"><path fill="#009D00" d="M0 0v5.12h20.48V0H0Z"/><path fill="#fff" d="M0 5.12v5.12h20.48V5.12H0Z"/><path fill="#F80000" d="M0 10.24v5.12h20.48v-5.12H0Z"/></g><path fill="#0075D5" fill-rule="evenodd" d="M0 0v15.36l5.12-7.583L0 0Z" clip-rule="evenodd"/><path fill="#FFD500" stroke="#000" stroke-width=".04" d="m9.326 5.689-.01.002-.008-.007-.126-.117-.016.172-.001.01-.01.005-.15.084.159.068.01.004.001.01.034.17.113-.13.007-.008.01.002.172.02-.088-.148-.006-.01.005-.009.072-.156-.168.038Zm.64 0-.01.002-.008-.007-.126-.117-.016.172-.001.01-.01.005-.15.084.159.068.01.004.001.01.034.17.113-.13.007-.008.01.002.171.02-.087-.148-.006-.01.005-.009.072-.156-.168.038Zm.64 0-.01.002-.008-.007-.126-.117-.016.172-.001.01-.01.005-.15.084.159.068.01.004.001.01.034.17.113-.13.007-.008.01.002.172.02-.088-.148-.006-.01.005-.009.072-.156-.168.038Zm.64 0-.01.002-.008-.007-.127-.117-.015.172-.001.01-.01.005-.15.084.159.068.01.004.001.01.034.17.113-.13.007-.008.01.002.171.02-.087-.148-.006-.01.005-.009.072-.156-.168.038Zm.64 0-.01.002-.008-.007-.126-.117-.016.172-.001.01-.01.005-.15.084.159.068.01.004.001.01.034.17.114-.13.006-.008.01.002.172.02-.088-.148-.006-.01.005-.009.072-.156-.168.038Zm.64 0-.01.002-.008-.007-.126-.117-.016.172-.001.01-.01.005-.15.084.159.068.01.004.001.01.034.17.113-.13.007-.008.01.002.171.02-.087-.148-.006-.01.005-.009.072-.156-.168.038Z"/><path stroke="#373737" stroke-width=".08" d="M9.64 6.44h2.48v1.88a1.24 1.24 0 0 1-2.48 0V6.44Z"/><path fill="#6F3E1D" fill-rule="evenodd" d="M10.705 7.654s-.13 1.514-.258 1.606c-.13.092.617.137.689.069.071-.07-.326-1.303-.19-1.675.137-.372.357-.402.357-.402s-.277-.058-.356.053c-.08.112-.316-.053-.316-.053l.074.402Z" clip-rule="evenodd"/><path fill="#009D29" fill-rule="evenodd" d="M10.677 7.569h-.1s-.067.263-.221.131c-.155-.131-.372-.085-.372-.085s.02-.157.256-.22c.237-.062.337-.57.337-.57s.335-.125.54.13c.203.256.49.147.49.147s.21.12.105.293c-.105.174-.284.3-.44.174-.156-.127-.595 0-.595 0Z" clip-rule="evenodd"/></g></g><defs><clipPath id="a"><rect width="20" height="15" fill="#fff" rx="2"/></clipPath></defs></svg>