<svg viewBox="0 0 20 15" fill="none" xmlns="http://www.w3.org/2000/svg"><path d="M0 0h20v15H0V0Z" fill="#2B409A"/><path d="M15.2 11.6a.82.82 0 0 1-.18-.08s-.1.16-.15.17c-.06 0-.33-.1-.33-.1s-.2.15-.24.14l-.48-.1-.24-.15-.14.2-.4-.07.12-.17a.3.3 0 0 0-.06-.02l-.09.07-.35.03.08-.24.14-.21 1.7-1.62.85 1.52-.13.45s-.06.17-.1.17Z" fill="#6A4C2D"/><path d="M13.57 11.29c.06.07.84.87.97 1.25s-1.03-.1-1.03-.1 1.45-.95 2.18-.95c.73 0 2.16.94 2.16.94s-.96.68-.95.25c0-.42.45-1.26.98-1.4" stroke="#fb0" stroke-width=".5" stroke-linecap="round" stroke-linejoin="round"/><path d="m18.46 11.35-.24-.09-.2-.28-.88-.06-.8-.22-.34.22.18.24.44.16 1.84.03Z" fill="#f7fcff"/><path d="M14.96 6.17c.01.02.19-.02.23.09.19-.29.42-.02.42-.02l.19-.22.21.2.2-.01.2.48-1.62-.03s.16-.51.17-.5ZM16.64 8.22c0-.15-.14-.17-.22-.16a.27.27 0 0 0-.14.06l-.25-.15s.12-.77.25-.82c.13-.1.15-.13.15-.15a.5.5 0 0 0-.04-.1l-.82-.1-.77.1s-.06.11-.05.15c0 .03 0 .07.14.18.16.11.26.77.26.77l-.23.1c-.01-.02-.07-.03-.1-.03a.2.2 0 0 0-.16.21c0 .15.12.23.12.23s.74.54.84.74c.11-.24.81-.78.9-.82.03-.02.14-.06.12-.2Z" fill="#656263"/><path d="M17.38 7.5c.06-.04.47-.06.57 0 .1.06.13.36.13.36s.07.1.07.18l.01.12s.33.42.33.8c.04.25.03.93-.07 1.2 0 .31-.14.53-.14.53s.03.05.02.11c0 .06-.03.12-.03.12l-.3.13-.35-.06-.38-1.12.09-1.9.02-.09-.04-.26s.01-.08.07-.12Z" fill="#000"/><path d="M15.16 8.5s.42 0 .46.13c.08-.18.44-.17.44-.17l.65-.02v1.53c-.12.6-.56 1.01-1.04 1.19a1.58 1.58 0 0 1-1.06-1.2l-.07-1.45.62-.01Z" fill="#f7fcff"/><path d="m14.76 8.5.91 2.37.83-2.42c-.26.02-.8-.04-.88.19-.1-.2-.68-.12-.86-.14Z" fill="#006B00"/><path d="M15.82 8.67s.08.22 0 .33c-.09.1 0 .2.05.2s.23.16.09.16-.22-.05-.22.1c0 .15.3 1.08.26.88-.04-.2-.09-.16-.09-.33 0-.18.05-.38.05-.38s.07.06.02.26-.3.5-.35.5c-.06.01-.15.1-.17-.07 0-.17-.06-.25-.02-.28.04-.03.1-.15.11-.06.02.1-.06.18-.04.22 0 .03.01.1.07.04.05-.06.08-.17.12-.07.03.1.03.02-.04-.16-.08-.2-.15-.3-.14-.46v-.28c.02-.05-.14-.3-.1-.38.04-.08.06-.32.1-.27.06.04.08.1.06.16-.03.07-.05.13-.03.17.03.05.11.17.13.14.02-.03.07 0 .07-.18s-.06-.24-.02-.28c.04-.04.09.04.09.04Z" fill="#ffd100"/><path d="M16.5 8.45h.12l-.22.27.27.3-.52.64.49.57c-.06.13-.12.25-.2.35l-.28-.3.5-.62-.41-.46.25-.75Zm-1.89.05.25.27-.26.31.54.58-.45.59c.06.12.13.27.22.37l.26-.33-.54-.59.4-.5-.28-.7h-.14Z" fill="#1E5AA6"/><path d="m15.35 10.05-.19.25.7.78c.11-.06.2-.13.31-.21l-.36-.4.15-.43.21.24-.66.82a1.45 1.45 0 0 1-.34-.2l.35-.44-.17-.41Z" fill="#1E5AA6"/><path d="M17.74 8.03c0 .04.04 2.4.1 2.37.11-.05.14.07.14.07s.04.39-.06.44c-.19.1-.27.12-.27.12l-.17-.13s-.18-.25-.23-.37a3.1 3.1 0 0 1-.07-.71 8.85 8.85 0 0 0 0-1.41l.14-.43s.42.01.42.05Z" fill="url(#c)"/><path d="M17.33 7.63c.09 0 .15.07.17.13v.1c0 .06-.62.02-.63.01 0 0 .3-.27.46-.24Z" fill="#ff7000"/><path d="M17.73 7.8a.05.05 0 1 1-.1 0 .05.05 0 0 1 .1 0Z" fill="#000"/><path d="M16.14 7.44s.32.35.53.34c.04.1-.1.2-.15.24-.1-.03-.2 0-.45-.29.02-.2.07-.28.07-.29Zm1.29-1.73c.03.22.55.5.7.3-.02.1.01.35-.78.34.3.28-.3.58-.46.51.3-.23-.09-.37-.31-.22.04-.12.35-.76.85-.93Z" fill="#f7fcff"/><path d="M16.9 7.26c-.05-.24-.08-.52.05-.63-.17-.11-.36 0-.36 0l-.01.02c-.04.06-.17.24.01.57-.49-.12-.29.32-.25.35.02-.07.28-.13.35.23.02.07-.11.18-.16.21v.01s.4.09.46-.46a.85.85 0 0 0 .4-.75c-.31.01-.45.36-.48.45Z" fill="#00F"/><path d="M15.05 7.54s-.31.27-.5.18c-.13.08-.28-.06-.28-.06s.18.67.84.19c-.01-.15-.05-.3-.06-.31Z" fill="#f7fcff"/><path d="M14.55 7.71c.03-.14.14-.2.23-.07.12.02.24-.46-.18-.38.11-.62-.24-.85-.24-.85s-.13.69-.07.82c.06.12-.08-.24-.54-.34 0 .52.5.76.5.76s.15.13.3.06Z" fill="#00F"/><path d="M14.12 6.96c-.13.04-.46-.15-.25-.4-.68-.02-1.05-.6-.82-.49.23.11.39-.12.55 0-.2-.18.08-.33.08-.33s.58.17.68.67c-.04.1-.05.27-.06.26 0 0-.36 0-.18.3Z" fill="#f7fcff"/><path d="M15.42 4.67c-.06.19-.3.12-.3.12s.02.1 0 .14c.01.01.15.11.3.14.2.04.62-.07.76.1.14.15.13.28.13.28s-.18.02-.13.08c.03.04.13.08.13.12.03.14-.08.39-.04.48-.07 0-.07.07-.07.07 0 .08-.19.03-.19.03s.12-.29.12-.35c.01-.07-.08-.2-.15-.2-.06 0-.11.22-.11.22s-.04.16-.03.18l-.04-.05-.05.1c-.03.04-.08.06-.08.06s-.03-.1-.02-.13c0-.04.19-.18.17-.29 0-.05-.01-.13-.07-.15-.07-.04-.2-.01-.29-.03-.04.08-.06.5-.03.52.03.03-.08.08-.08.08h-.13c0-.05.08-.2.08-.33v-.28s-.08.03-.12.1a.49.49 0 0 0-.04.23c.01.04.05.16.04.19-.01.03-.21.08-.21.08l-.01-.11s.08-.05.08-.18v-.33s-.06-.3-.15-.49c-.06-.13-.15-.19-.15-.2l-.01-.05s-.13.09-.28-.1c.14-.12.28-.03.28-.03s.04-.1.22-.1c.17 0 .2.1.2.1s.13-.12.27-.02Z" fill="#923F00"/><path d="m14.77 7.1.8.52.73-.48s.15-.08.14-.14c-.02-.06-.07-.04-.1-.03l-.75.52-.78-.48s-.06-.02-.07.02c-.01.03.02.05.03.07Z" fill="#b4b6b9"/><path d="M17.47 10.9s-.3-.03-.26.06c.03.05.43.04.43.04l-.17-.1Z" fill="#ff7000"/><path d="m17.6 11-.3.02-.09.08c0 .02.05.03.05.03s.33.08.57.02c.12-.04.15-.09.06-.12s-.28-.02-.28-.02Z" fill="#ff7000"/><path d="M14 8.12s-.05.12 0 .19l.3.56s.17-.2.23-.21c.06 0 .03.54.03.54s-.1.1-.16.1c-.07-.01.15.21.15.4 0 .19-.3 1.12-.4 1.13-.1.02-.2-.17-.2-.34 0-.16.11-.43.1-.5 0-.08-.51.79-.54.92l.02.12s-.2.02-.15.28c-.6-.2-.89-.56-.88-.92 0-.14-.13-.46 0-.82.2-.57.71-1.22.72-1.29 0-.1.04-.14.05-.2 0-.06-.02-.35.04-.4.06-.05.36-.17.43-.17.08 0 .14.06.14.06s.29 0 .3.1c.02.11-.05.15-.05.15s.04.16-.14.3Z" fill="#8A9396"/><path d="M14.16 11.34c.1.07.32.1.32.1s-.54.15-1.1-.13c-.05-.22.12-.27.16-.27.1-.03.53.23.62.3Z" fill="#2B2B2B"/><path d="M14.83 11.32c.6.31.66.1 1.07-.2.03-.02.17.48.74.2.82-.4-.7-1.08-.91-1.06-.21.01-1.5.74-.9 1.06Z" fill="#00713D"/><path d="M14.81 4.64s-.27-.36-.27-.45m.5.45s.27-.36.27-.45" stroke="#CDAD56" stroke-width=".25" stroke-linecap="round"/><path fill="#2B409A" d="M0 0h11.25v8.75H0z"/><mask id="a" maskUnits="userSpaceOnUse" x="0" y="0" width="12" height="9"><path fill="#fff" d="M0 0h11.25v8.75H0z"/></mask><g mask="url(#a)"><path d="m-1.25 8.12 2.47 1.1 10.09-8.04 1.3-1.61L9.96-.8l-4.1 3.46L2.53 5l-3.8 3.12Z" fill="#f7fcff"/><path d="m-.91 8.89 1.26.63 11.8-10.1h-1.78L-.9 8.89Z" fill="#f50100"/><path d="m12.5 8.12-2.47 1.1L-.06 1.17l-1.3-1.61L1.29-.8l4.1 3.46L8.72 5l3.8 3.12Z" fill="#f7fcff"/><path d="m12.42 8.67-1.26.63-5.03-4.32-1.48-.49L-1.5-.43H.28l6.13 4.8 1.63.59 4.38 3.71Z" fill="#f50100"/><mask id="b" maskUnits="userSpaceOnUse" x="-1" y="-1" width="14" height="11" fill="#000"><path fill="#fff" d="M-1-1h14v11H-1z"/><path d="M6.24 0H4.99v3.75H0V5h4.99v3.75h1.25V5h5.01V3.75H6.24V0Z"/></mask><path d="M6.24 0H4.99v3.75H0V5h4.99v3.75h1.25V5h5.01V3.75H6.24V0Z" fill="#f50100"/><path d="M4.99 0v-.94h-.94V0H5Zm1.25 0h.94v-.94h-.94V0ZM4.99 3.75v.94h.94v-.94h-.94ZM0 3.75v-.94h-.94v.94H0ZM0 5h-.94v.94H0V5Zm4.99 0h.94v-.94h-.94V5Zm0 3.75h-.94v.94H5v-.94Zm1.25 0v.94h.94v-.94h-.94Zm0-3.75v-.94H5.3V5h.94Zm5.01 0v.94h.94V5h-.94Zm0-1.25h.94v-.94h-.94v.94Zm-5.01 0H5.3v.94h.94v-.94ZM4.99.94h1.25V-.94H4.99V.94Zm.94 2.81V0H4.05v3.75h1.88ZM0 4.69h4.99V2.8H0v1.9ZM.94 5V3.75H-.94V5H.94Zm4.05-.94H0v1.88h4.99V4.06Zm.94 4.69V5H4.05v3.75h1.88Zm.31-.94H4.99V9.7h1.25V7.8ZM5.3 5v3.75h1.88V5H5.3Zm5.95-.94H6.24v1.88h5.01V4.06Zm-.94-.31V5h1.88V3.75H10.3Zm-4.07.94h5.01V2.8H6.24v1.9ZM5.3 0v3.75h1.88V0H5.3Z" fill="#f7fcff" mask="url(#b)"/></g></svg>