<svg viewBox="0 0 20 15" fill="none" xmlns="http://www.w3.org/2000/svg"><path d="M14 0h6v15h-6V0ZM0 0h6v15H0V0Z" fill="#58A5FF"/><path d="M6 0h8v15H6V0Z" fill="#fff"/><path d="m7.98 10.65-.46-.43 4.8-5.08.46.43-4.8 5.08Z" fill="#C6C6C6"/><path d="M8.12 5.07s-1.54.92-1.54 3.25 3.74 2.64 3.74 2.64S8.08 9.6 7.8 8.62c-.3-.98.33-3.55.33-3.55Z" fill="#5ab92d"/><path d="M11.9 5.07s1.55.92 1.55 3.25-3.75 2.64-3.75 2.64 2.36-1.35 2.69-2.64c.33-1.29-.48-3.25-.48-3.25Z" fill="#5ab92d"/><path d="m9.25 4.75.63.06c-.02.22.1.45.4.7.99.8 1.51 1.78 1.1 2.9-.3.82-.7 1.5-1.22 2.07l-.46-.43a5.5 5.5 0 0 0 1.1-1.85c.29-.8-.11-1.56-.9-2.2-.46-.37-.69-.8-.65-1.25Z" fill="#5ab92d"/><path d="m8.86 6.13.65 1.85h-.48s-.17.59.16.59h2.01s.22-.15.11-.59c-.1-.43-.66-1.64-.66-1.64s.24-.2.24-.35c0-.15-.24-.17-.24-.17h-1.5c-.19.03-.3.31-.3.31Z" fill="#efe298"/></svg>