<svg xmlns="http://www.w3.org/2000/svg" width="20" height="15" fill="transparent" viewBox="0 0 20 15"><g clip-path="url(#a)"><mask id="b" width="20" height="15" x="0" y="0" maskUnits="userSpaceOnUse" style="mask-type:luminance"><path fill="#fff" d="M0 0h20v15H0z"/></mask><g mask="url(#b)"><path fill="#58A5FF" fill-rule="evenodd" d="M14 0h6v15h-6V0ZM0 0h6v15H0V0Z" clip-rule="evenodd"/><path fill="#fff" fill-rule="evenodd" d="M6 0h8v15H6V0Z" clip-rule="evenodd"/><path fill="#C6C6C6" d="m7.978 10.648-.454-.429 4.804-5.08.454.43-4.804 5.08Z"/><path fill="#5AB92D" fill-rule="evenodd" d="M8.115 5.066s-1.538.928-1.538 3.255 3.745 2.642 3.745 2.642-2.24-1.367-2.534-2.345c-.293-.979.327-3.552.327-3.552Z" clip-rule="evenodd"/><path fill="#5AB92D" fill-rule="evenodd" d="M11.909 5.066s1.538.928 1.538 3.255-3.745 2.642-3.745 2.642 2.355-1.35 2.685-2.642c.33-1.291-.478-3.255-.478-3.255Z" clip-rule="evenodd"/><path fill="#5AB92D" d="m9.255 4.75.622.056c-.02.226.103.455.407.702.98.793 1.508 1.782 1.095 2.906-.3.815-.707 1.504-1.222 2.063l-.46-.423c.458-.497.823-1.114 1.095-1.856.297-.807-.105-1.56-.9-2.204-.454-.367-.679-.786-.637-1.244Z"/><path fill="#EFE298" fill-rule="evenodd" d="m8.859 6.13.655 1.854h-.482s-.173.585.155.585h2.017s.22-.146.11-.585c-.11-.438-.665-1.648-.665-1.648s.237-.2.237-.35c0-.149-.237-.165-.237-.165H9.152c-.19.033-.293.31-.293.31Z" clip-rule="evenodd"/></g></g><defs><clipPath id="a"><rect width="20" height="15" fill="#fff" rx="2"/></clipPath></defs></svg>