<svg xmlns="http://www.w3.org/2000/svg" width="20" height="15" fill="transparent" viewBox="0 0 20 15"><g clip-path="url(#a)"><mask id="b" width="20" height="15" x="0" y="0" maskUnits="userSpaceOnUse" style="mask-type:luminance"><path fill="#fff" d="M0 0h20v15H0z"/></mask><g mask="url(#b)"><path fill="#C51918" fill-rule="evenodd" d="M0 0h20v15H0V0Z" clip-rule="evenodd"/><path fill="#4564F9" fill-rule="evenodd" d="M2 2h16v11H2V2Z" clip-rule="evenodd"/><path stroke="#CBDAFF" stroke-opacity=".12" stroke-width="1.25" d="M2.625 2.625h14.75v9.75H2.625v-9.75Z"/><mask id="c" width="16" height="11" x="2" y="2" maskUnits="userSpaceOnUse" style="mask-type:luminance"><path fill="#fff" fill-rule="evenodd" d="M2 2h16v11H2V2Z" clip-rule="evenodd"/><path stroke="#fff" stroke-width="1.25" d="M2.625 2.625h14.75v9.75H2.625v-9.75Z"/></mask><g mask="url(#c)"><path fill="#CCE0E5" stroke="#6D87FB" stroke-width="1.813" d="m10.25 3 .406-.81-.415-.208-.412.215.421.803Zm0 0 .407-.81.002.001.004.002.011.006.036.019c.03.016.072.038.123.067a9.148 9.148 0 0 1 1.655 1.201c.886.814 1.918 2.124 1.918 3.855 0 1.715-1.016 3.1-1.885 3.982a10.411 10.411 0 0 1-1.753 1.422l-.035.022-.011.007-.004.002h-.001v.001L10.25 12m0-9c-.421-.803-.421-.802-.422-.802h-.002l-.003.003-.011.006-.036.02-.122.068a9.584 9.584 0 0 0-1.646 1.223c-.877.816-1.914 2.126-1.914 3.823 0 1.68 1.02 3.065 1.881 3.95a10.921 10.921 0 0 0 1.745 1.446l.035.022.01.007.004.002h.001v.001l.48-.769m0 0 .466.777-.475.285-.47-.293.479-.769Z" opacity=".4"/><path fill="#CCE0E5" d="m10.25 3.773.43-.798-.44-.236-.434.244.444.79Zm0 0 .43-.798.002.001.003.002.01.005.03.017.1.058a7.306 7.306 0 0 1 1.311 1.02c.702.693 1.52 1.808 1.52 3.277 0 1.454-.804 2.627-1.488 3.374a8.394 8.394 0 0 1-1.384 1.203l-.03.02-.009.005-.003.002-.001.001c-.001 0-.001.001-.491-.762m0-7.425-.445-.79-.002.002-.003.002-.01.005-.03.017a6.888 6.888 0 0 0-.425.278 7.667 7.667 0 0 0-.975.82c-.694.692-1.516 1.806-1.516 3.248 0 1.426.808 2.6 1.485 3.346a8.816 8.816 0 0 0 1.375 1.222l.028.02.01.006.003.002.001.001.504-.754m0 0 .49.763-.5.32-.493-.329.503-.754Z"/><path stroke="#C1C9F1" stroke-opacity=".748" stroke-width="1.813" d="m10.25 3.773.43-.798-.44-.236-.434.244.444.79Zm0 0 .43-.798.002.001.003.002.01.005.03.017.1.058a7.306 7.306 0 0 1 1.311 1.02c.702.693 1.52 1.808 1.52 3.277 0 1.454-.804 2.627-1.488 3.374a8.394 8.394 0 0 1-1.384 1.203l-.03.02-.009.005-.003.002-.001.001c-.001 0-.001.001-.491-.762m0-7.425-.445-.79-.002.002-.003.002-.01.005-.03.017a6.888 6.888 0 0 0-.425.278 7.667 7.667 0 0 0-.975.82c-.694.692-1.516 1.806-1.516 3.248 0 1.426.808 2.6 1.485 3.346a8.816 8.816 0 0 0 1.375 1.222l.028.02.01.006.003.002.001.001.504-.754m0 0 .49.763-.5.32-.493-.329.503-.754Z"/><path stroke="#C51918" stroke-width="1.813" d="m10.25 3.773.43-.798-.44-.236-.434.244.444.79Zm0 0 .43-.798.002.001.003.002.01.005.03.017.1.058a7.306 7.306 0 0 1 1.311 1.02c.702.693 1.52 1.808 1.52 3.277 0 1.454-.804 2.627-1.488 3.374a8.394 8.394 0 0 1-1.384 1.203l-.03.02-.009.005-.003.002-.001.001c-.001 0-.001.001-.491-.762m0-7.425-.445-.79-.002.002-.003.002-.01.005-.03.017a6.888 6.888 0 0 0-.425.278 7.667 7.667 0 0 0-.975.82c-.694.692-1.516 1.806-1.516 3.248 0 1.426.808 2.6 1.485 3.346a8.816 8.816 0 0 0 1.375 1.222l.028.02.01.006.003.002.001.001.504-.754m0 0 .49.763-.5.32-.493-.329.503-.754Z"/><mask id="d" width="6" height="9" x="7" y="3" maskUnits="userSpaceOnUse" style="mask-type:luminance"><path fill="#fff" d="M10.832 9.503c-.2.218-.4.404-.575.552a6.895 6.895 0 0 1-.586-.572c-.573-.631-1.015-1.38-1.015-2.128 0-.734.428-1.41.984-1.965.216-.216.434-.395.618-.533.18.132.394.305.606.513.548.54.98 1.216.98 1.985 0 .783-.446 1.532-1.012 2.148Z"/><path stroke="#fff" stroke-width="1.813" d="M10.832 9.503c-.2.218-.4.404-.575.552a6.895 6.895 0 0 1-.586-.572c-.573-.631-1.015-1.38-1.015-2.128 0-.734.428-1.41.984-1.965.216-.216.434-.395.618-.533.18.132.394.305.606.513.548.54.98 1.216.98 1.985 0 .783-.446 1.532-1.012 2.148Z"/></mask><g mask="url(#d)"><path fill="#91CBCB" d="M8.083 8.75h4.667v.938H8.083z"/><path fill="#FDF9A1" fill-rule="evenodd" d="M8.501 9.499s3.309 0 3.613-.113c.304-.114-.571 2.192-1.69 2.192-1.117 0-1.923-2.08-1.923-2.08Z" clip-rule="evenodd"/><path fill="#A68861" d="m11.621 9.222-.594.457c-.937-1.217-1.33-2.477-1.162-3.762l.743.097c-.14 1.077.192 2.14 1.013 3.208Z"/><path fill="#239E46" fill-rule="evenodd" d="m10.246 6.023-.567.664c-.021.025-.062.005-.054-.027l.195-.829h-.887c-.034 0-.044-.046-.013-.06l.758-.332-.538-.709c-.019-.025.007-.06.036-.048l.846.33.194-.777c.007-.032.052-.032.06 0l.192.777.839-.327a.032.032 0 0 1 .035.05l-.58.704.801.332c.032.013.022.06-.012.06h-.79l.12.848c.005.031-.034.049-.054.025l-.581-.681ZM9.75 8.125h3v.656h-3v-.656Z" clip-rule="evenodd"/><path fill="#C51918" fill-rule="evenodd" d="M9.295 7.745h-.003a.137.137 0 0 1-.063.08.24.24 0 0 1-.13.033.293.293 0 0 1-.118-.024.247.247 0 0 1-.092-.067.323.323 0 0 1-.06-.112.497.497 0 0 1-.02-.153c0-.057.006-.108.02-.152a.309.309 0 0 1 .06-.111.258.258 0 0 1 .094-.069.306.306 0 0 1 .122-.023.28.28 0 0 1 .157.041.276.276 0 0 1 .097.11l-.069.04a.194.194 0 0 0-.071-.086.2.2 0 0 0-.114-.031.212.212 0 0 0-.084.016.191.191 0 0 0-.108.117.27.27 0 0 0-.015.092v.111c0 .034.005.065.015.093a.187.187 0 0 0 .11.117.247.247 0 0 0 .158.007.17.17 0 0 0 .058-.028.132.132 0 0 0 .052-.113v-.068h-.154v-.073h.236v.354h-.078v-.1Zm.522-.586v.425c0 .066.012.115.037.15.025.033.068.05.13.05s.105-.017.13-.05a.251.251 0 0 0 .037-.15v-.425h.084v.405c0 .05-.004.093-.013.13a.226.226 0 0 1-.044.092.179.179 0 0 1-.078.054.347.347 0 0 1-.119.018.339.339 0 0 1-.117-.018.172.172 0 0 1-.077-.054.224.224 0 0 1-.041-.092.593.593 0 0 1-.013-.13V7.16h.084Zm1.223.687-.07-.203h-.282l-.07.203h-.085l.244-.687h.107l.244.687h-.088Zm-.209-.61h-.005l-.118.334h.241l-.118-.335Zm1.157.03h-.005l-.059.116-.167.3-.167-.3-.059-.115h-.005v.579h-.082v-.687h.112l.2.37h.005l.201-.37h.108v.687h-.082v-.58Z" clip-rule="evenodd"/></g></g></g></g><defs><clipPath id="a"><rect width="20" height="15" fill="#fff" rx="2"/></clipPath></defs></svg>