<svg viewBox="0 0 20 15" fill="none" xmlns="http://www.w3.org/2000/svg"><path d="M0 0v15h20V0H0Z" fill="#ea1a1a"/><path d="M9.92 7.23s-3.62-3.22.7-5.1c0 0 1.25 1.38.31 2.94-.3.5-.57.87-.76 1.15-.4.56-.53.74-.25 1.01ZM4.58 4.92c-.25 4.7 4.25 2.9 4.25 2.9-.37.14-.47-.06-.8-.67-.15-.3-.36-.7-.68-1.2-.97-1.54-2.77-1.03-2.77-1.03Zm6.82 2.47s4.64 1.4 1.53 4.92c0 0-1.73-.72-1.53-2.53.06-.59.14-1.03.2-1.36.13-.68.17-.9-.2-1.03Zm-1.22 1.09s.83 4.77-3.72 3.57c0 0-.13-1.87 1.58-2.5.56-.21.99-.34 1.31-.43.66-.19.88-.25.83-.64Zm5.74-2.06c-2.84-3.75-5.12.53-5.12.53.2-.34.4-.26 1.04 0 .32.12.73.3 1.3.47 1.73.55 2.78-1 2.78-1Z" fill="#fff"/><path d="M6.35 6.38s.91 1.43 2.4 1.43M9.91 4.4S9.1 5.92 9.8 7.24m4.02-1.14s-1.9-.29-2.9.82M12.7 9.6s-.38-1.9-1.76-2.46M8.7 10.62s1.65-1 1.7-2.5" stroke="#ea1a1a" stroke-width=".63"/></svg>