<svg viewBox="0 0 20 15" fill="none" xmlns="http://www.w3.org/2000/svg"><path d="M0 0h20v15H0V0Z" fill="#2e42a5"/><path fill="#2e42a5" d="M0 0h11v9H0z"/><mask id="a" maskUnits="userSpaceOnUse" x="0" y="0" width="11" height="9"><path fill="#fff" d="M0 0h11v9H0z"/></mask><g mask="url(#a)"><path d="M-1.253 8.125 1.223 9.21l10.083-8.03 1.306-1.614-2.647-.363-4.113 3.46-3.31 2.332-3.795 3.129Z" fill="#f7fcff"/><path d="m-.914 8.886 1.261.63L12.143-.583h-1.77L-.915 8.886Z" fill="#f50100"/><path d="M12.503 8.125 10.306 9.52-.056 1.18-1.362-.434l2.647-.363 4.113 3.46 3.31 2.332 3.795 3.129Z" fill="#f7fcff"/><path d="m12.418 8.67-1.261.63-5.023-4.323-1.489-.483-6.133-4.921H.283l6.13 4.804 1.628.58 4.377 3.714Z" fill="#f50100"/><mask id="b" maskUnits="userSpaceOnUse" x="-1" y="-1" width="13" height="11" fill="#000"><path fill="#fff" d="M-1-1h13v11H-1z"/><path d="M6 0H5v4H0v1h5v4h1V5h5V4H6V0Z"/></mask><path d="M6 0H5v4H0v1h5v4h1V5h5V4H6V0Z" fill="#f50100"/><path d="M5 0v-.938h-.938V0H5Zm1 0h.938v-.938H6V0ZM5 4v.938h.938V4H5ZM0 4v-.938h-.938V4H0Zm0 1h-.938v.938H0V5Zm5 0h.938v-.938H5V5Zm0 4h-.938v.938H5V9Zm1 0v.938h.938V9H6Zm0-4v-.938h-.938V5H6Zm5 0v.938h.938V5H11Zm0-1h.938v-.938H11V4ZM6 4h-.938v.938H6V4ZM5 .937h1V-.938H5V.938ZM5.938 4V0H4.063v4h1.875ZM0 4.938h5V3.063H0v1.874ZM.938 5V4H-.938v1H.938ZM5 4.062H0v1.875h5V4.063ZM5.938 9V5H4.063v4h1.875ZM6 8.062H5v1.876h1V8.062ZM5.062 5v4h1.875V5H5.063ZM11 4.062H6v1.875h5V4.063ZM10.062 4v1h1.876V4h-1.876ZM6 4.938h5V3.063H6v1.874ZM5.062 0v4h1.875V0H5.063Z" fill="#f7fcff" mask="url(#b)"/></g><path d="m5.92 12.278-.82.758.081-1.113-1.104-.17.922-.63-.557-.968 1.068.327.41-1.039.41 1.039 1.068-.327-.557.968.922.63-1.104.17.081 1.113-.82-.758ZM13.24 8.297l-.547.505.054-.743-.735-.112.614-.42-.371-.646.712.218.273-.692.273.692.712-.218-.37.645.613.421-.736.112.055.743-.547-.505ZM14.52 2.963l-.547.506.054-.743-.735-.112.614-.42-.371-.646.712.218.273-.693.273.693.712-.218-.37.645.613.42-.735.113.054.743-.547-.506ZM17.72 5.63l-.547.505.055-.742-.736-.113.614-.42-.371-.646.712.218.273-.692.273.692.712-.218-.37.646.613.42-.735.113.054.742-.547-.505ZM15.16 13.297l-.547.505.055-.742-.736-.113.614-.42-.371-.646.712.218.273-.692.273.692.712-.218-.37.646.613.42-.735.113.054.742-.547-.505ZM17.4 9.14l-.555.291.106-.618-.45-.438.621-.09.278-.563.278.562.62.09-.449.439.107.618-.556-.292Z" fill="#f7fcff"/></svg>