<svg xmlns="http://www.w3.org/2000/svg" width="20" height="15" fill="transparent" viewBox="0 0 20 15"><g clip-path="url(#a)"><mask id="b" width="20" height="15" x="0" y="0" maskUnits="userSpaceOnUse" style="mask-type:luminance"><path fill="#fff" d="M0 0h20v15H0z"/></mask><g mask="url(#b)"><path fill="#F7FCFF" fill-rule="evenodd" d="M0 0v15h20V0H0Z" clip-rule="evenodd"/><mask id="c" width="20" height="15" x="0" y="0" maskUnits="userSpaceOnUse" style="mask-type:luminance"><path fill="#fff" fill-rule="evenodd" d="M0 0v15h20V0H0Z" clip-rule="evenodd"/></mask><g fill="#4564F9" fill-rule="evenodd" clip-rule="evenodd" mask="url(#c)"><path d="M0 0v5h20V0H0Zm0 10v5h20v-5H0Zm10.511-1.793-.734.387.14-.818-.594-.64h.821l.367-.804.368.804h.821l-.594.64.14.818-.735-.387Zm-3.75-1.25-.734.387.14-.818-.594-.64h.821l.367-.804.368.804h.821l-.594.64.14.818-.735-.387Zm0 2.5-.734.387.14-.818-.594-.64h.821l.367-.804.368.804h.821l-.594.64.14.818-.735-.387Zm7.5-2.5-.734.387.14-.818-.595-.64h.822l.367-.804.368.804h.821l-.594.64.14.818-.735-.387Zm0 2.5-.734.387.14-.818-.595-.64h.822l.367-.804.368.804h.821l-.594.64.14.818-.735-.387Z"/></g></g></g><defs><clipPath id="a"><rect width="20" height="15" fill="#fff" rx="2"/></clipPath></defs></svg>