<svg viewBox="0 0 20 15" fill="none" xmlns="http://www.w3.org/2000/svg"><path d="M0 0v15h20V0H0Z" fill="#f7fcff"/><path d="M0 0v5h20V0H0ZM0 10v5h20v-5H0ZM10.511 8.207l-.734.387.14-.818-.595-.64h.822l.367-.804.368.805h.821l-.594.639.14.818-.735-.387ZM6.761 6.957l-.734.387.14-.818-.595-.64h.822l.367-.804.368.805h.821l-.594.639.14.818-.735-.387ZM6.761 9.457l-.734.387.14-.818-.595-.64h.822l.367-.804.368.805h.821l-.594.639.14.818-.735-.387ZM14.261 6.957l-.734.387.14-.818-.595-.64h.822l.367-.804.368.805h.821l-.594.639.14.818-.735-.387ZM14.261 9.457l-.734.387.14-.818-.595-.64h.822l.367-.804.368.805h.821l-.594.639.14.818-.735-.387Z" fill="#4564F9"/></svg>