<svg viewBox="0 0 20 15" fill="none" xmlns="http://www.w3.org/2000/svg"><path d="M0 0v15h20V0H0Z" fill="#f7fcff"></path><path d="M0 0v5h20V0H0Z" fill="#e31d1c"></path><path d="M0 10v5h20v-5H0Z" fill="#3d58db"></path><path fill="#e31d1c" d="M6.298 3.998h7.125v2.5H6.298z"></path><path d="M6.658 5.6h6.33c.01.48.014 1.319.014 2.126 0 .521-.002 1.023-.003 1.394l-.002.446v.143a3.068 3.068 0 0 1-.092.37c-.078.246-.211.571-.433.895-.434.634-1.222 1.285-2.69 1.285s-2.218-.65-2.617-1.278a3.227 3.227 0 0 1-.461-1.261l-.001-.011V9.68L6.7 9.56l-.006-.443A2351.635 2351.635 0 0 1 6.658 5.6ZM6.7 9.7v-.001Z" fill="#f7fcff" stroke="#e31d1c" stroke-width=".703"></path><mask id="b" maskUnits="userSpaceOnUse" x="6" y="5" width="8" height="8"><path d="M6.658 5.6h6.33c.01.48.014 1.319.014 2.126 0 .521-.002 1.023-.003 1.394l-.002.446v.143a3.068 3.068 0 0 1-.092.37c-.078.246-.211.571-.433.895-.434.634-1.222 1.285-2.69 1.285s-2.218-.65-2.617-1.278a3.227 3.227 0 0 1-.461-1.261l-.001-.011V9.68L6.7 9.56l-.006-.443A2351.635 2351.635 0 0 1 6.658 5.6ZM6.7 9.7v-.001Z" fill="#fff" stroke="#fff" stroke-width=".703"></path></mask><g mask="url(#b)"><path fill-rule="evenodd" d="M6.562 5.65H7.88v1.339H6.562v-1.34Zm2.636 1.339H7.88v1.338H6.562v1.339H7.88v1.339H6.562v1.338H7.88v-1.338h1.318v1.338h1.319v-1.338h1.318v1.338h1.318v-1.338h-1.318V9.666h1.318V8.327h-1.318V6.99h1.318v-1.34h-1.318v1.34h-1.318v-1.34H9.198v1.34Zm0 1.338V6.99h1.319v1.338H9.198Zm0 1.339V8.327H7.88v1.339h1.318Zm1.319 0v1.339H9.198V9.666h1.319Zm0 0V8.327h1.318v1.339h-1.318Z" fill="#f50100"></path></g><path d="M6.533 5.102s.408-.218.756-.33c.348-.113.622-.174.622-.174L7.394 2.69l-1.036-.387-.587.968.762 1.83Z" fill="#56C6F5" stroke="#fff" stroke-width=".5"></path><path d="m6.363 4.057.12-.058c.122.263.284.345.507.262.227-.085.32-.245.286-.5l.131-.016c.04.315-.086.535-.372.641-.29.109-.521-.007-.672-.33Z" fill="#fff"></path><path d="m6.645 3.464-.114.069a.034.034 0 0 1-.05-.036l.025-.13-.116-.065a.034.034 0 0 1 .005-.061l.126-.043-.003-.133c0-.03.034-.046.057-.027l.1.088.114-.069a.034.034 0 0 1 .05.036l-.026.13.117.064a.034.034 0 0 1-.005.062l-.126.043.003.133c0 .03-.034.046-.057.026l-.1-.087Z" fill="#feca00"></path><path d="M9.088 4.422s.348-.03.713-.024c.366.008.675.01.675.01l.178-1.88-.783-.708-.87.724.087 1.878Z" fill="#56C6F5" stroke="#fff" stroke-width=".5"></path><path d="M9.844 4.116c.301 0 .33-.326.33-.548-.077-.123-.061-.21-.308-.21s-.276.074-.348.21c0 .222.024.548.326.548ZM10.183 3.196c.302 0 .33-.326.33-.548-.077-.123-.061-.21-.308-.21s-.275.074-.348.21c0 .222.025.548.326.548ZM9.524 3.196c.301 0 .33-.326.33-.548-.077-.123-.061-.21-.308-.21s-.276.074-.348.21c0 .222.024.548.326.548Z" fill="#feca00"></path><path d="m7.643 4.627.072.244.243-.077h.004l.012-.005.047-.014c.04-.012.097-.029.16-.046.13-.036.279-.072.383-.087a5.6 5.6 0 0 1 .514-.043l.042-.002H9.134l.262-.012-.022-.26-.158-1.828-.01-.115-.094-.067-.852-.605-.175-.125-.15.155-.774.803-.1.104.04.14.542 1.84Z" fill="#2e42a5" stroke="#fff" stroke-width=".5"></path><path d="m7.773 4.149-.157-.37c.336-.146.904-.237 1.502-.272l.023.4c-.555.034-1.081.116-1.368.242ZM7.509 3.257l-.157-.37c.336-.146 1.059-.266 1.657-.3l.023.4c-.556.033-1.236.144-1.523.27Z"></path><path d="m11.988 4.621-.068.252-.248-.079h-.004l-.013-.005-.047-.014a7.505 7.505 0 0 0-.16-.046 3.4 3.4 0 0 0-.382-.087 5.604 5.604 0 0 0-.515-.043l-.042-.002H10.495l-.261-.012.022-.26.158-1.828.01-.115.094-.067.852-.605.18-.128.15.163.729.8.092.1-.035.133-.498 1.843Z" fill="#2e42a5" stroke="#fff" stroke-width=".5"></path><path d="M11.499 4.042s.183-.103.21-.275c.026-.173.31-.385.168-.36-.142.026-.06.045-.266 0-.206-.045-.472-.074-.472-.2 0-.127.132-.228.024-.228-.108 0-.34-.12-.293-.028.047.091-.106-.012-.03.178.077.19-.016.381.03.432.047.05-.03.297-.03.297s.028.092.077-.046c.05-.137.157-.233.103-.116-.053.116-.122.394-.06.346a.434.434 0 0 0 .121-.23c0-.045.155-.224.155-.089s-.146.241-.073.241.113.029.159-.106.157-.224.202-.135c.046.09.036.085-.025.202s0 .117 0 .117Z" fill="#feca00"></path><path d="m11.067 3.042-.068-.115c.122-.075.235-.096.334-.053.045.019.079.04.167.103l.012.008c.092.064.14.09.17.09v.135c-.068 0-.127-.033-.245-.115l-.012-.008a.818.818 0 0 0-.143-.09c-.055-.023-.125-.01-.215.045Zm-.216.873a.07.07 0 0 0 .07-.07.07.07 0 0 0-.07-.07.07.07 0 0 0-.07.07c0 .039.03.07.07.07Zm.202.064a.07.07 0 0 1-.07.07.07.07 0 0 1-.07-.07.07.07 0 0 1 .07-.07.07.07 0 0 1 .07.07Zm.166.064a.07.07 0 0 0 .07-.07.07.07 0 0 0-.07-.068.07.07 0 0 0-.07.069c0 .038.031.07.07.07Zm.29.042a.07.07 0 0 1-.07.07.07.07 0 0 1-.07-.07.07.07 0 0 1 .07-.07.07.07 0 0 1 .07.07Z" fill="#c51918"></path><path d="m13.431 5.154-.108.248-.239-.127-.003-.002-.013-.007a5.813 5.813 0 0 0-.698-.304 8.034 8.034 0 0 0-.556-.157l-.034-.008-.008-.002h-.002l-.26-.058.073-.255.529-1.86.034-.121.119-.045L13.3 2.07l.194-.072.108.177.587.967.067.11-.052.12-.774 1.783Z" fill="#56C6F5" stroke="#fff" stroke-width=".5"></path><path d="m13.205 3.18-.09.1a.034.034 0 0 1-.058-.02l-.014-.132-.13-.027a.034.034 0 0 1-.013-.06l.108-.078-.041-.127a.034.034 0 0 1 .046-.041l.121.054.089-.099a.034.034 0 0 1 .059.02l.013.132.13.027a.034.034 0 0 1 .013.06l-.107.078.041.127a.034.034 0 0 1-.046.041l-.121-.054Z" fill="#feca00"></path><path d="m11.872 4.055.133-.518c.588.155 1.2.354 1.65.546l-.205.494a12.271 12.271 0 0 0-1.578-.522Z" fill="#e31d1c"></path><path d="m12.052 3.576.031-.13c.564.14 1.163.363 1.598.571l-.056.121a8.826 8.826 0 0 0-1.573-.562ZM11.885 4.11l.031-.13a8.11 8.11 0 0 1 1.52.538l-.056.121a7.984 7.984 0 0 0-1.495-.529Z" fill="#fff"></path><path d="m12.14 3.86.12-.055c.05.119.114.145.219.094.247-.12.862.048.862.275 0 .088-.051.142-.13.139a.412.412 0 0 1-.16-.054l-.028-.013a.82.82 0 0 0-.102-.05l.043-.128c.028.01.033.013.118.056l.026.013c.053.027.088.04.109.04.002 0-.008.01-.008-.003 0-.1-.5-.237-.674-.152-.174.084-.316.025-.396-.163Z" fill="#272727"></path></svg>
