<svg xmlns="http://www.w3.org/2000/svg" width="20" height="15" fill="transparent" viewBox="0 0 20 15"><g clip-path="url(#a)"><mask id="b" width="20" height="15" x="0" y="0" maskUnits="userSpaceOnUse" style="mask-type:luminance"><path fill="#fff" d="M0 0h20v15H0z"/></mask><g mask="url(#b)"><path fill="#F7FCFF" fill-rule="evenodd" d="M0 0v15h20V0H0Z" clip-rule="evenodd"/><mask id="c" width="20" height="15" x="0" y="0" maskUnits="userSpaceOnUse" style="mask-type:luminance"><path fill="#fff" fill-rule="evenodd" d="M0 0v15h20V0H0Z" clip-rule="evenodd"/></mask><g mask="url(#c)"><path fill="#E31D1C" fill-rule="evenodd" d="M0 0v5h20V0H0Z" clip-rule="evenodd"/><path fill="#3D58DB" fill-rule="evenodd" d="M0 10v5h20v-5H0Z" clip-rule="evenodd"/><path fill="#E31D1C" d="M6.298 3.998h7.125v2.5H6.298z"/><path fill="#F7FCFF" stroke="#E31D1C" stroke-width=".703" d="M6.658 5.6h6.33c.01.48.014 1.319.014 2.126 0 .521-.002 1.023-.003 1.395l-.002.445v.144a3.097 3.097 0 0 1-.092.37 3.41 3.41 0 0 1-.433.895c-.434.634-1.222 1.286-2.691 1.286-1.467 0-2.217-.651-2.616-1.279a3.23 3.23 0 0 1-.461-1.261l-.002-.011v-.028l-.001-.122-.006-.443A2268.028 2268.028 0 0 1 6.658 5.6ZM6.7 9.7c0-.001 0-.001 0 0Z"/><mask id="d" width="8" height="8" x="6" y="5" maskUnits="userSpaceOnUse" style="mask-type:luminance"><path fill="#fff" stroke="#fff" stroke-width=".703" d="M6.658 5.6h6.33c.01.48.014 1.319.014 2.126 0 .521-.002 1.023-.003 1.395l-.002.445v.144a3.097 3.097 0 0 1-.092.37 3.41 3.41 0 0 1-.433.895c-.434.634-1.222 1.286-2.691 1.286-1.467 0-2.217-.651-2.616-1.279a3.23 3.23 0 0 1-.461-1.261l-.002-.011v-.028l-.001-.122-.006-.443A2268.028 2268.028 0 0 1 6.658 5.6ZM6.7 9.7c0-.001 0-.001 0 0Z"/></mask><g mask="url(#d)"><path fill="#F50100" fill-rule="evenodd" d="M6.562 5.65H7.88v1.339H6.562V5.65Zm2.636 1.339H7.88v1.338H6.562v1.34H7.88v1.338H6.562v1.338H7.88v-1.338h1.318v1.338h1.319v-1.338h1.318v1.338h1.318v-1.338h-1.318V9.666h1.318V8.327h-1.318V6.99h1.318V5.65h-1.318v1.339h-1.318V5.65H9.198v1.339Zm0 1.338V6.99h1.319v1.338H9.198Zm0 1.34v-1.34H7.88v1.34h1.318Zm1.319 0v1.338H9.198V9.666h1.319Zm0 0v-1.34h1.318v1.34h-1.318Z" clip-rule="evenodd"/></g><path fill="#56C6F5" fill-rule="evenodd" stroke="#fff" stroke-width=".5" d="M6.533 5.102s.408-.218.756-.33c.348-.113.622-.174.622-.174L7.394 2.69l-1.036-.387-.587.968.762 1.83Z" clip-rule="evenodd"/><path fill="#fff" d="m6.363 4.057.12-.058c.122.263.284.345.507.262.227-.085.32-.245.287-.5l.13-.016c.04.315-.086.535-.372.641-.29.109-.521-.007-.672-.33Z"/><path fill="#FECA00" fill-rule="evenodd" d="m6.645 3.464-.114.069a.034.034 0 0 1-.05-.036l.025-.13-.116-.065a.034.034 0 0 1 .005-.061l.126-.043-.003-.133c0-.03.034-.046.056-.027l.1.088.115-.069a.034.034 0 0 1 .05.036l-.026.13.117.064a.034.034 0 0 1-.005.062l-.126.043.002.133a.033.033 0 0 1-.056.026l-.1-.087Z" clip-rule="evenodd"/><path fill="#56C6F5" fill-rule="evenodd" stroke="#fff" stroke-width=".5" d="M9.088 4.422s.348-.03.713-.024c.366.008.675.01.675.01l.178-1.88-.783-.708-.87.724.087 1.878Z" clip-rule="evenodd"/><path fill="#FECA00" fill-rule="evenodd" d="M9.844 4.116c.302 0 .33-.326.33-.548-.077-.123-.061-.21-.308-.21s-.276.074-.348.21c0 .222.025.548.326.548Zm.339-.92c.302 0 .33-.326.33-.548-.077-.123-.061-.21-.308-.21s-.275.074-.348.21c0 .222.025.548.326.548Zm-.659 0c.301 0 .33-.326.33-.548-.077-.123-.061-.21-.308-.21s-.276.074-.348.21c0 .222.024.548.326.548Z" clip-rule="evenodd"/><path fill="#2E42A5" stroke="#fff" stroke-width=".5" d="m7.643 4.627.072.244.243-.077h.004l.012-.005.047-.014c.04-.012.097-.029.16-.046.13-.036.278-.072.383-.087a5.6 5.6 0 0 1 .514-.043l.042-.002h.014l.262-.012-.022-.26-.158-1.828-.01-.115-.094-.067-.852-.605-.175-.125-.15.155-.774.803-.1.104.04.14.542 1.84Z"/><mask id="e" width="4" height="5" x="6" y="1" maskUnits="userSpaceOnUse" style="mask-type:luminance"><path fill="#fff" stroke="#fff" stroke-width=".5" d="m7.643 4.627.072.244.243-.077h.004l.012-.005.047-.014c.04-.012.097-.029.16-.046.13-.036.278-.072.383-.087a5.6 5.6 0 0 1 .514-.043l.042-.002h.014l.262-.012-.022-.26-.158-1.828-.01-.115-.094-.067-.852-.605-.175-.125-.15.155-.774.803-.1.104.04.14.542 1.84Z"/></mask><g fill="#C51918" mask="url(#e)"><path d="m7.773 4.149-.157-.37c.336-.146.904-.237 1.502-.272l.023.401c-.555.033-1.081.115-1.368.24Zm-.265-.892-.156-.37c.336-.146 1.059-.266 1.657-.3l.023.4c-.556.033-1.237.144-1.524.27Z"/></g><path fill="#2E42A5" stroke="#fff" stroke-width=".5" d="m11.988 4.621-.068.252-.248-.079h-.004l-.013-.005-.047-.014a7.505 7.505 0 0 0-.16-.046 3.4 3.4 0 0 0-.382-.087 5.604 5.604 0 0 0-.515-.043l-.042-.002h-.014l-.261-.012.022-.26.158-1.828.01-.115.094-.067.852-.605.18-.128.15.163.729.8.092.1-.035.133-.498 1.843Z"/><mask id="f" width="4" height="5" x="9" y="1" maskUnits="userSpaceOnUse" style="mask-type:luminance"><path fill="#fff" stroke="#fff" stroke-width=".5" d="m11.988 4.621-.068.252-.248-.079h-.004l-.013-.005-.047-.014a7.505 7.505 0 0 0-.16-.046 3.4 3.4 0 0 0-.382-.087 5.604 5.604 0 0 0-.515-.043l-.042-.002h-.014l-.261-.012.022-.26.158-1.828.01-.115.094-.067.852-.605.18-.128.15.163.729.8.092.1-.035.133-.498 1.843Z"/></mask><g fill-rule="evenodd" clip-rule="evenodd" mask="url(#f)"><path fill="#FECA00" d="M11.498 4.042s.184-.103.21-.275c.027-.173.311-.385.17-.36-.143.026-.062.045-.267 0-.206-.045-.472-.074-.472-.2 0-.127.132-.228.024-.228-.108 0-.34-.12-.293-.028.046.091-.107-.012-.03.178.076.19-.016.381.03.432.046.05-.03.297-.03.297s.028.092.077-.046c.05-.137.157-.233.103-.116-.054.116-.122.394-.061.346a.435.435 0 0 0 .122-.23c0-.045.154-.224.154-.089s-.145.241-.072.241c.072 0 .113.029.159-.106s.156-.224.202-.135c.045.09.035.085-.025.202-.061.117 0 .117 0 .117Z"/><path fill="#C51918" d="m11.067 3.042-.068-.115c.122-.076.235-.096.334-.054.045.02.079.041.167.104l.012.008c.092.064.14.09.17.09v.134c-.068 0-.127-.032-.245-.114l-.012-.008a.818.818 0 0 0-.143-.09c-.055-.023-.125-.01-.215.045Zm-.216.873a.07.07 0 0 0 .07-.07.07.07 0 0 0-.07-.07.07.07 0 0 0-.07.07c0 .039.03.07.07.07Zm.202.064a.07.07 0 0 1-.07.07.07.07 0 0 1-.07-.07.07.07 0 0 1 .07-.07.07.07 0 0 1 .07.07Zm.166.064a.07.07 0 0 0 .07-.07.07.07 0 0 0-.07-.069.07.07 0 0 0-.07.07c0 .038.031.07.07.07Zm.29.042a.07.07 0 0 1-.07.07.07.07 0 0 1-.07-.07.07.07 0 0 1 .07-.07.07.07 0 0 1 .07.07Z"/></g><path fill="#56C6F5" stroke="#fff" stroke-width=".5" d="m13.431 5.154-.108.248-.239-.127-.003-.002-.013-.007a4.56 4.56 0 0 0-.22-.109 4.273 4.273 0 0 0-.479-.195 8.034 8.034 0 0 0-.555-.157l-.034-.008-.009-.002h-.002l-.258-.058.072-.255.529-1.86.034-.121.119-.045L13.3 2.07l.194-.072.108.177.587.967.067.11-.052.12-.774 1.783Z"/><mask id="g" width="4" height="5" x="11" y="1" maskUnits="userSpaceOnUse" style="mask-type:luminance"><path fill="#fff" stroke="#fff" stroke-width=".5" d="m13.431 5.154-.108.248-.239-.127-.003-.002-.013-.007a4.56 4.56 0 0 0-.22-.109 4.273 4.273 0 0 0-.479-.195 8.034 8.034 0 0 0-.555-.157l-.034-.008-.009-.002h-.002l-.258-.058.072-.255.529-1.86.034-.121.119-.045L13.3 2.07l.194-.072.108.177.587.967.067.11-.052.12-.774 1.783Z"/></mask><g mask="url(#g)"><path fill="#FECA00" fill-rule="evenodd" d="m13.205 3.18-.09.1a.034.034 0 0 1-.058-.02l-.014-.132-.13-.027a.034.034 0 0 1-.013-.06l.108-.078-.041-.127a.034.034 0 0 1 .046-.041l.121.054.089-.099a.034.034 0 0 1 .059.02l.013.132.13.027a.034.034 0 0 1 .013.06l-.107.078.041.127a.034.034 0 0 1-.046.041l-.121-.054Z" clip-rule="evenodd"/><path fill="#E31D1C" d="m11.872 4.055.133-.518c.588.155 1.2.354 1.65.546l-.204.494a12.264 12.264 0 0 0-1.579-.522Z"/><path fill="#fff" d="m12.052 3.576.031-.13a8.96 8.96 0 0 1 1.598.571l-.056.121a8.83 8.83 0 0 0-1.573-.562Zm-.167.534.031-.13a8.11 8.11 0 0 1 1.52.538l-.056.121a7.981 7.981 0 0 0-1.495-.529Z"/><path fill="#272727" d="m12.14 3.86.12-.055c.05.119.114.145.219.094.248-.12.862.048.862.275 0 .088-.051.142-.13.139a.412.412 0 0 1-.16-.054.827.827 0 0 0-.13-.063l.043-.128a.852.852 0 0 1 .144.07.35.35 0 0 0 .109.04c.002 0-.008.01-.008-.004 0-.1-.5-.237-.674-.152-.174.084-.316.025-.396-.163Z"/></g></g></g></g><defs><clipPath id="a"><rect width="20" height="15" fill="#fff" rx="2"/></clipPath></defs></svg>