<svg viewBox="0 0 20 15" fill="none" xmlns="http://www.w3.org/2000/svg"><path d="M0 0v15h20V0H0Z" fill="#2e42a5"/><path d="M0 7.5V15h20V7.5H0Z" fill="#e31d1c"/><path fill="#fff" d="M6.25 5h7.5v5h-7.5z"/><path d="M6.25 9.11s1.8-.47 3.75-.44c1.95.03 3.75.55 3.75.55V10h-7.5v-.89Z" fill="#279e19"/><path d="M10.05 5.56s-.59-.26-1-.26c-.4 0-.62.4-.62.4" stroke="#026A16" stroke-width=".5"/><path d="M10.18 5.83s-.54-.2-.91-.2c-.38 0-.59.3-.59.3" stroke="#026A16" stroke-width=".5"/><path d="M10.18 6.05s-.4-.2-.68-.2c-.27 0-.43.3-.43.3" stroke="#026A16" stroke-width=".5"/><path d="M10.01 6.27s-.24-.2-.41-.2c-.17 0-.27.3-.27.3" stroke="#026A16" stroke-width=".5"/><path d="M10 6.42s-.1-.12-.17-.12-.11.19-.11.19m.23-.93s.59-.26 1-.26c.4 0 .62.4.62.4" stroke="#026A16" stroke-width=".5"/><path d="M9.82 5.83s.54-.2.91-.2c.38 0 .59.3.59.3" stroke="#026A16" stroke-width=".5"/><path d="M9.82 6.05s.4-.2.68-.2c.27 0 .43.3.43.3" stroke="#026A16" stroke-width=".5"/><path d="M9.99 6.27s.24-.2.41-.2c.17 0 .27.3.27.3" stroke="#026A16" stroke-width=".5"/><path d="M10 6.42s.1-.12.17-.12.11.19.11.19" stroke="#026A16" stroke-width=".5"/><path d="M9.93 6.5s-.07.83-.07 1.17c0 .35.07 1.08.07 1.08h.18V7.67c0-.28-.1-1.17-.1-1.17h-.08Z" fill="#feca00"/><path d="M9.2 7.45s-.45.24-.45.96l.46.86h.81V7.85l-.81-.4Z" fill="#c51918"/><path d="M8.54 6.77s-1.06.3-1.06 1.46l1.37.12s-.08-.67.35-.98l-.66-.6Z" fill="#0A328C"/><path d="m8.1 6.33 1.81 1.66M7.47 6.7 10 8.34m-2.96-1 2.85 1.3" stroke="#ffd018" stroke-width=".5"/><path d="m7.49 8.23 1.89.2-.1.27h-.3l.2.15.46.1V8.7h.4v.55h-.86l-.33-.4s-.28.27-.55.27c-.28 0-.54-.09-.54-.38v-.21l-.27-.1v-.2Z" fill="#feca00"/><path d="M10.53 7.45s.46.24.46.96l-.46.86h-.81V7.85l.81-.4Z" fill="#c51918"/><path d="M11.2 6.77s1.06.3 1.06 1.46l-1.37.12s.08-.67-.34-.98l.65-.6Z" fill="#0A328C"/><path d="M11.64 6.33 9.83 7.99m2.44-1.29L9.74 8.34m2.96-1-2.84 1.3" stroke="#ffd018" stroke-width=".5"/><path d="m12.25 8.23-1.89.2.11.27h.3l-.2.15-.47.1V8.7h-.4v.55h.87l.33-.4s.27.27.55.27c.27 0 .54-.09.54-.38v-.21l.26-.1v-.2Z" fill="#feca00"/></svg>