<svg xmlns="http://www.w3.org/2000/svg" width="20" height="15" fill="transparent" viewBox="0 0 20 15"><g clip-path="url(#a)"><mask id="b" width="20" height="15" x="0" y="0" maskUnits="userSpaceOnUse" style="mask-type:luminance"><path fill="#fff" d="M0 0h20v15H0z"/></mask><g mask="url(#b)"><path fill="#F7FCFF" fill-rule="evenodd" d="M0 0v15h20V0H0Z" clip-rule="evenodd"/><mask id="c" width="20" height="15" x="0" y="0" maskUnits="userSpaceOnUse" style="mask-type:luminance"><path fill="#fff" fill-rule="evenodd" d="M0 0v15h20V0H0Z" clip-rule="evenodd"/></mask><g fill="#3D58DB" fill-rule="evenodd" clip-rule="evenodd" mask="url(#c)"><path d="M0 2.5v2.228h20V2.5H0Zm0 7.717V12.5h20v-2.283H0Z"/><path d="M7.113 9.337h5.86l-2.9-5.013-2.96 5.013Zm4.669-.688H8.317l1.75-2.963 1.715 2.963Z"/><path d="M6.932 5.578h5.993l-2.84 5.029-3.153-5.029Zm4.815.688H8.175l1.88 2.997 1.692-2.997Z"/></g></g></g><defs><clipPath id="a"><rect width="20" height="15" fill="#fff" rx="2"/></clipPath></defs></svg>