<svg viewBox="0 0 20 15" fill="none" xmlns="http://www.w3.org/2000/svg"><path d="M0 0v15h20V0H0Z" fill="#e31d1c"/><path d="M3.8 2.59c0-.06.07-.09.11-.04.28.3 1.02 1.07 1.45 1.07.54 0 2.65-1.78 3.27-1.49.63.29 1.89 3.32 1.89 3.32l-.83 1.03-1.06-.58-.2-2.28s-2.04 1.05-3.07.67l-.57.48s-.55-1.1-.77-1.43c-.15-.22-.2-.55-.21-.75Z" fill="#f7fcff"/><path d="m5.16 5.08-.35.21.07-.45-.28-.32.39-.06.17-.41.18.4.39.07-.28.32.06.45-.35-.21Zm2.97-2.71a.23.23 0 0 1 .46 0v1.07a.23.23 0 1 1-.46 0V2.37Z" fill="#feca00"/><path d="M15.76 3.19c.05.03.04.1-.02.11-.4.08-1.45.3-1.67.66-.29.46.1 3.19-.48 3.56-.57.38-3.8-.16-3.8-.16l-.44-1.24 1.05-.6 2.04 1.04s.2-2.29 1.06-2.95l-.1-.75s1.21.12 1.61.1c.27 0 .58.14.75.23Z" fill="#f7fcff"/><path d="M12.93 3.02v-.4l.35.29.42-.08-.15.37.26.36-.44-.06-.27.3-.12-.41-.41-.19.36-.18ZM13.7 7a.24.24 0 1 1-.27.41l-.97-.64a.23.23 0 0 1 .25-.38l.99.61Z" fill="#feca00"/><path d="M9.29 13.11c-.05.04-.1-.01-.09-.07.14-.39.47-1.4.27-1.78-.25-.48-2.81-1.5-2.85-2.19-.04-.69 2.04-3.22 2.04-3.22l1.3.24-.01 1.21-1.92 1.25s1.89 1.31 2.03 2.4l.7.27s-.71 1-.9 1.36c-.13.23-.4.43-.57.53Z" fill="#f7fcff"/><path d="m10.85 10.75.35.2-.43.16-.14.4-.24-.31-.45.03.28-.34-.12-.38.4.1.37-.27-.02.4Zm-3.91-1.4a.25.25 0 0 1-.18-.48l1.04-.4a.26.26 0 1 1 .19.48l-1.05.4ZM8.54 6.1a.15.15 0 0 1-.1-.19c.03-.08.16-.21.24-.19l1.08.38c.06.02.1.07.1.13l.1 1.2c0 .08-.12.15-.2.15a.15.15 0 0 1-.16-.14l-.1-1.02-.97-.32Z" fill="#feca00"/><path d="M10.43 5.48c.06-.05.18 0 .23.07.05.07.04.17-.03.22l-.75.77c-.07.05-.21-.05-.26-.12-.05-.06-.07-.24 0-.3l.8-.64Z" fill="#feca00"/></svg>