<svg viewBox="0 0 20 15" fill="none" xmlns="http://www.w3.org/2000/svg"><path d="M0 0v15h20V0H0Z" fill="#f7fcff"/><path d="M0 0v5h20V0H0Z" fill="#ff8c1a"/><path d="M0 10v5h20v-5H0Z" fill="#5eaa22"/><path d="M7.5 7.5a2.5 2.5 0 1 0 5 0 2.5 2.5 0 0 0-5 0Zm4.38 0a1.88 1.88 0 1 1-3.76 0 1.88 1.88 0 0 1 3.76 0Z" fill="#3d58db"/><path d="m10 8.04-.52 1.92.3-1.97-1.26 1.55L9.6 7.86l-1.77.9 1.66-1.09-1.99.1 1.97-.32-1.86-.72 1.93.51-1.4-1.41 1.54 1.25-.7-1.86.9 1.77L10 5l.1 1.99.92-1.77-.71 1.86 1.55-1.25-1.4 1.41 1.92-.5-1.86.71 1.97.32-1.99-.1 1.67 1.09-1.78-.9 1.08 1.68-1.26-1.55.3 1.97L10 8.04Z" fill="#3d58db"/></svg>