<svg xmlns="http://www.w3.org/2000/svg" width="20" height="15" fill="transparent" viewBox="0 0 20 15"><g clip-path="url(#a)"><mask id="b" width="20" height="15" x="0" y="0" maskUnits="userSpaceOnUse" style="mask-type:luminance"><path fill="#fff" d="M0 0h20v15H0z"/></mask><g mask="url(#b)"><path fill="#F7FCFF" fill-rule="evenodd" d="M0 0v15h20V0H0Z" clip-rule="evenodd"/><mask id="c" width="20" height="15" x="0" y="0" maskUnits="userSpaceOnUse" style="mask-type:luminance"><path fill="#fff" fill-rule="evenodd" d="M0 0v15h20V0H0Z" clip-rule="evenodd"/></mask><g mask="url(#c)"><path fill="#2E42A5" fill-rule="evenodd" d="m-.941 1.657.93.886c.767-.726 1.491-1.068 2.18-1.068.332 0 .473.08.857.443.608.575 1.017.807 1.787.807s1.179-.232 1.787-.807c.383-.363.525-.443.858-.443.332 0 .474.08.857.443.608.575 1.018.807 1.787.807.77 0 1.18-.232 1.787-.807.384-.363.525-.443.858-.443.332 0 .474.08.858.443.608.575 1.017.807 1.787.807s1.178-.232 1.787-.807c.383-.363.525-.443.857-.443.688 0 1.413.342 2.18 1.068l.93-.886C20.15.716 19.11.225 18.036.225c-.77 0-1.178.232-1.787.807-.383.363-.525.443-.857.443-.333 0-.474-.08-.858-.443-.608-.575-1.018-.807-1.787-.807-.77 0-1.179.232-1.787.807-.384.363-.525.443-.858.443-.332 0-.474-.08-.857-.443C8.636.457 8.227.225 7.458.225c-.77 0-1.18.232-1.787.807-.384.363-.526.443-.858.443-.333 0-.474-.08-.858-.443C3.347.457 2.938.225 2.168.225 1.093.225.054.716-.942 1.657Zm.93 3.386-.93-.886c.995-.941 2.034-1.432 3.11-1.432.769 0 1.178.232 1.786.807.384.363.525.443.858.443.332 0 .474-.08.858-.443.608-.575 1.017-.807 1.787-.807.769 0 1.178.232 1.787.807.383.363.525.443.857.443.333 0 .474-.08.858-.443.608-.575 1.017-.807 1.787-.807s1.179.232 1.787.807c.383.363.525.443.858.443.332 0 .474-.08.857-.443.609-.575 1.018-.807 1.787-.807 1.075 0 2.114.491 3.11 1.432l-.93.886c-.767-.726-1.492-1.068-2.18-1.068-.332 0-.474.08-.857.443-.609.575-1.018.807-1.787.807-.77 0-1.18-.232-1.787-.807-.384-.363-.526-.443-.858-.443-.333 0-.474.08-.858.443-.608.575-1.017.807-1.787.807s-1.179-.232-1.787-.807c-.383-.363-.525-.443-.857-.443-.333 0-.475.08-.858.443-.608.575-1.018.807-1.787.807-.77 0-1.179-.232-1.787-.807-.384-.363-.525-.443-.858-.443-.688 0-1.412.342-2.18 1.068Zm0 2.5-.93-.886c.995-.941 2.034-1.432 3.11-1.432.769 0 1.178.232 1.786.807.384.363.525.443.858.443.332 0 .474-.08.858-.443.608-.575 1.017-.807 1.787-.807.769 0 1.178.232 1.787.807.383.363.525.443.857.443.333 0 .474-.08.858-.443.608-.575 1.017-.807 1.787-.807s1.179.232 1.787.807c.383.363.525.443.858.443.332 0 .474-.08.857-.443.609-.575 1.018-.807 1.787-.807 1.075 0 2.114.491 3.11 1.432l-.93.886c-.767-.726-1.492-1.068-2.18-1.068-.332 0-.474.08-.857.443-.609.575-1.018.807-1.787.807-.77 0-1.18-.232-1.787-.807-.384-.363-.526-.443-.858-.443-.333 0-.474.08-.858.443-.608.575-1.017.807-1.787.807s-1.179-.232-1.787-.807c-.383-.363-.525-.443-.857-.443-.333 0-.475.08-.858.443-.608.575-1.018.807-1.787.807-.77 0-1.179-.232-1.787-.807-.384-.363-.525-.443-.858-.443-.688 0-1.412.342-2.18 1.068Zm0 2.5-.93-.886c.995-.941 2.034-1.432 3.11-1.432.769 0 1.178.232 1.786.807.384.363.525.443.858.443.332 0 .474-.08.858-.443.608-.575 1.017-.807 1.787-.807.769 0 1.178.232 1.787.807.383.363.525.443.857.443.333 0 .474-.08.858-.443.608-.575 1.017-.807 1.787-.807s1.179.232 1.787.807c.383.363.525.443.858.443.332 0 .474-.08.857-.443.609-.575 1.018-.807 1.787-.807 1.075 0 2.114.491 3.11 1.432l-.93.886c-.767-.726-1.492-1.068-2.18-1.068-.332 0-.474.08-.857.443-.609.575-1.018.807-1.787.807-.77 0-1.18-.232-1.787-.807-.384-.363-.526-.443-.858-.443-.333 0-.474.08-.858.443-.608.575-1.017.807-1.787.807s-1.179-.232-1.787-.807c-.383-.363-.525-.443-.857-.443-.333 0-.475.08-.858.443-.608.575-1.018.807-1.787.807-.77 0-1.179-.232-1.787-.807-.384-.363-.525-.443-.858-.443-.688 0-1.412.342-2.18 1.068Zm0 2.5-.93-.886c.995-.941 2.034-1.432 3.11-1.432.769 0 1.178.232 1.786.807.384.363.525.443.858.443.332 0 .474-.08.858-.443.608-.575 1.017-.807 1.787-.807.769 0 1.178.232 1.787.807.383.363.525.443.857.443.333 0 .474-.08.858-.443.608-.575 1.017-.807 1.787-.807s1.179.232 1.787.807c.383.363.525.443.858.443.332 0 .474-.08.857-.443.609-.575 1.018-.807 1.787-.807 1.075 0 2.114.491 3.11 1.432l-.93.886c-.767-.726-1.492-1.068-2.18-1.068-.332 0-.474.08-.857.443-.609.575-1.018.807-1.787.807-.77 0-1.18-.232-1.787-.807-.384-.363-.526-.443-.858-.443-.333 0-.474.08-.858.443-.608.575-1.017.807-1.787.807s-1.179-.232-1.787-.807c-.383-.363-.525-.443-.857-.443-.333 0-.475.08-.858.443-.608.575-1.018.807-1.787.807-.77 0-1.179-.232-1.787-.807-.384-.363-.525-.443-.858-.443-.688 0-1.412.342-2.18 1.068Zm0 2.5-.93-.886c.995-.941 2.034-1.432 3.11-1.432.769 0 1.178.232 1.786.807.384.363.525.443.858.443.332 0 .474-.08.858-.443.608-.575 1.017-.807 1.787-.807.769 0 1.178.232 1.787.807.383.363.525.443.857.443.333 0 .474-.08.858-.443.608-.575 1.017-.807 1.787-.807s1.179.232 1.787.807c.383.363.525.443.858.443.332 0 .474-.08.857-.443.609-.575 1.018-.807 1.787-.807 1.075 0 2.114.491 3.11 1.432l-.93.886c-.767-.726-1.492-1.068-2.18-1.068-.332 0-.474.08-.857.443-.609.575-1.018.807-1.787.807-.77 0-1.18-.232-1.787-.807-.384-.363-.526-.443-.858-.443-.333 0-.474.08-.858.443-.608.575-1.017.807-1.787.807s-1.179-.232-1.787-.807c-.383-.363-.525-.443-.857-.443-.333 0-.475.08-.858.443-.608.575-1.018.807-1.787.807-.77 0-1.179-.232-1.787-.807-.384-.363-.525-.443-.858-.443-.688 0-1.412.342-2.18 1.068Z" clip-rule="evenodd"/><mask id="d" width="9" height="7" x="0" y="0" maskUnits="userSpaceOnUse" style="mask-type:luminance"><path fill="#fff" fill-rule="evenodd" d="M0 0h9v7H0V0Z" clip-rule="evenodd"/></mask><g mask="url(#d)"><path fill="#2E42A5" d="M0 0h10v8H0z"/><path fill="#fff" d="m-1.549 7.083 2.285.965L10.044.91l1.205-1.434-2.443-.322L5.009 2.23 1.954 4.302-1.55 7.083Z"/><path fill="#F50100" d="m-1.236 7.76 1.164.56L10.816-.658H9.182L-1.236 7.759Z"/><path fill="#fff" d="m11.148 7.083-2.285.965L-.444.91-1.65-.524.794-.846 4.59 2.23l3.056 2.072 3.502 2.781Z"/><path fill="#F50100" d="m11.07 7.569-1.164.56L5.27 4.285l-1.375-.43-5.66-4.374h1.634l5.658 4.271 1.503.515 4.04 3.302Z"/><mask id="e" width="13" height="10" x="-1" y="-1" fill="#000" maskUnits="userSpaceOnUse"><path fill="#fff" d="M-1-1h13V9H-1z"/><path fill-rule="evenodd" d="M5 0H4v3H0v1h4v4h1V4h6V3H5V0Z" clip-rule="evenodd"/></mask><path fill="#F50100" fill-rule="evenodd" d="M5 0H4v3H0v1h4v4h1V4h6V3H5V0Z" clip-rule="evenodd"/><path fill="#F7FCFF" d="M4 0v-.5h-.5V0H4Zm1 0h.5v-.5H5V0ZM4 3v.5h.5V3H4ZM0 3v-.5h-.5V3H0Zm0 1h-.5v.5H0V4Zm4 0h.5v-.5H4V4Zm0 4h-.5v.5H4V8Zm1 0v.5h.5V8H5Zm0-4v-.5h-.5V4H5Zm6 0v.5h.5V4H11Zm0-1h.5v-.5H11V3ZM5 3h-.5v.5H5V3ZM4 .5h1v-1H4v1ZM4.5 3V0h-1v3h1ZM0 3.5h4v-1H0v1Zm.5.5V3h-1v1h1ZM4 3.5H0v1h4v-1ZM4.5 8V4h-1v4h1Zm.5-.5H4v1h1v-1ZM4.5 4v4h1V4h-1Zm6.5-.5H5v1h6v-1Zm-.5-.5v1h1V3h-1ZM5 3.5h6v-1H5v1ZM4.5 0v3h1V0h-1Z" mask="url(#e)"/></g><rect width=".625" height="7.888" x="12.75" y="5.862" fill="#D86D00" rx=".313"/><path fill="#449A01" stroke="#fff" stroke-width=".15" d="M12.753 1.286c.638.876.72 2.052.638 3.105l-.498-.036c.077-1.005-.14-3.07-.14-3.07Z"/><path fill="#449A01" stroke="#fff" stroke-width=".15" d="m13.567 4.615-.46-.19c.444-1.403 2.655-2.598 2.655-2.598-.99.474-1.327 1.757-2.195 2.788Z"/><path fill="#449A01" stroke="#fff" stroke-width=".15" d="m13.36 4.906-.241-.425c1.182-.822 3.092-1 3.092-1-.985.28-1.98.96-2.85 1.425Z"/><path fill="#449A01" stroke="#fff" stroke-width=".15" d="m13.053 5.113.208-.441c2.313.718 2.652 1.918 2.652 1.918-.304-.268-1.268-.768-2.86-1.477Z"/><path fill="#449A01" stroke="#fff" stroke-width=".15" d="m12.81 5.081.49-.091c.17.862.609 1.384.84 1.937 0 0-1.297-.58-1.33-1.846Z"/><path fill="#449A01" stroke="#fff" stroke-width=".15" d="m12.772 4.677.53.133c-.869 1.062-2.16 1.62-2.67 1.802 0 0 1.121-1.011 2.14-1.935Z"/><path fill="#449A01" stroke="#fff" stroke-width=".15" d="m13.007 4.447-.08.493c-1.035-.315-2.897-.183-2.897-.183.782-.185 1.862-.492 2.977-.31Z"/><path fill="#449A01" stroke="#fff" stroke-width=".15" d="m13.097 4.194-.204.444c-1.527-.66-2.343-1.895-2.343-1.895.051.227 1.198.868 2.547 1.451Z"/><path fill="#F50100" fill-rule="evenodd" d="M14.945 9.567v-.09c-.288-.228-.59-.341-.905-.341a1.661 1.661 0 0 0-.917-.173c-.466-.05-.935.173-.935.173-.473 0-.905.34-.905.34v.091l.565.624s.159.601 1.272.46v.001s.737-.022.79-.04a1.69 1.69 0 0 1 .063-.022c.144-.046.309-.1.407-.399l.565-.624Zm-1.825-.575c-.016.208-.108 1.46 0 1.655V8.992Z" clip-rule="evenodd"/><path fill="#FECA00" fill-rule="evenodd" d="M12.2 8.866c.06-.202.166-.271.422-.271.159 0 .279.04.362.12v.542h.045v.055c-.03.027-.045.081-.034.14a.2.2 0 0 0 .019.054.198.198 0 0 0-.069-.012c-.077 0-.14.041-.14.092s.063.093.14.093c.077 0 .14-.042.14-.093 0 .026.016.05.041.066h-.07c0 .14-.065.228-.161.228-.068 0-.115-.034-.15-.11l-.096-.207-.01.233c-.003.082-.036.114-.117.114-.078 0-.135-.053-.173-.173a.21.21 0 0 0 .036.003c.077 0 .14-.041.14-.092s-.063-.093-.14-.093a.205.205 0 0 0-.05.006.193.193 0 0 0 .002-.083c-.015-.075-.067-.13-.117-.12-.05.01-.08.08-.065.156a.2.2 0 0 0 .019.053.198.198 0 0 0-.069-.012c-.077 0-.14.042-.14.093 0 .05.063.092.14.092.063 0 .116-.027.133-.064l-.004.054c-.012.153-.05.225-.107.235-.076.014-.135.008-.175-.017l-.083-.049v.084a.434.434 0 0 1-.131-.017l-.01.048-.098-.102a.185.185 0 0 0 .093-.023c.069-.036.104-.102.08-.147-.023-.045-.098-.052-.167-.016a.201.201 0 0 0-.049.037.21.21 0 0 0-.008-.043c-.023-.074-.08-.122-.13-.107-.024.008-.042.03-.05.06l-.044-.045-.038.045.08.084a.184.184 0 0 0 .005.017c.02.068.072.114.118.11l.194.2v.002l.003.001.114.118.044.093a.515.515 0 0 0 .064.17.142.142 0 0 1 .004.03c0 .064.15.102.444.14.23.03.5.051.722.054h.056c.222-.003.493-.023.722-.053.293-.04.444-.077.444-.14 0-.042.037-.142.112-.294l.514-.532-.038-.045-.142.146a.197.197 0 0 0 .007-.019c.023-.074.002-.146-.047-.16-.049-.016-.107.032-.13.106a.21.21 0 0 0-.008.043.201.201 0 0 0-.049-.037c-.068-.036-.143-.029-.167.016-.024.045.012.111.08.147.068.037.143.03.167-.015l.003-.006a.065.065 0 0 0 .06.013l-.187.194-.018-.09a.434.434 0 0 1-.131.017v-.084l-.083.05c-.04.024-.099.03-.176.016-.056-.01-.094-.082-.106-.235l-.002-.014c.02.011.044.02.07.023.076.01.144-.021.151-.072.007-.05-.049-.1-.126-.111a.204.204 0 0 0-.052 0 .192.192 0 0 0 .014-.085c-.004-.077-.049-.137-.1-.135-.05.003-.089.068-.085.145a.203.203 0 0 0 .01.052.2.2 0 0 0-.064-.02c-.076-.01-.144.022-.151.072-.008.05.049.1.125.111a.176.176 0 0 0 .111-.018l-.01.039c-.039.134-.097.193-.18.193-.08 0-.113-.032-.116-.114l-.01-.233-.096.208c-.035.075-.082.109-.15.109-.092 0-.155-.08-.16-.209a.203.203 0 0 0 .054.008c.077 0 .14-.042.14-.093 0-.05-.063-.092-.14-.092a.205.205 0 0 0-.05.006.192.192 0 0 0 .002-.083.194.194 0 0 0-.03-.073h.106v-.619c.083-.08.204-.12.363-.12.256 0 .36.068.42.27.04.13.002.24-.118.343l.068.097c.135-.115.194-.252.173-.404.288-.01.504.023.645.1.123.065.146.233.053.525l.105.04c.11-.343.079-.576-.109-.676-.165-.09-.405-.125-.723-.111v.009c-.08-.229-.23-.317-.514-.317a.658.658 0 0 0-.363.093v-.031h-.224v.054a.625.625 0 0 0-.407-.125c-.28 0-.43.084-.51.302l.001-.047c-.317-.014-.557.022-.723.11-.187.102-.218.335-.109.678l.106-.04c-.093-.292-.07-.46.053-.526.142-.077.358-.11.648-.1-.043.173.013.329.163.457l.069-.098c-.12-.103-.158-.213-.12-.342Zm.885.72c0-.005 0-.01.002-.015h-.004l.002.015Zm1.381.51c-.091.018-.157.016-.192-.015a.4.4 0 0 1-.194.006c-.078-.014-.133-.072-.166-.167a.254.254 0 0 1-.162.11c.358.055.609.134.609.134s-.006.058-.021.127c.016-.036.034-.076.056-.12l.006-.008.065-.067Zm-.883-.09a.187.187 0 0 1-.075-.074.245.245 0 0 1-.09.057c.056.005.111.01.165.017Zm-.363-.029a.265.265 0 0 1-.107-.103.266.266 0 0 1-.106.103l.077-.002h.045l.09.002Zm-1.352.182-.052-.054c.063.007.109 0 .136-.024a.4.4 0 0 0 .193.006c.079-.014.134-.072.167-.167a.255.255 0 0 0 .157.108 4.83 4.83 0 0 0-.601.131Zm.938-.17a3.953 3.953 0 0 0-.16.015.189.189 0 0 0 .071-.072.244.244 0 0 0 .089.056Zm1.378.51c.039.021.07 0 .095-.038a.22.22 0 0 0-.004.03.508.508 0 0 1-.098.035 2.79 2.79 0 0 1-.296.051 6.42 6.42 0 0 1-.744.054 6.441 6.441 0 0 1-.744-.054 2.786 2.786 0 0 1-.296-.052.588.588 0 0 1-.073-.022l.006-.003c.122-.063.93-.122 1.077-.133.145.01.954.07 1.077.133Zm.162-.01Z" clip-rule="evenodd"/><path fill="#fff" d="M12.127 8.677v.062c-.497-.01-.782.07-.854.229-.075.164-.061.364.043.6l-.05.028c-.112-.253-.127-.473-.043-.656.085-.189.387-.273.904-.263Z"/><path fill="#fff" d="m12.223 9.223-.029.053c-.108-.07-.162-.192-.162-.36 0-.24.113-.38.361-.476.159-.062.376-.037.651.073l-.019.058c-.264-.105-.469-.13-.613-.073-.228.088-.324.208-.324.419 0 .146.045.247.135.306Zm1.859-.484V8.8c.497-.01.782.07.854.23.075.164.061.363-.044.6l.05.027c.112-.253.128-.472.044-.655-.086-.189-.387-.273-.905-.263Z"/><path fill="#fff" d="m13.906 9.236.029.053c.108-.071.162-.192.162-.36 0-.24-.112-.38-.36-.477-.16-.061-.376-.036-.652.074l.02.058c.264-.106.468-.13.612-.074.229.089.324.209.324.42 0 .146-.045.247-.135.306Z"/></g></g></g><defs><clipPath id="a"><rect width="20" height="15" fill="#fff" rx="2"/></clipPath></defs></svg>