<svg viewBox="0 0 20 15" fill="none" xmlns="http://www.w3.org/2000/svg"><path d="M0 0v15h20V0H0Z" fill="#f7fcff"/><path d="M0 0v5h20V0H0Z" fill="#bf2714"/><path d="M0 10v5h20v-5H0Z" fill="#272727"/><path d="M3.34 8c.56.82-.21 1.38-.21 1.38s.68 0 .94-.55h5.57v-1.2s-.12-.58-.61-.58c-.5 0-.61.57-.61.57H6.46l1.9-1.67-.37-.33-2.11 1.86v.4h3v-.23s0-.14.15-.14c.14 0 .1.14.1.14v.5H5.36v-.69l-.4.19v.5S4.46 8 4.14 8c-.32 0-.33-.36-.33-.36L3.34 8Zm7.56.05.31.76H9.99V5.76l.52.16v2.13h.4Zm5.67 0 .3.76h-1.21V5.76l.51.16v2.13h.4Zm-1.5-2.26-.32.22v2.04h-.33V6.41l-.53.3v1.34h-.35v-.93l-.4.26v.26s-.79.05-.79 1.15h2.71v-3ZM4.67 9.35c.1 0 .18-.07.18-.15 0-.09-.08-.16-.18-.16-.1 0-.17.07-.17.16 0 .08.07.15.17.15Zm9.02-3.32c-.14.18-.56 0-.56 0l1.18-.14c-.12.24-.62.14-.62.14Z" fill="#009C4E"/></svg>