<svg xmlns="http://www.w3.org/2000/svg" width="20" height="15" fill="transparent" viewBox="0 0 20 15"><g clip-path="url(#a)"><mask id="b" width="20" height="15" x="0" y="0" maskUnits="userSpaceOnUse" style="mask-type:luminance"><path fill="#fff" d="M0 0h20v15H0z"/></mask><g mask="url(#b)"><path fill="#F7FCFF" fill-rule="evenodd" d="M0 0v15h20V0H0Z" clip-rule="evenodd"/><mask id="c" width="20" height="15" x="0" y="0" maskUnits="userSpaceOnUse" style="mask-type:luminance"><path fill="#fff" fill-rule="evenodd" d="M0 0v15h20V0H0Z" clip-rule="evenodd"/></mask><g mask="url(#c)"><path fill="#5EAA22" fill-rule="evenodd" d="M0 0v5h20V0H0Z" clip-rule="evenodd"/><path fill="#E31D1C" fill-rule="evenodd" d="M0 10v5h20v-5H0Z" clip-rule="evenodd"/><path stroke="#F7FCFF" stroke-width=".625" d="M.233 10.854h-1.421m-.015.563v-.326h.463v.315h.467v-.315h-.242m.726.313h-.235v-.306h.496v-.251.557h.224v-.557m.253.033v.526H.716m1.956-.552H1.25m-.014.563v-.326h.463v.315h.467v-.315h-.243m.771.313h-.236v-.306h.496v-.251.557h.224v-.557m.253.033v.526h-.233m1.956-.552H3.733m-.015.563v-.326h.463v.315h.467v-.315h-.242m.727.313h-.236v-.306h.496v-.251.557h.225v-.557m.252.033v.526h-.232m1.956-.552H6.172m-.014.563v-.326h.462v.315h.468v-.315h-.243m.727.313h-.236v-.306h.496v-.251.557h.225v-.557m.253.033v.526h-.233m1.956-.552H8.61m-.013.563v-.326h.462v.315h.468v-.315h-.243m.77.313H9.82v-.306h.496v-.251.557h.224v-.557m.252.033v.526h-.233m1.956-.552h-1.421m-.014.563v-.326h.462v.315h.467v-.315h-.242m.77.313H12.3v-.306h.496v-.251.557h.225v-.557m.253.033v.526h-.232m1.956-.552h-1.422m-.014.563v-.326h.462v.315h.468v-.315h-.243m.771.313h-.236v-.306h.496v-.251.557h.225v-.557m.252.033v.526h-.233m1.956-.552h-1.42m-.016.563v-.326h.463v.315h.468v-.315h-.243m.727.313h-.236v-.306h.496v-.251.557h.225v-.557m.252.033v.526h-.233m1.957-.552h-1.422m-.015.563v-.326h.463v.315h.468v-.315h-.243m.857.313h-.235v-.306h.495v-.251.557h.225v-.557M.233 3.23h-1.421m-.015.562v-.326h.463v.315h.467v-.315h-.242m.726.313h-.235v-.306h.496v-.251.557h.224v-.557m.253.033v.526H.716m1.956-.551H1.25m-.014.562v-.326h.463v.315h.467v-.315h-.243m.771.313h-.236v-.306h.496v-.251.557h.224v-.557m.253.033v.526h-.233m1.956-.551H3.733m-.015.562v-.326h.463v.315h.467v-.315h-.242m.727.313h-.236v-.306h.496v-.251.557h.225v-.557m.252.033v.526h-.232m1.956-.551H6.172m-.014.562v-.326h.462v.315h.468v-.315h-.243m.727.313h-.236v-.306h.496v-.251.557h.225v-.557m.253.033v.526h-.233m1.956-.551H8.61m-.013.562v-.326h.462v.315h.468v-.315h-.243m.77.313H9.82v-.306h.496v-.251.557h.224v-.557m.252.033v.526h-.233m1.956-.551h-1.421m-.014.562v-.326h.462v.315h.467v-.315h-.242m.77.313H12.3v-.306h.496v-.251.557h.225v-.557m.253.033v.526h-.232m1.956-.551h-1.422m-.014.562v-.326h.462v.315h.468v-.315h-.243m.771.313h-.236v-.306h.496v-.251.557h.225v-.557m.252.033v.526h-.233m1.956-.551h-1.42m-.016.562v-.326h.463v.315h.468v-.315h-.243m.727.313h-.236v-.306h.496v-.251.557h.225v-.557m.252.033v.526h-.233m1.957-.551h-1.422m-.015.562v-.326h.463v.315h.468v-.315h-.243m.857.313h-.235v-.306h.495v-.251.557h.225v-.557"/><path fill="#E31D1C" fill-rule="evenodd" d="M9.129 5.156s.267.14.54.14c.274 0 .549-.14.549-.14v.188s-.3.14-.567.14c-.265 0-.522-.14-.522-.14v-.188ZM7.16 7.37c0-1.111 1.526-1.838 1.526-1.838s-.882.473-.882 1.792c0 1.318.458 1.89.458 1.89S7.16 8.48 7.16 7.368Zm5.149-.061c0-1.111-1.525-1.777-1.525-1.777s.882.473.882 1.792c0 1.318-.458 1.89-.458 1.89s1.1-.794 1.1-1.905Zm-4.107.303c-.058-1.11.865-2.104.865-2.104s-.336.457-.267 1.774c.024.452.202 1.124.426 1.521V5.578h.938V8.83c.225-.37.398-1.002.422-1.46.069-1.318-.251-1.863-.251-1.863s.923.994.865 2.104c-.035.66-.543 1.36-.95 1.817.198.044.462.098.825.17.008.04-.073.038-.234.034a5.149 5.149 0 0 0-.813.035 5.39 5.39 0 0 1-.28.27L9.7 9.88a1.55 1.55 0 0 0-.046.059s-.116-.101-.282-.27a5.148 5.148 0 0 0-.813-.036c-.16.004-.241.006-.234-.035.364-.071.628-.125.825-.169-.406-.457-.914-1.156-.949-1.817Z" clip-rule="evenodd"/></g></g></g><defs><clipPath id="a"><rect width="20" height="15" fill="#fff" rx="2"/></clipPath></defs></svg>