<svg viewBox="0 0 20 15" fill="none" xmlns="http://www.w3.org/2000/svg"><path d="M0 0v15h20V0H0Z" fill="#f7fcff"/><path d="M0 0v5h20V0H0Z" fill="#5eaa22"/><path d="M0 10v5h20v-5H0Z" fill="#e31d1c"/><path d="M.23 10.85h-1.42m-.01.57v-.33h.46v.32h.47v-.32h-.25m.73.31h-.23v-.3h.5v-.25.55H.7v-.55m.25.03v.53H.72m1.95-.56H1.25m-.01.57v-.33h.46v.32h.47v-.32h-.25m.78.31h-.24v-.3h.5v-.25.55h.22v-.55m.25.03v.53H3.2m1.95-.56H3.73m-.01.57v-.33h.46v.32h.47v-.32H4.4m.73.31H4.9v-.3h.5v-.25.55h.22v-.55m.25.03v.53h-.23m1.96-.56H6.16m0 .57v-.33h.46v.32h.47v-.32h-.24m.72.31h-.23v-.3h.5v-.25.55h.22v-.55m.24.03v.53h-.22m1.95-.56H8.61m-.01.57v-.33h.46v.32h.47v-.32h-.25m.77.31h-.23v-.3h.5v-.25.55h.22v-.55m.26.03v.53h-.24m1.96-.56h-1.43m-.01.57v-.33h.46v.32h.47v-.32h-.24m.77.31h-.24v-.3h.5v-.25.55h.22v-.55m.25.03v.53h-.23m1.96-.56h-1.42m-.02.57v-.33h.46v.32h.47v-.32h-.24m.77.31h-.24v-.3h.5v-.25.55h.22v-.55m.26.03v.53h-.24m1.96-.56h-1.42m-.02.57v-.33h.47v.32h.46v-.32h-.24m.73.31h-.24v-.3h.5v-.25.55h.22v-.55m.26.03v.53h-.24m1.96-.56H18.5m-.02.57v-.33h.47v.32h.46v-.32h-.24m.86.31h-.24v-.3h.5v-.25.55h.22v-.55M.23 3.23h-1.42m-.01.57v-.33h.46v.31h.47v-.31h-.25m.73.31h-.23v-.3h.5v-.26.56H.7v-.56m.25.03v.53H.72m1.95-.55H1.25m-.01.57v-.33h.46v.31h.47v-.31h-.25m.78.31h-.24v-.3h.5v-.26.56h.22v-.56m.25.03v.53H3.2m1.95-.55H3.73m-.01.57v-.33h.46v.31h.47v-.31H4.4m.73.31H4.9v-.3h.5v-.26.56h.22v-.56m.25.03v.53h-.23m1.96-.55H6.16m0 .57v-.33h.46v.31h.47v-.31h-.24m.72.31h-.23v-.3h.5v-.26.56h.22v-.56m.24.03v.53h-.22m1.95-.55H8.61m-.01.57v-.33h.46v.31h.47v-.31h-.25m.77.31h-.23v-.3h.5v-.26.56h.22v-.56m.26.03v.53h-.24m1.96-.55h-1.43m-.01.57v-.33h.46v.31h.47v-.31h-.24m.77.31h-.24v-.3h.5v-.26.56h.22v-.56m.25.03v.53h-.23M15 3.23h-1.42m-.02.57v-.33h.46v.31h.47v-.31h-.24m.77.31h-.24v-.3h.5v-.26.56h.22v-.56m.26.03v.53h-.24m1.96-.55h-1.42m-.02.57v-.33h.47v.31h.46v-.31h-.24m.73.31h-.24v-.3h.5v-.26.56h.22v-.56m.26.03v.53h-.24m1.96-.55H18.5m-.02.57v-.33h.47v.31h.46v-.31h-.24m.86.31h-.24v-.3h.5v-.26.56h.22v-.56" stroke="#f7fcff" stroke-width=".63"/><path d="M9.13 5.16s.27.14.54.14.55-.14.55-.14v.18s-.3.14-.57.14c-.26 0-.52-.14-.52-.14v-.18Zm-1.97 2.2c0-1.1 1.53-1.83 1.53-1.83S7.8 6 7.8 7.33c0 1.31.46 1.88.46 1.88s-1.1-.73-1.1-1.84Zm5.15-.05c0-1.11-1.53-1.78-1.53-1.78s.89.47.89 1.8c0 1.31-.46 1.88-.46 1.88s1.1-.8 1.1-1.9Zm-4.1.3c-.07-1.1.86-2.1.86-2.1s-.34.45-.27 1.77c.02.45.2 1.13.43 1.52V5.58h.93v3.25c.23-.37.4-1 .43-1.46.06-1.32-.26-1.86-.26-1.86s.93 1 .87 2.1c-.03.66-.54 1.36-.95 1.82l.83.17c0 .04-.08.04-.24.03-.18 0-.45 0-.81.04l-.28.27-.05-.06-.05.06-.28-.27a5.15 5.15 0 0 0-.81-.04c-.16 0-.24 0-.23-.03l.82-.17c-.4-.46-.91-1.16-.95-1.82Z" fill="#e31d1c"/></svg>