<svg xmlns="http://www.w3.org/2000/svg" width="20" height="15" fill="transparent" viewBox="0 0 20 15"><g clip-path="url(#a)"><mask id="b" width="20" height="15" x="0" y="0" maskUnits="userSpaceOnUse" style="mask-type:luminance"><path fill="#fff" d="M0 0h20v15H0z"/></mask><g mask="url(#b)"><path fill="#F7FCFF" fill-rule="evenodd" d="M0 0h20v15H0V0Z" clip-rule="evenodd"/><path fill="#F7FCFF" stroke="#E31D1C" stroke-width="1.688" d="m-1.688.778-1.28-.774v15.492l1.28-.774 10.336-6.25 1.194-.722-1.194-.722L-1.688.778Z"/><path fill="#F7FCFF" stroke="#E31D1C" stroke-width="1.688" d="m21.826.77 1.267-.736v15.432l-1.267-.736-10.762-6.25-1.256-.73 1.256-.73L21.826.77Z"/><path fill="#E31D1C" fill-rule="evenodd" d="M8.547 2.94S8.01 5.312 9.863 6.224c0 0 1.779-.97 1.38-3.286 0 0-.764-.255-1.372-.255-.607 0-1.324.255-1.324.255Z" clip-rule="evenodd"/><path fill="#FFD100" fill-rule="evenodd" d="M8.74 3.437s.197-.088.296 0c.098.087.178-.008.178-.06 0-.054.156-.235.156-.088 0 .148-.049.23.088.23s.754-.203.902-.143c.147.06.26.046.223-.04-.038-.087-.134-.141-.32-.094-.186.047-.142.093-.303.093-.16 0-.34-.046-.34-.046s.05-.077.234-.022.437-.068.506-.068c.068 0 .258-.004.277.043.018.047.133.09.046.134-.088.044-.231.072-.132.128.098.056.326.046.337.104.011.059.119.146.075.146-.043 0-.121.083-.194.058-.073-.026-.081-.048-.011-.068.07-.02.069-.106.011-.106-.057 0-.03.03-.16 0-.132-.03-.305-.063-.295 0 .01.063.096.16-.061.174-.158.013-.232.065-.262.023-.031-.042-.14-.098-.054-.116.086-.018.168.06.2.048.03-.013.1-.02.042-.074-.06-.055-.156-.087-.066-.128.09-.04.019-.041-.153.043-.172.085-.267.156-.418.146-.15-.01-.207.004-.255-.01-.049-.014-.285.151-.352.11-.068-.042-.288-.058-.248-.11.04-.051.092-.078.151-.051.06.026.118.053.158.026.04-.026.155-.117.126-.135-.03-.019-.001-.08-.165-.08s-.221.068-.26.025c-.039-.043.042-.092.042-.092Zm.163.78s.174-.078.26 0c.087.077.157-.007.157-.053 0-.047.137-.207.137-.077s-.042.203.078.203.662-.18.792-.126c.13.053.23.04.197-.036s-.118-.124-.282-.082c-.163.041-.125.082-.266.082-.141 0-.299-.041-.299-.041s.045-.068.206-.02c.161.049.384-.06.444-.06s.227-.003.244.039c.016.041.117.08.04.118-.076.038-.203.063-.116.112.087.05.287.04.297.091.01.052.104.129.066.129-.038 0-.107.072-.17.05-.065-.022-.072-.041-.01-.059.06-.018.06-.093.01-.093-.051 0-.027.026-.142 0-.115-.027-.268-.056-.258 0 .009.056.084.14-.055.152-.138.012-.203.057-.23.02-.027-.036-.123-.085-.048-.101.076-.016.149.053.176.042.027-.011.089-.017.037-.065s-.137-.076-.058-.112c.08-.036.017-.037-.134.037-.15.075-.235.138-.367.129-.133-.009-.182.003-.225-.009-.043-.012-.25.133-.31.096-.06-.037-.252-.05-.217-.096.034-.045.081-.069.133-.045.052.023.103.046.138.023.035-.023.136-.103.11-.12-.024-.015 0-.069-.144-.069s-.194.06-.228.022c-.035-.038.037-.081.037-.081Zm.231.791s.132-.058.197 0c.066.059.12-.004.12-.04 0-.035.103-.156.103-.058s-.032.154.06.154c.09 0 .501-.136.6-.096.099.04.174.03.149-.027-.025-.058-.09-.094-.213-.062-.125.031-.095.062-.202.062-.108 0-.227-.03-.227-.03s.034-.052.156-.016c.122.037.291-.045.337-.045.046 0 .172-.003.185.029.012.031.089.06.03.09-.058.029-.154.047-.088.084.066.038.218.03.225.07.008.039.08.097.05.097-.028 0-.08.055-.129.038-.049-.016-.054-.031-.008-.045.047-.013.046-.07.008-.07s-.02.02-.107 0-.203-.042-.196 0c.007.042.064.107-.041.115-.105.01-.155.044-.175.016-.02-.028-.093-.065-.036-.077.057-.012.112.04.133.032.02-.009.068-.014.028-.05-.039-.036-.104-.058-.044-.085.06-.027.013-.027-.101.029-.115.056-.178.104-.279.097-.1-.007-.138.003-.17-.007-.033-.009-.19.101-.235.073-.045-.028-.191-.038-.165-.073.026-.034.061-.052.1-.034.04.018.08.035.106.018.026-.018.103-.078.084-.09-.02-.013 0-.054-.11-.054s-.148.046-.173.017c-.026-.028.028-.062.028-.062Z" clip-rule="evenodd"/></g></g><defs><clipPath id="a"><rect width="20" height="15" fill="#fff" rx="2"/></clipPath></defs></svg>