<svg viewBox="0 0 20 15" fill="none" xmlns="http://www.w3.org/2000/svg"><path d="M0 0v15h20V0H0Z" fill="#c51918"/><path d="M9.99 11.17h.2l.38 1.22.1-1.28.37-.1.66 1.12-.2-1.28c.11-.05.23-.1.34-.17l.9.93-.5-1.2.3-.24 1.1.7-.77-1.04.23-.31 1.23.42-.99-.84c.06-.11.1-.23.15-.35l1.3.14-1.16-.6.07-.38 1.29-.16-1.26-.3-.02-.4 1.21-.45-1.3-.01a3.64 3.64 0 0 0-.1-.38l1.07-.71-1.27.28a3.68 3.68 0 0 0-.2-.34l.89-.94-1.17.56c-.08-.1-.17-.2-.27-.28l.64-1.12-1 .81-.33-.21.36-1.23-.78 1.02-.37-.14.06-1.28-.53 1.17a3.78 3.78 0 0 0-.39-.04L10 2.5l-.23 1.26c-.14 0-.27.02-.4.04l-.52-1.17.06 1.28-.37.13-.78-1.01.35 1.23-.33.21-1-.8.64 1.1-.27.29-1.16-.56.87.94a3.7 3.7 0 0 0-.2.34L5.4 5.5l1.07.71c-.05.12-.09.25-.12.38l-1.28.01 1.2.45-.02.4-1.25.3 1.28.16c.01.13.04.26.07.39l-1.15.59 1.28-.14.16.36-.98.83 1.22-.42.24.31-.77 1.04 1.1-.7c.09.1.19.18.3.25l-.5 1.19.9-.93c.1.07.22.13.34.18l-.2 1.27.65-1.11c.13.04.25.07.38.09l.1 1.28.38-1.23h.19Zm2.81-3.72a2.82 2.82 0 0 1-2.83 2.8 2.82 2.82 0 0 1-2.84-2.8 2.82 2.82 0 0 1 2.84-2.81 2.82 2.82 0 0 1 2.83 2.8Zm-.86.91a2.14 2.14 0 0 0 .01-1.72c-.49.04-.9.16-1.24.33.75.33 1.09.86 1.23 1.4Zm-.24.41c-.06.09-.13.16-.2.24a2.91 2.91 0 0 0-.92-1.91c.7.33 1.1 1.14 1.12 1.67Zm-.53.51-.13.08a4.36 4.36 0 0 0-.93-2.01l.11-.08.05-.03c.56.65.92 1.2.9 2.04Zm-1.19.36c.26 0 .5-.05.72-.13a5.08 5.08 0 0 0-.86-2.05 3.05 3.05 0 0 0-.75 1.98c.28.13.58.2.9.2Zm-.4-2.43.04.04a3.3 3.3 0 0 0-.86 2l-.18-.14c.2-.79.52-1.43 1-1.9ZM8 6.66c.5.05.88.17 1.17.3-.74.32-1.03.83-1.18 1.35A2.14 2.14 0 0 1 8 6.66Zm.27 2.13a2.15 2.15 0 0 1-.05-.06A2 2 0 0 1 9.31 7.1c-.47.45-.82.97-1.03 1.7Zm.16-2.78a2.14 2.14 0 0 1 3.07-.02c-.61.07-1.13.22-1.55.46a4.16 4.16 0 0 0-1.52-.44Z" fill="#ffdc17"/></svg>