<svg xmlns="http://www.w3.org/2000/svg" width="20" height="15" fill="transparent" viewBox="0 0 20 15"><g clip-path="url(#a)"><mask id="b" width="20" height="15" x="0" y="0" maskUnits="userSpaceOnUse" style="mask-type:luminance"><path fill="#fff" d="M0 0h20v15H0z"/></mask><g mask="url(#b)"><path fill="#C51918" fill-rule="evenodd" d="M0 0v15h20V0H0Z" clip-rule="evenodd"/><mask id="c" width="20" height="15" x="0" y="0" maskUnits="userSpaceOnUse" style="mask-type:luminance"><path fill="#fff" fill-rule="evenodd" d="M0 0v15h20V0H0Z" clip-rule="evenodd"/></mask><g mask="url(#c)"><path fill="#FFDC17" fill-rule="evenodd" d="M9.989 11.167c.067 0 .133-.002.2-.005l.385 1.23.09-1.285c.128-.024.255-.054.38-.09l.66 1.109-.212-1.271c.12-.053.236-.11.349-.175l.902.929-.503-1.19a3.73 3.73 0 0 0 .298-.248l1.094.697-.765-1.043c.083-.099.16-.202.233-.31l1.226.429-.986-.84c.057-.114.109-.233.155-.354l1.291.136-1.154-.59a3.72 3.72 0 0 0 .068-.382l1.288-.163-1.26-.31a4.105 4.105 0 0 0-.022-.387l1.214-.453-1.296-.014a3.645 3.645 0 0 0-.112-.372l1.075-.718-1.264.283a3.705 3.705 0 0 0-.195-.337l.878-.944-1.163.564a3.724 3.724 0 0 0-.269-.283l.635-1.119-1 .814a3.744 3.744 0 0 0-.328-.215l.358-1.232-.782 1.019a3.73 3.73 0 0 0-.371-.135l.061-1.278-.524 1.17a3.772 3.772 0 0 0-.392-.046L9.993 2.5l-.237 1.257a3.779 3.779 0 0 0-.394.045L8.84 2.634l.062 1.276a3.732 3.732 0 0 0-.373.134l-.78-1.016.356 1.227a3.745 3.745 0 0 0-.332.216l-.995-.81.632 1.113c-.096.09-.186.186-.272.286L5.98 4.5l.874.937c-.073.11-.139.224-.2.341L5.4 5.497l1.068.713a3.655 3.655 0 0 0-.113.377l-1.288.014 1.206.45a3.91 3.91 0 0 0-.022.392L5 7.751l1.279.162c.016.131.039.26.069.386L5.2 8.886l1.283-.135c.046.123.099.243.157.36l-.98.833 1.22-.426c.072.109.151.213.235.313l-.76 1.037 1.088-.694c.096.089.196.172.301.25l-.5 1.185.899-.925c.113.064.23.122.35.174l-.211 1.268.66-1.107c.124.036.252.066.381.09l.09 1.282.385-1.229c.063.003.127.005.19.005Zm2.812-3.72c0 1.553-1.27 2.812-2.835 2.812C8.4 10.26 7.131 9 7.131 7.447s1.27-2.812 2.835-2.812c1.566 0 2.835 1.26 2.835 2.812Zm-.857.916a2.136 2.136 0 0 0 .008-1.722c-.49.035-.904.164-1.24.329.746.326 1.084.864 1.232 1.393Zm-.241.411c-.061.082-.128.16-.2.232-.04-.738-.356-1.3-.922-1.908.701.336 1.097 1.138 1.122 1.676Zm-.537.507c-.04.027-.08.051-.121.075-.168-.829-.487-1.483-.93-2.006l.107-.081.044-.032c.567.652.925 1.212.9 2.044Zm-1.181.355c.251 0 .492-.043.717-.123-.163-.789-.447-1.523-.858-2.053a3.062 3.062 0 0 0-.75 1.983c.272.124.573.193.89.193Zm-.413-2.43.049.04c-.523.594-.809 1.265-.858 2.009a2.153 2.153 0 0 1-.184-.144c.197-.787.523-1.436.993-1.905Zm-1.561-.55c.491.055.88.174 1.17.313-.741.314-1.033.822-1.18 1.339a2.137 2.137 0 0 1 .01-1.652Zm.269 2.137a2.147 2.147 0 0 1-.048-.066c.037-.543.383-1.314 1.081-1.632A3.74 3.74 0 0 0 8.28 8.793Zm.159-2.784a2.14 2.14 0 0 1 3.073-.02c-.612.072-1.13.225-1.552.464-.375-.216-.883-.361-1.521-.444Z" clip-rule="evenodd"/></g></g></g><defs><clipPath id="a"><rect width="20" height="15" fill="#fff" rx="2"/></clipPath></defs></svg>