<svg xmlns="http://www.w3.org/2000/svg" width="20" height="15" fill="transparent" viewBox="0 0 20 15"><g clip-path="url(#a)"><path fill="#032EA1" d="M0 0h20v15H0V0Z"/><path fill="#E00025" d="M0 3.75h20v7.5H0v-7.5Z"/><path fill="#fff" stroke="#000" stroke-linejoin="bevel" stroke-width=".03" d="M7.887 7.069h4.268V8.71H7.887V7.07Z"/><path fill="#fff" stroke="#000" stroke-linejoin="bevel" stroke-width=".03" d="M7.887 7.151h4.268v.162H7.887V7.15Z"/><path fill="#fff" stroke="#000" stroke-width=".03" d="M6.219 8.794a.349.349 0 0 0 .165-.199h7.241a.349.349 0 0 0 .165.199H6.219Z"/><path fill="#fff" fill-rule="evenodd" d="M9.999 4.41c-.09.004-.086.158-.086.158h.168s.004-.158-.082-.158Zm-.555 1.995v.206h1.11v-.206c.002-.056.032-.085.06-.11.023-.023.045-.043.045-.077 0 0 .015-.113-.019-.165-.038.15-.113.123-.113.06 0-.046.032-.092.097-.187l.031-.046c.03-.045.011-.176-.026-.225-.015.116-.034.169-.083.169-.03 0-.056-.019-.056-.075a.2.2 0 0 1 .04-.11c.013-.022.026-.044.035-.07a.187.187 0 0 0-.037-.199 3.4 3.4 0 0 0-.009.053c-.01.074-.015.105-.055.105-.095-.028-.013-.16.017-.209l.005-.009c.019-.071-.037-.127-.037-.127-.03.097-.038.108-.075.097-.045-.011-.038-.075.015-.127.034-.034.03-.087-.008-.124-.037.075-.097.064-.09.019l.034-.162h-.045l.015-.116h-.056l.011-.097h-.506l.007.097H9.7l.015.116h-.041l.03.165c-.004.045-.05.049-.087-.022-.037.037-.041.086-.007.124.052.052.06.116.015.127-.038.011-.045.004-.075-.097 0 0-.06.086-.038.127l.007.01c.03.05.11.176.016.208-.04 0-.045-.031-.056-.105L9.47 5.37a.188.188 0 0 0-.041.199c.01.024.022.045.034.065a.21.21 0 0 1 .04.115c0 .056-.022.075-.052.075-.048 0-.067-.056-.082-.169-.038.049-.056.18-.026.221l.019.03c.072.11.104.158.104.207 0 .063-.07.09-.112-.06-.03.052-.015.165-.015.165 0 .034.022.054.046.076.028.026.059.054.059.111ZM9.75 4.77v.003h.488V4.77H9.75Zm.087-.099-.012-.1h.338l-.004.1h-.322Zm1.05 3.935c0 .079.112.162.187.188H8.956c.075-.026.15-.109.15-.188v-.911l-.093-.127h1.972l-.098.127v.911Z" clip-rule="evenodd"/><path fill="#000" d="M9.913 4.568h-.015v.015h.015v-.015Zm.086-.158v-.015.015Zm.082.158v.015h.015v-.015h-.015ZM9.444 6.61h-.015v.015h.015V6.61Zm1.11 0v.015h.015V6.61h-.015Zm0-.206h-.015.015Zm.06-.11.01.01-.01-.01Zm.045-.077-.015-.002v.002h.015Zm-.019-.165.013-.009-.02-.029-.007.034.014.004Zm-.017-.127.013.009-.012-.009Zm.032-.046.013.008-.013-.008Zm-.026-.225.012-.01-.022-.028-.005.036.015.002Zm-.1-.017.014.008-.013-.008Zm.036-.07-.014-.005v.001l.014.005Zm-.037-.198.01-.01-.02-.022-.005.03.014.002Zm-.009.053.015.002-.015-.002Zm0 0-.014-.002.014.002Zm-.055.105-.005.015h.005v-.015Zm.017-.209.012.008-.012-.008Zm.005-.009.014.008v-.004l-.014-.004Zm-.037-.127.01-.011-.017-.018-.008.024.015.005Zm-.075.097.004-.014-.004.014Zm.015-.127.01.01-.01-.01Zm-.008-.124.01-.01-.014-.016-.01.02.014.006Zm-.09.019-.014-.004v.001l.014.003Zm.034-.162.015.003.004-.018h-.019v.015Zm-.045 0-.015-.002-.002.017h.017v-.015Zm.015-.116.015.002.002-.017h-.017v.015Zm-.045-.097.015.001.002-.016h-.017v.015Zm-.506 0v-.015h-.016v.016l.016-.001Zm-.045.097v-.015h-.017l.002.017.015-.002Zm.015.116V4.9h.017l-.002-.017-.015.002Zm-.041 0V4.87h-.018l.003.018.015-.003Zm.03.165.015.002v-.004l-.015.002Zm-.087-.022.014-.007-.01-.018-.014.014.01.01Zm-.007.124-.011.01.01-.01Zm.015.127-.004-.015.004.015Zm-.075-.097.014-.005-.009-.03-.018.026.013.009Zm-.038.127-.013.007.013-.007Zm.007.01-.013.008.013-.007Zm.016.208v.015l.005-.001-.005-.014Zm-.056-.105-.015.002.015-.002ZM9.47 5.37l.015-.002-.005-.03-.02.022.01.01Zm-.041.199-.014.005.014-.005Zm.034.065.013-.008-.013.008Zm-.094.021.015-.002-.005-.036-.022.029.012.009Zm-.026.221.012-.008-.012.008Zm.019.03-.013.008.013-.009Zm-.008.147.014-.004-.01-.035-.017.031.013.008Zm-.015.165h.015v-.002l-.015.002Zm.046.076-.01.011.01-.011Zm.366-1.521h-.015l.001.015h.014v-.015Zm.488 0v.015h.013l.002-.014-.015-.001Zm-.413-.202v-.015H9.81l.001.017.015-.002Zm.012.1-.015.002.001.013h.014v-.015Zm.326-.1h.015v-.015h-.015v.015Zm-.004.1v.015h.014l.001-.014h-.015Zm.915 4.123v.015l.005-.03-.005.015Zm-2.119 0-.005-.014.005.029v-.015Zm.15-1.099h.019l-.007-.009-.012.009Zm-.093-.127v-.015h-.03L9 7.576l.013-.008Zm1.972 0 .012.009.018-.024h-.03v.015Zm-.098.127-.014-.011v.011h.014Zm-.974-3.127h.015v-.002a.2.2 0 0 1 0-.021.282.282 0 0 1 .008-.051.128.128 0 0 1 .023-.048.053.053 0 0 1 .04-.021v-.03a.083.083 0 0 0-.063.032.158.158 0 0 0-.029.06.311.311 0 0 0-.01.074v.006h.016Zm.168-.015h-.168v.03h.168v-.03ZM10 4.425c.016 0 .028.007.037.019.01.012.017.03.022.048a.3.3 0 0 1 .008.069v.006h.03v-.006a.43.43 0 0 0-.01-.076.157.157 0 0 0-.026-.06.076.076 0 0 0-.061-.03v.03Zm-.54 2.186v-.206h-.03v.206h.03Zm1.095-.015h-1.11v.03h1.11v-.03Zm-.015-.191v.206h.03v-.206h-.03Zm.064-.121c-.027.025-.062.057-.064.12l.03.002c.002-.05.027-.075.055-.1l-.02-.022Zm.04-.066c0 .027-.015.043-.04.066l.02.022c.024-.022.05-.046.05-.088h-.03Zm-.016-.157c.015.022.02.06.02.094l-.001.043-.002.013v.004l.015.003.015.002v-.006l.002-.014.001-.045a.223.223 0 0 0-.024-.11l-.026.016Zm-.115.052a.08.08 0 0 0 .016.048c.01.012.027.02.044.016.017-.003.033-.015.047-.034a.265.265 0 0 0 .036-.087l-.03-.007a.234.234 0 0 1-.03.077.062.062 0 0 1-.028.022.015.015 0 0 1-.016-.006.045.045 0 0 1-.008-.03h-.03Zm.1-.195a1.219 1.219 0 0 0-.074.113.17.17 0 0 0-.026.082h.03c0-.02.007-.04.022-.068.016-.028.04-.062.072-.11l-.025-.017Zm.03-.046-.03.046.024.017.031-.047-.024-.016Zm-.025-.208a.24.24 0 0 1 .035.107.277.277 0 0 1 .002.06.09.09 0 0 1-.011.04l.024.017a.12.12 0 0 0 .017-.054.311.311 0 0 0-.002-.067.27.27 0 0 0-.041-.121l-.024.018Zm-.07.175a.065.065 0 0 0 .04-.013.092.092 0 0 0 .027-.037.489.489 0 0 0 .03-.132l-.03-.004a.468.468 0 0 1-.027.124.064.064 0 0 1-.018.025.035.035 0 0 1-.023.007v.03Zm-.072-.09c0 .03.007.053.02.068a.065.065 0 0 0 .051.022v-.03a.036.036 0 0 1-.028-.012c-.007-.008-.013-.022-.013-.048h-.03Zm.042-.119c-.02.033-.042.068-.042.119h.03c0-.041.017-.07.038-.103l-.026-.016Zm.034-.066a.258.258 0 0 1-.034.066l.026.016a.323.323 0 0 0 .036-.072l-.028-.01Zm-.034-.184c.046.05.06.12.034.183l.028.011a.203.203 0 0 0-.04-.214l-.022.02Zm.017.045.008-.053-.03-.004-.008.053.03.004Zm0 0-.03-.004.03.004Zm-.07.118a.058.058 0 0 0 .032-.009.055.055 0 0 0 .02-.025.334.334 0 0 0 .018-.084l-.03-.004a.348.348 0 0 1-.015.076.026.026 0 0 1-.01.012.029.029 0 0 1-.015.004v.03Zm.004-.232c-.015.024-.044.07-.057.116a.121.121 0 0 0-.003.067.07.07 0 0 0 .052.048l.008-.029c-.02-.006-.028-.016-.031-.027a.093.093 0 0 1 .003-.05.48.48 0 0 1 .053-.109l-.025-.016Zm.005-.009-.005.01.025.015.006-.01-.026-.015Zm-.024-.12-.01.011.001.002a.144.144 0 0 1 .021.031c.01.021.019.05.01.08l.03.008c.01-.04 0-.076-.013-.101a.182.182 0 0 0-.026-.038l-.002-.002v-.001l-.011.01Zm-.08.112c.01.003.02.006.03.004a.04.04 0 0 0 .027-.017.144.144 0 0 0 .018-.035l.02-.06-.03-.008a1.05 1.05 0 0 1-.018.057.116.116 0 0 1-.014.028c-.003.004-.005.005-.007.005l-.017-.002-.008.028Zm.01-.152a.159.159 0 0 0-.05.088.065.065 0 0 0 .008.04c.007.012.018.02.033.025l.007-.03a.022.022 0 0 1-.014-.01.036.036 0 0 1-.003-.021.13.13 0 0 1 .04-.07l-.022-.022Zm-.008-.103c.033.033.034.076.007.103l.021.021c.041-.04.035-.103-.007-.145l-.021.021Zm-.095.006a.047.047 0 0 0 .01.039c.008.01.02.015.034.014.027-.001.055-.023.075-.063l-.027-.013c-.018.035-.038.046-.05.046-.005 0-.008-.001-.01-.003-.001-.003-.003-.007-.002-.015l-.03-.005Zm.034-.162-.033.161.029.007.034-.162-.03-.006Zm-.03.018h.045v-.03h-.045v.03Zm0-.133-.015.116.03.004.015-.116-.03-.004Zm-.04.017h.055v-.03h-.056v.03Zm.014-.013.011-.098-.03-.003-.01.097.029.004Zm-.004-.114h-.506v.03h.506v-.03Zm-.521.016.007.097.03-.002-.007-.098-.03.003Zm-.03.111h.052v-.03H9.7v.03Zm.03.1-.015-.117-.03.004.015.116.03-.004Zm-.056.016h.04v-.03h-.04v.03Zm.044.148-.03-.165-.03.005.03.165.03-.005Zm-.114-.013c.02.037.043.06.067.062a.038.038 0 0 0 .034-.01.056.056 0 0 0 .013-.035l-.03-.003c0 .01-.003.014-.005.016s-.004.003-.008.003c-.009-.002-.026-.013-.044-.047l-.027.014Zm.017.107a.068.068 0 0 1-.02-.051.082.082 0 0 1 .027-.053l-.021-.02a.112.112 0 0 0-.035.07.098.098 0 0 0 .027.074l.022-.02Zm.007.152a.052.052 0 0 0 .034-.025.065.065 0 0 0 .007-.04.158.158 0 0 0-.049-.088l-.02.021c.024.025.037.05.039.07.001.01 0 .017-.003.022a.022.022 0 0 1-.015.01l.007.03Zm-.093-.108a.977.977 0 0 0 .02.06.134.134 0 0 0 .018.036.04.04 0 0 0 .027.016c.01 0 .02-.002.03-.005l-.01-.028a.05.05 0 0 1-.017.003c-.002 0-.004 0-.007-.005a.107.107 0 0 1-.013-.027.956.956 0 0 1-.019-.059l-.029.009Zm-.01.116c-.003-.006-.004-.015-.002-.028a.166.166 0 0 1 .013-.038.326.326 0 0 1 .026-.045l-.012-.01-.013-.008v.001l-.002.003a.36.36 0 0 0-.026.047.195.195 0 0 0-.015.045.072.072 0 0 0 .005.047l.026-.014Zm.007.01-.007-.01-.025.015.006.01.026-.015Zm.008.229a.074.074 0 0 0 .05-.049.12.12 0 0 0-.002-.066c-.013-.045-.042-.09-.057-.114l-.025.015a.457.457 0 0 1 .053.107.09.09 0 0 1 .003.05c-.004.011-.013.022-.032.028l.01.029Zm-.076-.117c.006.036.01.065.018.084.005.01.011.02.02.025a.06.06 0 0 0 .033.009v-.03a.029.029 0 0 1-.016-.004.026.026 0 0 1-.01-.012.343.343 0 0 1-.015-.076l-.03.004Zm-.008-.053.008.053.03-.004-.008-.053-.03.004Zm-.012.191a.172.172 0 0 1 .038-.182L9.46 5.36a.203.203 0 0 0-.044.214l.028-.01Zm.033.063a.392.392 0 0 1-.033-.063l-.028.011a.38.38 0 0 0 .035.067l.026-.015Zm.043.123a.22.22 0 0 0-.043-.123l-.026.015c.021.035.039.065.039.108h.03Zm-.068.09a.06.06 0 0 0 .05-.022.11.11 0 0 0 .018-.068h-.03c0 .026-.006.041-.012.049-.006.007-.014.01-.026.01v.03Zm-.097-.182c.007.056.016.1.03.13a.097.097 0 0 0 .027.038c.011.01.025.014.04.014v-.03A.034.034 0 0 1 9.43 5.8a.068.068 0 0 1-.018-.026.478.478 0 0 1-.027-.122l-.03.004Zm0 .21a.08.08 0 0 1-.01-.037.27.27 0 0 1 .001-.06.243.243 0 0 1 .036-.106l-.024-.018a.27.27 0 0 0-.042.12.3.3 0 0 0-.001.067c.002.02.007.039.016.052l.025-.018Zm.02.03-.019-.029-.025.017.02.029.024-.017Zm.107.216a.184.184 0 0 0-.027-.088c-.017-.033-.044-.073-.08-.128l-.025.017c.037.055.062.094.079.125a.155.155 0 0 1 .023.074h.03Zm-.142-.056c.01.038.024.066.038.086a.07.07 0 0 0 .046.034.044.044 0 0 0 .043-.016.076.076 0 0 0 .015-.048h-.03a.047.047 0 0 1-.008.029c-.005.005-.01.007-.015.006-.006-.001-.016-.007-.027-.023a.25.25 0 0 1-.033-.076l-.029.008Zm0 .16.015-.001v-.002a.219.219 0 0 1-.002-.016.535.535 0 0 1 .002-.095.129.129 0 0 1 .013-.043l-.026-.015a.158.158 0 0 0-.017.053.372.372 0 0 0-.002.102.563.563 0 0 0 .002.018v.001l.015-.001Zm.056.066c-.025-.023-.041-.039-.041-.065h-.03c0 .041.027.066.05.087l.02-.022Zm.064.122c0-.064-.036-.096-.064-.122l-.02.022c.028.026.054.05.054.1h.03Zm.277-1.634v.003l.03-.003V4.77l-.03.002Zm.015.017h.488v-.03h-.49v.03Zm.503-.014v-.002l-.03-.004v.003l.03.003Zm-.503.011h.488v-.03h-.488v.03Zm.06-.212.012.1.03-.003-.012-.1-.03.003Zm.353-.017h-.338v.03h.338v-.03Zm.011.116.004-.1-.03-.001-.004.1h.03Zm-.337.014h.322v-.03h-.322v.03ZM11.08 8.78a.372.372 0 0 1-.117-.071c-.036-.033-.06-.07-.06-.103h-.03c0 .046.032.09.07.125a.402.402 0 0 0 .127.077l.01-.028Zm-2.124.029h2.119v-.03H8.956v.03Zm.135-.203a.169.169 0 0 1-.043.104.231.231 0 0 1-.097.07l.01.028a.26.26 0 0 0 .11-.079.198.198 0 0 0 .05-.123h-.03Zm0-.911v.911h.03v-.911h-.03Zm-.09-.119.093.128.024-.018-.093-.127L9 7.576Zm1.984-.023H9.013v.03h1.972v-.03Zm-.085.151.097-.127-.024-.019-.097.128.024.018Zm.002.902v-.911h-.03v.911h.03Z"/><path fill="#fff" fill-rule="evenodd" d="M9.492 7.973h-.135v1h.135v-1Zm1.14 0h-.135v1h.135v-1Z" clip-rule="evenodd"/><path fill="#000" d="M9.357 7.973v-.015l-.015.015h.015Zm.135 0h.015l-.015-.015v.015Zm-.135 1h-.015l.015.015v-.015Zm.135 0v.015l.015-.015h-.015Zm1.005-1v-.015l-.015.015h.015Zm.135 0h.015l-.015-.015v.015Zm-.135 1h-.015l.015.015v-.015Zm.135 0v.015l.015-.015h-.015Zm-1.275-.985h.135v-.03h-.135v.03Zm.015.985v-1h-.03v1h.03Zm.12-.015h-.135v.03h.135v-.03Zm-.015-.985v1h.03v-1h-.03Zm1.02.015h.135v-.03h-.135v.03Zm.015.985v-1h-.03v1h.03Zm.12-.015h-.135v.03h.135v-.03Zm-.015-.985v1h.03v-1h-.03Z"/><path fill="#fff" stroke="#000" stroke-width=".03" d="M8.975 6.532v1.035H11V6.532a.158.158 0 0 0-.098.105v.443H9.076v-.443s-.022-.075-.105-.105h.004Z"/><path fill="#fff" stroke="#000" stroke-width=".03" d="M10.723 8.794c-.068-.027-.21-.109-.21-.188v-1.02c.014-.056.09-.09.138-.127H9.312c.064.037.135.063.162.127v1.02c0 .079-.113.161-.18.188h1.428Z"/><path fill="#fff" fill-rule="evenodd" d="M10.902 6.735v.735H9.076v-.73h.188v-.075h1.455v.071h.183Zm-.626 1.871c0 .08.094.162.161.188H9.56c.064-.026.161-.109.161-.188v-.873l-.056-.075h.664l-.053.078v.87Z" clip-rule="evenodd"/><path fill="#000" d="M10.902 7.47v.015h.015V7.47h-.015Zm0-.735h.015V6.72h-.015v.015Zm-1.826.735h-.015v.015h.015V7.47Zm0-.731v-.015h-.015v.015h.015Zm.188 0v.015h.015v-.015h-.015Zm0-.075v-.015h-.015v.015h.015Zm1.455 0h.015v-.015h-.015v.015Zm0 .071h-.015v.015h.015v-.015Zm-.282 2.059v.015l.006-.03-.006.015Zm-.877 0-.006-.014.006.029v-.015Zm.161-1.061h.019l-.007-.01-.012.01Zm-.056-.075v-.015h-.03l.018.024.012-.01Zm.664 0 .012.008.016-.023h-.028v.015Zm-.053.078-.015-.01v.01h.015Zm.641-.266v-.735h-.03v.735h.03Zm-1.84.015h1.825v-.03H9.076v.03ZM9.06 6.74v.731h.03V6.74h-.03Zm.203-.015h-.188v.03h.188v-.03Zm-.015-.06v.075h.03v-.075h-.03Zm1.47-.015H9.264v.03h1.455v-.03Zm.015.086v-.071h-.03v.071h.03Zm.168-.015h-.183v.03h.183v-.03Zm-.46 2.06a.296.296 0 0 1-.1-.07c-.03-.033-.05-.07-.05-.104h-.03c0 .045.026.09.059.124a.327.327 0 0 0 .111.078l.01-.028Zm-.882.029h.877v-.03H9.56v.03Zm.146-.203c0 .034-.021.07-.052.103a.317.317 0 0 1-.1.07l.012.029a.347.347 0 0 0 .11-.078c.033-.035.06-.079.06-.124h-.03Zm0-.873v.873h.03v-.873h-.03Zm-.053-.066.056.075.024-.018-.056-.075-.024.018Zm.676-.024h-.664v.03h.664v-.03Zm-.04.102.052-.08-.025-.016-.052.079.025.017Zm.002.861v-.87h-.03v.87h.03Z"/><path fill="#fff" fill-rule="evenodd" d="M10.85 6.304s-.184.023-.184.241v-.183c-.056 0-.064.07-.064.26l-1.21-.003c0-.183 0-.26-.068-.26v.602c.138.055.236.234.236.234h.87s.098-.18.236-.234v.343h.135V6.75s-.056 0-.056-.097c0-.093.034-.16.105-.156v-.194Z" clip-rule="evenodd"/><path fill="#000" d="M10.85 6.304h.015v-.017l-.017.002.002.015Zm-.184.058h.015v-.015h-.015v.015Zm-.064.26v.016h.015v-.015h-.015Zm-1.21-.003h-.016v.015h.015v-.015Zm-.068-.26v-.016h-.015v.015h.015Zm0 .602h-.015v.01l.01.004.005-.014Zm.236.234-.013.007.004.008h.009v-.015Zm.87 0v.015h.009l.004-.008-.013-.007Zm.236-.234h.015V6.94l-.02.008.005.014Zm0 .343h-.015v.015h.015v-.015Zm.135 0v.015h.015v-.015h-.015Zm0-.553h.015v-.015h-.015v.015Zm.049-.253v.015l.015.001v-.016h-.015Zm-.169.047c0-.104.044-.16.086-.19a.216.216 0 0 1 .083-.036h.002l-.002-.015-.002-.015h-.003l-.006.001a.247.247 0 0 0-.09.04c-.05.036-.098.101-.098.215h.03Zm-.03-.183v.183h.03v-.183h-.03Zm-.034.26c0-.095.002-.158.01-.198a.084.084 0 0 1 .017-.038c.005-.006.012-.009.022-.009v-.03a.058.058 0 0 0-.045.019.112.112 0 0 0-.022.052c-.01.043-.011.11-.011.205h.03Zm-1.226.012 1.211.004v-.03l-1.21-.004v.03Zm-.067-.26c.013 0 .022.003.028.01a.08.08 0 0 1 .016.039c.008.04.008.104.008.196h.03c0-.09 0-.158-.008-.202a.109.109 0 0 0-.024-.054.065.065 0 0 0-.05-.02v.03Zm.015.587v-.603h-.03v.603h.03Zm.221.234.013-.007v-.001l-.001-.002-.004-.006a.636.636 0 0 0-.062-.09.46.46 0 0 0-.177-.142l-.01.028a.43.43 0 0 1 .163.133.752.752 0 0 1 .065.094l.013-.007Zm.87-.015h-.87v.03h.87v-.03Zm.23-.233a.46.46 0 0 0-.176.142.767.767 0 0 0-.063.09l-.003.006v.002h-.001l.013.008.013.007.001-.002.003-.005a.596.596 0 0 1 .06-.087.431.431 0 0 1 .165-.133l-.011-.028Zm.021.357V6.96h-.03v.343h.03Zm.12-.015h-.135v.03h.135v-.03Zm-.015-.538v.553h.03V6.75h-.03Zm-.056-.097c0 .051.015.08.033.096a.066.066 0 0 0 .037.016h.001v-.03h-.004a.036.036 0 0 1-.014-.008c-.01-.009-.023-.028-.023-.074h-.03Zm.12-.17a.098.098 0 0 0-.092.048.234.234 0 0 0-.028.122h.03c0-.045.008-.082.024-.106a.068.068 0 0 1 .065-.035l.002-.03Zm-.015-.18v.194h.03v-.194h-.03Z"/><path fill="#fff" stroke="#000" stroke-width=".03" d="M9.324 6.536c0-.21-.184-.232-.184-.232v.187c.071-.004.105.06.105.15 0 .094-.056.094-.056.094v.532h.135v-.73Z"/><path fill="#000" d="M9.68 5.131h.645v-.03H9.68v.03Zm-.075.203h.787v-.03h-.787v.03Zm-.075.243h.934v-.03H9.53v.03Zm-.079.297h1.106v-.03H9.451v.03Zm-.026.337h1.14v-.03h-1.14v.03Z"/><path fill="#fff" fill-rule="evenodd" d="m9.823 5.134.106.049.15-.004.102-.045v-.131a.453.453 0 0 1-.016.004c-.037.009-.076.019-.076.07-.014-.067-.03-.077-.058-.094-.008-.005-.017-.01-.027-.018a.222.222 0 0 1-.028.02c-.026.016-.046.028-.056.093-.008-.054-.044-.063-.083-.072a.857.857 0 0 1-.014-.003v.13Zm-.208 2.042c.002-.137.005-.334-.115-.456h1c-.12.122-.117.32-.115.456v.043h-.77v-.043Z" clip-rule="evenodd"/><path fill="#000" d="m9.93 5.183-.008.015h.008v-.015Zm-.107-.05h-.015v.01l.009.004.006-.013Zm.257.046v.016l.006-.002-.006-.014Zm.101-.045.007.014.008-.004v-.01h-.015Zm0-.131h.015v-.02l-.019.005.004.015Zm-.016.004-.004-.015.004.015Zm-.076.07-.015.004.03-.003h-.015Zm-.058-.094.008-.013-.008.013Zm-.027-.018.01-.012-.01-.007-.01.008.01.011Zm-.028.02-.008-.013.008.013Zm-.056.093-.014.002h.03l-.016-.002Zm-.083-.072.003-.015-.003.015Zm-.014-.003.004-.015-.019-.005v.02h.015ZM9.5 6.72v-.015h-.036l.025.026.011-.01Zm.115.456H9.6h.015Zm.885-.456.01.01.026-.025H10.5v.015Zm-.115.456h.015-.015Zm0 .043v.015h.015v-.015h-.015Zm-.77 0H9.6v.015h.015v-.015Zm.32-2.05L9.83 5.12l-.012.027.106.05.012-.028Zm.144-.005-.15.004v.03l.151-.004v-.03Zm.096-.044-.101.045.012.028.101-.045-.012-.028Zm-.009-.117v.13h.03v-.13h-.03Zm.002.018a.058.058 0 0 0 .018-.004l-.009-.029-.016.004.007.03Zm-.064.057c0-.022.007-.032.018-.04a.144.144 0 0 1 .046-.017l-.007-.029c-.017.005-.04.01-.057.022-.018.013-.03.033-.03.064h.03Zm-.081-.082a.091.091 0 0 1 .03.024.16.16 0 0 1 .02.06l.03-.005a.187.187 0 0 0-.026-.072c-.011-.016-.025-.024-.038-.033l-.016.026Zm-.028-.019c.01.008.02.014.028.019l.016-.026-.025-.017-.019.024Zm-.011.02a.237.237 0 0 0 .03-.02l-.02-.023a.21.21 0 0 1-.026.018l.016.026Zm-.049.083a.132.132 0 0 1 .02-.058.092.092 0 0 1 .029-.024l-.016-.026a.125.125 0 0 0-.038.032.16.16 0 0 0-.024.071l.03.005Zm-.102-.06a.15.15 0 0 1 .049.018c.011.007.02.019.024.042l.03-.005a.085.085 0 0 0-.037-.062C9.88 5 9.859 4.996 9.84 4.99l-.007.03Zm-.014-.003.014.004.007-.03-.013-.003-.008.03Zm.019.117v-.131h-.03v.13h.03ZM9.489 6.73a.393.393 0 0 1 .1.214c.013.08.012.162.011.23l.03.001a1.308 1.308 0 0 0-.012-.236.423.423 0 0 0-.107-.23l-.022.02Zm1.011-.026h-1v.03h1v-.03Zm-.1.47a1.232 1.232 0 0 1 .012-.23.394.394 0 0 1 .099-.214l-.022-.021a.423.423 0 0 0-.107.23 1.308 1.308 0 0 0-.012.236h.03Zm0 .044v-.043h-.03v.043h.03Zm-.785.015h.77v-.03h-.77v.03ZM9.6 7.176v.043h.03v-.043H9.6Z"/><path fill="#fff" stroke="#000" stroke-width=".03" d="m9.931 5.396-.15-.105v-.116c.056.011.113.019.12.083.015-.094.049-.14.101-.177.05.038.083.083.102.177.004-.064.064-.072.112-.083v.12l-.146.101h-.139Z"/><path fill="#fff" fill-rule="evenodd" d="m9.886 5.73-.255-.15v-.176l.023.004c.084.013.17.026.181.112a.36.36 0 0 1 .17-.255c.092.053.148.124.182.255.01-.086.098-.1.182-.112l.023-.004v.176l-.261.15h-.245Zm.478.199-.228.214H9.87l-.233-.214h.728Zm-.694.641c-.01-.157-.056-.244-.17-.285h1c-.114.041-.16.128-.17.285h-.66Z" clip-rule="evenodd"/><path fill="#000" d="M9.63 5.58h-.014v.009l.007.004.008-.013Zm.256.15-.008.015h.008V5.73Zm-.255-.326.002-.015-.017-.003v.018h.015Zm.023.004-.002.014.002-.014Zm.181.112-.015.002.03.001-.015-.003Zm.17-.255.008-.013-.008-.004-.007.004.008.013Zm.182.255-.014.004.03-.002-.015-.002Zm.182-.112.002.014-.002-.014Zm.023-.004h.015v-.018l-.017.003.002.015Zm0 .176.008.013.007-.004V5.58h-.015Zm-.261.15v.017l.007-.004-.007-.013Zm.005.413v.02l.01-.01-.01-.01Zm.228-.214.01.01.027-.025h-.037v.015Zm-.495.214-.013.015h.013v-.015Zm-.233-.214v-.015h-.038l.028.026.01-.011Zm-.136.356V6.27l-.005.03.005-.015Zm.17.285-.015.001.002.014h.013V6.57Zm.83-.285.005.014-.005-.029v.015Zm-.17.285v.015h.014v-.014h-.014Zm-.707-.977.256.15.015-.026-.256-.15-.015.026Zm-.007-.19v.177h.03v-.176h-.03Zm.04-.01-.023-.004-.005.03.024.003.004-.03Zm.194.125a.116.116 0 0 0-.071-.095.443.443 0 0 0-.123-.03l-.004.03a.44.44 0 0 1 .114.027c.03.014.05.035.054.072l.03-.004Zm.148-.266a.374.374 0 0 0-.177.265l.029.006a.345.345 0 0 1 .164-.245l-.016-.026Zm.204.264a.469.469 0 0 0-.072-.162.368.368 0 0 0-.117-.102l-.015.026a.34.34 0 0 1 .108.094.44.44 0 0 1 .067.152l.029-.008Zm.165-.123a.443.443 0 0 0-.123.03.116.116 0 0 0-.071.095l.03.004c.004-.037.024-.058.054-.072a.44.44 0 0 1 .114-.028l-.005-.03Zm.023-.004-.024.004.005.03.023-.004-.004-.03Zm.017.191v-.176h-.03v.176h.03Zm-.269.163.261-.15-.014-.026-.262.15.015.026Zm-.252.002h.245v-.03h-.245v.03Zm.26.409.228-.214-.02-.022-.228.214.02.022Zm-.277.004h.267v-.03H9.87v.03Zm-.243-.218.233.214.02-.022-.232-.214-.02.022Zm.738-.026h-.728v.03h.728v-.03Zm-.87.385a.21.21 0 0 1 .117.093.408.408 0 0 1 .044.18l.03-.003a.445.445 0 0 0-.048-.192.237.237 0 0 0-.132-.106l-.01.028ZM10.5 6.27h-1v.03h1v-.03Zm-.155.301a.417.417 0 0 1 .044-.18.208.208 0 0 1 .116-.092l-.01-.028a.237.237 0 0 0-.131.106.444.444 0 0 0-.05.192l.03.002Zm-.675.014h.66v-.03h-.66v.03Z"/><path fill="#fff" stroke="#000" stroke-linejoin="bevel" stroke-width=".03" d="M10.332 5.925v-.21a.195.195 0 0 0-.142.124c0-.075-.094-.236-.195-.319-.101.09-.199.24-.195.315-.019-.056-.068-.101-.143-.12v.214l.675-.004Z"/><path fill="#fff" stroke="#000" stroke-linejoin="bevel" stroke-width=".03" d="M10.362 6.285v-.21c-.078.023-.13.064-.153.124 0-.075-.102-.236-.214-.319-.113.094-.218.24-.214.319-.019-.056-.075-.101-.154-.124v.214l.735-.004Z"/><path fill="#fff" stroke="#000" stroke-linejoin="bevel" stroke-width=".03" d="M10.452 6.724v-.248a.36.36 0 0 0-.19.143c0-.131-.15-.338-.267-.401-.12.067-.266.277-.266.4a.364.364 0 0 0-.195-.142v.248h.918Z"/><path fill="#fff" stroke="#000" stroke-width=".03" d="M6.388 8.595V7.83c-.027-.097-.113-.187-.173-.202v-.675l.139.075.161.708V8.6l-.127-.004Z"/><path fill="#fff" stroke="#000" stroke-width=".03" d="M6.286 8.794c.064-.026.158-.109.158-.188v-.96l-.045-.075h1.639l-.064.075v.96a.224.224 0 0 0 .127.188H6.286Z"/><path fill="#fff" stroke="#000" stroke-width=".03" d="M7.768 8.794c-.064-.026-.158-.109-.158-.188v-.91l.135-.128h-1.11l.135.127v.911c0 .08-.094.162-.157.188h1.155Z"/><path fill="#fff" stroke="#000" stroke-width=".03" d="M7.614 8.794c-.064-.027-.161-.109-.161-.188v-.825l.09-.124h-.705l.09.124v.825c0 .079-.094.161-.162.188h.848Z"/><path fill="#fff" fill-rule="evenodd" d="M6.448 6.81h.16v.12h.005v.638h-.165V6.81Zm.116 1.163h.135v.618h-.135v-.618Zm1.155 0h.131v.618h-.135l.004-.618Zm.292-.904h-.228v.487h.228V7.07Z" clip-rule="evenodd"/><path fill="#000" d="M6.609 6.81h.015l-.015-.015v.015Zm-.161 0v-.015l-.015.015h.015Zm.16.12h-.014l.015.015V6.93Zm.005 0h.015l-.015-.015v.015Zm0 .638v.015l.015-.015h-.015Zm-.165 0h-.015l.015.015v-.015Zm.25.405h.016l-.015-.015v.015Zm-.134 0v-.015l-.015.015h.015Zm.135.618v.015l.015-.015h-.015Zm-.135 0h-.015l.015.015v-.015Zm1.286-.618h.015l-.015-.015v.015Zm-.131 0v-.015l-.015.014h.015Zm.131.618v.015l.015-.015H7.85Zm-.135 0H7.7l.015.015v-.015Zm.068-1.522v-.015l-.015.015h.015Zm.228 0h.015l-.015-.015v.015Zm-.228.487h-.015l.015.015v-.015Zm.228 0v.015l.015-.015h-.015Zm-1.402-.76h-.161v.03h.16v-.03Zm.015.134v-.12h-.03v.12h.03Zm-.011-.015h-.004v.03h.004v-.03Zm.015.653V6.93h-.03v.638h.03Zm-.18.015h.165v-.03h-.165v.03Zm-.015-.653v.638h.03V6.93h-.03Zm0-.12v.12h.03v-.12h-.03Zm.266 1.148h-.135v.03h.135v-.03Zm.015.633v-.618h-.03v.618h.03Zm-.15.015h.135v-.03h-.135v.03Zm-.015-.633v.618h.03v-.618h-.03Zm1.301-.015h-.131v.03h.131v-.03Zm.015.633v-.618h-.03v.618h.03Zm-.15.015h.135v-.03h-.135v.03Zm-.011-.634-.004.62h.03l.004-.62h-.03Zm.079-.888h.228v-.03h-.228v.03Zm.015.472V7.07h-.03v.487h.03Zm.213-.015h-.228v.03h.228v-.03Zm-.015-.472v.487h.03V7.07h-.03Z"/><path fill="#fff" fill-rule="evenodd" d="M6.609 6.473V7.56H7.79V6.476c-.018 0-.03.025-.044.055-.022.045-.05.103-.113.103-.057 0-.05-.068-.02-.12.027-.049.06-.113.016-.236-.034.093-.116.123-.101.067a.305.305 0 0 1 .034-.078c.028-.048.052-.09.01-.196-.018.128-.1.124-.082.05a.467.467 0 0 1 .02-.057c.02-.053.037-.097-.009-.188-.033.14-.075.132-.075.045v-.008c0-.122 0-.255-.157-.303 0 0-.011-.112-.068-.112-.06 0-.07.112-.07.112-.158.049-.158.184-.158.311 0 .087-.042.094-.075-.045-.046.091-.029.135-.008.188a.499.499 0 0 1 .019.056c.019.075-.064.079-.083-.049-.04.106-.017.148.01.196a.256.256 0 0 1 .035.078c.015.056-.067.026-.1-.067-.046.123-.012.187.014.236.034.052.038.12-.019.12-.063 0-.091-.06-.113-.106-.014-.03-.026-.055-.044-.055ZM6.35 7.568v-.83c.032-.018.064-.018.1 0v.83h-.1Z" clip-rule="evenodd"/><path fill="#000" d="M6.609 7.56h-.015v.015h.015V7.56Zm0-1.087v-.015h-.015v.015h.015ZM7.79 7.56v.015h.015V7.56H7.79Zm0-1.084h.015v-.015H7.79v.015Zm-.044.055.013.006-.013-.006Zm-.132-.017.013.007-.013-.007Zm.015-.236.014-.006-.014-.039-.014.04.014.005Zm-.101.067.014.004-.014-.004Zm.034-.078L7.55 6.26l.013.007Zm.01-.196.015-.005-.021-.053-.008.056.015.002Zm-.082.05-.014-.005.014.004Zm.02-.057-.015-.005.014.005Zm-.01-.188.014-.006-.019-.037-.01.04.015.003Zm-.075.037H7.41h.015ZM7.27 5.61l-.015.002v.01l.01.002.005-.014Zm-.139 0 .005.014.009-.003.001-.01H7.13Zm-.232.266.014-.003-.01-.04-.018.037.014.006Zm-.008.188.014-.005-.014.005Zm.019.056.014-.004-.014.004Zm-.083-.049.015-.002-.008-.056-.02.053.013.005Zm.01.196.014-.007-.013.007Zm.035.078-.014.004.014-.004Zm-.1-.067.013-.006-.014-.039-.014.04.014.005Zm.014.236-.013.007.013-.007Zm-.132.014.014-.006-.014.006Zm-.303.21-.007-.012-.008.004v.009h.015Zm0 .83h-.015v.015h.015v-.015Zm.1-.83h.015V6.73l-.008-.005-.007.014Zm0 .83v.015h.015v-.015H6.45Zm.174-.008V6.473h-.03V7.56h.03Zm1.166-.015H6.61v.03h1.18v-.03Zm-.015-1.069V7.56h.03V6.476h-.03Zm-.016.061a.272.272 0 0 1 .02-.036c.006-.009.01-.01.011-.01v-.03c-.017 0-.028.012-.035.023-.008.01-.016.026-.023.04l.027.013Zm-.126.112a.108.108 0 0 0 .083-.04.274.274 0 0 0 .043-.072l-.027-.013a.29.29 0 0 1-.038.065.078.078 0 0 1-.061.03v.03ZM7.6 6.506a.17.17 0 0 0-.025.088.06.06 0 0 0 .015.039c.01.01.024.016.042.016v-.03c-.011 0-.017-.003-.02-.007-.004-.004-.007-.01-.007-.02a.14.14 0 0 1 .02-.07L7.6 6.506Zm.014-.223c.022.06.024.104.018.138a.261.261 0 0 1-.032.086l.026.014a.29.29 0 0 0 .036-.095.302.302 0 0 0-.02-.154l-.028.01Zm-.102.058c-.004.016-.004.034.012.043a.033.033 0 0 0 .021.004.064.064 0 0 0 .021-.007.18.18 0 0 0 .076-.098l-.028-.01a.152.152 0 0 1-.062.081.035.035 0 0 1-.01.004H7.54c.003.002-.001.004.002-.01l-.029-.007Zm.036-.081a.307.307 0 0 0-.036.081l.03.008a.292.292 0 0 1 .032-.075L7.55 6.26Zm.01-.183a.22.22 0 0 1 .02.111.197.197 0 0 1-.03.072l.026.014a.226.226 0 0 0 .033-.081.249.249 0 0 0-.021-.127l-.028.01Zm-.083.04c-.006.02-.005.04.004.053.004.007.01.012.018.015a.038.038 0 0 0 .023.001.074.074 0 0 0 .04-.035.206.206 0 0 0 .026-.078l-.03-.004a.177.177 0 0 1-.02.066c-.01.015-.018.02-.024.022h-.005s-.002 0-.003-.003c-.002-.004-.005-.014 0-.03l-.03-.008Zm.02-.058c-.007.017-.015.035-.02.057l.029.008a.484.484 0 0 1 .018-.055l-.028-.01Zm-.008-.176a.205.205 0 0 1 .027.1.227.227 0 0 1-.02.076l.028.01c.01-.026.02-.052.022-.084a.235.235 0 0 0-.03-.115l-.027.013Zm-.077.038a.15.15 0 0 0 .008.055.04.04 0 0 0 .013.018.026.026 0 0 0 .024.003.042.042 0 0 0 .018-.013.115.115 0 0 0 .015-.023.404.404 0 0 0 .027-.081l-.03-.007a.376.376 0 0 1-.024.074.087.087 0 0 1-.01.018l-.005.004h.003l-.003-.005a.122.122 0 0 1-.006-.043h-.03Zm0-.008v.008h.03v-.008h-.03Zm-.146-.289c.074.023.11.065.128.115a.525.525 0 0 1 .018.174h.03c0-.06 0-.127-.02-.184a.209.209 0 0 0-.148-.133l-.008.028ZM7.2 5.513c.009 0 .016.004.023.012.007.008.013.02.018.034a.249.249 0 0 1 .011.048v.004h.016l.015-.002v-.002a.27.27 0 0 0-.014-.058.138.138 0 0 0-.023-.044.06.06 0 0 0-.046-.022v.03Zm-.07.097.014.002V5.61a.118.118 0 0 1 .003-.016.234.234 0 0 1 .01-.036.105.105 0 0 1 .018-.034c.008-.008.016-.012.025-.012v-.03c-.02 0-.036.01-.047.022a.135.135 0 0 0-.025.044.265.265 0 0 0-.014.06l.015.001Zm-.143.311c0-.064 0-.127.018-.18a.18.18 0 0 1 .129-.117l-.01-.028a.21.21 0 0 0-.147.135c-.02.059-.02.127-.02.19h.03Zm-.105-.041a.404.404 0 0 0 .027.08c.005.01.01.018.015.024a.042.042 0 0 0 .018.013.026.026 0 0 0 .024-.003.04.04 0 0 0 .012-.018.15.15 0 0 0 .009-.055h-.03a.127.127 0 0 1-.006.043l-.003.005h.003l-.004-.004a.086.086 0 0 1-.011-.018.376.376 0 0 1-.025-.074l-.029.007Zm.02.179a.226.226 0 0 1-.02-.075.205.205 0 0 1 .028-.101l-.027-.013a.235.235 0 0 0-.03.115c.001.032.012.058.022.084l.028-.01Zm.02.057c-.005-.022-.013-.04-.02-.057l-.027.01a.484.484 0 0 1 .018.055l.03-.008Zm-.111-.043c.004.034.014.06.025.078.011.018.025.03.04.035a.038.038 0 0 0 .024 0 .036.036 0 0 0 .018-.016c.009-.014.01-.033.004-.054l-.029.008c.004.016.002.026 0 .03a.007.007 0 0 1-.003.003h-.005c-.006-.001-.014-.007-.023-.022a.177.177 0 0 1-.022-.066l-.03.004Zm.038.187a.197.197 0 0 1-.03-.072.22.22 0 0 1 .02-.111l-.028-.011a.249.249 0 0 0-.021.127c.005.032.02.057.033.081l.026-.014Zm.036.081a.293.293 0 0 0-.036-.081l-.026.014a.292.292 0 0 1 .033.075l.029-.008Zm-.13-.058a.18.18 0 0 0 .076.098.064.064 0 0 0 .02.007c.008.001.015 0 .022-.004.016-.009.016-.027.012-.043l-.03.008c.004.013 0 .011.003.01h-.002a.035.035 0 0 1-.011-.005.152.152 0 0 1-.062-.082l-.028.01Zm.042.224a.261.261 0 0 1-.032-.086.273.273 0 0 1 .018-.138l-.028-.01a.302.302 0 0 0-.02.153.29.29 0 0 0 .036.095l.026-.014Zm-.032.142a.057.057 0 0 0 .042-.016.06.06 0 0 0 .016-.038.152.152 0 0 0-.026-.09l-.026.017a.123.123 0 0 1 .023.07.03.03 0 0 1-.008.02c-.004.004-.01.007-.02.007v.03Zm-.127-.114a.33.33 0 0 0 .044.073c.02.023.046.04.083.04v-.03a.077.077 0 0 1-.06-.03.298.298 0 0 1-.04-.066l-.027.013Zm-.03-.047s.004 0 .01.01a.285.285 0 0 1 .02.037l.028-.013-.022-.042c-.008-.01-.02-.022-.036-.022v.03Zm-.274.25v.83h.03v-.83h-.03Zm.122-.013a.11.11 0 0 0-.115 0l.016.027a.08.08 0 0 1 .04-.012c.014 0 .029.004.045.012l.014-.026Zm.008.843v-.83h-.03v.83h.03Zm-.115.015h.1v-.03h-.1v.03Z"/><path fill="#fff" fill-rule="evenodd" d="m7.348 5.955-.068.056h-.169l-.067-.06v-.075c.026.008.037.012.056.038a.187.187 0 0 1 .098-.109.188.188 0 0 1 .093.113c.02-.027.034-.038.057-.038v.075Zm.442 1.609c.03-.165.146-.233.263-.289v.289H7.79Z" clip-rule="evenodd"/><path fill="#000" d="M7.28 6.011v.02l.01-.008-.01-.012Zm.068-.056.015.018v-.018h-.015Zm-.237.056-.013.015h.013v-.015Zm-.067-.06h-.023l.013.012.01-.012Zm0-.075.004-.014-.02-.005v.02h.016Zm.056.038-.012.009.017.023.01-.027-.015-.005Zm.098-.109.01-.022-.017.009.007.013Zm.093.113-.014.004.009.03.018-.026-.013-.008Zm.057-.038h.015v-.015h-.015v.015Zm.705 1.395h.015v-.024l-.022.01.007.014Zm-.263.289-.015-.003-.003.018h.018v-.015Zm.263 0v.015h.015v-.015h-.015ZM7.29 6.023l.067-.056-.019-.023L7.271 6l.019.023Zm-.179.003h.17v-.03h-.17v.03Zm-.077-.063.067.06.02-.023-.067-.06-.02.023Zm-.005-.087v.075h.03v-.075h-.03Zm.083.03a.102.102 0 0 0-.03-.03.136.136 0 0 0-.034-.014l-.008.029a.11.11 0 0 1 .027.01.09.09 0 0 1 .021.022l.024-.018Zm.08-.114a.203.203 0 0 0-.106.117l.028.01a.172.172 0 0 1 .09-.1l-.013-.027Zm.114.121a.202.202 0 0 0-.101-.121l-.014.027a.172.172 0 0 1 .086.103l.029-.009Zm.042-.048a.065.065 0 0 0-.038.012.128.128 0 0 0-.03.032l.024.017a.1.1 0 0 1 .023-.025.035.035 0 0 1 .02-.006v-.03Zm.015.09V5.88h-.03v.075h.03Zm.683 1.307c-.117.056-.24.126-.27.3l.029.005c.029-.158.138-.222.254-.278l-.013-.027Zm.022.302v-.289h-.03v.289h.03Zm-.278.015h.263v-.03H7.79v.03Z"/><path fill="#fff" stroke="#000" stroke-width=".03" d="m7.318 6.195.03-.071V6.03c-.023 0-.038.011-.057.038a.188.188 0 0 0-.093-.113.187.187 0 0 0-.098.109c-.019-.026-.03-.03-.056-.034v.094l.03.071h.244Z"/><path fill="#fff" stroke="#000" stroke-width=".03" d="m7.325 6.442.098-.123v-.12c-.038 0-.057.018-.083.06-.026-.087-.075-.102-.143-.143-.07.038-.12.056-.142.139-.03-.041-.049-.053-.086-.056v.12l.101.123h.255Z"/><path fill="#fff" stroke="#000" stroke-width=".03" d="M7.351 6.686s.12-.101.124-.157v-.131c-.045.003-.086.014-.12.07-.03-.108-.075-.138-.157-.187-.087.049-.132.079-.158.188-.037-.057-.075-.068-.124-.075v.135a.56.56 0 0 0 .124.157h.311Z"/><path fill="#fff" stroke="#000" stroke-width=".03" d="M7.4 7.136s.165-.176.169-.247v-.203c-.06.008-.12.05-.165.135-.038-.168-.098-.285-.206-.367-.113.082-.173.199-.21.367-.045-.086-.102-.127-.162-.135v.203c.012.071.165.247.165.247h.41Z"/><path fill="#fff" stroke="#000" stroke-width=".03" d="M7.4 7.403s.139-.14.169-.2v-.202c-.06.008-.12.05-.165.132a.525.525 0 0 0-.206-.345.518.518 0 0 0-.21.345c-.045-.083-.102-.124-.162-.132v.203c.038.06.165.199.165.199h.41Z"/><path fill="#fff" stroke="#000" stroke-width=".03" d="M7.456 7.56c-.037-.176-.075-.307-.266-.439-.195.132-.229.263-.27.44h.536Zm6.158 1.035V7.83c.026-.097.112-.187.172-.202v-.675l-.139.075-.16.708V8.6l.127-.004Z"/><path fill="#fff" stroke="#000" stroke-width=".03" d="M13.715 8.794c-.064-.026-.158-.109-.158-.188v-.96l.045-.075h-1.638l.063.075v.96a.225.225 0 0 1-.127.188h1.815Z"/><path fill="#fff" stroke="#000" stroke-width=".03" d="M12.234 8.794c.063-.026.157-.109.157-.188v-.91l-.135-.128h1.11l-.135.127v.911c0 .08.094.162.158.188h-1.155Z"/><path fill="#fff" stroke="#000" stroke-width=".03" d="M12.387 8.794c.064-.027.162-.109.162-.188v-.825l-.09-.124h.705l-.09.124v.825c0 .079.093.161.16.188h-.847Z"/><path fill="#fff" fill-rule="evenodd" d="M13.554 6.81h-.162v.12h-.003v.638h.165V6.81Zm-.117 1.163h-.134v.618h.134v-.618Zm-1.154 0h-.132v.618h.135l-.003-.618Zm-.293-.904h.229v.487h-.229V7.07Z" clip-rule="evenodd"/><path fill="#000" d="M13.393 6.81h-.016l.015-.015v.015Zm.16 0v-.015l.016.015h-.015Zm-.16.12h.014l-.014.015V6.93Zm-.004 0h-.015l.015-.015v.015Zm0 .638v.015l-.015-.015h.015Zm.165 0h.015l-.015.015v-.015Zm-.252.405h-.014l.014-.015v.015Zm.136 0v-.015l.014.015h-.014Zm-.136.618v.015l-.014-.015h.014Zm.136 0h.014l-.014.015v-.015Zm-1.287-.618h-.015l.015-.015v.015Zm.132 0v-.015l.014.014h-.014Zm-.132.618v.015l-.015-.015h.015Zm.135 0h.015l-.015.015v-.015ZM12.22 7.07v-.015l.015.015h-.015Zm-.229 0h-.015l.015-.015v.015Zm.229.487h.015l-.015.015v-.015Zm-.229 0v.015l-.015-.015h.015Zm1.402-.76h.162v.03h-.162v-.03Zm-.014.134v-.12h.03v.12h-.03Zm.01-.015h.005v.03h-.004v-.03Zm-.014.653V6.93h.03v.638h-.03Zm.18.015h-.165v-.03h.165v.03Zm.015-.653v.638h-.03V6.93h.03Zm0-.12v.12h-.03v-.12h.03Zm-.267 1.148h.136v.03h-.136v-.03Zm-.014.633v-.618h.03v.618h-.03Zm.15.015h-.136v-.03h.136v.03Zm.014-.633v.618h-.03v-.618h.03Zm-1.3-.015h.13v.03h-.13v-.03Zm-.016.633v-.618h.03v.618h-.03Zm.15.015h-.135v-.03h.135v.03Zm.011-.634.004.62h-.03l-.004-.62h.03Zm-.078-.888h-.229v-.03h.229v.03Zm-.015.472V7.07h.03v.487h-.03Zm-.214-.015h.229v.03h-.229v-.03Zm.015-.472v.487h-.03V7.07h.03Z"/><path fill="#fff" fill-rule="evenodd" d="M13.392 6.473V7.56h-1.18V6.476c.017 0 .029.025.043.055.022.045.05.103.114.103.056 0 .048-.068.018-.12-.026-.049-.06-.113-.015-.236.034.093.117.123.102.067a.315.315 0 0 0-.035-.078c-.027-.048-.051-.09-.01-.196.018.128.1.124.082.05a.346.346 0 0 0-.019-.057c-.02-.053-.038-.097.008-.188.034.14.075.132.075.045v-.008c0-.122 0-.255.157-.303 0 0 .012-.112.068-.112.06 0 .071.112.071.112.158.049.158.184.158.311 0 .087.04.094.075-.045.045.091.028.135.008.188a.515.515 0 0 0-.02.056c-.018.075.064.079.083-.049.04.106.017.148-.01.196a.282.282 0 0 0-.035.078c-.015.056.067.026.101-.067.045.123.011.187-.015.236-.034.052-.037.12.019.12.063 0 .091-.06.113-.106.015-.03.027-.055.044-.055Zm.26 1.095v-.83a.1.1 0 0 0-.1 0v.83h.1Z" clip-rule="evenodd"/><path fill="#000" d="M13.392 7.56h.015v.015h-.015V7.56Zm0-1.087v-.015h.015v.015h-.015Zm-1.18 1.087v.015h-.016V7.56h.015Zm0-1.084h-.016v-.015h.015v.015Zm.043.055-.013.006.013-.006Zm.132-.017-.013.007.013-.007Zm-.015-.236-.014-.006.014-.039.014.04-.014.005Zm.102.067-.015.004.015-.004Zm-.035-.078.013-.007-.013.007Zm-.01-.196-.014-.005.02-.053.008.056-.014.002Zm.082.05.015-.005-.015.004Zm-.019-.057.014-.005-.014.005Zm.008-.188-.014-.006.019-.037.01.04-.015.003Zm.075.037h.015-.015Zm.157-.303.015.002v.01l-.01.002-.005-.014Zm.14 0-.005.014-.01-.003v-.01h.014Zm.232.266-.015-.003.01-.04.018.037-.013.006Zm.008.188-.014-.005.013.005Zm-.02.056-.014-.004.014.004Zm.083-.049-.015-.002.008-.056.02.053-.013.005Zm-.01.196-.014-.007.013.007Zm-.035.078.014.004-.014-.004Zm.101-.067-.014-.006.014-.039.014.04-.014.005Zm-.015.236.013.007-.013-.007Zm.132.014-.013-.006.013.006Zm.303.21.008-.012.007.004v.009h-.015Zm0 .83h.015v.015h-.015v-.015Zm-.1-.83h-.015V6.73l.008-.005.007.014Zm0 .83v.015h-.015v-.015h.015Zm-.174-.008V6.473h.03V7.56h-.03Zm-1.166-.015h1.181v.03h-1.18v-.03Zm.015-1.069V7.56h-.03V6.476h.03Zm.016.061a.265.265 0 0 0-.02-.036c-.006-.009-.01-.01-.01-.01v-.03c.016 0 .027.012.035.023a.296.296 0 0 1 .022.04l-.027.013Zm.127.112a.107.107 0 0 1-.084-.04c-.02-.022-.032-.05-.043-.072l.027-.013a.288.288 0 0 0 .039.065c.015.018.034.03.06.03v.03Zm.031-.143a.17.17 0 0 1 .025.088.06.06 0 0 1-.015.039.055.055 0 0 1-.041.016v-.03c.01 0 .016-.003.02-.007a.032.032 0 0 0 .006-.02.14.14 0 0 0-.02-.07l.025-.016Zm-.014-.223a.271.271 0 0 0-.018.138.26.26 0 0 0 .033.086l-.027.014a.29.29 0 0 1-.036-.095.302.302 0 0 1 .02-.154l.028.01Zm.102.058c.004.016.004.034-.011.043a.033.033 0 0 1-.022.004.065.065 0 0 1-.02-.007.18.18 0 0 1-.077-.098l.028-.01a.152.152 0 0 0 .062.081.035.035 0 0 0 .011.004h.002c-.003.002.002.004-.002-.01l.03-.007Zm-.036-.081a.307.307 0 0 1 .036.081l-.029.008a.289.289 0 0 0-.033-.075l.026-.014Zm-.01-.183a.219.219 0 0 0-.019.111.197.197 0 0 0 .03.072l-.027.014a.226.226 0 0 1-.033-.081.248.248 0 0 1 .022-.127l.028.01Zm.084.04c.005.02.004.04-.004.053a.036.036 0 0 1-.042.016.074.074 0 0 1-.04-.035.205.205 0 0 1-.026-.078l.03-.004c.004.03.012.052.02.066.01.015.019.02.024.022h.005s.002 0 .003-.003c.002-.004.005-.014 0-.03l.03-.008Zm-.02-.058a.467.467 0 0 1 .02.057l-.03.008a.47.47 0 0 0-.018-.055l.028-.01Zm.007-.176a.205.205 0 0 0-.027.1c.001.027.01.049.02.076l-.028.01c-.01-.026-.02-.052-.022-.084a.234.234 0 0 1 .03-.115l.027.013Zm.077.038a.15.15 0 0 1-.008.055.042.042 0 0 1-.013.018.026.026 0 0 1-.024.003.041.041 0 0 1-.018-.013.114.114 0 0 1-.015-.023.404.404 0 0 1-.027-.081l.03-.007a.372.372 0 0 0 .024.074.09.09 0 0 0 .01.018l.006.004h-.004l.003-.005a.122.122 0 0 0 .006-.043h.03Zm0-.008v.008h-.03v-.008h.03Zm.147-.289c-.075.023-.11.065-.128.115a.524.524 0 0 0-.02.174h-.03c0-.06 0-.127.021-.184a.208.208 0 0 1 .148-.133l.009.028Zm.063-.111c-.009 0-.016.004-.023.012a.11.11 0 0 0-.018.034.24.24 0 0 0-.011.048v.004h-.016l-.015-.002v-.002l.001-.004.002-.013a.271.271 0 0 1 .01-.041.137.137 0 0 1 .024-.044.06.06 0 0 1 .046-.022v.03Zm.071.097-.015.002v-.005a.338.338 0 0 0-.012-.048.104.104 0 0 0-.019-.034.032.032 0 0 0-.025-.012v-.03c.02 0 .036.01.047.022.012.013.02.029.025.044a.27.27 0 0 1 .011.04l.002.014v.004l.001.001-.015.002Zm.143.311c0-.064 0-.127-.02-.18a.18.18 0 0 0-.127-.117l.009-.028a.21.21 0 0 1 .147.135c.02.059.02.127.02.19h-.03Zm.104-.041a.404.404 0 0 1-.027.08.114.114 0 0 1-.014.024.041.041 0 0 1-.019.013.026.026 0 0 1-.023-.003.041.041 0 0 1-.013-.018.15.15 0 0 1-.008-.055h.03c0 .021.002.035.005.043l.003.005h-.003l.005-.004a.09.09 0 0 0 .01-.018.367.367 0 0 0 .025-.074l.03.007Zm-.02.179a.227.227 0 0 0 .02-.075.205.205 0 0 0-.028-.101l.027-.013a.234.234 0 0 1 .03.115c0 .032-.011.058-.021.084l-.028-.01Zm-.02.057a.467.467 0 0 1 .02-.057l.027.01a.47.47 0 0 0-.018.055l-.03-.008Zm.112-.043a.205.205 0 0 1-.026.078.074.074 0 0 1-.04.035.036.036 0 0 1-.042-.016.07.07 0 0 1-.004-.054l.029.008c-.004.016-.002.026 0 .03a.007.007 0 0 0 .004.003h.005c.005-.001.014-.007.023-.022a.177.177 0 0 0 .021-.066l.03.004Zm-.039.187a.197.197 0 0 0 .03-.072.219.219 0 0 0-.02-.111l.028-.011a.248.248 0 0 1 .021.127.226.226 0 0 1-.033.081l-.026-.014Zm-.036.081a.367.367 0 0 1 .036-.081l.026.014c-.012.023-.025.045-.033.075l-.029-.008Zm.13-.058a.18.18 0 0 1-.076.098.064.064 0 0 1-.02.007.033.033 0 0 1-.022-.004c-.016-.009-.016-.027-.012-.043l.03.008c-.004.013 0 .011-.003.01h.002a.035.035 0 0 0 .011-.005.152.152 0 0 0 .062-.082l.028.01Zm-.042.224a.26.26 0 0 0 .033-.086.271.271 0 0 0-.019-.138l.028-.01a.3.3 0 0 1 .02.153.288.288 0 0 1-.036.095l-.026-.014Zm.032.142a.057.057 0 0 1-.042-.016.06.06 0 0 1-.016-.038.153.153 0 0 1 .027-.09l.025.017a.124.124 0 0 0-.022.07c0 .01.003.016.007.02s.01.007.02.007v.03Zm.127-.114c-.011.023-.024.051-.043.073a.107.107 0 0 1-.084.04v-.03a.077.077 0 0 0 .06-.03.294.294 0 0 0 .04-.066l.027.013Zm.03-.047s-.004 0-.01.01a.278.278 0 0 0-.02.037l-.027-.013c.007-.015.014-.03.022-.042.007-.01.019-.022.035-.022v.03Zm.274.25v.83h-.03v-.83h.03Zm-.122-.013a.11.11 0 0 1 .114 0l-.014.027a.08.08 0 0 0-.041-.012.096.096 0 0 0-.045.012l-.014-.026Zm-.008.843v-.83h.03v.83h-.03Zm.115.015h-.1v-.03h.1v.03Z"/><path fill="#fff" fill-rule="evenodd" d="m12.653 5.955.068.056h.169l.067-.06v-.075c-.026.008-.037.012-.056.038a.187.187 0 0 0-.098-.109.187.187 0 0 0-.093.113c-.019-.027-.034-.038-.057-.038v.075Zm-.442 1.609c-.03-.165-.146-.233-.263-.289v.289h.263Z" clip-rule="evenodd"/><path fill="#000" d="M12.721 6.011v.02l-.01-.008.01-.012Zm-.068-.056-.014.018v-.018h.014Zm.237.056.013.015h-.013v-.015Zm.067-.06h.023l-.013.012-.01-.012Zm0-.075-.004-.014.02-.005v.02h-.016Zm-.056.038.012.009-.017.023-.01-.027.015-.005Zm-.098-.109-.01-.022.017.009-.007.013Zm-.093.113.014.004-.009.03-.017-.026.012-.008Zm-.057-.038h-.014v-.015h.014v.015Zm-.705 1.395h-.014v-.024l.021.01-.007.014Zm.263.289.015-.003.003.018h-.018v-.015Zm-.263 0v.015h-.014v-.015h.014Zm.763-1.541-.067-.056.02-.023.067.056-.02.023Zm.179.003h-.169v-.03h.169v.03Zm.077-.063-.067.06L12.88 6l.067-.06.02.023Zm.005-.087v.075h-.03v-.075h.03Zm-.083.03a.103.103 0 0 1 .03-.03.137.137 0 0 1 .034-.014l.008.029a.108.108 0 0 0-.027.01.073.073 0 0 0-.02.022l-.025-.018Zm-.08-.114a.2.2 0 0 1 .106.117l-.028.01a.172.172 0 0 0-.09-.1l.013-.027Zm-.114.121a.202.202 0 0 1 .102-.121l.013.027a.173.173 0 0 0-.086.103l-.029-.009Zm-.042-.048c.015 0 .027.004.038.012a.106.106 0 0 1 .031.032l-.024.017a.101.101 0 0 0-.023-.025.035.035 0 0 0-.022-.006v-.03Zm-.014.09V5.88h.03v.075h-.03Zm-.684 1.307c.117.056.24.126.27.3l-.029.005c-.028-.158-.138-.222-.254-.278l.013-.027Zm-.021.302v-.289h.03v.289h-.03Zm.277.015h-.263v-.03h.263v.03Z"/><path fill="#fff" stroke="#000" stroke-width=".03" d="m12.684 6.195-.03-.071V6.03c.022 0 .037.011.056.038a.187.187 0 0 1 .093-.113c.046.022.082.06.098.109.019-.026.03-.03.056-.034v.094l-.03.071h-.243Z"/><path fill="#fff" stroke="#000" stroke-width=".03" d="m12.676 6.442-.097-.123v-.12c.037 0 .056.018.082.06.027-.087.075-.102.143-.143.071.038.12.056.142.139.03-.041.049-.053.087-.056v.12l-.102.123h-.255Z"/><path fill="#fff" stroke="#000" stroke-width=".03" d="M12.65 6.686s-.12-.101-.124-.157v-.131c.045.003.087.014.12.07.03-.108.075-.138.158-.187.086.049.131.079.157.188.038-.057.075-.068.124-.075v.135a.562.562 0 0 1-.124.157h-.311Z"/><path fill="#fff" stroke="#000" stroke-width=".03" d="M12.601 7.136s-.165-.176-.169-.247v-.203c.06.008.12.05.165.135.038-.168.098-.285.207-.367.112.082.172.199.21.367.045-.086.1-.127.16-.135v.203c-.01.071-.164.247-.164.247h-.41Z"/><path fill="#fff" stroke="#000" stroke-width=".03" d="M12.601 7.403s-.139-.14-.169-.2v-.202c.06.008.12.05.165.132a.525.525 0 0 1 .207-.345.518.518 0 0 1 .21.345c.045-.083.1-.124.16-.132v.203c-.037.06-.164.199-.164.199h-.41Z"/><path fill="#fff" stroke="#000" stroke-width=".03" d="M12.545 7.56c.037-.176.075-.307.266-.439.195.132.229.263.27.44h-.536Z"/><path fill="#fff" fill-rule="evenodd" d="M14.113 9.03H5.885v.304h8.228V9.03ZM5.4 9.735h9.2v.469h.244v.468H5.157v-.468h.244v-.469Z" clip-rule="evenodd"/><path fill="#000" d="M5.885 9.03v-.015H5.87v.015h.015Zm8.228 0h.014v-.015h-.014v.015Zm-8.228.304H5.87v.015h.015v-.015Zm8.228 0v.015h.014v-.015h-.014Zm.487.401h.015V9.72H14.6v.015Zm-9.199 0V9.72h-.015v.015h.015Zm9.199.469h-.015v.015h.015v-.015Zm.244 0h.015v-.015h-.015v.015Zm0 .468v.015h.015v-.014h-.015Zm-9.687 0h-.015v.015h.015v-.014Zm0-.468v-.015h-.015v.015h.015Zm.244 0v.015h.015v-.015h-.015Zm.484-1.159h8.228v-.03H5.885v.03Zm.015.289V9.03h-.03v.304h.03Zm8.213-.015H5.885v.03h8.228v-.03Zm-.015-.289v.304h.03V9.03h-.03Zm.502.69H5.401v.03H14.6v-.03Zm.015.484v-.469h-.03v.469h.03Zm.229-.015H14.6v.03h.244v-.03Zm.015.483v-.468h-.03v.468h.03Zm-9.702.015h9.687v-.03H5.157v.03Zm-.015-.483v.468h.03v-.468h-.03Zm.26-.015h-.245v.03h.244v-.03Zm-.016-.454v.469h.03v-.469h-.03Z"/><path fill="#fff" fill-rule="evenodd" d="M13.977 8.77h-7.95v.249h7.95V8.77Zm.383.574H5.645v.426h8.715v-.426Z" clip-rule="evenodd"/><path fill="#000" d="M6.028 8.77v-.015h-.015v.015h.015Zm7.95 0h.014v-.015h-.015v.015Zm-7.95.249h-.015v.015h.015v-.015Zm7.95 0v.015h.014v-.015h-.015Zm-8.333.325V9.33H5.63v.015h.015Zm8.715 0h.015V9.33h-.015v.015Zm-8.715.426H5.63v.015h.015V9.77Zm8.715 0v.015h.015V9.77h-.015Zm-8.332-.985h7.95v-.03h-7.95v.03Zm.015.234V8.77h-.03v.249h.03Zm7.934-.015h-7.95v.03h7.95v-.03Zm-.014-.234v.249h.03V8.77h-.03Zm-8.318.59h8.715v-.03H5.645v.03Zm.015.41v-.426h-.03v.426h.03Zm8.7-.015H5.645v.03h8.715v-.03Zm-.015-.41v.425h.03v-.426h-.03Z"/><path fill="#fff" stroke="#000" stroke-width=".03" d="M6.89 8.786h.6v1.875h-.6V8.786Z"/><path fill="#fff" fill-rule="evenodd" d="M7.359 8.786h-.334l-.004 1.875h.338V8.786Zm2.928 0h-.6v1.875h.6V8.786Z" clip-rule="evenodd"/><path fill="#000" d="M7.025 8.786v-.015H7.01v.015h.015Zm.334 0h.015v-.015h-.015v.015Zm-.338 1.875h-.015v.015h.015v-.015Zm.338 0v.015h.015v-.015h-.015Zm2.328-1.875v-.015h-.015v.015h.015Zm.6 0h.015v-.015h-.014v.015Zm-.6 1.875h-.015v.015h.015v-.015Zm.6 0v.015h.015v-.015h-.014Zm-3.262-1.86h.334v-.03h-.334v.03Zm.011 1.86.004-1.875h-.03l-.004 1.875h.03Zm.323-.015H7.02v.03h.338v-.03Zm-.015-1.86v1.875h.03V8.786h-.03Zm2.343.015h.6v-.03h-.6v.03Zm.015 1.86V8.786h-.03v1.875h.03Zm.585-.015h-.6v.03h.6v-.03Zm-.014-1.86v1.875h.03V8.786h-.03Z"/><path fill="#fff" fill-rule="evenodd" d="M10.164 8.786h-.338v1.875h.338V8.786Zm2.943 0h-.6v1.875h.6V8.786Z" clip-rule="evenodd"/><path fill="#000" d="M9.826 8.786v-.015h-.015v.015h.015Zm.338 0h.015v-.015h-.015v.015Zm-.338 1.875h-.015v.015h.015v-.015Zm.338 0v.015h.015v-.015h-.015Zm2.343-1.875v-.015h-.015v.015h.015Zm.6 0h.015v-.015h-.015v.015Zm-.6 1.875h-.015v.015h.015v-.015Zm.6 0v.015h.015v-.015h-.015Zm-3.28-1.86h.337v-.03h-.338v.03Zm.014 1.86V8.786h-.03v1.875h.03Zm.323-.015h-.338v.03h.338v-.03Zm-.015-1.86v1.875h.03V8.786h-.03Zm2.358.015h.6v-.03h-.6v.03Zm.015 1.86V8.786h-.03v1.875h.03Zm.585-.015h-.6v.03h.6v-.03Zm-.015-1.86v1.875h.03V8.786h-.03Z"/><path fill="#fff" stroke="#000" stroke-width=".03" d="M12.639 8.786h.337v1.875h-.337V8.786Z"/></g><defs><clipPath id="a"><rect width="20" height="15" fill="#fff" rx="2"/></clipPath></defs></svg>