<svg viewBox="0 0 20 15" fill="none" xmlns="http://www.w3.org/2000/svg"><path d="M0 0h20v15H0V0Z" fill="#032EA1"/><path d="M0 3.75h20v7.5H0v-7.5Z" fill="#e00025"/><path d="M7.89 7.07h4.26V8.7H7.9V7.07Z" fill="#fff" stroke="#000" stroke-width=".03" stroke-linejoin="bevel"/><path d="M7.89 7.15h4.26v.16H7.9v-.16Z" fill="#fff" stroke="#000" stroke-width=".03" stroke-linejoin="bevel"/><path d="M6.22 8.8a.35.35 0 0 0 .16-.2h7.25c.02.08.08.15.16.2H6.22Z" fill="#fff" stroke="#000" stroke-width=".03"/><path d="M10 4.41c-.1 0-.09.16-.09.16h.17s0-.16-.08-.16Zm-.56 2v.2h1.11v-.2c0-.06.04-.09.06-.12.03-.02.05-.04.05-.07 0 0 .01-.12-.02-.17-.04.15-.11.13-.11.06 0-.04.03-.09.1-.18l.02-.05c.04-.05.02-.18-.02-.23-.02.12-.04.17-.08.17-.03 0-.06-.02-.06-.07s.02-.08.04-.11l.04-.07a.19.19 0 0 0-.04-.2l-.01.05c-.01.08-.02.1-.06.1-.1-.02 0-.15.02-.2V5.3c.03-.07-.03-.13-.03-.13-.03.1-.04.11-.08.1-.04-.01-.03-.08.02-.13.03-.03.03-.08 0-.12-.05.07-.1.06-.1.02l.04-.16h-.05l.02-.12h-.06l.01-.1h-.5v.1H9.7l.01.12h-.04l.03.16c0 .05-.05.05-.08-.02-.04.04-.05.08-.01.12.05.05.06.12.01.13-.03.01-.04 0-.07-.1 0 0-.06.09-.04.13v.01c.04.05.12.18.02.2-.04 0-.04-.02-.05-.1l-.01-.05a.19.19 0 0 0-.04.2l.03.06c.02.04.04.07.04.12 0 .05-.02.07-.05.07-.05 0-.07-.05-.08-.17-.04.05-.06.18-.03.23l.02.03c.07.1.1.15.1.2 0 .07-.07.1-.1-.06-.04.05-.02.17-.02.17 0 .03.02.05.04.07.03.03.06.06.06.11Zm.31-1.64h.49-.49Zm.09-.1-.01-.1h.33v.1h-.32Zm1.05 3.94c0 .07.11.16.18.18H8.96c.07-.02.15-.1.15-.18v-.92L9 7.57h1.97l-.1.12v.92Z" fill="#fff"/><path d="M9.91 4.57H9.9v.01h.01v-.01ZM10 4.4v-.02.02Zm.08.16v.01h.02v-.01h-.02ZM9.44 6.6h-.01v.02h.01V6.6Zm1.11 0v.02h.02V6.6h-.02Zm0-.2h-.01.01Zm.06-.12.01.02v-.02Zm.05-.07h-.02.02Zm-.02-.17h.01l-.02-.03v.03h.01Zm-.02-.12h.02-.02Zm.04-.05Zm-.03-.23h.01l-.02-.03v.03Zm-.1-.01h.01-.01Zm.04-.07h-.02.01Zm-.04-.2v-.01l-.01-.02v.03Zm-.01.05h.01-.01Zm0 0h-.02.02Zm-.06.1v.02-.01Zm.02-.2h.01Zm0-.01h.02-.01Zm-.03-.13v-.03l-.02.03h.02Zm-.08.1v-.01.01Zm.02-.13v.01Zm0-.12v-.01L10.38 5l-.01.02h.01Zm-.1.02h-.01.01Zm.04-.16h.01v-.02h-.02v.02Zm-.05 0h-.01v.01h.01v.01Zm.02-.12h.01v-.02h-.02v.02Zm-.05-.1h.01v-.01h-.01v.01Zm-.5 0v-.01h-.02v.01h.01Zm-.05.1v-.02h-.02v.02h.02Zm.01.12v.01h.02v-.02H9.7Zm-.04 0v-.02h-.02v.02h.02Zm.03.16h.02-.02Zm-.08-.02h.01L9.62 5l-.01.02Zm-.01.12-.01.01Zm.01.13v-.01.01Zm-.07-.1h.01v-.03l-.02.02v.01Zm-.04.13H9.5h.01Zm0 .01Zm.02.2v.02-.01Zm-.05-.1h-.02.02Zm-.01-.05h.01v-.03l-.02.02.01.01Zm-.04.2H9.4h.02Zm.03.06h.02-.02Zm-.1.02h.02v-.03l-.02.03Zm-.02.23.02-.01h-.02Zm.02.03h-.01.01Zm0 .14V6l-.02.04h.01Zm-.02.17h.01-.01Zm.04.07v.01Zm.37-1.52h-.01v.02h.01v-.02Zm.49 0v.02h.01v-.02h-.01Zm-.41-.2v-.01H9.8v.01h.02Zm0 .1v.02-.02Zm.33-.1h.02v-.01h-.02v.01Zm0 .1v.02h.01v-.02h-.01Zm.91 4.12v.02l.01-.03v.01Zm-2.11 0v-.01.03-.02Zm.15-1.1h.01-.01ZM9 7.57v-.02h-.03l.02.03.01-.01Zm1.97 0H11l.02-.02h-.04v.02Zm-.1.12ZM9.9 4.57h.02a.2.2 0 0 1 0-.03V4.5l.03-.04a.05.05 0 0 1 .04-.03V4.4a.08.08 0 0 0-.06.04.16.16 0 0 0-.03.06.31.31 0 0 0-.01.07h.01Zm.17-.02H9.9v.03h.17v-.03ZM10 4.42l.04.02.02.05a.3.3 0 0 1 0 .07h.04v-.02l-.01-.05a.16.16 0 0 0-.03-.06.08.08 0 0 0-.06-.04v.03Zm-.54 2.2V6.4h-.03v.21h.03Zm1.1-.02H9.43v.03h1.11V6.6Zm-.02-.2v.21h.03v-.2h-.03Zm.06-.12c-.02.03-.06.06-.06.12h.03c0-.04.03-.07.05-.1l-.02-.02Zm.04-.06c0 .02-.01.04-.04.06l.02.03c.03-.03.05-.05.05-.1h-.03Zm-.01-.16a.2.2 0 0 1 .02.1v.05h.02V6.2a.5.5 0 0 0 0-.05c0-.03 0-.08-.02-.1l-.02.01Zm-.12.05c0 .02 0 .04.02.05l.04.02c.02 0 .04-.02.05-.04a.26.26 0 0 0 .03-.08l-.02-.01-.04.08-.02.02h-.02V6.1h-.04Zm.1-.2-.07.12a.17.17 0 0 0-.03.08h.03c0-.02 0-.04.02-.06l.08-.12-.03-.01Zm.03-.04-.03.05.03.01.03-.04-.03-.02Zm-.02-.2c.01.02.03.06.03.1v.06a.1.1 0 0 1 0 .04l.02.02.01-.06a.3.3 0 0 0 0-.06c0-.05-.02-.1-.04-.12l-.02.01Zm-.07.17.04-.01a.1.1 0 0 0 .02-.04.5.5 0 0 0 .03-.13h-.03l-.02.12-.02.02h-.02v.04Zm-.08-.1c0 .04.01.06.03.08l.05.02V5.8l-.03-.01-.01-.05h-.04Zm.05-.11c-.02.03-.04.07-.04.12h.03c0-.04.01-.07.03-.1l-.02-.02Zm.03-.07c0 .03-.02.05-.03.07l.02.02.04-.08h-.03Zm-.03-.18c.04.05.06.12.03.18l.03.01a.2.2 0 0 0-.04-.21l-.02.02Zm.01.05.01-.06h-.03v.05h.02Zm0 0h-.03.03Zm-.07.11h.04l.02-.03.01-.08h-.03l-.01.07h-.01l-.02.01v.03Zm0-.23-.05.12v.06c0 .03.02.04.05.05v-.03l-.02-.02a.1.1 0 0 1 0-.05c.01-.05.04-.09.05-.11l-.02-.02Zm.01 0 .02.02v-.01l-.02-.02Zm-.02-.13-.01.01a.15.15 0 0 1 .02.04c.01.02.02.05.01.08h.03a.14.14 0 0 0-.01-.1.19.19 0 0 0-.03-.04l-.01.01Zm-.08.11h.06l.01-.04.02-.06-.03-.01a1.05 1.05 0 0 1-.03.08h-.02l-.01.03Zm0-.15a.16.16 0 0 0-.04.09v.04l.04.02v-.03l-.01-.03c0-.02.01-.04.04-.07l-.02-.02Zm0-.1c.03.03.03.08 0 .1l.03.02c.04-.04.03-.1 0-.14l-.03.02Zm-.1 0c0 .02 0 .03.02.04l.03.02c.03 0 .05-.02.07-.06l-.02-.02c-.02.04-.04.05-.05.05h-.01v-.02h-.03Zm.04-.16-.03.16.03.01.03-.16h-.03Zm-.03.02h.04v-.03h-.04v.03Zm0-.13-.01.11h.02l.02-.1-.03-.01Zm-.04.01h.05v-.03h-.05v.03Zm.01 0 .01-.1h-.02l-.02.09h.03Zm0-.12h-.5v.03h.5v-.03Zm-.52.01v.1h.04l-.01-.1h-.03Zm-.03.11h.05v-.03H9.7v.03Zm.03.1-.02-.11h-.03l.02.12h.03Zm-.06.02h.04v-.03h-.04v.03Zm.05.15-.03-.17h-.03l.03.17h.03Zm-.12-.01c.02.03.05.06.07.06l.03-.01.02-.04h-.03v.02h-.02l-.04-.05-.03.02Zm.02.1a.07.07 0 0 1-.02-.05c0-.02.01-.03.03-.05l-.02-.02a.11.11 0 0 0-.04.07c0 .03 0 .05.03.07l.02-.02Zm0 .15c.02 0 .03 0 .04-.02v-.04a.16.16 0 0 0-.04-.09l-.02.02.04.07v.03h-.02v.03Zm-.09-.1a.98.98 0 0 0 .04.1h.06l-.01-.02H9.6l-.02-.03a.96.96 0 0 1-.02-.06h-.03Zm0 .11v-.06a.33.33 0 0 1 .03-.05h-.01l-.01-.02a.38.38 0 0 0-.03.05.2.2 0 0 0-.02.05v.05l.03-.02Zm0 .01H9.5v.02l.03-.02Zm0 .23c.04 0 .05-.02.06-.05v-.06l-.06-.12-.03.02.06.1v.05c0 .02-.01.03-.03.03v.03Zm-.07-.11.02.08.02.02.03.01v-.03h-.01L9.5 5.5a.34.34 0 0 1-.02-.08h-.03Zm0-.06v.06h.03v-.06h-.03Zm-.02.2a.17.17 0 0 1 .04-.19l-.02-.02a.2.2 0 0 0-.05.21h.03Zm.04.06a.4.4 0 0 1-.04-.07l-.03.01.04.07.03-.01Zm.04.12c0-.05-.02-.09-.04-.12l-.03.01c.02.04.04.07.04.1h.03Zm-.07.09c.02 0 .04 0 .05-.02l.02-.07h-.03l-.01.05h-.03v.04Zm-.1-.18.03.13.03.03.04.02V5.8h-.02l-.02-.03a.48.48 0 0 1-.03-.13h-.03Zm0 .2v-.09c0-.04.01-.08.03-.1l-.02-.02a.27.27 0 0 0-.04.12.3.3 0 0 0 0 .06l.01.06.02-.02Zm.02.04-.01-.03-.03.01.02.03.02-.01Zm.11.21c0-.03 0-.05-.03-.08a.38.38 0 0 0-.08-.13l-.02.01.08.13.02.07h.03Zm-.14-.05.04.08.04.04c.02 0 .04 0 .05-.02a.08.08 0 0 0 .01-.05h-.03v.03h-.02l-.03-.01a.25.25 0 0 1-.03-.08h-.03Zm0 .16h.01a.22.22 0 0 1 0-.02.54.54 0 0 1 0-.1l.02-.04-.03-.01-.02.05a.37.37 0 0 0 0 .1.57.57 0 0 0 0 .02h.02Zm.05.06c-.02-.02-.04-.04-.04-.06h-.03c0 .04.03.06.05.08l.02-.02Zm.07.12c0-.06-.04-.1-.07-.12l-.02.02c.03.03.06.06.06.1h.03Zm.28-1.63h.03-.03Zm.01.02h.49v-.03h-.49v.03Zm.5-.02h-.03.03Zm-.5.01h.49v-.03h-.49v.03Zm.06-.2.01.1.03-.01v-.1H9.8Zm.35-.02h-.33v.03h.33v-.03Zm.02.11v-.1h-.03v.1h.03Zm-.34.02h.32v-.03h-.32v.03Zm1.24 4.09a.37.37 0 0 1-.12-.07c-.03-.03-.06-.07-.06-.1h-.03c0 .04.03.09.07.12a.4.4 0 0 0 .13.08l.01-.03Zm-2.12.03h2.11v-.03H8.96v.03Zm.13-.2c0 .03-.02.07-.04.1a.23.23 0 0 1-.1.07l.01.03a.26.26 0 0 0 .11-.08.2.2 0 0 0 .05-.12H9.1Zm0-.92v.92h.03v-.92H9.1ZM9 7.58l.1.12.02-.01-.1-.13-.02.02Zm1.98-.03H9.01v.03h1.97v-.03Zm-.08.15.1-.12-.03-.02-.1.13.03.01Zm0 .9v-.9h-.03v.9h.03Z" fill="#000"/><path d="M9.5 7.97h-.14v1h.13v-1Zm1.13 0h-.13v1h.13v-1Z" fill="#fff"/><path d="M9.36 7.97v-.01l-.02.01h.02Zm.13 0h.02l-.02-.01v.01Zm-.13 1h-.02l.02.02v-.02Zm.13 0V9l.02-.02h-.02Zm1-1v-.01.01Zm.14 0h.02l-.02-.01v.01Zm-.13 1h-.02l.02.02v-.02Zm.13 0V9l.02-.02h-.02ZM9.36 8h.13v-.03h-.13V8Zm.01.98v-1h-.03v1h.03Zm.12-.01h-.13V9h.13v-.03Zm-.01-.99v1h.03v-1h-.03ZM10.5 8h.13v-.03h-.13V8Zm.01.98v-1h-.03v1h.03Zm.12-.01h-.13V9h.13v-.03Zm-.01-.99v1h.03v-1h-.03Z" fill="#000"/><path d="M8.97 6.53v1.04H11V6.53a.16.16 0 0 0-.1.1v.45H9.08v-.44s-.03-.08-.1-.1Z" fill="#fff" stroke="#000" stroke-width=".03"/><path d="M10.72 8.8c-.07-.03-.2-.12-.2-.2v-1c0-.06.08-.1.13-.13H9.31c.07.04.14.06.16.13v1c0 .07-.1.16-.18.18h1.43Z" fill="#fff" stroke="#000" stroke-width=".03"/><path d="M10.9 6.73v.74H9.08v-.73h.18v-.08h1.46v.07h.18Zm-.62 1.88c0 .07.09.16.16.18h-.88c.06-.02.16-.1.16-.18v-.88l-.06-.07h.67l-.05.08v.87Z" fill="#fff"/><path d="M10.9 7.47v.01h.02v-.01h-.02Zm0-.74h.02v-.01h-.02v.01Zm-1.82.74h-.02v.01h.02v-.01Zm0-.73v-.02h-.02v.02h.02Zm.18 0v.01h.02v-.01h-.02Zm0-.08v-.01h-.01v.01h.01Zm1.46 0h.01v-.01h-.01v.01Zm0 .07h-.02v.02h.02v-.02Zm-.28 2.06v.02-.03.01Zm-.88 0v-.01.03-.02Zm.16-1.06h.02-.02Zm-.06-.07v-.02h-.03l.02.03.01-.01Zm.67 0h.01l.02-.02h-.03v.02Zm-.05.08-.02-.01h.02Zm.64-.27v-.74h-.03v.74h.03Zm-1.84.01h1.82v-.03H9.08v.03Zm-.02-.74v.73h.03v-.73h-.03Zm.2-.02h-.18v.03h.18v-.03Zm-.01-.06v.08h.03v-.08h-.03Zm1.47-.01H9.26v.03h1.46v-.03Zm.01.08v-.07h-.03v.07h.03Zm.17-.01h-.18v.03h.18v-.03Zm-.46 2.06a.3.3 0 0 1-.1-.07c-.03-.03-.05-.07-.05-.1h-.03c0 .04.03.09.06.12.03.04.08.06.11.08l.01-.03Zm-.88.03h.88v-.03h-.88v.03Zm.15-.2c0 .03-.02.07-.06.1a.32.32 0 0 1-.1.07l.02.03a.35.35 0 0 0 .1-.08c.04-.03.07-.08.07-.12H9.7Zm0-.88v.88h.03v-.88H9.7Zm-.06-.06.06.07.02-.02-.05-.07-.03.02Zm.68-.03h-.67v.03h.67v-.03Zm-.04.1.05-.07-.02-.02-.06.08.03.01Zm0 .87v-.87h-.03v.87h.03Z" fill="#000"/><path d="M10.85 6.3s-.18.03-.18.24v-.18c-.06 0-.07.07-.07.26H9.4c0-.18 0-.26-.08-.26v.6c.14.06.24.23.24.23h.87s.1-.17.24-.23v.34h.13v-.55s-.06 0-.06-.1c0-.09.04-.16.11-.15v-.2Z" fill="#fff"/><path d="M10.85 6.3h.02-.02v.01Zm-.18.06h.01v-.01h-.01v.01Zm-.07.26v.02h.02v-.02h-.02Zm-1.2 0h-.02v.01h.01v-.01Zm-.08-.26v-.02h-.01v.02h.01Zm0 .6h-.01v.01h.01Zm.24.23-.01.01v.01h.01v-.02Zm.87 0v.02h.01l-.01-.02Zm.24-.23h.01v-.02h-.02v.02Zm0 .34h-.02v.02h.02V7.3Zm.13 0v.02h.02V7.3h-.02Zm0-.55h.02v-.01h-.02v.01Zm.05-.25v.01h.02V6.5h-.02Zm-.17.04c0-.1.04-.15.09-.19a.22.22 0 0 1 .08-.03v-.03h-.03a.25.25 0 0 0-.07.04c-.05.04-.1.1-.1.21h.03Zm-.03-.18v.18h.03v-.18h-.03Zm-.03.26v-.2l.02-.03.03-.01v-.03c-.02 0-.04 0-.05.02a.11.11 0 0 0-.02.05l-.01.2h.03Zm-1.23.01h1.21v-.02H9.4v.02Zm-.07-.26.03.01.02.04v.2h.04l-.01-.2a.1.1 0 0 0-.03-.06.07.07 0 0 0-.05-.02v.03Zm.02.6v-.61H9.3v.6h.03Zm.22.22h.01v-.01a.64.64 0 0 0-.06-.1.46.46 0 0 0-.18-.13l-.01.03c.06.02.12.08.16.13a.75.75 0 0 1 .07.1l.01-.02Zm.87-.01h-.87v.03h.87v-.03Zm.23-.23a.46.46 0 0 0-.18.14.77.77 0 0 0-.06.09l.01.01.01.01a.6.6 0 0 1 .07-.1c.04-.04.1-.1.16-.12v-.03Zm.02.35v-.34h-.03v.34h.03Zm.12-.01h-.13v.03h.13v-.03Zm-.01-.54v.55h.03v-.55h-.03Zm-.06-.1c0 .06.01.08.03.1a.07.07 0 0 0 .04.02v-.03l-.02-.01c0-.01-.02-.03-.02-.08h-.03Zm.12-.17a.1.1 0 0 0-.1.05.23.23 0 0 0-.02.12h.03c0-.04 0-.08.02-.1a.07.07 0 0 1 .07-.04v-.03Zm-.01-.18v.2h.03v-.2h-.03Z" fill="#000"/><path d="M9.32 6.54c0-.21-.18-.24-.18-.24v.2c.07-.01.1.05.1.14 0 .1-.05.1-.05.1v.53h.13v-.73Z" fill="#fff" stroke="#000" stroke-width=".03"/><path d="M9.68 5.13h.64V5.1h-.64v.03Zm-.08.2h.8V5.3h-.8v.03Zm-.07.25h.93v-.03h-.93v.03Zm-.08.3h1.1v-.04h-1.1v.03Zm-.03.33h1.14v-.03H9.42v.03Z" fill="#000"/><path d="m9.82 5.13.1.05h.16l.1-.05V5h-.02c-.03.02-.07.03-.07.08-.02-.07-.03-.08-.06-.1 0 0-.02 0-.03-.02a.22.22 0 0 1-.02.02c-.03.02-.05.03-.06.1 0-.06-.04-.06-.08-.07h-.02v.12Zm-.2 2.05c0-.14 0-.34-.12-.46h1c-.12.12-.12.32-.12.46v.04h-.76v-.04Z" fill="#fff"/><path d="M9.93 5.18v.02-.02Zm-.1-.05H9.8v.01h.01Zm.25.05v.01-.01Zm.1-.05v.02h.02v-.02h-.02Zm0-.13h.02v-.02h-.02V5Zm-.02 0Zm-.07.08h-.02.03-.01Zm-.06-.1v-.01.01ZM10 4.96h.01v-.01h-.02l.01.01Zm-.02.02h-.01Zm-.06.1h-.01.03-.02ZM9.84 5v-.02V5Zm-.02 0v-.02h-.01V5h.01ZM9.5 6.71V6.7h-.04l.03.03.01-.01Zm.12.46H9.6h.02Zm.88-.46.01.01.03-.03h-.04v.02Zm-.12.46h.02-.02Zm0 .04v.01h.02v-.01h-.02Zm-.76 0H9.6v.01h.02v-.01Zm.32-2.05-.11-.05-.01.03.1.05.02-.03Zm.14 0h-.15v.03h.15v-.04Zm.1-.05-.1.04v.03l.1-.04v-.03ZM10.17 5v.13h.03V5h-.03Zm0 .02h.02l-.01-.03h-.02v.03Zm-.07.06.02-.04.05-.02V5l-.07.02c-.01.02-.03.04-.03.07h.03ZM10.02 5a.1.1 0 0 1 .03.02l.02.06h.03a.19.19 0 0 0-.02-.08l-.04-.03-.02.03ZM10 4.98l.02.02.02-.03-.03-.02-.01.03ZM9.98 5l.03-.02-.02-.03-.02.02.01.03Zm-.04.08.01-.06A.1.1 0 0 1 9.98 5l-.01-.03-.04.03a.16.16 0 0 0-.02.08h.03Zm-.1-.06c.01 0 .03 0 .04.02l.03.04h.03A.09.09 0 0 0 9.9 5h-.06v.03Zm-.02 0h.01l.01-.03h-.01l-.01.03Zm.02.11V5H9.8v.13h.03Zm-.35 1.6a.4.4 0 0 1 .1.21l.01.24h.03l-.01-.24a.42.42 0 0 0-.1-.23l-.03.02Zm1.01-.03h-1v.03h1V6.7Zm-.1.48.01-.24a.4.4 0 0 1 .1-.21l-.02-.02a.42.42 0 0 0-.1.23c-.02.08-.02.17-.02.24h.03Zm0 .04v-.04h-.03v.04h.03Zm-.78.01h.77V7.2h-.77v.03Zm-.02-.05v.04h.03v-.04H9.6Z" fill="#000"/><path d="m9.93 5.4-.15-.1v-.13c.06.02.11.02.12.09.02-.1.05-.14.1-.18.05.04.09.08.1.18 0-.07.07-.07.12-.09v.12l-.15.1h-.14Z" fill="#fff" stroke="#000" stroke-width=".03"/><path d="m9.89 5.73-.26-.15V5.4h.02c.09.02.17.03.19.12.02-.13.08-.2.17-.26.09.06.14.13.18.26 0-.09.1-.1.18-.11h.02v.17l-.26.15H9.9Zm.47.2-.22.21h-.27l-.23-.21h.72Zm-.69.64c-.01-.16-.06-.24-.17-.29h1c-.11.05-.16.13-.17.29h-.66Z" fill="#fff"/><path d="M9.63 5.58h-.01v.01l.01-.01Zm.26.15-.01.01v-.01Zm-.26-.33h-.01v.01h.01Zm.02 0v.02-.01Zm.19.12h-.02.03-.01Zm.17-.26v-.01H10v.01Zm.18.26h-.02.03-.01Zm.18-.11v.01-.01Zm.02 0h.02v-.02h-.02v.01Zm0 .17v.01h.02v-.01h-.02Zm-.26.15v.02-.02Zm0 .41v.02h.02l-.01-.02Zm.23-.21.01.01.03-.03h-.04v.02Zm-.5.21v.02-.02Zm-.22-.21V5.9H9.6l.03.03v-.01Zm-.14.35v-.01.03-.02Zm.17.29h-.01v.01h.01v-.01Zm.83-.29v.02-.03.01Zm-.17.29v.01h.01l-.01-.01Zm-.7-.98.25.15.01-.02-.25-.15-.02.02Zm-.01-.19v.18h.03V5.4h-.03Zm.04 0-.03-.01v.03h.02V5.4Zm.19.12a.12.12 0 0 0-.07-.1l-.12-.03v.03l.1.03c.04.01.06.04.06.07h.03Zm.15-.27a.37.37 0 0 0-.18.27h.03c.03-.12.08-.2.16-.24L10 5.25Zm.2.27a.47.47 0 0 0-.07-.17.37.37 0 0 0-.12-.1l-.01.03c.04.02.08.05.1.1.03.03.06.08.07.14h.03Zm.17-.13c-.05 0-.09.02-.13.03a.12.12 0 0 0-.07.1h.03c0-.03.03-.06.06-.07a.44.44 0 0 1 .11-.03V5.4Zm.02 0h-.02v.03h.02v-.03Zm.02.19V5.4h-.03v.18h.03Zm-.27.16.26-.15-.02-.02-.26.15.02.02Zm-.25 0h.24v-.03H9.9v.03Zm.26.41.22-.21-.02-.02-.22.21.02.02Zm-.28 0h.27v-.02h-.27v.03Zm-.24-.21.23.21.02-.02-.23-.21-.02.02Zm.73-.03h-.72v.03h.72v-.03Zm-.87.39c.06.02.1.05.12.1.03.03.04.1.05.17h.03a.45.45 0 0 0-.05-.2.24.24 0 0 0-.13-.1l-.02.03Zm1.01-.03h-1v.03h1v-.03Zm-.16.3c.01-.08.02-.14.05-.18a.2.2 0 0 1 .12-.1l-.02-.02a.24.24 0 0 0-.13.1.44.44 0 0 0-.05.2h.03Zm-.67.01h.66v-.03h-.66v.03Z" fill="#000"/><path d="M10.33 5.92v-.2a.2.2 0 0 0-.14.12c0-.08-.1-.24-.2-.32-.1.09-.2.24-.19.31a.214.214 0 0 0-.14-.12v.22h.67Z" fill="#fff" stroke="#000" stroke-width=".03" stroke-linejoin="bevel"/><path d="M10.36 6.28v-.2c-.08.02-.13.06-.15.12 0-.08-.1-.24-.22-.32-.1.1-.21.24-.2.32-.03-.06-.08-.1-.16-.13v.22h.73Z" fill="#fff" stroke="#000" stroke-width=".03" stroke-linejoin="bevel"/><path d="M10.45 6.72v-.24a.36.36 0 0 0-.19.14c0-.13-.15-.34-.27-.4-.12.06-.26.27-.26.4a.36.36 0 0 0-.2-.14v.24h.92Z" fill="#fff" stroke="#000" stroke-width=".03" stroke-linejoin="bevel"/><path d="M6.39 8.6v-.77c-.03-.1-.12-.19-.18-.2v-.68l.14.08.16.7v.87H6.4Z" fill="#fff" stroke="#000" stroke-width=".03"/><path d="M6.29 8.8c.06-.03.15-.12.15-.2v-.95l-.04-.08h1.64l-.07.08v.96c0 .08.06.15.13.18H6.3Z" fill="#fff" stroke="#000" stroke-width=".03"/><path d="M7.77 8.8c-.07-.03-.16-.12-.16-.2v-.9l.13-.13h-1.1l.13.13v.9c0 .09-.1.17-.16.2h1.16Z" fill="#fff" stroke="#000" stroke-width=".03"/><path d="M7.61 8.8c-.06-.03-.16-.12-.16-.2v-.82l.1-.12h-.71l.09.12v.83c0 .07-.1.16-.16.18h.84Z" fill="#fff" stroke="#000" stroke-width=".03"/><path d="M6.45 6.81h.16v.76h-.16V6.8Zm.11 1.16h.14v.62h-.14v-.62Zm1.16 0h.13v.62h-.14v-.62Zm.3-.9h-.24v.49h.23v-.5Z" fill="#fff"/><path d="M6.6 6.81h.02l-.01-.01v.01Zm-.15 0V6.8l-.02.01h.02Zm.16.12h-.02l.02.02v-.02Zm0 0h.02l-.02-.01v.01Zm0 .64v.01l.02-.01H6.6Zm-.16 0h-.02l.02.01v-.01Zm.25.4h.01l-.01-.01v.01Zm-.14 0v-.01l-.01.01h.01Zm.14.62v.02l.01-.02H6.7Zm-.14 0h-.01l.01.02v-.02Zm1.29-.62h.01l-.01-.01v.01Zm-.13 0v-.01l-.02.01h.02Zm.13.62v.02l.01-.02h-.01Zm-.14 0H7.7l.01.02v-.02Zm.07-1.52v-.02l-.01.02h.01Zm.23 0h.02L8 7.05v.02Zm-.23.49h-.01l.01.01v-.01Zm.23 0v.01l.02-.01H8Zm-1.4-.76h-.16v.03h.16v-.04Zm.01.13v-.12H6.6v.12h.03Zm0-.01H6.6v.03-.04Zm0 .65v-.64H6.6v.64h.03Zm-.17.01h.16v-.03h-.16v.03Zm-.02-.65v.64h.03v-.64h-.03Zm0-.12v.12h.03v-.12h-.03Zm.27 1.15h-.14v.03h.14v-.03Zm.01.63v-.62h-.03v.62h.03Zm-.15.02h.14v-.03h-.14v.03Zm-.01-.64v.62h.03v-.62h-.03Zm1.3-.01h-.13v.03h.13v-.03Zm.01.63v-.62h-.03v.62h.03Zm-.15.02h.14v-.03h-.14v.03Zm0-.64-.01.62h.03v-.62H7.7Zm.07-.89h.23v-.03h-.23v.03Zm.02.48v-.5h-.03v.5h.03Zm.2-.02h-.23v.03H8v-.03Zm0-.47v.49h.03v-.5H8Z" fill="#000"/><path d="M6.6 6.47v1.09h1.2V6.48c-.02 0-.03.02-.04.05-.03.05-.05.1-.12.1-.05 0-.05-.06-.02-.12.03-.04.06-.1.02-.23-.04.1-.12.12-.1.06a.3.3 0 0 1 .03-.07c.03-.05.05-.1.01-.2-.02.13-.1.13-.08.05l.02-.06c.02-.05.04-.1 0-.18-.04.13-.08.13-.08.04 0-.13 0-.26-.16-.31 0 0-.01-.11-.07-.11-.06 0-.07.11-.07.11-.16.05-.16.18-.16.31 0 .09-.04.1-.07-.04-.05.09-.03.13-.01.18l.02.06c.02.08-.07.08-.08-.05-.04.1-.02.15 0 .2a.3.3 0 0 1 .04.08c.02.05-.07.02-.1-.07-.05.12-.01.18.01.23.04.06.04.12-.01.12-.07 0-.1-.06-.12-.1-.01-.03-.02-.06-.04-.06Zm-.25 1.1v-.83c.03-.02.06-.02.1 0v.83h-.1Z" fill="#fff"/><path d="M6.6 7.56v.02-.02Zm0-1.09v-.01.01Zm1.2 1.09v.02h.01v-.02H7.8Zm0-1.08h.01v-.02H7.8v.02Zm-.04.05Zm-.14-.02.02.01H7.6Zm.02-.23h.01l-.01-.05-.02.04h.02Zm-.1.06h.01-.01Zm.03-.07-.01-.01h.01Zm.01-.2h.02L7.57 6l-.01.06h.01Zm-.08.05h-.01.01Zm.02-.06H7.5Zm0-.18v-.01l-.01-.04-.01.04h.01Zm-.08.03H7.4h.02Zm-.16-.3h-.02v.01h.01v-.01Zm-.14 0v.01h.01l-.01-.01Zm-.23.27h.01v-.05l-.03.04h.02Zm-.01.18h.01-.01Zm.02.06h.01-.01Zm-.08-.05h.01V6l-.03.06h.02Zm0 .2.02-.01h-.01Zm.04.08h-.01.01Zm-.1-.07h.01l-.01-.05-.01.04h.01Zm.01.23v.01Zm-.13.02h.02-.02Zm-.3.2h-.02.02Zm0 .84h-.02v.01h.02v-.01Zm.1-.83h.01v-.01h-.01Zm0 .83v.01h.01v-.01h-.01Zm.17-.01V6.47H6.6v1.09h.03Zm1.17-.01H6.61v.03h1.18v-.04Zm-.02-1.07v1.08h.03V6.48h-.03Zm-.01.06.02-.04h.01v-.04l-.04.02-.02.04.03.02Zm-.13.1a.1.1 0 0 0 .09-.03l.04-.07-.03-.02a.29.29 0 0 1-.04.07.08.08 0 0 1-.06.03v.03Zm-.03-.13a.17.17 0 0 0-.02.08l.01.04.04.02v-.03h-.02v-.03c0-.02 0-.04.02-.07l-.03-.01Zm.01-.23c.03.06.03.1.02.14 0 .04-.02.06-.03.09l.03.01a.29.29 0 0 0 .03-.1.3.3 0 0 0-.02-.15l-.03.01Zm-.1.06.01.04h.05a.18.18 0 0 0 .07-.1h-.03a.15.15 0 0 1-.06.07h-.01c0 .01 0 .01 0 0h-.03Zm.04-.08-.04.08h.03a.3.3 0 0 1 .04-.07l-.03-.01Zm0-.18c.03.05.03.08.03.1a.2.2 0 0 1-.03.08l.03.01.03-.08c0-.03 0-.07-.02-.12h-.03Zm-.07.04v.05l.02.02h.02c.02 0 .03-.02.04-.04a.2.2 0 0 0 .03-.08h-.03l-.02.07-.03.02v-.04h-.03Zm.02-.06-.02.06h.02l.02-.05-.02-.01Zm-.01-.18a.2.2 0 0 1 .02.1l-.01.08h.02l.02-.08c0-.03 0-.06-.03-.11l-.02.01Zm-.08.04v.06l.02.01h.04l.02-.03a.4.4 0 0 0 .03-.08H7.5l-.03.07v.01h-.01v-.04H7.4Zm0 0h.03-.03Zm-.15-.3c.08.03.11.07.13.12.02.05.02.11.02.17h.03c0-.06 0-.12-.02-.18a.2.2 0 0 0-.15-.13v.02Zm-.06-.1h.02l.02.04a.25.25 0 0 1 .01.05h.03a.16.16 0 0 0 0-.02l-.01-.04a.14.14 0 0 0-.02-.04.06.06 0 0 0-.05-.03v.03Zm-.07.09h.01a.2.2 0 0 1 0-.01l.02-.04a.1.1 0 0 1 .02-.03l.02-.02v-.03a.06.06 0 0 0-.05.03.13.13 0 0 0-.02.04.26.26 0 0 0-.01.06h.01ZM7 5.92c0-.06 0-.13.02-.18.01-.05.05-.1.12-.12V5.6a.21.21 0 0 0-.15.13c-.02.06-.02.13-.02.2H7Zm-.1-.04.02.08.01.02.02.02h.03v-.02L7 5.92h-.03v.04h-.01l-.01-.01a.38.38 0 0 1-.03-.08l-.03.01Zm.01.18a.23.23 0 0 1-.02-.08c0-.02 0-.05.03-.1l-.03-.01a.23.23 0 0 0-.03.11c0 .04.02.06.03.09l.02-.01Zm.02.06-.02-.06h-.02l.01.06h.03Zm-.1-.05c0 .04 0 .06.02.08 0 .02.02.03.04.04h.02l.02-.02v-.05H6.9v.03l-.03-.01a.18.18 0 0 1-.02-.07h-.03Zm.03.19a.2.2 0 0 1-.03-.07c0-.03 0-.06.02-.11l-.03-.01a.25.25 0 0 0-.02.12c0 .04.02.06.03.08l.03-.01Zm.04.08-.04-.08-.03.01a.3.3 0 0 1 .04.08h.03Zm-.13-.06c.01.05.04.09.07.1h.04c.02 0 .02-.02.02-.04h-.03v.02h-.01a.15.15 0 0 1-.07-.09l-.02.01Zm.04.23a.26.26 0 0 1-.03-.09c-.01-.03 0-.08.01-.14h-.02a.3.3 0 0 0-.02.15c0 .04.02.07.03.1l.03-.02Zm-.03.14c.01 0 .03 0 .04-.02a.06.06 0 0 0 .01-.04c0-.02 0-.06-.02-.08l-.03.01c.02.03.03.05.02.07v.02h-.02v.04Zm-.13-.12.04.08a.1.1 0 0 0 .09.04v-.03a.08.08 0 0 1-.06-.03.3.3 0 0 1-.04-.07l-.03.01ZM6.6 6.5h.01l.02.04h.03l-.03-.05c0-.01-.01-.02-.03-.02v.03Zm-.28.25v.83h.03v-.83h-.03Zm.13-.01a.11.11 0 0 0-.11 0v.02l.05-.01a.1.1 0 0 1 .04.01l.02-.02Zm0 .84v-.83h-.03v.83h.03Zm-.11.01h.1v-.03h-.1v.03Z" fill="#000"/><path d="m7.35 5.95-.07.06h-.17l-.07-.06v-.07c.03 0 .04 0 .06.03a.19.19 0 0 1 .1-.1c.04.02.08.06.1.1.01-.02.02-.03.05-.03v.07Zm.44 1.61c.03-.16.15-.23.26-.29v.3H7.8Z" fill="#fff"/><path d="M7.28 6.01v.02h.01L7.28 6Zm.07-.06.01.02v-.02h-.01Zm-.24.06-.01.02h.01V6Zm-.07-.06h-.02l.01.01h.01Zm0-.07v-.02h-.01v.02h.01Zm.06.03-.01.01.01.03.01-.03H7.1Zm.1-.1v-.03.02Zm.1.1-.02.01v.03l.02-.02v-.01Zm.05-.03h.01v-.02h-.01v.02Zm.7 1.4h.02v-.03l-.02.01v.01Zm-.26.28h-.01v.02h.01v-.02Zm.26 0v.02h.02v-.02h-.02ZM7.3 6.02l.07-.05-.02-.03-.07.06.02.02Zm-.18 0h.17V6h-.17v.03Zm-.08-.06.07.06.02-.02-.07-.06-.02.02Zm0-.08v.07h.03v-.07h-.03Zm.08.03a.1.1 0 0 0-.03-.03.14.14 0 0 0-.03-.02l-.01.03a.1.1 0 0 1 .03.01l.02.02.02-.01Zm.08-.12a.2.2 0 0 0-.1.12h.02a.17.17 0 0 1 .1-.1l-.02-.02Zm.12.12a.2.2 0 0 0-.1-.12l-.02.03c.04.02.07.06.09.1h.03Zm.04-.05c-.02 0-.03 0-.04.02a.13.13 0 0 0-.03.03l.02.02a.1.1 0 0 1 .03-.03h.02v-.04Zm.01.1v-.08h-.03v.07h.03Zm.69 1.3c-.12.06-.24.13-.27.3h.02c.03-.15.14-.22.26-.27l-.01-.03Zm.02.3v-.29h-.03v.3h.03Zm-.28.02h.26v-.03H7.8v.03Z" fill="#000"/><path d="m7.32 6.2.03-.08v-.09c-.03 0-.04.01-.06.04a.19.19 0 0 0-.1-.11.19.19 0 0 0-.09.1c-.02-.02-.03-.03-.06-.03v.1l.03.07h.25Z" fill="#fff" stroke="#000" stroke-width=".03"/><path d="m7.32 6.44.1-.12V6.2c-.04 0-.05.02-.08.06-.03-.09-.08-.1-.14-.14-.07.03-.12.05-.15.14-.03-.05-.04-.06-.08-.06v.12l.1.12h.25Z" fill="#fff" stroke="#000" stroke-width=".03"/><path d="M7.35 6.69s.12-.1.12-.16V6.4c-.04 0-.08.01-.12.07-.03-.11-.07-.14-.15-.19-.09.05-.13.08-.16.19-.04-.06-.08-.07-.12-.08v.14c.03.06.07.11.12.16h.31Z" fill="#fff" stroke="#000" stroke-width=".03"/><path d="M7.4 7.14s.16-.18.17-.25v-.2c-.06 0-.12.04-.17.13a.608.608 0 0 0-.2-.37c-.12.09-.18.2-.21.37-.05-.09-.1-.13-.16-.13v.2c0 .07.16.25.16.25h.41Z" fill="#fff" stroke="#000" stroke-width=".03"/><path d="M7.4 7.4s.14-.14.17-.2V7c-.06 0-.12.05-.17.13a.52.52 0 0 0-.2-.34.52.52 0 0 0-.21.34c-.05-.08-.1-.12-.16-.13v.2c.03.06.16.2.16.2h.41Z" fill="#fff" stroke="#000" stroke-width=".03"/><path d="M7.46 7.56c-.04-.18-.08-.3-.27-.44-.2.13-.23.26-.27.44h.54Zm6.15 1.04v-.77c.03-.1.12-.19.18-.2v-.68l-.14.08-.16.7v.87h.12Z" fill="#fff" stroke="#000" stroke-width=".03"/><path d="M13.71 8.8c-.06-.03-.15-.12-.15-.2v-.95l.04-.08h-1.64l.07.08v.96c0 .08-.06.15-.13.18h1.81Z" fill="#fff" stroke="#000" stroke-width=".03"/><path d="M12.23 8.8c.07-.03.16-.12.16-.2v-.9l-.13-.13h1.1l-.13.13v.9c0 .09.1.17.16.2h-1.16Z" fill="#fff" stroke="#000" stroke-width=".03"/><path d="M12.39 8.8c.06-.03.16-.12.16-.2v-.82l-.1-.12h.71l-.09.12v.83c0 .07.1.16.16.18h-.84Z" fill="#fff" stroke="#000" stroke-width=".03"/><path d="M13.55 6.81h-.16v.76h.16V6.8Zm-.11 1.16h-.14v.62h.14v-.62Zm-1.16 0h-.13v.62h.14v-.62Zm-.29-.9h.23v.49h-.23v-.5Z" fill="#fff"/><path d="M13.4 6.81h-.02l.01-.01v.01Zm.15 0V6.8l.02.01h-.02Zm-.16.12h.02l-.02.02v-.02Zm0 0h-.02l.02-.01v.01Zm0 .64v.01l-.02-.01h.02Zm.16 0h.02l-.02.01v-.01Zm-.25.4h-.01l.01-.01v.01Zm.14 0v-.01l.01.01h-.01Zm-.14.62v.02l-.01-.02h.01Zm.14 0h.01l-.01.02v-.02Zm-1.29-.62h-.01l.01-.01v.01Zm.13 0v-.01l.02.01h-.02Zm-.13.62v.02l-.01-.02h.01Zm.14 0h.01l-.01.02v-.02Zm-.07-1.52v-.02l.01.02h-.01Zm-.23 0h-.02l.02-.02v.02Zm.23.49h.01l-.01.01v-.01Zm-.23 0v.01l-.02-.01H12Zm1.4-.76h.16v.03h-.16v-.04Zm-.01.13v-.12h.03v.12h-.03Zm0-.01h.01v.03-.04Zm0 .65v-.64h.02v.64h-.03Zm.17.01h-.16v-.03h.16v.03Zm.02-.65v.64h-.03v-.64h.03Zm0-.12v.12h-.03v-.12h.03Zm-.27 1.15h.14v.03h-.14v-.03Zm-.01.63v-.62h.03v.62h-.03Zm.15.02h-.14v-.03h.14v.03Zm.01-.64v.62h-.03v-.62h.03Zm-1.3-.01h.13v.03h-.13v-.03Zm-.01.63v-.62h.03v.62h-.03Zm.15.02h-.14v-.03h.14v.03Zm0-.64.01.62h-.03v-.62h.03Zm-.07-.89h-.23v-.03h.23v.03Zm-.02.48v-.5h.03v.5h-.03Zm-.2-.02h.23v.03H12v-.03Zm.02-.47v.49h-.04v-.5h.04Z" fill="#000"/><path d="M13.4 6.47v1.09h-1.2V6.48c.02 0 .03.02.05.05.02.05.05.1.1.1.06 0 .06-.06.03-.12-.03-.04-.06-.1-.02-.23.04.1.12.12.1.06a.3.3 0 0 0-.03-.07c-.03-.05-.05-.1-.01-.2.02.13.1.13.08.05l-.02-.06c-.02-.05-.04-.1.01-.18.03.13.07.13.07.04 0-.13 0-.26.16-.31 0 0 .01-.11.07-.11.06 0 .07.11.07.11.16.05.16.18.16.31 0 .09.04.1.07-.04.05.09.03.13.01.18l-.02.06c-.02.08.07.08.08-.05.05.1.02.15 0 .2a.3.3 0 0 0-.04.08c-.02.05.07.02.1-.07.05.12.01.18-.01.23-.04.06-.04.12.01.12.07 0 .1-.06.12-.1.01-.03.02-.06.04-.06Zm.25 1.1v-.83c-.03-.02-.06-.02-.1 0v.83h.1Z" fill="#fff"/><path d="M13.4 7.56v.02-.02Zm0-1.09v-.01.01Zm-1.2 1.09v.02h-.01v-.02h.01Zm0-1.08h-.01v-.02h.01v.02Zm.05.05h-.02.02Zm.13-.02-.02.01h.02Zm-.02-.23h-.01l.01-.05.02.04h-.02Zm.1.06h-.01.01Zm-.03-.07.01-.01h-.01Zm-.01-.2h-.02l.03-.06v.06h-.01Zm.08.05h.02-.02Zm-.02-.06h.02-.02Zm.01-.18-.01-.01.01-.04.01.04h-.01Zm.07.03h.02-.02Zm.16-.3h.02v.01h-.01v-.01Zm.14 0v.01h-.01l.01-.01Zm.23.27h-.01v-.05l.03.04h-.02Zm.01.18h-.01.01Zm-.02.06h-.01.01Zm.08-.05h-.01V6l.03.06h-.02Zm0 .2-.02-.01h.01Zm-.04.08h.01-.01Zm.1-.07h-.01l.01-.05.02.04h-.02Zm-.01.23v.01Zm.13.02h-.02.02Zm.3.2h.02-.02Zm0 .84h.02v.01h-.02v-.01Zm-.1-.83h-.01v-.01h.01Zm0 .83v.01h-.01v-.01h.01Zm-.17-.01V6.47h.03v1.09h-.03Zm-1.17-.01h1.18v.03H12.2v-.04Zm.02-1.07v1.08h-.03V6.48h.03Zm.01.06a.28.28 0 0 0-.02-.04v-.04l.03.02.02.04-.03.02Zm.13.1a.1.1 0 0 1-.08-.03l-.05-.07.03-.02a.3.3 0 0 0 .04.07c.01.02.03.03.06.03v.03Zm.03-.13c.02.02.03.06.03.08l-.02.04a.06.06 0 0 1-.04.02v-.03h.02v-.03c0-.02 0-.04-.02-.07l.03-.01Zm-.01-.23a.27.27 0 0 0-.02.14c0 .04.02.06.03.09l-.03.01c0-.02-.03-.05-.03-.1 0-.03 0-.08.02-.15l.03.01Zm.1.06-.01.04h-.05a.18.18 0 0 1-.07-.1h.03c.01.04.04.06.06.07h.01c0 .01 0 .01 0 0h.03Zm-.04-.08.04.08h-.03a.3.3 0 0 0-.03-.07l.02-.01Zm0-.18a.22.22 0 0 0-.03.1c0 .03.02.06.03.08l-.02.01-.04-.08c0-.03 0-.07.02-.12h.03Zm.08.04v.05l-.03.02h-.02c-.02 0-.03-.02-.04-.04a.2.2 0 0 1-.03-.08h.03l.02.07.03.02v-.04h.04Zm-.02-.06.02.06h-.03l-.02-.05.03-.01Zm0-.18a.2.2 0 0 0-.02.1c0 .03 0 .05.02.08h-.03l-.02-.08c0-.03 0-.06.03-.11l.02.01Zm.08.04v.06l-.02.01h-.04l-.02-.03a.4.4 0 0 1-.02-.08h.02l.03.07.01.01.01-.04h.03Zm0 0h-.03.03Zm.15-.3c-.08.03-.11.07-.13.12a.53.53 0 0 0-.02.17h-.03c0-.06 0-.12.02-.18a.2.2 0 0 1 .15-.13v.02Zm.06-.1h-.02l-.02.04a.27.27 0 0 0-.01.05h-.03a.25.25 0 0 1 .01-.06l.02-.04a.06.06 0 0 1 .05-.03v.03Zm.07.09h-.01V5.6l-.02-.04a.1.1 0 0 0-.01-.03l-.03-.02v-.03c.02 0 .04.01.05.03l.02.04a.26.26 0 0 1 .02.05l-.02.01Zm.14.31c0-.06 0-.13-.02-.18a.18.18 0 0 0-.12-.12V5.6c.09.02.13.07.15.13.02.06.02.13.02.2H13Zm.1-.04a.4.4 0 0 1-.02.08l-.01.02-.02.02h-.03v-.02L13 5.92h.03l.01.04.01-.01.03-.08.03.01Zm-.01.18a.23.23 0 0 0 .02-.08.2.2 0 0 0-.03-.1l.03-.01.03.11-.02.09-.03-.01Zm-.02.06.02-.06h.03l-.02.06h-.03Zm.11-.05a.2.2 0 0 1-.03.08.07.07 0 0 1-.04.04h-.02l-.02-.02v-.05h.03v.03l.03-.01.02-.07h.03Zm-.04.19a.2.2 0 0 0 .03-.07c0-.03 0-.06-.02-.11l.03-.01c.02.05.03.09.02.12 0 .04-.02.06-.03.08l-.03-.01Zm-.03.08c0-.03.02-.06.03-.08l.03.01-.04.08h-.02Zm.13-.06a.18.18 0 0 1-.08.1h-.04c-.02 0-.02-.02-.01-.04h.02v.02h.02a.15.15 0 0 0 .06-.09l.03.01Zm-.05.23a.26.26 0 0 0 .04-.09c0-.03 0-.08-.02-.14h.03a.3.3 0 0 1 .02.15l-.04.1-.03-.02Zm.03.14c-.01 0-.03 0-.04-.02a.06.06 0 0 1-.01-.04c0-.02 0-.06.02-.08l.03.01a.12.12 0 0 0-.02.07v.02h.02v.04Zm.13-.12c0 .03-.02.06-.04.08a.1.1 0 0 1-.09.04v-.03c.03 0 .05-.01.07-.03a.3.3 0 0 0 .03-.07l.03.01Zm.03-.04-.03.04h-.03a.3.3 0 0 1 .03-.05l.03-.02v.03Zm.28.25v.83h-.03v-.83h.03Zm-.13-.01a.11.11 0 0 1 .11 0v.02a.08.08 0 0 0-.05-.01.1.1 0 0 0-.04.01l-.02-.02Zm0 .84v-.83h.03v.83h-.03Zm.11.01h-.1v-.03h.1v.03Z" fill="#000"/><path d="m12.65 5.95.07.06h.17l.07-.06v-.07c-.03 0-.04 0-.06.03a.19.19 0 0 0-.1-.1.19.19 0 0 0-.09.1c-.02-.02-.03-.03-.06-.03v.07Zm-.44 1.61c-.03-.16-.15-.23-.26-.29v.3h.26Z" fill="#fff"/><path d="M12.72 6.01v.02V6Zm-.07-.06-.01.02v-.02h.01Zm.24.06.01.02h-.01V6Zm.07-.06h.02l-.01.01h-.01Zm0-.07v-.02h.01v.02h-.01Zm-.06.03.01.01-.01.03-.01-.03h.01Zm-.1-.1v-.03l.01.01v.01Zm-.09.1.01.01v.03l-.02-.02.01-.01Zm-.06-.03h-.01v-.02h.01v.02Zm-.7 1.4h-.02v-.03l.03.01-.01.01Zm.26.28h.02v.02h-.02v-.02Zm-.26 0v.02h-.02v-.02h.02Zm.76-1.54-.07-.05.02-.03.07.06-.02.02Zm.18 0h-.17V6h.17v.03Zm.08-.06-.07.06-.02-.02.07-.06.02.02Zm0-.08v.07h-.03v-.07h.03Zm-.08.03a.1.1 0 0 1 .03-.03l.03-.02.01.03-.03.01-.02.02-.02-.01Zm-.08-.12a.2.2 0 0 1 .1.12h-.02a.17.17 0 0 0-.1-.1l.02-.02Zm-.11.12a.2.2 0 0 1 .1-.12l.01.03a.17.17 0 0 0-.09.1h-.02Zm-.05-.05c.02 0 .03 0 .04.02l.03.03-.02.02a.1.1 0 0 0-.03-.03h-.02v-.04Zm-.01.1v-.08h.03v.07h-.03Zm-.68 1.3c.11.06.23.13.27.3h-.03c-.03-.15-.14-.22-.26-.27l.02-.03Zm-.03.3v-.29h.03v.3h-.03Zm.28.02h-.26v-.03h.26v.03Z" fill="#000"/><path d="m12.68 6.2-.03-.08v-.09c.03 0 .04.01.06.04a.19.19 0 0 1 .1-.11c.04.02.07.06.1.1.01-.02.02-.03.05-.03v.1l-.03.07h-.25Z" fill="#fff" stroke="#000" stroke-width=".03"/><path d="m12.68 6.44-.1-.12V6.2c.04 0 .05.02.08.06.03-.09.08-.1.14-.14.07.03.12.05.15.14.03-.05.04-.06.08-.06v.12l-.1.12h-.25Z" fill="#fff" stroke="#000" stroke-width=".03"/><path d="M12.65 6.69s-.12-.1-.12-.16V6.4c.04 0 .08.01.12.07.03-.11.07-.14.15-.19.09.05.13.08.16.19.04-.06.08-.07.13-.08v.14a.56.56 0 0 1-.13.16h-.31Z" fill="#fff" stroke="#000" stroke-width=".03"/><path d="M12.6 7.14s-.16-.18-.17-.25v-.2c.06 0 .12.04.17.13.03-.17.1-.28.2-.37.12.09.18.2.21.37.05-.09.1-.13.16-.13v.2c0 .07-.16.25-.16.25h-.4Z" fill="#fff" stroke="#000" stroke-width=".03"/><path d="M12.6 7.4s-.14-.14-.17-.2V7c.06 0 .12.05.17.13.02-.14.1-.26.2-.34.12.08.18.17.21.34.05-.08.1-.12.16-.13v.2c-.03.06-.16.2-.16.2h-.4Z" fill="#fff" stroke="#000" stroke-width=".03"/><path d="M12.54 7.56c.04-.18.08-.3.27-.44.2.13.23.26.27.44h-.54Z" fill="#fff" stroke="#000" stroke-width=".03"/><path d="M14.11 9.03H5.88v.3h8.23v-.3Zm-8.7.7h9.19v.47h.24v.47H5.16v-.47h.24v-.47Z" fill="#fff"/><path d="M5.88 9.03v-.02h-.01v.02h.01Zm8.23 0h.02v-.02h-.02v.02Zm-8.23.3h-.01v.02h.01v-.02Zm8.23 0v.02h.02v-.02h-.02Zm.49.4h.02v-.01h-.02v.01Zm-9.2 0v-.01.01h.01Zm9.2.47h-.01v.02h.01v-.02Zm.24 0h.02v-.01h-.02v.01Zm0 .47v.02h.02v-.02h-.02Zm-9.68 0h-.02v.02h.02v-.02Zm0-.47v-.01h-.02v.01h.02Zm.24 0v.02h.02v-.02H5.4Zm.48-1.16h8.23v-.03H5.88v.03Zm.02.3v-.31h-.03v.3h.03Zm8.21-.02H5.88v.03h8.23v-.03Zm-.01-.29v.3h.03v-.3h-.03Zm.5.69H5.4v.03h9.2v-.03Zm.02.48v-.47h-.03v.47h.03Zm.22-.01h-.24v.03h.24v-.03Zm.02.48v-.47h-.03v.47h.03Zm-9.7.02h9.68v-.03H5.16v.03Zm-.02-.49v.47h.03v-.47h-.03Zm.26-.01h-.24v.03h.24v-.03Zm-.01-.46v.47h.03v-.47h-.03Z" fill="#000"/><path d="M13.98 8.77H6.03v.25h7.95v-.25Zm.38.57H5.64v.43h8.72v-.43Z" fill="#fff"/><path d="M6.03 8.77v-.02H6v.02h.02Zm7.95 0h.01v-.02h-.01v.02Zm-7.95.25H6v.01h.02v-.01Zm7.95 0v.01h.01v-.01h-.01Zm-8.34.32v-.01h-.01v.01h.01Zm8.72 0h.02v-.01h-.02v.01Zm-8.72.43h-.01v.01h.01v-.01Zm8.72 0v.01h.02v-.01h-.02Zm-8.33-.99h7.95v-.03H6.03v.03Zm.01.24v-.25h-.03v.25h.03ZM13.98 9H6.03v.03h7.95V9Zm-.02-.23v.25H14v-.25h-.03Zm-8.32.59h8.72v-.03H5.64v.03Zm.02.41v-.43h-.03v.43h.03Zm8.7-.02H5.64v.03h8.72v-.03Zm-.01-.4v.42h.03v-.43h-.04Z" fill="#000"/><path d="M6.89 8.79h.6v1.87h-.6V8.8Z" fill="#fff" stroke="#000" stroke-width=".03"/><path d="M7.36 8.79h-.34v1.87h.34V8.8Zm2.93 0h-.6v1.87h.6V8.8Z" fill="#fff"/><path d="M7.02 8.79v-.02h-.01v.02h.01Zm.34 0h.01v-.02h-.01v.02Zm-.34 1.87h-.01v.02h.01v-.02Zm.34 0v.02h.01v-.02h-.01ZM9.69 8.8v-.02h-.02v.02h.02Zm.6 0h.01v-.02h-.01v.02Zm-.6 1.87h-.02v.02h.02v-.02Zm.6 0v.02h.01v-.02h-.01ZM7.02 8.8h.34v-.03h-.34v.03Zm.02 1.86V8.8h-.03v1.87h.03Zm.32-.01h-.34v.03h.34v-.03Zm-.02-1.86v1.87h.03V8.8h-.03Zm2.35.01h.6v-.03h-.6v.03Zm.01 1.86V8.8h-.03v1.87h.03Zm.59-.01h-.6v.03h.6v-.03Zm-.02-1.86v1.87h.03V8.8h-.03Z" fill="#000"/><path d="M10.16 8.79h-.33v1.87h.33V8.8Zm2.95 0h-.6v1.87h.6V8.8Z" fill="#fff"/><path d="M9.83 8.79v-.02H9.8v.02h.02Zm.33 0h.02v-.02h-.02v.02Zm-.33 1.87H9.8v.02h.02v-.02Zm.33 0v.02h.02v-.02h-.02Zm2.35-1.87v-.02h-.02v.02h.02Zm.6 0h.01v-.02h-.01v.02Zm-.6 1.87h-.02v.02h.02v-.02Zm.6 0v.02h.01v-.02h-.01ZM9.83 8.8h.33v-.03h-.33v.03Zm.01 1.86V8.8h-.03v1.87h.03Zm.32-.01h-.33v.03h.33v-.03Zm-.01-1.86v1.87h.03V8.8h-.03Zm2.36.01h.6v-.03h-.6v.03Zm.01 1.86V8.8h-.03v1.87h.03Zm.59-.01h-.6v.03h.6v-.03Zm-.02-1.86v1.87h.03V8.8h-.03Z" fill="#000"/><path d="M12.64 8.79h.34v1.87h-.34V8.8Z" fill="#fff" stroke="#000" stroke-width=".03"/></svg>