<svg viewBox="0 0 20 15" fill="none" xmlns="http://www.w3.org/2000/svg"><path d="M0 0v15h20V0H0Z" fill="#e31d1c"/><path d="m9.58 10.74.28-.62.29.62.17-.67.4.56.04-.68.49.48-.08-.67.57.38-.2-.65.63.28-.31-.6.67.16-.42-.55.69.05-.5-.47.68-.07-.59-.37.66-.2-.64-.25.62-.31-.68-.14.55-.42-.69-.01.46-.5-.68.1.37-.58-.65.22.25-.63-.6.33.14-.67-.53.44.01-.68-.44.52-.1-.67-.35.59-.23-.64-.23.64-.34-.6-.1.68-.45-.52.02.68-.53-.44.13.67-.6-.33.26.63-.65-.22.36.58-.68-.1.47.5-.7.01.55.42-.67.14.61.3-.64.26.66.2-.58.37.68.07-.5.47.68-.05-.41.55.67-.17-.31.61.62-.28-.2.65.57-.38-.07.67.49-.48.04.68.4-.56.17.67Z" fill="#ffc84a"/><path d="m-.5 8.7 1.64-.66c.24-.1.5-.1.74 0l2.27.94c.26.11.55.1.8-.02l1.83-.88a.98.98 0 0 1 .83 0l1.92.88c.26.12.55.12.81 0l1.96-.89a.98.98 0 0 1 .82 0l1.94.9c.25.12.54.12.8 0l2.11-.93c.23-.1.5-.1.73-.02l1.9.68v6.26H-.55L-.5 8.7Z" fill="#f7fcff"/><path d="m-.5 10.15 1.64-.66c.24-.1.5-.1.74 0l2.27.95c.26.1.55.1.8-.02l1.83-.88a.98.98 0 0 1 .83 0l1.92.88c.26.12.55.12.81 0l1.96-.9a.98.98 0 0 1 .82 0l1.94.9c.25.12.54.12.8 0l2.11-.92c.23-.1.5-.11.73-.03l1.9.68M-.5 12.23l1.64-.66c.24-.1.5-.1.74 0l2.27.95c.26.1.55.1.8-.02l1.83-.88a.98.98 0 0 1 .83 0l1.92.88c.26.12.55.12.81 0l1.96-.9a.98.98 0 0 1 .82 0l1.94.9c.25.12.54.12.8 0l2.11-.92c.23-.1.5-.11.73-.03l1.9.68" stroke="#015989" stroke-width="1.25"/><path d="m-.5 13.9.69-.28c.85-.35 1.8-.34 2.64 0l1.32.56c.26.1.55.1.8-.02l.77-.37a3.48 3.48 0 0 1 2.96-.03l.85.4c.26.12.55.12.81 0l.92-.42a3.48 3.48 0 0 1 2.9 0l.9.42c.25.12.54.12.8 0l1.2-.52c.82-.36 1.74-.4 2.58-.1l.96.35v2.07H-.38l-.11-2.07Z" fill="#015989"/><path d="M6.11 2.14h1.17c.29 0 .95-.45 1.33-.3.38.15 1.03.63 1.03.63s1.06-.84 1.7-.84c.63 0 1.77-.1 1.77-.1s-.27.7-1.02.82c-.76.12-1.66.7-1.66.7h1.23c.18 0 .43.28.43.28s-.5.34-.76.34h-.53s-.53.46-1.19.36c-.66-.1-1.19-.7-1.19-.7s-.58-.08-.58-.18c0 0-.35-.19-.46 0-.1.18.46-.25.46-.25s.23-.21.4-.21c.18 0 .76.36.76.36l.14-.15-.72-.55c-1.47.16-2.3-.21-2.3-.21Z" fill="#ffc84a"/></svg>