<svg xmlns="http://www.w3.org/2000/svg" width="20" height="15" fill="transparent" viewBox="0 0 20 15"><g clip-path="url(#a)"><mask id="b" width="20" height="15" x="0" y="0" maskUnits="userSpaceOnUse" style="mask-type:luminance"><path fill="#fff" d="M0 0h20v15H0z"/></mask><g mask="url(#b)"><path fill="#E31D1C" fill-rule="evenodd" d="M0 0v15h20V0H0Z" clip-rule="evenodd"/><mask id="c" width="20" height="15" x="0" y="0" maskUnits="userSpaceOnUse" style="mask-type:luminance"><path fill="#fff" fill-rule="evenodd" d="M0 0v15h20V0H0Z" clip-rule="evenodd"/></mask><g mask="url(#c)"><path fill="#FFC84A" fill-rule="evenodd" d="m9.577 10.736.286-.62.287.62.17-.662.393.56.048-.68.487.48-.075-.677.567.387-.196-.654.627.28-.311-.609.667.165-.415-.543.687.044-.507-.462.683-.078-.581-.365.658-.198-.637-.255.612-.312-.674-.138.546-.415-.687-.017.462-.505-.68.105.365-.579-.65.224.255-.634-.6.335.137-.669-.53.436.014-.682-.442.523-.11-.674-.34.593-.23-.644-.229.644-.34-.593-.11.674-.442-.523.013.682-.529-.436.136.67-.599-.336.255.634-.65-.224.364.579-.68-.105.463.505-.687.017.546.415-.674.138.612.312-.637.255.658.198-.582.365.684.078-.507.462.687-.044-.416.543.668-.165-.31.61.626-.281-.196.654.567-.387-.076.678.488-.481.048.68.393-.56.17.662Z" clip-rule="evenodd"/><path fill="#F7FCFF" fill-rule="evenodd" d="m-.495 8.7 1.634-.663a.976.976 0 0 1 .743.003l2.269.944c.257.107.547.1.797-.02l1.83-.88a.976.976 0 0 1 .833-.005l1.917.885c.258.12.556.12.814.002l1.962-.894a.976.976 0 0 1 .815.002l1.936.894c.255.117.547.12.803.007l2.116-.932a.98.98 0 0 1 .724-.025l1.898.682v6.259H-.551L-.495 8.7Z" clip-rule="evenodd"/><mask id="d" width="22" height="8" x="-1" y="7" maskUnits="userSpaceOnUse" style="mask-type:luminance"><path fill="#fff" fill-rule="evenodd" d="m-.495 8.7 1.634-.663a.976.976 0 0 1 .743.003l2.269.944c.257.107.547.1.797-.02l1.83-.88a.976.976 0 0 1 .833-.005l1.917.885c.258.12.556.12.814.002l1.962-.894a.976.976 0 0 1 .815.002l1.936.894c.255.117.547.12.803.007l2.116-.932a.98.98 0 0 1 .724-.025l1.898.682v6.259H-.551L-.495 8.7Z" clip-rule="evenodd"/></mask><g mask="url(#d)"><path stroke="#015989" stroke-width="1.25" d="M-.495 10.153 1.14 9.49a.976.976 0 0 1 .743.003l2.269.945a.978.978 0 0 0 .798-.021l1.83-.879a.976.976 0 0 1 .832-.006l1.917.886c.258.12.556.12.815.002l1.961-.895a.976.976 0 0 1 .815.002l1.937.894c.254.118.546.12.802.007l2.116-.932a.98.98 0 0 1 .724-.025l1.898.682M-.495 12.234l1.634-.663a.977.977 0 0 1 .743.003l2.269.944c.257.107.547.1.798-.02l1.83-.88a.976.976 0 0 1 .832-.005l1.917.885c.258.12.556.12.815.002l1.961-.894a.977.977 0 0 1 .815.002l1.937.894c.254.117.546.12.802.007l2.116-.932a.98.98 0 0 1 .724-.025l1.898.682"/><path fill="#015989" fill-rule="evenodd" d="m-.495 13.892.682-.277a3.477 3.477 0 0 1 2.643.012l1.32.55a.984.984 0 0 0 .799-.022l.769-.369a3.476 3.476 0 0 1 2.962-.022l.848.392c.258.12.556.12.815.002l.918-.418a3.476 3.476 0 0 1 2.9.006l.895.414c.254.117.546.12.802.007l1.203-.53a3.476 3.476 0 0 1 2.577-.09l.958.345v2.072H-.38l-.115-2.072Z" clip-rule="evenodd"/></g><path fill="#FFC84A" fill-rule="evenodd" d="M6.113 2.136h1.162c.293 0 .954-.447 1.336-.298.382.15 1.026.631 1.026.631s1.062-.838 1.695-.838c.634 0 1.777-.094 1.777-.094s-.268.696-1.023.814c-.754.118-1.656.695-1.656.695h1.226c.187 0 .43.282.43.282s-.502.342-.754.342h-.528s-.534.458-1.193.36c-.66-.097-1.189-.702-1.189-.702s-.577-.082-.577-.182c0 0-.356-.182-.463 0-.107.182.463-.244.463-.244s.228-.214.403-.214c.174 0 .756.358.756.358l.14-.144-.722-.55c-1.47.153-2.31-.216-2.31-.216Z" clip-rule="evenodd"/></g></g></g><defs><clipPath id="a"><rect width="20" height="15" fill="#fff" rx="2"/></clipPath></defs></svg>