<svg xmlns="http://www.w3.org/2000/svg" width="20" height="15" fill="transparent" viewBox="0 0 20 15"><g clip-path="url(#a)"><mask id="b" width="20" height="15" x="0" y="0" maskUnits="userSpaceOnUse" style="mask-type:luminance"><path fill="#fff" d="M0 0h20v15H0z"/></mask><g mask="url(#b)"><path fill="#5196ED" fill-rule="evenodd" d="M0 0v15h20V0H0Z" clip-rule="evenodd"/><mask id="c" width="20" height="15" x="0" y="0" maskUnits="userSpaceOnUse" style="mask-type:luminance"><path fill="#fff" fill-rule="evenodd" d="M0 0v15h20V0H0Z" clip-rule="evenodd"/></mask><g fill-rule="evenodd" clip-rule="evenodd" mask="url(#c)"><path fill="#AF0100" d="M0 7.5v3.75h20V7.5H0Z"/><path fill="#F7FCFF" d="M0 3.75V7.5h20V3.75H0Z"/><path fill="#FECA00" d="M0 0v3.75h20V0H0Z"/><path fill="#5EAA22" d="m0 0 12.5 7.5L0 15V0Z"/><path fill="#F7FCFF" d="M4.94 10.682S2.7 9.904 2.78 7.468c.08-2.437 2.36-2.914 2.36-2.914-.799-.588-3.657.1-3.748 2.914-.092 2.813 2.697 3.438 3.548 3.214Zm.068-4.258.07-.417-.297-.295.41-.06.184-.38.184.38.41.06-.297.295.07.417-.367-.197-.367.197Zm.07.856-.07.417.367-.197.367.197-.07-.417.297-.295-.41-.06-.184-.38-.184.38-.41.06.297.295Zm-.07 1.69.07-.417-.297-.295.41-.06.184-.38.184.38.41.06-.297.295.07.416-.367-.196-.367.196Zm0 1.272.07-.416-.297-.295.41-.061.184-.38.184.38.41.06-.297.296.07.416-.367-.197-.367.197Z"/></g></g></g><defs><clipPath id="a"><rect width="20" height="15" fill="#fff" rx="2"/></clipPath></defs></svg>