<svg viewBox="0 0 20 15" fill="none" xmlns="http://www.w3.org/2000/svg"><path d="M0 0v15h20V0H0Z" fill="#5196ed"/><path d="M0 7.5v3.75h20V7.5H0Z" fill="#af0100"/><path d="M0 3.75V7.5h20V3.75H0Z" fill="#f7fcff"/><path d="M0 0v3.75h20V0H0Z" fill="#feca00"/><path d="m0 0 12.5 7.5L0 15V0Z" fill="#5eaa22"/><path d="M4.94 10.68S2.7 9.9 2.78 7.47c.08-2.44 2.36-2.92 2.36-2.92-.8-.58-3.66.1-3.75 2.92-.09 2.81 2.7 3.44 3.55 3.21Zm.07-4.26.07-.41-.3-.3.41-.06.19-.38.18.38.4.06-.29.3.07.41-.36-.2-.37.2Zm.07.86L5 7.7l.37-.2.36.2-.07-.42.3-.3-.41-.06-.18-.37-.19.37-.4.07.29.29ZM5 8.97l.07-.42-.3-.3.41-.05.19-.38.18.38.4.06-.29.3.07.4-.36-.19-.37.2Zm0 1.27.07-.41-.3-.3.41-.06.19-.38.18.38.4.06-.29.3.07.41-.36-.2-.37.2Z" fill="#f7fcff"/></svg>