<svg xmlns="http://www.w3.org/2000/svg" width="20" height="15" fill="transparent" viewBox="0 0 20 15"><g clip-path="url(#a)"><mask id="b" width="20" height="15" x="0" y="0" maskUnits="userSpaceOnUse" style="mask-type:luminance"><path fill="#fff" d="M0 0h20v15H0z"/></mask><g mask="url(#b)"><path fill="#C51918" fill-rule="evenodd" d="M0 0v15h20V0H0Z" clip-rule="evenodd"/><path fill="#5EAA22" fill-rule="evenodd" d="M0 0v15L20 0H0Z" clip-rule="evenodd"/><path fill="#272727" stroke="#FFD018" stroke-width="1.563" d="m.397 17.47.452.504.564-.376L24.076 2.471l.75-.5-.602-.671-3.326-3.71-.452-.504-.563.376L-2.78 12.589l-.75.5.602.671 3.325 3.71Z"/><path fill="#F7FCFF" fill-rule="evenodd" d="m7.555 10.574-.68 1.184-.435-1.334-1.351-.43 1.126-.687-.136-1.396 1.112.855 1.15-.638-.322 1.421.924 1.063-1.388-.038Zm6.25-4.096-.68 1.184-.435-1.334-1.351-.43 1.126-.687-.136-1.395 1.112.854 1.15-.638-.322 1.421.924 1.063-1.388-.038Z" clip-rule="evenodd"/></g></g><defs><clipPath id="a"><rect width="20" height="15" fill="#fff" rx="2"/></clipPath></defs></svg>