<svg xmlns="http://www.w3.org/2000/svg" width="20" height="15" fill="transparent" viewBox="0 0 20 15"><g clip-path="url(#a)"><mask id="b" width="20" height="15" x="0" y="0" maskUnits="userSpaceOnUse" style="mask-type:luminance"><path fill="#fff" d="M0 0h20v15H0z"/></mask><g mask="url(#b)"><path fill="#3D58DB" fill-rule="evenodd" d="M0 0v15h20V0H0Z" clip-rule="evenodd"/><mask id="c" width="20" height="15" x="0" y="0" maskUnits="userSpaceOnUse" style="mask-type:luminance"><path fill="#fff" fill-rule="evenodd" d="M0 0v15h20V0H0Z" clip-rule="evenodd"/></mask><g mask="url(#c)"><path fill="#C51918" stroke="#F7FCFF" stroke-width="1.25" d="M0 3.125h-.625v8.75h21.25v-8.75H0Z"/><path fill="#F7FCFF" fill-rule="evenodd" d="M6.25 10.625a3.125 3.125 0 1 0 0-6.25 3.125 3.125 0 0 0 0 6.25Z" clip-rule="evenodd"/><path fill="#C51918" fill-rule="evenodd" d="M6.247 8.669 4.549 9.85l.6-1.98L3.5 6.62l2.068-.041.679-1.954.679 1.954 2.068.042-1.648 1.25.599 1.979-1.698-1.181Z" clip-rule="evenodd"/></g></g></g><defs><clipPath id="a"><rect width="20" height="15" fill="#fff" rx="2"/></clipPath></defs></svg>