<svg width="100%" height="100%" viewBox="0 0 20 15" fill="none" xmlns="http://www.w3.org/2000/svg"><path d="M0 0v15h20V0H0Z" fill="#f7fcff"></path><path d="M9.00001 10.3872C11.0017 10.3872 12.6244 8.6639 12.6244 6.53811C12.6244 4.41232 11.0017 2.68903 9.00001 2.68903C6.99831 2.68903 5.37561 4.41232 5.37561 6.53811C5.37561 8.6639 6.99831 10.3872 9.00001 10.3872Z" fill="#3d58db"></path><mask id="mask0_1:16347" maskUnits="userSpaceOnUse" x="5" y="2" width="8" height="9"><path d="M9.00001 10.3872C11.0017 10.3872 12.6244 8.6639 12.6244 6.53811C12.6244 4.41232 11.0017 2.68903 9.00001 2.68903C6.99831 2.68903 5.37561 4.41232 5.37561 6.53811C5.37561 8.6639 6.99831 10.3872 9.00001 10.3872Z" fill="white"></path></mask><g mask="url(#mask0_1:16347)"><path d="M12.7512 6.83294C12.7512 6.83294 12.5478 5.01797 11.0411 4.91944C9.53443 4.82092 9.12818 6.25043 9.04123 6.62917C8.95429 7.0079 8.73424 8.01821 7.14789 8.01821C5.56155 8.01821 5.41846 5.44919 5.41846 5.44919V2.41992H12.7512V6.83294Z" fill="#e31d1c"></path></g><path d="M3.56215 0.282593L4.134 0.799797L1.48384 3.89474L0.911987 3.37753L3.56215 0.282593ZM4.50527 1.11957L5.07712 1.63677L2.52195 4.68687L1.9501 4.16967L4.50527 1.11957ZM6.01592 2.48406L5.44407 1.96685L2.8818 5.0401L3.45365 5.55731L6.01592 2.48406Z" fill="#272727"></path><path d="M14.8524 0.0657349L14.2804 0.581003L15.2726 1.74527L15.8445 1.23001L14.8524 0.0657349ZM16.6159 2.20738L16.0439 2.72265L17.0361 3.88692L17.608 3.37166L16.6159 2.20738ZM12.3925 2.258L12.9645 1.74273L13.9567 2.907L13.3847 3.42227L12.3925 2.258ZM14.728 3.88438L14.1561 4.39964L15.1482 5.56392L15.7202 5.04865L14.728 3.88438ZM13.3723 1.39449L13.9443 0.879223L16.7059 4.24226L16.1339 4.75753L13.3723 1.39449Z" fill="#272727"></path><path d="M15.2844 7.90192L14.7076 7.38464L13.7071 8.55346L14.2839 9.07074L15.2844 7.90192ZM13.6023 9.95881L13.0255 9.44153L12.025 10.6103L12.6018 11.1276L13.6023 9.95881ZM16.5291 9.0205L17.1059 9.53778L16.1054 10.7066L15.5286 10.1893L16.5291 9.0205ZM15.5061 11.6423L14.9293 11.1251L13.9288 12.2939L14.5056 12.8112L15.5061 11.6423ZM13.9791 10.2363L14.5559 10.7535L13.5116 12.0016L12.9348 11.4843L13.9791 10.2363ZM16.2693 8.67387L15.6925 8.15659L14.6482 9.40468L15.225 9.92196L16.2693 8.67387Z" fill="#272727"></path><path d="M3.00415 8.30618L3.57616 7.79034L6.12903 10.7156L5.55702 11.2314L3.00415 8.30618ZM3.59965 10.8647L4.17165 10.3489L5.24997 11.5336L4.67797 12.0494L3.59965 10.8647ZM1.69344 9.43175L1.12144 9.94759L3.68756 12.9122L4.25957 12.3964L1.69344 9.43175ZM2.10043 9.09513L2.67243 8.57929L3.60723 9.67546L3.03522 10.1913L2.10043 9.09513Z" fill="#272727"></path></svg>
