<svg xmlns="http://www.w3.org/2000/svg" width="20" height="15" fill="transparent" viewBox="0 0 20 15"><g clip-path="url(#a)"><mask id="b" width="20" height="15" x="0" y="0" maskUnits="userSpaceOnUse" style="mask-type:luminance"><path fill="#fff" d="M0 0h20v15H0z"/></mask><g mask="url(#b)"><path fill="#F7FCFF" fill-rule="evenodd" d="M0 0v15h20V0H0Z" clip-rule="evenodd"/><mask id="c" width="20" height="15" x="0" y="0" maskUnits="userSpaceOnUse" style="mask-type:luminance"><path fill="#fff" fill-rule="evenodd" d="M0 0v15h20V0H0Z" clip-rule="evenodd"/></mask><g mask="url(#c)"><path fill="#3D58DB" fill-rule="evenodd" d="M10 11.387c2.002 0 3.624-1.723 3.624-3.849 0-2.126-1.622-3.849-3.624-3.849S6.375 5.412 6.375 7.54c0 2.125 1.623 3.848 3.625 3.848Z" clip-rule="evenodd"/><mask id="d" width="8" height="9" x="6" y="3" maskUnits="userSpaceOnUse" style="mask-type:luminance"><path fill="#fff" fill-rule="evenodd" d="M10 11.387c2.002 0 3.624-1.723 3.624-3.849 0-2.126-1.622-3.849-3.624-3.849S6.375 5.412 6.375 7.54c0 2.125 1.623 3.848 3.625 3.848Z" clip-rule="evenodd"/></mask><g mask="url(#d)"><path fill="#E31D1C" fill-rule="evenodd" d="M13.751 7.833s-.203-1.815-1.71-1.913c-1.507-.099-1.913 1.33-2 1.71-.087.378-.307 1.388-1.893 1.388S6.418 6.45 6.418 6.45V3.42h7.333v4.413Z" clip-rule="evenodd"/></g><path fill="#272727" fill-rule="evenodd" d="m4.562 1.283.572.517-2.65 3.095-.572-.517 2.65-3.095Zm.943.837.572.517-2.555 3.05-.572-.517 2.555-3.05Zm1.51 1.364-.571-.517L3.882 6.04l.572.517 2.562-3.073Zm8.837-2.418-.572.515.992 1.164.572-.515-.992-1.164Zm1.764 2.141-.572.516.992 1.164.572-.515-.992-1.165Zm-4.224.051.572-.515.992 1.164-.571.515-.993-1.164Zm2.336 1.626-.572.516.992 1.164.572-.515-.992-1.165Zm-1.356-2.49.572-.515 2.762 3.363-.572.516-2.762-3.363Zm1.912 6.508-.576-.517-1.001 1.169.577.517 1-1.169Zm-1.682 2.057-.577-.517-1 1.168.577.518 1-1.17Zm2.927-.938.577.517-1 1.169-.578-.518 1.001-1.168Zm-1.023 2.621-.577-.517-1 1.169.576.517 1.001-1.168Zm-1.527-1.406.577.518-1.045 1.248-.576-.518 1.044-1.248Zm2.29-1.562-.577-.517-1.044 1.248.577.517 1.044-1.248ZM4.004 9.306l.572-.516 2.553 2.926-.572.515-2.553-2.925Zm.596 2.559.572-.516 1.078 1.184-.572.516L4.6 11.865Zm-1.907-1.433-.572.515 2.566 2.965.572-.516-2.566-2.964Zm.407-.337.572-.516.935 1.096-.572.516-.935-1.096Z" clip-rule="evenodd"/></g></g></g><defs><clipPath id="a"><rect width="20" height="15" fill="#fff" rx="2"/></clipPath></defs></svg>