<svg xmlns="http://www.w3.org/2000/svg" width="20" height="15" fill="transparent" viewBox="0 0 20 15"><g clip-path="url(#a)"><mask id="b" width="20" height="15" x="0" y="0" maskUnits="userSpaceOnUse" style="mask-type:luminance"><path fill="#fff" d="M0 0h20v15H0z"/></mask><g mask="url(#b)"><path fill="#2E42A5" fill-rule="evenodd" d="M0 0h20v15H0V0Z" clip-rule="evenodd"/></g><path fill="#2E42A5" d="M0 0h11v9H0z"/><mask id="c" width="11" height="9" x="0" y="0" maskUnits="userSpaceOnUse" style="mask-type:luminance"><path fill="#fff" d="M0 0h11v9H0z"/></mask><g mask="url(#c)"><path fill="#F7FCFF" d="M-1.253 8.125 1.223 9.21l10.083-8.03 1.306-1.614-2.647-.363-4.113 3.46-3.31 2.332-3.795 3.129Z"/><path fill="#F50100" d="m-.914 8.886 1.261.63L12.143-.583h-1.77L-.915 8.886Z"/><path fill="#F7FCFF" d="M12.503 8.125 10.306 9.52-.056 1.18-1.362-.434l2.647-.363 4.113 3.46 3.31 2.332 3.795 3.129Z"/><path fill="#F50100" d="m12.418 8.67-1.261.63-5.023-4.323-1.489-.483-6.133-4.922H.283l6.13 4.805 1.628.58 4.377 3.714Z"/><mask id="d" width="13" height="11" x="-1" y="-1" fill="#000" maskUnits="userSpaceOnUse"><path fill="#fff" d="M-1-1h13v11H-1z"/><path fill-rule="evenodd" d="M6 0H5v4H0v1h5v4h1V5h5V4H6V0Z" clip-rule="evenodd"/></mask><path fill="#F50100" fill-rule="evenodd" d="M6 0H5v4H0v1h5v4h1V5h5V4H6V0Z" clip-rule="evenodd"/><path fill="#F7FCFF" d="M5 0v-.938h-.938V0H5Zm1 0h.938v-.938H6V0ZM5 4v.938h.938V4H5ZM0 4v-.938h-.938V4H0Zm0 1h-.938v.938H0V5Zm5 0h.938v-.938H5V5Zm0 4h-.938v.938H5V9Zm1 0v.938h.938V9H6Zm0-4v-.938h-.938V5H6Zm5 0v.938h.938V5H11Zm0-1h.938v-.938H11V4ZM6 4h-.938v.938H6V4ZM5 .937h1V-.938H5V.938ZM5.938 4V0H4.063v4h1.875ZM0 4.938h5V3.063H0v1.874ZM.938 5V4H-.938v1H.938ZM5 4.062H0v1.875h5V4.063ZM5.938 9V5H4.063v4h1.875ZM6 8.062H5v1.876h1V8.062ZM5.062 5v4h1.875V5H5.063ZM11 4.062H6v1.875h5V4.063ZM10.062 4v1h1.876V4h-1.876ZM6 4.938h5V3.063H6v1.874ZM5.062 0v4h1.875V0H5.063Z" mask="url(#d)"/></g><g clip-path="url(#e)"><path fill="#fff" d="M13.481 9.272V6.996h4.641v2.276c0 1.465-.543 2.434-1.096 3.037a3.777 3.777 0 0 1-.77.647 2.564 2.564 0 0 1-.346.181.345.345 0 0 1-.023.008h-.002a1.242 1.242 0 0 1-.109-.042 2.89 2.89 0 0 1-.284-.148 4.044 4.044 0 0 1-.83-.647c-.595-.604-1.18-1.572-1.18-3.036Z"/><path stroke="#0B50A0" stroke-width=".1" d="M13.481 9.272V6.996h4.641v2.276c0 1.465-.543 2.434-1.096 3.037a3.777 3.777 0 0 1-.77.647 2.564 2.564 0 0 1-.346.181.345.345 0 0 1-.023.008h-.002a1.242 1.242 0 0 1-.109-.042 2.89 2.89 0 0 1-.284-.148 4.044 4.044 0 0 1-.83-.647c-.595-.604-1.18-1.572-1.18-3.036Z"/><path stroke="#F7FCFF" stroke-width=".1" d="M13.481 9.272V6.996h4.641v2.276c0 1.465-.543 2.434-1.096 3.037a3.777 3.777 0 0 1-.77.647 2.564 2.564 0 0 1-.346.181.345.345 0 0 1-.023.008h-.002a1.242 1.242 0 0 1-.109-.042 2.89 2.89 0 0 1-.284-.148 4.044 4.044 0 0 1-.83-.647c-.595-.604-1.18-1.572-1.18-3.036Z"/><mask id="f" width="6" height="8" x="13" y="6" maskUnits="userSpaceOnUse" style="mask-type:luminance"><path fill="#fff" d="M13.481 9.272V6.996h4.641v2.276c0 1.465-.543 2.434-1.096 3.037a3.777 3.777 0 0 1-.77.647 2.564 2.564 0 0 1-.346.181.345.345 0 0 1-.023.008h-.002a1.242 1.242 0 0 1-.109-.042 2.89 2.89 0 0 1-.284-.148 4.044 4.044 0 0 1-.83-.647c-.595-.604-1.18-1.572-1.18-3.036Z"/><path stroke="#fff" stroke-width=".1" d="M13.481 9.272V6.996h4.641v2.276c0 1.465-.543 2.434-1.096 3.037a3.777 3.777 0 0 1-.77.647 2.564 2.564 0 0 1-.346.181.345.345 0 0 1-.023.008h-.002a1.242 1.242 0 0 1-.109-.042 2.89 2.89 0 0 1-.284-.148 4.044 4.044 0 0 1-.83-.647c-.595-.604-1.18-1.572-1.18-3.036Z"/></mask><g mask="url(#f)"><path fill="#F50100" d="M13.127 6.633h5.4v2.125h-5.4z"/><path fill="#F50100" d="M15.534 9.196c.172 0 .518-.196.604-.242.317-.195.548-.015.735.076.201.09.576.196.806 0 .23-.196.36-.181.519-.181.028-.226.028-.452.028-.708V7.96c-.201-.045-.302.015-.518.21-.216.197-.46.151-.778.03-.302-.135-.604-.376-.907 0-.086.106-.288.257-.49.257-.215 0-.403-.15-.489-.256-.317-.377-.605-.136-.907 0-.317.12-.576.166-.792-.03-.202-.196-.303-.256-.519-.211v.18c0 .257.015.483.044.709.158 0 .273-.015.504.18.23.197.619.091.806 0 .202-.09.432-.27.749-.075.086.046.417.242.605.242Z"/><path fill="#FFD100" fill-rule="evenodd" d="M14.077 7.601s.13.006.284.172c.154.166.721.06.721-.04s-.344-.16-.212-.33c.133-.171.357-.171.537-.082.051 0 .046.584.163.552.373-.101.975-.303 1.152-.216.232.113.41.085.35-.078-.058-.163-.21-.265-.502-.176-.292.089-.224.176-.476.176-.253 0-.686.142-.493-.176.172-.285.378-.291.456-.171.04.061-.287.197-.287.26 0 .087.844-.171.952-.171.108 0 .406-.007.435.082.03.089.21.17.072.254-.137.083-.363.135-.207.241.155.106.55.155.566.265.018.11.187.276.119.276s-.19.156-.305.109c-.115-.048-.128-.09-.018-.128.11-.038.108-.2.018-.2s-.083-.012-.29-.069c-.205-.057-.478-.12-.461 0 .016.12.155.376-.092.4-.248.025-.363.123-.412.044-.048-.079-.22-.184-.084-.218.135-.034.264.115.313.09.049-.024.154-.11.061-.213-.092-.103-.272-.106-.13-.183.141-.077.057-.136-.213.023-.27.16-.42.295-.656.276-.237-.019-.343.069-.42.043-.075-.026-.446.286-.552.207-.107-.08-.452-.11-.39-.207.063-.097.146-.147.238-.097.093.05.185.1.248.05.062-.05.26-.284.215-.318-.045-.034-.205-.093-.463-.093-.257 0-.263-.178-.324-.26-.06-.08.087-.094.087-.094Z" clip-rule="evenodd"/><path fill="#0B50A0" d="M15.534 10.696c.172 0 .518-.196.604-.242.317-.196.548-.015.735.076.201.09.576.196.806 0 .23-.196.36-.181.519-.181.028-.226.028-.452.028-.708V9.46c-.201-.045-.302.015-.518.21-.216.197-.46.151-.778.03-.302-.135-.604-.376-.907 0-.086.106-.288.257-.49.257-.215 0-.403-.15-.489-.256-.317-.377-.605-.136-.907 0-.317.12-.576.166-.792-.03-.202-.196-.303-.256-.519-.211v.18c0 .257.015.483.044.709.158 0 .273-.015.504.18.23.197.619.091.806 0 .202-.09.432-.27.749-.075.086.046.417.242.605.242Zm0 1.437c.172 0 .518-.196.604-.241.317-.196.548-.015.735.075.201.09.576.196.806 0 .23-.196.36-.18.519-.18.028-.227.028-.453.028-.709v-.18c-.201-.046-.302.014-.518.21-.216.196-.46.151-.778.03-.302-.135-.604-.376-.907 0-.086.106-.288.257-.49.257-.215 0-.403-.151-.489-.257-.317-.376-.605-.135-.907 0-.317.121-.576.166-.792-.03-.202-.196-.303-.256-.519-.21v.18c0 .256.015.482.044.708.158 0 .273-.015.504.181.23.196.619.09.806 0 .202-.09.432-.271.749-.075.086.045.417.241.605.241Zm0 1.437c.172 0 .518-.195.604-.24.317-.197.548-.016.735.075.201.09.576.196.806 0 .23-.196.36-.181.519-.181.028-.226.028-.452.028-.708v-.181c-.201-.045-.302.015-.518.21-.216.197-.46.152-.778.03-.302-.135-.604-.376-.907 0-.086.106-.288.257-.49.257-.215 0-.403-.15-.489-.256-.317-.377-.605-.136-.907 0-.317.12-.576.166-.792-.03-.202-.196-.303-.256-.519-.211v.18c0 .257.015.483.044.709.158 0 .273-.015.504.18.23.197.619.091.806 0 .202-.09.432-.27.749-.075.086.046.417.242.605.242Z"/><path fill="#059334" stroke="#FFD100" stroke-width=".1" d="m15.871 11.656-.024-.013-.024.014-.27.16.078-.333.007-.028-.022-.02-.262-.242h.372l.012-.033.113-.306.133.309.013.03h.313l-.231.244-.02.022.009.029.11.329-.307-.162Zm-1.2-1.25-.024-.013-.024.014-.27.16.078-.333.007-.028-.022-.02-.262-.242h.372l.012-.033.113-.306.133.309.013.03h.313l-.231.244-.02.022.009.029.11.329-.307-.162Zm2.4 0-.024-.013-.025.014-.27.16.08-.333.006-.028-.022-.02-.262-.242h.372l.012-.033.113-.306.133.309.013.03h.313l-.231.244-.02.022.009.029.11.329-.307-.162Z"/></g></g><path fill="#FFD100" d="M13.029 12.967c.055.123.45.284.91.077.311-.146.514-.354.706-.722.056-.092.083-.207-.045-.277-.102-.061-.267-.13-.34-.192-.037-.03-.074-.053-.101-.076.018.015.036.03.055.053.183.185-.01.454-.212.615-.147.115-.413.4-.799.13-.082-.061-.275.192-.174.392Zm5.585 0c-.064.123-.46.284-.91.077-.312-.146-.514-.354-.716-.722-.046-.092-.073-.207.055-.277.101-.061.267-.13.34-.192.037-.03.064-.053.101-.076-.018.015-.037.03-.055.053-.184.185.01.454.202.615.147.115.423.4.808.13.083-.061.267.192.175.392Z"/><path fill="#FFD100" d="M15.821 13.627c.735 0 1.865-.276 2.472-1.244.1-.161 0-.245-.12-.3a1.419 1.419 0 0 1-.367-.222c.147.123.12.207.018.346-.469.652-1.112.983-2.003.983-.89 0-1.534-.33-2.002-.983-.101-.139-.129-.223.009-.346a1.28 1.28 0 0 1-.368.223c-.119.054-.22.138-.119.3.606.967 1.745 1.243 2.48 1.243Z"/><path fill="#F50100" d="M14.122 12.33c-.019-.077-.138-.046-.175.046a1.182 1.182 0 0 1-.128-.17c-.11-.137-.129-.23.027-.36.074-.062.22-.13.322-.054.211.146.1.384-.046.538Zm3.39 0c.018-.077.147-.046.183.046.046-.054.092-.108.129-.17.11-.137.129-.23-.037-.36-.064-.062-.211-.13-.321-.054-.202.146-.101.384.046.538Z"/><path fill="#059334" d="M14.88 5.923c-.071-.102-.267-.148-.35-.057-.03.023-.072.023-.103.034-.051 0-.117.03-.097.143.056 0 .056.029.087.029.02-.012.074.197.177.186.114 0 .215.053.235.076.031.034.072.125.02.171a.247.247 0 0 0 0 .354c.135.114.475.285.857-.046.371-.32.949-.137.99-.023.051.114.072.183.082.24.01.046.29.114.33.148.052.034.124.023.104-.08-.042-.32-.217-.365-.238-.513.104.011.176.011.217-.034.03-.046.072-.126.113-.149.031-.022.031-.045-.01-.034-.052.012-.082.034-.175.023-.22-.026-.166-.892-.892-1.06-.448-.104-1.008.61-1.161.68a.084.084 0 0 1-.01.004.213.213 0 0 1-.175-.092Z"/></g><defs><clipPath id="a"><rect width="20" height="15" fill="#fff" rx="2"/></clipPath><clipPath id="e"><path fill="#fff" d="M13.427 6.946h5v7h-5z"/></clipPath></defs></svg>