<svg viewBox="0 0 20 15" fill="none" xmlns="http://www.w3.org/2000/svg"><path d="M0 0v15h20V0H0Z" fill="#4EC7EE"/><path d="M2.556 14.523c-.04.294.149.503.464.638.425.18.853.011 1.247-.425l-.51-.46c-.176.193-.302.268-.4.267.191-.137.436-.305.734-.506l.144-.207c.115-.493-.243-.76-.788-.76-.321 0-.578.063-.74.2-.268.224-.223.582.06.769a.757.757 0 0 0 .067.04c-.158.133-.254.27-.278.444Z" fill="#ffe402"/><path d="M2.853 14.06s.078-.173.04-.263" stroke="#ffe402" stroke-width=".688"/><path d="M5.356 14.523c.04.294-.149.503-.464.638-.425.18-.853.011-1.247-.425l.51-.46c.176.193.302.268.4.267a31.665 31.665 0 0 0-.734-.506l-.143-.207c-.115-.493.242-.76.787-.76.321 0 .578.063.74.2.268.224.223.582-.059.769a.755.755 0 0 1-.068.04c.158.133.254.27.278.444Z" fill="#ffe402"/><path d="m5.372 13.918-.626.283c-.088-.195-.115-.372-.041-.54l.63.273c.022-.05.021-.051.037-.016ZM2.556.477c-.04-.294.149-.503.464-.638.425-.18.853-.011 1.247.425l-.51.46c-.176-.193-.302-.268-.4-.267.191.137.436.306.734.506l.144.207c.115.493-.243.76-.788.76-.321 0-.578-.063-.74-.2-.268-.224-.223-.582.06-.769a.728.728 0 0 1 .067-.04C2.676.789 2.58.652 2.556.478Z" fill="#ffe402"/><path d="M5.356.477c.04-.294-.149-.503-.464-.638-.425-.18-.853-.011-1.247.425l.51.46c.176-.193.302-.268.4-.267-.191.137-.436.306-.734.506l-.143.207c-.115.493.242.76.787.76.321 0 .578-.063.74-.2.268-.224.223-.582-.059-.769a.726.726 0 0 0-.068-.04c.158-.133.254-.27.278-.444ZM3.184 12.54c-.395.01-.64.092-.64.472 0 .42.407.55.84.55.393 0 .835-.243.835-.68 0-.265-.337-.8-1.187-1.961-.03-.028-.046-.042-.059-.042a.547.547 0 0 1 .262-.062c.042 0 .096.02.15.048v.455h.9v-.344c0-.388-.575-.847-1.05-.847-.414 0-.747.198-.916.481-.166.28-.039.55.2.764.356.491.633.897.806 1.165h-.141Zm.042.316a.566.566 0 0 1-.036-.009c.009.01.041.048.041.165 0 .064-.003.109-.007.14a.33.33 0 0 1-.063-.418l.002-.003-.013-.026a.107.107 0 0 0 .005-.002c.02-.01.036-.02.008.028l.063.125Zm-.036-.009-.012-.003c.002 0 .003 0 .005.002l.007.001Zm.342.036c0-.012-.004-.019-.011-.023l.004.005c.004.009.007.015.007.018Z" fill="#ffe402"/><path d="M4.729 12.54c.394.01.64.092.64.472 0 .42-.408.55-.841.55-.393 0-.835-.243-.835-.68 0-.265.337-.8 1.187-1.961.03-.028.046-.042.059-.042a.547.547 0 0 0-.262-.062.374.374 0 0 0-.15.048v.455h-.899v-.344c0-.388.574-.847 1.049-.847.414 0 .747.198.916.481.167.28.04.55-.2.764-.356.491-.633.897-.806 1.165h.142Zm-.043.316a.566.566 0 0 0 .036-.009c-.008.01-.041.048-.041.165 0 .064.003.109.007.14a.33.33 0 0 0 .064-.418l-.003-.003.013-.026a.107.107 0 0 1-.005-.002c-.02-.01-.036-.02-.008.028l-.063.125Zm.036-.009.012-.003a.023.023 0 0 0-.005.002l-.007.001Zm-.342.036c0-.012.004-.019.011-.023l-.004.005a.061.061 0 0 0-.006.018Z" fill="#ffe402"/><path d="M3.184 8.347c-.395-.012-.64-.093-.64-.473 0-.42.407-.55.84-.55.393 0 .835.243.835.68 0 .265-.337.8-1.187 1.961-.03.028-.046.042-.059.042a.547.547 0 0 0 .262.062.374.374 0 0 0 .15-.048v-.455h.9v.344c0 .388-.575.847-1.05.847-.414 0-.747-.197-.916-.481-.166-.28-.039-.55.2-.764.356-.49.633-.897.806-1.164l-.141-.001Zm.042-.317a.58.58 0 0 0-.036.009c.009-.009.041-.048.041-.165 0-.064-.003-.109-.007-.14a.33.33 0 0 0-.063.418l.002.003-.013.026a.81.81 0 0 1 .005.003c.02.01.036.018.008-.029l.063-.125Zm-.036.009-.012.003a.021.021 0 0 0 .005-.002l.007-.001Zm.342-.036c0 .012-.004.02-.011.023l.004-.005a.061.061 0 0 0 .007-.018Z" fill="#ffe402"/><path d="M4.729 8.347c.394-.012.64-.093.64-.473 0-.42-.408-.55-.841-.55-.393 0-.835.243-.835.68 0 .265.337.8 1.187 1.961.03.028.046.042.059.042a.547.547 0 0 1-.262.062.374.374 0 0 1-.15-.048v-.455h-.899v.344c0 .388.574.847 1.049.847.414 0 .747-.197.916-.481.167-.28.04-.55-.2-.764a28.69 28.69 0 0 1-.806-1.164l.142-.001Zm-.043-.317a.58.58 0 0 1 .036.009c-.008-.009-.041-.048-.041-.165 0-.064.003-.109.007-.14a.33.33 0 0 1 .064.418l-.003.003.013.026a.81.81 0 0 0-.005.003c-.02.01-.036.018-.008-.029l-.063-.125Zm.036.009.012.003a.021.021 0 0 1-.005-.002l-.007-.001Zm-.342-.036c0 .012.004.02.011.023l-.004-.005a.061.061 0 0 1-.006-.018Z" fill="#ffe402"/><path d="M3.184 6.653c-.395.012-.64.093-.64.473 0 .42.407.55.84.55.393 0 .835-.243.835-.68 0-.265-.337-.8-1.187-1.961-.03-.028-.046-.042-.059-.042a.547.547 0 0 1 .262-.062c.042 0 .096.02.15.048v.455h.9V5.09c0-.388-.575-.847-1.05-.847-.414 0-.747.198-.916.481-.166.28-.039.55.2.764.356.491.633.897.806 1.165h-.141Zm.042.317a.58.58 0 0 1-.036-.009c.009.009.041.048.041.165 0 .064-.003.109-.007.14a.33.33 0 0 1-.063-.418l.002-.003-.013-.026a.81.81 0 0 0 .005-.002c.02-.01.036-.02.008.028l.063.125Zm-.036-.009-.012-.003c.002 0 .003 0 .005.002l.007.001Zm.342.036c0-.012-.004-.019-.011-.023l.004.005c.004.009.007.015.007.018Z" fill="#ffe402"/><path d="M4.729 6.653c.394.012.64.093.64.473 0 .42-.408.55-.841.55-.393 0-.835-.243-.835-.68 0-.265.337-.8 1.187-1.961.03-.028.046-.042.059-.042a.547.547 0 0 0-.262-.062.373.373 0 0 0-.15.048v.455h-.899V5.09c0-.388.574-.847 1.049-.847.414 0 .747.198.916.481.167.28.04.55-.2.764a28.69 28.69 0 0 0-.806 1.165h.142Zm-.043.317a.58.58 0 0 0 .036-.009c-.008.009-.041.048-.041.165 0 .064.003.109.007.14a.33.33 0 0 0 .064-.418l-.003-.003.013-.026a.81.81 0 0 1-.005-.002c-.02-.01-.036-.02-.008.028l-.063.125Zm.036-.009.012-.003a.021.021 0 0 0-.005.002l-.007.001Zm-.342.036c0-.012.004-.019.011-.023l-.004.005a.061.061 0 0 0-.006.018Z" fill="#ffe402"/><path d="M3.184 2.46c-.395-.01-.64-.092-.64-.472 0-.42.407-.55.84-.55.393 0 .835.243.835.68 0 .265-.337.8-1.187 1.961-.03.028-.046.042-.059.042a.547.547 0 0 0 .262.062.373.373 0 0 0 .15-.048V3.68h.9v.344c0 .388-.575.847-1.05.847-.414 0-.747-.198-.916-.481-.166-.28-.039-.55.2-.764.356-.491.633-.898.806-1.165h-.141Zm.042-.316a.581.581 0 0 0-.036.009c.009-.01.041-.048.041-.165 0-.064-.003-.109-.007-.14a.33.33 0 0 0-.063.418l.002.003-.013.026a.49.49 0 0 1 .005.002c.02.01.036.02.008-.028l.063-.125Zm-.036.009-.012.003a.022.022 0 0 0 .005-.002l.007-.001Zm.342-.036c0 .012-.004.019-.011.023l.004-.005a.061.061 0 0 0 .007-.018Z" fill="#ffe402"/><path d="M4.729 2.46c.394-.01.64-.092.64-.472 0-.42-.408-.55-.841-.55-.393 0-.835.243-.835.68 0 .265.337.8 1.187 1.961.03.028.046.042.059.042a.547.547 0 0 1-.262.062.373.373 0 0 1-.15-.048V3.68h-.899v.344c0 .388.574.847 1.049.847.414 0 .747-.198.916-.481.167-.28.04-.55-.2-.764a28.705 28.705 0 0 1-.806-1.165h.142Zm-.043-.316a.581.581 0 0 1 .036.009c-.008-.01-.041-.048-.041-.165 0-.064.003-.109.007-.14a.33.33 0 0 1 .064.418l-.003.003.013.026a.49.49 0 0 0-.005.002c-.02.01-.036.02-.008-.028l-.063-.125Zm.036.009.012.003a.022.022 0 0 1-.005-.002l-.007-.001Zm-.342-.036c0 .012.004.019.011.023l-.004-.005a.061.061 0 0 1-.006-.018ZM11.867 1.74l.256.955s.003.217-.242.217-.258-.217-.258-.217l.244-.954Zm2.164 3.648c0 1.242-.948 2.25-2.118 2.25S9.794 6.63 9.794 5.388c0-1.243.949-2.25 2.119-2.25 1.17 0 2.118 1.007 2.118 2.25Zm-1.168-2.5.035-.988-.512.842s-.052.21.182.283c.235.071.295-.137.295-.137Zm.975-.52-.322.934s-.119.182-.322.045-.092-.324-.092-.324l.736-.655Zm.185 1.534.581-.8-.895.412s-.161.146-.007.337c.154.19.321.051.321.051Zm1.109.147-.8.58s-.201.081-.29-.148c-.087-.228.111-.318.111-.318l.979-.114Zm-.702 1.377.935-.321-.97-.177s-.215.028-.198.272c.017.245.233.226.233.226Zm.858.759-.988.035s-.212-.046-.157-.285c.055-.239.27-.202.27-.202l.875.452Zm-1.334.753.954.256-.705-.688s-.194-.098-.316.114a.219.219 0 0 0 .067.318Zm.306 1.104-.838-.523s-.15-.157.029-.324c.18-.167.336-.017.336-.017l.473.864Zm-1.508-.133.648.746-.2-.965s-.105-.19-.326-.082c-.22.107-.122.3-.122.3Zm-.347 1.068-.402-.903s-.037-.214.205-.252a.238.238 0 0 1 .288.174l-.09.98Zm-1.156-.981.104.983.39-.905s.021-.216-.22-.255c-.243-.038-.274.177-.274.177Zm-.893.664.19-.97s.091-.197.312-.09c.22.108.136.309.136.309l-.637.751ZM9.96 7.178l-.464.873.829-.532s.139-.168-.04-.335c-.18-.167-.325-.006-.325-.006Zm-1.116.027.7-.7s.186-.11.308.102c.123.212-.059.331-.059.331l-.949.267Zm.49-1.472-.872.464.985.023s.208-.061.153-.3c-.055-.239-.265-.187-.265-.187Zm-.953-.616.97-.189s.217.012.2.257c-.017.244-.234.241-.234.241l-.936-.31Zm1.213-.954-.984-.103.805.57s.207.066.294-.163c.088-.229-.115-.304-.115-.304Zm-.459-1.05.903.401s.17.134.016.325c-.154.19-.33.063-.33.063l-.589-.79Zm1.51-.09-.746-.648.332.928s.131.172.334.035c.204-.137.08-.315.08-.315Zm.192-1.12.524.839s.066.206-.168.278c-.234.072-.31-.132-.31-.132l-.046-.984Z" fill="#ffe402"/><path fill-rule="evenodd" d="M7.638 6.67a3.127 3.127 0 0 1-.023-.096l.043.088-.02.008Zm.06.206a4.022 4.022 0 0 1-.06-.206l-.268.107.04.1h-.029l-.011.005a1.206 1.206 0 0 1-.024-.233v-.617l.269.542a1.827 1.827 0 0 1-.052-.398v-.77l.312.78-.296.093.116.37H7.69l-.032.013.11.222.107.34c-.1-.183-.15-.304-.15-.348h-.027Zm.342.867a8.263 8.263 0 0 1-.342-.867H7.41l.293.734-.109-.116a2.466 2.466 0 0 1-.224-.612L7.132 7l-.048-.05v.074l-.01.005.01.022v.084a.858.858 0 0 1-.047-.259V5.412l.309.62v-1.17l.217.545v-1.48l.87 2.777-.061.02c-.081-.241-.121-.425-.121-.548h-.344l-.032.01.247.62-.06.019a.665.665 0 0 1-.029-.176h-.338l.074.235.383.772-.015.007a7.667 7.667 0 0 1-.262-.44l.15.482.112-.042.015.024-.112.056Zm.12-.045-.12.045-.144.072-.193-.205.092.23a.331.331 0 0 1-.021-.019 5.236 5.236 0 0 1-.18-.327L7.132 7l-.048.024v.027l.382.768h-.038l-.003.002a3.444 3.444 0 0 1-.34-.686v.502l-1.366-.973 1.739 2.07a5.523 5.523 0 0 0 2.05 1.523l-1.575-.034 1.6.452-.827.61 1.43-.44.39.11c.525.148.817.296.836.342l.074.174.186.03c.409.069 1.163-.037 2.134-.252.33-.074.661-.155.917-.224a5.5 5.5 0 0 0 .24-.069l.017-.006.027-.01.01-.005c.009-.003.016-.007.042-.021.032-.005.055-.008.07-.02.043-.035.027-.142-.032-.544-.27-.073-.308-.083-.318-.07l-.004.007c-.093.02-.238.018-.43-.007 1.615-.795 2.677-1.591 3.185-2.41l.93-1.5-.563.412.203-.653-.803.516c.103-.137.183-.273.24-.41l.605-1.462-.955.89.518-1.706-1.229 1.646-5.03 3.702-.08-.018C10.079 9 9.21 8.125 8.692 6.62l-.258.084.003.01-.06.02-.004-.01-.25.081.004.01-.06.02-.004-.01-.025.008c.084.271.175.526.274.763l-.159.06.012.025-.012.006.007.011Zm.01-.004-.01.004.024.038-.247.124-.041-.045-.081.04a.63.63 0 0 1-.02-.015l.008.022.012-.006.054.038-.04.02a6.973 6.973 0 0 1-.055-.093l-.002-.002h-.306l.069.14-.045-.033a9.153 9.153 0 0 1-.065-.105l-.035.034-.306-.218v.182c0 .325.229.571.622.773l-.185.2 2.057 1.466-.07-.001c.067.029.136.057.205.085l.178.07-.357.263.602.17.48-.148 1.708.673-.55-.392c.067 0 .132-.002.195-.003a.683.683 0 0 0-.102-.14.993.993 0 0 1-.132-.011l-.019.113-.575-.41c.22-.076.434-.156.641-.239.853-.01 1.364-.055 1.44-.111l.131-.098.159.041c.153.04.293.072.422.098l.109.183c.085-.04.169-.08.251-.121a3.878 3.878 0 0 1-.063-.009l3.16-2.305-.264-.246c.334-.172.552-.398.643-.689l.077-.249-.34.248-.066-.101-.328-.102c-.03.097-.129.195-.304.285.175-.157.322-.312.438-.467l-.496.32.653-.61-.408-.282c.036-.08.065-.16.089-.238l.052-.171-.23.214-.342-.173.158-.32-.297.218-.703.942-.24-.2c-.642 1.303-1.798 2.338-3.48 3.101l-.608-.14-.174.127.018-.155c-1.146 0-1.991-.85-2.545-2.647l-.258.084.246.784-.246.094-.015-.039.246-.093a8.169 8.169 0 0 1-.292-.727l-.249.082.295.738-.021.008.016-.008c-.183-.298-.299-.54-.35-.719l-.025.008c.09.263.19.51.302.74l-.032.013.004.01-.15.075.006.013Zm.157-.06-.156.06.02.039-.007.003.023.036-.229.131-.04-.043-.069.034.06.037-.24.138-.154-.11.077.154.078-.044.036.025-.094.054c-.05-.077-.098-.151-.142-.222l-.1-.071-.213.199.441.47.25-.235.036-.068 1.12.798.414.442a4.792 4.792 0 0 1-1.454-1.17l-.278.301.007.004 1.753.895-.028-.03c.169.089.344.169.527.24l-.303.559-.084-.002.061.044.023-.042.423.009-.194.143.725.285.025-.007c.17-.053.337-.107.5-.163l-.125-.089.202-.15c.202.002.39.002.564 0 .254-.102.499-.21.734-.322h1.267l.15.252.085.017.08.133.133-.097a4.925 4.925 0 0 1-.213-.036l-.16-.27h.386l-.448-.103-.048-.082c1.33-.632 2.27-1.252 2.82-1.848.212-.059.398-.13.559-.212l-.115-.106.615-.396-.12-.188-1.038.757-.13-.302c.175-.126.332-.25.47-.373a2.17 2.17 0 0 1-.368.141l.31-.289-.94.605c.585-.541.982-1.037 1.185-1.496l-.041-.03.077-.102-.125-.063-.791.738.449-.91-.138-.07c-.084.277-.293.603-.628.972l-.076-.063-.424.568.106.095-3.128 2.302-.273-.064c-.262.119-.536.231-.823.337l.04-.35-.526.387C9.686 9.46 8.91 8.728 8.372 7.642l.07-.035-.006-.014-.075.028-.015-.032.054-.027-.057.022.003.005-.031.016.012.03Zm.01.025-.147.074.037.074-.22.127-.029-.03-.048.027.04.023-.244.14.178.127.121-.238a2.05 2.05 0 0 1-.054-.029l.036-.02 1.017 1.085 1.402 1-.34.25.478.01.18.359.272-.2-.217-.154.42.005.439-.323h.858c.184-.09.363-.181.536-.277l.658.153.073.124h.075l-.062-.104-.086-.02-.018-.029 2.426-1.77.305-.073a4.47 4.47 0 0 0 .145-.038l.069-.077.375-.241-.116-.107c-.071.115-.157.23-.26.348l-.108.07-.059-.138-.351.257-1.245.302c.139-.139.27-.282.395-.429l.399-.256.136.178c.194-.12.373-.237.536-.354l-.041-.098.143-.134a3.746 3.746 0 0 1-.18.048l.037.086-.44.41-.133-.173.082-.053.003-.002-.003.002-.162-.147.036-.052.169.152 1.105-1.48-.103-.072c-.112.27-.407.586-.887.934.047-.085.092-.17.135-.258l.016-.032-.146.136-.171-.144a7.374 7.374 0 0 1-.458.458l.116.104-.052.038.039.035-.056.052.18.237c-.094.132-.194.26-.3.385l-.832.535.437-.106a8.17 8.17 0 0 1-1.821 1.343l-.775-.18-.62.457h-.418c-.162 0-.32-.013-.472-.038l.126-.043c.088.027.177.05.268.072l.02-.174c-.095.035-.19.069-.288.102a4.106 4.106 0 0 1-.198-.065l-.1.074c-.968-.226-1.721-.983-2.257-2.235Zm0 0 .035-.017-.01-.02-.035.012.01.025Zm2.107 2.372-.018-.013.17-.124c.056.013.113.024.17.034-.105.035-.213.07-.322.103Zm5.166-2.557.035-.05-.195-.175.056-.035.175.158c.102-.152.197-.307.284-.466-.137.1-.29.203-.459.308L15.49 7.2l.278-.26.228-.167-.026-.02-.202.187-.311.23.033.03-.046.043.006.006-.007.005.167.22Zm0 0 .115.15-.058.037-.098-.129.041-.058Zm-5.166 2.557.355.253a37.24 37.24 0 0 1-.172-.004l-.063-.001-.124-.247.004-.001Zm1.272.906-.007.041h.064l-.057-.041Zm1.915-.208-.1-.135-.149.032-.041.16.119.03a.663.663 0 0 0 .171-.087Z" fill="#ffe402"/></svg>