<svg viewBox="0 0 20 15" fill="none" xmlns="http://www.w3.org/2000/svg"><path d="M20 0H0v3.75h20V0Zm0 11.25H0V15h20v-3.75Z" fill="#f50101"/><path d="M0 3.75h20v7.5H0v-7.5Z" fill="#f7fcff"/><path d="M13.45 7.82c.04.54-1.96-.22-1.96 0 0 .21 2.15.6 2.14 1.08 0 .48-2.54-.14-1.97.08.57.22 1.8.74 1.65 1.06-.3.7-2.26-.48-2.43-.25-.26.38 1.46 1.25 1.44 1.34-.03.16-1.17-.26-1.44.08-.21-.06-.31-.35-.38-.4l-.42-5.44s.38 5.13-.1 5.28c-.5.15-1.84.6-1.88.37-.01-.08 1.62-.85 1.36-1.23-.2-.27-2.17.7-2.3.14-.56-.4 1.82-.75 1.82-1.17 0-.41-2.18.5-1.92-.08.27-.58 2-.79 2.04-.87.06-.14-1.94.23-1.94 0 0-.43 1.2-.51 1.94-.9.04-.44-1.8.44-1.94.08-.13-.35 2.36-1.27 2.3-1.34-.1-.11-2.1.4-1.78.13.65-.52 1.9-1.22 2.2-1.41 0 0 .03-.07.06-.05l.08-.05v.1c-.01-.35 2.94 1.17 2.97 1.55.04.45-1.82-.34-1.78.1.38.24 1.46.7 1.9.9.2.08-1.48-.2-1.45-.06.1.35 1.74.4 1.79.96Z" fill="#52AB0B"/></svg>