<svg xmlns="http://www.w3.org/2000/svg" width="20" height="15" fill="transparent" viewBox="0 0 20 15"><g clip-path="url(#a)"><mask id="b" width="20" height="15" x="0" y="0" maskUnits="userSpaceOnUse" style="mask-type:luminance"><path fill="#fff" d="M0 0h20v15H0z"/></mask><g fill-rule="evenodd" clip-rule="evenodd" mask="url(#b)"><path fill="#F50101" d="M20 0H0v3.75h20V0Zm0 11.25H0V15h20v-3.75Z"/><path fill="#F7FCFF" d="M0 3.75h20v7.5H0v-7.5Z"/><path fill="#52AB0B" d="M13.447 7.82c.046.543-1.954-.224-1.954-.007s2.143.598 2.14 1.084c-.004.486-2.542-.139-1.973.08.57.218 1.791.741 1.652 1.067-.296.696-2.266-.483-2.43-.25-.264.375 1.454 1.249 1.439 1.332-.028.16-1.173-.251-1.439.081-.215-.06-.314-.35-.381-.388l-.423-5.452s.38 5.133-.105 5.28c-.485.148-1.833.597-1.872.373-.014-.084 1.622-.851 1.358-1.226-.195-.276-2.17.703-2.296.136-.561-.405 1.818-.755 1.818-1.169 0-.414-2.177.49-1.916-.086.26-.576 2.003-.782 2.035-.862.06-.146-1.937.227-1.937 0 0-.43 1.195-.515 1.937-.901.044-.442-1.8.434-1.937.08C7.026 6.64 9.52 5.722 9.46 5.65c-.097-.112-2.106.397-1.775.13.643-.52 1.899-1.225 2.188-1.413 0 0 .035-.07.072-.047l.078-.05s0 .444-.006.097c-.006-.346 2.944 1.17 2.977 1.554.039.449-1.823-.338-1.779.103.379.234 1.455.688 1.9.888.201.09-1.487-.192-1.45-.053.09.353 1.734.396 1.783.962Z"/></g></g><defs><clipPath id="a"><rect width="20" height="15" fill="#fff" rx="2"/></clipPath></defs></svg>