<svg viewBox="0 0 20 15" fill="none" xmlns="http://www.w3.org/2000/svg"><path d="M0 0v15h20V0H0Z" fill="#e31d1c"/><path d="M0 0v7.5h20V0H0Z" fill="#2e42a5"/><path d="M3 6.9s.75.48 2.5.48 2.68-.47 2.68-.47-1.37-.8-2.6-.8a6.1 6.1 0 0 0-2.58.8Z" fill="#000"/><path d="m3.04 4.21-.21.13.07.12h5.54l.05-.17-.24-.08.24.08v-.02a2.1 2.1 0 0 0 .05-.21c.03-.14.07-.33.07-.55.02-.4-.04-.98-.47-1.35-.44-.38-1-.31-1.43-.2l-.46.13-.19.06c-.2.06-.35.1-.47.1s-.26-.04-.43-.1L5 2.1l-.4-.12a1.87 1.87 0 0 0-1.49.16c-.3.16-.47.4-.55.66-.08.25-.07.5-.03.73a2.66 2.66 0 0 0 .29.79v.01l.22-.12Z" fill="#ffd83d" stroke="#000" stroke-width=".5"/><path d="m2.5 4.45-.11-.22-.2.1.08.21.72 1.98.08.22.22-.07h.02l.03-.01a7.11 7.11 0 0 1 .68-.16 8.53 8.53 0 0 1 1.6-.17 8.18 8.18 0 0 1 2.24.33l.03.01h.01l.23.07.08-.22.74-1.98.08-.2-.2-.1-.11.21.11-.22h-.01a1.74 1.74 0 0 0-.2-.1 9.56 9.56 0 0 0-3-.47 9.56 9.56 0 0 0-3.02.48 3.03 3.03 0 0 0-.2.08v.01h-.01l.11.22Zm3.05-1.69c.42 0 .67-.4.67-.78 0-.37-.25-.78-.67-.78-.42 0-.67.4-.67.78 0 .37.25.78.67.78Z" fill="#ffd83d" stroke="#000" stroke-width=".5"/><path d="M5.7 0h-.3l.04.58-.36-.05v.4l.36-.06-.04.91h.31l-.04-.9.36.04v-.4l-.36.06L5.7 0Z" fill="#ffd83d"/><path d="M5.39 0v-.5h-.54l.04.54.5-.04Zm.31 0 .5.03.04-.53H5.7V0Zm-.27.58-.07.5.61.08-.04-.62-.5.04ZM5.07.53l.07-.5-.57-.07v.57h.5Zm0 .4h-.5v.57l.57-.08-.07-.5Zm.36-.06.5.03.03-.6-.6.08.07.5Zm-.04.91-.5-.02-.03.52h.53v-.5Zm.31 0v.5h.53l-.03-.52-.5.02Zm-.04-.9.07-.5-.6-.09.03.6.5-.02Zm.36.04-.07.5.57.08V.92h-.5Zm0-.4h.5v-.57l-.57.08.07.5Zm-.36.06-.5-.04-.04.62.61-.09-.07-.5ZM5.4.5h.31v-1H5.4v1Zm.54.04L5.9-.04l-1 .08.04.57 1-.07ZM5 1.02l.35.05.14-.99-.36-.05-.13 1Zm.56-.1v-.4h-1v.4h1Zm-.2-.54L5 .43l.13.99.36-.05-.13-1Zm.52 1.43L5.93.9l-1-.05-.04.9 1 .06Zm-.19-.53H5.4v1h.31v-1ZM5.16.9l.04.9 1-.04-.04-.91-1 .05Zm.93-.47L5.73.38l-.14.99.36.05.14-1Zm-.57.1v.4h1v-.4h-1Zm.21.54.36-.05-.14-.99-.36.05.14 1ZM5.2-.03l-.04.57 1 .07.04-.58-1-.06Z" fill="#000"/></svg>