<svg xmlns="http://www.w3.org/2000/svg" width="20" height="15" fill="transparent" viewBox="0 0 20 15"><g clip-path="url(#a)"><mask id="b" width="20" height="15" x="0" y="0" maskUnits="userSpaceOnUse" style="mask-type:luminance"><path fill="#fff" d="M0 0h20v15H0z"/></mask><g mask="url(#b)"><path fill="#E31D1C" fill-rule="evenodd" d="M0 0v15h20V0H0Z" clip-rule="evenodd"/><mask id="c" width="20" height="15" x="0" y="0" maskUnits="userSpaceOnUse" style="mask-type:luminance"><path fill="#fff" fill-rule="evenodd" d="M0 0v15h20V0H0Z" clip-rule="evenodd"/></mask><g mask="url(#c)"><path fill="#2E42A5" fill-rule="evenodd" d="M0 0v7.5h20V0H0Z" clip-rule="evenodd"/><path fill="#000" fill-rule="evenodd" d="M2.999 6.908s.754.47 2.502.47c1.747 0 2.675-.47 2.675-.47s-1.37-.796-2.596-.796c-1.225 0-2.58.796-2.58.796Z" clip-rule="evenodd"/><path fill="#FFD83D" stroke="#000" stroke-width=".5" d="m3.044 4.214-.216.126.072.124h5.531l.055-.175-.238-.075.238.075v-.002l.002-.004.004-.013a2.141 2.141 0 0 0 .052-.213c.03-.138.061-.33.07-.543.017-.413-.049-.98-.475-1.35-.439-.381-.99-.315-1.432-.205a8.9 8.9 0 0 0-.453.13l-.19.058c-.2.06-.356.094-.476.094a1.48 1.48 0 0 1-.427-.086L5 2.102a6.292 6.292 0 0 0-.406-.125c-.425-.112-.928-.157-1.483.158a1.141 1.141 0 0 0-.55.662 1.543 1.543 0 0 0-.027.734 2.661 2.661 0 0 0 .283.788l.008.014.002.004v.002h.001l.216-.125Z"/><path fill="#FFD83D" stroke="#000" stroke-width=".5" d="m2.502 4.454-.117-.22-.193.101.075.205.72 1.98.08.221.226-.067h.003l.01-.003.037-.01a10.106 10.106 0 0 1 .675-.158 8.526 8.526 0 0 1 1.603-.173c.58 0 1.152.085 1.58.172a9.313 9.313 0 0 1 .655.158l.036.01.009.003h.002l.225.07.083-.22.74-1.981.078-.206-.195-.103-.117.221.117-.22-.001-.001h-.001l-.004-.003-.012-.006a3.03 3.03 0 0 0-.2-.086 5.367 5.367 0 0 0-.606-.194c-.537-.14-1.335-.277-2.4-.277-1.066 0-1.864.137-2.4.277-.268.07-.47.14-.608.194a3.03 3.03 0 0 0-.199.086l-.012.006-.004.002-.001.001.116.221ZM5.546 2.76c.42 0 .67-.405.67-.779 0-.373-.25-.778-.67-.778-.42 0-.67.405-.67.778 0 .374.25.778.67.778Z"/><mask id="d" width="3" height="4" x="4.073" y="-1" fill="#000" maskUnits="userSpaceOnUse"><path fill="#fff" d="M4.073-1h3v4h-3z"/><path fill-rule="evenodd" d="M5.704 0h-.315l.04.577-.356-.049v.397l.362-.05-.046.908h.315l-.047-.91.362.052V.528L5.664.58l.04-.58Z" clip-rule="evenodd"/></mask><path fill="#FFD83D" fill-rule="evenodd" d="M5.704 0h-.315l.04.577-.356-.049v.397l.362-.05-.046.908h.315l-.047-.91.362.052V.528L5.664.58l.04-.58Z" clip-rule="evenodd"/><path fill="#000" d="M5.389 0v-.5h-.537l.038.535L5.389 0Zm.315 0 .499.035L6.24-.5h-.536V0Zm-.275.577-.067.495.61.083-.044-.613-.499.035ZM5.073.528l.068-.495-.568-.077v.572h.5Zm0 .397h-.5v.573l.569-.078-.069-.495Zm.362-.05L5.934.9l.03-.603-.598.082.069.496Zm-.046.908-.5-.025-.026.525h.526v-.5Zm.315 0v.5h.526l-.027-.526-.5.026Zm-.047-.91.07-.495-.6-.085.03.606.5-.026Zm.362.052-.07.495.57.08V.925h-.5Zm0-.397h.5v-.577l-.571.082.07.495ZM5.664.58l-.5-.034-.042.617.613-.088L5.664.58ZM5.389.5h.315v-1h-.315v1Zm.539.042-.04-.577-.998.07.04.577.998-.07Zm-.922.482.356.048.135-.99-.356-.05-.135.992Zm.567-.1V.529h-1v.397h1ZM5.366.38l-.36.05.136.99.36-.049-.136-.99Zm.522 1.43L5.934.9 4.935.85l-.046.908.999.05Zm-.184-.526h-.315v1h.315v-1ZM5.158.899l.046.91 1-.052-.048-.91L5.158.9Zm.931-.47L5.727.38l-.14.99.362.05.14-.99Zm-.57.1v.396h1V.528h-1Zm.216.545.355-.05-.142-.99-.355.05.142.99Zm-.53-1.109-.04.58.997.069.04-.58-.997-.069Z" mask="url(#d)"/></g></g></g><defs><clipPath id="a"><rect width="20" height="15" fill="#fff" rx="2"/></clipPath></defs></svg>