<svg xmlns="http://www.w3.org/2000/svg" width="20" height="15" fill="transparent" viewBox="0 0 20 15"><g clip-path="url(#a)"><mask id="b" width="20" height="15" x="0" y="0" maskUnits="userSpaceOnUse" style="mask-type:luminance"><path fill="#fff" d="M0 0h20v15H0z"/></mask><g mask="url(#b)"><path fill="#FECA00" fill-rule="evenodd" d="M0 0h20v15H0V0Z" clip-rule="evenodd"/><path fill="#1F8A6E" d="M1.25 1.25H5v12.5H1.25z"/><path fill="#F56800" d="M5 1.25h3.75v12.5H5z"/><path fill="#B01D00" d="M8.75 1.25h10v12.5h-10z"/><path fill="#E8AA00" d="M7.5 1.25h1.25v12.5H7.5z"/><path fill="#FECA00" fill-rule="evenodd" d="M10.688 3.858s-.796-.002-.796 1.384v2.033s-.38.067-.38.303c0 .235.081.441.23.441.15 0 .299.69.15.69-.15 0-.299.297-.15.297.036 0 .063-.005.084-.008.022-.004.036-.007.046-.001.02.011.02.057.02.194 0 .269-.15.377-.15.377s-.14-.039-.14.12c0 .158.14.198.14.198s.08.035-.074.11c-.155.075-.155.111-.155.111h.379l.19.347.18-.347h.375s-.189-.12-.21-.146c-.023-.025-.05-.062 0-.104a.243.243 0 0 1 .057-.032c.054-.024.117-.053.117-.137 0-.12-.238-.12-.238-.12s-.146-.263-.1-.377a.649.649 0 0 0 .026-.086c.016-.063.025-.099.103-.099.11 0 .172-.137.034-.296 0 0 .158.17.111.389-.046.22.048.319.1.319.05 0 .132-.076.132-.076s.425.38.611.38c.187 0 .455-.304.455-.304l.384.216s.28.394.24.665c-.042.27-.202.421-.39.38-.19-.043-.496.043-.52.16l-.014.063c-.033.133-.08.331.067.282.174-.058.208-.102.208-.102s-.023.102.118.102c.14 0 .18-.102.18-.102s.146.102.248.102c.103 0 .217-.078.217-.078s.075.116.242.078c.166-.038.292-.473.171-.57 0 0 .402-.058.505-.408 0 0-.389-.005-.349-.245a.692.692 0 0 1 .246-.393s.59-.286.845-.377c.255-.092.677-.185.782-.185.043 0 .073.1.114.234.06.197.144.469.32.617.3.25.096.821.096.821s-.665.067-.665.247.01.26.135.26.122-.103.122-.103.074.102.193.102c.12 0 .215-.102.215-.102s.032.102.188.102.155-.102.155-.102.029.102.167.102c.137 0 .42-.102.42-.102s.045.102.188.102c.143 0 .146-.102.146-.102s.077.102.2.102c.125 0 .198-.102.198-.102s.178.102.301.102.079-.184 0-.345c-.02-.04-.043-.075-.064-.107-.063-.094-.107-.161-.002-.278.03-.033.064-.066.099-.1.128-.124.256-.249.162-.358a.434.434 0 0 0-.094-.078c-.107-.075-.217-.151-.167-.576.03-.254.088-.46.141-.652.063-.226.12-.432.12-.67 0-.442-.26-.947-.26-.947s.35-.245.35-.743-.783-.553-.783-.553-.778.2-1.122.1a5.023 5.023 0 0 0-.196-.052c-.185-.046-.242-.06-.242-.19 0-.165-.25.142-.25.142s-.196-.079-.063-.241c.133-.163.193-.227.193-.227s-.117-.134-.315-.067-.233.178-.233.178-.226-.231-.085-.399c.14-.168.318 0 .318 0s.202.106.218-.033c.017-.139 0-.25 0-.25s.508.146.365.373c-.144.226-.053.31-.053.31s.349.02.412-.22a.507.507 0 0 0 .002-.249c.1.048.215.104.183.197a2.62 2.62 0 0 1-.185.387s.348-.02.452-.294c.104-.273.066.067.066.067s.134-.005.334.111 0-.178 0-.178.417.516.81.455c.394-.061.372-.388.372-.388s-.093-.16-.288-.16c-.195 0-.084.16-.084.16s.19.108-.111 0c-.087-.031-.217-.132-.38-.258-.395-.308-.98-.763-1.583-.693-.848.098-1.145.477-1.145.477V4.52s-.142.219-.275.219c-.133 0-.502-.22-.502-.22l-.235.22s-.09-.22-.246-.22-.156.22-.156.22-.197-.097-.413-.097a.556.556 0 0 1-.223-.057c-.083-.036-.131-.057-.131.057v.066c.005.155.007.251-.218.28-.255.033-.452.033-.452.033s-.152-.186-.271-.186c-.119 0-.257.144-.257.276 0 .131.154.506.257.586.027.021.022.019 0 .009-.062-.029-.257-.118-.257.071 0 .13.033.164.057.187.023.023.038.038.007.126a2.007 2.007 0 0 1-.05.123c-.072.171-.155.37-.014.37.077 0 .15-.017.201-.029.069-.016.1-.023.056.029l-.066.071c-.082.086-.166.174-.02.107a.975.975 0 0 0 .194-.128c.078-.062.132-.104.163-.05.02.034.004.08-.01.12-.022.065-.038.112.126.058a.646.646 0 0 0 .11-.044c0 .01.01.025.035.044.055.04.045.08.037.108-.01.034-.015.055.08.055.093 0 .222-.071.3-.113.074-.041.099-.055-.008.05a.957.957 0 0 1-.273.158c-.241.109-.535.241-.668.693-.18.61-.1.735-.088.75l-.553-.607s.132-.104.132-.277c0-.174-.343-.303-.343-.303s.012-2.161.111-2.633c.1-.471.15-.784.15-.784Zm1.104 2.838a.019.019 0 0 0-.017.02c.024-.013.023-.02.017-.02Zm4.167-1.744-.007-.003c-.081-.038-.151-.071-.124-.114.038-.06.103.003.131.117Zm.367 4.676s-.263.258-.096.315c.05.017.112.026.17.035.13.02.239.037.14.135-.143.14-.264.328-.264.5 0 .17.004.316.05.243.025-.04.129-.081.24-.126.092-.037.19-.076.253-.118.12-.079.118-.165.115-.319l-.001-.086c0-.21-.607-.579-.607-.579Zm-2.037-3.447c.062-.049.065-.649.065-.649s.215.072.215.165a.287.287 0 0 1-.04.143.863.863 0 0 0-.053.12c-.047.128.081.209.2.284l.028.017c.08.052.103-.06.12-.146.01-.048.019-.088.034-.088.044 0 .369.073.614.198.213.108.423.055.903-.067l.229-.058c.647-.16.732.081.798.27.067.19-.436.454-.799.501a2.276 2.276 0 0 1-.424.009c-.162-.008-.306-.015-.453.037-.231.082-.953.074-1.235.071h-.09c-.129 0-.153-.042-.202-.124-.013-.02-.027-.044-.045-.07-.088-.13.019-.213.088-.213.07 0 .047-.152 0-.21-.047-.059-.014-.141.047-.19ZM8.857 1.326v.226a.42.42 0 0 1-.025.108c-.043.135-.1.316.164.366.347.067.603.22.68.362.05.092.036-.06.02-.24a3.345 3.345 0 0 1-.02-.29c0-.222-.247-.653-.423-.532-.176.122-.396 0-.396 0Zm0 12.116v.226s.22-.122.396 0c.176.121.423-.31.423-.531 0-.08.01-.19.02-.29.016-.18.03-.333-.02-.241-.077.143-.333.295-.68.362-.264.05-.207.231-.164.366.013.042.025.08.025.108Zm9.79 0v.226s-.22-.122-.396 0c-.175.121-.423-.31-.423-.531 0-.08-.01-.19-.02-.29-.016-.18-.03-.333.02-.241.078.143.333.295.68.362.265.05.207.231.165.366a.395.395 0 0 0-.026.108Zm0-11.89v-.226s-.22.122-.396 0c-.175-.121-.423.31-.423.531 0 .08-.01.19-.02.29-.016.18-.03.333.02.241.078-.143.333-.295.68-.362.265-.05.207-.231.165-.366a.395.395 0 0 1-.026-.108Z" clip-rule="evenodd"/></g></g><defs><clipPath id="a"><rect width="20" height="15" fill="#fff" rx="2"/></clipPath></defs></svg>