<svg viewBox="0 0 20 15" fill="none" xmlns="http://www.w3.org/2000/svg"><path d="M0 0h20v15H0V0Z" fill="#feca00"/><path fill="#1f8A6e" d="M1.25 1.25H5v12.5H1.25z"/><path fill="#f56800" d="M5 1.25h3.75v12.5H5z"/><path fill="#b01d00" d="M8.75 1.25h10v12.5h-10z"/><path fill="#e8aa00" d="M7.5 1.25h1.25v12.5H7.5z"/><path d="M10.69 3.86s-.8 0-.8 1.38v2.03s-.38.07-.38.3c0 .24.08.45.23.45.15 0 .3.69.15.69s-.3.3-.15.3L9.83 9h.04c.02 0 .02.05.02.2 0 .26-.15.37-.15.37s-.14-.04-.14.12.14.2.14.2.08.03-.07.1c-.16.08-.16.12-.16.12h.38l.2.34.17-.34h.38s-.2-.12-.21-.15c-.03-.02-.05-.06 0-.1a.24.24 0 0 1 .05-.03c.06-.03.12-.06.12-.14 0-.12-.24-.12-.24-.12s-.14-.26-.1-.38a.65.65 0 0 0 .03-.08c.01-.07.02-.1.1-.1.11 0 .17-.14.04-.3 0 0 .15.17.1.39-.04.22.06.32.1.32.06 0 .14-.08.14-.08s.42.38.61.38.45-.3.45-.3l.39.21s.28.4.24.67c-.04.27-.2.42-.4.38-.18-.04-.49.04-.51.16l-.02.06c-.03.13-.08.33.07.28.18-.05.21-.1.21-.1s-.02.1.12.1c.14 0 .18-.1.18-.1s.14.1.25.1c.1 0 .21-.07.21-.07s.08.11.24.07c.17-.03.3-.47.18-.57 0 0 .4-.05.5-.4 0 0-.39 0-.35-.25.04-.24.25-.4.25-.4s.59-.28.84-.37c.26-.1.68-.18.79-.18.04 0 .07.1.1.23.07.2.15.47.33.62.3.25.1.82.1.82s-.67.07-.67.25.01.25.13.25c.13 0 .13-.1.13-.1s.07.1.19.1.21-.1.21-.1.04.1.2.1c.15 0 .15-.1.15-.1s.03.1.16.1c.14 0 .43-.1.43-.1s.04.1.18.1c.15 0 .15-.1.15-.1s.08.1.2.1c.12 0 .2-.1.2-.1s.18.1.3.1.08-.18 0-.34l-.07-.1c-.06-.1-.1-.17 0-.29l.1-.1c.13-.12.26-.24.16-.35-.02-.04-.06-.06-.1-.08-.1-.08-.2-.15-.16-.58.03-.25.09-.46.14-.65.07-.23.12-.43.12-.67 0-.44-.26-.95-.26-.95s.35-.24.35-.74-.78-.55-.78-.55-.78.2-1.12.1a5.02 5.02 0 0 0-.2-.06c-.18-.04-.24-.06-.24-.18 0-.17-.25.14-.25.14s-.2-.08-.06-.24l.19-.23s-.12-.13-.31-.07c-.2.07-.24.18-.24.18s-.22-.23-.08-.4.32 0 .32 0 .2.1.21-.03c.02-.14 0-.25 0-.25s.51.14.37.37c-.15.23-.06.31-.06.31s.35.02.42-.22a.5.5 0 0 0 0-.25c.1.05.21.1.18.2-.06.17-.18.39-.18.39s.35-.02.45-.3c.1-.27.07.07.07.07s.13 0 .33.11c.2.12 0-.18 0-.18s.42.52.8.46c.4-.06.38-.4.38-.4s-.1-.15-.29-.15c-.2 0-.08.16-.08.16s.19.1-.11 0c-.09-.03-.22-.13-.38-.26-.4-.3-.98-.76-1.59-.7-.84.1-1.14.49-1.14.49v-.32s-.14.22-.28.22c-.13 0-.5-.22-.5-.22l-.23.22s-.1-.22-.25-.22-.15.22-.15.22-.2-.1-.42-.1a.56.56 0 0 1-.22-.06c-.08-.03-.13-.05-.13.06v.07c0 .15 0 .25-.22.28-.25.03-.45.03-.45.03s-.15-.18-.27-.18c-.12 0-.26.14-.26.27s.16.5.26.59c.02.02.02.02 0 0-.06-.02-.26-.11-.26.08 0 .13.03.16.06.18.02.03.04.04 0 .13 0 .04-.03.08-.04.12-.08.17-.16.37-.02.37.08 0 .15-.01.2-.03.07-.01.1-.02.06.03l-.07.07c-.08.09-.16.18-.02.11a.97.97 0 0 0 .2-.13c.07-.06.13-.1.16-.05.02.04 0 .08-.01.12-.02.07-.04.12.12.06l.11-.04.04.04c.06.04.04.08.04.1-.01.04-.02.06.08.06.09 0 .22-.07.3-.1.07-.05.1-.06-.01.04-.07.07-.17.11-.27.16-.24.1-.54.24-.67.7-.18.6-.1.73-.09.74l-.55-.6s.13-.1.13-.28c0-.18-.34-.3-.34-.3s0-2.17.1-2.64l.16-.78Zm1.1 2.84s-.02 0-.02.02l.02-.02Zm4.17-1.75c-.09-.04-.16-.07-.13-.11.04-.06.1 0 .13.11Zm.37 4.68s-.27.26-.1.31l.17.04c.13.02.24.04.14.13-.14.14-.26.33-.26.5 0 .17 0 .32.05.25.02-.04.12-.08.24-.13.09-.04.19-.08.25-.12.12-.08.12-.16.11-.32v-.08c0-.21-.6-.58-.6-.58Zm-2.04-3.45c.06-.05.06-.65.06-.65s.22.07.22.17c0 .06-.02.09-.04.14l-.05.12c-.05.13.08.2.2.28l.02.02c.08.05.1-.06.12-.15.01-.04.02-.08.04-.08.04 0 .37.07.61.2.22.1.42.05.9-.07l.23-.06c.65-.16.74.08.8.27.07.2-.43.45-.8.5-.16.02-.3.02-.42.01-.16 0-.3-.02-.45.04-.24.08-.96.07-1.24.07h-.09c-.13 0-.15-.04-.2-.13l-.05-.07c-.08-.13.02-.2.1-.2.06 0 .04-.16 0-.22-.06-.06-.02-.14.04-.19ZM8.86 1.33v.22l-.03.11c-.04.13-.1.32.17.37.34.06.6.22.68.36.05.09.03-.06.02-.24l-.02-.3c0-.21-.25-.65-.43-.52-.17.12-.4 0-.4 0Zm0 12.11v.23s.22-.12.4 0c.17.12.42-.31.42-.53 0-.08 0-.2.02-.3.01-.17.03-.33-.02-.23-.08.14-.34.3-.68.36-.27.05-.21.23-.17.36l.03.11Zm9.79 0v.23s-.22-.12-.4 0c-.17.12-.42-.31-.42-.53l-.02-.3c-.02-.17-.03-.33.02-.23.08.14.33.3.68.36.26.05.2.23.16.36l-.02.11Zm0-11.89v-.22s-.22.12-.4 0c-.17-.13-.42.3-.42.53l-.02.29c-.02.18-.03.33.02.24.08-.14.33-.3.68-.36.26-.05.2-.24.16-.37l-.02-.1Z" fill="#feca00"/></svg>