<svg viewBox="0 0 20 15" fill="none" xmlns="http://www.w3.org/2000/svg"><path d="M0 10h20v5H0v-5Z" fill="#55ba07"/><path d="M0 5h20v5H0V5Z" fill="#f7fcff"/><path d="M0 0h20v5H0V0Z" fill="#3d58db"/><path d="M9.53 5.15c-.33.09-.5.31-.5.71 0 .46.23.89.5 1.1v-1.8Zm.78 1.8c.27-.22.48-.64.48-1.09 0-.38-.16-.6-.48-.7v1.8Zm-.02-2.12c.5.12.88.46.88 1.03 0 .41-.2.91-.5 1.26l1.52 1.49.37-.13.56.85s-1.41.67-3.16.67a7.59 7.59 0 0 1-3.09-.67l.48-.72.39.12 1.4-1.59a2.04 2.04 0 0 1-.51-1.28c0-.59.4-.94.93-1.04a.4.4 0 0 1 .73.01ZM7.5 8.93l-.16.23h.31l-.15-.22Zm.18.31-.27.06.27.1v-.16Zm.14-.31.14.32.35-.1-.07-.12-.42-.1Zm.75.64-.5-.1-.06-.1.38-.08.18.28Zm.03-.46.16.28.35-.1-.1-.13-.4-.05Zm.29.52-.06-.12.38-.1.22.27-.54-.05Zm.71-.2.5-.13-.06-.1H9.4l.2.24Zm.18.26-.08-.13.48-.15.25.28h-.65Zm.6-.49.16.19.4-.15-.04-.1-.52.06Zm.9.39-.56.06-.08-.14.42-.14.22.22Zm-.04-.48.16.2.37-.2-.1-.06-.43.06Zm.32.43-.06-.1.35-.22.18.21-.47.1Zm.36-.6.22.22.22-.22-.07-.08-.37.08Zm.35.3.18-.19.14.18-.32.1v-.1Z" fill="#1d1d1d"/></svg>