<svg xmlns="http://www.w3.org/2000/svg" width="20" height="15" fill="transparent" viewBox="0 0 20 15"><g clip-path="url(#a)"><mask id="b" width="20" height="15" x="0" y="0" maskUnits="userSpaceOnUse" style="mask-type:luminance"><path fill="#fff" d="M0 0h20v15H0z"/></mask><g fill-rule="evenodd" clip-rule="evenodd" mask="url(#b)"><path fill="#55BA07" d="M0 10h20v5H0v-5Z"/><path fill="#F7FCFF" d="M0 5h20v5H0V5Z"/><path fill="#3D58DB" d="M0 0h20v5H0V0Z"/><path fill="#1D1D1D" d="M9.531 5.15c-.326.088-.499.314-.499.713 0 .457.224.885.5 1.106V5.15Zm.781 1.807c.268-.224.483-.645.483-1.093 0-.388-.17-.612-.482-.706v1.799Zm-.026-2.124c.512.113.882.462.882 1.028 0 .411-.196.912-.5 1.255l1.522 1.492.375-.124.56.85S11.709 10 9.958 10c-1.75 0-3.083-.666-3.083-.666l.477-.726.385.126 1.411-1.592c-.316-.344-.522-.86-.522-1.281 0-.586.396-.939.936-1.04a.39.39 0 0 1 .724.012ZM7.501 8.935l-.158.22h.308l-.15-.22Zm.18.307-.272.055.273.095v-.15Zm.14-.317.139.325.346-.094-.069-.13-.416-.1Zm.752.649-.508-.1-.058-.098.383-.083.183.28Zm.03-.466.158.284.347-.105-.097-.128-.408-.05Zm.284.522-.062-.117.384-.103.222.27-.544-.05Zm.718-.195.495-.13-.06-.113h-.644l.209.243Zm.177.25-.078-.121.475-.156.253.278h-.65Zm.602-.484.152.186.412-.143-.052-.097-.512.054Zm.894.387-.554.062-.081-.138.418-.138.217.214Zm-.035-.477.155.19.372-.19-.104-.058-.423.058Zm.321.426-.067-.103.354-.213.18.213-.467.103Zm.351-.593.225.214.219-.214-.07-.088-.373.088Zm.357.288.183-.182.131.182-.314.1v-.1Z"/></g></g><defs><clipPath id="a"><rect width="20" height="15" fill="#fff" rx="2"/></clipPath></defs></svg>