<svg viewBox="0 0 20 15" fill="none" xmlns="http://www.w3.org/2000/svg"><path d="M0 11h20v4H0v-4Z" fill="#55BA07"/><path d="M0 3.75h20v7.5H0v-7.5Z" fill="#1D1D1D"/><path d="M0 0h20v4H0V0Z" fill="#e11c1b"/><path d="M9.87 9.42c-1.12-.24-1.4-.82-1.4-1.73 0-.95.5-1.92 1.4-2.03.88-.1 1.6.23 1.98.69-.32-1.25-1.37-1.39-2.18-1.39-1.21 0-2.46.92-2.46 2.65 0 1.51 1.1 2.65 2.5 2.68 1.75 0 2.02-1.2 2.07-1.62l-.3.25c-.34.32-.73.68-1.6.5Zm2.8-2.36-.83.26.92.36-.13.97.63-.67.91.2-.61-.73.54-.74-.76.17-.54-.61-.14.79Z" fill="#fff"/></svg>