<svg xmlns="http://www.w3.org/2000/svg" width="20" height="15" fill="transparent" viewBox="0 0 20 15"><g clip-path="url(#a)"><mask id="b" width="20" height="15" x="0" y="0" maskUnits="userSpaceOnUse" style="mask-type:luminance"><path fill="#fff" d="M0 0h20v15H0z"/></mask><g fill-rule="evenodd" clip-rule="evenodd" mask="url(#b)"><path fill="#55BA07" d="M0 11h20v4H0v-4Z"/><path fill="#1D1D1D" d="M0 3.75h20v7.5H0v-7.5Z"/><path fill="#E11C1B" d="M0 0h20v4H0V0Z"/><path fill="#fff" d="M9.873 9.416c-1.12-.231-1.41-.817-1.398-1.721 0-.957.503-1.925 1.387-2.031.883-.106 1.607.224 1.986.684-.317-1.249-1.368-1.385-2.175-1.385-1.215-.011-2.46.912-2.46 2.649 0 1.513 1.098 2.65 2.495 2.678 1.748 0 2.021-1.206 2.071-1.617-.1.072-.195.159-.291.247-.351.324-.736.678-1.615.496Zm2.791-2.359-.827.26.927.363-.13.971.628-.668.912.188-.616-.72.545-.736-.761.16-.538-.607-.14.789Z"/></g></g><defs><clipPath id="a"><rect width="20" height="15" fill="#fff" rx="2"/></clipPath></defs></svg>