<svg xmlns="http://www.w3.org/2000/svg" width="20" height="15" fill="transparent" viewBox="0 0 20 15"><g clip-path="url(#a)"><mask id="b" width="20" height="15" x="0" y="0" maskUnits="userSpaceOnUse" style="mask-type:luminance"><path fill="#fff" d="M0 0h20v15H0z"/></mask><g fill-rule="evenodd" clip-rule="evenodd" mask="url(#b)"><path fill="#C51918" d="M0 0h20v13.75c0 .69-.56 1.25-1.25 1.25H1.25C.56 15 0 14.44 0 13.75V0Z"/><path fill="#E31D1C" d="M0 0h20v15H0V0Z"/><path fill="#579D20" d="M14.051 12.266 10.104 1.688h-.172l-3.81 10.578 3.957-2.378 3.972 2.378ZM9.667 5.14l.423-1.65.44 1.697 1.26 3.535.742 1.712-1.6-1.127-.854-.511-.84.505-1.562 1.133.722-1.747L9.667 5.14Z"/><path fill="#579D20" d="m7.914 8.42 2.185 1.453 2.039-1.452 3.872-3.273H3.99L7.915 8.42Zm.045-1.249-1.486-.91h7.015l-1.276.809-2.123 1.61-2.13-1.509Z"/></g></g><defs><clipPath id="a"><rect width="20" height="15" fill="#fff" rx="2"/></clipPath></defs></svg>