<svg viewBox="0 0 20 15" fill="none" xmlns="http://www.w3.org/2000/svg"><path d="M0 0h20v13.75c0 .69-.56 1.25-1.25 1.25H1.25C.56 15 0 14.44 0 13.75V0Z" fill="#c51918"/><path d="M0 0h20v15H0V0Z" fill="#e31d1c"/><path d="M14.05 12.27 10.1 1.69h-.17l-3.8 10.58 3.95-2.38 3.97 2.38ZM9.67 5.14l.42-1.65.44 1.7 1.26 3.53.74 1.71-1.6-1.12-.85-.52-.84.51-1.56 1.13.72-1.74 1.27-3.55Z" fill="#579d20"/><path d="m7.91 8.42 2.19 1.45 2.04-1.45L16 5.15H3.99l3.92 3.27Zm.05-1.25-1.49-.9h7.02l-1.28.8-2.12 1.61-2.13-1.5Z" fill="#579d20"/></svg>