<svg viewBox="0 0 20 15" fill="none" xmlns="http://www.w3.org/2000/svg"><path d="M13 0h7v15h-7V0Z" fill="#d9071e"/><path d="M0 0h7v15H0V0Z" fill="#3d58db"/><path d="M6 0h8v15H6V0Z" fill="#fbcd17"/><path d="m13.57 12.26-.65.36-2.19-4 .66-.35 2.18 3.99Zm-7 .1.66.35L9.4 8.72l-.66-.36-2.18 4Z" fill="#fd1900"/><path d="M7.11 5.87v3.47c0 .77-.66 1.77-1 2.15-.33.37-1 1.23-1 1.23V3.38c0-1.05 1-1.4 1-1.4s.83.16 1 1.4v1.21c.26.2 1.12.82 1.67.56.66-.3.89-1.2.89-1.2s-.07-.9-.34-.9-.29-1.27.75-1.27c1.03 0 1.15.49 1.15.88 0 .2-.16.53-.32.84-.14.29-.27.56-.27.7 0 .33.24.95.6.95.24 0 1.43-.46 2.12-.74V3.38c.17-1.24 1-1.4 1-1.4s1 .35 1 1.4v9.34s-.66-.86-1-1.23c-.33-.38-1-1.38-1-2.15V5.87H7.11Zm1.1 6.53c.68-.45 1.67-2.42 1.67-2.42l.33.08s.5 1.3 1.98 2.34c-1.57.41-1.98 1.26-1.98 1.26 0-.68-2-1.26-2-1.26Zm-.1-1.25a.8.8 0 0 0 .83-.79.8.8 0 0 0-.83-.78.8.8 0 0 0-.82.78c0 .44.36.79.82.79Zm4.84-.79a.8.8 0 0 1-.82.79.8.8 0 0 1-.83-.79.8.8 0 0 1 .82-.78.8.8 0 0 1 .83.78Z" fill="#a77b3b"/><path d="m15.71 6.5.58.25-2.34 5.41-.57-.25 2.33-5.4Z" fill="#fdff00"/><path opacity=".3" d="M6.9 4.9h6.6v4.77s-1.68.5-3.3 1.34C9 10.1 6.9 9.67 6.9 9.67V4.9Z" fill="#e1e5e8"/><path fill="#3d58db" d="M6.9 8.02h6.6v3.13H6.9z"/><path fill="#fd1900" d="M6.9 4.9h6.6v3.13H6.9z"/><path d="m9.87 6.3-.5.04.28-.39-.3-.4.5.07.2-.45.2.45.5-.04-.28.4.3.4-.5-.07-.19.45-.21-.46Z" fill="#fdff00"/><path d="M8.97 5.42s-1.34.82-.9 1.4c.45.6 1.01.67 1.01.67s-1.37 2.06 1.05 3.24c2.59-1.14 1.23-3.24 1.23-3.24s.8-.18.95-.81c.16-.64-1.04-1.37-1.04-1.37s.75 1.09.58 1.37c-.17.27-1.09.55-1.72.55-.63 0-1.61-.18-1.77-.66-.16-.48.6-1.15.6-1.15Z" fill="#fdff00"/><path d="m7.72 7.5.83.52-.83.52-.82-.52.82-.52Zm4.96 0 .82.52-.82.52-.83-.52.83-.52ZM7.7 9.56a.25.25 0 1 0 0-.5.25.25 0 0 0 0 .5Zm5.32-.47c-.22-.17-.54-.12-.74.11-.19.24-.17.57.05.74.11.1.05-.28.23-.52.15-.2.56-.25.46-.33Z" fill="#fdff00"/><path d="M2.96 7.2s.66.78 1.28.53.47-1.17.47-1.17L4.24 7h-.4v.22L3.53 7v.22h-.57Zm.45 1.2s.8.7 1.34.5c.54-.2.4-1.14.4-1.14l-.46.43h-.4v.21l-.32-.21v.21h-.56ZM5.57 10c-.54.19-1.35-.51-1.35-.51h.57v-.22l.31.22v-.22h.4l.47-.42s.14.94-.4 1.14Z" fill="#048F02"/><path d="M8.74 1.4H8.1v.38h-.3v.62h.3v1.1h.63V2.4h.35v-.62h-.35V1.4Z" fill="#fdff00"/><path d="m9.47 2.12-1.44.37 1.44.46v-.83Z" fill="#db4400"/></svg>