<svg viewBox="0 0 20 15" fill="none" xmlns="http://www.w3.org/2000/svg"><path d="M0 0h20v15H0V0Z" fill="#e8aa00"/><path d="M2 2h16v11H2V2Z" fill="#c51918"/><path d="M12.64 9.84c.26 0 .47-.2.47-.47a.47.47 0 0 0-.47-.47.47.47 0 0 0-.46.47c0 .26.2.47.46.47Z" fill="#1E5E91"/><path d="M6.64 7.7c-1.2-1.4.53-3.84.53-3.84s.26 1.46 1.22 2.44c0 .07-.1.17-.19.27l-.16.21c-.08.16.2.24.35.24.06 0 .1.1.13.18.03.1.07.19.14.08.14-.2-.13-.65-.13-.65l.42-.45.15-.3h-.15v-.3l-.1.1s-.1-.28-.32-.28-.28-.12-.28-.12h.28c.14 0-.03-.19-.14-.28-.06-.05-.14-.03-.21-.02-.09.02-.17.03-.17-.07s.09-.12.19-.14c.06 0 .13-.02.19-.06.09-.07.21-.05.35-.02l.21.02h.35c.13 0-.2.2-.2.2l.2.18.3.31-.15.1.32.3s-.1.17 0 .17c.04 0 .07.03.09.08.02-.05.05-.08.09-.08.1 0 0-.17 0-.17l.31-.3-.15-.1.3-.3.2-.19s-.32-.2-.2-.2h.35l.22-.02c.13-.03.26-.05.35.02.05.04.12.05.19.06.1.02.18.03.18.14 0 .1-.07.09-.16.07-.08-.01-.16-.03-.21.02-.12.1-.28.28-.14.28h.28s-.07.12-.28.12c-.22 0-.33.27-.33.27l-.1-.08v.3h-.14l.14.29.43.45s-.27.44-.14.65c.08.1.11.02.15-.08.03-.08.07-.18.13-.18.14 0 .43-.08.35-.24l-.17-.2c-.09-.1-.18-.21-.18-.28.96-.98 1.22-2.44 1.22-2.44s1.73 2.44.52 3.85c-1.2 1.4-2.1.98-2.1.98l.5.45-.14.12h.41l-.15.1.11.05.12.05s-.32.23 0 .23a5.83 5.83 0 0 0 .34 0c.02 0-.02-.1-.05-.18-.04-.1-.08-.18-.06-.18.03 0 .1.08.17.16.06.07.1.13.15.16.02.01.12-.02.2-.05.08-.02.15-.05.17-.04.07.04.05.11.03.19a.7.7 0 0 0 0 .05c-.01.02.08-.05.18-.11.1-.07.22-.14.23-.13.04.05.1.12-.33.45v.15c.01.14.01.17-.08.17l-.16.04c-.17.06-.4.14-.56-.04l-.58-.64v.2l-.42-.43-.08.23-.56-.64-.15.09s.52 1.42.8 1.43c.13 0-.08.14-.35.31-.28.18-.63.4-.76.58-.04.06-.07-.02-.1-.2-.02.18-.04.26-.08.2-.13-.18-.48-.4-.76-.58-.28-.17-.48-.3-.35-.31.28-.01.8-1.43.8-1.43l-.16-.09-.56.64-.08-.23-.41.42V9.7l-.58.64c-.17.18-.4.1-.56.04l-.17-.04c-.14 0-.19-.2 0-.45.16-.2.5-.2.8-.19h.15c.32 0 0-.23 0-.23l.12-.05.11-.05-.15-.1h.42l-.14-.12.5-.45s-.9.42-2.1-.98Z" fill="#f6c540"/><path d="m7.77 10.64-.55-.95s-.71-1.65-.71-1.85c0-.2-.29-.8-.29-.62v.62l1.2 2.71v.22h.17l.18-.13ZM12.15 9.35l.08-.27 1.02.3-.08.28-1.02-.3Z" fill="#f6c540"/><path d="m12.7 8.85.27.09-.27.86-.28-.09.27-.86ZM12.95 8.57l-.06-.01-.02.1-.11-.04-.02.06.11.03-.03.1.06.02.03-.1.1.02.02-.06-.1-.02.02-.1ZM9.8 3.26l.04.1h.09l.03-.1.2.08v-.02c.49.04.74.24.71.6-.02.3-.17.45-.42.44v.22s-.4.16-.6.16c-.2 0-.61-.16-.61-.16v-.22c-.2-.03-.33-.18-.35-.44-.02-.36.23-.56.71-.6v.02l.2-.08Zm-.5.9-.06.02c-.1-.02-.16-.1-.17-.27-.02-.17.06-.29.25-.36-.13.17-.14.37-.02.62Zm.17-.04.31-.06v-.6c-.38.13-.48.34-.31.66Zm.49-.05.39.08-.05-.02c.17-.33.07-.54-.34-.68v.62Zm.49-.51c.13.16.13.38.01.63.15 0 .22-.09.24-.28.01-.17-.07-.29-.25-.35Z" fill="#f6c540"/><path d="M9.85 3.45a.2.2 0 1 0 0-.4.2.2 0 0 0 0 .4Z" fill="#3d58db"/><path d="M9.87 2.81h-.06v.1h-.1v.06h.1v.11h.06v-.11h.11v-.06h-.1v-.1Z" fill="#f6c540"/><path d="M8.72 6.47s.71-.13 1.1-.13c.34 0 1.1.13 1.1.13 0 .85.23 1.38 0 1.96-.25.58-.83.3-1.1.85-.33-.52-.79-.23-1.1-.98-.3-.75.19-1.1 0-1.83Z" fill="#1E5E91"/><path fill="#5eaa22" d="M8.72 8.25h2.19v1.06H8.72z"/><path d="M9.37 6.9c-.08-.18.44-.2.44-.2s.11.2 0 .48c-.08.2.05.18.24.16l.23-.02h.23c.07.04.12.12.28.35.07.1.06.18.02.22 0 .11-.11.2-.33.26l-.03-.12a.54.54 0 0 0 .22-.09c-.17.01-.4-.07-.4-.18 0-.15-.52-.12-.84-.1l-.19.01c-.18 0-.04-.22.09-.43l.04-.06c.07-.11.09-.14.08-.16 0-.02-.04-.04-.08-.13Zm1.26-.03c-.32-.05-.5 0-.5.17s.17.24.48.24l.03.01a.48.48 0 0 1-.04.02l.04.11c.2-.07.2-.2 0-.25h-.02c-.26 0-.37-.05-.37-.13 0-.07.1-.1.36-.06l.02-.11Z" fill="#f6c540"/></svg>