<svg viewBox="0 0 20 15" fill="none" xmlns="http://www.w3.org/2000/svg"><path d="M0 0v15h20V0H0Z" fill="#3d58db"/><path d="m5 6.88-.51 1.84V6.8l-.98 1.63.52-1.84-1.4 1.3 1-1.62-1.7.88 1.4-1.3-1.86.4 1.7-.88-1.91-.12 1.87-.39-1.8-.63 1.9.13-1.56-1.1 1.8.65-1.21-1.48 1.56 1.1-.77-1.74 1.2 1.48L4 1.38l.75 1.76L5 1.25l.26 1.9L6 1.38l-.26 1.89 1.2-1.48-.77 1.75 1.56-1.11-1.2 1.48 1.79-.65-1.56 1.1 1.9-.13-1.8.63 1.87.39-1.9.12 1.7.88-1.88-.4 1.4 1.3-1.69-.88 1 1.63-1.4-1.3.52 1.83L5.5 6.8v1.9L5 6.88Z" fill="#f7fcff"/><path d="M-.49 15.47 20.8.76v4.8L-.5 15.45Z" fill="#fff"/><path d="M-.49 15.47 20.8-3v4.8L-.5 15.46Z" fill="#e2ae57"/></svg>