<svg xmlns="http://www.w3.org/2000/svg" width="1760" height="15" fill="transparent" viewBox="0 0 1760 15"><g clip-path="url(#a)"><g clip-path="url(#b)"><mask id="c" width="20" height="15" x="0" y="0" maskUnits="userSpaceOnUse" style="mask-type:luminance"><path fill="#fff" d="M0 0h20v15H0z"/></mask><g mask="url(#c)"><path fill="#F50100" fill-rule="evenodd" d="M0 0v15h20V0H0Z" clip-rule="evenodd"/><mask id="d" width="20" height="15" x="0" y="0" maskUnits="userSpaceOnUse" style="mask-type:luminance"><path fill="#fff" fill-rule="evenodd" d="M0 0v15h20V0H0Z" clip-rule="evenodd"/></mask><g fill="#FFD018" mask="url(#d)"><path fill-rule="evenodd" d="M0-.026v2.552l8.75 3.72L2.035-.026H0ZM10 7.5 11.875 0h-3.75L10 7.5Zm0 0L8.125 15h3.75L10 7.5ZM0 12.47v2.552h2.035L8.75 8.75 0 12.47Zm20-9.928V-.011h-2.035L11.25 6.261 20 2.541Zm0 12.495v-2.552l-8.75-3.72 6.715 6.272H20Zm0-9.412L12.5 7.5 20 9.375v-3.75ZM7.5 7.5 0 5.625v3.75L7.5 7.5Z" clip-rule="evenodd"/><path stroke="#F50100" stroke-width="1.25" d="M10 10.625a3.125 3.125 0 1 0 0-6.25 3.125 3.125 0 0 0 0 6.25Z"/></g></g></g><g clip-path="url(#e)"><mask id="f" width="20" height="15" x="60" y="0" maskUnits="userSpaceOnUse" style="mask-type:luminance"><path fill="#fff" d="M60 0h20v15H60z"/></mask><g fill-rule="evenodd" clip-rule="evenodd" mask="url(#f)"><path fill="#FBCD17" d="M66 0h8v15h-8V0Z"/><path fill="#E11C1B" d="M74 0h6v15h-6V0Z"/><path fill="#0B9E7A" d="M60 0h6v15h-6V0Z"/></g></g><g clip-path="url(#g)"><mask id="h" width="20" height="15" x="120" y="0" maskUnits="userSpaceOnUse" style="mask-type:luminance"><path fill="#fff" d="M120 0h20v15h-20z"/></mask><g fill-rule="evenodd" clip-rule="evenodd" mask="url(#h)"><path fill="#E31D1C" d="M120 10h20v5h-20v-5Z"/><path fill="#5EAA22" d="M120 5h20v5h-20V5Z"/><path fill="#FFD018" d="M120 0h20v5h-20V0Z"/><path fill="#F7FCFF" d="m130.039 9.985-3.22 2.046 1.08-3.583-2.296-2.34 3.166-.07 1.4-3.537 1.277 3.584 3.158.055-2.374 2.384 1.109 3.409-3.3-1.948Z"/></g></g><g clip-path="url(#i)"><mask id="j" width="20" height="15" x="180" y="0" maskUnits="userSpaceOnUse" style="mask-type:luminance"><path fill="#fff" d="M180 0h20v15h-20z"/></mask><g fill-rule="evenodd" clip-rule="evenodd" mask="url(#j)"><path fill="#4C67E8" d="M186 0h8v15h-8V0Z"/><path fill="#C51918" d="M193 0h7v15h-7V0Zm-13 0h8v15h-8V0Z"/><path fill="#F8D000" d="M183.759 4.303c-.634 0-.551-.617-.551-.617l.301-.649v.649c0 .083.114-.084.114-.285 0-.2.136-.501.136-.501l.009-.2a.581.581 0 0 0 .132.162l.036.038c.079.08.068.292.059.476-.008.167-.015.31.046.31.128 0 .119-.575.119-.575l.215.575s.017.617-.616.617Zm0-1.763c.016-.094.014.032.009.16a.273.273 0 0 1-.009-.16Zm.953 2.887c0 .502-.42.909-.938.909s-.937-.407-.937-.909c0-.501.419-.908.937-.908s.938.407.938.908Zm-2.356 1.7h-1.106v5.358h1.106V7.128Zm3.894 0h-1.106v5.358h1.106V7.128Zm-3.606.047 1.078.668 1.215-.668h-2.293Zm1.078 5.326-1.078-.667h2.293l-1.215.667Zm-1.078-4.44h2.26v.419h-2.26v-.42Zm2.26 3.12h-2.26v.42h2.26v-.42Zm-1.106-.232c.637 0 1.154-.501 1.154-1.118 0-.618-.517-1.118-1.154-1.118-.637 0-1.154.5-1.154 1.118 0 .617.517 1.118 1.154 1.118Zm-1.296-5.188s.039 1.167 1.189 1.167c1.15 0 1.336-1.167 1.336-1.167s-.445.715-1.262.715c-.818 0-1.263-.715-1.263-.715Z"/></g></g><g clip-path="url(#k)"><mask id="l" width="20" height="15" x="240" y="0" maskUnits="userSpaceOnUse" style="mask-type:luminance"><path fill="#fff" d="M240 0h20v15h-20z"/></mask><g mask="url(#l)"><path fill="#1C9975" fill-rule="evenodd" d="M240 0v15h20V0h-20Z" clip-rule="evenodd"/><mask id="m" width="20" height="15" x="240" y="0" maskUnits="userSpaceOnUse" style="mask-type:luminance"><path fill="#fff" fill-rule="evenodd" d="M240 0v15h20V0h-20Z" clip-rule="evenodd"/></mask><g mask="url(#m)"><path fill="#FECA00" fill-rule="evenodd" d="m250.013 4.284-1.021.616.233-1.203-.85-.9 1.151-.049.487-1.123.488 1.123h1.149l-.848.95.255 1.202-1.044-.616Zm-2.899.456-.631.381.144-.743-.526-.557.712-.03.301-.695.301.695h.711l-.524.587.157.743-.645-.38Zm5.749 0-.631.381.144-.743-.526-.557.712-.03.301-.695.301.695h.711l-.525.587.158.743-.645-.38Zm-7.384 1.267-.507.306.116-.597-.422-.447.571-.024.242-.558.242.558h.57l-.421.47.127.598-.518-.306Zm9.246 0-.506.306.115-.597-.422-.447.572-.024.241-.558.242.558h.57l-.421.47.127.598-.518-.306Z" clip-rule="evenodd"/><mask id="n" width="10" height="11" x="245" y="3" maskUnits="userSpaceOnUse" style="mask-type:luminance"><path fill="#fff" fill-rule="evenodd" d="M250 13.75a5 5 0 1 0 0-10 5 5 0 0 0 0 10Z" clip-rule="evenodd"/></mask><g fill="#F7FCFF" mask="url(#n)"><path fill-rule="evenodd" d="M247.926 13.165h4.148v.67h-4.148v-.67Zm-1.703-1.002h7.979v.614h-7.979v-.614Z" clip-rule="evenodd"/><path d="M247.888 11.888h-2.441v-.625h2.436c.863-.012 1.494-.259 1.915-.733l.209-.236.234.212c.562.51 1.123.757 1.691.757h2.69v.625h-2.69c-.652 0-1.282-.246-1.884-.726-.533.473-1.257.713-2.16.726Z"/></g><path fill="#F7FCFF" fill-rule="evenodd" d="M250.022 4.755s-1.068 1.055-1.068 2.503c0 .31.049.602.126.871-.344-.763-.368-1.59-.071-2.491l-.405-.134c-.302.918-.303 1.78-.003 2.58a5.13 5.13 0 0 0-2.067-.706l-.047.423a4.714 4.714 0 0 1 1.814.6 3.336 3.336 0 0 0-.425-.14c-1.352-.344-2.678.145-2.678.145s.765 1.716 2.246 1.97c.074.012.147.022.219.03h-.011c-.706 0-1.363-.29-1.979-.877l-.293.308c.691.66 1.451.994 2.272.994.803 0 1.549-.32 2.231-.95.11-.067.173-.114.184-.122l.027.023-.022.038s.068.04.189.098c.673.521 1.515.913 2.181.913.822 0 1.582-.335 2.273-.994l-.294-.308c-.615.587-1.272.876-1.979.876a2.35 2.35 0 0 1-.759-.125c.348.019.73-.012 1.126-.133 1.46-.447 2.069-1.797 2.069-1.797s-.777-.419-1.764-.423c.221-.057.452-.1.693-.126l-.047-.423c-.925.103-1.726.415-2.397.936.392-.863.423-1.803.092-2.81l-.405.134c.271.822.275 1.581.013 2.287.045-.209.072-.432.072-.667 0-1.527-1.113-2.503-1.113-2.503Zm.47 4.467-.016.023.019-.023h-.003Zm-1.033-.1.042-.038c.038.063.076.123.113.178a3.993 3.993 0 0 0-.155-.14Z" clip-rule="evenodd"/></g></g></g><g clip-path="url(#o)"><mask id="p" width="20" height="15" x="300" y="0" maskUnits="userSpaceOnUse" style="mask-type:luminance"><path fill="#fff" d="M300 0h20v15h-20z"/></mask><g mask="url(#p)"><path fill="#2993EC" fill-rule="evenodd" d="M300 0h21.25v15H300V0Z" clip-rule="evenodd"/><path fill="#F1F9FF" fill-rule="evenodd" d="M303.883 7.24c0 3.307 2.739 5.99 6.117 5.99s6.117-2.683 6.117-5.99c0-3.308-2.739-5.99-6.117-5.99s-6.117 2.682-6.117 5.99Zm10.904 0c0 2.588-2.143 4.687-4.787 4.687s-4.787-2.099-4.787-4.687c0-2.59 2.143-4.688 4.787-4.688s4.787 2.099 4.787 4.688Z" clip-rule="evenodd"/><path fill="#E31D1C" fill-rule="evenodd" d="M304.415 7.24c0 3.02 2.5 5.468 5.585 5.468 3.084 0 5.585-2.448 5.585-5.469 0-3.02-2.501-5.468-5.585-5.468-3.085 0-5.585 2.448-5.585 5.468Zm10.904 0c0 2.876-2.381 5.208-5.319 5.208s-5.319-2.332-5.319-5.209c0-2.876 2.381-5.208 5.319-5.208s5.319 2.332 5.319 5.208Z" clip-rule="evenodd"/><path fill="#FDDA33" fill-rule="evenodd" d="M310 1.38c-.067.14-.101.337-.101.593 0 .257-.099.513-.298.77a5.975 5.975 0 0 1-.055-.77c0-.23.151-.428.454-.593Zm1.398.212c-.097.12-.175.305-.232.555-.058.25-.212.478-.464.683a6.02 6.02 0 0 1 .12-.762c.051-.225.243-.383.576-.476Zm.96 1.013c.116-.229.236-.39.36-.483-.345.01-.57.117-.675.323a6.187 6.187 0 0 0-.3.71c.294-.138.499-.322.615-.55Zm1.511.322c-.141.064-.294.194-.458.39-.165.196-.406.329-.723.398a5.94 5.94 0 0 1 .452-.625c.148-.177.391-.23.729-.163Zm.398 1.32c.205-.154.383-.246.535-.276-.314-.142-.563-.144-.747-.006a6.045 6.045 0 0 0-.582.508c.325.004.59-.071.794-.226Zm1.2.963c-.155-.008-.35.039-.586.139s-.511.109-.825.026c.246-.144.475-.261.687-.351.212-.09.453-.028.724.186Zm-.247 1.347c.253-.045.453-.046.602-.004-.215-.27-.436-.384-.663-.344-.227.04-.476.103-.749.188.288.151.558.204.81.16Zm-11.418-.451c.126.09.315.158.567.203.253.044.488.186.707.427a6.007 6.007 0 0 1-.768-.08c-.227-.04-.395-.223-.506-.55Zm.961-.99c-.236-.1-.405-.208-.506-.324.033.343.156.56.368.65.212.09.456.173.731.25-.159-.283-.357-.475-.593-.575Zm.254-1.508c.071.138.208.284.413.438.205.155.35.388.436.701a5.925 5.925 0 0 1-.649-.419c-.184-.138-.25-.378-.2-.72Zm1.311-.453c-.165-.196-.266-.37-.304-.52-.126.322-.115.57.034.747.148.176.327.361.537.554-.013-.324-.102-.585-.267-.781Zm.905-1.24c.003.156.063.347.179.575.117.229.145.503.084.822a6.108 6.108 0 0 1-.399-.661c-.104-.206-.059-.45.136-.735Zm1.393.175c-.058-.25-.07-.45-.035-.6-.258.229-.361.455-.309.68.051.224.127.47.227.738.135-.295.174-.568.117-.818Z" clip-rule="evenodd"/><path fill="#A7A7A7" fill-rule="evenodd" d="M309.116 3.594a.359.359 0 0 0-.35.436l.241 1.104a.361.361 0 0 0 .161.228.358.358 0 0 0-.137.241l-.867 7.279a.332.332 0 0 0 .161.33c.326.187 1.034.538 1.741.538.708 0 1.416-.35 1.742-.537a.332.332 0 0 0 .161-.331l-.868-7.279a.353.353 0 0 0-.136-.241.36.36 0 0 0 .161-.228l.241-1.104a.359.359 0 0 0-.35-.436h-1.901Z" clip-rule="evenodd"/><path fill="#73BE4A" d="M304.074 7.508a.201.201 0 0 1 .25-.13.195.195 0 0 1 .132.244c-.056.179-.056.442.006.787a1.673 1.673 0 0 0 .133.435l.049.105a.96.96 0 0 1 .086.427.197.197 0 0 1-.199.195.197.197 0 0 1-.2-.195.595.595 0 0 0-.053-.271l-.046-.1a2.099 2.099 0 0 1-.163-.529c-.072-.4-.072-.721.005-.968Z"/><path fill="#F7FCFF" fill-rule="evenodd" d="m310.133 10.112-2.572 1.752.908-2.936-2.497-1.853 3.132-.063 1.029-2.897 1.029 2.897 3.132.063-2.497 1.853.908 2.936-2.572-1.752Z" clip-rule="evenodd"/><path fill="#73BE4A" d="M315.975 7.768a.2.2 0 0 0-.249-.13.195.195 0 0 0-.133.245c.056.178.056.442-.006.787a1.673 1.673 0 0 1-.133.434l-.049.106a.96.96 0 0 0-.086.426c0 .108.089.195.2.195.11 0 .199-.087.199-.195 0-.118.015-.184.053-.271l.046-.1a2.099 2.099 0 0 0 .163-.529c.072-.4.072-.72-.005-.968Z"/><path stroke="#73BE4A" stroke-linecap="round" stroke-linejoin="round" stroke-width=".625" d="M310.038 1.967s.728.324.414.835m.118-.835s.728.324.413.835"/><path fill="#73BE4A" d="M305.787 3.973a.172.172 0 0 1 .248-.061.205.205 0 0 1 .056.269c-.101.175-.154.415-.154.724 0 .108-.08.195-.179.195-.099 0-.18-.087-.18-.195 0-.377.069-.688.209-.932Z"/><path fill="#73BE4A" d="M305.505 5.758c0 .108-.08.195-.179.195-.099 0-.18-.087-.18-.195v-.556c0-.394.062-.704.192-.93a.172.172 0 0 1 .248-.063.206.206 0 0 1 .057.27c-.09.155-.138.396-.138.723v.556Zm9.173-.261c0 .108.08.196.179.196.099 0 .18-.088.18-.196v-.556c0-.394-.062-.704-.192-.93a.172.172 0 0 0-.248-.062.206.206 0 0 0-.057.27c.09.154.138.395.138.722v.556Z"/><path fill="#73BE4A" d="M315.21 6.409c0 .108.08.195.179.195.099 0 .18-.087.18-.195v-.556c0-.394-.062-.704-.192-.93a.172.172 0 0 0-.248-.062.206.206 0 0 0-.057.269c.09.155.138.396.138.723v.556Z"/></g></g><g clip-path="url(#q)"><mask id="r" width="20" height="15" x="360" y="0" maskUnits="userSpaceOnUse" style="mask-type:luminance"><path fill="#fff" d="M360 0h20v15h-20z"/></mask><g fill-rule="evenodd" clip-rule="evenodd" mask="url(#r)"><path fill="#F50100" d="M374 0h6v15h-6V0Z"/><path fill="#2E42A5" d="M360 0h8v15h-8V0Z"/><path fill="#F7FCFF" d="M366 0h8v15h-8V0Z"/></g></g><g clip-path="url(#s)"><path fill="#21428E" d="M420 0h20v15h-20z"/><path fill="#F7FCFF" fill-rule="evenodd" d="M428.75 0h2.5v6.25H440v2.5h-8.75V15h-2.5V8.75H420v-2.5h8.75V0Z" clip-rule="evenodd"/><path fill="#fff" d="m421.597 3.962-.047-.007c.016 0 .032.002.047.007.277.045.763.096.809-.007.061-.138.291-.78 1.116-.765.825.016 1.513-.153 1.513-.688 0-.544-.244-.565-.733-.428-.49.138-1.294.04-1.315-.275-.014-.209-.943-.089-.935-.255.003-.063.847-.071.957-.198.08-.204.3-.32.819-.311.84.015 1.941.29 2.048 1.04.122.855.122 1.39-.841 1.604-.91.203-1.207.153-1.07.276.292.259 1.911-.26 2.507 0 .351.152.474 1.13-.688 1.146-1.161.015-1.987.184-2.583-.275-.596-.459-.245-.275-.795-.367-.505-.084-.637-.439-.809-.497Zm0 8.848-.047-.008a.15.15 0 0 1 .047.008c.277.044.763.096.809-.008.061-.138.291-.78 1.116-.764.825.015 1.513-.153 1.513-.688 0-.544-.244-.566-.733-.428-.49.137-1.294.04-1.315-.275-.014-.21-.943-.09-.935-.256.003-.063.847-.07.957-.197.08-.204.3-.321.819-.312.84.016 1.941.29 2.048 1.04.122.856.122 1.39-.841 1.605-.91.202-1.207.153-1.07.275.292.259 1.911-.26 2.507 0 .351.153.474 1.131-.688 1.146-1.161.016-1.987.184-2.583-.275-.596-.458-.245-.275-.795-.367-.505-.084-.637-.439-.809-.496Zm11.465-8.848-.047-.007c.016 0 .032.002.047.007.278.045.763.096.809-.007.061-.138.291-.78 1.116-.765.826.016 1.513-.153 1.513-.688 0-.544-.244-.565-.733-.428-.49.138-1.294.04-1.315-.275-.014-.209-.943-.089-.935-.255.003-.063.848-.071.957-.198.08-.204.301-.32.819-.311.841.015 1.941.29 2.048 1.04.122.855.122 1.39-.841 1.604-.91.203-1.207.153-1.07.276.292.259 1.911-.26 2.507 0 .351.152.474 1.13-.688 1.146-1.161.015-1.987.184-2.583-.275-.596-.459-.245-.275-.795-.367-.505-.084-.637-.439-.809-.497Zm0 8.848-.047-.008a.15.15 0 0 1 .047.008c.278.044.763.096.809-.008.061-.138.291-.78 1.116-.764.826.015 1.513-.153 1.513-.688 0-.544-.244-.566-.733-.428-.49.137-1.294.04-1.315-.275-.014-.21-.943-.09-.935-.256.003-.063.848-.07.957-.197.08-.204.301-.321.819-.312.841.016 1.941.29 2.048 1.04.122.856.122 1.39-.841 1.605-.91.202-1.207.153-1.07.275.292.259 1.911-.26 2.507 0 .351.153.474 1.131-.688 1.146-1.161.016-1.987.184-2.583-.275-.596-.458-.245-.275-.795-.367-.505-.084-.637-.439-.809-.496Z"/></g><g clip-path="url(#t)"><mask id="u" width="20" height="15" x="480" y="0" maskUnits="userSpaceOnUse" style="mask-type:luminance"><path fill="#fff" d="M480 0h20v15h-20z"/></mask><g mask="url(#u)"><path fill="#1C7B4D" fill-rule="evenodd" d="M480 0v15h20V0h-20Z" clip-rule="evenodd"/><mask id="v" width="20" height="15" x="480" y="0" maskUnits="userSpaceOnUse" style="mask-type:luminance"><path fill="#fff" fill-rule="evenodd" d="M480 0v15h20V0h-20Z" clip-rule="evenodd"/></mask><g fill-rule="evenodd" clip-rule="evenodd" mask="url(#v)"><path fill="#E31D1C" d="M480 0v3.75h20V0h-20Zm0 11.25V15h20v-3.75h-20Z"/><path fill="#FECA00" d="M490.151 8.987c3.241.018 4.154-2.696 4.154-2.696-.184 2.322-1.468 3.896-4.154 3.896-2.685 0-3.672-2.04-4.153-4.074 0 0 .913 2.856 4.153 2.874Z"/><path fill="#FECA00" d="m491.023 6.134.211 1.227-1.102-.58-1.103.58.211-1.227-.892-.959h1.233l.551-1.206.551 1.206h1.232l-.892.959Z"/></g></g></g><g clip-path="url(#w)"><mask id="x" width="20" height="15" x="540" y="0" maskUnits="userSpaceOnUse" style="mask-type:luminance"><path fill="#fff" d="M540 0h20v15h-20z"/></mask><g mask="url(#x)"><path fill="#2E42A5" fill-rule="evenodd" d="M540 0v15h20V0h-20Z" clip-rule="evenodd"/><mask id="y" width="20" height="15" x="540" y="0" maskUnits="userSpaceOnUse" style="mask-type:luminance"><path fill="#fff" fill-rule="evenodd" d="M540 0v15h20V0h-20Z" clip-rule="evenodd"/></mask><g mask="url(#y)"><path fill="#2E42A5" d="M540 0h11v9h-11z"/><mask id="z" width="11" height="9" x="540" y="0" maskUnits="userSpaceOnUse" style="mask-type:luminance"><path fill="#fff" d="M540 0h11v9h-11z"/></mask><g mask="url(#z)"><path fill="#F7FCFF" d="m538.747 8.125 2.476 1.086 10.083-8.03 1.306-1.614-2.647-.363-4.113 3.46-3.31 2.332-3.795 3.129Z"/><path fill="#F50100" d="m539.086 8.886 1.261.63L552.143-.583h-1.771l-11.286 9.469Z"/><path fill="#F7FCFF" d="m552.503 8.125-2.197 1.396-10.362-8.34-1.306-1.614 2.647-.363 4.113 3.46 3.31 2.332 3.795 3.129Z"/><path fill="#F50100" d="m552.418 8.67-1.261.63-5.023-4.323-1.489-.483-6.133-4.922h1.771l6.13 4.805 1.628.58 4.377 3.714Z"/><mask id="A" width="13" height="11" x="539" y="-1" fill="#000" maskUnits="userSpaceOnUse"><path fill="#fff" d="M539-1h13v11h-13z"/><path fill-rule="evenodd" d="M546 0h-1v4h-5v1h5v4h1V5h5V4h-5V0Z" clip-rule="evenodd"/></mask><path fill="#F50100" fill-rule="evenodd" d="M546 0h-1v4h-5v1h5v4h1V5h5V4h-5V0Z" clip-rule="evenodd"/><path fill="#F7FCFF" d="M545 0v-.938h-.938V0H545Zm1 0h.938v-.938H546V0Zm-1 4v.938h.938V4H545Zm-5 0v-.938h-.938V4H540Zm0 1h-.938v.938H540V5Zm5 0h.938v-.938H545V5Zm0 4h-.938v.938H545V9Zm1 0v.938h.938V9H546Zm0-4v-.938h-.938V5H546Zm5 0v.938h.938V5H551Zm0-1h.938v-.938H551V4Zm-5 0h-.938v.938H546V4Zm-1-3.063h1V-.938h-1V.938ZM545.938 4V0h-1.876v4h1.876ZM540 4.938h5V3.063h-5v1.874Zm.938.062V4h-1.876v1h1.876ZM545 4.062h-5v1.875h5V4.063ZM545.938 9V5h-1.876v4h1.876Zm.062-.938h-1v1.876h1V8.062ZM545.062 5v4h1.876V5h-1.876ZM551 4.062h-5v1.875h5V4.063ZM550.062 4v1h1.876V4h-1.876ZM546 4.938h5V3.063h-5v1.874ZM545.062 0v4h1.876V0h-1.876Z" mask="url(#A)"/></g><path fill="#6DC2FF" stroke="#F7FCFF" stroke-width=".5" d="M556.205 13.478c-.795 0-1.341-.181-1.726-.49-.386-.308-.642-.77-.807-1.395-.166-.627-.234-1.398-.26-2.3a62.487 62.487 0 0 1-.011-2.057l.003-.715h5.677c.101 1.788.132 3.514-.228 4.81-.187.67-.473 1.203-.889 1.568-.412.36-.975.579-1.759.579Z"/><mask id="B" width="7" height="8" x="553" y="6" maskUnits="userSpaceOnUse" style="mask-type:luminance"><path fill="#fff" stroke="#fff" stroke-width=".5" d="M556.205 13.478c-.795 0-1.341-.181-1.726-.49-.386-.308-.642-.77-.807-1.395-.166-.627-.234-1.398-.26-2.3a62.487 62.487 0 0 1-.011-2.057l.003-.715h5.677c.101 1.788.132 3.514-.228 4.81-.187.67-.473 1.203-.889 1.568-.412.36-.975.579-1.759.579Z"/></mask><g mask="url(#B)"><path fill="#2EBED7" d="M553.083 6.25h6.294v4.986h-6.294z"/><path fill="#A95601" d="M553 11.196h6.625v2.554H553z"/><path stroke="#FFC6B5" stroke-width=".625" d="M556.716 8.415s-1.167.265-1.054 0c.113-.265.415-1.22.415-1.22"/><path fill="#FFC6B5" fill-rule="evenodd" d="M557.067 8.604s-.213-.13-.213-.368-.519-.327-.153-.698c.366-.371.524-.208.524 0s.294.698.294.698l-.452.368Z" clip-rule="evenodd"/><path fill="#272727" fill-rule="evenodd" d="M556.478 6.453h-.58v.567h-1.159v.568h1.159v4.946h.58V7.588h1.159V7.02h-1.159v-.567Z" clip-rule="evenodd"/><path fill="#0C7C38" fill-rule="evenodd" d="M557.726 12.7s-.21-.975-.21-1.643-.354-1.146-.253-1.5c.101-.353.344-.743.223-.985-.122-.242.118-.36-.223-.242-.341.118-.433-.118-.762 0-.33.118-.371.674-.371.832 0 .159.146 1.228.146 1.561 0 .334-.121 2.384.225 2.384.345 0 .722-.534.853-.534.132 0 .372.128.372.128Z" clip-rule="evenodd"/><path stroke="#FF9A06" stroke-width=".625" d="M555.644 10.088c-.211 0-.017.49-.553.704-.536.214-.641.516-.472.516.169 0 1.503 1.5 1.503 1.5l.327-.507v-1.597s-.595-.616-.805-.616Z" clip-rule="evenodd"/><path stroke="#979797" stroke-width=".625" d="M557.215 12.599s.25.536 0 .536"/><path stroke="#FFC6B5" stroke-width=".625" d="M557.134 8.619s-.11.602-.319.728c-.209.126-1.068.37-1.068.578 0 .208-.085.282-.085.282"/><path fill="#FF9A06" fill-rule="evenodd" d="M556.718 7.376s.21.25.327.662c.118.412.459.552.459.36 0-.193.252-1.022 0-1.022h-.786Z" clip-rule="evenodd"/></g></g></g></g><g clip-path="url(#C)"><path fill="#F7FCFF" d="M600 0h20v15h-20z"/><mask id="D" width="20" height="15" x="600" y="0" maskUnits="userSpaceOnUse" style="mask-type:luminance"><path fill="#fff" d="M600 0h20v15h-20z"/></mask><g mask="url(#D)"><mask id="E" fill="#fff"><path fill-rule="evenodd" d="M606.25 3.8h-2.5v1.87a.625.625 0 0 0-.48.609V6.3h-2.02v2.5h2.082c.08.167.233.293.418.337V11.3h2.5V9.145a.627.627 0 0 0 .458-.345h2.042V6.3h-1.981l.001-.021a.625.625 0 0 0-.52-.617V3.8Z" clip-rule="evenodd"/></mask><path fill="#A0A0A0" fill-rule="evenodd" d="M606.25 3.8h-2.5v1.87a.625.625 0 0 0-.48.609V6.3h-2.02v2.5h2.082c.08.167.233.293.418.337V11.3h2.5V9.145a.627.627 0 0 0 .458-.345h2.042V6.3h-1.981l.001-.021a.625.625 0 0 0-.52-.617V3.8Z" clip-rule="evenodd"/><path fill="#FECA00" d="M603.75 3.8v-.625h-.625V3.8h.625Zm2.5 0h.625v-.625h-.625V3.8Zm-2.5 1.87.144.609.481-.115V5.67h-.625Zm-.48.63v.625h.647l-.022-.646-.625.021Zm-2.02 0v-.625h-.625V6.3h.625Zm0 2.5h-.625v.625h.625V8.8Zm2.082 0 .562-.272-.17-.353h-.392V8.8Zm.418.337h.625v-.494l-.481-.114-.144.608Zm0 2.163h-.625v.625h.625V11.3Zm2.5 0v.625h.625V11.3h-.625Zm0-2.155-.104-.617-.521.089v.528h.625Zm.458-.345v-.625h-.392l-.171.353.563.272Zm2.042 0v.625h.625V8.8h-.625Zm0-2.5h.625v-.625h-.625V6.3Zm-1.981 0-.624-.021-.022.646h.646V6.3Zm-.519-.638h-.625v.528l.521.089.104-.617Zm-2.5-1.237h2.5v-1.25h-2.5v1.25Zm.625 1.245V3.8h-1.25v1.87h1.25Zm-.48.609h-.001l-.288-1.217a1.25 1.25 0 0 0-.961 1.217h1.25Zm0 0h-1.25l.001.042 1.249-.042Zm-2.645.646h2.02v-1.25h-2.02v1.25Zm.625 1.875V6.3h-1.25v2.5h1.25Zm1.457-.625h-2.082v1.25h2.082v-1.25Zm.562.354-1.125.543c.161.333.466.585.837.673l.288-1.216Zm.481 2.771V9.137h-1.25V11.3h1.25Zm1.875-.625h-2.5v1.25h2.5v-1.25Zm-.625-1.53V11.3h1.25V9.145h-1.25Zm.729.616a1.25 1.25 0 0 0 .917-.69l-1.126-.543h.001l.208 1.233Zm2.396-1.586h-2.042v1.25h2.042v-1.25Zm-.625-1.875v2.5h1.25V6.3h-1.25Zm-1.356.625h1.981v-1.25h-1.981v1.25Zm-.624-.646 1.249.042.001-.042h-1.25Zm.001 0h-.001 1.25c0-.62-.45-1.133-1.041-1.233l-.208 1.233Zm-.521-2.479v1.862h1.25V3.8h-1.25Z" mask="url(#E)"/><path fill="#E31D1C" fill-rule="evenodd" d="M610 0h10v15h-10V0Z" clip-rule="evenodd"/></g></g><g clip-path="url(#F)"><mask id="G" width="20" height="15" x="660" y="0" maskUnits="userSpaceOnUse" style="mask-type:luminance"><path fill="#fff" d="M660 0h20v15h-20z"/></mask><g mask="url(#G)"><path fill="#579D20" fill-rule="evenodd" d="M660 0v15h20V0h-20Z" clip-rule="evenodd"/><mask id="H" width="20" height="15" x="660" y="0" maskUnits="userSpaceOnUse" style="mask-type:luminance"><path fill="#fff" fill-rule="evenodd" d="M660 0v15h20V0h-20Z" clip-rule="evenodd"/></mask><g fill-rule="evenodd" clip-rule="evenodd" mask="url(#H)"><path fill="#FECA00" d="M660 7.5v3.75h20V7.5h-20Z"/><path fill="#3D58DB" d="M660 3.75V7.5h20V3.75h-20Z"/><path fill="#E11C1B" d="M660 0v3.75h20V0h-20Z"/></g></g></g><g clip-path="url(#I)"><mask id="J" width="20" height="15" x="720" y="0" maskUnits="userSpaceOnUse" style="mask-type:luminance"><path fill="#fff" d="M720 0h20v15h-20z"/></mask><g mask="url(#J)"><path fill="#C51918" fill-rule="evenodd" d="M720 0h20v13.75c0 .69-.56 1.25-1.25 1.25h-17.5c-.69 0-1.25-.56-1.25-1.25V0Z" clip-rule="evenodd"/><path fill="#C51918" fill-rule="evenodd" d="M720 0h20v15h-20V0Z" clip-rule="evenodd"/><path fill="#579D20" fill-rule="evenodd" d="M723 3h14v9h-14V3Z" clip-rule="evenodd"/><path stroke="#B6EB9A" stroke-opacity=".238" stroke-width="1.25" d="M723.625 3.625h12.75v7.75h-12.75v-7.75Z"/><mask id="K" width="14" height="9" x="723" y="3" maskUnits="userSpaceOnUse" style="mask-type:luminance"><path fill="#fff" fill-rule="evenodd" d="M723 3h14v9h-14V3Z" clip-rule="evenodd"/><path stroke="#fff" stroke-width="1.25" d="M723.625 3.625h12.75v7.75h-12.75v-7.75Z"/></mask><g mask="url(#K)"><path fill="#F9FAFA" fill-rule="evenodd" d="M730.021 7.79c-.011 1.915 1.497 2.937 1.497 2.937-1.721.202-2.866-1.358-2.866-2.92 0-1.56 1.561-2.85 2.866-3.431 0 0-1.487 1.497-1.497 3.413Z" clip-rule="evenodd"/></g></g></g><g clip-path="url(#L)"><mask id="M" width="20" height="15" x="780" y="0" maskUnits="userSpaceOnUse" style="mask-type:luminance"><path fill="#fff" d="M780 0h20v15h-20z"/></mask><g mask="url(#M)"><path fill="#E11C1B" fill-rule="evenodd" d="M780 0v15h20V0h-20Z" clip-rule="evenodd"/><mask id="N" width="20" height="15" x="780" y="0" maskUnits="userSpaceOnUse" style="mask-type:luminance"><path fill="#fff" fill-rule="evenodd" d="M780 0v15h20V0h-20Z" clip-rule="evenodd"/></mask><g fill-rule="evenodd" clip-rule="evenodd" mask="url(#N)"><path fill="#272727" d="M780 0v6h20V0h-20Z"/><path fill="#5EAA22" d="M780 10v5h20v-5h-20Z"/><path fill="#E11C1B" d="M782.501 8.666v-.001h-.006l.006.001Zm.393-2.387h.064l-.099-.015.035.015Zm1.829 0c.033-.063.067-.125.103-.186l-1.431-.948 1.688.55a4.92 4.92 0 0 1 .303-.384l-1.24-1.181 1.58.825c.116-.11.238-.217.364-.319l-1.003-1.385 1.417 1.083c.132-.087.268-.17.408-.248l-.722-1.55 1.196 1.313c.143-.064.289-.123.438-.176l-.407-1.665.927 1.502c.149-.04.301-.075.455-.104l-.068-1.722.616 1.64c.152-.017.306-.028.462-.034l.279-1.715.279 1.715c.156.007.309.018.461.035l.617-1.641-.068 1.724c.154.03.305.065.453.105l.929-1.505-.408 1.669a6.4 6.4 0 0 1 .435.176l1.2-1.317-.725 1.555c.139.078.275.16.405.248l1.423-1.088-1.008 1.392c.126.1.246.206.361.316l1.588-.829-1.247 1.187a5.1 5.1 0 0 1 .3.38l1.698-.552-1.44.953c.035.06.068.12.099.181h-1.228c-.846-1.173-2.393-1.958-4.161-1.958-1.768 0-3.315.785-4.161 1.958h-1.167Zm1.877 0c.802-.827 2.061-1.36 3.476-1.36 1.416 0 2.675.533 3.477 1.36H786.6Zm10.618 0h.064l.035-.015-.099.015Zm.458 2.386h.005l-.005.001v-.001Z"/></g></g></g><g clip-path="url(#O)"><mask id="P" width="20" height="15" x="840" y="0" maskUnits="userSpaceOnUse" style="mask-type:luminance"><path fill="#fff" d="M840 0h20v15h-20z"/></mask><g mask="url(#P)"><path fill="#D9071E" fill-rule="evenodd" d="M854 0h6v15h-6V0Z" clip-rule="evenodd"/><path fill="#006923" fill-rule="evenodd" d="M840 0h6v15h-6V0Z" clip-rule="evenodd"/><path fill="#fff" fill-rule="evenodd" d="M846 0h8v15h-8V0Z" clip-rule="evenodd"/><path fill="#FCCA3D" fill-rule="evenodd" d="M848.99 4.946s-.429.333-.349.688c.08.355.926 0 .824-.344-.102-.344-.475-.344-.475-.344Z" clip-rule="evenodd"/><path fill="#A8AC71" fill-rule="evenodd" d="M848.335 5.793c-.322 0-.455-.268-.389-.553.036-.152.128-.344.278-.595l.536.322a3.783 3.783 0 0 0-.137.247c.112.033.223.082.313.141.292.193.399.535.087.789-.061.049-.159.216-.213.377a.736.736 0 0 1 .354.09c.276.163.25.46.04.69a1.404 1.404 0 0 1-.536.364c-.312.113-.646.07-.646-.33v-.003c-.001-.016-.002-.044.138-.047m.006 0h-.006c-.238-.004-.289-.13-.319-.354a2.496 2.496 0 0 1-.014-.227l-.003-.076-.003-.074-.001-.016c-.005-.072-.008-.122.153-.122h-.362V5.79h.362c.206 0 .32.07.385.213.036-.065.075-.127.117-.182a.48.48 0 0 0-.14-.03m-.169 1.493h.021-.021Zm.567-.395.009-.01a.027.027 0 0 0-.003.004l-.006.006Zm-.274.186h.001-.001Zm.001-.236.001.01-.002-.019.001.01Z" clip-rule="evenodd"/><path fill="#8F4620" fill-rule="evenodd" d="M852.041 7.752s.579-1.714-.34-2.6c-.919-.887-1.981-.828-1.981-.828s-.306.227 0 .4c.306.174.177.34.177.34s-.512-.52-.852-.216c-.34.304.318.257.248.486-.07.229-.364 1.245.066 1.757.431.513-.407.402-.236.402.17 0 .774.12.774 0s.21.464.39.464c.18 0 .319-.205.319-.205s.252.205.406.205c.153 0 .689-.134.689-.134l-1.013-.853s.061-.376-.082-.458c-.144-.081 1.151.722 1.252.98.102.26.183.26.183.26Z" clip-rule="evenodd"/><path fill="#9FAB2F" d="M846.917 7.33s.093-.3.194-.32c.087-.019.27.143.27.143.325 1.806 1.111 2.511 2.416 2.511 1.32 0 2.12-.536 2.586-2.202 0 0 .249-.253.336-.225.096.03.215.366.215.366-.536 1.911-1.547 2.762-3.137 2.762-1.605 0-2.507-.962-2.88-3.036Z"/><path fill="#2FC2DC" fill-rule="evenodd" d="M848.334 8.535s1.877.399 2.619.399c.741 0-.651.605-1.194.605-.543 0-1.425-1.004-1.425-1.004Z" clip-rule="evenodd"/><rect width="1.25" height=".67" x="849.167" y="8.813" fill="#F9AA51" rx=".104"/><path fill="#259485" d="m847.61 7.585.511-.359c.666.95 1.662 1.261 3.055.936l.142.608c-1.628.381-2.887-.014-3.708-1.185Z"/><path fill="#FCCA3D" fill-rule="evenodd" d="M850.369 7.719s-.758.4-.505.4 1.242.199 1.05 0c-.193-.2-.545-.4-.545-.4Zm-.896-.476s-.144-.417-.444-.417c-.3 0-.216.342-.36.342s.134.24.259.24c.124 0 .545-.165.545-.165Z" clip-rule="evenodd"/></g></g><g clip-path="url(#Q)"><mask id="R" width="20" height="15" x="900" y="0" maskUnits="userSpaceOnUse" style="mask-type:luminance"><path fill="#fff" d="M900 0h20v15h-20z"/></mask><g mask="url(#R)"><path fill="#F7FCFF" fill-rule="evenodd" d="M900 0h20v15h-20V0Z" clip-rule="evenodd"/><path fill="#E31D1C" d="M900.017 3.125h20v1.813h-20zm0 3.25h20v1.813h-20zm.053 3.125h20v1.563h-20zm0 3.125h20v1.688h-20z"/><path fill="#E31D1C" fill-rule="evenodd" d="M900 0h20v1.563h-20V0Z" clip-rule="evenodd"/><path fill="#3D58DB" fill-rule="evenodd" d="M900 0h10v8.5h-10V0Z" clip-rule="evenodd"/><path fill="#FECA00" fill-rule="evenodd" d="M902.246 3.876c0 .86.405 1.674 1.229 1.674 1.237 0 1.477-.264 2.054-.628.137.307-.323 1.618-2.071 1.618-1.397-.028-2.527-1.15-2.527-2.664 0-1.736 1.277-2.674 2.492-2.664 1.073 0 2.21.61 2.175 1.385-.505-.493-1.054-.493-1.967-.493s-1.385.912-1.385 1.772Z" clip-rule="evenodd"/><path fill="#FECA00" fill-rule="evenodd" d="m906.875 4.563-.579.845.028-1.025-.966.344.625-.812-.983-.29.983-.29-.625-.812.966.344-.028-1.025.579.845.579-.845-.028 1.025.966-.344-.625.812.983.29-.983.29.625.812-.966-.344.028 1.025-.579-.846Z" clip-rule="evenodd"/></g></g><g clip-path="url(#S)"><mask id="T" width="20" height="15" x="960" y="0" maskUnits="userSpaceOnUse" style="mask-type:luminance"><path fill="#fff" d="M960 0h20v15h-20z"/></mask><g mask="url(#T)"><path fill="#F7FCFF" fill-rule="evenodd" d="M960 0v15h20V0h-20Z" clip-rule="evenodd"/><mask id="U" width="20" height="15" x="960" y="0" maskUnits="userSpaceOnUse" style="mask-type:luminance"><path fill="#fff" fill-rule="evenodd" d="M960 0v15h20V0h-20Z" clip-rule="evenodd"/></mask><g mask="url(#U)"><path fill="#FECA00" fill-rule="evenodd" d="M960 0v5h20V0h-20Z" clip-rule="evenodd"/><path fill="#093" fill-rule="evenodd" d="M960 10v5h20v-5h-20Z" clip-rule="evenodd"/><path fill="#272727" stroke="#fff" stroke-width="1.25" d="M960 4.375h-.625v6.25h21.25v-6.25H960Z"/></g><path fill="#F50100" fill-rule="evenodd" d="M960 0v15l11.25-7.5L960 0Z" clip-rule="evenodd"/><mask id="V" width="12" height="15" x="960" y="0" maskUnits="userSpaceOnUse" style="mask-type:luminance"><path fill="#fff" fill-rule="evenodd" d="M960 0v15l11.25-7.5L960 0Z" clip-rule="evenodd"/></mask><g mask="url(#V)"><path fill="#FECA00" fill-rule="evenodd" d="m965.043 8.97-2.362 1.907 1.084-2.548-1.862-1.792h2.197l.902-2.162.958 2.162h2.193l-1.96 1.792.981 2.548-2.131-1.906Z" clip-rule="evenodd"/><path fill="#F7FCFF" fill-rule="evenodd" d="m963.848 7.49-.401 1.338s1.352-.014 1.515.123c.489-.305 1.497-.123 1.497-.123l-.536-1.432s-.68-.308-.961-.139c-.69-.156-1.114.233-1.114.233Z" clip-rule="evenodd"/><path fill="#000" d="M967.227 9.51a.312.312 0 1 1-.499.376l-2.612-3.47a.312.312 0 1 1 .499-.375l2.612 3.47Z"/><path stroke="#000" stroke-linecap="round" stroke-linejoin="round" stroke-width=".625" d="m964.359 6.15-.25-.3"/><path fill="#000" fill-rule="evenodd" d="m963.503 5.852-.755 1.21.377.653.864-1.284.155-.397-.155-.182h-.486Zm-.979 3.591.365.513 2.809-3.324.117.13.648-.61 1.035-1.125-1.035.846-.335-.093-.313.492h-.314l-2.295 2.554-.682.617Z" clip-rule="evenodd"/></g></g></g><g clip-path="url(#W)"><mask id="X" width="20" height="15" x="1020" y="0" maskUnits="userSpaceOnUse" style="mask-type:luminance"><path fill="#fff" d="M1020 0h20v15h-20z"/></mask><g mask="url(#X)"><path fill="#093" fill-rule="evenodd" d="M1020 0v15h20V0h-20Z" clip-rule="evenodd"/><mask id="Y" width="20" height="15" x="1020" y="0" maskUnits="userSpaceOnUse" style="mask-type:luminance"><path fill="#fff" fill-rule="evenodd" d="M1020 0v15h20V0h-20Z" clip-rule="evenodd"/></mask><g mask="url(#Y)"><path fill="#3195F9" fill-rule="evenodd" d="M1020 0v15l20-15h-20Z" clip-rule="evenodd"/><path fill="#E31D1C" stroke="#F7FCFF" stroke-width="1.25" d="m1019.37 16.933.33.601.57-.386 21.77-14.818.43-.299-.22-.481-1.46-3.15-.31-.66-.61.403-22.09 14.723-.48.319.28.503 1.79 3.245Z"/><path fill="#FECA00" fill-rule="evenodd" d="m1023.89 5.778-.81 1.009-.19-1.278-1.21.47.47-1.206-1.27-.196 1-.808-1-.81 1.27-.195-.47-1.205 1.21.47.19-1.279.81 1.01.81-1.01.2 1.278 1.2-.47-.47 1.206 1.28.196-1.01.809 1.01.808-1.28.196.47 1.205-1.2-.47-.2 1.279-.81-1.009Zm0-.447c.87 0 1.57-.7 1.57-1.562a1.564 1.564 0 0 0-3.13 0c0 .862.7 1.562 1.56 1.562Zm1.25-1.562a1.25 1.25 0 1 1-2.5 0 1.25 1.25 0 0 1 2.5 0Z" clip-rule="evenodd"/></g></g></g><g clip-path="url(#Z)"><mask id="aa" width="20" height="15" x="1080" y="0" maskUnits="userSpaceOnUse" style="mask-type:luminance"><path fill="#fff" d="M1080 0h20v15h-20z"/></mask><g fill-rule="evenodd" clip-rule="evenodd" mask="url(#aa)"><path fill="#F50100" d="M1093.75 0h6.25v15h-6.25V0Z"/><path fill="#2E42A5" d="M1080 0h7.5v15h-7.5V0Z"/><path fill="#F7FCFF" d="M1086.25 0h7.5v15h-7.5V0Z"/></g></g><g clip-path="url(#ab)"><mask id="ac" width="20" height="15" x="1140" y="0" maskUnits="userSpaceOnUse" style="mask-type:luminance"><path fill="#fff" d="M1140 0h20v15h-20z"/></mask><g mask="url(#ac)"><path fill="#F7FCFF" fill-rule="evenodd" d="M1140 0v15h20V0h-20Z" clip-rule="evenodd"/><mask id="ad" width="20" height="15" x="1140" y="0" maskUnits="userSpaceOnUse" style="mask-type:luminance"><path fill="#fff" fill-rule="evenodd" d="M1140 0v15h20V0h-20Z" clip-rule="evenodd"/></mask><g fill-rule="evenodd" clip-rule="evenodd" mask="url(#ad)"><path fill="#FC6500" d="M1140 0v5h20V0h-20Z"/><path fill="#5EAA22" d="M1140 10v5h20v-5h-20Z"/><path fill="#FC6500" d="M1150 10a2.5 2.5 0 1 0 0-5 2.5 2.5 0 0 0 0 5Z"/></g></g></g><g clip-path="url(#ae)"><mask id="af" width="20" height="15" x="1200" y="0" maskUnits="userSpaceOnUse" style="mask-type:luminance"><path fill="#fff" d="M1200 0h20v15h-20z"/></mask><g fill-rule="evenodd" clip-rule="evenodd" mask="url(#af)"><path fill="#409100" d="M1214 0h6v15h-6V0Zm-14 0h6v15h-6V0Z"/><path fill="#fff" d="M1206 0h8v15h-8V0Z"/><path fill="#409100" d="M1207.93 11.732c-.97.158-1.27-.317-1.27-.317l.12-.1c.08-.068.36-.045.63-.022.13.01.26.022.36.022.15 0 .33-.023.51-.047.2-.026.4-.053.6-.053.37 0-1.11-.49-1.43-.19-.31.3-1.2-.139-1.2-.39 0-.17.33-.108.63-.051.13.027.27.052.36.052.28 0-.29-.556-.58-.556-.3 0 .29-.13.58-.13.16 0 .31.043.44.079.1.027.18.05.25.05.17 0-.81-.42-.98-.42h.82c.28 0 .35.039.42.076.05.034.11.066.31.066.44 0 .2-.237.2-.237s-1.46-.152-1.75-.361c-.19-.142.33-.092.82-.045.23.023.46.045.6.045.43 0-.92-.309-1.13-.309h.99c.21 0 .45.07.7.143.28.08.57.166.86.166.31 0-.29-.184-.95-.385-.54-.163-1.11-.337-1.27-.436-.17-.103-.04-.063.19.01.27.083.69.211.94.211.47 0-.63-.464-.93-.464-.3 0-.59-.135-.32-.26.17-.076.6.04.98.14.24.063.45.12.56.12.14 0 .24.053.35.11a.88.88 0 0 0 .45.133c.38 0-.8-.502-1.29-.502-.48 0-.57-.237-.27-.237.29 0-.66-.403-.66-.403s-.14-.285.2-.285h.46c.15 0-.16-.496-.46-.496-.3 0-.04-.15.46-.15.3 0 .47.104.69.229.13.08.28.17.49.246.54.193.13-.325 0-.325s-1.48-.422-1.48-.422.14-.156 0-.368c-.1-.16.33-.078.59-.029.09.017.16.03.18.03.06 0 .24.044.46.098.15.037.31.078.47.113.4.088-1.36-.646-1.56-.646-.2 0 .43-.12.81-.12.18 0 .27.028.36.058.1.03.19.062.39.062.4 0-.75-.43-1.13-.43-.37 0-.15-.369 0-.369.06 0 .22.02.4.044.29.038.66.087.89.087.17 0 .01-.049-.22-.12-.27-.082-.63-.194-.69-.294-.07-.111.07-.091.31-.056l.13.02c.16.084.3.139.32.074 0-.018.02-.031.03-.041l.12.003c.22 0 .12-.034-.1-.075l-.01-.006c-.33-.1-1.04-.313-.77-.181.05.026.11.057.17.09a4.726 4.726 0 0 0-.38-.039c-.18 0-.36-.138 0-.138h.71c-.22 0-.53 0-.53-.174 0-.118.25-.075.47-.036.11.018.21.036.28.036.23 0 .28 0 .16-.103-.12-.098-.51-.098-.76-.098h-.04c-.24 0 .51-.126.8-.126h.07c0-.002-.01-.003-.04-.005-.12-.012-.53-.052-.83-.185-.26-.12-.03-.09.27-.05.18.023.39.05.53.05.38 0-.16-.253-.56-.253-.32 0-.16-.088.03-.202.05-.028.1-.058.15-.088.15-.09.25.064.32.156.04.062.06.094.06-.003a.355.355 0 0 0-.04-.185c.01.008.02.02.04.032.15.104 0-.271 0-.271s-.16-.104 0-.104c.15 0-.05-.178-.16-.178-.1 0 .28-.17.28-.17l.08-.722s.21.786.21.892v.553c0 .132-.09.224-.15.285-.08.077-.11.107.15.107.48 0 .46.15.17.15-.29 0 .08.191.6.191.51 0-.44.224-.77.224s.33.103.77.103c.29 0-.01.101-.29.195-.13.045-.26.088-.31.117-.09.046.12.045.35.032-.12.035-.24.07-.33.098-.1.033-.14.044-.14.049 0 .002.01.002.03.003.04.003.13.008.15.067.03.09.27-.049.51-.179.04-.02.07-.042.11-.061l.1-.009s.21.247.21.398c0 .088-.28.114-.58.142l-.03.003c.01-.02-.05-.01-.14.013a2.16 2.16 0 0 0-.41.07c-.09.03-.08.044 0 .046l-.02.007c-.07.022-.1.03-.1.035 0 .002.01.003.02.006.03.006.1.019.12.078.02.09.19-.024.34-.13l.02-.01.15-.01c.17-.012.33-.023.42-.023.28 0-.28.135-.49.135-.09 0 .02.02.19.052.24.042.58.104.68.162.12.069-.22.043-.53.02-.14-.01-.27-.02-.34-.02-.25 0-.29.198-.13.198h.62c.23 0 .47.356.38.356-.02 0-.08.018-.17.044-.18.058-.49.155-.83.155h.83c.22 0 .83 0 .83.212 0 .132-.12.16-.27.198-.09.023-.2.05-.3.104-.26.145.8.276.8.276s-.42.131-.63.131c-.2 0 .1.194.63.194.41 0 .29.223.21.363-.02.04-.04.074-.04.093 0 .037-.07.069-.19.115-.14.059-.34.141-.51.288-.19.17.04.12.31.063.14-.03.3-.063.39-.063.28 0 .4.012.31.147-.09.135-.9.35-1.11.35h1.11c.31 0-.09.242-.48.242-.26 0-.41.1-.51.165-.05.032-.08.056-.12.056h.8c.04 0 .09-.065.13-.124.04-.053.07-.101.09-.097.37.057.2.512 0 .512-.22 0-.92.154-.81.309.05.075.13.04.27-.014.14-.059.34-.141.63-.141.56 0 .05.155-.09.155-.13 0-.72.112-.92.21-.13.064.32.043.78.021.22-.01.45-.022.6-.022.46 0-1.08.39-1.65.39-.56 0 .38.149.57.149.07 0 .21.019.39.042.28.038.64.087.94.087.49 0-.49.322-.93.322h-.1c-.39-.002-.68-.003-.49.234.1.131.45.096.82.058.35-.035.71-.072.88.031.32.186-1.09.17-1.7.163l-.21-.002c-.37 0 .38.14 1.02.14h.09c.57 0 .71-.001.71.189 0 .167-1.26.123-1.78.105l-.21-.005c-.1 0-.16.06-.22.123-.06.067-.13.137-.25.137-.1 0-.15-.065-.2-.124-.05-.08-.11-.15-.27-.036-.29.2.29 2.21.29 2.21h-1.56v-1.893s-.5-.159-1.48 0Zm1.79-9.222s0 .01.03.028a.401.401 0 0 0-.03-.028Zm-.54 7.505c-.25-.093.38-.097.66-.097.1 0 .13 0 .13.008 0 .004 0 .01-.02.021-.03.03-.11.09-.11.208 0 .178-.23.064-.45-.044a2.288 2.288 0 0 0-.21-.096Zm.51-.724c-.29 0-.91.005-.67.097.07.024.14.06.21.096.23.108.46.222.46.045 0-.12.07-.179.11-.208.01-.01.02-.018.02-.022-.01-.008-.04-.008-.13-.008Zm-.52-.419c-.2-.048.31-.05.54-.05.08 0 .11 0 .11.004 0 .002-.01.005-.02.01-.03.016-.09.048-.09.11 0 .093-.19.033-.37-.023a2.76 2.76 0 0 0-.17-.05Zm.51-1.98c-.33-.1-1.04-.313-.77-.182l.22.121c.23.13.48.269.51.18.02-.06.11-.065.15-.067.02-.001.03-.002.03-.004 0-.005-.04-.016-.14-.049Zm-.77-.808c-.27-.132.44.081.77.18.1.034.14.045.14.05 0 .002-.01.002-.03.003-.04.003-.13.008-.15.067-.03.09-.28-.049-.51-.18l-.22-.12Zm.77-.602c-.33-.1-1.04-.313-.77-.182l.22.122c.23.13.48.268.51.18.02-.06.11-.066.15-.068.02 0 .03-.001.03-.004 0-.004-.04-.015-.14-.048Zm.7 4.279c.29 0 .91.005.67.097-.07.024-.14.06-.22.096-.22.108-.45.222-.45.045a.246.246 0 0 0-.11-.208c-.01-.01-.02-.018-.02-.022 0-.008.04-.008.13-.008Zm.67-.373c.24-.092-.38-.097-.67-.097-.09 0-.13 0-.13.008 0 .004.01.011.02.022.04.03.11.089.11.208 0 .177.23.063.45-.045.08-.036.15-.072.22-.096Zm.38-1.083-.01.002c-.06.016-.2.07-.36.132-.31.124-.7.277-.7.194 0-.063-.06-.094-.09-.11-.01-.005-.02-.008-.02-.01 0-.005.03-.005.11-.005.19 0 .94-.173 1.07-.203Zm-.27-1.908c.27-.132-.44.081-.77.181-.1.033-.14.044-.14.049 0 .002.01.003.03.003.04.003.13.008.15.067.03.09.27-.048.51-.179.08-.044.15-.088.22-.121Zm-.77.808c.33-.1 1.04-.313.77-.182-.07.034-.14.077-.22.122-.24.13-.48.268-.51.179-.02-.06-.11-.065-.15-.067-.02 0-.03-.001-.03-.004 0-.004.04-.015.14-.048Zm.77-1.435c.27-.131-.44.082-.77.182-.1.033-.14.044-.14.048 0 .002.01.003.03.004.04.002.13.007.15.067.03.089.27-.049.51-.18.08-.044.15-.087.22-.12Zm-.98-.366c.22-.069.71-.215.53-.11-.04.027-.09.062-.15.099-.15.107-.32.22-.34.13-.02-.06-.09-.072-.12-.078-.01-.002-.02-.004-.02-.006 0-.005.03-.012.1-.035Zm.14 2.384c-.25 0 0-.204 0-.204h.14c.04 0 .08-.02.14-.044.1-.047.25-.116.57-.116.48 0-.59.364-.85.364Z"/></g></g><g clip-path="url(#ag)"><mask id="ah" width="20" height="15" x="1260" y="0" maskUnits="userSpaceOnUse" style="mask-type:luminance"><path fill="#fff" d="M1260 0h20v15h-20z"/></mask><g fill-rule="evenodd" clip-rule="evenodd" mask="url(#ah)"><path fill="#F7FCFF" d="M1260 0h20v15h-20V0Z"/><path fill="#093" d="M1274 0h6v15h-6V0Zm-14 0h6v15h-6V0Z"/></g></g><g clip-path="url(#ai)"><mask id="aj" width="20" height="15" x="1320" y="0" maskUnits="userSpaceOnUse" style="mask-type:luminance"><path fill="#fff" d="M1320 0h20v15h-20z"/></mask><g mask="url(#aj)"><path fill="#F7FCFF" fill-rule="evenodd" d="M1320 0v15h20V0h-20Z" clip-rule="evenodd"/><mask id="ak" width="20" height="15" x="1320" y="0" maskUnits="userSpaceOnUse" style="mask-type:luminance"><path fill="#fff" fill-rule="evenodd" d="M1320 0v15h20V0h-20Z" clip-rule="evenodd"/></mask><g mask="url(#ak)"><path fill="#0080EC" fill-rule="evenodd" d="M1320 0v5h20V0h-20Zm0 10v5h20v-5h-20Z" clip-rule="evenodd"/><path fill="#D0AB00" fill-rule="evenodd" d="M1330 5c.12 0 .23.008.35.024l-.13.797a1.65 1.65 0 0 0-.54.016l-.06-.808c.12-.02.25-.029.38-.029Zm.72.105-.22.778c.69.214 1.19.857 1.19 1.617v.056l.81.068V7.5a2.5 2.5 0 0 0-1.78-2.395Zm1.48 3.591a2.518 2.518 0 0 1-2.01 1.297v-.81c.46-.05.87-.287 1.14-.634l.87.147Zm-4.34.098a2.509 2.509 0 0 0 2 1.202v-.809c-.5-.041-.93-.294-1.21-.668l-.79.275Zm-.36-1.187V7.5a2.5 2.5 0 0 1 1.59-2.331l.21.787c-.58.264-.99.85-.99 1.532l-.81.12Z" clip-rule="evenodd"/><path fill="#7CDFFF" fill-rule="evenodd" d="m1329.98 5.594-1.71 2.956h3.45l-1.74-2.956Z" clip-rule="evenodd"/><mask id="al" width="4" height="4" x="1328" y="5" maskUnits="userSpaceOnUse" style="mask-type:luminance"><path fill="#fff" fill-rule="evenodd" d="m1329.98 5.594-1.71 2.956h3.45l-1.74-2.956Z" clip-rule="evenodd"/></mask><g mask="url(#al)"><path stroke="#E31D1C" stroke-width=".625" d="M1330 9.449c.83 0 1.49-.67 1.49-1.494 0-.826-.66-1.495-1.49-1.495s-1.49.67-1.49 1.495c0 .825.66 1.494 1.49 1.494Z"/><path stroke="#FFD018" stroke-width=".625" d="M1330 9.449c.83 0 1.49-.67 1.49-1.494 0-.826-.66-1.495-1.49-1.495s-1.49.67-1.49 1.495c0 .825.66 1.494 1.49 1.494Z"/><path stroke="#4EDD00" stroke-width=".625" d="M1330 9.449c.83 0 1.49-.67 1.49-1.494 0-.826-.66-1.495-1.49-1.495s-1.49.67-1.49 1.495c0 .825.66 1.494 1.49 1.494Z"/><path stroke="#3D58DB" stroke-width=".625" d="M1330 9.449c.83 0 1.49-.67 1.49-1.494 0-.826-.66-1.495-1.49-1.495s-1.49.67-1.49 1.495c0 .825.66 1.494 1.49 1.494Z"/><path fill="#3D58DB" d="M1328.14 7.636h3.909v1.136h-3.909z"/><path fill="#97C923" fill-rule="evenodd" d="m1328.4 8.12.78-.775.24.387.16-.472.19.354.19-.27.26.27.23-.354.19.354.23-.27.53.563.1.212-3.1.158v-.158Z" clip-rule="evenodd"/></g></g></g></g><g clip-path="url(#am)"><mask id="an" width="20" height="15" x="1380" y="0" maskUnits="userSpaceOnUse" style="mask-type:luminance"><path fill="#fff" d="M1380 0h20v15h-20z"/></mask><g mask="url(#an)"><path fill="#F7FCFF" fill-rule="evenodd" d="M1380 0v15h20V0h-20Z" clip-rule="evenodd"/><mask id="ao" width="20" height="15" x="1380" y="0" maskUnits="userSpaceOnUse" style="mask-type:luminance"><path fill="#fff" fill-rule="evenodd" d="M1380 0v15h20V0h-20Z" clip-rule="evenodd"/></mask><g fill-rule="evenodd" clip-rule="evenodd" mask="url(#ao)"><path fill="#E31D1C" d="M1380 0v5h20V0h-20Z"/><path fill="#3D58DB" d="M1380 10v5h20v-5h-20Z"/></g></g></g><g clip-path="url(#ap)"><mask id="aq" width="20" height="15" x="1440" y="0" maskUnits="userSpaceOnUse" style="mask-type:luminance"><path fill="#fff" d="M1440 0h20v15h-20z"/></mask><g mask="url(#aq)"><path fill="#E31D1C" fill-rule="evenodd" d="M1440 0v15h20V0h-20Z" clip-rule="evenodd"/><mask id="ar" width="20" height="15" x="1440" y="0" maskUnits="userSpaceOnUse" style="mask-type:luminance"><path fill="#fff" fill-rule="evenodd" d="M1440 0v15h20V0h-20Z" clip-rule="evenodd"/></mask><g mask="url(#ar)"><path fill="#2E42A5" stroke="#F7FCFF" stroke-width="1.25" d="M1446.25-.625h-.63v6.25h-6.24v3.75h6.24v6.25h3.76v-6.25h11.24v-3.75h-11.24v-6.25h-3.13Z"/></g></g></g><g clip-path="url(#as)"><path fill="#fff" d="M1500 0h20v15h-20z"/><path fill="#C51918" stroke="#4857A1" d="m1507.12 7.938 5.55 6.562h-12.17V.978l11.5 6.137h-5.58l.7.823Z"/><mask id="at" width="14" height="15" x="1500" y="0" maskUnits="userSpaceOnUse" style="mask-type:luminance"><path fill="#fff" stroke="#fff" d="m1507.12 7.938 5.55 6.562h-12.17V.978l11.5 6.137h-5.58l.7.823Z"/></mask><g fill-rule="evenodd" clip-rule="evenodd" mask="url(#at)"><path fill="#F7FCFF" d="m1503.64 12.545-.76.978-.04-1.234-1.2.348.71-1.02-1.18-.414 1.18-.415-.71-1.02 1.2.35.04-1.236.76.979.77-.979.03 1.235 1.21-.348-.71 1.02 1.18.414-1.18.415.71 1.019-1.21-.348-.03 1.234-.77-.978Zm-.02-7.305-.39.51-.02-.645-.63.182.37-.532-.62-.217.62-.216-.37-.533.63.182.02-.644.39.51.4-.51.02.644.63-.182-.37.533.62.216-.62.217.37.532-.63-.182-.02.645-.4-.51Z"/><path fill="#F9FAFA" d="M1503.54 5.089c1.37.006 2.1-.784 2.1-.784.15.9-.97 1.5-2.09 1.5-1.11 0-1.79-.817-2.2-1.5 0 0 .82.778 2.19.784Z"/></g></g><g clip-path="url(#au)"><mask id="av" width="20" height="15" x="1560" y="0" maskUnits="userSpaceOnUse" style="mask-type:luminance"><path fill="#fff" d="M1560 0h20v15h-20z"/></mask><g mask="url(#av)"><path fill="#2E42A5" fill-rule="evenodd" d="M1560 0v15h20V0h-20Z" clip-rule="evenodd"/><mask id="aw" width="20" height="15" x="1560" y="0" maskUnits="userSpaceOnUse" style="mask-type:luminance"><path fill="#fff" fill-rule="evenodd" d="M1560 0v15h20V0h-20Z" clip-rule="evenodd"/></mask><g fill-rule="evenodd" clip-rule="evenodd" mask="url(#aw)"><path fill="#FECA00" d="M1560 5v2.5h20V5h-20Z"/><path fill="#F7FCFF" d="m1565.52 12.237-.97 1.254-.04-1.582-1.52.446.89-1.305-1.49-.532 1.49-.53-.89-1.306 1.52.446.04-1.582.97 1.254.96-1.254.05 1.582 1.52-.446-.9 1.305 1.49.531-1.49.532.9 1.305-1.52-.446-.05 1.582-.96-1.254Z"/></g></g></g><g clip-path="url(#ax)"><mask id="ay" width="20" height="15" x="1620" y="0" maskUnits="userSpaceOnUse" style="mask-type:luminance"><path fill="#fff" d="M1620 0h20v15h-20z"/></mask><g mask="url(#ay)"><path fill="#2E42A5" fill-rule="evenodd" d="M1620 0v15h20V0h-20Z" clip-rule="evenodd"/><mask id="az" width="20" height="15" x="1620" y="0" maskUnits="userSpaceOnUse" style="mask-type:luminance"><path fill="#fff" fill-rule="evenodd" d="M1620 0v15h20V0h-20Z" clip-rule="evenodd"/></mask><g mask="url(#az)"><path fill="#FECA00" fill-rule="evenodd" d="M1620 10v5h20v-5h-20Z" clip-rule="evenodd"/><mask id="aA" width="20" height="10" x="1620" y="0" maskUnits="userSpaceOnUse" style="mask-type:luminance"><path fill="#fff" d="M1620 0h20v10h-20z"/></mask><g mask="url(#aA)"><path fill="#fff" d="m1618.59 9.456 3.96.917 8.45-4.67.9-.522 8.02-4.198 1.9-1.325-4.35-.402-7.01 3.957-5.07 2.49-6.8 3.753Z"/><path fill="#F50100" d="m1618.93 10.012 2.14.7 19.96-11.22h-3l-19.1 10.52Z"/><path fill="#fff" d="m1641.48 9.207.16.944-4.19.222-6.75-3.956-.64.218-12.61-6.378 5.21-1.002 6.96 3.845 5.44 2.63 6.42 3.477Z"/><path fill="#F50100" d="m1641.5 9.773-2.14.7-8.5-4.804-2.52-.536-10.38-5.469h3l10.37 5.339 2.76.643 7.41 4.127Z"/><path fill="#fff" d="M1628.24-.781v-.781h-.78v.78h.78Zm0 3.75v.781h.78v-.781h-.78Zm-9.02 0v-.781h-.78v.78h.78Zm0 4.062h-.78v.782h.78V7.03Zm9.02 0h.78V6.25h-.78v.781Zm0 5h-.78v.781h.78v-.78Zm3.56 0v.781h.78v-.78h-.78Zm0-5V6.25h-.78v.781h.78Zm8.98 0v.782h.78V7.03h-.78Zm0-4.062h.78v-.781h-.78v.78Zm-8.98 0h-.78v.781h.78v-.781Zm0-3.75h.78v-.781h-.78v.78Zm-1.56 3.75v.781h.78v-.781h-.78Zm0-2.188h.78V0h-.78v.781Zm-.43 0V0h-.79v.781h.79Zm0 2.188h-.79v.781h.79v-.781Zm.43 1.562h.78V3.75h-.78v.781Zm-.43 0V3.75h-.79v.781h.79Zm.43.938v.781h.78v-.781h-.78Zm-.43 0h-.79v.781h.79v-.781Zm-1.57-.938h.78V3.75h-.78v.781Zm-7.46 0V3.75h-.78v.781h.78Zm0 .938h-.78v.781h.78v-.781Zm7.46 0v.781h.78v-.781h-.78Zm1.57 1.562V6.25h-.79v.781h.79Zm0 3.438h-.79v.781h.79v-.781Zm.43 0v.781h.78v-.781h-.78Zm0-3.438h.78V6.25h-.78v.781Zm1.56-2.5V3.75h-.78v.781h.78Zm0 .938h-.78v.781h.78v-.781Zm7.42-.938h.78V3.75h-.78v.781Zm0 .938v.781h.78v-.781h-.78ZM1628.24 0h.78v-1.563h-.78V0Zm.78 0v-.781h-1.56V0h1.56Zm0 2.969V0h-1.56v2.969h1.56Zm-9.02.781h8.24V2.187H1620V3.75Zm-.78 0h.78V2.187h-.78V3.75Zm.78 0v-.781h-1.56v.781h1.56Zm0 2.5v-2.5h-1.56v2.5h1.56Zm0 .781V6.25h-1.56v.781h1.56Zm0-.781h-.78v1.563h.78V6.25Zm8.24 0H1620v1.563h8.24V6.25Zm.78 5V7.031h-1.56v4.219h1.56Zm0 .781v-.781h-1.56v.781h1.56Zm0-.781h-.78v1.563h.78V11.25Zm2 0h-2v1.563h2V11.25Zm.78 0h-.78v1.563h.78V11.25Zm-.78 0v.781h1.56v-.781h-1.56Zm0-4.219v4.219h1.56V7.031h-1.56Zm8.98-.781h-8.2v1.563h8.2V6.25Zm.78 0h-.78v1.563h.78V6.25Zm-.78 0v.781h1.56V6.25H1640Zm0-2.5v2.5h1.56v-2.5H1640Zm0-.781v.781h1.56v-.781H1640Zm0 .781h.78V2.187h-.78V3.75Zm-8.2 0h8.2V2.187h-8.2V3.75Zm-.78-3.75v2.969h1.56V0h-1.56Zm0-.781V0h1.56v-.781h-1.56Zm0 .781h.78v-1.563h-.78V0Zm-2 0h2v-1.563h-2V0Zm2 2.969V.78h-1.57v2.19h1.57ZM1630.24 0h-.43v1.563h.43V0Zm-1.22.781V2.97h1.57V.78h-1.57Zm.79 2.969h.43V2.187h-.43V3.75Zm.43 0h-.43v1.563h.43V3.75Zm.78 1.719V4.53h-1.57v.938h1.57Zm-1.21.781h.43V4.687h-.43V6.25Zm-.79-1.719v.938h1.57V4.53h-1.57Zm-.78-.781h-7.46v1.563h7.46V3.75Zm-8.24.781v.938h1.56V4.53H1620Zm.78 1.719h7.46V4.687h-7.46V6.25Zm8.24-.781V4.53h-1.56v.938h1.56Zm0 1.562v3.438h1.57V7.03h-1.57Zm.79 4.219h.43V9.687h-.43v1.563Zm1.21-.781V7.03h-1.57v3.438h1.57Zm-.78-4.219h-.43v1.563h.43V6.25Zm.78-1.719v.938h1.56V4.53h-1.56Zm8.2-.781h-7.42v1.563h7.42V3.75Zm.78 1.719V4.53h-1.56v.938h1.56Zm-8.2.781h7.42V4.687h-7.42V6.25Z"/><path fill="#F50100" fill-rule="evenodd" d="M1631.06-.833h-2.12V3.75H1620v2.5h8.94v5.833h2.12V6.25h10.19v-2.5h-10.19V-.833Z" clip-rule="evenodd"/></g><path fill="#2E42A5" fill-rule="evenodd" d="M1630.03 6.625a1.72 1.72 0 1 0 .001-3.439 1.72 1.72 0 0 0-.001 3.439Z" clip-rule="evenodd"/><path fill="#FECA00" fill-rule="evenodd" d="m1630.06 5.432-.81.565.29-.946-.79-.597.99-.02.32-.934.33.933.99.02-.79.598.28.946-.81-.565Zm-5.62-.072-.68.47.24-.788-.66-.497.83-.017.27-.778.27.778.82.017-.65.497.23.788-.67-.47Zm11.25 0-.68.47.24-.788-.66-.497.83-.017.27-.778.27.778.82.017-.66.497.24.788-.67-.47Zm-5.63-3-.67.47.23-.788-.65-.497.82-.017.27-.778.27.778.83.017-.66.497.24.788-.68-.47Zm0 6.625-.67.47.23-.788-.65-.497.82-.017.27-.778.27.778.83.017-.66.497.24.788-.68-.47Z" clip-rule="evenodd"/></g></g></g><g clip-path="url(#aB)"><mask id="aC" width="20" height="15" x="1680" y="0" maskUnits="userSpaceOnUse" style="mask-type:luminance"><path fill="#fff" d="M1680 0h20v15h-20z"/></mask><g mask="url(#aC)"><path fill="#2E42A5" fill-rule="evenodd" d="M1680 0v15h20V0h-20Z" clip-rule="evenodd"/><mask id="aD" width="20" height="15" x="1680" y="0" maskUnits="userSpaceOnUse" style="mask-type:luminance"><path fill="#fff" fill-rule="evenodd" d="M1680 0v15h20V0h-20Z" clip-rule="evenodd"/></mask><g mask="url(#aD)"><path fill="#2E42A5" d="M1680 0h11v9h-11z"/><mask id="aE" width="11" height="9" x="1680" y="0" maskUnits="userSpaceOnUse" style="mask-type:luminance"><path fill="#fff" d="M1680 0h11v9h-11z"/></mask><g mask="url(#aE)"><path fill="#F7FCFF" d="m1678.75 8.125 2.47 1.086 10.09-8.03 1.3-1.614-2.65-.363-4.11 3.46-3.31 2.332-3.79 3.129Z"/><path fill="#F50100" d="m1679.09 8.886 1.26.63 11.79-10.099h-1.77l-11.28 9.469Z"/><path fill="#F7FCFF" d="m1692.5 8.125-2.19 1.396-10.37-8.34-1.3-1.614 2.65-.363 4.11 3.46 3.31 2.332 3.79 3.129Z"/><path fill="#F50100" d="m1692.42 8.67-1.26.63-5.03-4.323-1.49-.483-6.13-4.922h1.77l6.13 4.805 1.63.58 4.38 3.714Z"/><mask id="aF" width="13" height="11" x="1679" y="-1" fill="#000" maskUnits="userSpaceOnUse"><path fill="#fff" d="M1679-1h13v11h-13z"/><path fill-rule="evenodd" d="M1686 0h-1v4h-5v1h5v4h1V5h5V4h-5V0Z" clip-rule="evenodd"/></mask><path fill="#F50100" fill-rule="evenodd" d="M1686 0h-1v4h-5v1h5v4h1V5h5V4h-5V0Z" clip-rule="evenodd"/><path fill="#F7FCFF" d="M1685 0v-.938h-.94V0h.94Zm1 0h.94v-.938h-.94V0Zm-1 4v.938h.94V4h-.94Zm-5 0v-.938h-.94V4h.94Zm0 1h-.94v.938h.94V5Zm5 0h.94v-.938h-.94V5Zm0 4h-.94v.938h.94V9Zm1 0v.938h.94V9h-.94Zm0-4v-.938h-.94V5h.94Zm5 0v.938h.94V5h-.94Zm0-1h.94v-.938h-.94V4Zm-5 0h-.94v.938h.94V4Zm-1-3.063h1V-.938h-1V.938Zm.94 3.063V0h-1.88v4h1.88Zm-5.94.938h5V3.063h-5v1.874Zm.94.062V4h-1.88v1h1.88Zm4.06-.938h-5v1.875h5V4.063Zm.94 4.938V5h-1.88v4h1.88Zm.06-.938h-1v1.876h1V8.062ZM1685.06 5v4h1.88V5h-1.88Zm5.94-.938h-5v1.875h5V4.063Zm-.94-.062v1h1.88V4h-1.88Zm-4.06.938h5V3.063h-5v1.874ZM1685.06 0v4h1.88V0h-1.88Z" mask="url(#aF)"/></g><path fill="#F50100" fill-rule="evenodd" stroke="#F7FCFF" stroke-width=".5" d="m1695.53 12.813-1.1.579.21-1.227-.89-.87 1.23-.178.55-1.117.55 1.117 1.24.179-.9.869.22 1.227-1.11-.58Zm-2.28-4.144-.85.446.16-.946-.68-.67.95-.138.42-.861.42.86.95.139-.68.67.16.946-.85-.446Zm4.37-.003-.85.447.17-.946-.69-.67.95-.137.42-.86.43.86.95.138-.69.67.16.945-.85-.447Zm-1.87-3.497-.85.446.16-.946-.68-.67.95-.138.42-.861.42.86.95.139-.68.67.16.946-.85-.446Z" clip-rule="evenodd"/></g></g></g><g clip-path="url(#aG)"><mask id="aH" width="20" height="15" x="1740" y="0" maskUnits="userSpaceOnUse" style="mask-type:luminance"><path fill="#fff" d="M1740 0h20v15h-20z"/></mask><g mask="url(#aH)"><path fill="#F50101" fill-rule="evenodd" d="M1740 0v15h20V0h-20Z" clip-rule="evenodd"/><mask id="aI" width="20" height="15" x="1740" y="0" maskUnits="userSpaceOnUse" style="mask-type:luminance"><path fill="#fff" fill-rule="evenodd" d="M1740 0v15h20V0h-20Z" clip-rule="evenodd"/></mask><g mask="url(#aI)"><path fill="#F7FCFF" fill-rule="evenodd" d="M1740 0v5h20V0h-20Z" clip-rule="evenodd"/><path fill="#5EAA22" fill-rule="evenodd" d="M1740 10v5h20v-5h-20Z" clip-rule="evenodd"/><path fill="#F50101" d="M1740 0h7.5v15h-7.5z"/><path fill="#F7FCFF" fill-rule="evenodd" d="M1746.73 1.27c.01-.056-.07-.078-.09-.029-.23.385-.8 1.302-1.74 2.5v-.573a6.066 6.066 0 0 0-.37-.358v-.573l.52-.466-.71-.521-.75.521.57.466v.573c0 .274-.35.358-.35.358l-.06.505a23.272 23.272 0 0 1-1.64-2.406c-.03-.05-.11-.027-.1.031.07.461.28 1.483.85 2.575h-.15v-.02c0-.03-.02-.055-.05-.055h-1.32c-.03 0-.06.024-.06.054v.83c0 .03.03.054.06.054h1.32c.03 0 .05-.025.05-.055v-.435h.17c.05.13.18.221.33.224.11.163.22.326.35.486-.29-.028-2.18-.189-2.18.498 0 .41.46.627 1.04.74l-1.38 1.246c-.04.037-.01.1.04.087.45-.111 1.63-.455 2.75-1.22h.04c.32 0 .54-.138.69-.323 1.14.932 2.43 1.362 2.99 1.516.06.016.09-.06.04-.094a17.283 17.283 0 0 1-2.53-2.181l.03-.032c.21-.253.4-.513.56-.774.07-.04.12-.1.15-.173h.17v.435c0 .03.03.055.06.055h1.31c.03 0 .06-.025.06-.055v-.829c0-.03-.03-.054-.06-.054h-1.31c-.02 0-.03.005-.04.014.54-1.09.7-2.103.74-2.541Zm-.76 2.603v-.025l-.01.025h.01Zm-2.44.228c0 .167-.14.302-.31.302a.307.307 0 0 1-.31-.302c0-.167.14-.303.31-.303.17 0 .31.136.31.303Zm1.63 0c0 .167.13.302.3.302.17 0 .31-.135.31-.302a.307.307 0 0 0-.31-.303c-.17 0-.3.136-.3.303Z" clip-rule="evenodd"/></g></g></g></g><defs><clipPath id="a"><rect width="1760" height="15" fill="#fff" rx="2"/></clipPath><clipPath id="b"><rect width="20" height="15" fill="#fff" rx="2"/></clipPath><clipPath id="e"><rect width="20" height="15" x="60" fill="#fff" rx="2"/></clipPath><clipPath id="g"><rect width="20" height="15" x="120" fill="#fff" rx="2"/></clipPath><clipPath id="i"><rect width="20" height="15" x="180" fill="#fff" rx="2"/></clipPath><clipPath id="k"><rect width="20" height="15" x="240" fill="#fff" rx="2"/></clipPath><clipPath id="o"><rect width="20" height="15" x="300" fill="#fff" rx="2"/></clipPath><clipPath id="q"><rect width="20" height="15" x="360" fill="#fff" rx="2"/></clipPath><clipPath id="s"><rect width="20" height="15" x="420" fill="#fff" rx="2"/></clipPath><clipPath id="t"><rect width="20" height="15" x="480" fill="#fff" rx="2"/></clipPath><clipPath id="w"><rect width="20" height="15" x="540" fill="#fff" rx="2"/></clipPath><clipPath id="C"><rect width="20" height="15" x="600" fill="#fff" rx="2"/></clipPath><clipPath id="F"><rect width="20" height="15" x="660" fill="#fff" rx="2"/></clipPath><clipPath id="I"><rect width="20" height="15" x="720" fill="#fff" rx="2"/></clipPath><clipPath id="L"><rect width="20" height="15" x="780" fill="#fff" rx="2"/></clipPath><clipPath id="O"><rect width="20" height="15" x="840" fill="#fff" rx="2"/></clipPath><clipPath id="Q"><rect width="20" height="15" x="900" fill="#fff" rx="2"/></clipPath><clipPath id="S"><rect width="20" height="15" x="960" fill="#fff" rx="2"/></clipPath><clipPath id="W"><rect width="20" height="15" x="1020" fill="#fff" rx="2"/></clipPath><clipPath id="Z"><rect width="20" height="15" x="1080" fill="#fff" rx="2"/></clipPath><clipPath id="ab"><rect width="20" height="15" x="1140" fill="#fff" rx="2"/></clipPath><clipPath id="ae"><rect width="20" height="15" x="1200" fill="#fff" rx="2"/></clipPath><clipPath id="ag"><rect width="20" height="15" x="1260" fill="#fff" rx="2"/></clipPath><clipPath id="ai"><rect width="20" height="15" x="1320" fill="#fff" rx="2"/></clipPath><clipPath id="am"><rect width="20" height="15" x="1380" fill="#fff" rx="2"/></clipPath><clipPath id="ap"><rect width="20" height="15" x="1440" fill="#fff" rx="2"/></clipPath><clipPath id="as"><rect width="20" height="15" x="1500" fill="#fff" rx="2"/></clipPath><clipPath id="au"><rect width="20" height="15" x="1560" fill="#fff" rx="2"/></clipPath><clipPath id="ax"><rect width="20" height="15" x="1620" fill="#fff" rx="2"/></clipPath><clipPath id="aB"><rect width="20" height="15" x="1680" fill="#fff" rx="2"/></clipPath><clipPath id="aG"><rect width="20" height="15" x="1740" fill="#fff" rx="2"/></clipPath></defs></svg>