<svg viewBox="0 0 20 15" fill="none" xmlns="http://www.w3.org/2000/svg"><path d="M0 0v15h20V0H0Z" fill="#f50100"/><path d="M0-.026v2.552l8.75 3.72L2.035-.026H0ZM10 7.5 11.875 0h-3.75L10 7.5Zm0 0L8.125 15h3.75L10 7.5ZM0 12.47v2.552h2.035L8.75 8.75 0 12.47Zm20-9.93V-.01h-2.035L11.25 6.261 20 2.541Zm0 12.496v-2.552l-8.75-3.72 6.715 6.272H20Zm0-9.412L12.5 7.5 20 9.375v-3.75ZM7.5 7.5 0 5.625v3.75L7.5 7.5Z" fill="#ffd018"/><path d="M10 10.625a3.125 3.125 0 1 0 0-6.25 3.125 3.125 0 0 0 0 6.25Z" fill="#ffd018" stroke="#f50100" stroke-width="1.25"/></svg>