<svg viewBox="0 0 20 15" fill="none" xmlns="http://www.w3.org/2000/svg"><path d="M6 0h8v15H6V0Z" fill="#4C67E8"/><path d="M13 0h7v15h-7V0ZM0 0h8v15H0V0Z" fill="#c51918"/><path d="M3.76 4.3c-.63 0-.55-.61-.55-.61l.3-.65v.65c0 .08.11-.09.11-.29 0-.2.14-.5.14-.5v-.2c.03.05.07.1.14.16l.04.04c.07.08.06.3.05.48 0 .16-.01.3.05.3.13 0 .12-.57.12-.57l.22.58s.01.61-.62.61Zm0-1.76v.16a.27.27 0 0 1 0-.16Zm.95 2.89c0 .5-.42.9-.94.9a.92.92 0 0 1-.93-.9c0-.5.42-.91.93-.91.52 0 .94.4.94.9Zm-2.35 1.7H1.25v5.35h1.1V7.13Zm3.89 0h-1.1v5.35h1.1V7.13Zm-3.6.04 1.07.67 1.22-.67h-2.3Zm1.07 5.33-1.08-.67h2.3l-1.22.67ZM2.64 8.06H4.9v.42H2.64v-.42Zm2.26 3.12H2.64v.42H4.9v-.42Zm-1.1-.23c.64 0 1.15-.5 1.15-1.12 0-.62-.51-1.12-1.15-1.12-.64 0-1.16.5-1.16 1.12 0 .62.52 1.12 1.16 1.12ZM2.5 5.76s.04 1.17 1.2 1.17c1.14 0 1.33-1.17 1.33-1.17s-.45.72-1.27.72c-.81 0-1.26-.72-1.26-.72Z" fill="#f8d000"/></svg>