<svg xmlns="http://www.w3.org/2000/svg" width="20" height="15" fill="transparent" viewBox="0 0 20 15"><g clip-path="url(#a)"><mask id="b" width="20" height="15" x="0" y="0" maskUnits="userSpaceOnUse" style="mask-type:luminance"><path fill="#fff" d="M0 0h20v15H0z"/></mask><g mask="url(#b)"><path fill="#2993EC" fill-rule="evenodd" d="M0 0h21.25v15H0V0Z" clip-rule="evenodd"/><path fill="#F1F9FF" fill-rule="evenodd" d="M3.883 7.24c0 3.307 2.739 5.99 6.117 5.99s6.117-2.683 6.117-5.99c0-3.308-2.739-5.99-6.117-5.99S3.883 3.932 3.883 7.24Zm10.904 0c0 2.588-2.143 4.687-4.787 4.687S5.213 9.828 5.213 7.24c0-2.59 2.143-4.688 4.787-4.688s4.787 2.099 4.787 4.688Z" clip-rule="evenodd"/><path fill="#E31D1C" fill-rule="evenodd" d="M4.415 7.24c0 3.02 2.5 5.468 5.585 5.468s5.585-2.448 5.585-5.469c0-3.02-2.5-5.468-5.585-5.468S4.415 4.219 4.415 7.239Zm10.904 0c0 2.876-2.381 5.208-5.32 5.208-2.937 0-5.318-2.332-5.318-5.209 0-2.876 2.381-5.208 5.319-5.208s5.32 2.332 5.32 5.208Z" clip-rule="evenodd"/><path fill="#FDDA33" fill-rule="evenodd" d="M10 1.38c-.067.14-.101.337-.101.593 0 .257-.1.513-.298.77a6.001 6.001 0 0 1-.055-.77c0-.23.151-.428.454-.593Zm1.398.212c-.097.12-.175.305-.232.555-.058.25-.213.478-.464.683.028-.284.068-.538.12-.762.051-.225.243-.383.576-.476Zm.96 1.013c.117-.229.236-.39.36-.483-.345.01-.57.117-.675.323a5.997 5.997 0 0 0-.3.71c.294-.138.499-.322.615-.55Zm1.511.322c-.14.064-.294.194-.458.39-.165.196-.406.329-.723.398.153-.24.304-.449.452-.625.148-.177.391-.23.73-.163Zm.399 1.32c.204-.154.382-.246.534-.276-.314-.142-.563-.144-.747-.006a6.008 6.008 0 0 0-.582.508c.325.004.59-.071.794-.226Zm1.199.963c-.155-.008-.35.039-.586.139s-.511.109-.825.026c.246-.144.475-.261.687-.351.212-.09.453-.028.724.186Zm-.247 1.347c.253-.045.453-.046.602-.004-.215-.27-.436-.384-.663-.344a6 6 0 0 0-.749.188c.288.151.558.204.81.16ZM3.802 6.106c.126.09.315.158.567.203.253.044.488.186.707.427a6.003 6.003 0 0 1-.768-.08c-.227-.04-.395-.223-.506-.55Zm.961-.99c-.236-.1-.405-.208-.506-.324.033.343.156.56.368.65.212.09.456.173.73.25-.158-.283-.356-.475-.592-.575Zm.254-1.508c.07.138.208.284.413.438.205.155.35.388.436.701a6.001 6.001 0 0 1-.649-.419c-.184-.138-.25-.378-.2-.72Zm1.311-.453c-.165-.196-.266-.37-.304-.52-.126.322-.114.57.034.747.148.176.327.361.537.554-.013-.324-.102-.585-.267-.781Zm.905-1.24c.003.156.063.347.18.575.116.229.144.503.083.822a6 6 0 0 1-.399-.661c-.104-.206-.059-.45.136-.735Zm1.393.175c-.058-.25-.07-.45-.035-.6-.258.229-.361.455-.31.68.052.224.128.47.228.738.135-.295.174-.568.117-.818Z" clip-rule="evenodd"/><path fill="#A7A7A7" fill-rule="evenodd" d="M9.116 3.594c-.229 0-.4.212-.35.436l.241 1.104c.022.097.08.178.16.228a.358.358 0 0 0-.136.241l-.867 7.279a.332.332 0 0 0 .16.33c.327.187 1.035.538 1.742.538.708 0 1.416-.35 1.742-.537a.332.332 0 0 0 .16-.331l-.867-7.279a.359.359 0 0 0-.136-.241c.08-.05.14-.13.16-.228l.242-1.104a.359.359 0 0 0-.35-.436h-1.9Z" clip-rule="evenodd"/><path fill="#73BE4A" d="M4.074 7.508a.2.2 0 0 1 .25-.13.195.195 0 0 1 .132.244c-.056.179-.056.442.006.787a1.754 1.754 0 0 0 .133.435l.049.105c.06.135.086.254.086.427 0 .108-.09.195-.2.195a.197.197 0 0 1-.199-.195.588.588 0 0 0-.053-.271 8.239 8.239 0 0 0-.046-.1 2 2 0 0 1-.163-.528c-.072-.4-.072-.722.005-.969Z"/><path fill="#F7FCFF" fill-rule="evenodd" d="m10.133 10.112-2.571 1.752.907-2.936-2.497-1.853 3.132-.063 1.03-2.897 1.028 2.897 3.132.063-2.497 1.853.908 2.936-2.572-1.752Z" clip-rule="evenodd"/><path fill="#73BE4A" d="M15.975 7.768a.2.2 0 0 0-.25-.13.195.195 0 0 0-.132.245c.056.178.056.442-.006.787a1.755 1.755 0 0 1-.182.54.966.966 0 0 0-.086.426c0 .108.09.195.2.195.11 0 .199-.087.199-.195 0-.118.015-.184.053-.271l.046-.1a2.02 2.02 0 0 0 .163-.528c.072-.4.072-.722-.005-.969Z"/><path stroke="#73BE4A" stroke-linecap="round" stroke-linejoin="round" stroke-width=".625" d="M10.038 1.967s.728.324.413.835m.119-.835s.728.324.413.835"/><path fill="#73BE4A" d="M5.787 3.973a.171.171 0 0 1 .248-.061c.084.057.11.178.056.269-.1.175-.154.415-.154.724 0 .108-.08.195-.18.195-.098 0-.179-.087-.179-.195 0-.377.069-.688.21-.932Z"/><path fill="#73BE4A" d="M5.505 5.758c0 .108-.08.195-.18.195-.098 0-.179-.087-.179-.195v-.556c0-.394.062-.704.192-.93a.171.171 0 0 1 .248-.063c.084.058.11.178.057.27-.09.155-.138.396-.138.723v.556Zm9.173-.261c0 .108.08.196.18.196.098 0 .179-.088.179-.196v-.556c0-.394-.062-.704-.192-.93a.171.171 0 0 0-.248-.062.206.206 0 0 0-.057.27c.09.154.138.395.138.722v.556Z"/><path fill="#73BE4A" d="M15.21 6.409c0 .108.08.195.18.195.098 0 .179-.087.179-.195v-.556c0-.394-.062-.704-.192-.93a.171.171 0 0 0-.248-.062.206.206 0 0 0-.057.269c.09.155.138.396.138.723v.556Z"/></g></g><defs><clipPath id="a"><rect width="20" height="15" fill="#fff" rx="2"/></clipPath></defs></svg>