<svg viewBox="0 0 20 15" fill="none" xmlns="http://www.w3.org/2000/svg"><path d="M0 0h21.25v15H0V0Z" fill="#2993ec"/><path d="M3.88 7.24c0 3.3 2.74 5.99 6.12 5.99a6.05 6.05 0 0 0 6.12-5.99c0-3.3-2.74-5.99-6.12-5.99a6.05 6.05 0 0 0-6.12 5.99Zm10.9 0A4.74 4.74 0 0 1 10 11.93a4.74 4.74 0 0 1-4.79-4.69A4.74 4.74 0 0 1 10 2.55c2.64 0 4.79 2.1 4.79 4.69Z" fill="#f1f9ff"/><path d="M4.41 7.24c0 3.02 2.5 5.47 5.59 5.47a5.53 5.53 0 0 0 5.59-5.47c0-3.02-2.5-5.47-5.59-5.47a5.53 5.53 0 0 0-5.59 5.47Zm10.9 0c0 2.88-2.37 5.2-5.31 5.2a5.26 5.26 0 0 1-5.32-5.2c0-2.88 2.38-5.2 5.32-5.2a5.26 5.26 0 0 1 5.32 5.2Z" fill="#e31d1c"/><path d="M10 1.38c-.07.14-.1.34-.1.6 0 .25-.1.5-.3.76a6 6 0 0 1-.05-.77c0-.23.15-.42.45-.59Zm1.4.21c-.1.12-.18.3-.23.56-.06.25-.22.47-.47.68a6 6 0 0 1 .12-.76c.05-.23.25-.39.58-.48Zm.96 1.01c.11-.22.23-.38.36-.48-.35.01-.57.12-.68.32a6 6 0 0 0-.3.72c.3-.14.5-.33.62-.56Zm1.51.33c-.14.06-.3.2-.46.39-.16.2-.4.33-.72.4a6 6 0 0 1 .45-.63c.15-.18.4-.23.73-.16Zm.4 1.32c.2-.16.38-.25.53-.28-.31-.14-.56-.14-.75 0a6 6 0 0 0-.58.5c.33 0 .6-.07.8-.22Zm1.2.96c-.16 0-.35.04-.59.14s-.51.1-.82.03c.24-.15.47-.27.68-.36.22-.09.46-.02.73.19Zm-.25 1.35c.25-.05.45-.05.6 0-.21-.28-.43-.4-.66-.35a6 6 0 0 0-.75.19c.29.15.56.2.81.16ZM3.8 6.1c.13.09.32.15.57.2.25.04.49.19.7.43a6 6 0 0 1-.76-.08c-.23-.04-.4-.23-.5-.55Zm.96-1c-.23-.1-.4-.2-.5-.32.03.35.15.56.37.65a6 6 0 0 0 .73.25 1.26 1.26 0 0 0-.6-.57Zm.26-1.5c.07.14.2.28.41.44.2.15.35.38.44.7a6 6 0 0 1-.65-.42c-.19-.14-.25-.38-.2-.72Zm1.3-.46a1.4 1.4 0 0 1-.3-.51c-.12.32-.11.57.04.74a6 6 0 0 0 .53.56c0-.33-.1-.59-.26-.79Zm.91-1.23c0 .15.07.34.18.57.12.23.15.5.09.82a6 6 0 0 1-.4-.66c-.1-.2-.06-.45.13-.73Zm1.4.17a1.4 1.4 0 0 1-.04-.6c-.26.23-.36.46-.3.68a6 6 0 0 0 .22.74c.13-.3.17-.57.12-.82Z" fill="#fdda33"/><path d="M9.12 3.6c-.23 0-.4.2-.35.43L9 5.13c.02.1.08.18.16.23a.36.36 0 0 0-.14.24l-.87 7.28c-.01.13.05.27.16.33a3.8 3.8 0 0 0 1.75.54c.7 0 1.41-.35 1.74-.54.11-.06.17-.2.16-.33L11.1 5.6a.36.36 0 0 0-.13-.24.36.36 0 0 0 .16-.23l.24-1.1a.36.36 0 0 0-.35-.44h-1.9Z" fill="#a7a7a7"/><path d="M4.07 7.5a.2.2 0 0 1 .25-.12c.1.03.17.14.14.24-.06.18-.06.44 0 .79a1.75 1.75 0 0 0 .13.43l.05.1c.06.14.09.26.09.44 0 .1-.09.2-.2.2a.2.2 0 0 1-.2-.2.59.59 0 0 0-.05-.28 8.39 8.39 0 0 0-.1-.23 2.13 2.13 0 0 1-.11-.4 2.1 2.1 0 0 1 0-.96Z" fill="#73be4a"/><path d="m10.13 10.11-2.57 1.75.9-2.93-2.49-1.86 3.13-.06 1.03-2.9 1.03 2.9 3.13.06-2.5 1.86.91 2.93-2.57-1.75Z" fill="#f7fcff"/><path d="M15.97 7.77a.2.2 0 0 0-.24-.13.2.2 0 0 0-.14.24c.06.18.06.44 0 .79a1.75 1.75 0 0 1-.18.54.97.97 0 0 0-.1.43c0 .1.1.2.2.2a.2.2 0 0 0 .2-.2c0-.12.02-.19.06-.28a8.38 8.38 0 0 1 .1-.23c.05-.11.08-.24.11-.4.07-.4.07-.71 0-.96Z" fill="#73be4a"/><path d="M10.04 1.97s.73.32.41.83m.12-.83s.73.32.41.83" stroke="#73be4a" stroke-width=".63" stroke-linecap="round" stroke-linejoin="round"/><path d="M5.79 3.97c.05-.09.16-.12.24-.06.09.06.11.18.06.27-.1.18-.15.42-.15.72 0 .11-.08.2-.18.2-.1 0-.18-.09-.18-.2 0-.37.07-.68.2-.93Z" fill="#73be4a"/><path d="M5.5 5.76c0 .1-.08.2-.17.2-.1 0-.18-.1-.18-.2V5.2c0-.4.06-.7.19-.93.05-.09.16-.12.25-.06a.2.2 0 0 1 .05.27c-.09.15-.13.4-.13.72v.56Zm9.18-.26c0 .1.08.2.18.2.1 0 .18-.1.18-.2v-.56c0-.4-.07-.7-.2-.93a.17.17 0 0 0-.24-.06.2.2 0 0 0-.06.27c.09.15.14.4.14.72v.56Z" fill="#73be4a"/><path d="M15.21 6.4c0 .12.08.2.18.2.1 0 .18-.08.18-.2v-.55c0-.4-.06-.7-.2-.93a.17.17 0 0 0-.24-.06.2.2 0 0 0-.06.27c.1.15.14.4.14.72v.56Z" fill="#73be4a"/></svg>