<svg xmlns="http://www.w3.org/2000/svg" width="20" height="15" fill="transparent" viewBox="0 0 20 15"><g clip-path="url(#a)"><mask id="b" width="20" height="15" x="0" y="0" maskUnits="userSpaceOnUse" style="mask-type:luminance"><path fill="#fff" d="M0 0h20v15H0z"/></mask><g mask="url(#b)"><path fill="#1C7B4D" fill-rule="evenodd" d="M0 0v15h20V0H0Z" clip-rule="evenodd"/><mask id="c" width="20" height="15" x="0" y="0" maskUnits="userSpaceOnUse" style="mask-type:luminance"><path fill="#fff" fill-rule="evenodd" d="M0 0v15h20V0H0Z" clip-rule="evenodd"/></mask><g fill-rule="evenodd" clip-rule="evenodd" mask="url(#c)"><path fill="#E31D1C" d="M0 0v3.75h20V0H0Zm0 11.25V15h20v-3.75H0Z"/><path fill="#FECA00" d="M10.151 8.987c3.241.018 4.154-2.696 4.154-2.696-.184 2.322-1.468 3.896-4.154 3.896-2.685 0-3.672-2.04-4.153-4.074 0 0 .913 2.856 4.153 2.874Z"/><path fill="#FECA00" d="m11.023 6.134.21 1.227-1.101-.58-1.103.58.211-1.227-.892-.959h1.233l.55-1.206.552 1.206h1.232l-.892.959Z"/></g></g></g><defs><clipPath id="a"><rect width="20" height="15" fill="#fff" rx="2"/></clipPath></defs></svg>