<svg xmlns="http://www.w3.org/2000/svg" width="20" height="15" fill="transparent" viewBox="0 0 20 15"><g clip-path="url(#a)"><mask id="b" width="20" height="15" x="0" y="0" maskUnits="userSpaceOnUse" style="mask-type:luminance"><path fill="#fff" d="M0 0h20v15H0z"/></mask><g mask="url(#b)"><path fill="#2E42A5" fill-rule="evenodd" d="M0 0v15h20V0H0Z" clip-rule="evenodd"/><mask id="c" width="20" height="15" x="0" y="0" maskUnits="userSpaceOnUse" style="mask-type:luminance"><path fill="#fff" fill-rule="evenodd" d="M0 0v15h20V0H0Z" clip-rule="evenodd"/></mask><g mask="url(#c)"><path fill="#2E42A5" d="M0 0h11v9H0z"/><mask id="d" width="11" height="9" x="0" y="0" maskUnits="userSpaceOnUse" style="mask-type:luminance"><path fill="#fff" d="M0 0h11v9H0z"/></mask><g mask="url(#d)"><path fill="#F7FCFF" d="M-1.253 8.125 1.223 9.21l10.083-8.03 1.306-1.614-2.647-.363-4.113 3.46-3.31 2.332-3.795 3.129Z"/><path fill="#F50100" d="m-.914 8.886 1.261.63L12.143-.583h-1.77L-.915 8.886Z"/><path fill="#F7FCFF" d="M12.503 8.125 10.306 9.52-.056 1.18-1.362-.434l2.647-.363 4.113 3.46 3.31 2.332 3.795 3.129Z"/><path fill="#F50100" d="m12.418 8.67-1.261.63-5.023-4.323-1.489-.483-6.133-4.922H.283l6.13 4.805 1.628.58 4.377 3.714Z"/><mask id="e" width="13" height="11" x="-1" y="-1" fill="#000" maskUnits="userSpaceOnUse"><path fill="#fff" d="M-1-1h13v11H-1z"/><path fill-rule="evenodd" d="M6 0H5v4H0v1h5v4h1V5h5V4H6V0Z" clip-rule="evenodd"/></mask><path fill="#F50100" fill-rule="evenodd" d="M6 0H5v4H0v1h5v4h1V5h5V4H6V0Z" clip-rule="evenodd"/><path fill="#F7FCFF" d="M5 0v-.938h-.938V0H5Zm1 0h.938v-.938H6V0ZM5 4v.938h.938V4H5ZM0 4v-.938h-.938V4H0Zm0 1h-.938v.938H0V5Zm5 0h.938v-.938H5V5Zm0 4h-.938v.938H5V9Zm1 0v.938h.938V9H6Zm0-4v-.938h-.938V5H6Zm5 0v.938h.938V5H11Zm0-1h.938v-.938H11V4ZM6 4h-.938v.938H6V4ZM5 .937h1V-.938H5V.938ZM5.938 4V0H4.063v4h1.875ZM0 4.938h5V3.063H0v1.874ZM.938 5V4H-.938v1H.938ZM5 4.062H0v1.875h5V4.063ZM5.938 9V5H4.063v4h1.875ZM6 8.062H5v1.876h1V8.062ZM5.062 5v4h1.875V5H5.063ZM11 4.062H6v1.875h5V4.063ZM10.062 4v1h1.876V4h-1.876ZM6 4.938h5V3.063H6v1.874ZM5.062 0v4h1.875V0H5.063Z" mask="url(#e)"/></g><path fill="#6DC2FF" stroke="#F7FCFF" stroke-width=".5" d="M16.205 13.478c-.795 0-1.341-.181-1.726-.49-.386-.308-.642-.77-.807-1.395-.166-.627-.234-1.398-.26-2.3a63.6 63.6 0 0 1-.011-2.057l.003-.715h5.677c.1 1.788.132 3.514-.228 4.81-.187.67-.473 1.203-.89 1.568-.411.36-.974.579-1.758.579Z"/><mask id="f" width="7" height="8" x="13" y="6" maskUnits="userSpaceOnUse" style="mask-type:luminance"><path fill="#fff" stroke="#fff" stroke-width=".5" d="M16.205 13.478c-.795 0-1.341-.181-1.726-.49-.386-.308-.642-.77-.807-1.395-.166-.627-.234-1.398-.26-2.3a63.6 63.6 0 0 1-.011-2.057l.003-.715h5.677c.1 1.788.132 3.514-.228 4.81-.187.67-.473 1.203-.89 1.568-.411.36-.974.579-1.758.579Z"/></mask><g mask="url(#f)"><path fill="#2EBED7" d="M13.083 6.25h6.294v4.986h-6.294z"/><path fill="#A95601" d="M13 11.196h6.625v2.554H13z"/><path stroke="#FFC6B5" stroke-width=".625" d="M16.716 8.415s-1.167.265-1.054 0c.113-.265.415-1.22.415-1.22"/><path fill="#FFC6B5" fill-rule="evenodd" d="M17.067 8.604s-.213-.13-.213-.368-.519-.327-.153-.698c.366-.371.524-.208.524 0s.294.698.294.698l-.452.368Z" clip-rule="evenodd"/><path fill="#272727" fill-rule="evenodd" d="M16.478 6.453h-.58v.567H14.74v.568h1.16v4.946h.58V7.588h1.159V7.02h-1.16v-.567Z" clip-rule="evenodd"/><path fill="#0C7C38" fill-rule="evenodd" d="M17.726 12.7s-.21-.975-.21-1.643-.354-1.146-.253-1.5c.101-.353.344-.743.223-.985-.122-.242.118-.36-.223-.242-.341.118-.433-.118-.762 0-.33.118-.371.674-.371.832 0 .159.146 1.228.146 1.561 0 .334-.12 2.384.225 2.384s.722-.534.853-.534c.132 0 .372.128.372.128Z" clip-rule="evenodd"/><path stroke="#FF9A06" stroke-width=".625" d="M15.644 10.088c-.21 0-.017.49-.553.704-.535.214-.64.516-.472.516.169 0 1.503 1.5 1.503 1.5l.327-.507v-1.597s-.595-.616-.805-.616Z" clip-rule="evenodd"/><path stroke="#979797" stroke-width=".625" d="M17.215 12.599s.25.536 0 .536"/><path stroke="#FFC6B5" stroke-width=".625" d="M17.134 8.619s-.11.602-.319.728c-.209.126-1.068.37-1.068.578 0 .208-.085.282-.085.282"/><path fill="#FF9A06" fill-rule="evenodd" d="M16.718 7.376s.21.25.327.662c.118.412.46.552.46.36 0-.193.251-1.022 0-1.022h-.787Z" clip-rule="evenodd"/></g></g></g></g><defs><clipPath id="a"><rect width="20" height="15" fill="#fff" rx="2"/></clipPath></defs></svg>