<svg xmlns="http://www.w3.org/2000/svg" width="20" height="15" fill="transparent" viewBox="0 0 20 15"><g clip-path="url(#a)"><path fill="#F7FCFF" d="M0 0h20v15H0z"/><mask id="b" width="20" height="15" x="0" y="0" maskUnits="userSpaceOnUse" style="mask-type:luminance"><path fill="#fff" d="M0 0h20v15H0z"/></mask><g mask="url(#b)"><mask id="c" fill="#fff"><path fill-rule="evenodd" d="M6.25 3.8h-2.5v1.87a.625.625 0 0 0-.48.63H1.25v2.5h2.082c.08.167.233.293.418.337V11.3h2.5V9.145a.626.626 0 0 0 .458-.345H8.75V6.3H6.77v-.021a.625.625 0 0 0-.52-.617V3.8Z" clip-rule="evenodd"/></mask><path fill="#A0A0A0" fill-rule="evenodd" d="M6.25 3.8h-2.5v1.87a.625.625 0 0 0-.48.63H1.25v2.5h2.082c.08.167.233.293.418.337V11.3h2.5V9.145a.626.626 0 0 0 .458-.345H8.75V6.3H6.77v-.021a.625.625 0 0 0-.52-.617V3.8Z" clip-rule="evenodd"/><path fill="#FECA00" d="M3.75 3.8v-.625h-.625V3.8h.625Zm2.5 0h.625v-.625H6.25V3.8Zm-2.5 1.87.144.609.481-.115V5.67H3.75Zm-.48.63v.625h.647l-.022-.646-.625.021Zm-2.02 0v-.625H.625V6.3h.625Zm0 2.5H.625v.625h.625V8.8Zm2.082 0 .562-.272-.17-.353h-.392V8.8Zm.418.337h.625v-.494l-.48-.114-.145.608Zm0 2.163h-.625v.625h.625V11.3Zm2.5 0v.625h.625V11.3H6.25Zm0-2.155-.104-.617-.521.089v.528h.625Zm.458-.345v-.625h-.392l-.17.353.562.272Zm2.042 0v.625h.625V8.8H8.75Zm0-2.5h.625v-.625H8.75V6.3Zm-1.98 0-.625-.021-.022.646h.646V6.3Zm-.52-.638h-.625v.528l.52.089.105-.617Zm-2.5-1.237h2.5v-1.25h-2.5v1.25Zm.625 1.245V3.8h-1.25v1.87h1.25Zm-.48.609-.29-1.217c-.55.13-.96.625-.96 1.217h1.25Zm0 0h-1.25v.042l1.25-.042Zm-2.645.646h2.02v-1.25H1.25v1.25ZM1.875 8.8V6.3H.625v2.5h1.25Zm1.457-.625H1.25v1.25h2.082v-1.25Zm.562.354-1.125.543c.161.333.466.585.837.673l.288-1.216Zm.481 2.771V9.137h-1.25V11.3h1.25Zm1.875-.625h-2.5v1.25h2.5v-1.25Zm-.625-1.53V11.3h1.25V9.145h-1.25Zm.73.616a1.25 1.25 0 0 0 .916-.69l-1.126-.543.21 1.233ZM8.75 8.175H6.708v1.25H8.75v-1.25ZM8.125 6.3v2.5h1.25V6.3h-1.25Zm-1.356.625H8.75v-1.25H6.77v1.25Zm-.624-.646 1.25.042V6.28h-1.25Zm0 0h1.25c0-.62-.45-1.133-1.04-1.233l-.21 1.233ZM5.626 3.8v1.862h1.25V3.8h-1.25Z" mask="url(#c)"/><path fill="#E31D1C" fill-rule="evenodd" d="M10 0h10v15H10V0Z" clip-rule="evenodd"/></g></g><defs><clipPath id="a"><rect width="20" height="15" fill="#fff" rx="2"/></clipPath></defs></svg>