<svg xmlns="http://www.w3.org/2000/svg" width="20" height="15" fill="transparent" viewBox="0 0 20 15"><g clip-path="url(#a)"><mask id="b" width="20" height="15" x="0" y="0" maskUnits="userSpaceOnUse" style="mask-type:luminance"><path fill="#fff" d="M0 0h20v15H0z"/></mask><g mask="url(#b)"><path fill="#C51918" fill-rule="evenodd" d="M0 0h20v13.75c0 .69-.56 1.25-1.25 1.25H1.25C.56 15 0 14.44 0 13.75V0Z" clip-rule="evenodd"/><path fill="#C51918" fill-rule="evenodd" d="M0 0h20v15H0V0Z" clip-rule="evenodd"/><path fill="#579D20" fill-rule="evenodd" d="M3 3h14v9H3V3Z" clip-rule="evenodd"/><path stroke="#B6EB9A" stroke-opacity=".238" stroke-width="1.25" d="M3.625 3.625h12.75v7.75H3.625v-7.75Z"/><mask id="c" width="14" height="9" x="3" y="3" maskUnits="userSpaceOnUse" style="mask-type:luminance"><path fill="#fff" fill-rule="evenodd" d="M3 3h14v9H3V3Z" clip-rule="evenodd"/><path stroke="#fff" stroke-width="1.25" d="M3.625 3.625h12.75v7.75H3.625v-7.75Z"/></mask><g mask="url(#c)"><path fill="#F9FAFA" fill-rule="evenodd" d="M10.02 7.79c-.01 1.915 1.498 2.937 1.498 2.937-1.72.202-2.866-1.358-2.866-2.92 0-1.56 1.561-2.85 2.867-3.431 0 0-1.488 1.497-1.498 3.413Z" clip-rule="evenodd"/></g></g></g><defs><clipPath id="a"><rect width="20" height="15" fill="#fff" rx="2"/></clipPath></defs></svg>