<svg viewBox="0 0 20 15" fill="none" xmlns="http://www.w3.org/2000/svg"><path d="M0 0h20v13.75c0 .69-.56 1.25-1.25 1.25H1.25C.56 15 0 14.44 0 13.75V0Z" fill="#c51918"/><path d="M0 0h20v15H0V0Z" fill="#c51918"/><path d="M3 3h14v9H3V3Z" fill="#579d20"/><path d="M3.63 3.63h12.75v7.75H3.63V3.62Z" stroke="#b6eb9a" stroke-opacity=".24" stroke-width="1.25"/><path d="M10.02 7.79c-.01 1.92 1.5 2.94 1.5 2.94-1.72.2-2.87-1.36-2.87-2.92 0-1.56 1.56-2.85 2.87-3.43 0 0-1.49 1.5-1.5 3.4Z" fill="#f9fafa"/></svg>