<svg viewBox="0 0 20 15" fill="none" xmlns="http://www.w3.org/2000/svg"><path d="M0 0v15h20V0H0Z" fill="#e11c1b"/><path d="M0 0v6h20V0H0Z" fill="#272727"/><path d="M0 10v5h20v-5H0Z" fill="#5eaa22"/><path d="M2.5 8.67Zm.4-2.4h.06-.1.03Zm1.82 0c.04-.05.07-.12.1-.18L3.4 5.15l1.68.54.3-.38-1.23-1.18 1.58.82.36-.31-1-1.39L6.5 4.33c.14-.08.27-.17.41-.24L6.2 2.54l1.2 1.3.43-.17-.4-1.66.92 1.5.46-.1-.07-1.73.62 1.64.46-.03.28-1.72.28 1.72.46.03.62-1.64-.07 1.73.45.1.93-1.5-.4 1.67.43.17L14 2.54l-.73 1.55c.14.08.28.16.4.25l1.43-1.09-1 1.4.35.3 1.59-.82-1.25 1.19c.11.12.21.25.3.38l1.7-.55-1.44.95.1.18h-1.23a5.1 5.1 0 0 0-4.16-1.96A5.1 5.1 0 0 0 5.9 6.28H4.72Zm1.88 0a4.85 4.85 0 0 1 3.48-1.35c1.41 0 2.67.53 3.47 1.36H6.6Zm10.62 0h.1-.1Zm.46 2.4Z" fill="#e11c1b"/></svg>