<svg viewBox="0 0 20 15" fill="none" xmlns="http://www.w3.org/2000/svg"><path d="M14 0h6v15h-6V0Z" fill="#d9071e"/><path d="M0 0h6v15H0V0Z" fill="#006923"/><path d="M6 0h8v15H6V0Z" fill="#fff"/><path d="M8.99 4.95s-.43.33-.35.68c.08.36.93 0 .83-.34-.1-.34-.48-.34-.48-.34Z" fill="#fcca3d"/><path d="M8.33 5.8c-.32 0-.45-.28-.38-.56.03-.15.12-.34.27-.6l.54.33-.14.24c.12.04.23.09.32.15.29.19.4.53.08.78-.06.05-.16.22-.21.38.15.01.26.03.35.09.28.16.25.46.04.7-.15.15-.34.29-.53.35-.31.12-.65.07-.65-.33 0-.01 0-.04.14-.05m0 0c-.24 0-.29-.12-.32-.35l-.01-.23v-.15l-.01-.01c0-.07 0-.12.15-.12h-.36v-.63h.36c.2 0 .32.07.39.21l.11-.18a.48.48 0 0 0-.14-.03m-.16 1.5h.02-.02Zm.56-.4.01-.01v.01Zm-.27.19Zm0-.24Z" fill="#a8ac71"/><path d="M12.04 7.75s.58-1.71-.34-2.6c-.92-.89-1.98-.83-1.98-.83s-.3.23 0 .4c.3.18.18.34.18.34s-.51-.52-.85-.21c-.34.3.31.26.24.48-.07.23-.36 1.25.07 1.76s-.4.4-.24.4c.17 0 .78.12.78 0s.2.47.39.47c.18 0 .32-.2.32-.2s.25.2.4.2c.16 0 .7-.14.7-.14l-1.02-.85s.06-.38-.08-.46c-.15-.08 1.15.72 1.25.98.1.26.18.26.18.26Z" fill="#8F4620"/><path d="M6.92 7.33s.09-.3.2-.32c.08-.02.26.14.26.14.33 1.8 1.11 2.51 2.42 2.51 1.32 0 2.12-.53 2.58-2.2 0 0 .25-.25.34-.22.1.03.21.36.21.36-.53 1.91-1.54 2.76-3.13 2.76-1.6 0-2.51-.96-2.88-3.03Z" fill="#9FAB2F"/><path d="M8.33 8.54s1.88.4 2.62.4c.74 0-.65.6-1.19.6-.54 0-1.43-1-1.43-1Z" fill="#2FC2DC"/><rect x="9.17" y="8.81" width="1.25" height=".67" rx=".1" fill="#f9aa51"/><path d="m7.61 7.58.51-.35c.67.95 1.66 1.26 3.06.93l.14.61c-1.63.38-2.89-.01-3.71-1.19Z" fill="#259485"/><path d="M10.37 7.72s-.76.4-.5.4c.25 0 1.24.2 1.04 0-.19-.2-.54-.4-.54-.4Zm-.9-.48s-.14-.41-.44-.41-.22.34-.36.34c-.15 0 .13.24.26.24.12 0 .54-.17.54-.17Z" fill="#fcca3d"/></svg>