<svg xmlns="http://www.w3.org/2000/svg" width="20" height="15" fill="transparent" viewBox="0 0 20 15"><g clip-path="url(#a)"><mask id="b" width="20" height="15" x="0" y="0" maskUnits="userSpaceOnUse" style="mask-type:luminance"><path fill="#fff" d="M0 0h20v15H0z"/></mask><g mask="url(#b)"><path fill="#F7FCFF" fill-rule="evenodd" d="M0 0h20v15H0V0Z" clip-rule="evenodd"/><path fill="#E31D1C" d="M.017 3.125h20v1.813h-20zm0 3.25h20v1.813h-20zM.07 9.5h20v1.563h-20zm0 3.125h20v1.688h-20z"/><path fill="#E31D1C" fill-rule="evenodd" d="M0 0h20v1.563H0V0Z" clip-rule="evenodd"/><path fill="#3D58DB" fill-rule="evenodd" d="M0 0h10v8.5H0V0Z" clip-rule="evenodd"/><path fill="#FECA00" fill-rule="evenodd" d="M2.246 3.876c0 .86.405 1.674 1.23 1.674 1.236 0 1.476-.264 2.053-.628.137.307-.323 1.618-2.07 1.618C2.06 6.512.93 5.39.93 3.876c0-1.736 1.277-2.674 2.492-2.664 1.073 0 2.21.61 2.175 1.385-.505-.493-1.054-.493-1.967-.493s-1.385.912-1.385 1.772Z" clip-rule="evenodd"/><path fill="#FECA00" fill-rule="evenodd" d="m6.875 4.563-.58.845.029-1.025-.966.344.625-.812L5 3.625l.983-.29-.625-.812.966.344-.028-1.025.579.845.58-.845-.029 1.025.966-.344-.625.812.983.29-.983.29.625.812-.966-.344.028 1.025-.579-.846Z" clip-rule="evenodd"/></g></g><defs><clipPath id="a"><rect width="20" height="15" fill="#fff" rx="2"/></clipPath></defs></svg>