<svg viewBox="0 0 20 15" fill="none" xmlns="http://www.w3.org/2000/svg"><path d="M0 0h20v15H0V0Z" fill="#f7fcff"/><path fill="#e31d1c" d="M.02 3.13h20v1.81h-20zm0 3.25h20v1.81h-20zM.07 9.5h20v1.56h-20zm0 3.13h20v1.69h-20zM0 0h20v1.56H0V0Z"/><path d="M0 0h10v8.5H0V0Z" fill="#3d58db"/><path d="M2.25 3.88c0 .86.4 1.67 1.23 1.67 1.23 0 1.47-.26 2.05-.63.14.3-.32 1.62-2.07 1.62A2.59 2.59 0 0 1 .93 3.88c0-1.74 1.28-2.68 2.5-2.67 1.07 0 2.2.61 2.17 1.39-.5-.5-1.06-.5-1.97-.5-.91 0-1.38.92-1.38 1.78Z" fill="#feca00"/><path d="m6.88 4.56-.58.85.02-1.03-.96.35.62-.82L5 3.62l.98-.28-.62-.82.96.35-.02-1.03.58.85.57-.85-.02 1.03.96-.35-.62.82.98.29-.98.28.62.82-.96-.35.02 1.03-.58-.85Z" fill="#feca00"/></svg>