<svg viewBox="0 0 20 15" fill="none" xmlns="http://www.w3.org/2000/svg"><path d="M0 0v15h20V0H0Z" fill="#f7fcff"/><path d="M0 0v5h20V0H0Z" fill="#feca00"/><path d="M0 10v5h20v-5H0Z" fill="#093"/><path d="M0 4.38h-.63v6.25h21.26V4.37H0Z" fill="#272727" stroke="#fff" stroke-width="1.25"/><path d="M0 0v15l11.25-7.5L0 0Z" fill="#f50100"/><path d="m5.04 8.97-2.36 1.9 1.08-2.54-1.86-1.8h2.2L5 4.38l.96 2.17h2.2L6.18 8.33l.98 2.55-2.13-1.9Z" fill="#feca00"/><path d="m3.85 7.49-.4 1.34s1.35-.02 1.51.12c.5-.3 1.5-.12 1.5-.12L5.92 7.4s-.68-.31-.96-.14c-.69-.16-1.11.23-1.11.23Z" fill="#f7fcff"/><path d="M7.23 9.51a.31.31 0 0 1-.5.38L4.12 6.42a.31.31 0 1 1 .5-.38l2.6 3.47Z" fill="#000"/><path d="m4.36 6.15-.25-.3" stroke="#000" stroke-width=".63" stroke-linecap="round" stroke-linejoin="round"/><path d="m3.5 5.85-.75 1.21.38.66.86-1.29.15-.4L4 5.85h-.5Zm-.98 3.59.37.52 2.8-3.33.12.13.65-.6L7.5 5.02l-1.04.84-.33-.09-.32.5h-.3L3.2 8.82l-.69.61Z" fill="#000"/></svg>