<svg xmlns="http://www.w3.org/2000/svg" width="20" height="15" fill="transparent" viewBox="0 0 20 15"><g clip-path="url(#a)"><mask id="b" width="20" height="15" x="0" y="0" maskUnits="userSpaceOnUse" style="mask-type:luminance"><path fill="#fff" d="M0 0h20v15H0z"/></mask><g mask="url(#b)"><path fill="#093" fill-rule="evenodd" d="M0 0v15h20V0H0Z" clip-rule="evenodd"/><mask id="c" width="20" height="15" x="0" y="0" maskUnits="userSpaceOnUse" style="mask-type:luminance"><path fill="#fff" fill-rule="evenodd" d="M0 0v15h20V0H0Z" clip-rule="evenodd"/></mask><g mask="url(#c)"><path fill="#3195F9" fill-rule="evenodd" d="M0 0v15L20 0H0Z" clip-rule="evenodd"/><path fill="#E31D1C" stroke="#F7FCFF" stroke-width="1.25" d="m-.633 16.933.332.601.567-.386L22.036 2.33l.439-.299-.224-.481-1.464-3.15-.307-.66-.606.403-22.097 14.723-.479.319.278.503 1.791 3.245Z"/><path fill="#FECA00" fill-rule="evenodd" d="m3.894 5.778-.81 1.009-.195-1.278-1.205.47.47-1.206-1.279-.196 1.01-.808-1.01-.81 1.278-.195-.47-1.205 1.206.47L3.085.75l.809 1.01.808-1.01.196 1.278 1.205-.47-.47 1.206 1.279.196-1.009.809 1.009.808-1.278.196.47 1.205-1.206-.47-.196 1.279-.808-1.009Zm0-.447a1.563 1.563 0 1 0 0-3.125 1.563 1.563 0 0 0 0 3.125Zm1.25-1.562a1.25 1.25 0 1 1-2.5 0 1.25 1.25 0 0 1 2.5 0Z" clip-rule="evenodd"/></g></g></g><defs><clipPath id="a"><rect width="20" height="15" fill="#fff" rx="2"/></clipPath></defs></svg>