<svg viewBox="0 0 20 15" fill="none" xmlns="http://www.w3.org/2000/svg"><path d="M0 0v15h20V0H0Z" fill="#093"/><path d="M0 0v15L20 0H0Z" fill="#3195F9"/><path d="m-.63 16.93.33.6.57-.38L22.04 2.33l.43-.3-.22-.48L20.8-1.6l-.31-.66-.6.4-22.1 14.73-.48.32.28.5 1.79 3.24Z" fill="#e31d1c" stroke="#f7fcff" stroke-width="1.25"/><path d="m3.9 5.78-.82 1-.2-1.27-1.2.47.47-1.2-1.27-.2 1-.81-1-.81 1.27-.2-.47-1.2 1.2.47.2-1.28.81 1 .81-1 .2 1.28 1.2-.47-.47 1.2 1.28.2-1 .8 1 .82-1.28.2.47 1.2-1.2-.47-.2 1.28-.8-1.01Zm0-.45a1.56 1.56 0 1 0 0-3.12 1.56 1.56 0 0 0 0 3.12Zm1.24-1.56a1.25 1.25 0 1 1-2.5 0 1.25 1.25 0 0 1 2.5 0Z" fill="#feca00"/></svg>