<svg viewBox="0 0 20 15" fill="none" xmlns="http://www.w3.org/2000/svg"><path d="M14 0h6v15h-6V0ZM0 0h6v15H0V0Z" fill="#409100"/><path d="M6 0h8v15H6V0Z" fill="#fff"/><path d="M7.93 11.73c-.97.16-1.27-.31-1.27-.31l.12-.1c.08-.07.36-.05.63-.03l.36.02c.15 0 .33-.02.51-.04.2-.03.4-.06.6-.06.37 0-1.1-.48-1.43-.18-.31.3-1.2-.14-1.2-.4 0-.17.33-.1.63-.05.13.03.27.06.36.06.28 0-.29-.56-.58-.56-.3 0 .3-.13.58-.13.16 0 .31.04.44.08.1.03.18.05.25.05.17 0-.81-.42-.98-.42h.82c.28 0 .35.04.42.08.05.03.11.06.31.06.44 0 .2-.24.2-.24s-1.46-.15-1.75-.36c-.19-.14.33-.09.82-.04l.6.04c.43 0-.92-.3-1.13-.3h.99c.21 0 .45.06.7.14.28.08.57.16.86.16.3 0-.3-.18-.95-.38a9.46 9.46 0 0 1-1.27-.44c-.17-.1-.04-.06.2.01.26.09.68.21.93.21.47 0-.63-.46-.93-.46-.3 0-.59-.14-.32-.26.17-.08.6.04.98.14a3 3 0 0 0 .56.12c.14 0 .24.05.35.1a.9.9 0 0 0 .45.14c.38 0-.8-.5-1.29-.5-.48 0-.57-.24-.27-.24.3 0-.66-.4-.66-.4s-.14-.29.2-.29h.46c.15 0-.16-.5-.46-.5-.3 0-.04-.14.46-.14.3 0 .47.1.69.23.13.08.28.17.5.24.53.2.12-.32 0-.32-.14 0-1.49-.42-1.49-.42s.14-.16 0-.37c-.1-.16.33-.08.6-.03l.17.03a17.7 17.7 0 0 0 .93.21c.4.09-1.36-.65-1.56-.65-.2 0 .43-.12.8-.12.2 0 .28.03.37.06.1.03.2.06.4.06.4 0-.76-.42-1.14-.42-.37 0-.15-.37 0-.37l.4.04c.29.04.66.09.89.09.17 0 .01-.05-.22-.12-.27-.09-.63-.2-.7-.3-.06-.1.08-.09.32-.05l.13.02c.16.08.3.14.32.07 0-.02.02-.03.03-.04h.12c.22 0 .12-.03-.1-.07h-.01c-.33-.1-1.04-.32-.77-.19l.17.1a4.5 4.5 0 0 0-.38-.05c-.18 0-.36-.14 0-.14h.71c-.22 0-.53 0-.53-.17 0-.12.25-.08.47-.04l.28.04c.23 0 .28 0 .16-.1-.12-.1-.51-.1-.76-.1h-.04c-.24 0 .51-.13.8-.13h.07-.04A2.9 2.9 0 0 1 9 3.1c-.26-.12-.03-.09.27-.05.18.03.39.05.53.05.38 0-.16-.25-.56-.25-.32 0-.16-.09.03-.2l.15-.09c.15-.1.25.06.32.16.04.06.06.09.06 0 0-.1-.02-.16-.04-.2a.5.5 0 0 0 .04.04c.15.1 0-.27 0-.27s-.16-.1 0-.1c.15 0-.05-.18-.16-.18-.1 0 .28-.17.28-.17l.08-.73s.21.8.21.9v.55c0 .13-.09.22-.15.29-.08.07-.11.1.15.1.48 0 .46.15.17.15-.29 0 .08.2.6.2.51 0-.44.22-.77.22s.33.1.77.1c.29 0-.01.1-.29.2-.13.04-.26.08-.31.11-.09.05.12.05.35.03l-.33.1-.14.05h.03c.04 0 .13.01.15.07.03.09.27-.05.5-.18l.12-.06h.1s.21.24.21.39c0 .09-.28.11-.58.14h-.03c.01-.02-.05 0-.14.02-.16.01-.3.03-.4.07-.1.03-.09.04 0 .04l-.03.01-.1.04h.02c.03 0 .1.02.12.08.02.09.19-.02.34-.13l.02-.01.15-.01.42-.02c.28 0-.28.13-.5.13-.09 0 .03.02.2.05.24.05.58.1.68.17.12.06-.22.04-.53.02a5.82 5.82 0 0 0-.34-.02c-.25 0-.3.2-.13.2h.62c.23 0 .47.35.38.35a.86.86 0 0 0-.17.04c-.18.06-.5.16-.83.16h.83c.22 0 .83 0 .83.21 0 .13-.12.16-.27.2-.1.02-.2.05-.3.1-.26.15.8.28.8.28s-.42.13-.63.13c-.2 0 .1.2.63.2.41 0 .29.22.21.36l-.04.09c0 .04-.07.07-.19.11-.14.06-.34.15-.51.3-.2.16.04.11.3.06.15-.03.3-.07.4-.07.28 0 .4.01.31.15-.09.14-.9.35-1.1.35h1.1c.3 0-.09.24-.48.24-.27 0-.41.1-.51.17-.05.03-.08.05-.12.05h.8c.04 0 .09-.06.13-.12.04-.05.07-.1.1-.1.36.06.2.51 0 .51-.23 0-.93.16-.82.31.05.08.13.04.27-.01.14-.06.34-.14.63-.14.56 0 .05.15-.09.15-.13 0-.72.12-.92.21-.13.07.32.05.78.02l.6-.02c.46 0-1.08.4-1.65.4-.56 0 .38.14.57.14l.39.04c.28.04.64.09.94.09.49 0-.49.32-.93.32h-.1c-.39 0-.68 0-.5.24.11.13.46.1.83.05.35-.03.7-.07.88.04.32.18-1.1.17-1.7.16h-.2c-.38 0 .37.14 1.01.14h.09c.57 0 .71 0 .71.18 0 .17-1.26.13-1.78.11h-.2c-.1 0-.17.06-.23.12-.06.07-.13.14-.25.14-.1 0-.15-.07-.2-.13-.05-.08-.1-.15-.27-.03-.29.2.29 2.2.29 2.2H9.4v-1.89s-.5-.16-1.48 0Zm1.8-9.22.02.03-.03-.03Zm-.55 7.5c-.25-.09.38-.1.66-.1.1 0 .13 0 .13.02l-.02.02a.26.26 0 0 0-.1.2c0 .18-.24.07-.46-.04l-.21-.1Zm.5-.72c-.28 0-.9 0-.66.1.07.02.14.06.21.1.23.1.46.22.46.04 0-.12.07-.18.1-.2l.03-.03h-.13Zm-.51-.42c-.2-.05.3-.05.54-.05h.1v.02c-.04.01-.1.04-.1.1 0 .1-.19.04-.37-.02a2.87 2.87 0 0 0-.17-.05Zm.5-1.98c-.32-.1-1.03-.31-.76-.18l.22.12c.23.13.48.27.5.18.03-.06.12-.06.16-.07h.03l-.14-.05Zm-.76-.8c-.27-.14.44.08.77.17l.14.05h-.03c-.04.01-.13.01-.15.07-.03.1-.28-.04-.5-.18a5.65 5.65 0 0 0-.23-.12Zm.77-.6c-.33-.1-1.04-.32-.77-.19l.22.12c.23.13.48.27.5.18.03-.06.12-.06.16-.07h.03l-.14-.05Zm.7 4.27c.29 0 .91 0 .67.1-.07.02-.14.06-.22.1-.22.1-.45.22-.45.04a.26.26 0 0 0-.1-.2l-.03-.03h.13Zm.67-.37c.24-.1-.38-.1-.67-.1h-.13l.02.03c.04.03.11.09.11.2 0 .19.23.07.45-.04l.22-.1Zm.38-1.09c.03 0 .03 0 0 0l-.37.14c-.31.12-.7.28-.7.2 0-.07-.06-.1-.1-.12l.1-.01c.2 0 .94-.18 1.07-.2Zm-.27-1.9c.27-.13-.44.08-.77.18a.67.67 0 0 0-.14.05h.03c.04 0 .13 0 .15.07.03.09.27-.05.5-.18l.23-.12Zm-.77.8c.33-.1 1.04-.3.77-.18l-.22.12c-.24.14-.48.27-.5.18-.03-.06-.12-.06-.16-.06h-.03l.14-.06Zm.77-1.43c.27-.13-.44.08-.77.18a.67.67 0 0 0-.14.05h.03c.04 0 .13.01.15.07.03.09.27-.05.5-.18l.23-.12Zm-.98-.37c.22-.06.71-.21.53-.1l-.15.1c-.15.1-.32.21-.34.12-.02-.06-.09-.07-.12-.08h-.02l.1-.04Zm.14 2.39c-.25 0 0-.2 0-.2h.14c.04 0 .08-.03.14-.05.1-.05.25-.12.57-.12.48 0-.59.37-.85.37Z" fill="#409100"/></svg>