<svg viewBox="0 0 20 15" fill="none" xmlns="http://www.w3.org/2000/svg"><path d="M0 0v15h20V0H0Z" fill="#f7fcff"/><path d="M0 0v5h20V0H0ZM0 10v5h20v-5H0Z" fill="#0080EC"/><path d="M10 5c.118 0 .234.008.347.024l-.124.797a1.71 1.71 0 0 0-.545.016L9.62 5.03A2.52 2.52 0 0 1 10 5Zm.72.105-.217.778a1.694 1.694 0 0 1 1.19 1.673l.804.068a2.501 2.501 0 0 0-1.777-2.519Zm1.476 3.591a2.5 2.5 0 0 1-2.01 1.297v-.81c.462-.05.869-.287 1.143-.634l.867.147Zm-4.335.098a2.5 2.5 0 0 0 1.996 1.202v-.809a1.691 1.691 0 0 1-1.21-.668l-.787.275Zm-.359-1.187A2.5 2.5 0 0 1 9.095 5.17l.209.787c-.585.264-.992.85-.997 1.532l-.805.12Z" fill="#d0ab00"/><path d="M9.984 5.594 8.274 8.55h3.448L9.984 5.594Z" fill="#7cdfff"/><mask id="a" maskUnits="userSpaceOnUse" x="8" y="5" width="4" height="4"><path d="M9.984 5.594 8.274 8.55h3.448L9.984 5.594Z" fill="#fff"/></mask><g mask="url(#a)"><path d="M10 9.449a1.494 1.494 0 1 0 0-2.989 1.494 1.494 0 0 0 0 2.989Z" stroke="#e31d1c" stroke-width=".625"/><path d="M10 9.449a1.494 1.494 0 1 0 0-2.989 1.494 1.494 0 0 0 0 2.989Z" stroke="#ffd018" stroke-width=".625"/><path d="M10 9.449a1.494 1.494 0 1 0 0-2.989 1.494 1.494 0 0 0 0 2.989Z" stroke="#4EDD00" stroke-width=".625"/><path d="M10 9.449a1.494 1.494 0 1 0 0-2.989 1.494 1.494 0 0 0 0 2.989Z" stroke="#3d58db" stroke-width=".625"/><path fill="#3d58db" d="M8.136 7.636h3.909v1.136H8.136z"/><path d="m8.398 8.12.78-.775.238.387.167-.472.186.354.195-.27.252.27.231-.354.198.354.226-.27.53.563.095.212-3.098.158v-.158Z" fill="#97C923"/></g></svg>