<svg xmlns="http://www.w3.org/2000/svg" width="20" height="15" fill="transparent" viewBox="0 0 20 15"><g clip-path="url(#a)"><path fill="#fff" d="M0 0h20v15H0z"/><path fill="#C51918" stroke="#4857A1" d="m7.118 7.938 5.554 6.562H.5V.978l11.501 6.137H6.422l.696.823Z"/><mask id="b" width="14" height="15" x="0" y="0" maskUnits="userSpaceOnUse" style="mask-type:luminance"><path fill="#fff" stroke="#fff" d="m7.118 7.938 5.554 6.562H.5V.978l11.501 6.137H6.422l.696.823Z"/></mask><g fill-rule="evenodd" clip-rule="evenodd" mask="url(#b)"><path fill="#F7FCFF" d="m3.644 12.545-.766.978-.036-1.234-1.203.348.708-1.02-1.181-.414 1.181-.415-.708-1.02 1.203.35.036-1.236.766.979.765-.979.036 1.235 1.203-.348-.708 1.02 1.181.414-1.181.415.708 1.019-1.203-.348-.036 1.234-.765-.978ZM3.625 5.24l-.4.51-.018-.645-.629.182.37-.532-.617-.217.617-.216-.37-.533.629.182.018-.644.4.51.4-.51.018.644.629-.182-.37.533.617.216-.617.217.37.532-.629-.182-.018.645-.4-.51Z"/><path fill="#F9FAFA" d="M3.54 5.089c1.37.006 2.101-.784 2.101-.784.145.9-.971 1.5-2.087 1.5s-1.792-.817-2.208-1.5c0 0 .825.778 2.195.784Z"/></g></g><defs><clipPath id="a"><rect width="20" height="15" fill="#fff" rx="2"/></clipPath></defs></svg>