<svg xmlns="http://www.w3.org/2000/svg" width="20" height="15" fill="transparent" viewBox="0 0 20 15"><g clip-path="url(#a)"><mask id="b" width="20" height="15" x="0" y="0" maskUnits="userSpaceOnUse" style="mask-type:luminance"><path fill="#fff" d="M0 0h20v15H0z"/></mask><g mask="url(#b)"><path fill="#2E42A5" fill-rule="evenodd" d="M0 0v15h20V0H0Z" clip-rule="evenodd"/><mask id="c" width="20" height="15" x="0" y="0" maskUnits="userSpaceOnUse" style="mask-type:luminance"><path fill="#fff" fill-rule="evenodd" d="M0 0v15h20V0H0Z" clip-rule="evenodd"/></mask><g mask="url(#c)"><path fill="#FECA00" fill-rule="evenodd" d="M0 10v5h20v-5H0Z" clip-rule="evenodd"/><mask id="d" width="20" height="10" x="0" y="0" maskUnits="userSpaceOnUse" style="mask-type:luminance"><path fill="#fff" d="M0 0h20v10H0z"/></mask><g mask="url(#d)"><path fill="#fff" d="m-1.414 9.456 3.964.917L11 5.703l.895-.522L19.922.983l1.902-1.325-4.35-.402-7.013 3.957-5.069 2.49-6.806 3.753Z"/><path fill="#F50100" d="m-1.066 10.012 2.134.7L21.03-.508h-2.997l-19.099 10.52Z"/><path fill="#fff" d="m21.482 9.207.157.944-4.19.222-6.753-3.956-.637.218L-2.55.257 2.657-.745 9.616 3.1l5.445 2.63 6.42 3.477Z"/><path fill="#F50100" d="m21.496 9.773-2.134.7-8.5-4.804-2.52-.536-10.379-5.47H.96l10.373 5.339 2.755.643 7.408 4.127Z"/><path fill="#fff" d="M8.243-.781v-.781h-.781v.78h.781Zm0 3.75v.781h.781v-.781h-.78Zm-9.024 0v-.781h-.781v.78h.78Zm0 4.062h-.781v.782h.78V7.03Zm9.024 0h.781V6.25h-.78v.781Zm0 5h-.781v.781h.781v-.78Zm3.556 0v.781h.78v-.78h-.78Zm0-5V6.25h-.782v.781h.782Zm8.982 0v.782h.782V7.03h-.782Zm0-4.062h.782v-.781h-.782v.78Zm-8.982 0h-.782v.781h.782v-.781Zm0-3.75h.78v-.781h-.78v.78Zm-1.563 3.75v.781h.781v-.781h-.781Zm0-2.188h.781V0h-.781v.781Zm-.43 0V0h-.782v.781h.782Zm0 2.188h-.782v.781h.782v-.781Zm.43 1.562h.781V3.75h-.781v.781Zm-.43 0V3.75h-.782v.781h.782Zm.43.938v.781h.781v-.781h-.781Zm-.43 0h-.782v.781h.782v-.781ZM8.243 4.53h.781v-.78h-.78v.781Zm-7.462 0v-.78H0v.781h.781Zm0 .938H0v.781h.781v-.781Zm7.462 0v.781h.781v-.781h-.78ZM9.806 7.03v-.78h-.782v.781h.782Zm0 3.438h-.782v.781h.782v-.781Zm.43 0v.781h.781v-.781h-.781Zm0-3.438h.781v-.78h-.781v.781Zm1.563-2.5v-.78h-.782v.781h.782Zm0 .938h-.782v.781h.782v-.781Zm7.42-.938H20v-.78h-.781v.781Zm0 .938v.781H20v-.781h-.781ZM8.243 0h.781v-1.563h-.78V0Zm.781 0v-.781H7.462V0h1.562Zm0 2.969V0H7.462v2.969h1.562ZM0 3.75h8.243V2.187H0V3.75Zm-.781 0H0V2.187h-.781V3.75Zm.781 0v-.781h-1.563v.781H0Zm0 2.5v-2.5h-1.563v2.5H0Zm0 .781V6.25h-1.563v.781H0Zm0-.781h-.781v1.563H0V6.25Zm8.243 0H0v1.563h8.243V6.25Zm.781 5V7.031H7.462v4.219h1.562Zm0 .781v-.781H7.462v.781h1.562Zm0-.781h-.78v1.563h.78V11.25Zm1.993 0H9.024v1.563h1.993V11.25Zm.782 0h-.782v1.563h.782V11.25Zm-.782 0v.781h1.563v-.781h-1.563Zm0-4.219v4.219h1.563V7.031h-1.563ZM20 6.25h-8.201v1.563H20V6.25Zm.781 0H20v1.563h.781V6.25Zm-.781 0v.781h1.563V6.25H20Zm0-2.5v2.5h1.563v-2.5H20Zm0-.781v.781h1.563v-.781H20Zm0 .781h.781V2.187H20V3.75Zm-8.201 0H20V2.187h-8.201V3.75ZM11.017 0v2.969h1.563V0h-1.563Zm0-.781V0h1.563v-.781h-1.563Zm0 .781h.782v-1.563h-.782V0ZM9.024 0h1.993v-1.563H9.024V0Zm1.993 2.969V.78H9.455v2.19h1.562ZM10.236 0h-.43v1.563h.43V0ZM9.024.781V2.97h1.563V.78H9.024Zm.782 2.969h.43V2.187h-.43V3.75Zm.43 0h-.43v1.563h.43V3.75Zm.781 1.719V4.53H9.455v.938h1.562Zm-1.211.781h.43V4.687h-.43V6.25Zm-.782-1.719v.938h1.563V4.53H9.024Zm-.78-.781H.78v1.563h7.462V3.75ZM0 4.531v.938h1.563V4.53H0ZM.781 6.25h7.462V4.687H.781V6.25Zm8.243-.781V4.53H7.462v.938h1.562Zm0 1.562v3.438h1.563V7.03H9.024Zm.782 4.219h.43V9.687h-.43v1.563Zm1.211-.781V7.03H9.455v3.438h1.562Zm-.781-4.219h-.43v1.563h.43V6.25Zm.781-1.719v.938h1.563V4.53h-1.563Zm8.202-.781h-7.42v1.563h7.42V3.75ZM20 5.469V4.53h-1.563v.938H20Zm-8.201.781h7.42V4.687h-7.42V6.25Z"/><path fill="#F50100" fill-rule="evenodd" d="M11.058-.833H8.942V3.75H0v2.5h8.942v5.833h2.116V6.25H21.25v-2.5H11.058V-.833Z" clip-rule="evenodd"/></g><path fill="#2E42A5" fill-rule="evenodd" d="M10.031 6.625a1.719 1.719 0 1 0 0-3.438 1.719 1.719 0 0 0 0 3.438Z" clip-rule="evenodd"/><path fill="#FECA00" fill-rule="evenodd" d="m10.063 5.432-.812.565.287-.946-.788-.597.988-.02.325-.934.324.933.988.02-.787.598.286.946-.812-.565ZM4.438 5.36l-.676.47L4 5.042l-.656-.497.823-.017.27-.778.27.778.824.017-.656.497.238.788-.676-.47Zm11.25 0-.677.47.239-.788-.656-.497.823-.017.27-.778.27.778.824.017-.656.497.238.788-.675-.47Zm-5.625-3-.676.47.238-.788-.656-.497.823-.017.27-.778.27.778.824.017-.656.497.239.788-.677-.47Zm0 6.625-.676.47.238-.788-.656-.497.823-.017.27-.778.27.778.824.017-.656.497.239.788-.677-.47Z" clip-rule="evenodd"/></g></g></g><defs><clipPath id="a"><rect width="20" height="15" fill="#fff" rx="2"/></clipPath></defs></svg>