<svg viewBox="0 0 20 15" fill="none" xmlns="http://www.w3.org/2000/svg"><path d="M0 0v15h20V0H0Z" fill="#2e42a5"/><path d="M0 10v5h20v-5H0Z" fill="#feca00"/><path d="m-1.41 9.46 3.96.91L11 5.7l.9-.52 8.02-4.2 1.9-1.32-4.35-.4-7 3.95-5.08 2.5-6.8 3.75Z" fill="#fff"/><path d="m-1.07 10.01 2.14.7L21.03-.5h-3l-19.1 10.52Z" fill="#f50100"/><path d="m21.48 9.2.16.95-4.19.22-6.75-3.95-.64.21L-2.55.26l5.2-1L9.63 3.1l5.44 2.63 6.42 3.48Z" fill="#fff"/><path d="m21.5 9.77-2.14.7-8.5-4.8-2.52-.54L-2.04-.34h3L11.33 5l2.76.65 7.4 4.12Z" fill="#f50100"/><path d="M8.24-.78v-.78h-.78v.78h.78Zm0 3.75v.78h.78v-.78h-.78Zm-9.02 0v-.78h-.78v.78h.78Zm0 4.06h-.78v.78h.78v-.78Zm9.02 0h.78v-.78h-.78v.78Zm0 5h-.78v.78h.78v-.78Zm3.56 0v.78h.78v-.78h-.78Zm0-5v-.78h-.78v.78h.78Zm8.98 0v.78h.78v-.78h-.78Zm0-4.06h.78v-.78h-.78v.78Zm-8.98 0h-.78v.78h.78v-.78Zm0-3.75h.78v-.78h-.78v.78Zm-1.56 3.75v.78h.78v-.78h-.78Zm0-2.19h.78V0h-.78v.78Zm-.43 0V0h-.79v.78h.79Zm0 2.19h-.79v.78h.79v-.78Zm.43 1.56h.78v-.78h-.78v.78Zm-.43 0v-.78h-.79v.78h.79Zm.43.94v.78h.78v-.78h-.78Zm-.43 0h-.79v.78h.79v-.78Zm-1.57-.94h.78v-.78h-.78v.78Zm-7.46 0v-.78H0v.78h.78Zm0 .94H0v.78h.78v-.78Zm7.46 0v.78h.78v-.78h-.78Zm1.57 1.56v-.78h-.79v.78h.79Zm0 3.44h-.79v.78h.79v-.78Zm.43 0v.78h.78v-.78h-.78Zm0-3.44h.78v-.78h-.78v.78Zm1.56-2.5v-.78h-.78v.78h.78Zm0 .94h-.78v.78h.78v-.78Zm7.42-.94H20v-.78h-.78v.78Zm0 .94v.78H20v-.78h-.78ZM8.24 0h.78v-1.56h-.78V0Zm.78 0v-.78H7.46V0h1.56Zm0 2.97V0H7.46v2.97h1.56ZM0 3.75h8.24V2.19H0v1.56Zm-.78 0H0V2.19h-.78v1.56Zm.78 0v-.78h-1.56v.78H0Zm0 2.5v-2.5h-1.56v2.5H0Zm0 .78v-.78h-1.56v.78H0Zm0-.78h-.78v1.56H0V6.25Zm8.24 0H0v1.56h8.24V6.25Zm.78 5V7.03H7.46v4.22h1.56Zm0 .78v-.78H7.46v.78h1.56Zm0-.78h-.78v1.56h.78v-1.56Zm2 0h-2v1.56h2v-1.56Zm.78 0h-.78v1.56h.78v-1.56Zm-.78 0v.78h1.56v-.78h-1.56Zm0-4.22v4.22h1.56V7.03h-1.56ZM20 6.25h-8.2v1.56H20V6.25Zm.78 0H20v1.56h.78V6.25Zm-.78 0v.78h1.56v-.78H20Zm0-2.5v2.5h1.56v-2.5H20Zm0-.78v.78h1.56v-.78H20Zm0 .78h.78V2.19H20v1.56Zm-8.2 0H20V2.19h-8.2v1.56ZM11.02 0v2.97h1.56V0h-1.56Zm0-.78V0h1.56v-.78h-1.56Zm0 .78h.78v-1.56h-.78V0Zm-2 0h2v-1.56h-2V0Zm2 2.97V.78H9.45v2.19h1.57ZM10.24 0H9.8v1.56h.43V0ZM9.02.78v2.19h1.57V.78H9.02Zm.79 2.97h.43V2.19H9.8v1.56Zm.43 0H9.8v1.56h.43V3.75Zm.78 1.72v-.94H9.45v.94h1.57Zm-1.21.78h.43V4.69H9.8v1.56Zm-.79-1.72v.94h1.57v-.94H9.02Zm-.78-.78H.78v1.56h7.46V3.75ZM0 4.53v.94h1.56v-.94H0Zm.78 1.72h7.46V4.69H.78v1.56Zm8.24-.78v-.94H7.46v.94h1.56Zm0 1.56v3.44h1.57V7.03H9.02Zm.79 4.22h.43V9.69H9.8v1.56Zm1.2-.78V7.03H9.46v3.44h1.57Zm-.77-4.22H9.8v1.56h.43V6.25Zm.78-1.72v.94h1.56v-.94h-1.56Zm8.2-.78H11.8v1.56h7.42V3.75ZM20 5.47v-.94h-1.56v.94H20Zm-8.2.78h7.42V4.69H11.8v1.56Z" fill="#fff"/><path d="M11.06-.83H8.94v4.58H0v2.5h8.94v5.83h2.12V6.25h10.19v-2.5h-10.2V-.83Z" fill="#f50100"/><path d="M10.03 6.63a1.72 1.72 0 1 0 0-3.44 1.72 1.72 0 0 0 0 3.44Z" fill="#2e42a5"/><path d="m10.06 5.43-.8.57.28-.95-.79-.6.99-.02.32-.93.33.93.98.02-.78.6.28.95-.8-.57Zm-5.62-.07-.68.47.24-.79-.66-.5.83-.01.27-.78.27.78.82.01-.66.5.24.79-.67-.47Zm11.25 0-.68.47.24-.79-.66-.5.83-.01.27-.78.27.78.82.01-.66.5.24.79-.67-.47Zm-5.63-3-.67.47.23-.79-.65-.5.82-.01.27-.78.27.78.83.01-.66.5.24.79-.68-.47Zm0 6.63-.67.47.23-.8-.65-.49.82-.02.27-.78.27.78.83.02-.66.5.24.79-.68-.47Z" fill="#feca00"/></svg>