<svg viewBox="0 0 20 15" fill="none" xmlns="http://www.w3.org/2000/svg"><path d="M0 0v15h20V0H0Z" fill="#f50101"/><path d="M0 0v5h20V0H0Z" fill="#f7fcff"/><path d="M0 10v5h20v-5H0Z" fill="#5eaa22"/><path fill="#f50101" d="M0 0h7.5v15H0z"/><path d="M6.73 1.27c0-.06-.07-.08-.1-.03-.22.39-.79 1.3-1.73 2.5v-.57c-.08-.1-.37-.36-.37-.36v-.57l.52-.47-.71-.52-.75.52.57.47v.57c0 .27-.35.36-.35.36l-.06.5a23.36 23.36 0 0 1-1.64-2.4c-.03-.05-.1-.03-.1.03.07.46.28 1.48.85 2.57h-.15v-.02a.05.05 0 0 0-.05-.05H1.34a.05.05 0 0 0-.06.05v.83c0 .03.03.06.06.06h1.32c.03 0 .05-.03.05-.06v-.43h.17c.05.13.18.22.33.22.1.16.22.33.35.49-.29-.03-2.18-.2-2.18.5 0 .4.46.62 1.04.73L1.04 7.44c-.04.04-.01.1.04.09A8.9 8.9 0 0 0 3.83 6.3h.04c.32 0 .54-.14.69-.33a8.46 8.46 0 0 0 3 1.52c.05.02.08-.06.03-.1a16.98 16.98 0 0 1-2.53-2.18l.03-.03c.21-.25.4-.51.56-.77.07-.04.12-.1.15-.17h.17v.43c0 .03.03.06.06.06h1.31c.03 0 .06-.03.06-.06v-.83a.05.05 0 0 0-.06-.05H6.03l-.04.01c.54-1.09.7-2.1.74-2.54Zm-.76 2.6v-.02l-.01.02h.01Zm-2.44.23a.3.3 0 0 1-.31.3.3.3 0 0 1-.3-.3c0-.17.13-.3.3-.3.17 0 .3.13.3.3Zm1.63 0c0 .17.13.3.3.3a.3.3 0 0 0 .3-.3.3.3 0 0 0-.3-.3.3.3 0 0 0-.3.3Z" fill="#f7fcff"/></svg>