<svg xmlns="http://www.w3.org/2000/svg" width="20" height="15" fill="transparent" viewBox="0 0 20 15"><g clip-path="url(#a)"><mask id="b" width="20" height="15" x="0" y="0" maskUnits="userSpaceOnUse" style="mask-type:luminance"><path fill="#fff" d="M0 0h20v15H0z"/></mask><g mask="url(#b)"><path fill="#F50101" fill-rule="evenodd" d="M0 0v15h20V0H0Z" clip-rule="evenodd"/><mask id="c" width="20" height="15" x="0" y="0" maskUnits="userSpaceOnUse" style="mask-type:luminance"><path fill="#fff" fill-rule="evenodd" d="M0 0v15h20V0H0Z" clip-rule="evenodd"/></mask><g mask="url(#c)"><path fill="#F7FCFF" fill-rule="evenodd" d="M0 0v5h20V0H0Z" clip-rule="evenodd"/><path fill="#5EAA22" fill-rule="evenodd" d="M0 10v5h20v-5H0Z" clip-rule="evenodd"/><path fill="#F50101" d="M0 0h7.5v15H0z"/><path fill="#F7FCFF" fill-rule="evenodd" d="M6.732 1.27c.006-.056-.067-.078-.096-.029a23.922 23.922 0 0 1-1.732 2.5v-.573c-.089-.097-.373-.358-.373-.358v-.573l.514-.466-.707-.521-.745.521.563.466v.573c0 .274-.341.358-.341.358l-.063.505A23.356 23.356 0 0 1 2.11 1.267c-.03-.05-.104-.027-.095.031.07.461.277 1.483.85 2.575H2.71v-.02a.054.054 0 0 0-.054-.055H1.338a.054.054 0 0 0-.055.054v.83c0 .03.025.054.055.054h1.318c.03 0 .054-.025.054-.055v-.435h.166c.056.13.186.221.337.224.105.163.22.326.344.486-.286-.028-2.174-.189-2.174.498 0 .41.46.627 1.035.74L1.04 7.44c-.04.037-.009.1.045.087a8.896 8.896 0 0 0 2.75-1.22h.036a.854.854 0 0 0 .689-.323C5.7 6.916 6.992 7.346 7.552 7.5c.058.016.09-.06.04-.094A16.983 16.983 0 0 1 5.06 5.225l.028-.032c.214-.253.4-.513.563-.774.068-.04.122-.1.154-.173h.166v.435c0 .03.024.055.054.055h1.318c.03 0 .054-.025.054-.055v-.829a.054.054 0 0 0-.054-.054H6.025a.054.054 0 0 0-.036.014 7.723 7.723 0 0 0 .743-2.541ZM5.97 3.874v-.025l-.012.025h.012ZM3.525 4.1a.304.304 0 0 1-.305.302.304.304 0 0 1-.306-.302c0-.167.137-.303.306-.303.168 0 .305.136.305.303Zm1.63 0c0 .167.138.302.306.302a.304.304 0 0 0 .306-.302.304.304 0 0 0-.306-.303.304.304 0 0 0-.305.303Z" clip-rule="evenodd"/></g></g></g><defs><clipPath id="a"><rect width="20" height="15" fill="#fff" rx="2"/></clipPath></defs></svg>