<svg xmlns="http://www.w3.org/2000/svg" width="20" height="15" fill="transparent" viewBox="0 0 20 15"><g clip-path="url(#a)"><mask id="b" width="20" height="15" x="0" y="0" maskUnits="userSpaceOnUse" style="mask-type:luminance"><path fill="#fff" d="M0 0h20v15H0z"/></mask><g mask="url(#b)"><path fill="#F7FCFF" fill-rule="evenodd" d="M5 0h10.625v15H5V0Z" clip-rule="evenodd"/><path fill="#F50101" fill-rule="evenodd" d="M15 0h5v15h-5V0ZM0 0h5v15H0V0Z" clip-rule="evenodd"/><path fill="#A2BB6A" d="m9.838 5.466.021.226c-.624.063-.96-.242-.96-.875 0-.628.329-.961.95-.965v.227c-.502.003-.733.237-.733.738 0 .496.224.7.722.649Zm.277 0-.021.226c.624.063.96-.242.96-.875 0-.628-.329-.961-.95-.965v.227c.502.003.734.237.734.738 0 .496-.225.7-.723.649Z"/><path fill="#E31D1C" fill-rule="evenodd" d="M9.462 10.702c-.179.064-1.396 0-1.396 0v.338h.807c.27 0 .37.049.464.093.08.037.152.072.316.072.319 0 .313-.237.308-.435v-.068a.55.55 0 0 1 .022-.167c.015-.053.024-.084-.023-.176-.079-.154-.83-.133-.83 0 0 .063.114.129.215.187.114.065.212.122.117.156Zm1.094 0c.18.064 1.396 0 1.396 0v.338h-.807c-.269 0-.37.049-.464.093a.624.624 0 0 1-.316.072c-.319 0-.313-.237-.308-.435l.001-.068a.55.55 0 0 0-.023-.167c-.015-.053-.024-.084.023-.176.08-.154.83-.133.83 0 0 .063-.114.129-.215.187-.114.065-.212.122-.117.156Z" clip-rule="evenodd"/><path fill="#00A854" fill-rule="evenodd" d="M10.254 10.734s.95-.094 1.164-.437c.215-.342.573-.926.699-1.068.125-.141.133.202.133.202s.208.294.208-.082-.148-.113-.341-.68c-.194-.566-.303-1.12-.249-1.205.055-.084.184.084.184 0v-.248l.198.248.208-.079s.17.366.276.48c.105.113.167-.152.136-.4-.03-.25-.412-.25-.412-.25s-.488-.262-.488-.372c0-.11.211-.078.211-.078l-.064-.34s.174.206.257.103c.084-.104-.124-.285-.124-.285h.331v-.16l.153.085-.153-.348s-.448.067-.53 0a8.34 8.34 0 0 1-.337-.33v-.125h-.148l.148-.25v-.4l.536.108v-.295s.756.368.62.665c-.136.296-.136.627-.136.627v.263s.023-.08.136-.08c.113 0 .242.058.242.24 0 .181.23-.075.23-.075v.756s.055.082.174 0c.118-.081.066-.018-.29.461-.356.48-.228.48-.114.363.114-.117.577-.45.404-.284-.173.167-.184.516 0 .4.184-.116.149-.198.149 0 0 .199-.325.875-.439.981-.114.106-.22.171-.356.278-.136.106-.289.232-.289.308 0 .076.289-.082.289-.082l-.136.485h.264s-.21.645-.624.645h-.808c-.083 0-.458.177-.458.177l-.275.078s.438.042.585.173c.148.132 0 .223 0 .223s-.405-.04-.707-.131c-.303-.092-.457.082-.457-.092v-.173Z" clip-rule="evenodd"/><path fill="#C51918" fill-rule="evenodd" d="M12.99 5.568a.111.111 0 0 1-.11.114.111.111 0 0 1-.108-.114c0-.063.048-.114.108-.114s.11.051.11.114Zm-.544.455a.111.111 0 0 1-.109.113.111.111 0 0 1-.109-.113c0-.063.049-.114.109-.114s.109.05.109.114Zm.543-.114c.06 0 .109-.051.109-.114a.111.111 0 0 0-.109-.113c-.06 0-.109.05-.109.113s.05.114.11.114Zm-.217 1.704a.111.111 0 0 1-.109.114.111.111 0 0 1-.109-.114c0-.062.05-.113.11-.113s.108.05.108.113Zm-.544 1.478c.06 0 .109-.051.109-.114a.111.111 0 0 0-.109-.114c-.06 0-.108.051-.108.114s.048.114.108.114Zm.87.227a.111.111 0 0 1-.109.114.111.111 0 0 1-.109-.114c0-.063.05-.114.11-.114s.108.051.108.114Zm.109-.114a.11.11 0 0 0 .108-.113.111.111 0 0 0-.108-.114c-.06 0-.11.051-.11.114 0 .062.05.113.11.113Zm0-1.704a.111.111 0 0 1-.11.113.111.111 0 0 1-.108-.113c0-.063.049-.114.109-.114s.109.051.109.114Z" clip-rule="evenodd"/><path fill="#00A854" fill-rule="evenodd" d="M9.803 10.534s-1.727-.341-1.821-1.002c-.095-.661-.093-1.364-.093-1.364l-.16.43s-.009-.586.32-1.003c.328-.418-.41.276-.41.276s.373-.59.53-.646c.155-.056-.627.37-.627.37s.224-.495.398-.635c.174-.14-.398.265-.398.265s.13-.491.285-.608c.154-.117-.507.608-.507.608s.35-1.122.546-1.227c.196-.105-.324.206-.324.206s.319-.48.604-.719c.285-.238-.516.102-.418.102 0 0 .29-.327.456-.42.167-.092-.642.318-.642.318s.58-.64.754-.735c.174-.094-.854.51-.854.51s.06-.28.086-.48c.026-.2-.476.547-.408 1.218.069.67-.273-.513-.273-.513s-.137.257.196.93l-.361-.507s.05.46.165.709c.116.248-.329-.413-.329-.413s-.085.413 0 .413c0 0 .508.678.527.876.019.198-.57-.706-.65-.706-.078 0-.122.29 0 .29.123 0 .355.416.355.416s-.301-.218-.366-.23c-.065-.014.05.129.134.23 0 0-.236.193-.218.338.018.146.643.177.916.869 0 0-.564-.298-.698-.298s.216.311.33.414c.112.103-.175-.103-.252 0-.078.103.429.541.524.541h-.37s.124.175.295.175c.17 0 .782.274.782.363 0 .09-.516-.114-.611-.114-.096 0 .672.725 1.08.753.409.028.666.137.842.137h.3l-.831.424h.276c.361 0 .637.1.779-.107.141-.207.141-.454.141-.454Z" clip-rule="evenodd"/><mask id="c" width="6" height="8" x="7.236" y="3.551" fill="#000" maskUnits="userSpaceOnUse"><path fill="#fff" d="M7.236 3.551h6v8h-6z"/><path fill-rule="evenodd" d="m10.054 5.566.026-.015v.03c.12.066.423.221.62.221.25 0 .591-.251.591-.251l.57.804s-.384.804-.09 1.786c.293.983-.016 1.74-1.321 1.824 0 0-.257.05-.37.127v.072c0-.018-.01-.035-.026-.05-.016.015-.026.032-.026.05v-.072c-.112-.078-.37-.127-.37-.127-1.305-.084-1.614-.841-1.32-1.824a2.693 2.693 0 0 0-.09-1.786l.57-.804s.34.251.59.251c.197 0 .5-.155.62-.222v-.03l.026.016Z" clip-rule="evenodd"/></mask><path fill="#E8AA00" fill-rule="evenodd" d="m10.054 5.566.026-.015v.03c.12.066.423.221.62.221.25 0 .591-.251.591-.251l.57.804s-.384.804-.09 1.786c.293.983-.016 1.74-1.321 1.824 0 0-.257.05-.37.127v.072c0-.018-.01-.035-.026-.05-.016.015-.026.032-.026.05v-.072c-.112-.078-.37-.127-.37-.127-1.305-.084-1.614-.841-1.32-1.824a2.693 2.693 0 0 0-.09-1.786l.57-.804s.34.251.59.251c.197 0 .5-.155.62-.222v-.03l.026.016Z" clip-rule="evenodd"/><path fill="#E8AA00" d="M10.08 5.55h.625v-1.1l-.945.564.32.537Zm-.026.016-.308.543.308.175.308-.175-.308-.543Zm.026.014h-.625v.37l.323.177.302-.547Zm1.211-.03.51-.36-.368-.52-.513.378.371.503Zm.57.805.564.27.158-.332-.212-.3-.51.362Zm-.09 1.786-.6.18.6-.18ZM10.45 9.965l-.04-.623-.039.002-.038.007.117.614Zm-.37.127-.355-.514-.27.186v.328h.625Zm-.026.021.438-.446-.438-.43-.437.43.437.446Zm-.026-.021h.625v-.328l-.27-.186-.355.514Zm-.37-.127.117-.614-.038-.007-.038-.002-.04.623Zm-1.41-3.61-.51-.361-.212.3.158.33.564-.269Zm.57-.804.37-.503-.512-.379-.369.52.51.362Zm1.21.03.302.546.323-.178V5.58h-.625Zm0-.03.32-.537-.945-.563v1.1h.625Zm.052 0-.32-.537h.001-.002a1.4 1.4 0 0 1-.013.008l.616 1.087.026-.014.008-.005.002-.001h.001v-.001h.001l-.32-.537Zm.625.03v-.03h-1.25v.03h1.25Zm-.927.546c.071.04.2.108.347.168.127.051.348.132.575.132v-1.25c.027 0 .03.004 0-.004a.9.9 0 0 1-.102-.035 2.184 2.184 0 0 1-.216-.105l-.604 1.094Zm.922.3c.293 0 .56-.132.687-.2a2.585 2.585 0 0 0 .248-.154c.007-.005.013-.01.018-.012l.006-.005.002-.001a.017.017 0 0 1 .001-.001l-.37-.503-.372-.503h.001v-.001c.001 0 .001 0 0 0l-.004.003a.745.745 0 0 1-.226.123c-.03.011-.025.004.01.004v1.25Zm.081-.515.57.804 1.02-.722-.57-.804-1.02.722Zm1.08.443c-.564-.27-.564-.269-.565-.269v.002l-.001.002a.944.944 0 0 1-.003.005l-.006.014a2 2 0 0 0-.071.183 3.33 3.33 0 0 0-.043 2.029l1.198-.359a2.08 2.08 0 0 1 .052-1.331l.005-.012v.002a.017.017 0 0 0-.002.003l-.564-.269Zm-.69 1.965c.124.413.075.634.01.736-.054.086-.222.25-.771.286l.08 1.247c.756-.049 1.395-.305 1.748-.865.343-.543.302-1.192.132-1.762l-1.198.358Zm-.721 1.645-.117-.614a.017.017 0 0 0-.002 0 1.985 1.985 0 0 0-.192.047 1.429 1.429 0 0 0-.414.18l.71 1.028c-.03.02-.043.024-.023.016a.73.73 0 0 1 .133-.038.859.859 0 0 1 .023-.005h-.001l-.117-.614Zm.255.199v-.072h-1.25v.072h1.25Zm-1.088.395a.554.554 0 0 1-.162-.395h1.25a.697.697 0 0 0-.213-.497l-.875.892Zm0-.892a.696.696 0 0 0-.214.497h1.25a.554.554 0 0 1-.161.395l-.875-.892Zm1.036.497v-.072h-1.25v.072h1.25Zm-.995-.199-.116.614H9.54h.003a.862.862 0 0 1 .089.022.735.735 0 0 1 .064.02c.02.009.006.006-.024-.015l.71-1.028a1.428 1.428 0 0 0-.413-.18 2.633 2.633 0 0 0-.188-.045l-.004-.001h-.002l-.118.613Zm-1.92-2.003c-.17.57-.21 1.219.132 1.762.354.56.992.816 1.748.865l.08-1.247c-.549-.036-.717-.2-.77-.286-.066-.102-.115-.323.009-.736l-1.198-.358Zm.51-1.607c-.564.27-.565.269-.565.269V6.62H7.68c0-.001 0-.001 0 0l.005.01.026.07a2.082 2.082 0 0 1 .027 1.262l1.198.358a3.332 3.332 0 0 0-.12-2.225l-.003-.005-.001-.002v-.001h-.001l-.564.268Zm.06-1.165-.57.804 1.02.722.57-.804-1.02-.722Zm1.1-.013c.034 0 .04.007.01-.004a.745.745 0 0 1-.102-.046 1.344 1.344 0 0 1-.13-.08h.002l-.37.504-.372.503h.002c0 .001 0 .002.002.002l.006.005a1.848 1.848 0 0 0 .075.051c.047.031.113.072.19.114.128.07.395.201.687.201v-1.25Zm.318-.144c-.049.027-.131.07-.216.105a.902.902 0 0 1-.101.035c-.03.008-.027.004-.001.004v1.25c.228 0 .449-.08.575-.132.147-.06.276-.128.347-.168l-.604-1.094Zm.927.547v-.03h-1.25v.03h1.25Zm-.625-.03a1385.112 1385.112 0 0 0-.32.538h.002a.249.249 0 0 1 .01.007l.026.014.616-1.087-.012-.007-.003-.002h.001l-.32.538Z" mask="url(#c)"/><mask id="e" width="6" height="7" x="7" y="4" maskUnits="userSpaceOnUse" style="mask-type:luminance"><mask id="d" width="6" height="8" x="7.236" y="3.551" fill="#000" maskUnits="userSpaceOnUse"><path fill="#fff" d="M7.236 3.551h6v8h-6z"/><path fill-rule="evenodd" d="m10.054 5.566.026-.015v.03c.12.066.423.221.62.221.25 0 .591-.251.591-.251l.57.804s-.384.804-.09 1.786c.293.983-.016 1.74-1.321 1.824 0 0-.257.05-.37.127v.072c0-.018-.01-.035-.026-.05-.016.015-.026.032-.026.05v-.072c-.112-.078-.37-.127-.37-.127-1.305-.084-1.614-.841-1.32-1.824a2.693 2.693 0 0 0-.09-1.786l.57-.804s.34.251.59.251c.197 0 .5-.155.62-.222v-.03l.026.016Z" clip-rule="evenodd"/></mask><path fill="#fff" fill-rule="evenodd" d="m10.054 5.566.026-.015v.03c.12.066.423.221.62.221.25 0 .591-.251.591-.251l.57.804s-.384.804-.09 1.786c.293.983-.016 1.74-1.321 1.824 0 0-.257.05-.37.127v.072c0-.018-.01-.035-.026-.05-.016.015-.026.032-.026.05v-.072c-.112-.078-.37-.127-.37-.127-1.305-.084-1.614-.841-1.32-1.824a2.693 2.693 0 0 0-.09-1.786l.57-.804s.34.251.59.251c.197 0 .5-.155.62-.222v-.03l.026.016Z" clip-rule="evenodd"/><path fill="#fff" d="M10.08 5.55h.625v-1.1l-.945.564.32.537Zm-.026.016-.308.543.308.175.308-.175-.308-.543Zm.026.014h-.625v.37l.323.177.302-.547Zm1.211-.03.51-.36-.368-.52-.513.378.371.503Zm.57.805.564.27.158-.332-.212-.3-.51.362Zm-.09 1.786-.6.18.6-.18ZM10.45 9.965l-.04-.623-.039.002-.038.007.117.614Zm-.37.127-.355-.514-.27.186v.328h.625Zm-.026.021.438-.446-.438-.43-.437.43.437.446Zm-.026-.021h.625v-.328l-.27-.186-.355.514Zm-.37-.127.117-.614-.038-.007-.038-.002-.04.623Zm-1.41-3.61-.51-.361-.212.3.158.33.564-.269Zm.57-.804.37-.503-.512-.379-.369.52.51.362Zm1.21.03.302.546.323-.178V5.58h-.625Zm0-.03.32-.537-.945-.563v1.1h.625Zm.052 0-.32-.537h.001-.002a1.4 1.4 0 0 1-.013.008l.616 1.087.026-.014.008-.005.002-.001h.001v-.001h.001l-.32-.537Zm.625.03v-.03h-1.25v.03h1.25Zm-.927.546c.071.04.2.108.347.168.127.051.348.132.575.132v-1.25c.027 0 .03.004 0-.004a.9.9 0 0 1-.102-.035 2.184 2.184 0 0 1-.216-.105l-.604 1.094Zm.922.3c.293 0 .56-.132.687-.2a2.585 2.585 0 0 0 .248-.154c.007-.005.013-.01.018-.012l.006-.005.002-.001a.017.017 0 0 1 .001-.001l-.37-.503-.372-.503h.001v-.001c.001 0 .001 0 0 0l-.004.003a.745.745 0 0 1-.226.123c-.03.011-.025.004.01.004v1.25Zm.081-.515.57.804 1.02-.722-.57-.804-1.02.722Zm1.08.443c-.564-.27-.564-.269-.565-.269v.002l-.001.002a.944.944 0 0 1-.003.005l-.006.014a2 2 0 0 0-.071.183 3.33 3.33 0 0 0-.043 2.029l1.198-.359a2.08 2.08 0 0 1 .052-1.331l.005-.012v.002a.017.017 0 0 0-.002.003l-.564-.269Zm-.69 1.965c.124.413.075.634.01.736-.054.086-.222.25-.771.286l.08 1.247c.756-.049 1.395-.305 1.748-.865.343-.543.302-1.192.132-1.762l-1.198.358Zm-.721 1.645-.117-.614a.017.017 0 0 0-.002 0 1.985 1.985 0 0 0-.192.047 1.429 1.429 0 0 0-.414.18l.71 1.028c-.03.02-.043.024-.023.016a.73.73 0 0 1 .133-.038.859.859 0 0 1 .023-.005h-.001l-.117-.614Zm.255.199v-.072h-1.25v.072h1.25Zm-1.088.395a.554.554 0 0 1-.162-.395h1.25a.697.697 0 0 0-.213-.497l-.875.892Zm0-.892a.696.696 0 0 0-.214.497h1.25a.554.554 0 0 1-.161.395l-.875-.892Zm1.036.497v-.072h-1.25v.072h1.25Zm-.995-.199-.116.614H9.54h.003a.862.862 0 0 1 .089.022.735.735 0 0 1 .064.02c.02.009.006.006-.024-.015l.71-1.028a1.428 1.428 0 0 0-.413-.18 2.633 2.633 0 0 0-.188-.045l-.004-.001h-.002l-.118.613Zm-1.92-2.003c-.17.57-.21 1.219.132 1.762.354.56.992.816 1.748.865l.08-1.247c-.549-.036-.717-.2-.77-.286-.066-.102-.115-.323.009-.736l-1.198-.358Zm.51-1.607c-.564.27-.565.269-.565.269V6.62H7.68c0-.001 0-.001 0 0l.005.01.026.07a2.082 2.082 0 0 1 .027 1.262l1.198.358a3.332 3.332 0 0 0-.12-2.225l-.003-.005-.001-.002v-.001h-.001l-.564.268Zm.06-1.165-.57.804 1.02.722.57-.804-1.02-.722Zm1.1-.013c.034 0 .04.007.01-.004a.745.745 0 0 1-.102-.046 1.344 1.344 0 0 1-.13-.08h.002l-.37.504-.372.503h.002c0 .001 0 .002.002.002l.006.005a1.848 1.848 0 0 0 .075.051c.047.031.113.072.19.114.128.07.395.201.687.201v-1.25Zm.318-.144c-.049.027-.131.07-.216.105a.902.902 0 0 1-.101.035c-.03.008-.027.004-.001.004v1.25c.228 0 .449-.08.575-.132.147-.06.276-.128.347-.168l-.604-1.094Zm.927.547v-.03h-1.25v.03h1.25Zm-.625-.03a1385.112 1385.112 0 0 0-.32.538h.002a.249.249 0 0 1 .01.007l.026.014.616-1.087-.012-.007-.003-.002h.001l-.32.538Z" mask="url(#d)"/></mask><g mask="url(#e)"><path fill="#67BAFF" d="M8.315 5.454h1.739V7.84H8.315z"/><path fill="#fff" d="M10.054 5.454h1.739V7.84h-1.739z"/><path fill="#C51918" d="M8.098 8.068h4.348v2.727H8.098z"/><path fill="#C9A951" d="M10.897 7.672h-.218V6.038h.218v1.634Z"/><path fill="#C9A951" d="m10.809 6.928-.106.19-.376-.21.106-.19.376.21Zm0-.454-.106.19-.376-.21.106-.19.376.21Z"/><path fill="#C9A951" d="m10.762 6.928.106.19.375-.21-.106-.19-.375.21Zm0-.454.106.19.375-.21-.106-.19-.375.21Z"/><path fill="#FBCD17" fill-rule="evenodd" d="M11.08 8.565s.152-.172.152-.086 0 .232-.076.232c-.075 0-.428-.07-.562-.232-.134-.163-.418-.446-.783-.38-.366.068-.799.541-.906.541-.107 0-.34.365-.17.65.17.286.46.197.46.28 0 .083.073.092.344.092.272 0 .371.096.606.096s-.077-.004.301-.096c.379-.092.666-.371.445-.371h-.445c-.153 0-.493.11-.493 0s.076-.347.285-.229c.208.118.788.208.994 0 .206-.207.277-.333.242-.583-.037-.25-.318-.178-.318-.178l-.075.264Z" clip-rule="evenodd"/><path fill="#D18219" fill-rule="evenodd" d="M9.61 5.981c-.131.115-.046.533-.261.533-.215 0-.517-.313-.593-.106-.076.207 0 .137 0 .313 0 .177-.182.667-.091.75.09.082.184.3.168.198-.016-.102-.085-.252-.056-.415-.028-.168.153-.33.153-.33s-.02.175-.034.24c0 0-.06.131-.035.219 0 0 .061.246.086.263 0 0 .017-.583.036-.68.018-.095.152.11.196.086 0 0 .015.399-.008.446 0 0-.047.094-.03.125 0 0 .044.109.081.077l.02-.109s-.022-.064.012-.21c0 0 .036-.321.051-.252 0 0-.007.152.01.23 0 0 .028.195.033.216 0 0 .132.187.135.108 0 0-.126-.15-.099-.264 0 0-.072-.323.029-.395 0 0 .266-.124.282-.335 0 0 .04-.24.046-.35 0 0-.058-.033.062-.09 0 0 .195-.075.074-.179" clip-rule="evenodd"/></g></g></g><defs><clipPath id="a"><rect width="20" height="15" fill="#fff" rx="2"/></clipPath></defs></svg>