<svg viewBox="0 0 20 15" fill="none" xmlns="http://www.w3.org/2000/svg"><path d="M5 0h10.63v15H5V0Z" fill="#f7fcff"/><path d="M15 0h5v15h-5V0ZM0 0h5v15H0V0Z" fill="#f50101"/><path d="m9.84 5.47.02.22c-.62.06-.96-.24-.96-.87s.33-.96.95-.97v.23c-.5 0-.73.24-.73.74s.22.7.72.65Zm.27 0-.02.22c.63.06.96-.24.96-.87s-.32-.96-.95-.97v.23c.5 0 .74.24.74.74s-.23.7-.73.65Z" fill="#a2bb6a"/><path d="M9.46 10.7c-.18.07-1.4 0-1.4 0v.34h.81c.27 0 .37.05.47.1.08.03.15.06.31.06.32 0 .32-.23.31-.43v-.07l.02-.17c.02-.05.03-.08-.02-.17-.08-.15-.83-.13-.83 0 0 .06.11.13.22.19.1.06.2.12.11.15Zm1.1 0c.18.07 1.4 0 1.4 0v.34h-.81a.91.91 0 0 0-.47.1.62.62 0 0 1-.31.06c-.32 0-.32-.23-.31-.43v-.07a.55.55 0 0 0-.03-.17c-.01-.05-.02-.08.03-.17.08-.15.83-.13.83 0 0 .06-.12.13-.22.19-.11.06-.2.12-.11.15Z" fill="#e31d1c"/><path d="M10.25 10.73s.95-.09 1.17-.43c.21-.34.57-.93.7-1.07.12-.14.13.2.13.2s.2.3.2-.08-.14-.11-.33-.68c-.2-.57-.3-1.12-.25-1.2.05-.09.18.08.18 0v-.25l.2.24.2-.07s.18.36.28.47c.1.12.17-.15.14-.4-.03-.24-.41-.24-.41-.24s-.49-.27-.49-.38c0-.1.21-.07.21-.07l-.06-.35s.17.21.25.1c.09-.1-.12-.28-.12-.28h.33v-.16l.15.09-.15-.35s-.45.07-.53 0a8.34 8.34 0 0 1-.34-.33v-.13h-.14l.14-.25v-.4l.54.11v-.3s.76.38.62.67c-.14.3-.14.63-.14.63v.26s.03-.08.14-.08c.11 0 .24.06.24.24s.23-.07.23-.07v.75s.06.09.18 0c.11-.08.06-.01-.3.47-.35.47-.22.48-.1.36.1-.12.57-.45.4-.29-.18.17-.19.52 0 .4.18-.11.14-.2.14 0s-.32.88-.43.99l-.36.27c-.14.1-.29.23-.29.31 0 .08.29-.08.29-.08l-.14.48H13s-.21.65-.63.65h-.8c-.09 0-.46.18-.46.18l-.28.07s.44.05.59.18c.15.13 0 .22 0 .22s-.4-.04-.7-.13c-.31-.1-.47.08-.47-.1v-.17Z" fill="#00A854"/><path d="M12.99 5.57c0 .06-.05.11-.11.11a.11.11 0 0 1-.1-.11c0-.06.04-.12.1-.12.06 0 .1.06.1.12Zm-.54.45c0 .07-.05.12-.11.12a.11.11 0 0 1-.11-.12c0-.06.05-.11.1-.11.07 0 .12.05.12.11Zm.54-.11c.06 0 .1-.05.1-.11a.11.11 0 0 0-.1-.12c-.06 0-.11.05-.11.12 0 .06.05.1.1.1Zm-.22 1.7c0 .07-.05.12-.1.12a.11.11 0 0 1-.12-.12c0-.06.05-.11.11-.11s.11.05.11.11Zm-.54 1.48c.06 0 .1-.05.1-.11a.11.11 0 0 0-.1-.12c-.06 0-.11.05-.11.12 0 .06.05.11.1.11Zm.87.23c0 .06-.05.11-.11.11a.11.11 0 0 1-.11-.11c0-.06.05-.12.1-.12.07 0 .12.06.12.12Zm.1-.12c.07 0 .12-.05.12-.1a.11.11 0 0 0-.11-.12c-.06 0-.11.05-.11.11s.05.11.1.11Zm0-1.7c0 .06-.04.11-.1.11a.11.11 0 0 1-.11-.11c0-.06.05-.11.1-.11.07 0 .12.05.12.11Z" fill="#c51918"/><path d="M9.8 10.53s-1.72-.34-1.82-1c-.1-.66-.1-1.36-.1-1.36l-.15.43s-.01-.59.32-1c.33-.42-.41.27-.41.27s.37-.59.53-.64c.15-.06-.63.37-.63.37s.23-.5.4-.64-.4.27-.4.27.13-.5.29-.61c.15-.12-.51.6-.51.6S7.67 6.1 7.87 6c.2-.1-.33.2-.33.2s.32-.48.6-.71c.3-.24-.51.1-.41.1 0 0 .29-.33.45-.42.17-.1-.64.32-.64.32s.58-.64.76-.74l-.86.5.09-.47c.02-.2-.48.55-.41 1.22.07.67-.27-.51-.27-.51s-.14.25.2.93l-.37-.51s.05.46.17.7c.11.26-.33-.4-.33-.4s-.09.4 0 .4c0 0 .5.69.52.88.02.2-.57-.7-.64-.7-.08 0-.13.29 0 .29.12 0 .35.41.35.41s-.3-.21-.37-.23c-.06-.01.05.13.14.23 0 0-.24.2-.22.34.02.15.64.18.92.87 0 0-.57-.3-.7-.3-.14 0 .21.31.33.42.11.1-.18-.1-.25 0-.08.1.42.54.52.54h-.37s.12.17.3.17c.17 0 .78.28.78.37 0 .08-.52-.12-.61-.12-.1 0 .67.73 1.08.75.4.03.66.14.84.14h.3l-.83.42h.27c.36 0 .64.1.78-.1s.14-.46.14-.46Z" fill="#00A854"/><path d="m10.05 5.57.03-.02v.03c.12.07.42.22.62.22.25 0 .6-.25.6-.25l.56.8s-.38.8-.09 1.8c.3.97-.01 1.73-1.32 1.82 0 0-.26.04-.37.12v.07l-.03-.05-.02.05v-.07c-.11-.08-.37-.12-.37-.12-1.3-.09-1.62-.85-1.32-1.83.3-.98-.1-1.78-.1-1.78l.58-.8s.34.24.59.24c.2 0 .5-.15.62-.22v-.03l.02.02Z" fill="#e8aa00"/><path d="M10.08 5.55h.63v-1.1l-.95.56.32.54Zm-.03.02-.3.54.3.17.31-.17-.3-.54Zm.03.01h-.62v.37l.32.18.3-.55Zm1.21-.03.51-.36-.37-.52-.51.38.37.5Zm.57.8.56.27.16-.33-.2-.3-.52.37Zm-.09 1.8-.6.17.6-.18Zm-1.32 1.82-.04-.63h-.04l-.04.01.12.62Zm-.37.12-.36-.51-.26.18v.33h.62Zm-.03.02.44-.44-.44-.43-.43.43.43.44Zm-.02-.02h.62v-.33l-.27-.18-.35.51Zm-.37-.12.12-.62H9.7l-.04.62ZM8.25 6.36l-.51-.37-.21.3.15.33.57-.26Zm.57-.8.37-.51-.51-.38-.37.52.5.36Zm1.2.02.31.55.32-.18v-.37h-.62Zm0-.03.33-.54-.95-.56v1.1h.63Zm.06 0-.32-.54a.18.18 0 0 1-.01.01l.61 1.09.03-.02h.01l-.32-.54Zm.63.03v-.03H9.46v.03h1.25Zm-.93.55.35.16c.12.06.34.14.57.14V5.18c.03 0 .03 0 0 0a2.18 2.18 0 0 1-.32-.14l-.6 1.09Zm.92.3c.3 0 .56-.13.69-.2a2.59 2.59 0 0 0 .26-.17h.01l-.37-.5a160.8 160.8 0 0 1-.37-.51.88.88 0 0 1-.13.08.74.74 0 0 1-.1.04h.01v1.26Zm.08-.52.57.8L12.37 6l-.57-.8-1.02.72Zm1.08.45a79.58 79.58 0 0 0-.56-.27l-.01.02a2 2 0 0 0-.08.18l-.12.48c-.07.4-.1.94.08 1.55l1.2-.36a2.08 2.08 0 0 1 .05-1.33v-.01l-.56-.26Zm-.69 1.96c.13.41.08.63.01.74-.05.08-.22.25-.77.28l.08 1.25c.76-.05 1.4-.3 1.75-.87.34-.54.3-1.19.13-1.76l-1.2.36Zm-.72 1.65-.12-.62h-.02a2.43 2.43 0 0 0-.17.05c-.08.02-.26.07-.42.18l.72 1.03-.03.01a.73.73 0 0 1 .15-.04l-.11-.61Zm.26.2v-.08H9.46v.07h1.25Zm-1.1.39a.55.55 0 0 1-.15-.4h1.25a.7.7 0 0 0-.22-.5l-.87.9Zm0-.9a.7.7 0 0 0-.2.5h1.24c0 .22-.11.36-.16.4l-.87-.9Zm1.04.5v-.07H9.4v.07h1.25Zm-1-.2-.1.62h-.01a.86.86 0 0 1 .16.04l-.03-.01.71-1.03a1.43 1.43 0 0 0-.54-.22h-.06l-.12.6Zm-1.91-2c-.17.57-.21 1.22.13 1.76.35.56 1 .82 1.75.87l.08-1.25c-.55-.03-.72-.2-.77-.28-.07-.1-.12-.33 0-.74l-1.2-.36Zm.5-1.6-.56.26v.01l.03.07a2.08 2.08 0 0 1 .03 1.26l1.2.36a3.33 3.33 0 0 0-.12-2.22v-.01l-.57.27Zm.07-1.17-.57.8 1.02.73.57-.8-1.02-.73Zm1.1-.01c.03 0 .04 0 0 0a1.34 1.34 0 0 1-.23-.13l-.36.5-.37.5v.01a1.69 1.69 0 0 0 .27.17c.13.07.4.2.69.2V5.18Zm.32-.15a2.18 2.18 0 0 1-.32.14c-.03.01-.03 0 0 0v1.26c.23 0 .45-.08.57-.14l.35-.16-.6-1.1Zm.92.55v-.03H9.4v.03h1.25Zm-.62-.03-.32.54a.25.25 0 0 1 .01 0l.03.02.61-1.09h-.01l-.32.53Z" fill="#e8aa00" mask="url(#b)"/><path fill="#67BAFF" d="M8.32 5.45h1.74v2.39H8.32z"/><path fill="#fff" d="M10.05 5.45h1.74v2.39h-1.74z"/><path fill="#c51918" d="M8.1 8.07h4.35v2.73H8.1z"/><path d="M10.9 7.67h-.22V6.04h.22v1.63Z" fill="#c9a951"/><path d="m10.8 6.93-.1.19-.37-.21.1-.2.38.22Zm0-.46-.1.2-.37-.22.1-.19.38.21Z" fill="#c9a951"/><path d="m10.76 6.93.1.19.38-.21-.1-.2-.38.22Zm0-.46.1.2.38-.22-.1-.19-.38.21Z" fill="#c9a951"/><path d="M11.08 8.57s.15-.18.15-.1c0 .1 0 .24-.07.24-.08 0-.43-.07-.57-.23-.13-.16-.41-.45-.78-.38-.36.07-.8.54-.9.54-.11 0-.35.37-.18.65.18.29.47.2.47.28 0 .08.07.1.34.1s.37.09.6.09c.24 0-.07 0 .3-.1.38-.09.67-.37.45-.37h-.44c-.16 0-.5.11-.5 0s.08-.35.29-.23c.2.12.79.21 1 0 .2-.2.27-.33.23-.58-.03-.25-.31-.18-.31-.18l-.08.27Z" fill="#fbcd17"/><path d="M9.61 5.98c-.13.12-.05.53-.26.53-.22 0-.52-.3-.6-.1-.07.2 0 .14 0 .31 0 .18-.18.67-.09.75.1.08.19.3.17.2-.01-.1-.08-.25-.05-.42-.03-.16.15-.33.15-.33l-.03.24s-.06.14-.04.22c0 0 .06.25.09.27 0 0 .01-.59.03-.68.02-.1.15.1.2.08v.45s-.06.1-.04.12c0 0 .05.11.08.08l.02-.1s-.02-.07.01-.22c0 0 .04-.32.06-.25v.23l.04.22s.13.18.13.1c0 0-.12-.15-.1-.26 0 0-.07-.32.03-.4 0 0 .27-.12.29-.33l.04-.35s-.06-.03.06-.1c0 0 .2-.07.08-.17" fill="#d18219"/></svg>