<svg xmlns="http://www.w3.org/2000/svg" width="20" height="15" fill="transparent" viewBox="0 0 20 15"><g clip-path="url(#a)"><mask id="b" width="20" height="15" x="0" y="0" maskUnits="userSpaceOnUse" style="mask-type:luminance"><path fill="#fff" d="M0 0h20v15H0z"/></mask><g mask="url(#b)"><path fill="#F7FCFF" fill-rule="evenodd" d="M0 0v15h20V0H0Z" clip-rule="evenodd"/><mask id="c" width="20" height="15" x="0" y="0" maskUnits="userSpaceOnUse" style="mask-type:luminance"><path fill="#fff" fill-rule="evenodd" d="M0 0v15h20V0H0Z" clip-rule="evenodd"/></mask><g mask="url(#c)"><path fill="#BF2714" fill-rule="evenodd" d="M0 0v3.75h20V0H0Zm0 11.25V15h20v-3.75H0Z" clip-rule="evenodd"/><mask id="d" width="8" height="9" x="6" y="3" maskUnits="userSpaceOnUse" style="mask-type:luminance"><path fill="#fff" fill-rule="evenodd" d="M10 11.25a3.75 3.75 0 1 0 0-7.5 3.75 3.75 0 0 0 0 7.5Z" clip-rule="evenodd"/></mask><g mask="url(#d)"><path fill="#5277B9" fill-rule="evenodd" d="M6.593 8.603a.123.123 0 0 1 .179-.144l.233.136c.035.02.078.022.114.005l.577-.27a.123.123 0 0 1 .124.011l.623.45.86-.464a.123.123 0 0 1 .108-.004l.648.282c.033.014.07.013.103-.002l.581-.28a.123.123 0 0 1 .1-.004l.719.288a.123.123 0 0 0 .1-.004l.557-.276a.123.123 0 0 1 .112.001l.511.268a.12.12 0 0 0 .118-.002l.266-.15a.123.123 0 0 1 .18.138l-.056.209H6.653l-.06-.188Zm-.003.741a.123.123 0 0 1 .182-.141l.212.127c.036.022.08.024.117.006l.548-.266a.123.123 0 0 1 .128.012l.597.447.828-.462a.123.123 0 0 1 .11-.005l.619.279a.123.123 0 0 0 .105-.002l.555-.277a.123.123 0 0 1 .102-.004l.687.285a.123.123 0 0 0 .103-.004l.531-.273a.123.123 0 0 1 .115.002l.486.264c.038.02.084.02.121-.002l.244-.144a.123.123 0 0 1 .181.137l-.053.206h-6.46l-.057-.185Zm.124.492a.123.123 0 0 1 .18-.142l.213.128c.036.022.08.023.117.005l.548-.266a.123.123 0 0 1 .128.012l.597.447.827-.461a.123.123 0 0 1 .11-.005l.62.278a.123.123 0 0 0 .105-.002l.554-.276a.123.123 0 0 1 .102-.004l.688.285a.123.123 0 0 0 .103-.005l.531-.272a.123.123 0 0 1 .115.002l.486.263c.038.02.084.02.12-.002l.245-.143a.123.123 0 0 1 .181.137l-.053.205h-6.46l-.057-.184Zm.737.492a.123.123 0 0 1 .181-.142l.213.128c.035.021.08.023.117.005l.548-.266a.123.123 0 0 1 .127.012l.598.447.827-.462a.123.123 0 0 1 .11-.004l.62.278a.123.123 0 0 0 .104-.002l.555-.277a.123.123 0 0 1 .102-.003l.688.284a.123.123 0 0 0 .103-.004l.531-.272a.123.123 0 0 1 .115.001l.486.264c.038.02.083.02.12-.002l.245-.143a.123.123 0 0 1 .18.136l-.052.206H7.51l-.058-.184Zm-.983.615a.123.123 0 0 1 .18-.142l.213.128c.036.021.08.023.117.005l.548-.266a.123.123 0 0 1 .128.012l.597.447.827-.462a.123.123 0 0 1 .11-.004l.62.278a.123.123 0 0 0 .105-.002l.555-.277a.123.123 0 0 1 .101-.003l.688.284a.123.123 0 0 0 .103-.004l.531-.272a.123.123 0 0 1 .115.001l.486.264c.038.02.084.02.121-.002l.244-.143a.123.123 0 0 1 .181.136l-.053.206h-6.46l-.057-.184Z" clip-rule="evenodd"/><path fill="red" d="M7.917 5.904h.625l-.014 2.47c.104.332.254.462.486.462v.625c-.528 0-.901-.324-1.097-.993V5.904Zm4.225 0h-.625l.014 2.47c-.105.332-.254.462-.486.462v.625c.527 0 .9-.324 1.097-.993V5.904Z"/><path fill="red" fill-rule="evenodd" d="M10.453 4.318s-1.037-.271-1.037.416v2.164l1.209.359V5.488s-.605-.369-.605-.658c0-.288.433-.512.433-.512Z" clip-rule="evenodd"/><path stroke="#000" stroke-width=".625" d="m8.709 8.057.394-.504m-.035.487-.378-.507m.584.524.394-.504m-.034.487-.378-.507m.559.524.394-.504m-.034.487-.378-.507m.583.524.395-.504m-.035.487-.377-.507m.583.524.395-.504m-.035.487-.378-.507"/><path fill="#FA8F21" fill-rule="evenodd" d="m8.41 4.434.747 1.462.092-1.462-.092-.288-.748.288Zm-.376 1.247-.539-.57.54-.643 1.132 1.81v.461l-.545-.46V5.68h-.588Zm-1.186.44.983.471.077-.727-.819-.7-.241.957ZM7.88 7.33l-1.293-.133v-.912l1.293.498v.547Zm-1.328.895L6.4 7.45l1.457.073v.702H6.552ZM8.605 6.95v-.437l.545.437-.06.231-.485-.23Zm5.07.499-.153.775h-1.304v-.702l1.457-.073Zm-1.481-.12 1.293-.133v-.912l-1.293.498v.547Zm1.032-1.207-.983.47-.076-.727.818-.7.242.957Zm-1.186-.44.539-.572-.539-.642-1.133 1.81v.461l.545-.46V5.68h.588Zm-.375-1.248-.748 1.462-.092-1.462.092-.288.748.288ZM11.47 6.95v-.437l-.545.437.059.231.486-.23Z" clip-rule="evenodd"/></g></g></g></g><defs><clipPath id="a"><rect width="20" height="15" fill="#fff" rx="2"/></clipPath></defs></svg>