<svg viewBox="0 0 20 15" fill="none" xmlns="http://www.w3.org/2000/svg"><path d="M0 0v15h20V0H0Z" fill="#f7fcff"/><path d="M0 0v3.75h20V0H0Zm0 11.25V15h20v-3.75H0Z" fill="#bf2714"/><path d="M6.6 8.6c-.04-.1.07-.2.17-.14l.24.13c.03.03.07.03.1.01l.59-.27a.12.12 0 0 1 .12.01l.62.45.86-.46a.12.12 0 0 1 .11 0l.65.27c.03.02.07.02.1 0l.58-.28a.12.12 0 0 1 .1 0l.72.29h.1l.56-.28a.12.12 0 0 1 .11 0l.51.27c.04.02.08.01.12 0l.27-.16c.09-.05.2.04.18.14l-.06.21h-6.7L6.6 8.6Zm-.01.74c-.03-.1.08-.2.18-.14l.21.13c.04.02.08.02.12 0l.55-.26a.12.12 0 0 1 .13.01l.6.45.82-.46a.12.12 0 0 1 .11 0l.62.27c.03.02.07.02.1 0l.56-.28a.12.12 0 0 1 .1 0l.69.28c.03.02.07.02.1 0l.53-.27a.12.12 0 0 1 .12 0l.48.26c.04.02.09.02.13 0l.24-.14c.1-.06.2.03.18.13l-.05.2H6.65l-.06-.18Zm.12.5c-.03-.11.09-.2.18-.15l.22.13c.03.02.08.03.11 0l.55-.26a.12.12 0 0 1 .13.01l.6.45.82-.46a.12.12 0 0 1 .11 0l.62.27c.04.02.08.02.1 0l.56-.28a.12.12 0 0 1 .1 0l.7.28c.03.02.06.02.1 0l.53-.27a.12.12 0 0 1 .11 0l.49.26c.04.02.08.02.12 0l.24-.14c.1-.06.21.03.18.13l-.05.21H6.77l-.06-.18Zm.74.49c-.03-.11.09-.2.18-.14l.21.12c.04.03.08.03.12 0l.55-.26c.04-.02.09-.01.13.02l.6.44.82-.46a.12.12 0 0 1 .11 0l.62.27c.03.02.07.02.1 0l.56-.27a.12.12 0 0 1 .1 0l.7.28h.1l.52-.28a.12.12 0 0 1 .12 0l.49.27c.03.02.08.02.12 0l.24-.15c.1-.06.2.03.18.14l-.05.2H7.5l-.06-.18Zm-.98.61c-.04-.1.08-.2.18-.14l.21.13c.04.02.08.02.12 0l.55-.26a.12.12 0 0 1 .12.01l.6.45.83-.46a.12.12 0 0 1 .1 0l.63.27h.1l.56-.28a.12.12 0 0 1 .1 0l.69.28c.03.02.07.01.1 0l.53-.28a.12.12 0 0 1 .12 0l.48.27c.04.02.09.02.12 0l.25-.15c.1-.05.2.04.18.14l-.05.2H6.52l-.05-.18Z" fill="#5277B9"/><path d="M7.92 5.9h.62l-.01 2.47c.1.34.25.47.48.47v.62c-.52 0-.9-.32-1.1-1V5.9Zm4.22 0h-.62l.01 2.47c-.1.34-.25.47-.49.47v.62c.53 0 .9-.32 1.1-1V5.9ZM10.45 4.32s-1.03-.27-1.03.41V6.9l1.2.36V5.49s-.6-.37-.6-.66c0-.29.43-.51.43-.51Z" fill="red"/><path d="m8.7 8.06.4-.5m-.03.48-.38-.5m.58.52.4-.5m-.04.48-.37-.5m.56.52.39-.5m-.04.48-.37-.5m.58.52.4-.5m-.04.48-.38-.5m.59.52.39-.5m-.04.48-.37-.5" stroke="#000" stroke-width=".63"/><path d="m8.4 4.43.76 1.47.09-1.47-.1-.28-.74.28Zm-.37 1.25-.53-.57.53-.64 1.14 1.8v.47l-.55-.46v-.6h-.59Zm-1.18.44.98.47.08-.72-.82-.7-.24.95Zm1.03 1.2-1.3-.12v-.92l1.3.5v.55Zm-1.33.9-.15-.77 1.46.07v.7h-1.3ZM8.6 6.95v-.44l.55.44-.06.23-.49-.23Zm5.08.5-.16.77h-1.3v-.7l1.46-.07Zm-1.49-.12 1.3-.13v-.92l-1.3.5v.55Zm1.04-1.2-.99.46-.07-.72.81-.7.25.95Zm-1.19-.45.54-.57-.54-.64-1.13 1.8v.47l.54-.46v-.6h.59Zm-.37-1.25-.75 1.47-.1-1.47.1-.28.75.28Zm-.2 2.52v-.44l-.55.44.06.23.49-.23Z" fill="#fa8f21"/></svg>