<svg viewBox="0 0 20 15" fill="none" xmlns="http://www.w3.org/2000/svg"><rect width="20" height="15" rx="1.25" fill="#e11c1b"/><path d="m0 0 20 15H0V0Z" fill="#1D1D1D"/><path d="M4.43 11.42h.83l.4-.94.46.93.85.05-.73.8.38.95-.93-.53-.85.53.32-.93-.73-.86Zm-2.5-2.5h.83l.4-.94.46.93.85.05-.73.8.38.95-.93-.53-.85.53.32-.93-.73-.86Zm2.5-1.25h.83l.4-.94.46.93.85.05-.73.8.38.95-.93-.53-.85.53.32-.93-.73-.86Z" fill="#eeeef6"/><path d="m6.07 10.35.57-.02.2-.59.24.6.53.04-.48.34.38.59-.66-.25-.57.26.3-.59-.51-.38ZM7.32 9.1l.57-.02.2-.59.24.6.53.04-.48.34.38.59-.66-.25-.57.26.3-.59-.51-.38Z" fill="#eeeef6"/><path d="M13.18 1.25s-1.93.39-1.4 3.07h-.27s.03-.14-.24-.22c-.26-.09-.21-.05-.35 0-.13.05-.97 0-.97 0v.1l.6.25s-.02.21.22.33c.25.12.43.18.43.18s.04.23-.2.23c-.23 0-1.15-.3-1.48.44-.33.74-.77 1.28-.77 1.28h.5l-.14.16h.56l-.15.09s.69-.01.74-.09c.05-.08 0 .21 0 .21s.67-.3.7-.37l.32.21.08-.36.34.15.09-.35s.94 1.58 1.66 1.5v-.27l.65.26.09-.11s.79.32 1.03.35l-.17-.35h.17l-.17-.66h.17l-.35-.52.1-.14-.06-.19s1.27.4 1.21 1.05c-.06.65-.62.9-.62.9s-.55.17-1.04.14c0 0 .4.46 1.22.3.82-.16 1.1-.95 1.1-.95s.37.78.06 1.2c-.3.4-1.7.7-1.7.7s.5.29.98.21c.48-.07 1.22-.48 1.36-1.16.14-.67-.5-1.92-.78-2.06l-.12-.43.26.1-.53-1.3.26.05-.76-.93.21-.07-1.04-.75.31-.08s-.77-.39-1.65.08l.01-.16-.23.04.02-.18.22-.35-.34-.13s.28-.42.24-.41c0 0-.31.09-.3.05 0 0 .16-.4.12-.4 0 0-.36.13-.3.07l.13-.25-.03-.46Z" fill="#fbcd17"/></svg>