<svg xmlns="http://www.w3.org/2000/svg" width="20" height="15" fill="transparent" viewBox="0 0 20 15"><g clip-path="url(#a)"><path fill="#C00" d="M0 0h5v5H0z"/><path fill="#08672F" d="M5 .65V0h-.612L0 4.35V5h.611L5 .65Z"/><path fill="#08672F" d="M0 .65V0h.611L5 4.35V5h-.624L0 .65Z"/><path fill="#fff" d="M0 2.005 5 2v.995L0 3v-.995Z"/><path fill="#fff" d="M2 0h.995L3 5h-.995L2 0ZM0 5h5v5H0V5Z"/><path fill="#000" fill-rule="evenodd" d="M4.24 5.573a.18.18 0 0 1 .006-.054c.01-.02.028-.02.036.002a.63.63 0 0 1 .012.09.515.515 0 0 0 .057.208c.025.051.045.08.107.157l.033.04-.061-.001a.352.352 0 0 1-.074-.008c-.01-.005-.012 0-.015.031-.003.042-.021.074-.05.09-.017.01-.023.01-.038-.002a.145.145 0 0 1-.052-.09c-.005-.028-.006-.03-.02-.023a.317.317 0 0 1-.123.005c0-.003.017-.026.038-.05a.61.61 0 0 0 .144-.395ZM.586 7.503a.132.132 0 0 1 .025-.052c.022-.026.042-.032.031-.01-.016.038-.012.07.015.105a.13.13 0 0 1 .015.135C.65 7.723.6 7.725.57 7.683.546 7.65.545 7.612.566 7.565a.361.361 0 0 0 .02-.062Zm2.445-.04a.131.131 0 0 1 .025-.052c.022-.026.041-.032.03-.01a.1.1 0 0 0 .015.105c.03.04.037.095.016.134-.023.043-.072.044-.102.003-.024-.033-.026-.072-.005-.118a.362.362 0 0 0 .021-.063Zm-1.235.024a.132.132 0 0 1 .025-.052c.022-.025.041-.031.03-.01a.1.1 0 0 0 .015.105c.03.041.037.096.016.135-.023.042-.072.044-.102.003-.024-.033-.025-.072-.005-.119a.364.364 0 0 0 .021-.062Zm2.329.173c-.033.025-.069.031-.095.017-.021-.012-.023-.005-.006.019a.094.094 0 0 0 .047.028.722.722 0 0 1 .065.023c.044.02.084.018.113-.002.06-.04.02-.111-.06-.11a.098.098 0 0 0-.064.025Zm.178.083a.182.182 0 0 0-.007.054.61.61 0 0 1-.144.395.321.321 0 0 0-.038.05c0 .008.11.004.124-.005.013-.007.015-.005.02.023a.145.145 0 0 0 .05.09c.016.012.022.012.039.002.029-.015.047-.048.05-.09.003-.03.006-.036.016-.03.006.003.04.006.073.007l.061.002-.033-.04a.73.73 0 0 1-.107-.157.524.524 0 0 1-.057-.21.63.63 0 0 0-.012-.089c-.007-.021-.026-.022-.035-.002Zm-2.395-.058a.093.093 0 0 0-.034.026c-.04.059.054.12.12.08.072-.044.074-.044.109-.032.03.01.03.01.025-.003-.012-.024-.03-.035-.102-.06-.082-.027-.085-.027-.118-.01Zm-.374.04c.027.015.062.01.095-.016a.098.098 0 0 1 .064-.025c.081-.001.12.07.06.11-.029.02-.068.021-.113.002a.72.72 0 0 0-.065-.023.094.094 0 0 1-.047-.028c-.017-.024-.015-.03.006-.02Zm.273.067a.181.181 0 0 0-.006.054.61.61 0 0 1-.145.395.322.322 0 0 0-.038.05c0 .008.11.004.125-.005.013-.007.014-.005.019.023a.145.145 0 0 0 .051.09c.016.012.022.012.038.002.03-.015.048-.048.05-.09.004-.03.006-.036.016-.03a.35.35 0 0 0 .073.007l.062.002-.033-.04a.728.728 0 0 1-.107-.157.524.524 0 0 1-.057-.21.632.632 0 0 0-.012-.089c-.008-.021-.026-.022-.036-.002Zm1.336-.132a.094.094 0 0 0-.034.026c-.04.059.054.12.12.08.072-.043.074-.044.109-.032.03.01.03.01.025-.003-.012-.024-.03-.034-.102-.06-.082-.027-.085-.027-.118-.01Zm-.374.041c.026.015.062.008.095-.017a.098.098 0 0 1 .064-.025c.081-.001.12.07.06.11-.03.02-.069.021-.113.002a.717.717 0 0 0-.065-.022.094.094 0 0 1-.047-.029c-.017-.023-.015-.03.006-.019Zm.273.067a.181.181 0 0 0-.007.054.61.61 0 0 1-.144.394.322.322 0 0 0-.038.05c0 .008.11.004.124-.005.013-.007.015-.005.02.023a.145.145 0 0 0 .051.09c.016.012.021.012.038.003.029-.016.047-.049.05-.09.003-.031.006-.037.016-.031a.35.35 0 0 0 .073.007l.062.002-.033-.04a.73.73 0 0 1-.108-.157.524.524 0 0 1-.057-.21.633.633 0 0 0-.011-.089c-.008-.02-.026-.022-.036-.001ZM.698 7.7a.094.094 0 0 0-.034.026c-.04.058.054.12.12.08.072-.044.075-.045.11-.033.029.01.03.01.024-.002-.012-.024-.03-.035-.102-.06C.735 7.683.732 7.683.698 7.7Zm1.053-2.133a.181.181 0 0 0-.007.054.61.61 0 0 1-.144.394.323.323 0 0 0-.038.05c0 .009.11.005.124-.004.013-.008.015-.005.02.022a.145.145 0 0 0 .051.091c.016.011.021.012.038.002.029-.016.047-.048.05-.09.003-.03.006-.036.016-.03a.35.35 0 0 0 .073.007l.061.002-.032-.041a.729.729 0 0 1-.108-.157.524.524 0 0 1-.057-.209.629.629 0 0 0-.011-.09c-.008-.02-.026-.022-.036-.001Zm1.228.03c0-.022.003-.046.007-.055.01-.02.028-.02.035.002.004.01.01.05.012.09a.536.536 0 0 0 .057.209c.025.05.045.08.107.156l.033.04-.061-.001a.35.35 0 0 1-.073-.008c-.01-.005-.013 0-.016.032-.003.04-.021.074-.05.09-.017.01-.023.008-.038-.002a.145.145 0 0 1-.051-.092c-.005-.027-.007-.03-.02-.022a.317.317 0 0 1-.124.005c0-.003.017-.026.038-.05a.61.61 0 0 0 .144-.395ZM.554 5.582a.181.181 0 0 0-.006.055.657.657 0 0 1-.041.218l.002.244a.145.145 0 0 0 .052.09c.015.012.02.012.038.003.029-.016.047-.049.05-.09.003-.031.006-.037.015-.031.007.003.04.006.074.007l.061.002-.033-.04a.729.729 0 0 1-.107-.157.524.524 0 0 1-.057-.21.63.63 0 0 0-.012-.089c-.008-.021-.026-.022-.036-.002ZM3.69 8.6a.132.132 0 0 1 .025-.052c.022-.026.04-.032.03-.01-.016.037-.012.07.015.105.03.04.037.095.015.135-.022.042-.072.044-.102.002-.024-.033-.025-.072-.004-.118a.363.363 0 0 0 .02-.062Zm.112.198a.094.094 0 0 0-.034.026c-.04.058.054.12.12.08.072-.044.074-.045.108-.033.03.01.031.01.025-.003-.012-.023-.03-.034-.102-.059-.081-.028-.084-.028-.117-.011Zm-.375.04c.027.015.063.009.096-.016a.098.098 0 0 1 .064-.025c.08-.002.12.069.06.11-.03.02-.069.02-.113.002a.723.723 0 0 0-.066-.023.094.094 0 0 1-.046-.028c-.017-.024-.015-.031.005-.02Zm.287.061a.178.178 0 0 0-.007.054.601.601 0 0 1-.144.39.319.319 0 0 0-.038.05c0 .008.11.004.124-.005.013-.007.015-.005.02.023a.143.143 0 0 0 .05.09c.016.01.022.011.039.002.029-.016.047-.048.05-.09.003-.03.006-.035.016-.03.006.003.04.006.073.007l.061.002-.033-.04a.72.72 0 0 1-.107-.155.515.515 0 0 1-.057-.207.622.622 0 0 0-.012-.089c-.007-.021-.026-.022-.035-.002Zm-2.52-.25a.132.132 0 0 1 .025-.052c.022-.026.041-.032.03-.01a.1.1 0 0 0 .015.105c.03.04.037.095.016.135-.023.042-.072.044-.102.002-.024-.033-.026-.072-.005-.118a.361.361 0 0 0 .021-.062Zm.112.198a.094.094 0 0 0-.034.026c-.04.058.054.12.12.08.072-.044.074-.045.109-.033.03.01.03.01.025-.003-.012-.023-.03-.034-.102-.059-.082-.028-.085-.028-.118-.011Zm-.374.04c.026.015.062.009.095-.016a.098.098 0 0 1 .064-.025c.081-.002.12.069.06.11-.03.02-.069.02-.113.002a.724.724 0 0 0-.065-.023.094.094 0 0 1-.047-.029c-.017-.023-.015-.03.006-.019Zm.287.061a.178.178 0 0 0-.007.054.601.601 0 0 1-.144.39.319.319 0 0 0-.038.05c0 .008.11.004.124-.005.013-.007.015-.005.02.023a.143.143 0 0 0 .05.09c.016.01.022.011.039.002.029-.016.047-.048.05-.09.003-.03.006-.036.016-.03.006.003.04.006.073.007l.061.002-.033-.04a.722.722 0 0 1-.107-.155.515.515 0 0 1-.057-.207.62.62 0 0 0-.012-.09c-.007-.02-.025-.021-.035 0Zm1.21-.324a.131.131 0 0 1 .025-.052c.022-.026.041-.031.03-.01a.097.097 0 0 0 .015.105c.03.041.037.096.016.135-.023.042-.072.044-.102.002-.024-.033-.026-.071-.005-.118a.365.365 0 0 0 .02-.062Zm.112.198a.094.094 0 0 0-.034.026c-.04.059.054.12.12.08.072-.044.074-.045.109-.032.03.01.03.01.025-.003-.013-.024-.031-.035-.102-.06-.082-.028-.085-.027-.118-.011Zm-.374.04c.026.015.062.01.095-.016a.098.098 0 0 1 .064-.025c.081-.001.12.07.06.11-.03.02-.069.021-.113.002a.722.722 0 0 0-.065-.023.094.094 0 0 1-.047-.028c-.017-.024-.015-.03.006-.02Zm.286.061a.178.178 0 0 0-.006.054.601.601 0 0 1-.145.39.32.32 0 0 0-.037.05c0 .009.11.004.124-.005.013-.007.014-.004.02.023a.143.143 0 0 0 .05.09c.016.01.022.012.038.002.03-.016.048-.048.05-.089.004-.03.007-.036.016-.03.007.002.04.005.073.006l.062.003-.033-.04a.721.721 0 0 1-.107-.156.515.515 0 0 1-.057-.207.618.618 0 0 0-.012-.089c-.008-.02-.026-.022-.036-.002Zm1.193-2.577a.132.132 0 0 1 .025-.052c.022-.025.042-.031.031-.01-.016.038-.012.07.014.106.03.04.037.095.016.134-.023.043-.072.044-.102.003-.024-.033-.025-.072-.004-.118a.36.36 0 0 0 .02-.063Zm.112.198a.094.094 0 0 0-.034.026c-.04.059.054.12.12.08.072-.043.075-.044.11-.032.029.01.03.01.024-.003-.012-.024-.03-.034-.102-.06-.081-.027-.084-.027-.118-.01Zm-.374.04c.027.016.062.01.096-.016a.098.098 0 0 1 .063-.025c.081-.001.12.07.06.11-.029.02-.068.021-.112.002a.714.714 0 0 0-.066-.022.094.094 0 0 1-.046-.029c-.018-.023-.016-.03.005-.02Zm.273.068a.181.181 0 0 0-.006.054.61.61 0 0 1-.145.394.321.321 0 0 0-.037.05c0 .008.11.004.124-.005.013-.007.014-.005.019.023a.145.145 0 0 0 .051.09c.016.012.022.012.038.003.03-.016.048-.049.05-.09.004-.031.007-.037.016-.031a.35.35 0 0 0 .073.007l.062.002-.033-.04a.729.729 0 0 1-.107-.157.523.523 0 0 1-.057-.21.63.63 0 0 0-.012-.089c-.008-.021-.026-.022-.036-.001Zm-2.506-.257a.131.131 0 0 1 .025-.052c.022-.025.041-.031.03-.01-.016.038-.012.07.015.106.03.04.037.095.016.134-.023.043-.072.044-.102.003-.024-.033-.026-.072-.005-.118a.361.361 0 0 0 .02-.063Zm.112.198a.094.094 0 0 0-.034.026c-.04.059.054.12.12.08.072-.043.074-.044.109-.032.029.01.03.01.024-.003-.012-.024-.03-.034-.101-.06-.082-.027-.085-.027-.118-.01Zm-.374.04c.026.015.062.01.095-.016a.098.098 0 0 1 .064-.025c.08-.001.12.07.06.11-.03.02-.069.021-.113.002a.719.719 0 0 0-.065-.022.094.094 0 0 1-.047-.029c-.017-.023-.015-.03.006-.02Zm.273.067a.181.181 0 0 0-.007.055.61.61 0 0 1-.144.394.321.321 0 0 0-.038.05c0 .008.11.004.124-.005.013-.007.015-.005.02.023a.145.145 0 0 0 .05.09c.016.012.022.012.039.003.029-.016.047-.049.05-.09.003-.031.006-.037.016-.031.006.003.04.006.073.007l.061.002-.033-.04A.729.729 0 0 1 1.266 7a.524.524 0 0 1-.057-.21.633.633 0 0 0-.012-.089c-.007-.021-.026-.022-.035-.002Zm1.224-.33a.131.131 0 0 1 .025-.051c.022-.026.04-.032.03-.01-.016.037-.012.07.015.105.03.04.037.095.015.134-.022.043-.072.044-.102.003-.024-.033-.025-.072-.004-.118a.363.363 0 0 0 .02-.062Zm.112.199a.094.094 0 0 0-.034.025c-.04.06.054.12.12.08.072-.043.074-.044.108-.032.03.01.031.01.025-.003-.012-.023-.03-.034-.102-.06-.081-.027-.084-.027-.117-.01Zm-.375.04c.027.015.063.009.096-.017a.098.098 0 0 1 .064-.025c.08 0 .12.07.06.11-.03.02-.069.021-.113.002a.718.718 0 0 0-.066-.022.094.094 0 0 1-.046-.029c-.017-.023-.015-.03.005-.019Zm.273.067a.181.181 0 0 0-.006.054.61.61 0 0 1-.144.394.32.32 0 0 0-.038.05c0 .009.11.004.124-.005.013-.007.014-.005.02.023a.145.145 0 0 0 .05.091c.016.01.022.012.039.002.029-.016.047-.049.05-.09.003-.03.006-.037.015-.031a.35.35 0 0 0 .074.007l.061.002-.033-.04a.73.73 0 0 1-.107-.157.524.524 0 0 1-.057-.21.63.63 0 0 0-.012-.088c-.007-.022-.026-.023-.036-.002ZM.59 7.867c0-.021.003-.045.006-.054.01-.02.028-.02.036.002.003.01.009.05.012.09a.52.52 0 0 0 .057.209.73.73 0 0 0 .107.156l.033.041-.062-.002A.351.351 0 0 1 .705 8.3c-.01-.005-.012 0-.015.032-.003.041-.022.074-.05.09-.017.01-.023.008-.039-.002a.145.145 0 0 1-.05-.091l-.003-.244a.657.657 0 0 0 .04-.219Z" clip-rule="evenodd"/><path fill="#C00" d="M0 15h5v-5H0v5Z"/><path fill="#0092C8" d="M5 0h15v15H5V0Z"/><path fill="#FFCF00" stroke="#650000" stroke-width=".08" d="M1.668 11.346c-.047-.058 0-.164.042-.119-.022-.043.015-.078.031-.056-.008-.035.027-.059.044-.026-.006-.04.046-.062.06-.02 0-.038.051-.069.062-.012.01-.044.067-.05.071.013.017-.036.06-.034.062.019.018-.025.065.012.057.056.03-.007.065.055.03.101.063-.035.077.08.04.132.019.013.02.002.038.011a.35.35 0 0 0 .079.032c.026 0 .122-.003.142-.006.02-.003.046-.014.079-.026.033-.011.082-.012.127-.023.035-.004 1.024.017 1.052.014.029-.004.07-.032.068-.067-.002-.036-.035-.061-.067-.064a1.866 1.866 0 0 0-.233.003.21.21 0 0 0-.096.045c-.01.007-.028.034-.042.052-.014.012-.053.014-.053-.002 0-.01-.003.002-.013.006-.012.008-.069.01-.066 0 .004-.012 0-.016-.015-.003a.186.186 0 0 1-.103.003c.009-.015.009-.014-.014-.002-.015.007-.076.013-.08 0-.001-.01-.008-.006-.017-.003-.069.02-.075-.003-.064-.012.01-.01.027-.065.01-.062a5.065 5.065 0 0 1-.165.032c-.037.007-.306 0-.343-.003-.037-.003-.079-.04-.081-.092-.004-.085.061-.106.1-.119a.861.861 0 0 1 .178-.032c.04 0 .152.015.182.002s.124-.048.15-.05c.04-.005.15.01.203.076-.027.014-.04.021-.01.01l.18-.04c.099-.005.073.01.024.023-.016.054-.16.13-.206.14a.644.644 0 0 1-.166-.002c-.022-.002-.125-.007-.163-.033a.474.474 0 0 0-.223-.071c-.046 0-.178.015-.177.064 0 .084.123.089.175.086.053-.003.184-.01.221-.026a.532.532 0 0 1 .162-.02c.044 0 .108.01.127.007.02-.003.066-.004.088-.02a.223.223 0 0 1 .117-.032c.049 0 .406-.015.454-.011.07 0 .12.08.12.148 0 .032-.015.079-.027.086.021.002.076.009.093.013.034.007.088.046.095.08a.252.252 0 0 0-.104-.043h-.849c.167.02.294.155.326.233.029.048.099.029.125.022.026-.006.057-.035.079-.057.022-.023.056-.028.071-.023.034-.003.04.035.027.055-.013.019.002.011.038.011.035 0 .065.014.086.043-.02.019-.03.003-.001.006.028.004.063.059.041.074-.018.01-.024.006 0 .01.036.003.046.027.05.07-.03.007-.014-.004 0 .012.016.016.038.087-.017.09-.02-.01-.019-.012-.015.01s-.007.076-.037.076c-.043.009-.081-.016-.086-.045-.004-.028-.003.056-.064.069-.056.013-.087-.02-.091-.037-.004-.016-.002-.003-.024-.006s-.05-.004-.061-.042c0-.022.004-.051.043-.056.017-.003.022-.027.01-.03-.014-.003-.003-.051.025-.038.029.013.095.016.11.032s.02-.013-.005-.039c-.024-.025-.17-.076-.21-.057a.529.529 0 0 1-.271.035c-.026-.006-.102.011-.138-.105a.255.255 0 0 0-.19-.184c-.248-.025-.234-.006-.073.002-.002.022-.007.068.019.074.043-.006.135-.026.156-.007.022.019.044.035.04.08-.005.044.002.031-.018.05-.02.02-.01.058.02.07.03.014.044.03.064.049.02.019-.01.057-.027.045-.017-.013-.017-.013-.02.012-.002.026-.023.074-.06.078-.008-.003-.006-.017-.005-.027.002-.022-.008.028-.019.042-.007.01-.07.028-.087.018.008-.02.004-.012-.012-.002-.015.006-.095.018-.06-.022.01-.015-.012.018-.024.024-.01.006-.059.01-.059-.008-.015.014-.051.014-.056.003-.011-.013-.012.01-.032.012-.02.004-.063-.003-.065-.028-.002-.026.005-.01-.02-.007-.058.041-.087-.016-.087-.035 0-.019-.002-.041.004-.054.007-.013-.04-.017-.026-.042.016-.03.033-.053.066-.047.015.003.013-.007.006-.02-.006-.012.018-.019.046-.006.029.013.048.045.057.073.009.03.077.007.105.01.029.003.03-.048.013-.064s-.065-.073-.085-.092c-.02-.02-.007-.087.01-.103.103-.072.047-.096.01-.09a.395.395 0 0 0-.164.083c-.03.035-.269.207-.29.226-.022.02-.054.024-.067.002-.013-.023-.022-.007-.02.025.017.12-.085.16-.103.158a.087.087 0 0 1-.044-.02c-.013.067-.07.074-.12.067 0-.008.01-.023.004-.017-.017.023-.069.02-.113.017-.003-.014.015-.031.006-.021-.015.03-.04.024-.082.02 0-.005.02-.026.01-.014-.018.021-.056.014-.086.015-.003-.005.016-.038-.002-.016-.016.019-.05.022-.084.017-.006-.016.007-.016.01-.026.01-.016-.004 0-.015 0-.01 0-.026.003-.033-.013-.006-.016-.002.016-.009.025-.006.008-.013.025-.035.032-.022.006-.079.013-.088-.016-.011-.014-.017-.042-.008-.058.008-.016-.042.031-.064.035-.064.013-.072-.092-.044-.102.029-.01.024-.025.01-.038-.016-.013-.025-.064-.005-.08s.065-.025.094-.006c.017.012.053.054.046.022-.005-.02.007-.044.021-.055.013-.012.05-.015.06.01.023.06.04.084.068.083a1.07 1.07 0 0 1 .166-.037c.031-.008.195-.024.195-.04-.098.035-.138-.011-.149-.008-.01.003-.038-.01-.038-.02 0-.018.025-.016-.01-.01-.021-.001-.04-.002-.057-.025-.003-.012.023-.053.032-.087-.022-.006-.072.037-.089.074-.011-.014-.016 0-.057.01a.088.088 0 0 1-.068-.004c-.018-.01-.086-.065-.053-.072l-.026-.009c-.024-.01-.046-.032-.04-.037-.006-.01.008-.01-.002-.012-.013-.003-.046-.028-.037-.037l-.037-.02c-.015-.01-.03-.042-.032-.058-.015.001-.045-.027-.031-.036-.023-.018-.043-.047-.027-.057-.014-.01-.023-.031-.014-.024-.014-.018-.01-.037.002-.037.01 0 .006-.05-.014-.05s-.051.015-.074 0c-.019-.016-.035-.084-.018-.112.018-.03.053-.061.07-.058.018.003.01.01.005-.02-.005-.028.025-.05.044-.057.023-.01.068-.003.08.01.014.013.018.013.018-.01 0-.015.017-.024.032-.028.025-.006.045.002.054.012.013.02.021.045.004.064-.018.02-.002.003.026-.003.018-.007.051.002.057.022.008.023.013.061-.006.08-.02.02-.049.067-.033.083.015.016.063.086.074.096.011.01.024.032.042.029l.052-.01c.061-.013.088-.02.01-.017.018-.026.055-.034.07-.038-.013-.022.038-.07.038-.076Zm0 1.74c-.047-.058 0-.164.042-.119-.022-.043.015-.078.031-.056-.008-.035.027-.059.044-.026-.006-.04.046-.062.06-.02 0-.038.051-.069.062-.012.01-.044.067-.05.071.013.017-.036.06-.034.062.019.018-.025.065.012.057.056.03-.007.065.055.03.101.063-.035.077.08.04.132.019.013.02.002.038.011a.35.35 0 0 0 .079.032c.026 0 .122-.003.142-.006.02-.003.046-.014.079-.026.033-.011.082-.012.127-.023.035-.004 1.024.017 1.052.014.029-.004.07-.032.068-.067-.002-.036-.035-.061-.067-.064a1.866 1.866 0 0 0-.233.003.21.21 0 0 0-.096.045c-.01.007-.028.034-.042.052-.014.012-.053.014-.053-.002 0-.01-.003.002-.013.006-.012.008-.069.01-.066 0 .004-.012 0-.016-.015-.003a.186.186 0 0 1-.103.003c.009-.015.009-.014-.014-.002-.015.007-.076.012-.08 0-.001-.01-.008-.006-.017-.003-.069.02-.075-.003-.064-.012.01-.01.027-.065.01-.062-.018.003-.127.026-.165.032-.037.007-.306 0-.343-.003-.037-.003-.079-.04-.081-.092-.004-.085.061-.106.1-.119a.861.861 0 0 1 .178-.032c.04 0 .152.015.182.002s.124-.048.15-.05c.04-.005.15.01.203.076-.027.014-.04.021-.01.01l.18-.04c.099-.005.073.01.024.024-.016.053-.16.129-.206.138a.644.644 0 0 1-.166-.001c-.022-.002-.125-.007-.163-.033a.474.474 0 0 0-.223-.071c-.046 0-.178.015-.177.064 0 .084.123.089.175.086.053-.004.184-.01.221-.026a.532.532 0 0 1 .162-.02c.044 0 .108.01.127.007.02-.003.066-.004.088-.02a.223.223 0 0 1 .117-.032c.049 0 .406-.015.454-.011.07 0 .12.08.12.148 0 .032-.015.079-.027.086.021.002.076.009.093.013.034.007.088.046.095.08a.25.25 0 0 0-.104-.043h-.849c.167.02.294.155.326.233.029.048.099.029.125.022.026-.006.057-.035.079-.057.022-.023.056-.028.071-.023.034-.003.04.036.027.055-.013.019.002.01.038.01.035 0 .065.015.086.044-.02.019-.03.003-.001.006.028.004.063.059.041.074-.018.01-.024.006 0 .01.036.002.046.027.05.07-.03.006-.014-.004 0 .012.016.016.038.087-.017.09-.02-.01-.019-.012-.015.01s-.007.076-.037.076c-.043.009-.081-.016-.086-.045-.004-.028-.003.056-.064.069-.056.013-.087-.02-.091-.037-.004-.016-.002-.003-.024-.006s-.05-.004-.061-.042c0-.022.004-.052.043-.056.017-.003.022-.027.01-.03-.014-.003-.003-.051.025-.038.029.013.095.016.11.032s.02-.013-.005-.039c-.024-.025-.17-.076-.21-.057a.528.528 0 0 1-.271.035c-.026-.006-.102.011-.138-.105a.255.255 0 0 0-.19-.184c-.248-.025-.234-.006-.073.002-.002.022-.007.068.019.074.043-.006.135-.026.156-.007.022.019.044.035.04.08-.005.044.002.031-.018.05-.02.02-.01.058.02.07.03.014.044.03.064.049.02.019-.01.057-.027.045-.017-.013-.017-.013-.02.012-.002.026-.023.074-.06.078-.008-.003-.006-.017-.005-.027.002-.022-.008.028-.019.042-.007.01-.07.028-.087.018.008-.02.004-.012-.012-.002-.015.006-.095.018-.06-.022.01-.015-.012.018-.024.024-.01.006-.059.01-.059-.009-.015.014-.051.014-.056.004-.011-.013-.012.01-.032.012-.02.004-.063-.003-.065-.028-.002-.026.005-.01-.02-.007-.058.041-.087-.016-.087-.035 0-.019-.002-.041.004-.054.007-.013-.04-.017-.026-.042.016-.03.033-.053.066-.047.015.003.013-.007.006-.02-.006-.012.018-.019.046-.006.029.013.048.045.057.073.009.03.077.007.105.01.029.003.03-.048.013-.064s-.065-.073-.085-.092c-.02-.02-.007-.087.01-.103.103-.072.047-.095.01-.09a.395.395 0 0 0-.164.083c-.03.035-.269.207-.29.226-.022.02-.054.024-.067.002-.013-.023-.022-.007-.02.025.017.12-.085.16-.103.158a.087.087 0 0 1-.044-.02c-.013.067-.07.074-.12.067 0-.008.01-.023.004-.017-.017.023-.069.02-.113.017-.003-.014.015-.031.006-.021-.015.03-.04.024-.082.02 0-.005.02-.026.01-.014-.018.021-.056.014-.086.015-.003-.005.016-.038-.002-.016-.016.019-.05.022-.084.017-.006-.016.007-.016.01-.026.01-.016-.004 0-.015 0-.01 0-.026.003-.033-.013-.006-.016-.002.016-.009.025-.006.008-.013.025-.035.032-.022.006-.079.012-.088-.016-.011-.014-.017-.042-.008-.058.008-.016-.042.031-.064.035-.064.013-.072-.092-.044-.102.029-.01.024-.025.01-.038-.016-.013-.025-.064-.005-.08s.065-.025.094-.006c.017.012.053.054.046.022-.005-.02.007-.044.021-.055.013-.012.05-.015.06.01.023.06.04.084.068.083a1.07 1.07 0 0 1 .166-.037c.031-.008.195-.025.195-.04-.098.035-.138-.011-.149-.008-.01.003-.038-.01-.038-.02 0-.018.025-.016-.01-.01-.021-.001-.04-.002-.057-.025-.003-.012.023-.053.032-.087-.022-.006-.072.037-.089.074-.011-.014-.016 0-.057.01a.088.088 0 0 1-.068-.004c-.018-.01-.086-.065-.053-.072l-.026-.009c-.024-.01-.046-.032-.04-.037-.006-.01.008-.01-.002-.012-.013-.003-.046-.028-.037-.038l-.037-.019c-.015-.01-.03-.043-.032-.058-.015.001-.045-.027-.031-.036-.023-.018-.043-.047-.027-.057-.014-.01-.023-.031-.014-.024-.014-.018-.01-.037.002-.037.01 0 .006-.05-.014-.05s-.051.015-.074 0c-.019-.016-.035-.084-.018-.112.018-.03.053-.061.07-.058.018.003.01.01.005-.02-.005-.028.025-.05.044-.057.023-.01.068-.003.08.01.014.013.018.013.018-.01 0-.015.017-.024.032-.028.025-.006.045.002.054.012.013.02.021.045.004.064-.018.02-.002.003.026-.003.018-.007.051.002.057.022.008.023.013.061-.006.08-.02.02-.049.067-.033.083.015.016.063.086.074.096.011.01.024.032.042.029l.052-.01c.061-.013.088-.02.01-.017.018-.026.055-.034.07-.038-.013-.022.038-.07.038-.076Z"/><path fill="#FFCF00" fill-rule="evenodd" d="M12.278 1.936c.233-.058.607-.076.808-.042.04.008.113.015.186.022.119.011.238.022.22.039-.042.04-.185.42-.185.494 0 .026.945.682.984.682.053 0 .132.095.111.132-.01.016-.069.077-.13.132-.058.055-.152.338-.242.653a.839.839 0 0 1 .206-.169 80.821 80.821 0 0 0 1.707-1.295c.04-.03-.061-.048-.27-.045a2.285 2.285 0 0 0-.524.071c-.281.07-.491-.148-.581-.242a.355.355 0 0 0-.04-.038c-.079-.053-.192-.217-.192-.277 0-.014.077-.003.177.023.232.066.438.064.701-.005.238-.06.491-.074.758-.042l.034.005a.92.92 0 0 0 .098.013c.017.114.131.485.152.503.043.037.974.404 1.045.412.106.013.148.055.148.145 0 .088-.108.17-.261.199-.18.034-.628.552-.942 1.086-.211.36-.327.626-.327.756 0 .132.079.637.16 1.02.05.228.064.267.09.23.03-.037.109-.042.636-.042h.607l.206-.357c.113-.198.203-.365.198-.367a11.947 11.947 0 0 0-.684-.056 22.622 22.622 0 0 1-.68-.05c-.003-.005.126-.246.287-.537l.293-.528.596.1.186.031c.25.042.452.076.484.083.058.01.08 0 .127-.082a.503.503 0 0 0 .033-.073v.012c-.007.171-.024.605-.21.962l-.456.87v.6h-.106a.56.56 0 0 0-.105.005l.02.124.02.106a.88.88 0 0 1 .023.215c-.008.013-.076.024-.15.024l-.137.002-.077.2c-.135.3-.48.857-.773 1.246l-.063.082.148.068c.208.096.424.323.567.598.11.217.116.233.116.463 0 .224-.061.512-.111.515a89.6 89.6 0 0 1-.637.098h-.002l-.29.045c-.5.076-.923.134-.941.13-.056-.022-.188-.244-.232-.39l-.018-.053a2.761 2.761 0 0 0-.038-.116c-.005-.02-.108.016-.32.125-.379.19-.67.293-1.065.383a4.662 4.662 0 0 1-2.588-.159 7.57 7.57 0 0 1-1.05-.52c-.487-.302-.688-.479-1.503-1.333-.264-.275-.332-.33-.512-.42-.182-.09-.235-.103-.393-.103-.148 0-.187-.008-.219-.05-.066-.093-.04-.201.087-.339 0 0 .04-.088.026-.097l-.309-.201c-.237-.122.624-1.555.98-1.93.174-.185.182-.196.182-.323 0-.253.16-.753.332-1.044.08-.132.087-.156.06-.216-.05-.111 0-.175.323-.405.638-.457 1.01-.737 1.02-.77.019-.057-.258-.036-.472.038-.427.15-.812.185-.997.09-.084-.043-.214-.19-.214-.246 0-.008.087-.008.196 0 .08.006.064-.126.051-.24a1.039 1.039 0 0 1-.01-.109c0-.037.003-.066.009-.066l.082.03.029.01c.187.066.472.05.836-.05.18-.05.406-.098.501-.109 0 0 .538-.1.459-.016-.042.045-.087.159-.13.32a6.034 6.034 0 0 0-.063.254l.082.016.53.108c.401.082.636.119.694.108.1-.02.164.021.164.109 0 .074-.053.119-.264.216a2.246 2.246 0 0 0-.33.201 4.792 4.792 0 0 0-.773.81c-.137.195-.137.195-.137.398 0 .222.053.56.121.793l.043.146.073-.198a3.14 3.14 0 0 1 .407-.775c.118-.164.14-.209.105-.222-.055-.021 0-.235.048-.264.047-.03.364-.31.701-.627l.612-.576V2.92c0-.148.003-.154.082-.17a1.26 1.26 0 0 1 .18-.015c.076-.003.124-.03.253-.146.084-.08.147-.153.134-.164a.787.787 0 0 0-.234-.029c-.172-.008-.288.008-.562.072-.388.092-.578.1-.757.04-.124-.043.06-.117.176-.149 0 0-.274-.473-.232-.46.364.111.515.117.829.037Zm6.189 2.525c-.005-.014-.007.01-.009.059.01-.026.013-.048.009-.06Zm-2.356-2.443c-.01-.01-.01.002-.007.03.025 0 .026-.008.007-.03Zm-2.118 2.16c-.115.417-.216.843-.216.843l.092-.2c.05-.112.124-.564.124-.633v-.01Zm.236-.952-.002-.001.002.001Zm-.002-.001a162.23 162.23 0 0 1-.965-.675l-.031.105c-.03.1.744.454.949.548l.047.022Zm-3.426-.21c.554.113.565.116.462.145l-.265.076-.323.09-.512.143.018-.07c.058-.244.127-.48.14-.48.01 0 .224.043.48.096Zm-.923.534.053-.19.066-.223c.008-.016.008-.031.005-.031-.008 0-.863.626-.884.645a.704.704 0 0 0 .17-.037c.1-.03.274-.08.384-.109l.206-.055Zm3.854 1.591-.066.217c-.08.27-.135.536-.177.864-.026.212-.047.273-.137.42a1.948 1.948 0 0 0-.13.249c-.07.162-.077.047-.089-.322a4.595 4.595 0 0 1 .098-1.177c.055-.25.396-.468.432-.391l.069.14Zm-3.326.857c.02-.09.013-.146-.04-.302a2.862 2.862 0 0 1-.148-.692c.005-.264-.022-.281-.121-.03-.169.379-.206.542-.206.934 0 .214.013.401.035.468.029.1.042.113.11.113h.08v.33c0 .276-.006.331-.04.331-.056 0-.05.03.029.217.127.304.791 1.012.725.883-.216-.447-.527-1.354-.477-1.859.016-.156.04-.335.053-.393Zm5.655.48c.035.135.035.16-.013.297l-.017.05c-.031.093-.079.238-.136.301-.124.138-.127.14-.158.082-.127-.24-.174-.851-.095-1.266.034-.182.169-.669.184-.669.006 0 .022.098.04.217.034.243.137.767.195.989Zm-7.752-.84.171.584s-.235-.489-.24-.539l.069-.045Zm1.543.827c0 .014-.108.024-.24.024h-.24l-.657.01c.004-.016.188-.092.401-.18l.13-.054c.247.013.491.029.516.06a.7.7 0 0 1 .09.14Zm-.606-.2-.099-.005c-.215-.01-.41-.02-.432-.038l.77-.156.293-.06c-.01.039-.271.151-.532.26Zm-.49.885-.17-.27c0-.219-.011-.298-.059-.41a.692.692 0 0 0-.084-.167c-.004 0-.037.124-.085.308l-.118.447-.198.724.08.029c.044.016.2.098.345.185.147.087.287.159.311.159.084 0 .095-.109.042-.333a2.346 2.346 0 0 1-.058-.44l-.005-.232Zm4.778.22c.06.306.172.594.343.896.082.142.145.264.14.27a.973.973 0 0 1-.32.052c-.036-.024-.184-.344-.284-.618-.114-.31-.216-.738-.198-.817.008-.037.066-.17.127-.294l.108-.224.02.259c.011.142.038.357.064.476Zm2.103.037c.005-.045-.024-.072-.127-.125-.137-.068-.504.157-.504.157.085.174.314.478.375.478.015 0 .118-.08.232-.177.219-.19.242-.254.103-.267-.071-.008-.085-.019-.08-.067Zm-.33.576-.069.047c-.092.064-.699.362-.712.352-.005-.005.06-.243.143-.529l.128-.185c.027.05.102.07.18.088.068.017.137.034.177.073l.153.154Zm-1.208.473c.01-.013.082-.22.158-.455.074-.238-.169-.055-.2.159-.019.14.007.33.042.296Zm-2.876-.473c-.06.187-.121.354-.132.365-.01.013-.066 0-.123-.03-.088-.044-.109-.07-.138-.187-.031-.13-.031-.14.035-.254a.571.571 0 0 1 .348-.275c.142-.034.15-.034.137.003a9.508 9.508 0 0 0-.078.232l-.049.146Zm.863.38a2.273 2.273 0 0 1-.187-.489c-.037-.18-.056-.219-.103-.232-.106-.03-.116-.016-.185.214l-.085.274-.05.16-.063.203.27.055c.144.03.326.064.403.072l.137.016-.137-.273Zm.293-.5.274.133-.121.137a.984.984 0 0 0-.166.26.723.723 0 0 1-.061.14c-.048.052-.343-.635-.343-.796 0-.056.098-.024.417.127Zm.85.794.329-.024c.053-.005-.335-.299-.625-.476a1.649 1.649 0 0 0-.19-.108c-.005 0-.058.053-.116.116a.862.862 0 0 0-.225.402l-.015.082.269.016c.147.008.406.002.572-.008Z" clip-rule="evenodd"/><path fill="#000" d="m13.086 1.894.039-.196-.005-.001-.034.197Zm-.808.042-.048-.194.048.194Zm.994-.02-.018.199.018-.2Zm.22.039-.135-.148-.002.002.137.146Zm.91 1.308.167.111.007-.012-.174-.099Zm-.13.132-.134-.147h-.001l.136.147Zm-.242.653-.192-.055.354.172-.162-.117Zm.206-.169-.112-.166.112.166Zm1.707-1.295-.119-.161-.006.004.125.157Zm-.27-.045-.002-.2.003.2Zm-.524.071-.048-.194H15.1l.049.194Zm-.581-.242-.144.139.144-.139Zm-.04-.038.112-.166-.111.166Zm-.015-.254.055-.192-.004-.001-.051.193Zm.701-.005-.05-.194.05.194Zm.758-.042.031-.198h-.008l-.023.198Zm.034.005.032-.197-.032.197Zm.25.516.132-.151-.006-.006-.126.157Zm1.045.412.025-.199h-.003l-.022.199Zm-.113.344-.038-.197.038.197Zm-.942 1.086-.172-.101.172.101Zm-.166 1.776-.196.042v.001l.196-.043Zm.09.23-.158-.123-.006.007.163.116Zm1.242-.042v.2h.115l.058-.1-.173-.1Zm.206-.357.173.1-.173-.1Zm.198-.367-.142.141.023.023.029.014.09-.178Zm-.684-.056-.013.2.013-.2Zm-.68-.05-.18.09.03.059.06.03.09-.179Zm.287-.537-.175-.097.175.097Zm.293-.528.033-.198-.14-.023-.068.124.175.097Zm.596.1-.033.197.033-.197Zm.186.031.035-.197h-.002l-.033.197Zm0 0-.034.197h.001l.033-.197Zm.484.083-.04.196h.004l.036-.196Zm.127-.082.173.1.002-.004-.175-.096Zm.033-.061-.2-.008.2.008Zm-.21.962.177.093-.177-.093Zm-.456.87-.177-.093-.023.044v.049h.2Zm0 .6v.2h.2v-.2h-.2Zm-.19.13.197-.032v-.003l-.197.034Zm0 0-.198.03v.004l.198-.035Zm0 0 .197-.035-.197.035Zm.018.105.197-.034-.197.034Zm.024.215-.16-.12-.006.008-.006.01.172.102Zm-.15.024v-.2h-.004l.004.2Zm-.137.002-.004-.2-.135.003-.048.126.186.071Zm-.077.2.183.083.004-.01-.187-.072Zm-.773 1.246.158.122.002-.002-.16-.12Zm-.063.082-.159-.123-.152.199.226.105.085-.181Zm.148.068-.085.182h.001l.084-.182Zm.567.598.178-.091v-.001l-.178.092Zm.005.978-.01-.2-.02.001-.019.005.049.194Zm-.637.098.03.198-.03-.198Zm-.002 0-.03-.197.03.197Zm-.29.045-.03-.198.03.198Zm-.941.13-.072.186.008.003.008.002.056-.192Zm-.232-.39.19-.058v-.002l-.19.06Zm-.018-.053-.19.06.19-.06Zm0 0 .191-.06-.19.06Zm-.038-.116-.194.049.004.015.006.015.184-.079Zm-.32.125.09.178h.002l-.091-.178Zm-1.065.383.044.195-.044-.195Zm-2.588-.159-.068.188.068-.188Zm-1.05-.52.106-.17-.105.17ZM8.48 8.822l.145-.138-.145.138Zm-.512-.42.09-.179h-.001l-.089.18Zm-.612-.153-.163.116.003.004.16-.12Zm.087-.339.147.136.023-.024.013-.03-.183-.082Zm.026-.097.11-.168-.11.168Zm-.309-.201.11-.168-.01-.006-.009-.004-.09.178Zm.98-1.93.145.138v-.001l-.145-.137Zm.514-1.367-.172-.102.172.102Zm.06-.216.184-.08-.001-.003-.182.083Zm.323-.405.116.163-.116-.163Zm1.02-.77.19.064.001-.003-.19-.06Zm-.472.038-.065-.19-.001.001.066.189Zm-.997.09.092-.178-.002-.001-.09.179Zm-.018-.246.014-.2-.014.2Zm.051-.24-.199.022.199-.023Zm.081-.146-.068.188.068-.188Zm.029.01-.069.188.002.001.067-.188Zm.836-.05.053.193-.053-.193Zm.501-.108.022.199.007-.001.008-.001-.037-.197Zm.459-.016.146.137-.146-.137Zm-.13.32.194.052v-.001l-.193-.051Zm-.063.254h-.2v.2h.2v-.2Zm.082.016-.04.196.04-.196Zm0 0 .04-.196h-.002l-.038.196Zm.53.108.04-.196-.04.196Zm.694.108.036.197.005-.001-.04-.196Zm-.1.325-.084-.181h-.002l.086.181Zm-.33.201.121.16-.12-.16Zm-.773.81.164.114-.164-.115Zm-.015 1.191.191-.055v-.001l-.191.056Zm.042.146-.192.056.168.58.211-.566-.187-.07Zm.073-.198.188.07v-.002l-.188-.068Zm.407-.775-.162-.117.162.117Zm.105-.222.072-.187-.072.187Zm.048-.264-.105-.17.105.17Zm.701-.627.137.146-.137-.146Zm.612-.576.137.146.063-.06v-.086h-.2Zm.082-.323-.035-.197-.004.001.04.196Zm.18-.015v.2h.006l-.006-.2Zm.253-.146.134.149.003-.003-.137-.146Zm.134-.164-.141.142.008.007.008.007.125-.156Zm-.234-.029-.01.2h.005l.005-.2Zm-.562.072-.045-.195h-.002l.047.195Zm-.757.04-.065.189.065-.19Zm.176-.149.053.193.25-.068-.13-.225-.173.1Zm-.232-.46-.06.191h.002l.058-.19Zm7.017 2.562.187-.07-.002-.006-.185.076Zm-2.356-2.443.154-.128-.009-.01-.145.138Zm-2.334 3.003-.195-.046.377.13-.182-.084Zm.216-.843.2.002-.393-.055.193.053Zm-.124.642.182.084v-.001l-.182-.083Zm.124-.632-.2-.001v.001h.2Zm.236-.962.142-.141-.021-.021-.027-.014-.094.176Zm-.966-.676.115-.164-.227-.16-.08.266.191.058Zm-.032.105.191.058-.191-.058Zm.949.548-.084.182.084-.182Zm-2.917-.043-.054-.192-.006.001.06.191Zm-.462-.145-.04.196.04-.196Zm.197.22-.054-.192h-.002l.056.193Zm0 0 .054.193h.001l-.055-.192Zm-.323.092.053.192h.001l-.054-.192Zm-.512.142-.194-.05-.087.336.335-.093-.054-.193Zm.018-.07.194.05v-.005l-.194-.046Zm-.25-.04-.191-.06-.002.006.193.053Zm-.053.19.052.193.11-.03.03-.11-.192-.053Zm.119-.413-.18-.089-.007.017-.006.017.193.055Zm-.879.614-.132-.15-.02.017-.014.022.166.11Zm.17-.037.05.193.005-.001-.056-.192Zm.384-.109.051.194h.001l-.052-.194Zm3.994 1.753-.191-.058V5.3l.191.056Zm.066-.217.191.058.023-.075-.034-.07-.18.087Zm-.243 1.081-.198-.025.198.025Zm-.137.42-.17-.103-.003.003.173.1Zm-.13.249.184.08.005-.01.003-.01-.191-.06Zm-.089-.322.2-.007v-.003l-.2.01Zm.098-1.177-.195-.043.195.043ZM13.663 5l-.18.087.18-.087Zm-3.297.695-.19.064.19-.064Zm.04.302-.195-.046v.001l.195.045Zm-.188-.994-.2-.004v.007l.2-.003Zm-.121-.03.183.082.003-.008-.186-.073Zm-.171 1.402.192-.056-.002-.005-.19.06Zm.19.113h.2v-.2h-.2v.2Zm-.011.878.184-.077-.184.077Zm.725.883-.18.087.002.003.178-.09Zm-.477-1.859-.2-.02.2.02Zm5.695.384.189.066-.189-.065Zm.013-.296.194-.05-.194.05Zm-.03.345-.19-.063.19.063Zm0 0 .19.064v-.001l-.19-.063Zm0 0-.19-.063.19.064Zm-.136.302.149.134-.149-.134Zm-.158.082-.177.093.001.003.176-.096Zm-.095-1.266.196.037-.196-.037Zm.224-.452.198-.028v-.003l-.198.031Zm-7.386.732-.18.087.372-.143-.192.056Zm-.171-.584.191-.056-.076-.259-.225.148.11.167Zm-.07.045-.109-.167-.102.067.013.12.199-.02Zm1.133.806v-.2h-.003l.003.2Zm-.657.01-.194-.051-.068.255.265-.004-.003-.2Zm.401-.18.076.185.01-.004.008-.005-.094-.176Zm0 0-.076-.185-.01.004-.008.004.094.177Zm.646.006.16-.12-.003-.004-.157.124Zm-.615-.065.01-.2-.01.2Zm-.432-.038-.04-.196-.437.089.357.267.12-.16Zm.77-.156.04.196-.04-.196Zm.293-.06.193.054.087-.314-.32.065.04.196Zm-1.193.874h-.2v.059l.032.049.168-.108Zm.172.27.2-.004-.001-.056-.03-.047-.17.107Zm-.23-.68-.184.077v.002l.184-.078Zm-.169.141.193.053V6.66l-.193-.05Zm0 0-.193-.053v.002l.193.051Zm-.118.447.193.052-.193-.052Zm-.198.724-.193-.053-.048.177.172.064.07-.188Zm.08.029-.07.188h.003l.066-.188Zm.345.185-.103.171.001.001.102-.172Zm.353-.174.195-.046-.001-.004-.194.05Zm-.058-.44.2-.003-.2.004Zm5.115.884-.174.099.174-.1Zm-.343-.897.196-.038v-.005l-.196.043Zm.483 1.166.134.149.008-.008-.142-.14Zm-.32.053-.108.169.011.006.098-.175Zm-.284-.618L13.6 7.9l-.188.069Zm-.198-.817.195.045v-.003l-.195-.042Zm.127-.294.18.088-.18-.088Zm.108-.224.2-.017-.06-.734-.32.664.18.087Zm.02.259.2-.015v-.002l-.2.017Zm2.04.388.091-.178H15.6l-.09.178Zm.127.125-.2-.024v.002l.2.021Zm-.63.032-.105-.17-.155.094.08.163.18-.087Zm.606.3.13.152h.001l-.131-.151Zm.103-.266-.022.198h.003l.019-.198Zm-.478.557.114.165-.114-.165Zm.069-.047.114.164.196-.136-.169-.17-.141.142Zm-.781.399-.142.141.008.008.009.007.125-.156Zm.143-.529-.165-.114-.019.027-.009.032.192.055Zm.128-.185.177-.093-.153-.291-.188.27.164.114Zm.18.088.047-.194-.047.194Zm.177.073-.142.142.142-.142ZM14.257 8l.19.062.001-.002-.191-.06Zm-.158.455.141.141.008-.008.007-.008-.156-.125Zm-.043-.296-.197-.03v.004l.197.026Zm-2.964.188-.142-.142-.008.008-.007.009.156.125Zm.131-.365-.19-.063v.001l.19.062Zm-.256.335-.091.178.002.001.09-.179Zm-.137-.187-.194.047v.001l.194-.048Zm.035-.254-.172-.102-.001.002.173.1Zm.348-.275-.047-.194.047.194Zm.137.003.184.079.004-.012-.188-.067Zm-.078.232.19.063-.19-.063Zm.627.037-.196.04v.005l.196-.045Zm.187.49.179-.09-.179.09Zm-.29-.722.053-.193-.053.193Zm-.185.214.191.058v-.001l-.19-.057Zm-.085.274.191.06-.19-.06Zm0 0 .19.061-.19-.06Zm0 0-.19-.06-.001.001.19.06Zm-.05.16.192.059-.191-.06Zm-.063.203-.19-.06-.066.211.216.045.04-.196Zm.27.055-.041.196h.001l.04-.196Zm.403.072.023-.199h-.002l-.021.199Zm.137.016-.023.198.369.043-.167-.331-.179.09Zm.43-.64.15.132.175-.198-.238-.114-.087.18Zm-.274-.132.087-.18-.002-.001-.085.18Zm.153.27.149.133v-.001l-.15-.133Zm-.166.258.188.068-.188-.068Zm-.061.14-.142-.141-.007.008.149.134Zm1.253.101v.2h.01l.01-.001-.02-.199Zm-.33.024.013.2h.003l-.016-.2Zm-.295-.5-.106.17h.002l.104-.17Zm-.306.008.146.137.001-.002-.147-.135Zm-.225.402.197.038v-.001l-.197-.037Zm-.015.082-.197-.038-.043.224.228.014.012-.2Zm.269.016-.012.2h.001l.01-.2Zm.463-6.967a2.603 2.603 0 0 0-.89.045l.098.388a2.23 2.23 0 0 1 .725-.039l.068-.394Zm.172.02a2.294 2.294 0 0 1-.166-.02l-.079.393c.054.01.14.019.208.025l.037-.398Zm.336.386a.204.204 0 0 0 .012-.29c-.04-.043-.088-.057-.093-.06a.497.497 0 0 0-.083-.017c-.05-.008-.115-.014-.172-.02l-.037.399c.06.006.114.01.15.016.021.003.022.005.014.002a.186.186 0 0 1-.072-.047.196.196 0 0 1 .011-.28l.27.297Zm-.12.346c0 .015-.002.02.002.003a2.423 2.423 0 0 1 .138-.371c.008-.015.002 0-.018.02l-.274-.292c-.03.029-.05.065-.058.079a2.68 2.68 0 0 0-.179.476.402.402 0 0 0-.01.085h.4Zm.784.482c.029 0 .05.006.055.008a.171.171 0 0 1 .017.006l.004.002a17.29 17.29 0 0 1-.915-.634l.008.008a.17.17 0 0 1 .017.023c.002.003.03.044.03.105h-.4c0 .062.03.104.032.109a.228.228 0 0 0 .045.052l.04.033.113.085a17.698 17.698 0 0 0 .797.546.931.931 0 0 0 .073.04.235.235 0 0 0 .084.017v-.4Zm.285.431a.242.242 0 0 0 .012-.205.39.39 0 0 0-.145-.178.28.28 0 0 0-.152-.048v.4c-.042 0-.066-.017-.067-.017-.004-.003-.004-.004-.003-.002.002.002-.003-.002-.007-.015a.134.134 0 0 1-.008-.042.17.17 0 0 1 .022-.09l.348.197Zm-.168.181c.033-.03.066-.062.092-.09a.662.662 0 0 0 .069-.079l-.333-.222.006-.008-.005.005a1.023 1.023 0 0 1-.1.099l.27.295Zm-.186.56c.045-.156.09-.3.13-.412.02-.055.037-.099.052-.13.018-.04.022-.035.005-.019l-.272-.293a.468.468 0 0 0-.095.142 1.948 1.948 0 0 0-.067.165 7.273 7.273 0 0 0-.137.437l.384.11Zm-.098-.39a1.001 1.001 0 0 0-.256.218l.324.234a.756.756 0 0 1 .156-.12l-.224-.332Zm1.694-1.286a81.798 81.798 0 0 1-1.694 1.286l.224.332a80.04 80.04 0 0 0 1.719-1.304l-.249-.314Zm-.142.312c.102-.001.164.003.191.008h.001s-.023-.007-.048-.028a.19.19 0 0 1-.065-.184.177.177 0 0 1 .07-.112l.236.322a.209.209 0 0 0 .012-.336.25.25 0 0 0-.082-.043.409.409 0 0 0-.056-.014 1.574 1.574 0 0 0-.264-.013l.005.4Zm-.48.065c.18-.044.33-.063.48-.065l-.006-.4a2.485 2.485 0 0 0-.57.077l.097.388Zm-.772-.297c.044.046.136.143.262.217a.672.672 0 0 0 .511.08l-.097-.388a.274.274 0 0 1-.213-.038.826.826 0 0 1-.175-.148l-.288.277Zm-.006-.01a.142.142 0 0 1-.01-.008l-.005-.004.001.001.008.008.012.013.288-.277-.027-.028a.257.257 0 0 0-.045-.038l-.222.332Zm-.282-.444c0 .063.025.119.039.148.017.036.04.073.063.107a.746.746 0 0 0 .18.188l.222-.332-.008-.007a.56.56 0 0 1-.096-.13l-.004-.007.002.008.002.025h-.4Zm.428-.17a1.304 1.304 0 0 0-.15-.032.41.41 0 0 0-.075-.004.23.23 0 0 0-.074.016.204.204 0 0 0-.129.19h.4a.197.197 0 0 1-.121.181.167.167 0 0 1-.055.013c-.01 0-.012 0 0 0 .02.004.056.01.102.023l.102-.387Zm.6-.006a1.045 1.045 0 0 1-.596.007l-.11.385c.272.077.514.072.807-.004l-.1-.388Zm.831-.047a2.255 2.255 0 0 0-.83.047l.1.388c.21-.054.438-.067.683-.038l.047-.397Zm.043.007-.035-.006-.063.395.035.006.063-.395Zm.07.01c.003 0 .003 0 0 0s-.008 0-.014-.002a3.06 3.06 0 0 1-.056-.008l-.063.395c.038.006.089.015.126.015l.007-.4Zm.274.546a.188.188 0 0 1 .036.04l.009.013.001.002a3.222 3.222 0 0 1-.126-.43l-.396.058a3.576 3.576 0 0 0 .155.531.4.4 0 0 0 .03.054.209.209 0 0 0 .04.045l.25-.313Zm.941.37c.015.002.023.005.011.001a17.012 17.012 0 0 1-.968-.382c-.013-.007.003 0 .022.017l-.263.3c.024.022.053.036.058.039l.044.021.123.054a16.845 16.845 0 0 0 .872.335c.01.003.033.01.057.013l.044-.398Zm.326.344a.333.333 0 0 0-.094-.243.386.386 0 0 0-.23-.1l-.049.396c.016.002.022.004.02.004a.073.073 0 0 1-.022-.016.096.096 0 0 1-.023-.036c-.003-.01-.002-.012-.002-.005h.4Zm-.424.395a.654.654 0 0 0 .271-.114.357.357 0 0 0 .153-.28h-.4c0-.044.025-.054.006-.04a.26.26 0 0 1-.105.041l.075.393Zm-.807.991a4.96 4.96 0 0 1 .5-.7 2.19 2.19 0 0 1 .221-.226.631.631 0 0 1 .074-.057c.021-.012.024-.01.012-.008l-.075-.393a.444.444 0 0 0-.146.06 1.015 1.015 0 0 0-.125.094c-.082.07-.172.163-.263.267-.182.21-.38.483-.543.76l.345.203Zm-.3.655c0-.02.014-.086.069-.212.05-.118.128-.267.231-.443l-.345-.202a4.645 4.645 0 0 0-.253.486 1.02 1.02 0 0 0-.101.371h.4Zm.157.979c-.04-.188-.08-.406-.109-.594a3.711 3.711 0 0 1-.047-.385h-.4c0 .085.023.26.052.447.03.194.071.42.113.615l.391-.083Zm-.268.155c0-.001.014-.021.041-.04a.191.191 0 0 1 .262.05c.009.013.011.022.01.02a2.08 2.08 0 0 1-.045-.187l-.39.086c.023.107.042.192.062.243a.304.304 0 0 0 .028.057.21.21 0 0 0 .297.063.24.24 0 0 0 .06-.06l-.326-.232Zm.798-.126c-.261 0-.42.001-.518.008a.657.657 0 0 0-.136.02.266.266 0 0 0-.139.09l.315.248a.137.137 0 0 1-.065.046.446.446 0 0 1 .052-.005c.08-.006.225-.007.491-.007v-.4Zm.607 0h-.607v.4h.607v-.4Zm.032-.257-.205.357.346.2.206-.357-.347-.2Zm.282-.088a.2.2 0 0 1-.103-.23l.004-.014.002-.004-.006.01a11.614 11.614 0 0 1-.18.326l.348.2a12.441 12.441 0 0 0 .191-.348.6.6 0 0 0 .016-.034l.01-.029c.001-.005.006-.023.008-.046a.202.202 0 0 0-.11-.189l-.18.357Zm-.607-.035a27.39 27.39 0 0 1 .655.051c.003 0 .003 0 0 0a.17.17 0 0 1-.034-.01.193.193 0 0 1-.066-.044l.283-.283a.208.208 0 0 0-.13-.06 27.848 27.848 0 0 0-.68-.054l-.028.4Zm-.757-.071a.204.204 0 0 0 .086.022l.043.004.15.012.478.033.026-.4a46.72 46.72 0 0 1-.658-.047h-.006a.1.1 0 0 1 .015.002.192.192 0 0 1 .045.016l-.179.358Zm.202-.812a33.99 33.99 0 0 0-.288.535.383.383 0 0 0-.01.02c0 .004-.004.013-.007.023a.2.2 0 0 0-.006.032c0 .003-.009.056.02.113l.358-.18c.028.057.02.11.02.112a.195.195 0 0 1-.012.048l-.001.002a33.296 33.296 0 0 1 .277-.512l-.35-.193Zm.293-.53-.293.53.35.193.293-.528-.35-.194Zm.804 0-.596-.1-.066.395.596.1.066-.394Zm.186.032-.186-.031-.066.394.186.032.066-.395Zm.002 0-.07.394.07-.394Zm.488.084-.49-.084-.066.395.478.08.078-.391Zm-.085.014a.266.266 0 0 1-.017.026c-.001.002.006-.009.024-.02a.137.137 0 0 1 .062-.02c.015-.002.022 0 .013 0l-.072.393c.04.007.125.02.21-.034a.4.4 0 0 0 .126-.145l-.346-.2Zm.017-.04a.32.32 0 0 1-.02.044l.351.192a.69.69 0 0 0 .047-.103l-.378-.132Zm.389.087v-.012l-.4-.016v.012l.4.016Zm-.232 1.046c.208-.402.225-.878.232-1.046l-.4-.016c-.007.175-.025.565-.188.878l.356.184Zm-.457.87.456-.869-.354-.186-.456.87.354.186Zm.023.508v-.6h-.4v.6h.4Zm-.306.2h.106v-.4h-.106v.4Zm.095-.195a.2.2 0 0 1-.117.182c-.018.008-.033.011-.036.012a.157.157 0 0 1-.012.003h-.004.01l.064-.002v-.4a1.728 1.728 0 0 0-.12.005.252.252 0 0 0-.067.018.2.2 0 0 0-.118.182h.4Zm.018.09a60.621 60.621 0 0 1-.015-.087l-.004-.023v-.004.003a.207.207 0 0 1 0 .021h-.4l.001.017.001.007.001.008a.382.382 0 0 0 .007.04l.015.087.394-.07Zm0 .003-.395.063.395-.063Zm0-.003-.394.07.394-.07Zm.018.106-.018-.106-.394.069.018.106.394-.07Zm-.013.369a.206.206 0 0 0 .04-.103.693.693 0 0 0-.003-.106 3.022 3.022 0 0 0-.024-.16l-.394.069a2.6 2.6 0 0 1 .023.155v.008-.003l.002-.012a.193.193 0 0 1 .036-.088l.32.24Zm-.31.104a.873.873 0 0 0 .13-.01.42.42 0 0 0 .112-.035.214.214 0 0 0 .08-.076l-.344-.206a.191.191 0 0 1 .069-.067.14.14 0 0 1 .024-.01c.006-.003.006-.002-.003 0a.476.476 0 0 1-.068.004v.4Zm-.134.002.137-.002-.007-.4-.137.002.007.4Zm.107.072.076-.2-.373-.143-.077.2.374.143Zm-.8 1.294c.298-.395.653-.966.795-1.283l-.364-.164c-.127.28-.463.825-.75 1.206l.319.241Zm-.065.084.063-.082-.316-.244-.064.082.317.244Zm.074-.235-.148-.069-.169.363.148.069.169-.363Zm.66.687c-.156-.301-.4-.568-.661-.687l-.167.363c.156.072.344.26.473.508l.355-.184Zm.139.555c0-.11 0-.198-.023-.286-.022-.086-.063-.166-.115-.268l-.356.182c.058.115.075.151.083.184.008.032.01.067.01.188h.4Zm-.3.715a.227.227 0 0 0 .168-.093.371.371 0 0 0 .044-.08.961.961 0 0 0 .047-.16c.024-.113.04-.255.04-.382h-.4c0 .097-.013.21-.032.299a.595.595 0 0 1-.025.09c-.003.008-.002.003.006-.008.002-.002.043-.061.13-.066l.021.4Zm-.618.096.451-.07.135-.02.038-.006.032-.006-.098-.388c.01-.002.018-.003.002 0a36.104 36.104 0 0 1-.17.026l-.45.068.06.396Zm-.002 0h.002l-.06-.396h-.002l.06.396Zm-.29.044.29-.044-.06-.395-.29.044.06.395Zm-1.027.124c.027.008.05.008.052.008h.019a.705.705 0 0 0 .093-.008l.209-.028c.171-.023.403-.057.655-.096l-.06-.395a46.74 46.74 0 0 1-.851.121 1.917 1.917 0 0 1-.053.006h-.008.009a.04.04 0 0 1 .013.002c.005 0 .017.002.033.006l-.11.384Zm-.368-.521a1.412 1.412 0 0 0 .214.405.356.356 0 0 0 .138.111l.143-.374a.146.146 0 0 1 .04.024l-.008-.01a1.027 1.027 0 0 1-.144-.273l-.383.117Zm-.016-.052.017.053.381-.121-.017-.054-.381.122Zm0-.001.381-.12-.381.12Zm-.032-.097.001.004.008.022.023.072.381-.122c-.015-.046-.034-.107-.045-.133l-.368.157Zm-.044.224a2.27 2.27 0 0 1 .217-.102c.023-.009.028-.009.02-.008-.001 0-.025.005-.057-.002a.191.191 0 0 1-.146-.142l.388-.097a.207.207 0 0 0-.159-.152.244.244 0 0 0-.089-.002.52.52 0 0 0-.1.03 2.488 2.488 0 0 0-.256.119l.182.356Zm-1.113.4a4.497 4.497 0 0 0 1.112-.4l-.18-.357a4.1 4.1 0 0 1-1.02.367l.088.39Zm-2.7-.165c.86.309 1.806.366 2.7.165l-.088-.39a4.46 4.46 0 0 1-2.476-.152l-.135.377Zm-1.087-.54c.292.181.819.441 1.087.54l.137-.376a7.395 7.395 0 0 1-1.013-.503l-.21.34ZM8.335 8.96c.818.857 1.033 1.05 1.543 1.365l.21-.34c-.465-.288-.65-.45-1.463-1.3l-.29.275Zm-.456-.38c.082.042.13.07.187.117.062.051.137.126.27.264l.288-.277a3.74 3.74 0 0 0-.305-.296 1.29 1.29 0 0 0-.261-.165l-.18.358Zm-.304-.08c.075 0 .107.003.137.011a.938.938 0 0 1 .168.071l.177-.358a1.294 1.294 0 0 0-.244-.1.9.9 0 0 0-.238-.024v.4Zm-.379-.13a.3.3 0 0 0 .182.116.94.94 0 0 0 .197.014v-.4a1.506 1.506 0 0 1-.107-.004h-.002s.011.002.025.01a.1.1 0 0 1 .025.024l-.32.24Zm.1-.594a.651.651 0 0 0-.162.272.375.375 0 0 0 .06.318l.325-.232.002.006v.007a.284.284 0 0 1 .07-.1l-.295-.271Zm.064.206a.195.195 0 0 1-.088-.149c-.001-.021.002-.036.002-.037l-.001.004a.453.453 0 0 1-.012.029v.001l.182.081.183.081.001-.002.002-.004a.864.864 0 0 0 .038-.116.25.25 0 0 0 .005-.062c-.001-.014-.007-.105-.094-.162l-.218.336Zm-.309-.202.31.202.217-.336-.309-.201-.218.335Zm.944-2.235c-.196.207-.51.677-.743 1.102-.117.214-.22.428-.279.602a.92.92 0 0 0-.053.255c-.002.07.01.216.149.287l.182-.356c.08.04.067.115.068.081a.618.618 0 0 1 .034-.14c.047-.14.137-.33.25-.537.227-.415.522-.85.682-1.018l-.29-.276Zm.127-.185a.26.26 0 0 1-.002.047l.001-.004.001-.002a.3.3 0 0 1-.031.04 4.045 4.045 0 0 1-.097.105l.291.274c.079-.083.146-.153.185-.221.052-.091.052-.173.052-.239h-.4Zm.36-1.145a2.972 2.972 0 0 0-.249.576c-.063.2-.111.411-.111.57h.4c0-.096.032-.26.092-.448a2.58 2.58 0 0 1 .212-.495l-.344-.203Zm.05-.036-.003-.012a.112.112 0 0 1 .003-.04c0-.005 0-.002-.008.015a1.614 1.614 0 0 1-.042.072l.344.205a.796.796 0 0 0 .09-.183.296.296 0 0 0-.018-.216l-.367.16Zm.388-.647c-.154.11-.273.2-.34.285A.353.353 0 0 0 8.5 4a.347.347 0 0 0 .032.18l.365-.164c-.005-.01.003.002 0 .026-.002.025-.013.034-.004.023a.538.538 0 0 1 .077-.071 3.59 3.59 0 0 1 .183-.137L8.92 3.53Zm.948-.67a.186.186 0 0 1 .034-.06c.002-.003.002-.003-.002.001a6.697 6.697 0 0 1-.238.188c-.172.13-.423.313-.742.542l.233.325c.32-.23.574-.415.75-.547a7.057 7.057 0 0 0 .27-.215.414.414 0 0 0 .028-.029.226.226 0 0 0 .046-.078l-.38-.126Zm-.217.29a1.181 1.181 0 0 1 .318-.06l.015.001a.156.156 0 0 1-.056-.028.185.185 0 0 1-.062-.2l.382.121a.215.215 0 0 0-.074-.236.268.268 0 0 0-.115-.05.656.656 0 0 0-.166-.005 1.58 1.58 0 0 0-.373.079l.13.378Zm-1.155.079c.144.073.332.085.518.068a2.69 2.69 0 0 0 .638-.147l-.133-.378a2.294 2.294 0 0 1-.541.127c-.16.014-.257-.005-.298-.026l-.184.356Zm-.322-.424c0 .073.036.134.05.159a.73.73 0 0 0 .075.1.73.73 0 0 0 .2.166l.179-.358-.008-.005a.504.504 0 0 1-.103-.11c-.003-.004-.002-.004 0 0 0 .002.007.02.007.048h-.4Zm.41-.2a2.195 2.195 0 0 0-.214-.004.21.21 0 0 0-.104.035.202.202 0 0 0-.092.169h.4A.198.198 0 0 1 8.415 3a.09.09 0 0 1-.005 0h.021c.03 0 .073.002.124.005l.03-.399Zm-.162-.018a1.883 1.883 0 0 1 .01.124c-.002.011-.002-.012.02-.042a.155.155 0 0 1 .132-.064l-.029.4a.246.246 0 0 0 .22-.102.313.313 0 0 0 .054-.154c.007-.072-.004-.158-.01-.208l-.397.046Zm-.01-.131c0 .044.006.095.01.131l.398-.046a.91.91 0 0 1-.008-.085h-.4Zm.208-.266a.202.202 0 0 0-.195.148.282.282 0 0 0-.01.05.651.651 0 0 0-.003.068h.4a.427.427 0 0 1 0-.025v.005a.186.186 0 0 1-.027.066.198.198 0 0 1-.165.088v-.4Zm.15.041a11.975 11.975 0 0 0-.1-.035.21.21 0 0 0-.013-.003c-.003 0-.018-.003-.037-.003v.4a.196.196 0 0 1-.056-.008c-.002 0-.002 0 0 0a.95.95 0 0 1 .07.025l.137-.376Zm.03.01-.03-.01-.136.376.028.01.137-.375Zm.714-.054c-.354.097-.59.099-.717.054l-.133.377c.247.087.582.057.956-.046l-.106-.385Zm.532-.115a4.28 4.28 0 0 0-.533.115l.108.385a3.93 3.93 0 0 1 .47-.102l-.045-.398Zm.627.32a.224.224 0 0 0 .06-.13.21.21 0 0 0-.083-.19.241.241 0 0 0-.092-.042.364.364 0 0 0-.057-.008 1.205 1.205 0 0 0-.197.01 4.136 4.136 0 0 0-.248.038l-.018.003-.005.001h-.001l.036.197.037.197.005-.001a2.187 2.187 0 0 1 .073-.013c.048-.008.11-.017.167-.024a.885.885 0 0 1 .126-.009h-.006c-.003-.002-.03-.007-.06-.03a.19.19 0 0 1-.074-.17c.006-.061.04-.097.045-.103l.292.274Zm-.082.234c.02-.076.04-.136.057-.18.02-.05.03-.06.025-.054l-.292-.274a.58.58 0 0 0-.104.179c-.026.064-.05.142-.073.227l.387.102Zm-.057.203a.183.183 0 0 1-.003.037l.003-.014a4.926 4.926 0 0 1 .057-.225l-.386-.104a7.908 7.908 0 0 0-.06.24l-.005.017a.214.214 0 0 0-.001.008l-.002.006v.008s-.003.012-.003.027h.4Zm-.078-.18-.06-.012a3.114 3.114 0 0 0-.023-.005h-.004l-.006-.001-.007-.001-.022-.001v.4a.195.195 0 0 1-.033-.003H10.3h.002l.015.003.06.012.08-.392Zm-.002 0-.077.392.077-.392Zm.531.108a77.17 77.17 0 0 1-.529-.108l-.08.392.531.108.078-.392Zm.62.108c.015-.003.014 0-.024-.004a2.078 2.078 0 0 1-.128-.017 10.92 10.92 0 0 1-.467-.087l-.08.392c.202.041.364.072.485.09.06.01.112.017.155.02a.508.508 0 0 0 .13 0l-.072-.394Zm.399.305a.306.306 0 0 0-.134-.262.354.354 0 0 0-.271-.042l.082.391c.02-.004 0 .006-.032-.016a.108.108 0 0 1-.038-.043.07.07 0 0 1-.007-.028h.4Zm-.38.398c.104-.048.192-.093.254-.145a.354.354 0 0 0 .092-.111.31.31 0 0 0 .034-.142h-.4c0-.007.001-.023.01-.04.008-.015.015-.02.01-.015a.343.343 0 0 1-.05.032 1.933 1.933 0 0 1-.118.058l.168.363Zm-.293.179a2.05 2.05 0 0 1 .295-.18l-.172-.361a2.438 2.438 0 0 0-.365.222l.242.319Zm-.73.764c.155-.222.53-.613.73-.764l-.242-.319a5.02 5.02 0 0 0-.816.854l.328.229Zm-.1.284a.51.51 0 0 1 .005-.137.823.823 0 0 1 .095-.147l-.328-.23c-.06.087-.116.164-.145.247-.03.088-.028.178-.028.267h.4Zm.112.737a3.059 3.059 0 0 1-.113-.737h-.4c0 .244.056.602.13.85l.383-.113Zm.043.146-.043-.145-.384.111.043.146.384-.112Zm-.306-.212-.074.198.375.14.074-.199-.375-.14Zm.431-.822a3.339 3.339 0 0 0-.431.823l.376.137a2.94 2.94 0 0 1 .38-.726l-.325-.234Zm.196.082a.182.182 0 0 1-.112-.147.159.159 0 0 1 .004-.059l.004-.012a2.743 2.743 0 0 1-.091.136l.324.234c.057-.078.103-.146.129-.199a.27.27 0 0 0 .028-.145.218.218 0 0 0-.142-.182l-.144.374Zm.015-.622a.262.262 0 0 0-.078.076.641.641 0 0 0-.087.328.287.287 0 0 0 .025.1.23.23 0 0 0 .126.118l.143-.374a.171.171 0 0 1 .094.086c.01.022.01.038.011.04l.004-.026a.24.24 0 0 1 .014-.045c.002-.005.002-.004 0 0a.156.156 0 0 1-.043.039l-.209-.342Zm.67-.602a24.15 24.15 0 0 1-.612.555l-.058.047.21.341c.027-.017.07-.052.106-.083a24.543 24.543 0 0 0 .627-.568l-.273-.292Zm.611-.576-.612.577.274.29.612-.575-.274-.292Zm-.063-.007v.153h.4V2.92h-.4Zm.243-.366c-.015.003-.053.01-.088.026a.245.245 0 0 0-.123.118.326.326 0 0 0-.03.121 1.51 1.51 0 0 0-.002.1h.4c0-.038 0-.059.002-.072v-.003a.157.157 0 0 1-.084.102l-.013.004a.35.35 0 0 1 .016-.004l-.078-.392Zm.219-.02c-.066 0-.16.01-.215.02l.07.393c.034-.006.104-.012.145-.012v-.4Zm.119-.094a.781.781 0 0 1-.112.09l-.006.004h-.008l.014.4a.412.412 0 0 0 .199-.056c.058-.033.116-.082.18-.14l-.267-.298Zm.143.141a.195.195 0 0 1-.07-.188.157.157 0 0 1 .017-.046c.004-.007.004-.005-.006.007a1.096 1.096 0 0 1-.087.09l.274.29c.045-.042.089-.086.12-.125a.45.45 0 0 0 .048-.067.24.24 0 0 0 .027-.07.206.206 0 0 0-.072-.203l-.25.312Zm-.114.015a1.311 1.311 0 0 1 .17.016c.003 0 0 0-.005-.002a.188.188 0 0 1-.067-.043l.283-.283a.212.212 0 0 0-.084-.052.794.794 0 0 0-.109-.023 1.71 1.71 0 0 0-.179-.013l-.009.4Zm-.512.066c.268-.061.363-.073.507-.066l.019-.4c-.199-.009-.335.012-.616.077l.09.39Zm-.867.035c.236.08.474.06.868-.035l-.093-.389c-.381.091-.523.086-.646.045l-.129.379Zm.189-.53a.966.966 0 0 0-.23.092.34.34 0 0 0-.066.051.237.237 0 0 0-.068.136c-.01.084.028.15.07.19a.29.29 0 0 0 .105.06l.13-.378h.002a.118.118 0 0 1 .036.026.178.178 0 0 1 .01.246c-.009.01-.014.012-.01.01a.61.61 0 0 1 .126-.048l-.105-.386Zm-.12-.459a.203.203 0 0 0-.263.172c-.005.047.008.086.01.092.007.027.02.056.03.078a10.323 10.323 0 0 0 .179.334l.031.055a2.696 2.696 0 0 0 .011.019l.001.001.173-.1.173-.1v-.001l-.003-.004-.008-.015a7.593 7.593 0 0 1-.194-.358c-.01-.02-.011-.026-.01-.023l.003.016a.196.196 0 0 1-.253.216l.12-.382Zm.72.034a1.134 1.134 0 0 1-.338.047 1.555 1.555 0 0 1-.383-.081l-.117.383c.186.056.335.092.482.098.15.006.288-.017.454-.059l-.098-.388Zm6.422 2.643a.201.201 0 0 0-.39.057.905.905 0 0 0-.004.07l.4.016a1.33 1.33 0 0 1 .002-.037l-.004.017a.197.197 0 0 1-.201.148.199.199 0 0 1-.173-.12l.37-.15Zm-.005.201a.4.4 0 0 0 .018-.07.247.247 0 0 0-.01-.125l-.375.14a.17.17 0 0 1-.01-.078c.001-.006.002-.006 0 0l.377.133Zm-2.39-2.705a.204.204 0 0 0-.317.02.209.209 0 0 0-.037.14c0 .013.002.025.003.035l.396-.057c0-.004 0-.003 0 0 0 0 .001.018-.004.042a.197.197 0 0 1-.332.095l.29-.275Zm-.157.366c.012 0 .043 0 .078-.01a.207.207 0 0 0 .119-.301.285.285 0 0 0-.032-.046l-.307.256c.002.003-.005-.005-.012-.018a.193.193 0 0 1 .148-.28h.014l-.008.4Zm-2.323 2.774.195.046v-.004l.004-.014.013-.054a23.64 23.64 0 0 1 .197-.763l-.386-.107a24.122 24.122 0 0 0-.2.776l-.013.054-.004.015v.005l.194.046Zm-.09-.284-.092.2.364.168.092-.201-.364-.167Zm.106-.549-.002.02a5.069 5.069 0 0 1-.076.43 1.469 1.469 0 0 1-.027.098l-.001.002.364.165a1.03 1.03 0 0 0 .053-.173 4.186 4.186 0 0 0 .09-.542h-.4Zm0-.011v.01l.4.003v-.01l-.4-.003Zm.53-1.127-.002-.001-.189.352.003.002.188-.353Zm-.204.343.015.01a.19.19 0 0 0 .04.016c.005.001.035.01.075.006a.2.2 0 0 0 .122-.34l-.284.283a.197.197 0 0 1-.057-.16.2.2 0 0 1 .18-.18c.04-.005.07.005.075.006a.212.212 0 0 1 .038.016l.01.005.001.001-.215.337Zm-.857-.843-.115.163h.001l.002.002.008.005.029.02.103.074.32.224c.23.162.477.335.509.355l.215-.337-.003-.002-.011-.007a7.182 7.182 0 0 1-.153-.106 185.93 185.93 0 0 1-.646-.454l-.104-.073a.191.191 0 0 0-.03-.02l-.007-.006-.002-.002-.116.164Zm.16.163.032-.106-.383-.115-.032.106.383.115Zm.841.308a12.34 12.34 0 0 1-.553-.267 2.861 2.861 0 0 1-.26-.15.392.392 0 0 1-.052-.04c-.002-.002.006.005.015.022a.172.172 0 0 1 .01.127l-.384-.115a.228.228 0 0 0 .017.169.31.31 0 0 0 .055.075.741.741 0 0 0 .114.093c.082.055.19.116.3.173.22.116.47.23.571.277l.167-.364Zm.052.024-.052-.024-.167.364.03.014.01.004.002.001.177-.359Zm-2.998.308.047-.015a.219.219 0 0 0 .106-.073.205.205 0 0 0-.05-.3.317.317 0 0 0-.082-.037c-.071-.022-.228-.054-.496-.11l-.08.393c.284.058.41.084.457.099.014.005-.001.002-.022-.013a.195.195 0 0 1-.042-.28c.025-.031.052-.045.057-.048a.141.141 0 0 1 .011-.005l.004-.002-.004.002a.764.764 0 0 1-.014.004l.108.385Zm-.265.075.27-.077-.119-.382-.26.074.109.385Zm.001 0-.11-.385.11.385Zm-.324.091.323-.091-.108-.385-.324.091.11.385Zm-.512.143.511-.143-.107-.385-.512.143.108.385Zm-.23-.314-.018.071.388.1.018-.07-.387-.101Zm.334-.628a.202.202 0 0 0-.167.088.558.558 0 0 0-.04.085 7.427 7.427 0 0 0-.127.458l.389.093a7.043 7.043 0 0 1 .114-.417l.005-.012-.003.006a.177.177 0 0 1-.04.05.198.198 0 0 1-.13.049v-.4Zm.52.099a43.57 43.57 0 0 0-.496-.098l-.024-.001v.4l-.015-.001H10.3a11.552 11.552 0 0 1 .13.025c.087.017.203.04.33.067l.082-.392Zm-1.103.486-.053.19.386.107.053-.19-.386-.107Zm.066-.224a11.41 11.41 0 0 1-.064.219l.382.117.067-.226-.385-.11Zm.198.224a.199.199 0 0 1-.197-.17.171.171 0 0 1 0-.042.133.133 0 0 1 .013-.046l.358.179a.264.264 0 0 0 .025-.147.201.201 0 0 0-.2-.174v.4ZM9.25 3.9c-.005.005 0 0 .031-.023a30.303 30.303 0 0 1 .402-.295 76.814 76.814 0 0 1 .421-.305l.003-.002-.007.004-.014.007a.204.204 0 0 1-.02.008.195.195 0 0 1-.064.01v-.4c-.034 0-.059.01-.064.011a.203.203 0 0 0-.06.032 76.29 76.29 0 0 0-.835.61l-.057.042.264.301Zm-.014-.38-.117.029-.017.004a.181.181 0 0 1 .082.01.198.198 0 0 1 .1.298l-.332-.222a.201.201 0 0 0 .145.311c.029.003.054 0 .058 0a4.514 4.514 0 0 0 .183-.043l-.102-.388Zm.386-.11c-.114.03-.29.082-.39.11l.11.385c.102-.03.273-.079.381-.107l-.101-.387Zm.204-.054-.206.055.104.386.206-.055-.104-.386Zm4.031 2.06.066-.218-.382-.116-.066.217.382.116Zm-.17.83c.042-.318.095-.574.171-.833l-.384-.112c-.082.28-.14.558-.183.895l.397.05Zm-.164.5c.047-.079.085-.146.111-.228.027-.08.04-.165.054-.272l-.397-.05a1.058 1.058 0 0 1-.037.197.692.692 0 0 1-.073.145l.342.207Zm-.11.204c0 .003.001-.002.009-.018l.026-.053.077-.137-.346-.201c-.028.049-.059.103-.084.151a.928.928 0 0 0-.063.138l.382.12Zm-.48-.376c.003.092.006.171.01.234.003.06.008.118.018.163.004.017.014.064.047.107a.211.211 0 0 0 .273.055c.054-.031.082-.08.09-.093a.624.624 0 0 0 .035-.07l-.367-.16a.725.725 0 0 1-.008.019l-.003.006.002-.003a.166.166 0 0 1 .051-.046.19.19 0 0 1 .245.05c.024.031.028.06.025.049a.858.858 0 0 1-.009-.1 9.586 9.586 0 0 1-.009-.224l-.4.013Zm.102-1.225a4.798 4.798 0 0 0-.102 1.228l.4-.019a4.394 4.394 0 0 1 .093-1.125l-.39-.084Zm.809-.436a.23.23 0 0 0-.193-.128.322.322 0 0 0-.13.02.702.702 0 0 0-.19.11.807.807 0 0 0-.295.433l.39.086a.418.418 0 0 1 .152-.204.322.322 0 0 1 .077-.048c.007-.003-.006.004-.033.002a.171.171 0 0 1-.139-.097l.36-.174Zm.068.14-.069-.141-.36.176.07.14.359-.176Zm-3.735.706a.81.81 0 0 1 .038.138.128.128 0 0 1-.004.054l.39.091a.525.525 0 0 0 .01-.198 1.155 1.155 0 0 0-.056-.213l-.378.128Zm-.159-.753c.003.183.077.51.159.753l.379-.128A2.716 2.716 0 0 1 10.418 5l-.4.007Zm.265.041a.948.948 0 0 1 .05-.115c.006-.01.004-.003-.008.009a.17.17 0 0 1-.05.036.19.19 0 0 1-.235-.062.162.162 0 0 1-.022-.042c-.003-.01-.003-.015-.002-.002a.904.904 0 0 1 .002.128l.4.008a1.6 1.6 0 0 0-.003-.175.393.393 0 0 0-.016-.083.24.24 0 0 0-.032-.064.212.212 0 0 0-.11-.08.216.216 0 0 0-.221.06.354.354 0 0 0-.052.073 1.455 1.455 0 0 0-.073.162l.372.147Zm-.192.86c0-.19.01-.312.035-.429.026-.117.07-.238.154-.423l-.366-.163a2.581 2.581 0 0 0-.178.5 2.308 2.308 0 0 0-.045.515h.4Zm.025.407-.002-.009a1.45 1.45 0 0 1-.014-.123 3.948 3.948 0 0 1-.009-.275h-.4c0 .11.004.216.01.304.006.08.015.166.034.224l.381-.121Zm-.08-.026c-.014 0-.007 0 .006.002a.14.14 0 0 1 .067.04c.018.017.023.032.021.028a.398.398 0 0 1-.012-.039l-.385.111a.778.778 0 0 0 .028.082c.01.026.029.063.062.097.079.08.178.08.213.08v-.4Zm.08 0h-.08v.4h.08v-.4Zm.2.53v-.33h-.4v.33h.4Zm-.24.531a.222.222 0 0 0 .195-.115.332.332 0 0 0 .036-.124c.007-.062.008-.158.008-.291h-.4c0 .141-.001.21-.005.245v.005c0-.002.003-.014.012-.03a.178.178 0 0 1 .154-.09v.4Zm.213-.06a2.837 2.837 0 0 1-.042-.106c-.01-.027-.01-.031-.009-.024a.17.17 0 0 1-.056.144.175.175 0 0 1-.079.043c-.016.003-.027.003-.027.003v-.4c-.015 0-.098-.002-.167.061a.231.231 0 0 0-.067.205.531.531 0 0 0 .03.107c.012.034.029.074.049.122l.368-.156Zm.363 1.05s-.006-.01-.01-.028a.192.192 0 0 1 .028-.161.197.197 0 0 1 .214-.079.163.163 0 0 1 .045.02c.008.005.002.001-.028-.027a5.006 5.006 0 0 1-.46-.533 1.381 1.381 0 0 1-.152-.242l-.369.154c.042.1.12.217.2.326a5.387 5.387 0 0 0 .504.583.643.643 0 0 0 .093.078c.008.005.03.018.06.027.014.004.142.037.222-.08a.203.203 0 0 0 .028-.171.26.26 0 0 0-.018-.048l-.357.181Zm-.498-1.968c-.03.292.046.676.145 1.025.102.356.238.705.351.94l.36-.174a5.824 5.824 0 0 1-.326-.875c-.097-.342-.153-.664-.132-.877l-.398-.04Zm.057-.419a4.929 4.929 0 0 0-.057.418l.398.04c.016-.157.039-.325.049-.37l-.39-.088Zm6.026.887a.715.715 0 0 0 .048-.206.702.702 0 0 0-.03-.205l-.388.099c.018.07.019.083.018.09a.34.34 0 0 1-.026.091l.378.131Zm-.016.047.016-.046-.377-.133-.018.053.38.126Zm0 0-.38-.125.38.125Zm0 0-.38-.126.38.127Zm-.177.373a.704.704 0 0 0 .114-.197c.026-.063.048-.13.063-.175l-.38-.126c-.015.047-.033.1-.053.148a.642.642 0 0 1-.042.083l.298.267Zm-.483.044c.004.007.01.019.018.03a.259.259 0 0 0 .047.056.218.218 0 0 0 .248.028.379.379 0 0 0 .092-.073l.078-.085-.297-.268a3.025 3.025 0 0 1-.076.082l-.002.002.003-.003a.176.176 0 0 1 .11-.029.18.18 0 0 1 .134.075l-.004-.006-.35.19Zm-.116-1.4a2.99 2.99 0 0 0-.032.752c.018.24.064.487.147.645l.354-.186c-.044-.082-.085-.26-.102-.49a2.599 2.599 0 0 1 .026-.646l-.393-.074Zm.381-.83a.201.201 0 0 0-.181.113 1.214 1.214 0 0 0-.04.105 6.203 6.203 0 0 0-.16.613l.393.074a5.87 5.87 0 0 1 .164-.613L16 5.37a.197.197 0 0 1-.173.103v-.4Zm.238.385a8.88 8.88 0 0 0-.037-.213.334.334 0 0 0-.008-.032c-.002-.005-.007-.02-.016-.036a.201.201 0 0 0-.176-.105v.4a.2.2 0 0 1-.175-.102c-.008-.015-.012-.028-.013-.03l-.002-.006a7.989 7.989 0 0 1 .031.186l.396-.062Zm.19.97c-.055-.215-.157-.73-.19-.967l-.396.056c.035.25.14.78.2 1.011l.387-.1Zm-7.582-.263L8.5 5.58l-.383.112.171.585.384-.113Zm-.631-.462c.003.025.01.046.012.054a8.266 8.266 0 0 0 .21.473l.026.056.008.016.002.004v.001l.181-.086.18-.086v-.002l-.002-.004a10.558 10.558 0 0 0-.034-.07 19.715 19.715 0 0 1-.16-.35 1.662 1.662 0 0 1-.03-.073c-.002-.005.003.006.005.025l-.398.042Zm.158-.233-.069.045.22.334.068-.045-.22-.334Zm1.413 1.218c.07 0 .137-.003.189-.008a.617.617 0 0 0 .077-.012.268.268 0 0 0 .056-.019.203.203 0 0 0 .118-.185h-.4a.197.197 0 0 1 .108-.175.155.155 0 0 1 .027-.01l-.026.003a1.632 1.632 0 0 1-.15.006v.4Zm-.24 0h.24v-.4h-.24v.4Zm-.654.01.657-.01-.006-.4-.657.01.006.4Zm.322-.565c-.106.044-.208.086-.283.119a1.942 1.942 0 0 0-.142.07.254.254 0 0 0-.032.024c-.004.004-.045.04-.062.1l.387.104a.195.195 0 0 1-.056.092c-.01.01-.017.014-.018.015l.006-.003.077-.036.275-.115-.152-.37Zm-.018.008.188.353-.188-.353Zm.148-.062-.13.054.153.37.13-.054-.153-.37Zm.749.121c-.04-.051-.095-.07-.108-.075a.464.464 0 0 0-.066-.018 1.465 1.465 0 0 0-.138-.019c-.1-.01-.227-.017-.35-.024l-.021.4c.123.006.242.013.331.022.046.005.079.01.099.014.01.002.012.003.009.001a.176.176 0 0 1-.07-.053L9.92 6.2Zm.133.264a.21.21 0 0 0-.017-.082.704.704 0 0 0-.04-.074 1.585 1.585 0 0 0-.074-.105l-.318.242a1.19 1.19 0 0 1 .065.096l-.003-.007a.164.164 0 0 1-.01-.036.194.194 0 0 1-.003-.034h.4Zm-.915-.005.1.005.02-.4-.1-.005-.02.4Zm-.542-.078c.039.03.081.039.088.04a1.79 1.79 0 0 0 .16.02c.082.007.187.013.294.018l.02-.4a12.289 12.289 0 0 1-.367-.024l-.011-.002.012.004a.176.176 0 0 1 .044.024l-.24.32Zm.85-.512-.77.156.08.392.77-.156-.08-.392Zm.293-.06-.293.06.08.392.293-.06-.08-.391Zm-.415.64c.13-.054.264-.11.368-.16.051-.023.1-.047.138-.07a.503.503 0 0 0 .096-.074.221.221 0 0 0 .046-.086l-.385-.107a.18.18 0 0 1 .052-.085l-.012.007a1.503 1.503 0 0 1-.105.054 9.413 9.413 0 0 1-.351.151l.153.37Zm-.906.538.171.27.338-.215-.172-.27-.337.215Zm-.073-.439c.03.073.041.12.041.331h.4c0-.226-.01-.339-.074-.488l-.367.157Zm.1-.046a.197.197 0 0 1-.157-.079.09.09 0 0 1-.002-.002.074.074 0 0 1 .004.007 2.007 2.007 0 0 1 .053.118l.37-.153a2.395 2.395 0 0 0-.084-.18.219.219 0 0 0-.06-.07.204.204 0 0 0-.125-.041v.4Zm.108.159.058-.222.016-.056.001-.004-.008.018a.194.194 0 0 1-.061.069.2.2 0 0 1-.115.036v-.4a.2.2 0 0 0-.19.134 26.405 26.405 0 0 0-.089.323l.388.102Zm0 .002-.387-.106.386.106Zm-.119.446.119-.448-.387-.102c-.034.128-.074.283-.118.445l.386.105Zm-.198.725.198-.725-.386-.105-.198.724.386.106Zm-.045-.212-.079-.029-.138.376.08.029.137-.376Zm.38.202a5.02 5.02 0 0 0-.22-.125 1.459 1.459 0 0 0-.162-.078l-.133.377.031.015c.02.01.047.023.076.04.06.031.132.072.202.113l.206-.342Zm.208.13a.174.174 0 0 1 .049.007l-.008-.004a3.708 3.708 0 0 1-.25-.135l-.204.345a4.102 4.102 0 0 0 .296.158l.04.015c.006.002.039.014.077.014v-.4Zm-.152-.088a.992.992 0 0 1 .026.182c0 .007 0-.018.026-.047a.143.143 0 0 1 .1-.047v.4a.262.262 0 0 0 .2-.089.31.31 0 0 0 .071-.17.978.978 0 0 0-.034-.32l-.39.091Zm-.064-.48c.003.141.031.355.064.484l.388-.099a2.158 2.158 0 0 1-.052-.393l-.4.008Zm-.005-.232.005.232.4-.009-.005-.232-.4.009Zm5.494 1.012a2.732 2.732 0 0 1-.32-.836l-.393.077c.065.33.185.639.365.957l.348-.198Zm.108.51a.201.201 0 0 0 .046-.213 1.48 1.48 0 0 0-.048-.104 5.59 5.59 0 0 0-.106-.194l-.347.2a5.24 5.24 0 0 1 .122.227c.003.006.002.004 0-.001a.192.192 0 0 1-.008-.074.199.199 0 0 1 .057-.124l.284.282Zm-.559.086c.037.02.072.024.08.025a.615.615 0 0 0 .09 0 1.652 1.652 0 0 0 .292-.054.23.23 0 0 0 .09-.05l-.269-.297a.184.184 0 0 1 .041-.028l.008-.003a1.22 1.22 0 0 1-.212.035h-.002a.081.081 0 0 0 .012 0l.02.004a.187.187 0 0 1 .045.018l-.195.35Zm-.375-.725c.052.143.116.297.172.419a2.675 2.675 0 0 0 .116.22c.006.01.014.021.024.032a.21.21 0 0 0 .052.047l.217-.336c.023.015.036.03.036.031l.003.003a2.353 2.353 0 0 1-.084-.165 5.422 5.422 0 0 1-.16-.388l-.376.137Zm-.205-.93a.366.366 0 0 0-.006.103c.002.028.006.059.01.09a4.97 4.97 0 0 0 .2.737l.377-.137a4.558 4.558 0 0 1-.181-.662.687.687 0 0 1-.007-.054c0-.017.002-.007-.003.013l-.39-.09Zm.142-.336a4.895 4.895 0 0 0-.087.187.965.965 0 0 0-.056.152l.392.084.005-.015.026-.062c.022-.05.05-.111.08-.17l-.36-.176Zm.107-.224-.108.225.36.173.109-.225-.36-.173Zm.401.33-.02-.26-.4.033.021.259.4-.033Zm.06.448a3.908 3.908 0 0 1-.06-.447l-.399.03c.011.147.039.372.068.504l.39-.087Zm1.688.134a.71.71 0 0 1 .05.028c.011.006.011.008.007.003a.136.136 0 0 1-.037-.108l.397.047a.264.264 0 0 0-.082-.226.636.636 0 0 0-.152-.1l-.183.356Zm-.412-.021.105.17.002-.001.01-.006a1.628 1.628 0 0 1 .164-.084.706.706 0 0 1 .128-.045c.044-.01.035.003.005-.012l.18-.358a.41.41 0 0 0-.268-.02 1.097 1.097 0 0 0-.206.069 2.003 2.003 0 0 0-.205.104l-.014.009-.004.002-.001.001.104.17Zm.375.278c.035 0 .06.01.069.014.01.004.016.009.016.009l-.016-.015a1.773 1.773 0 0 1-.263-.373l-.36.174a2.146 2.146 0 0 0 .34.482c.02.02.043.041.068.059.015.01.07.05.146.05v-.4Zm.101-.129a3.39 3.39 0 0 1-.184.148c-.004.002-.004.002 0 0a.149.149 0 0 1 .018-.008.186.186 0 0 1 .065-.011v.4a.212.212 0 0 0 .102-.026 1.114 1.114 0 0 0 .099-.067c.046-.035.103-.082.161-.133l-.26-.303Zm.215.084c.01 0 .013.002.01 0 0 0-.018-.004-.04-.02a.167.167 0 0 1-.055-.184c.007-.018.011-.015-.017.015-.024.025-.06.06-.113.106l.262.302a1.96 1.96 0 0 0 .143-.135.466.466 0 0 0 .099-.145.248.248 0 0 0 .012-.139.233.233 0 0 0-.087-.137.34.34 0 0 0-.176-.062l-.038.399Zm-.26-.288c-.002.028-.015.143.083.224a.26.26 0 0 0 .103.051c.025.007.05.01.07.012l.045-.397-.016-.002a.169.169 0 0 1 .11.124c.005.023.003.038.003.033l-.397-.045Zm-.085.81.069-.047-.228-.329-.069.048.228.329Zm-.951.344a.21.21 0 0 0 .194.033 2.124 2.124 0 0 0 .118-.049 9.194 9.194 0 0 0 .639-.327l-.227-.33v.001c-.002 0-.002.001-.003.002a.479.479 0 0 1-.038.021 10.98 10.98 0 0 1-.602.297c-.008.004-.01.004-.006.004l.02-.005a.19.19 0 0 1 .038-.003c.01 0 .065.002.117.044l-.25.312Zm.075-.74a29.808 29.808 0 0 0-.136.492.85.85 0 0 0-.013.068.221.221 0 0 0 .005.07.2.2 0 0 0 .052.095l.284-.282a.2.2 0 0 1 .057.157l-.001.01.005-.023.029-.11c.025-.094.062-.224.103-.367l-.385-.11Zm.157-.244-.129.185.329.228.128-.185-.328-.228Zm.391.008a1.536 1.536 0 0 1-.08-.022c-.005-.003-.003-.003.002.001a.102.102 0 0 1 .028.034l-.354.186a.33.33 0 0 0 .17.148c.05.02.105.033.14.042l.094-.389Zm.271.126a.408.408 0 0 0-.15-.092c-.043-.015-.09-.026-.12-.034l-.096.389c.037.008.06.014.078.021.02.007.015.009.005-.001l.283-.283Zm.153.153-.153-.153-.283.283.153.153.283-.282Zm-1.381.098a17.661 17.661 0 0 1-.146.426v-.002l.005-.008.016-.024.313.25c.016-.02.025-.04.026-.042a17.782 17.782 0 0 0 .166-.476l-.38-.124Zm.187.25a.215.215 0 0 1 .052-.106.149.149 0 0 1 .008-.01l.003-.003h.001-.001l-.005.004a.123.123 0 0 1-.028.01.174.174 0 0 1-.213-.157c0-.009.001-.006-.005.015l.382.119a.462.462 0 0 0 .023-.126.246.246 0 0 0-.068-.18.226.226 0 0 0-.218-.058.31.31 0 0 0-.11.056.618.618 0 0 0-.216.378l.395.058Zm-.297.126a.192.192 0 0 1 .284.02.154.154 0 0 1 .016.025c.005.012.002.011-.001-.015a.652.652 0 0 1-.001-.159l-.397-.052a.99.99 0 0 0 .002.267.465.465 0 0 0 .033.127c.007.014.033.07.097.106a.209.209 0 0 0 .25-.037l-.283-.282Zm-2.724.174a.204.204 0 0 0 .035-.047.296.296 0 0 0 .025-.054l.034-.088a8.23 8.23 0 0 0 .087-.256l-.38-.123a7.943 7.943 0 0 1-.111.316l-.006.014.003-.005a.19.19 0 0 1 .03-.04l.283.283Zm-.355.008c.04.02.082.037.123.047.02.004.048.01.08.009a.22.22 0 0 0 .167-.08l-.313-.25a.188.188 0 0 1 .136-.07l.022.001a.194.194 0 0 1-.036-.014l-.18.357Zm-.242-.318c.015.06.035.13.08.191a.434.434 0 0 0 .16.126l.183-.355c-.038-.02-.03-.02-.021-.008.004.005.004.006 0-.001a.49.49 0 0 1-.014-.05l-.388.097Zm.056-.402c-.028.048-.069.115-.08.195-.01.078.011.153.024.206l.389-.095a.911.911 0 0 1-.014-.063c-.002-.01 0-.006-.002.004-.001.01-.004.013 0 .006a.781.781 0 0 1 .029-.053l-.346-.2Zm.473-.37a.77.77 0 0 0-.472.368l.344.204a.372.372 0 0 1 .224-.183l-.096-.388Zm.373.265a.22.22 0 0 0 .01-.134.208.208 0 0 0-.106-.137.222.222 0 0 0-.099-.024.406.406 0 0 0-.087.01 3.071 3.071 0 0 0-.09.02l.094.39a.807.807 0 0 1 .077-.018c.021-.005.015-.002 0-.002a.18.18 0 0 1-.079-.02.192.192 0 0 1-.098-.127c-.01-.041-.003-.074-.002-.08l.004-.012.376.134Zm-.076.228.052-.157.016-.048.004-.012-.368-.157c-.007.016-.02.055-.032.09l-.052.158.38.126Zm-.049.146.049-.146-.38-.126-.048.146.38.126Zm.29-.127c.037.158.11.348.205.535l.356-.18a2.078 2.078 0 0 1-.17-.444l-.39.09Zm.04-.085a.129.129 0 0 1-.053-.03c-.017-.015-.022-.03-.021-.027a2.001 2.001 0 0 1 .034.138l.392-.08a1.132 1.132 0 0 0-.061-.22.31.31 0 0 0-.07-.103.271.271 0 0 0-.115-.063l-.107.385Zm.06.079a2.21 2.21 0 0 1 .047-.143l-.009.012a.142.142 0 0 1-.1.048h-.018l.02.005.106-.386c-.023-.006-.073-.02-.126-.018a.255.255 0 0 0-.185.09.423.423 0 0 0-.071.13c-.015.041-.03.091-.048.148l.384.114Zm-.086.276c.03-.092.061-.195.085-.275l-.382-.117-.085.273.382.12Zm0 .001-.382-.12v.001l.382.12Zm0 .001-.382-.12.381.12Zm-.05.158.05-.159-.382-.119-.05.159.383.119Zm-.063.203.064-.203-.382-.119-.064.204.382.118Zm.119-.2-.27-.055-.08.392.269.055.08-.391Zm.384.069a6.17 6.17 0 0 1-.385-.069l-.079.393c.142.028.334.065.422.074l.042-.398Zm.14.016-.138-.016-.046.398.137.015.046-.397Zm-.34.016.137.273.358-.18-.137-.273-.358.18Zm.833-.637-.274-.132-.174.36.274.132.174-.36Zm-.058.45.121-.138-.3-.264-.121.137.3.265Zm-.128.194a.82.82 0 0 1 .127-.193l-.298-.267c-.08.089-.17.227-.206.325l.377.135Zm-.108.214c.029-.028.045-.063.048-.067a1.923 1.923 0 0 0 .06-.146l-.377-.136a1.548 1.548 0 0 1-.04.1l.002-.004a.177.177 0 0 1 .024-.03l.283.283Zm-.684-.937c0 .044.01.091.018.13.01.04.024.086.039.132a3.758 3.758 0 0 0 .24.554c.018.033.042.07.069.1.01.013.039.043.082.063a.208.208 0 0 0 .243-.05l-.297-.267a.192.192 0 0 1 .22-.047.167.167 0 0 1 .05.035 2.26 2.26 0 0 1-.126-.25 3.376 3.376 0 0 1-.101-.263 1.303 1.303 0 0 1-.03-.101c-.007-.03-.007-.04-.007-.036h-.4Zm.702-.054a3.134 3.134 0 0 0-.354-.151.352.352 0 0 0-.162-.017.224.224 0 0 0-.186.222h.4c0 .02-.005.065-.039.108a.176.176 0 0 1-.134.066.08.08 0 0 1-.01 0l.013.003c.048.015.14.054.301.13l.171-.361Zm1.094.75c-.024 0-.186.012-.346.024l.032.4.22-.018.094-.006v-.4Zm-.73-.105c.139.084.303.198.425.29.062.048.108.086.134.11.016.015.014.015.006.004a.19.19 0 0 1-.03-.102.196.196 0 0 1 .175-.196l.04.398a.204.204 0 0 0 .166-.29.23.23 0 0 0-.021-.037.443.443 0 0 0-.064-.07c-.04-.038-.1-.085-.164-.135a5.905 5.905 0 0 0-.458-.313l-.209.34Zm-.085-.08a.196.196 0 0 1-.074-.014l.002.001.034.02c.032.017.075.043.122.072l.212-.34a4.198 4.198 0 0 0-.21-.12.248.248 0 0 0-.02-.007c-.001 0-.03-.011-.066-.011v.4Zm.031.052a2.557 2.557 0 0 1 .09-.093l-.004.003a.172.172 0 0 1-.044.025.195.195 0 0 1-.073.014v-.4a.202.202 0 0 0-.126.043 2.876 2.876 0 0 0-.138.138l.295.27Zm-.175.304a.668.668 0 0 1 .174-.302l-.292-.273a1.058 1.058 0 0 0-.275.501l.393.074Zm-.016.083.016-.082-.393-.076-.016.082.393.076Zm.085-.222-.27-.016-.023.4.269.015.024-.399Zm.548-.008c-.162.01-.412.015-.55.008l-.021.4a6.3 6.3 0 0 0 .596-.009l-.025-.399Z"/><path fill="#0091C8" d="M19.569 10.892v3.22H6.588v-3.417c.013.054.211.121.352.176.256.095.275.095.524-.082.34-.238.55-.232.934.027.576.39.73.396.902.055.128-.266.415-.266.908.007.21.116.428.204.492.204.058 0 .198-.109.307-.238.243-.3.384-.28 1.01.109.506.32.678.34.73.075.07-.334.127-.389.421-.389.18.007.448.089.723.225.237.123.48.218.524.218.052 0 .11-.095.135-.211a.565.565 0 0 1 .172-.307c.173-.116.352-.068.915.239.563.3.723.273.723-.13 0-.122.121-.204.306-.204.058 0 .295.123.531.28.512.327.652.327.697-.008.045-.34.256-.347.806-.04.41.238.869.335.869.191Z"/><path stroke="#fff" stroke-linecap="round" stroke-linejoin="round" stroke-width=".5" d="M6.636 10.812c.013.054.147.136.287.19.255.096.274.096.523-.081.338-.24.549-.232.931.027.574.389.727.395.9.054.127-.266.414-.266.905.007.21.116.428.205.491.205.058 0 .198-.11.306-.239.243-.3.383-.28 1.008.11.504.32.676.34.727.074.07-.334.128-.388.421-.388.179.006.447.088.721.225.236.122.478.218.523.218.051 0 .108-.096.134-.212a.565.565 0 0 1 .172-.306c.172-.116.35-.069.912.238.561.3.72.273.72-.13 0-.122.122-.204.307-.204.057 0 .293.123.53.28.51.327.65.327.695-.007.044-.341.255-.348.803-.041.409.239.791.32.791.177"/></g><defs><clipPath id="a"><rect width="20" height="15" fill="#fff" rx="2"/></clipPath></defs></svg>