<svg xmlns="http://www.w3.org/2000/svg" width="20" height="15" fill="transparent" viewBox="0 0 20 15"><g clip-path="url(#a)"><mask id="b" width="20" height="15" x="0" y="0" maskUnits="userSpaceOnUse" style="mask-type:luminance"><path fill="#fff" d="M0 0h20v15H0z"/></mask><g mask="url(#b)"><path fill="#2E42A5" fill-rule="evenodd" d="M0 0v15h20V0H0Z" clip-rule="evenodd"/><mask id="c" width="20" height="15" x="0" y="0" maskUnits="userSpaceOnUse" style="mask-type:luminance"><path fill="#fff" fill-rule="evenodd" d="M0 0v15h20V0H0Z" clip-rule="evenodd"/></mask><g mask="url(#c)"><path fill="#5EAA22" fill-rule="evenodd" d="M12.943 7.032s.057.643-.07 1.007c-.125.364-.19.575-.19.343 0-.233-.088-.418-.16-.418-.07 0-.015.231-.086.231-.072 0-.319.04-.319-.095 0-.136-.032.363.128.407.16.045-.078.183-.184.14 0 0 .437.143.608.265 0 0 .514.646.995.567 0 0-.655-.227-.54-.662.116-.435.54-.497.54-.497s.199.067.193.242c-.006.175.145-.055.145-.055s.025-.222-.002-.276c-.027-.054.456-.158.486-.387 0 0-.493.023-.527-.036-.034-.058.153-.15.094-.264-.058-.115-.928.651-.928.651s.3-.521.3-.801-.076-.471-.3-.471c-.224 0-.183.109-.183.109Zm4.53.153h.002c.032-.031.232-.217.4-.07.182.16-.093.315-.093.315s.129.125.276.125c.147 0 .183-.125.183-.125s.01.279.49.385c0 0 .17-.247 0-.383 0 0 .202-.042.187-.206 0 0-.166.057-.284-.074-.119-.131-.35-.191-.517-.161-.426-.155-.618.149-.644.194Z" clip-rule="evenodd"/><path fill="#96877D" fill-rule="evenodd" d="M14.569 8.593s.495.938.185 1.132c-.31.194 1.473.056 1.64 0 .168-.056-.034-.352-.22-.434-.186-.082-.951-.355-1.155-.561-.204-.206-.08-.28.085-.483.164-.203.771-.285.771-.475s.385-.974.654-1.033c.27-.059.124-.152.062-.152s-.434.386-.575.316c-.141-.07-.158-.064 0-.233.158-.168.278-.362.068-.223-.209.14-.554.36-.72.36-.166 0-.756-.075-.683.096.073.171.104.468.423.669.318.2.18.347-.085.54-.265.194-.45.48-.45.48Z" clip-rule="evenodd"/><path fill="#FFD018" d="m17.856 7.352-.944 1.906s-.028.538.647.18c.675-.36.648-.614.843-.614.194 0 .256-.108.256-.108l-.13-.103s-.014-.187.068-.23c0 0-.161-.089-.184-.014-.023.075-.137-.156-.073-.156 0 0-.142.231-.172.322 0 0-.205-.084-.195-.474.01-.39-.116-.709-.116-.709Zm-4.493-.302s-.48.113-.429.23c.052.117.128-.003-.107.138 0 0-.413.322-.504.287-.09-.035.064.081.064-.287s-.24-.068 0-.314.324-.054.44-.195c.115-.141.012-.066.325-.066s.21.207.21.207Zm1.467 1.894s-1.346 1.065-1.615 1.144c-.27.08.553-.021.754-.162.2-.14.86-.982.86-.982Z"/><path fill="#5EAA22" fill-rule="evenodd" d="M17.497 10.812s.13.839-.207.756a10.146 10.146 0 0 1-.478-.125s.124.39.3.39c0 0 .302.591.186.778 0 0 .519-.424.435-.76-.084-.337.134.055.134.055s.19.093.329-.01c.138-.105-.002-.058-.14-.256-.138-.197-.104-.751-.524-1.038-.42-.287-.517-.278-.517-.278s-.31-.509-.124-.475c0 0 1.327.458 1.362.575.034.117.386.096.21-.24-.176-.335-1.124-.538-1.237-.632-.113-.095-.008-.454-.211-.532-.203-.078-.757-.633-.756-.9 0-.268-.26-.394-.487-.394-.227 0-.654-.066-.834-.066-.18 0-.348.304-.174.304s.025.568-.266.692c-.292.125-.517.303-.85.303-.333 0 .47.29.6.175.127-.114.085-.284.516-.478.43-.193.841-.308.79-.154-.053.154.08.412.283.319.203-.093.268-.329.268-.165 0 .165.31 1.009.549 1.338.237.33.843.818.843.818Z" clip-rule="evenodd"/><path fill="#FFD018" d="M14.666 7.73s-.158.253 0 .253.412 0 .257-.127c-.154-.127-.257-.127-.257-.127Zm.528-.007s0 .169.11.169.206.168.206 0c0-.169.152-.113-.082-.169-.234-.055-.234 0-.234 0Zm.673.039s-.105.08-.053.222c.053.143.172.425 0 .425-.171 0-.313.102-.179.102.135 0 .374.101.374 0 0-.102.097.167.097 0v-.346c0-.099.097-.127 0-.265s-.239-.138-.239-.138Zm.243.981s.22.696.34.786c.12.09.173.846.226.928.052.082.766.497.766.72 0 .222.22-.171.11-.392-.11-.22-.456-.69-.705-.792-.25-.102-.218-.35-.27-.524-.052-.175.31.14 0-.255s-.302-.183-.214-.183c.087 0 .174-.047.087-.108s-.34-.18-.34-.18Zm-2.329 1.436s-.713 1.268-.84 1.334c-.128.066-.223.079-.288 0-.065-.079-.072.212 0 .291.072.08.287.08.407-.062 0 0 .02.357.205.627.187.269.264.194.264.347 0 .152.045.353.101.353.057 0 .101.48 0 .48-.1 0 .234.039.38-.081s.209-.211.178-.211c-.032 0-.407-.199-.407-.34 0-.14-.252-.25-.252-.459 0-.208-.13-.456-.13-.555 0-.099.112.038.232-.055.12-.094.15-.335.15-.335s-.188.128-.252.064c-.063-.064-.261-.19-.13-.406.13-.216.383-.992.383-.992Z"/><path fill="#5EAA22" fill-rule="evenodd" d="M15.018 6.177s-.256.115-.17.285c.085.17.115.245.17.207.055-.037.438-.108.352-.3-.086-.192-.266-.192-.266-.192h-.086Z" clip-rule="evenodd"/><path fill="#FFD018" d="M15.905 6.085s-.338-.15-.225 0c.112.15.256.23.36.23.103 0 .318-.031.21-.092-.107-.06-.345-.138-.345-.138Z"/><path fill="#5EAA22" fill-rule="evenodd" d="M12.572 9.992c.002-.008-.008-.015-.015-.008-.07.066-.282.292-.192.488.107.234.213.315.213.315s.066.357.2.454c0 0 .18-.009.19-.287 0 0 .306-.09.396.102 0 0-.06.022-.06.186 0 .163.139.34.139.34s.064-.564.349-.928c.285-.364.367-.436.367-.436v-.41s-.59.485-.716.887c0 0-.297.01-.418-.041-.12-.052.15-.136 0-.32-.151-.183-.082.259-.247.138-.26-.072-.223-.383-.206-.48Z" clip-rule="evenodd"/><path fill="#5EAA22" fill-rule="evenodd" d="M13.859 9.638h3.024v1.86s-.246 1.52-1.563 2.269c0 0-1.276-.76-1.461-2.27v-1.86Z" clip-rule="evenodd"/><mask id="d" width="4" height="5" x="13" y="9" maskUnits="userSpaceOnUse" style="mask-type:luminance"><path fill="#fff" fill-rule="evenodd" d="M13.859 9.638h3.024v1.86s-.246 1.52-1.563 2.269c0 0-1.276-.76-1.461-2.27v-1.86Z" clip-rule="evenodd"/></mask><g mask="url(#d)"><path fill="#58A5FF" fill-rule="evenodd" d="m15.297 9.537-1.322 2.76 1.792-1.638 1.234 2.058v-3.18l-1.234 1.018-.47-1.018Z" clip-rule="evenodd"/><path fill="#FFD018" d="M15.255 11.527a.098.098 0 0 1 .197 0v1.774a.099.099 0 0 1-.197 0v-1.774Z"/><path fill="#FFD018" d="M14.913 11.965a.097.097 0 1 1 0-.195h.89c.053 0 .097.043.097.097a.097.097 0 0 1-.098.098h-.89Zm.585 1.474-.086.07c-.127-.155-.243-.23-.345-.23-.15 0-.272-.126-.372-.365l.102-.043c.085.202.177.297.27.297.142 0 .285.092.43.27Z"/><path fill="#FFD018" fill-rule="evenodd" d="M14.595 12.532h-.001v.541l.001.001.404-.167v-.002l-.404-.373Z" clip-rule="evenodd"/><path fill="#FFD018" d="m15.319 13.439.086.07c.127-.155.242-.23.344-.23.15 0 .273-.126.373-.365l-.103-.043c-.084.202-.176.297-.27.297-.142 0-.284.092-.43.27Z"/><path fill="#FFD018" fill-rule="evenodd" d="M16.221 12.532h.002v.541l-.001.001-.404-.167v-.002l.403-.373Z" clip-rule="evenodd"/><path fill="#fff" d="M15.155 10.732h.394v.592h-.394z"/></g><path fill="#2E42A5" d="M0 0h11v9H0z"/><mask id="e" width="11" height="9" x="0" y="0" maskUnits="userSpaceOnUse" style="mask-type:luminance"><path fill="#fff" d="M0 0h11v9H0z"/></mask><g mask="url(#e)"><path fill="#F7FCFF" d="M-1.253 8.125 1.223 9.21l10.083-8.03 1.306-1.614-2.647-.363-4.113 3.46-3.31 2.332-3.795 3.129Z"/><path fill="#F50100" d="m-.914 8.886 1.261.63L12.143-.583h-1.77L-.915 8.886Z"/><path fill="#F7FCFF" d="M12.503 8.125 10.306 9.52-.056 1.18-1.362-.434l2.647-.363 4.113 3.46 3.31 2.332 3.795 3.129Z"/><path fill="#F50100" d="m12.418 8.67-1.261.63-5.023-4.323-1.489-.483-6.133-4.922H.283l6.13 4.805 1.628.58 4.377 3.714Z"/><mask id="f" width="13" height="11" x="-1" y="-1" fill="#000" maskUnits="userSpaceOnUse"><path fill="#fff" d="M-1-1h13v11H-1z"/><path fill-rule="evenodd" d="M6 0H5v4H0v1h5v4h1V5h5V4H6V0Z" clip-rule="evenodd"/></mask><path fill="#F50100" fill-rule="evenodd" d="M6 0H5v4H0v1h5v4h1V5h5V4H6V0Z" clip-rule="evenodd"/><path fill="#F7FCFF" d="M5 0v-.938h-.938V0H5Zm1 0h.938v-.938H6V0ZM5 4v.938h.938V4H5ZM0 4v-.938h-.938V4H0Zm0 1h-.938v.938H0V5Zm5 0h.938v-.938H5V5Zm0 4h-.938v.938H5V9Zm1 0v.938h.938V9H6Zm0-4v-.938h-.938V5H6Zm5 0v.938h.938V5H11Zm0-1h.938v-.938H11V4ZM6 4h-.938v.938H6V4ZM5 .937h1V-.938H5V.938ZM5.938 4V0H4.063v4h1.875ZM0 4.938h5V3.063H0v1.874ZM.938 5V4H-.938v1H.938ZM5 4.062H0v1.875h5V4.063ZM5.938 9V5H4.063v4h1.875ZM6 8.062H5v1.876h1V8.062ZM5.062 5v4h1.875V5H5.063ZM11 4.062H6v1.875h5V4.063ZM10.062 4v1h1.876V4h-1.876ZM6 4.938h5V3.063H6v1.874ZM5.062 0v4h1.875V0H5.063Z" mask="url(#f)"/></g></g></g></g><defs><clipPath id="a"><rect width="20" height="15" fill="#fff" rx="2"/></clipPath></defs></svg>