<svg xmlns="http://www.w3.org/2000/svg" width="20" height="15" fill="transparent" viewBox="0 0 20 15"><g clip-path="url(#a)"><mask id="b" width="20" height="15" x="0" y="0" maskUnits="userSpaceOnUse" style="mask-type:luminance"><path fill="#fff" d="M0 0h20v15H0z"/></mask><g mask="url(#b)"><path fill="#EF0000" fill-rule="evenodd" d="M0 0v15h20V0H0Z" clip-rule="evenodd"/><mask id="c" width="20" height="15" x="0" y="0" maskUnits="userSpaceOnUse" style="mask-type:luminance"><path fill="#fff" fill-rule="evenodd" d="M0 0v15h20V0H0Z" clip-rule="evenodd"/></mask><g mask="url(#c)"><path fill="#EF0000" stroke="#F7FCFF" stroke-width="2.5" d="M0 5h-1.25v5h22.5V5H0Z"/></g><path fill="#3D58DB" fill-rule="evenodd" d="M0 0v15l11.25-7.5L0 0Z" clip-rule="evenodd"/><mask id="d" width="12" height="15" x="0" y="0" maskUnits="userSpaceOnUse" style="mask-type:luminance"><path fill="#fff" fill-rule="evenodd" d="M0 0v15l11.25-7.5L0 0Z" clip-rule="evenodd"/></mask><g mask="url(#d)"><path fill="#F7FCFF" fill-rule="evenodd" d="m4.18 8.886-2.295 1.21 1.117-2.433-1.424-1.3 1.758-.065.844-2.2.644 2.2h1.754l-1.17 1.365.931 2.434-2.16-1.211Z" clip-rule="evenodd"/></g></g></g><defs><clipPath id="a"><rect width="20" height="15" fill="#fff" rx="2"/></clipPath></defs></svg>