<svg xmlns="http://www.w3.org/2000/svg" width="20" height="15" fill="transparent" viewBox="0 0 20 15"><g clip-path="url(#a)"><mask id="b" width="20" height="15" x="0" y="0" maskUnits="userSpaceOnUse" style="mask-type:luminance"><path fill="#fff" d="M0 0h20v15H0z"/></mask><g mask="url(#b)"><path fill="#EF0000" fill-rule="evenodd" d="M5 0h15v15H5V0Z" clip-rule="evenodd"/><path fill="#2F8D00" fill-rule="evenodd" d="M0 0h7.5v15H0V0Z" clip-rule="evenodd"/><mask id="c" width="11" height="11" x="2" y="2" maskUnits="userSpaceOnUse" style="mask-type:luminance"><path fill="#fff" fill-rule="evenodd" d="M7.44 12.38c-2.662 0-4.82-2.185-4.82-4.88s2.158-4.88 4.82-4.88c2.663 0 4.822 2.185 4.822 4.88s-2.159 4.88-4.821 4.88Z" clip-rule="evenodd"/></mask><g fill="#FFE017" mask="url(#c)"><path fill-rule="evenodd" d="M7.143 2.5h.625v1.687h-.625V2.5Zm0 8.434h.625V12.5h-.625v-1.566Z" clip-rule="evenodd"/><path d="m2.697 7.752-.175-.448c1.928-.77 3.384-1.266 4.371-1.49a36.706 36.706 0 0 1 4.776-.729l.042.48a36.242 36.242 0 0 0-4.714.72c-.958.216-2.393.706-4.3 1.467Z"/><path d="m11.963 4.79-.142.46c-1.457-.46-2.644-.658-3.557-.597l-.031-.48c.98-.066 2.222.14 3.73.617Zm.504 2.572-.269.398c-.743-.516-1.658-.775-2.752-.775v-.482c1.186 0 2.195.286 3.021.86Z"/><path d="m12.064 7.507.123.465c-1.602.434-3.105.68-4.511.738-1.416.058-3.066-.189-4.951-.74l.132-.462c1.84.537 3.44.777 4.8.72 1.369-.056 2.838-.296 4.407-.721Z"/><path d="m11.882 9.772-.752.772C9.7 9.114 8.44 8.093 7.36 7.479c-1.1-.625-2.533-1.259-4.298-1.9l.362-1.02c1.817.66 3.303 1.317 4.46 1.974 1.175.668 2.505 1.748 3.998 3.24Zm-8.47.438-.285-.387a5.804 5.804 0 0 1 .742-.451c.532-.27 1.065-.438 1.573-.453l.074-.002V9.4l-.06.001c-.428.013-.899.162-1.374.403a5.33 5.33 0 0 0-.67.406Z"/><path d="m3.633 10.377.12-.467c1.587.418 2.811.627 3.665.627.851 0 2.118-.246 3.792-.74l.133.463c-1.714.505-3.02.758-3.925.758-.902 0-2.162-.214-3.785-.642Zm-.619-4.318.755-.77 1.104 1.108-.754.77L3.014 6.06Z"/><path d="m9.272 9.905.562-.924 1.752 1.09-.561.924-1.753-1.09Z"/></g><path fill="#F9E813" fill-rule="evenodd" d="M2.62 7.5c0 2.695 2.158 4.88 4.82 4.88 2.663 0 4.822-2.185 4.822-4.88s-2.159-4.88-4.821-4.88c-2.663 0-4.822 2.185-4.822 4.88Zm9.047.06c0 2.329-1.866 4.217-4.167 4.217-2.301 0-4.167-1.888-4.167-4.217 0-2.329 1.866-4.217 4.167-4.217 2.301 0 4.167 1.888 4.167 4.217Z" clip-rule="evenodd"/><path fill="#fff" d="M4.786 4.49v3.913c.257 1.55 1.125 2.324 2.603 2.324 1.478 0 2.346-.775 2.603-2.324V4.49H4.786Z"/><path fill="#C51918" d="M4.428 4.13h5.922v4.304l-.005.03c-.287 1.72-1.3 2.624-2.956 2.624s-2.67-.905-2.956-2.624l-.005-.03V4.129Z"/><path fill="#F7FCFF" d="M5.783 5.444h3.212V8.22s-.238 1.433-1.606 1.433S5.783 8.22 5.783 8.22V5.444Z"/><path fill="#F9E813" fill-rule="evenodd" d="M5 4.427h.452v.302H5v-.302Z" clip-rule="evenodd"/><path fill="#060101" fill-rule="evenodd" d="M4.762 4.548h.833v.15h-.833v-.15Z" clip-rule="evenodd"/><path fill="#F9E813" fill-rule="evenodd" d="M4.762 4.668h.452v.151h-.452v-.15Zm.476 0h.452v.151h-.452v-.15Zm-.476.362h.301v.452h-.301V5.03Zm.595 0h.301v.452h-.3V5.03Zm-.237 0h.15v.452h-.15V5.03Z" clip-rule="evenodd"/><path fill="#060101" fill-rule="evenodd" d="M4.762 4.91h.833v.15h-.833v-.15Zm0 .36h.833v.151h-.833v-.15Z" clip-rule="evenodd"/><path fill="#F9E813" fill-rule="evenodd" d="M4.881 4.789h.15v.15h-.15v-.15Zm.476 0h.15v.15h-.15v-.15Zm-.237-.121h.15v.302h-.15v-.302Zm2.142-.241h.452v.302h-.452v-.302Z" clip-rule="evenodd"/><path fill="#060101" fill-rule="evenodd" d="M7.024 4.548h.833v.15h-.833v-.15Z" clip-rule="evenodd"/><path fill="#F9E813" fill-rule="evenodd" d="M7.024 4.668h.452v.151h-.452v-.15Zm.476 0h.452v.151H7.5v-.15Zm-.476.362h.301v.452h-.301V5.03Zm.596 0h.3v.452h-.3V5.03Zm-.239 0h.15v.452h-.15V5.03Z" clip-rule="evenodd"/><path fill="#060101" fill-rule="evenodd" d="M7.024 4.91h.833v.15h-.833v-.15Zm0 .36h.833v.151h-.833v-.15Z" clip-rule="evenodd"/><path fill="#F9E813" fill-rule="evenodd" d="M7.143 4.789h.15v.15h-.15v-.15Zm.477 0h.15v.15h-.15v-.15Zm-.239-.121h.15v.302h-.15v-.302Zm2.024-.241h.452v.302h-.452v-.302Z" clip-rule="evenodd"/><path fill="#060101" fill-rule="evenodd" d="M9.167 4.548H10v.15h-.833v-.15Z" clip-rule="evenodd"/><path fill="#F9E813" fill-rule="evenodd" d="M9.167 4.668h.452v.151h-.452v-.15Zm.476 0h.452v.151h-.452v-.15Zm-.476.362h.301v.452h-.301V5.03Zm.595 0h.301v.452h-.301V5.03Zm-.238 0h.15v.452h-.15V5.03Z" clip-rule="evenodd"/><path fill="#060101" fill-rule="evenodd" d="M9.167 4.91H10v.15h-.833v-.15Zm0 .36H10v.151h-.833v-.15Z" clip-rule="evenodd"/><path fill="#F9E813" fill-rule="evenodd" d="M9.286 4.789h.15v.15h-.15v-.15Zm.476 0h.15v.15h-.15v-.15Zm-.238-.121h.15v.302h-.15v-.302Zm-.119 1.928h.452v.301h-.452v-.3Z" clip-rule="evenodd"/><path fill="#060101" fill-rule="evenodd" d="M9.167 6.717H10v.15h-.833v-.15Z" clip-rule="evenodd"/><path fill="#F9E813" fill-rule="evenodd" d="M9.167 6.837h.452v.15h-.452v-.15Zm.476 0h.452v.15h-.452v-.15Zm-.476.361h.301v.452h-.301v-.452Zm.595 0h.301v.452h-.301v-.452Zm-.238 0h.15v.452h-.15v-.452Z" clip-rule="evenodd"/><path fill="#060101" fill-rule="evenodd" d="M9.167 7.078H10v.15h-.833v-.15Zm0 .362H10v.15h-.833v-.15Z" clip-rule="evenodd"/><path fill="#F9E813" fill-rule="evenodd" d="M9.286 6.958h.15v.15h-.15v-.15Zm.476 0h.15v.15h-.15v-.15Zm-.238-.121h.15v.301h-.15v-.3ZM5 6.596h.452v.301H5v-.3Z" clip-rule="evenodd"/><path fill="#060101" fill-rule="evenodd" d="M4.762 6.717h.833v.15h-.833v-.15Z" clip-rule="evenodd"/><path fill="#F9E813" fill-rule="evenodd" d="M4.762 6.837h.452v.15h-.452v-.15Zm.476 0h.452v.15h-.452v-.15Zm-.476.361h.301v.452h-.301v-.452Zm.595 0h.301v.452h-.3v-.452Zm-.237 0h.15v.452h-.15v-.452Z" clip-rule="evenodd"/><path fill="#060101" fill-rule="evenodd" d="M4.762 7.078h.833v.15h-.833v-.15Zm0 .362h.833v.15h-.833v-.15Z" clip-rule="evenodd"/><path fill="#F9E813" fill-rule="evenodd" d="M4.881 6.958h.15v.15h-.15v-.15Zm.476 0h.15v.15h-.15v-.15Zm-.237-.121h.15v.301h-.15v-.3Zm.17 2.478.29-.346.231.193-.29.346-.231-.193Z" clip-rule="evenodd"/><path fill="#060101" fill-rule="evenodd" d="m5.23 9.574.535-.638.115.097-.535.638-.116-.097Z" clip-rule="evenodd"/><path fill="#F9E813" fill-rule="evenodd" d="m5.322 9.652.29-.346.115.097-.29.346-.115-.097Zm.306-.365.29-.346.115.097-.29.346-.115-.097Zm-.03.597.194-.23.346.29-.194.23-.346-.29Zm.383-.456.194-.23.346.29-.194.23-.346-.29Zm-.153.182.097-.115.346.29-.097.116-.346-.29Z" clip-rule="evenodd"/><path fill="#060101" fill-rule="evenodd" d="m5.506 9.807.536-.638.115.096-.536.639-.115-.097Zm.277.233.536-.64.115.098-.536.638-.115-.097Z" clip-rule="evenodd"/><path fill="#F9E813" fill-rule="evenodd" d="m5.49 9.638.097-.115.116.097-.097.115-.116-.097Zm.306-.365.097-.115.116.097-.097.115-.116-.097Zm-.245.105.097-.115.23.194-.096.115-.231-.194Zm3.811-.337.29.346-.23.194-.291-.346.23-.194Z" clip-rule="evenodd"/><path fill="#060101" fill-rule="evenodd" d="m9.116 8.936.536.639-.115.096L9 9.033l.115-.097Z" clip-rule="evenodd"/><path fill="#F9E813" fill-rule="evenodd" d="m9.024 9.014.29.346-.115.097-.29-.347.115-.096Zm.306.365.29.346-.115.097-.29-.347.115-.096Zm-.583-.133.194.23-.346.291-.194-.23.346-.29Zm.383.456.193.23-.346.291-.193-.23.346-.29Zm-.153-.182.096.115-.346.29-.097-.115.347-.29Z" clip-rule="evenodd"/><path fill="#060101" fill-rule="evenodd" d="m8.84 9.169.535.638-.115.097-.536-.638.115-.097Zm-.277.231.535.64-.115.096-.536-.638.116-.097Z" clip-rule="evenodd"/><path fill="#F9E813" fill-rule="evenodd" d="m9.008 9.182.097.116-.116.097-.096-.116.115-.097Zm.306.365.097.115-.115.097-.097-.115.115-.097Zm-.061-.26.097.116-.23.193-.097-.115.23-.194Z" clip-rule="evenodd"/><path fill="#013399" fill-rule="evenodd" d="M7.85 5.753h-.826v.6s.061.311.413.311c.35 0 .412-.31.412-.31v-.601Zm-.469.24a.12.12 0 0 1-.119.121.12.12 0 0 1-.119-.12.12.12 0 0 1 .119-.12.12.12 0 0 1 .12.12Zm-.119.603a.12.12 0 0 0 .12-.12.12.12 0 0 0-.12-.12.12.12 0 0 0-.119.12c0 .066.053.12.119.12Zm.476-.12a.12.12 0 0 1-.119.12.12.12 0 0 1-.119-.12.12.12 0 0 1 .12-.12.12.12 0 0 1 .118.12Zm-.297-.12a.12.12 0 0 0 .119-.121.12.12 0 0 0-.12-.12.12.12 0 0 0-.118.12c0 .066.053.12.119.12Zm.297-.362a.12.12 0 0 1-.119.12.12.12 0 0 1-.119-.12.12.12 0 0 1 .12-.12.12.12 0 0 1 .118.12Zm.112 1.084h-.826v.601s.061.31.413.31c.35 0 .412-.31.412-.31v-.6Zm-.469.241a.12.12 0 0 1-.119.12.12.12 0 0 1-.119-.12.12.12 0 0 1 .119-.12.12.12 0 0 1 .12.12Zm-.119.603a.12.12 0 0 0 .12-.121.12.12 0 0 0-.12-.12.12.12 0 0 0-.119.12c0 .067.053.12.119.12Zm.476-.121a.12.12 0 0 1-.119.12.12.12 0 0 1-.119-.12.12.12 0 0 1 .12-.12.12.12 0 0 1 .118.12Zm-.297-.12a.12.12 0 0 0 .119-.12.12.12 0 0 0-.12-.121.12.12 0 0 0-.118.12c0 .067.053.12.119.12Zm.297-.362a.12.12 0 0 1-.119.12.12.12 0 0 1-.119-.12.12.12 0 0 1 .12-.12.12.12 0 0 1 .118.12Zm1.182-.241h-.825v.601s.062.31.413.31.413-.31.413-.31v-.6Zm-.467.241a.12.12 0 0 1-.12.12.12.12 0 0 1-.118-.12.12.12 0 0 1 .119-.12.12.12 0 0 1 .119.12Zm-.12.603a.12.12 0 0 0 .12-.121.12.12 0 0 0-.12-.12.12.12 0 0 0-.118.12c0 .067.053.12.119.12ZM8.81 7.8a.12.12 0 0 1-.12.12.12.12 0 0 1-.118-.12.12.12 0 0 1 .119-.12.12.12 0 0 1 .119.12Zm-.298-.12a.12.12 0 0 0 .12-.12.12.12 0 0 0-.12-.121.12.12 0 0 0-.119.12c0 .067.053.12.12.12Zm.298-.362a.12.12 0 0 1-.12.12.12.12 0 0 1-.118-.12.12.12 0 0 1 .119-.12.12.12 0 0 1 .119.12Zm-2.032-.24h-.825v.601s.06.31.412.31.413-.31.413-.31v-.6Zm-.468.241a.12.12 0 0 1-.12.12.12.12 0 0 1-.118-.12.12.12 0 0 1 .119-.12.12.12 0 0 1 .119.12Zm-.12.603a.12.12 0 0 0 .12-.121.12.12 0 0 0-.12-.12.12.12 0 0 0-.118.12c0 .067.053.12.119.12Zm.477-.121a.12.12 0 0 1-.12.12.12.12 0 0 1-.118-.12.12.12 0 0 1 .119-.12.12.12 0 0 1 .119.12Zm-.298-.12a.12.12 0 0 0 .12-.12.12.12 0 0 0-.12-.121.12.12 0 0 0-.119.12c0 .067.054.12.12.12Zm.298-.362a.12.12 0 0 1-.12.12.12.12 0 0 1-.118-.12.12.12 0 0 1 .119-.12.12.12 0 0 1 .119.12ZM7.85 8.403h-.826v.601s.061.31.413.31c.35 0 .412-.31.412-.31v-.6Zm-.469.241a.12.12 0 0 1-.119.12.12.12 0 0 1-.119-.12.12.12 0 0 1 .119-.12.12.12 0 0 1 .12.12Zm-.119.603a.12.12 0 0 0 .12-.12.12.12 0 0 0-.12-.121.12.12 0 0 0-.119.12c0 .067.053.12.119.12Zm.476-.12a.12.12 0 0 1-.119.12.12.12 0 0 1-.119-.12.12.12 0 0 1 .12-.121.12.12 0 0 1 .118.12Zm-.297-.121a.12.12 0 0 0 .119-.12.12.12 0 0 0-.12-.121.12.12 0 0 0-.118.12c0 .067.053.12.119.12Zm.297-.362a.12.12 0 0 1-.119.12.12.12 0 0 1-.119-.12.12.12 0 0 1 .12-.12.12.12 0 0 1 .118.12Z" clip-rule="evenodd"/></g></g><defs><clipPath id="a"><rect width="20" height="15" fill="#fff" rx="2"/></clipPath></defs></svg>