<svg viewBox="0 0 20 15" fill="none" xmlns="http://www.w3.org/2000/svg"><path d="M5 0h15v15H5V0Z" fill="#ef0000"/><path d="M0 0h7.5v15H0V0Z" fill="#2f8d00"/><path d="M7.143 2.5h.625v1.687h-.625V2.5ZM7.143 10.934h.625V12.5h-.625v-1.566ZM2.697 7.752l-.175-.448c1.928-.77 3.383-1.266 4.37-1.49a36.709 36.709 0 0 1 4.777-.729l.042.48a36.242 36.242 0 0 0-4.714.72c-.958.216-2.393.706-4.3 1.467Z" fill="#ffe017"/><path d="m11.963 4.79-.142.46c-1.457-.46-2.644-.658-3.557-.597l-.031-.48c.98-.066 2.221.14 3.73.617ZM12.467 7.362l-.27.398c-.742-.516-1.657-.775-2.751-.775v-.482c1.186 0 2.195.286 3.021.86Z" fill="#ffe017"/><path d="m12.064 7.507.123.465c-1.602.434-3.106.68-4.511.738-1.416.058-3.066-.189-4.952-.74l.132-.462c1.84.537 3.44.777 4.8.72 1.37-.056 2.839-.296 4.408-.721Z" fill="#ffe017"/><path d="m11.882 9.772-.752.772C9.7 9.115 8.44 8.094 7.36 7.48c-1.1-.624-2.533-1.258-4.298-1.9l.362-1.02c1.817.66 3.303 1.317 4.46 1.975 1.175.668 2.505 1.747 3.998 3.238ZM3.411 10.21l-.284-.387a5.8 5.8 0 0 1 .742-.451c.531-.27 1.064-.438 1.573-.453l.074-.001V9.4h-.06c-.428.013-.899.162-1.374.403a5.335 5.335 0 0 0-.67.407Z" fill="#ffe017"/><path d="m3.633 10.377.12-.467c1.587.418 2.811.627 3.665.627.851 0 2.118-.246 3.792-.74l.133.463c-1.714.505-3.02.759-3.925.759-.902 0-2.162-.215-3.785-.642ZM3.014 6.059l.754-.77 1.105 1.109-.754.77-1.105-1.109Z" fill="#ffe017"/><path d="m9.272 9.905.562-.924 1.752 1.09-.561.924-1.753-1.09Z" fill="#ffe017"/><path d="M2.619 7.5c0 2.695 2.159 4.88 4.821 4.88 2.663 0 4.822-2.185 4.822-4.88S10.103 2.62 7.44 2.62C4.778 2.62 2.62 4.805 2.62 7.5Zm9.048.06c0 2.33-1.866 4.217-4.167 4.217-2.301 0-4.167-1.888-4.167-4.217 0-2.329 1.866-4.217 4.167-4.217 2.301 0 4.167 1.888 4.167 4.217Z" fill="#f9e813"/><path d="M4.785 4.49v3.914c.258 1.549 1.126 2.323 2.604 2.323 1.478 0 2.346-.774 2.603-2.323V4.49H4.785Z" fill="#fff"/><path d="M4.428 4.13h5.921v4.304l-.005.03c-.286 1.72-1.3 2.624-2.955 2.624-1.656 0-2.67-.904-2.956-2.624l-.005-.03V4.129Z" fill="#c51918"/><path d="M5.783 5.444h3.212V8.22s-.238 1.433-1.606 1.433S5.783 8.22 5.783 8.22V5.444Z" fill="#f7fcff"/><path d="M5 4.428h.452v.3H5v-.3Z" fill="#f9e813"/><path d="M4.762 4.548h.833v.15h-.833v-.15Z" fill="#060101"/><path d="M4.762 4.669h.452v.15h-.452v-.15ZM5.238 4.669h.452v.15h-.452v-.15ZM4.762 5.03h.301v.452h-.301V5.03ZM5.357 5.03h.301v.452h-.3V5.03ZM5.119 5.03h.15v.452h-.15V5.03Z" fill="#f9e813"/><path d="M4.762 4.91h.833v.15h-.833v-.15ZM4.762 5.271h.833v.15h-.833v-.15Z" fill="#060101"/><path d="M4.88 4.79h.152v.15H4.88v-.15ZM5.357 4.79h.15v.15h-.15v-.15ZM5.119 4.669h.15v.3h-.15v-.3ZM7.262 4.428h.452v.3h-.452v-.3Z" fill="#f9e813"/><path d="M7.024 4.548h.833v.15h-.833v-.15Z" fill="#060101"/><path d="M7.024 4.669h.452v.15h-.452v-.15ZM7.5 4.669h.452v.15H7.5v-.15ZM7.024 5.03h.301v.452h-.301V5.03ZM7.619 5.03h.301v.452H7.62V5.03ZM7.38 5.03h.152v.452H7.38V5.03Z" fill="#f9e813"/><path d="M7.024 4.91h.833v.15h-.833v-.15ZM7.024 5.271h.833v.15h-.833v-.15Z" fill="#060101"/><path d="M7.143 4.79h.15v.15h-.15v-.15ZM7.619 4.79h.15v.15h-.15v-.15ZM7.38 4.669h.152v.3H7.38v-.3ZM9.405 4.428h.452v.3h-.452v-.3Z" fill="#f9e813"/><path d="M9.167 4.548H10v.15h-.833v-.15Z" fill="#060101"/><path d="M9.167 4.669h.451v.15h-.451v-.15ZM9.643 4.669h.452v.15h-.452v-.15ZM9.167 5.03h.3v.452h-.3V5.03ZM9.762 5.03h.301v.452h-.301V5.03ZM9.524 5.03h.15v.452h-.15V5.03Z" fill="#f9e813"/><path d="M9.167 4.91H10v.15h-.833v-.15ZM9.167 5.271H10v.15h-.833v-.15Z" fill="#060101"/><path d="M9.286 4.79h.15v.15h-.15v-.15ZM9.762 4.79h.15v.15h-.15v-.15ZM9.524 4.669h.15v.3h-.15v-.3ZM9.405 6.596h.452v.302h-.452v-.302Z" fill="#f9e813"/><path d="M9.167 6.717H10v.15h-.833v-.15Z" fill="#060101"/><path d="M9.167 6.837h.451v.151h-.451v-.15ZM9.643 6.837h.452v.151h-.452v-.15ZM9.167 7.199h.3v.452h-.3v-.452ZM9.762 7.199h.301v.452h-.301v-.452ZM9.524 7.199h.15v.452h-.15v-.452Z" fill="#f9e813"/><path d="M9.167 7.078H10v.151h-.833v-.15ZM9.167 7.44H10v.15h-.833v-.15Z" fill="#060101"/><path d="M9.286 6.958h.15v.15h-.15v-.15ZM9.762 6.958h.15v.15h-.15v-.15ZM9.524 6.837h.15v.302h-.15v-.302ZM5 6.596h.452v.302H5v-.302Z" fill="#f9e813"/><path d="M4.762 6.717h.833v.15h-.833v-.15Z" fill="#060101"/><path d="M4.762 6.837h.452v.151h-.452v-.15ZM5.238 6.837h.452v.151h-.452v-.15ZM4.762 7.199h.301v.452h-.301v-.452ZM5.357 7.199h.301v.452h-.3v-.452ZM5.119 7.199h.15v.452h-.15v-.452Z" fill="#f9e813"/><path d="M4.762 7.078h.833v.151h-.833v-.15ZM4.762 7.44h.833v.15h-.833v-.15Z" fill="#060101"/><path d="M4.88 6.958h.152v.15H4.88v-.15ZM5.357 6.958h.15v.15h-.15v-.15ZM5.119 6.837h.15v.302h-.15v-.302ZM5.29 9.315l.29-.346.23.194-.29.346-.23-.194Z" fill="#f9e813"/><path d="m5.23 9.575.535-.639.115.097-.536.639-.115-.097Z" fill="#060101"/><path d="m5.321 9.652.29-.346.116.097-.29.346-.116-.097ZM5.627 9.288l.29-.347.116.097-.29.346-.116-.096ZM5.598 9.885l.194-.231.346.29-.194.231-.346-.29ZM5.98 9.429l.194-.231.347.29-.194.231-.346-.29ZM5.828 9.611l.097-.115.346.29-.097.116-.346-.29Z" fill="#f9e813"/><path d="m5.506 9.807.536-.638.115.097-.536.638-.115-.097ZM5.783 10.04l.535-.639.116.097-.536.638-.115-.096Z" fill="#060101"/><path d="m5.49 9.639.097-.116.115.097-.096.115-.116-.096ZM5.796 9.274l.097-.116.115.097-.096.116-.116-.097ZM5.551 9.379l.097-.116.23.194-.096.115-.231-.193ZM9.362 9.041l.29.346-.23.194-.291-.346.23-.194Z" fill="#f9e813"/><path d="m9.116 8.936.536.639-.115.097L9 9.033l.115-.097Z" fill="#060101"/><path d="m9.024 9.014.29.346-.115.097-.29-.346.115-.097ZM9.33 9.379l.29.346-.115.097-.29-.347.115-.096ZM8.747 9.246l.194.23-.346.291-.194-.23.346-.29ZM9.13 9.702l.193.23-.346.291-.193-.23.346-.29ZM8.977 9.52l.096.115-.346.29-.097-.115.347-.29Z" fill="#f9e813"/><path d="m8.84 9.169.535.638-.115.097-.536-.638.115-.097ZM8.562 9.401l.536.639-.115.096-.536-.638.115-.097Z" fill="#060101"/><path d="m9.008 9.182.097.116-.115.097-.097-.116.115-.097ZM9.314 9.547l.097.116-.115.097-.097-.116.115-.097ZM9.253 9.287l.097.116-.23.193-.097-.115.23-.194Z" fill="#f9e813"/><path d="M7.849 5.753h-.825v.601s.061.31.412.31c.352 0 .413-.31.413-.31v-.601Zm-.468.241a.12.12 0 0 1-.12.12.12.12 0 0 1-.118-.12.12.12 0 0 1 .119-.12.12.12 0 0 1 .119.12Zm-.12.602a.12.12 0 0 0 .12-.12.12.12 0 0 0-.12-.12.12.12 0 0 0-.118.12c0 .066.053.12.119.12Zm.477-.12a.12.12 0 0 1-.119.12.12.12 0 0 1-.119-.12.12.12 0 0 1 .119-.12.12.12 0 0 1 .12.12Zm-.298-.12a.12.12 0 0 0 .12-.121.12.12 0 0 0-.12-.12.12.12 0 0 0-.119.12c0 .067.054.12.12.12Zm.298-.362a.12.12 0 0 1-.119.12.12.12 0 0 1-.119-.12.12.12 0 0 1 .119-.12.12.12 0 0 1 .12.12ZM7.849 7.078h-.825v.601s.061.31.412.31c.352 0 .413-.31.413-.31v-.6Zm-.468.241a.12.12 0 0 1-.12.12.12.12 0 0 1-.118-.12.12.12 0 0 1 .119-.12.12.12 0 0 1 .119.12Zm-.12.603a.12.12 0 0 0 .12-.12.12.12 0 0 0-.12-.121.12.12 0 0 0-.118.12c0 .067.053.12.119.12Zm.477-.12a.12.12 0 0 1-.119.12.12.12 0 0 1-.119-.12.12.12 0 0 1 .119-.121.12.12 0 0 1 .12.12ZM7.44 7.68a.12.12 0 0 0 .12-.12.12.12 0 0 0-.12-.121.12.12 0 0 0-.119.12c0 .067.054.12.12.12Zm.298-.362a.12.12 0 0 1-.119.12.12.12 0 0 1-.119-.12.12.12 0 0 1 .119-.12.12.12 0 0 1 .12.12ZM8.92 7.078h-.825v.601s.061.31.413.31c.351 0 .412-.31.412-.31v-.6Zm-.468.241a.12.12 0 0 1-.119.12.12.12 0 0 1-.119-.12.12.12 0 0 1 .12-.12.12.12 0 0 1 .118.12Zm-.119.603a.12.12 0 0 0 .12-.12.12.12 0 0 0-.12-.121.12.12 0 0 0-.119.12c0 .067.054.12.12.12Zm.476-.12a.12.12 0 0 1-.119.12.12.12 0 0 1-.119-.12.12.12 0 0 1 .12-.121.12.12 0 0 1 .118.12Zm-.297-.121a.12.12 0 0 0 .119-.12.12.12 0 0 0-.12-.121.12.12 0 0 0-.118.12c0 .067.053.12.119.12Zm.297-.362a.12.12 0 0 1-.119.12.12.12 0 0 1-.119-.12.12.12 0 0 1 .12-.12.12.12 0 0 1 .118.12ZM6.778 7.078h-.826v.601s.062.31.413.31.413-.31.413-.31v-.6Zm-.468.241a.12.12 0 0 1-.12.12.12.12 0 0 1-.119-.12.12.12 0 0 1 .12-.12.12.12 0 0 1 .119.12Zm-.12.603a.12.12 0 0 0 .12-.12.12.12 0 0 0-.12-.121.12.12 0 0 0-.119.12c0 .067.054.12.12.12Zm.477-.12a.12.12 0 0 1-.12.12.12.12 0 0 1-.118-.12.12.12 0 0 1 .119-.121.12.12 0 0 1 .119.12Zm-.298-.121a.12.12 0 0 0 .12-.12.12.12 0 0 0-.12-.121.12.12 0 0 0-.119.12c0 .067.053.12.12.12Zm.298-.362a.12.12 0 0 1-.12.12.12.12 0 0 1-.118-.12.12.12 0 0 1 .119-.12.12.12 0 0 1 .119.12ZM7.849 8.404h-.825v.6s.061.31.412.31c.352 0 .413-.31.413-.31v-.6Zm-.468.24a.12.12 0 0 1-.12.121.12.12 0 0 1-.118-.12.12.12 0 0 1 .119-.12.12.12 0 0 1 .119.12Zm-.12.603a.12.12 0 0 0 .12-.12.12.12 0 0 0-.12-.12.12.12 0 0 0-.118.12c0 .066.053.12.119.12Zm.477-.12a.12.12 0 0 1-.119.12.12.12 0 0 1-.119-.12.12.12 0 0 1 .119-.12.12.12 0 0 1 .12.12Zm-.298-.12a.12.12 0 0 0 .12-.121.12.12 0 0 0-.12-.12.12.12 0 0 0-.119.12c0 .066.054.12.12.12Zm.298-.362a.12.12 0 0 1-.119.12.12.12 0 0 1-.119-.12.12.12 0 0 1 .119-.12.12.12 0 0 1 .12.12Z" fill="#013399"/></svg>