<svg viewBox="0 0 20 15" fill="none" xmlns="http://www.w3.org/2000/svg"><path d="M0 0v15h20V0H0Z" fill="#f7fcff"/><path d="M12.19 7.5a2.19 2.19 0 1 1-4.38 0 2.19 2.19 0 0 1 4.38 0Z" stroke="#272727" stroke-width=".63"/><path d="M0 0v5h20V0H0Z" fill="#f05234"/><path d="M0 10v5h20v-5H0Z" fill="#3d58db"/><path d="M9.17 6.36s-.7.49-.45 1.43c.26.95 1.24.98 1.24.98" stroke="#73be4a" stroke-width=".63"/><path d="M10.73 6.36s.7.49.45 1.43c-.25.95-1.24.98-1.24.98" stroke="#73be4a" stroke-width=".63"/><path d="M10 7.97a.62.62 0 1 0 0-1.25.62.62 0 0 0 0 1.25Z" fill="#fbcd17"/></svg>