<svg xmlns="http://www.w3.org/2000/svg" width="20" height="15" fill="transparent" viewBox="0 0 20 15"><g clip-path="url(#a)"><mask id="b" width="20" height="15" x="0" y="0" maskUnits="userSpaceOnUse" style="mask-type:luminance"><path fill="#fff" d="M0 0h20v15H0z"/></mask><g mask="url(#b)"><path fill="#4857A1" fill-rule="evenodd" d="M0 0v15h20V0H0Z" clip-rule="evenodd"/><mask id="c" width="20" height="15" x="0" y="0" maskUnits="userSpaceOnUse" style="mask-type:luminance"><path fill="#fff" fill-rule="evenodd" d="M0 0v15h20V0H0Z" clip-rule="evenodd"/></mask><g fill-rule="evenodd" clip-rule="evenodd" mask="url(#c)"><path fill="#C51918" d="M0 0v5h20V0H0Z"/><path fill="#F7FCFF" d="M0 10v5h20v-5H0Z"/><path fill="#F6C540" d="m7.16 2.377-.071-.283.195.057v-.004c.824.075 2.1.502 2.337.955.092.176 0 .325-.12.521l-.054.091c-.06.102-.115.2-.166.292-.185.331-.33.59-.55.722l.005.75-3.685-.03-.005-.759c-.188-.141-.323-.382-.492-.683a8.132 8.132 0 0 0-.166-.292l-.054-.09v-.001c-.12-.196-.211-.345-.12-.52.179-.342.988-.673 1.729-.849.145-.052.298-.1.449-.146l.067.048c.059-.008.116-.014.17-.019l.085.19h.3s.181.537.181.836c0 .299-.181.546-.181.546v.206c.031.002.064.006.099.01a.35.35 0 0 1 .005-.057c.018-.098.072-.171.12-.162.05.008.076.095.059.194a.353.353 0 0 1-.012.045c.195.027.413.064.619.102.078-.153.174-.303.266-.447.236-.371.444-.697.25-.892a.547.547 0 0 0-.189-.103 6.008 6.008 0 0 0-.891-.152l-.01-.049-.17-.027Zm1.4 1.8.168.036v.107c.366-.281.624-.905.647-1.109.014-.123-.18-.265-.487-.394.145.275-.05.548-.293.89-.091.129-.19.267-.28.42l.09.017a.34.34 0 0 1 .011-.092c.026-.097.086-.165.135-.152.048.013.066.102.04.199a.335.335 0 0 1-.031.078Zm-1.883-.26v-.23s-.157-.176-.181-.54a2.929 2.929 0 0 1 .068-.723c-.234.03-.48.076-.72.133-.158.044-.284.095-.34.151-.194.195.013.52.25.892.088.14.18.284.258.431.133-.029.267-.055.392-.077a.346.346 0 0 1-.012-.062c-.008-.1.025-.184.075-.189.05-.004.097.073.106.173a.353.353 0 0 1 0 .052l.104-.012Zm-1.07.208a5.616 5.616 0 0 0-.279-.418c-.249-.35-.446-.627-.282-.908-.359.139-.6.29-.586.412.022.193.254.76.587 1.06.023-.007.152-.043.334-.09a.334.334 0 0 1-.035-.076c-.031-.095-.018-.185.03-.2.047-.016.111.049.142.144.01.033.016.065.017.094l.073-.018Z"/><path fill="#2E42A5" d="M7.283 2.191c0 .22-.183.398-.408.398a.403.403 0 0 1-.408-.398c0-.22.183-.398.408-.398.225 0 .408.179.408.398Zm-.408 2.954c.175 0 .317-.081.317-.181 0-.1-.142-.181-.317-.181-.175 0-.317.08-.317.18 0 .1.142.182.317.182ZM5.29 5.1a.136.136 0 1 1-.272 0 .136.136 0 0 1 .272 0Zm3.623 0a.136.136 0 1 1-.272 0 .136.136 0 0 1 .272 0Z"/><path fill="#C5363C" d="M6.196 5.009c0 .075-.102.136-.227.136s-.226-.061-.226-.136c0-.075.101-.136.226-.136s.227.06.227.136Zm1.902 0c0 .075-.102.136-.227.136s-.226-.061-.226-.136c0-.075.101-.136.226-.136s.227.06.227.136Z"/><path fill="#F7FCFF" d="M7.645 3.877c0 .1-.04.18-.09.18-.05 0-.091-.08-.091-.18 0-.1.04-.181.09-.181.05 0 .09.08.09.18Zm-1.363-.028c.03.095.017.185-.03.2-.048.015-.112-.05-.143-.144-.03-.095-.017-.185.03-.2.048-.016.112.049.143.144Zm-1.066.49c.048-.015.061-.104.03-.2-.03-.095-.094-.16-.142-.144-.047.016-.06.105-.03.2.03.096.095.16.142.145ZM8.8 4.218c-.053.085-.13.132-.173.106-.042-.027-.033-.117.02-.202.053-.085.13-.132.172-.106.043.027.034.117-.019.202Z"/><path fill="#fff" d="M6.106 2.37a.153.153 0 1 0-.047-.192.152.152 0 0 0-.219.04.153.153 0 0 0-.25.132.153.153 0 0 0-.27.074.153.153 0 0 0-.27.062.152.152 0 0 0-.235.076.153.153 0 0 0-.22.11.153.153 0 0 0-.183.148.154.154 0 0 0-.181.151c0 .01.001.021.003.031a.154.154 0 0 0-.089.292.154.154 0 0 0 .091.181.154.154 0 0 0 .142.192.153.153 0 1 0 .103-.034.153.153 0 0 0-.04-.26.153.153 0 0 0-.09-.182.153.153 0 0 0 .002-.07.153.153 0 0 0 .184-.148.154.154 0 0 0 .179-.124.154.154 0 0 0 .176-.102.153.153 0 0 0 .158-.013.16.16 0 0 0 .026.056.153.153 0 0 0 .117.244.153.153 0 0 0 .04.26.153.153 0 0 0 .09.181.153.153 0 1 0 .205-.102.153.153 0 0 0-.09-.182A.153.153 0 0 0 5.296 3a.153.153 0 0 0 .027-.21.152.152 0 0 0 0-.18.152.152 0 0 0 .028-.068.153.153 0 0 0 .272-.108.153.153 0 0 0 .248-.013.152.152 0 0 0 .235-.05Zm-.996.272a.152.152 0 0 0 .213-.033.153.153 0 0 0-.124-.063.028.028 0 1 0 0-.056.028.028 0 0 0 0 .056.152.152 0 0 0-.09.03.153.153 0 0 0-.06-.09.154.154 0 0 0 .027.123.152.152 0 0 0-.026.125.153.153 0 0 0 .06-.092Zm0 0a.154.154 0 0 1-.034-.033.154.154 0 0 1 .033-.034.154.154 0 0 1 0 .067Zm.09.21a.153.153 0 0 1-.124-.062.153.153 0 0 1 .247 0 .153.153 0 0 1-.124.062Zm0 0a.028.028 0 1 1 0 .056.028.028 0 0 1 0-.056Zm0-.125a.028.028 0 1 1 0-.056.028.028 0 0 1 0 .056Zm.328.646a.152.152 0 0 0-.205.102.153.153 0 0 0 .205-.102Zm-.09-.182a.152.152 0 0 0-.206.103.153.153 0 0 0 .206-.103ZM5.296 3H5.29a.152.152 0 0 0-.097.034H5.2A.15.15 0 0 0 5.297 3Zm-.815.634h-.006a.152.152 0 0 0-.097.034h.006a.15.15 0 0 0 .097-.034Zm-.04-.26a.153.153 0 0 1-.205.102.153.153 0 0 1 .205-.102Zm-.09-.182a.153.153 0 0 1-.206.103.153.153 0 0 1 .206-.103Zm-.117-.189c.013.06.06.107.119.119a.153.153 0 0 0-.119-.119Zm.303-.029a.153.153 0 0 1-.125-.15V2.82a.153.153 0 0 1 .125.151v.002Zm.179-.124a.153.153 0 0 1-.12-.176.153.153 0 0 1 .12.176Zm.176-.102a.153.153 0 0 1-.077-.185.153.153 0 0 1 .077.185Zm.459-.206a.152.152 0 0 1-.031-.117.152.152 0 0 1 .03.117Zm.24-.19c.002.03.014.059.032.082a.152.152 0 0 0-.033-.082Zm.28.069a.153.153 0 0 1-.031-.201.153.153 0 0 1 .031.201Zm.235-.05a.153.153 0 0 1-.047-.192.153.153 0 0 1 .047.192Zm-1.54.481a.028.028 0 1 0 0-.056.028.028 0 0 0 0 .056ZM4.384 3a.028.028 0 1 0 0-.056.028.028 0 0 0 0 .056Zm-.181.181a.028.028 0 1 0 0-.056.028.028 0 0 0 0 .056Zm.09.181a.028.028 0 1 0 0-.056.028.028 0 0 0 0 .056Zm.091.182a.028.028 0 1 0 0-.057.028.028 0 0 0 0 .057Zm.119.243a.028.028 0 1 1-.056 0 .028.028 0 0 1 .056 0Zm.243-1.059a.028.028 0 1 0 0-.056.028.028 0 0 0 0 .056Zm.214-.089a.028.028 0 1 0 0-.056.028.028 0 0 0 0 .056Zm.511-.163a.028.028 0 1 0 0-.056.028.028 0 0 0 0 .056Zm.272-.11a.028.028 0 1 0 0-.056.028.028 0 0 0 0 .056Zm.226-.035a.028.028 0 1 0 0-.056.028.028 0 0 0 0 .056Zm.227-.056a.028.028 0 1 0 0-.056.028.028 0 0 0 0 .056Zm-.906.906a.028.028 0 1 0 0-.056.028.028 0 0 0 0 .056Zm.09.181a.028.028 0 1 0 0-.056.028.028 0 0 0 0 .056Zm.091.182a.028.028 0 1 0 0-.057.028.028 0 0 0 0 .057Zm3.986.271a.028.028 0 1 0 0-.056.028.028 0 0 0 0 .056Zm-.154-.028a.153.153 0 1 0 .25-.119.153.153 0 0 0 .142-.192.153.153 0 0 0 .09-.18.153.153 0 0 0-.088-.293.154.154 0 0 0-.178-.182.153.153 0 0 0-.183-.147.153.153 0 0 0-.22-.11.153.153 0 0 0-.234-.077.153.153 0 0 0-.27-.062.153.153 0 0 0-.271-.073.154.154 0 0 0-.153-.167.152.152 0 0 0-.097.035.153.153 0 0 0-.219-.041.153.153 0 1 0-.047.192.153.153 0 0 0 .235.05.153.153 0 0 0 .248.013v.014a.153.153 0 0 0 .273.094.152.152 0 0 0 .027.068.152.152 0 0 0 0 .18.152.152 0 0 0 .027.21.153.153 0 0 0-.142.192.153.153 0 0 0-.09.182.153.153 0 1 0 .205.102.153.153 0 0 0 .09-.18.153.153 0 0 0 .04-.262.153.153 0 0 0 .117-.243.152.152 0 0 0 .026-.056.152.152 0 0 0 .158.013.153.153 0 0 0 .176.102.153.153 0 0 0 .179.124.153.153 0 0 0 .184.148.154.154 0 0 0 .002.07.153.153 0 0 0-.09.182.153.153 0 0 0-.04.26.153.153 0 0 0-.147.153Zm-.482-1.144a.152.152 0 0 1-.213-.033.153.153 0 0 1 .214-.034.154.154 0 0 0 0 .067Zm.034-.033a.152.152 0 0 1 .026.125.153.153 0 0 1-.06-.092.154.154 0 0 0 .034-.033Zm0 0a.154.154 0 0 0-.033-.034.153.153 0 0 1 .06-.09.154.154 0 0 1-.027.124Zm-.123-.063a.028.028 0 1 1 0-.056.028.028 0 0 1 0 .056Zm0 .306a.153.153 0 0 1-.124-.062.153.153 0 0 1 .247 0 .153.153 0 0 1-.123.062Zm0 0a.028.028 0 1 1 0 .056.028.028 0 0 1 0-.056Zm0-.125a.028.028 0 1 1 0-.056.028.028 0 0 1 0 .056Zm-.124.748a.153.153 0 0 0-.205-.102.153.153 0 0 0 .205.102Zm.09-.18a.153.153 0 0 0-.205-.104.153.153 0 0 0 .206.103Zm.04-.262A.152.152 0 0 0 8.64 3h-.006a.15.15 0 0 0 .097.034h.006Zm-.913-.663a.153.153 0 0 0 .047-.192.153.153 0 0 0-.047.192Zm.235.05a.153.153 0 0 0 .031-.201.153.153 0 0 0-.031.201Zm.28-.07a.152.152 0 0 1-.032.083.152.152 0 0 1 .033-.082Zm.24.191a.152.152 0 0 0 .031-.117.152.152 0 0 0-.03.117Zm.46.206a.153.153 0 0 0 .076-.185.153.153 0 0 0-.077.185Zm.175.102a.153.153 0 0 0 .12-.176.153.153 0 0 0-.12.176Zm.363.272a.153.153 0 0 0 .119-.119.153.153 0 0 0-.119.119Zm-.059-.3v.002a.153.153 0 0 1-.125.15v-.002c0-.075.054-.137.125-.15Zm.061.37a.152.152 0 0 1 .206.103.153.153 0 0 1-.206-.103Zm-.09.182a.152.152 0 0 1 .205.102.153.153 0 0 1-.205-.102Zm.057.295a.152.152 0 0 1-.096-.035h.006c.036 0 .07.013.096.034h-.006Zm0-.125a.028.028 0 1 0 0-.057.028.028 0 0 0 0 .057Zm.09-.182a.028.028 0 1 0 0-.056.028.028 0 0 0 0 .056Zm.091-.18a.028.028 0 1 0 0-.057.028.028 0 0 0 0 .056ZM9.548 3a.028.028 0 1 0 0-.056.028.028 0 0 0 0 .056Zm-.182-.148a.028.028 0 1 0 0-.056.028.028 0 0 0 0 .056Zm-.181-.124a.028.028 0 1 0 0-.056.028.028 0 0 0 0 .056Zm-.214-.089a.028.028 0 1 0 0-.056.028.028 0 0 0 0 .056Zm-.51-.163a.028.028 0 1 0 0-.056.028.028 0 0 0 0 .056Zm-.273-.11a.028.028 0 1 0 0-.056.028.028 0 0 0 0 .056Zm-.226-.035a.028.028 0 1 0 0-.056.028.028 0 0 0 0 .056Zm-.227-.056a.028.028 0 1 0 0-.056.028.028 0 0 0 0 .056Zm.906.906a.028.028 0 1 0 0-.056.028.028 0 0 0 0 .056Zm-.09.181a.028.028 0 1 0 0-.056.028.028 0 0 0 0 .056Zm-.09.182a.028.028 0 1 0 0-.057.028.028 0 0 0 0 .057Z"/><path fill="#F6C540" d="m6.939 1.346-.135.002v.221h-.247l.003.134h.245v.252l.134-.003v-.249h.244L7.18 1.57h-.241v-.223Z"/><path fill="#C51918" d="M3.615 5.459h6.5v5.52s-.196 2.75-3.25 2.75c-3.053 0-3.25-2.75-3.25-2.75V5.46Z"/><path fill="#E8AA00" d="M5.577 5.65c-.06 0-.151.043-.273.091-.121.049-.249.153-.124.258.124.105.303.335.303.249 0-.086.213-.17.213-.128 0 .042-.066.128.107.128s.263.051.078.051-.205.085-.325.085c-.12 0-.376-.085-.376-.136 0-.05.148.248.303.248s.243.146.32.073c.078-.073.069-.073.194-.073s.08-.293.08-.293-.44-.553-.5-.553Zm2.509 0c.06 0 .151.043.273.091.121.049.249.153.124.258-.124.105-.303.335-.303.249 0-.086-.213-.17-.213-.128 0 .042.066.128-.107.128s-.263.051-.078.051.205.085.325.085c.12 0 .376-.085.376-.136 0-.05-.148.248-.303.248s-.243.146-.32.073c-.078-.073-.069-.073-.194-.073s-.08-.293-.08-.293.44-.553.5-.553Z"/><path fill="#F7FCFF" d="M8.882 6.25c.125.29-.83 1.37-.83 1.37h-.107c-.045 0-.128-.11-.23-.244a3.695 3.695 0 0 0-.224-.279c-.148-.16-.07-.293.003-.418a.866.866 0 0 0 .06-.113.543.543 0 0 0 .041-.15c.005-.035.01-.075.042-.166.046-.134.206-.307.318-.428.043-.046.078-.084.097-.11.06-.08.014-.079-.11-.078h-.055c-.166 0-.482.078-.577.169-.094.09-.193.11-.34.11-.145 0-.055.098.078.164-.143.027-.235.266-.288.477-.03-.211-.095-.45-.237-.477.132-.066.222-.164.076-.164-.145 0-.244-.02-.339-.11-.094-.09-.41-.168-.576-.168h-.056c-.124-.002-.17-.002-.11.077.02.026.055.064.098.11.111.12.271.294.317.428.032.091.037.131.042.166.006.037.01.07.042.15a.868.868 0 0 0 .06.113c.072.125.15.259.003.418a3.71 3.71 0 0 0-.225.279c-.101.133-.185.244-.23.244h-.107s-.955-1.08-.83-1.37c.048-.112.126-.218.19-.306.102-.139.17-.232.033-.232-.223 0-1.114.565-1.114 1.838 0 1.273.083 1.998.274 2.505.13.346.01.682-.078.933a1.014 1.014 0 0 0-.077.287c0 .226.351.028.351-.114 0-.068.048.033.098.138.056.116.114.238.114.148 0-.096.056-.198.105-.288a.465.465 0 0 0 .074-.18c0-.048.049-.046.104-.044.07.002.15.005.15-.091 0-.065.025-.078.056-.095.052-.026.12-.062.12-.353 0-.217.044-.14.093-.052.046.08.097.171.125.052.003-.012.031-.062.067-.124.051-.09.117-.206.138-.264a1.98 1.98 0 0 1-.32.647c-.103.13-.28.415-.28.415s.166.092.28 0c.064-.051.069-.003.073.05.004.042.008.086.042.086.021 0 .041.004.06.007a.221.221 0 0 0 .035.004c-.039.098-.073.254.042.15a.775.775 0 0 1 .178-.125c.045-.023.063-.033.063-.081 0-.049.018-.032.046-.006.024.022.056.051.091.051.045 0 .054-.062.068-.152a1.254 1.254 0 0 1 .06-.261c.05-.156.074-.23.13-.032a.673.673 0 0 0 .115.214c.055.077.1.139.066.231l-.047.121c-.06.15-.133.335-.133.48 0 .086-.079.204-.153.315-.086.13-.166.25-.106.298.112.09-.023.39-.137.545-.114.155-.095.344.077.344a.31.31 0 0 1 .192.065c.038.025.073.049.127.049.118 0 .18-.058.18-.058s.073.11.194.11c.12 0 .145-.11.145-.11l.09.11.007-.482v.482l.275-.11s.025.11.146.11c.12 0 .193-.11.193-.11s.063.058.18.058c.054 0 .09-.024.127-.05a.309.309 0 0 1 .192-.064c.172 0 .191-.19.078-.344-.114-.154-.25-.456-.138-.545.06-.049-.02-.168-.106-.298-.074-.11-.152-.229-.152-.315 0-.145-.074-.33-.134-.48l-.047-.12c-.033-.093.011-.155.067-.232a.673.673 0 0 0 .114-.214c.056-.197.08-.124.13.032l.016.05c.025.076.036.15.045.21.013.09.023.153.067.153.035 0 .067-.03.091-.051.029-.026.047-.043.047.006 0 .048.018.058.062.081.038.02.096.05.178.125.115.104.08-.052.043-.15.01 0 .022-.002.035-.004.018-.003.038-.007.06-.007.033 0 .037-.044.041-.086.005-.053.01-.101.073-.05.115.092.28 0 .28 0s-.177-.284-.28-.415a1.98 1.98 0 0 1-.32-.647c.021.058.087.174.139.264.035.062.064.112.066.124.028.12.08.029.125-.052.05-.088.093-.165.093.052 0 .291.069.327.12.353.032.017.057.03.057.095 0 .096.08.093.15.09.054-.001.104-.003.104.044s.034.11.073.18c.05.09.105.193.105.289 0 .09.059-.032.114-.148.05-.105.098-.206.098-.138 0 .142.351.34.351.114 0-.072-.035-.17-.076-.287-.09-.25-.208-.587-.078-.933.19-.507.273-1.232.273-2.505s-.89-1.838-1.114-1.838c-.137 0-.069.093.033.232a1.6 1.6 0 0 1 .19.306Zm-.83 3.73Zm.075 1.18c0-.031.022.005.043.057-.027.001-.043-.01-.043-.056Zm-2.726.057c.026.001.042-.01.042-.056 0-.032-.022.004-.042.056Zm.11-1.209Z"/><path fill="#E8AA00" d="M5.118 12.001c0-.088.225-.291.225-.291v.017c.031.025.232.19.232.272 0 .05-.026.123-.048.185a.46.46 0 0 0-.032.109c0 .014.006.004.018-.016.027-.048.088-.152.172-.082.112.092.11.228.11.314v.015c0 .027 0 .027-.003.014-.008-.027-.032-.114-.107-.114-.11 0-.19.1-.19.1v.17s.014.14.08.07c.065-.07.08.087 0 .087-.04 0-.082.043-.123.085-.04.04-.078.08-.114.08v-.014c-.033-.003-.061-.037-.09-.073-.03-.039-.062-.078-.103-.078-.08 0-.065-.157 0-.087.066.07.08-.07.08-.07v-.17s-.08-.1-.19-.1c-.075 0-.099.087-.107.114-.003.013-.003.013-.003-.014v-.015c0-.086-.001-.222.11-.314.084-.07.145.034.173.082.01.02.017.03.017.016a.367.367 0 0 0-.042-.108c-.03-.062-.065-.134-.065-.184Zm2.989 0c0-.088.225-.291.225-.291v.017c.031.025.232.19.232.272 0 .05-.026.123-.048.185a.46.46 0 0 0-.031.109c0 .014.006.004.017-.016.028-.048.088-.152.172-.082.112.092.111.228.11.314v.015c0 .027 0 .027-.003.014-.008-.027-.032-.114-.107-.114-.11 0-.19.1-.19.1v.17s.015.14.08.07c.066-.07.08.087 0 .087-.04 0-.082.043-.123.085-.04.04-.078.08-.113.08v-.014c-.034-.003-.062-.037-.09-.073-.031-.039-.063-.078-.104-.078-.08 0-.065-.157 0-.087.066.07.08-.07.08-.07v-.17s-.08-.1-.19-.1c-.075 0-.099.087-.106.114-.004.013-.004.013-.004-.014v-.015c0-.086-.001-.222.11-.314.085-.07.145.034.173.082.011.02.017.03.017.016a.367.367 0 0 0-.042-.108c-.03-.062-.065-.134-.065-.184Z"/><path fill="#E8AA00" d="M4.894 11.474c.2 0 .24-.38.24-.38s.169-.175.169-.046c0 .068-.048.155-.084.22-.032.058-.055.1-.03.1h.278c.229 0-.04.106-.164.154a1.368 1.368 0 0 1-.134.044c-.046.013-.09.026-.157.055-.122.053-.175.402-.118.514.057.113-.057.065-.104 0-.026-.036-.045.014-.071.083a.632.632 0 0 1-.086.17c-.074.09-.073.01-.072-.16l.001-.093c0-.151.03-.153.075-.155a.12.12 0 0 0 .082-.026c.065-.052.073-.079.092-.146l.026-.083c.047-.136-.204.078-.275.18-.043.062-.073.069-.118.08a.426.426 0 0 0-.113.038c-.079.04-.057-.039-.031-.135a.694.694 0 0 0 .031-.163c0-.082.05-.061.112-.034.037.015.08.034.12.034.1 0 .153-.043.217-.096l.01-.008c.052-.043-.06-.03-.195-.015l-.14.015c-.103.008-.11.002-.135-.021a.408.408 0 0 0-.128-.078c-.194-.084.124-.048.264 0 .077.027.142.009.219-.012a.782.782 0 0 1 .22-.036Zm3.884 0c-.2 0-.24-.38-.24-.38s-.168-.175-.168-.046c0 .068.047.155.084.22.032.058.055.1.03.1h-.278c-.229 0 .04.106.164.154.056.022.096.033.134.044.046.013.09.026.156.055.123.053.175.402.118.514-.056.113.057.065.104 0 .026-.036.045.014.072.083a.632.632 0 0 0 .086.17c.074.09.073.01.071-.16v-.093c0-.151-.03-.153-.076-.155a.12.12 0 0 1-.082-.026c-.064-.052-.072-.079-.091-.146a1.636 1.636 0 0 0-.027-.083c-.047-.136.205.078.276.18.043.062.073.069.118.08a.426.426 0 0 1 .112.038c.08.04.058-.039.032-.135-.015-.055-.032-.116-.032-.163 0-.082-.049-.061-.112-.034-.037.015-.079.034-.118.034-.102 0-.154-.043-.218-.096a1.173 1.173 0 0 0-.01-.008c-.053-.043.06-.03.194-.015l.14.015c.103.008.11.002.136-.021.019-.017.047-.043.128-.078.193-.084-.125-.048-.264 0-.077.027-.142.009-.22-.012a.782.782 0 0 0-.219-.036Z"/><path fill="#C51918" d="M5.654 7.713h2.422v2.21s-.26 1.1-1.21 1.1c-.952 0-1.212-1.1-1.212-1.1v-2.21Z"/><path fill="#F7FCFF" d="M7.192 7.681h-.634V8.95h-.906v.453h.906v1.63h.634v-1.63h.906V8.95h-.906V7.681Z"/><path fill="#F7FCFF" d="M6.063 8.318c.06 0 .09-.051.058-.096a.06.06 0 0 0-.085-.011A.722.722 0 0 1 6 8.2a.062.062 0 0 0-.038 0c-.015.005-.023-.01-.016-.104.007-.026.043-.042.126-.042.152 0 .215.016.215.03v.225l-.074.067c-.036.032-.01.087.04.087h.034v.171c-.046.037-.088.054-.124.054-.137 0-.213-.051-.216-.111l.002-.04.012.004a.062.062 0 0 0 .039 0l.005-.001c.005-.002.008-.003.01-.002.002.002.001.007 0 .02v.016c0 .028.024.052.056.052.031 0 .057-.022.058-.05.002-.099-.054-.156-.146-.136-.054-.017-.092-.015-.122.019-.022.025-.024.045-.027.118.004.125.137.213.329.213a.34.34 0 0 0 .22-.096.049.049 0 0 0 .017-.037v-.245a.05.05 0 0 0-.022-.04l.006-.006A.049.049 0 0 0 6.4 8.33v-.245c0-.105-.108-.133-.328-.133-.13 0-.215.038-.238.129-.013.155.033.247.147.22.035.01.061.016.08.016Zm1.59-.096c-.031.045-.002.096.058.096.02 0 .046-.005.082-.015.113.026.159-.066.146-.221-.023-.09-.108-.13-.238-.13-.22 0-.328.029-.328.134v.245a.05.05 0 0 0 .017.036l.005.005a.05.05 0 0 0-.022.04v.246c0 .014.006.027.018.037a.34.34 0 0 0 .22.096c.192 0 .324-.088.328-.213-.002-.073-.005-.093-.027-.118-.03-.034-.068-.036-.122-.02-.092-.019-.148.038-.145.137 0 .028.026.05.058.05.03 0 .056-.024.055-.052V8.54l.01.002.005.002a.062.062 0 0 0 .04 0l.011-.005.002.04c-.002.06-.079.11-.215.11-.037 0-.078-.016-.125-.053v-.171h.034c.05 0 .076-.055.04-.087l-.074-.067v-.224c0-.015.063-.03.215-.03.084 0 .12.015.126.041.008.094 0 .11-.015.104a.062.062 0 0 0-.038 0 .722.722 0 0 1-.035.01.06.06 0 0 0-.085.01Zm.192.312h-.003.002ZM7.71 9.948c-.06 0-.09-.05-.057-.096a.06.06 0 0 1 .085-.01.71.71 0 0 0 .035-.01.062.062 0 0 1 .038 0c.014.005.023-.01.015-.104-.006-.026-.042-.043-.126-.043-.152 0-.215.017-.215.031v.224l.074.067c.036.032.01.087-.04.087h-.034v.172c.047.036.088.053.125.053.136 0 .213-.05.215-.11l-.002-.04-.012.004a.062.062 0 0 1-.039 0l-.005-.002c-.005-.001-.007-.002-.01-.001v.036c0 .028-.024.051-.055.052-.032 0-.057-.022-.058-.05-.003-.1.053-.156.145-.137.054-.016.093-.014.122.02.022.024.025.044.027.117-.004.126-.136.213-.328.213a.34.34 0 0 1-.22-.096.049.049 0 0 1-.018-.037v-.245a.05.05 0 0 1 .022-.04l-.005-.005a.049.049 0 0 1-.017-.037v-.245c0-.105.108-.133.328-.133.13 0 .215.039.238.13.013.154-.033.247-.146.22a.312.312 0 0 1-.082.015Zm-1.648 0c.06 0 .09-.05.058-.096a.06.06 0 0 0-.085-.01.71.71 0 0 1-.035-.01.062.062 0 0 0-.038 0c-.015.005-.023-.01-.016-.104.007-.026.043-.043.126-.043.152 0 .215.017.215.031v.224l-.074.067c-.036.032-.01.087.04.087h.034v.172a.21.21 0 0 1-.124.053c-.137 0-.213-.05-.216-.11l.002-.04.012.004a.062.062 0 0 0 .039 0l.005-.002c.005-.001.008-.002.01-.001s.001.006 0 .019v.017c0 .028.024.051.056.052.031 0 .057-.022.058-.05.002-.1-.054-.156-.146-.137-.054-.016-.092-.014-.122.02-.022.024-.024.044-.027.117.004.126.137.213.329.213a.34.34 0 0 0 .22-.096.049.049 0 0 0 .017-.037v-.245a.05.05 0 0 0-.022-.04l.006-.005A.049.049 0 0 0 6.4 9.96v-.245c0-.105-.108-.133-.328-.133-.13 0-.215.039-.238.13-.013.154.033.247.147.22.035.01.061.015.08.015Z"/></g></g></g><defs><clipPath id="a"><rect width="20" height="15" fill="#fff" rx="2"/></clipPath></defs></svg>