<svg viewBox="0 0 20 15" fill="none" xmlns="http://www.w3.org/2000/svg"><path d="M0 0v15h20V0H0Z" fill="#4857A1"/><path d="M0 0v5h20V0H0Z" fill="#c51918"/><path d="M0 10v5h20v-5H0Z" fill="#f7fcff"/><path d="m7.16 2.38-.07-.29.2.06c.82.07 2.1.5 2.33.95.1.18 0 .33-.12.52l-.05.1-.17.29c-.18.33-.33.59-.55.72v.75l-3.68-.03v-.76c-.2-.14-.33-.38-.5-.68l-.16-.3-.06-.09c-.12-.2-.2-.34-.12-.52.18-.34 1-.67 1.73-.85l.45-.14.07.05.17-.02.08.19h.3s.19.53.19.83c0 .3-.19.55-.19.55v.2l.1.01v-.05c.03-.1.08-.17.13-.16.05 0 .07.1.06.19l-.01.05c.19.02.4.06.61.1.08-.16.18-.3.27-.45.24-.37.44-.7.25-.9a.55.55 0 0 0-.19-.1 6 6 0 0 0-.89-.15V2.4l-.18-.02Zm1.4 1.8.17.03v.11c.36-.28.62-.9.65-1.1.01-.13-.19-.27-.5-.4.15.27-.04.54-.28.89-.1.13-.2.26-.28.42l.08.01c0-.02 0-.06.02-.09.02-.1.08-.16.13-.15.05.01.07.1.04.2 0 .03-.02.05-.03.08Zm-1.88-.26v-.23s-.16-.18-.18-.54c-.02-.26.03-.57.06-.73-.23.03-.48.08-.72.14a.87.87 0 0 0-.34.15c-.19.2.02.52.25.89.1.14.18.28.26.43l.4-.08-.02-.06c0-.1.03-.18.08-.19.05 0 .1.08.1.18v.05l.1-.01Zm-1.07.2-.28-.41c-.25-.35-.45-.63-.28-.91-.36.14-.6.29-.59.41.02.2.25.76.59 1.06l.33-.09a.33.33 0 0 1-.03-.07c-.04-.1-.02-.19.03-.2.04-.02.1.04.14.14l.01.1.08-.03Z" fill="#f6c540"/><path d="M7.28 2.2a.4.4 0 0 1-.4.39.4.4 0 0 1-.41-.4c0-.22.18-.4.4-.4.23 0 .41.18.41.4Zm-.4 2.94c.17 0 .31-.08.31-.18 0-.1-.14-.18-.32-.18-.17 0-.31.08-.31.18 0 .1.14.18.31.18Zm-1.6-.04a.14.14 0 1 1-.27 0 .14.14 0 0 1 .27 0Zm3.62 0a.14.14 0 1 1-.27 0 .14.14 0 0 1 .27 0Z" fill="#2e42a5"/><path d="M6.2 5c0 .08-.1.14-.23.14s-.23-.06-.23-.13c0-.08.1-.14.23-.14.12 0 .23.06.23.14Zm1.9 0c0 .08-.1.14-.23.14-.12 0-.23-.06-.23-.13 0-.08.1-.14.23-.14s.23.06.23.14Z" fill="#c5363c"/><path d="M7.64 3.88c0 .1-.04.18-.09.18-.05 0-.09-.08-.09-.18 0-.1.04-.18.1-.18.04 0 .08.08.08.18Zm-1.36-.03c.03.1.02.18-.03.2-.05.01-.11-.05-.14-.15-.03-.09-.02-.18.03-.2.05-.01.11.05.14.15Zm-1.06.49c.04-.02.06-.1.03-.2s-.1-.16-.15-.14c-.04.01-.06.1-.03.2.04.1.1.16.15.14Zm3.58-.12c-.05.08-.13.13-.17.1-.04-.02-.04-.11.02-.2.05-.08.13-.13.17-.1.04.02.03.11-.02.2Z" fill="#f7fcff"/><path d="M6.1 2.37c.03.02.06.03.1.03a.15.15 0 1 0-.14-.22.15.15 0 0 0-.22.04.15.15 0 0 0-.25.13.15.15 0 0 0-.27.07.15.15 0 0 0-.27.07.15.15 0 0 0-.24.07.15.15 0 0 0-.21.11.15.15 0 0 0-.19.15.15.15 0 0 0-.18.15V3a.15.15 0 0 0-.08.3.15.15 0 0 0 .09.18.15.15 0 0 0 .14.19.15.15 0 1 0 .1-.04.15.15 0 0 0-.04-.26.15.15 0 0 0-.09-.18.15.15 0 0 0 0-.07.15.15 0 0 0 .19-.15.15.15 0 0 0 .18-.12.15.15 0 0 0 .17-.1.15.15 0 0 0 .16-.02l.03.06a.15.15 0 0 0 .12.24.15.15 0 0 0 .03.26.15.15 0 0 0 .1.19.15.15 0 1 0 .2-.1.15.15 0 0 0-.1-.19.15.15 0 0 0-.13-.2.15.15 0 0 0 .02-.2.15.15 0 0 0 0-.18.15.15 0 0 0 .03-.07.15.15 0 0 0 .27-.1.15.15 0 0 0 .25-.02.15.15 0 0 0 .24-.05Zm-.99.27a.15.15 0 0 0 .21-.03.15.15 0 0 0-.12-.06.03.03 0 1 0 0-.06.03.03 0 0 0 0 .06.15.15 0 0 0-.1.03.15.15 0 0 0-.05-.1.15.15 0 0 0 .03.13.15.15 0 0 0-.03.12.15.15 0 0 0 .06-.09Zm0 0a.15.15 0 0 1-.03-.03l.03-.03a.15.15 0 0 1 0 .06Zm.09.21a.15.15 0 0 1-.12-.06.15.15 0 0 1 .24 0 .15.15 0 0 1-.12.06Zm0 0a.03.03 0 1 1 0 .06.03.03 0 0 1 0-.06Zm0-.12a.03.03 0 1 1 0-.06.03.03 0 0 1 0 .06Zm.33.64a.15.15 0 0 0-.2.1.15.15 0 0 0 .2-.1Zm-.1-.18a.15.15 0 0 0-.2.1.15.15 0 0 0 .2-.1ZM5.3 3h-.01a.15.15 0 0 0-.1.04c.05 0 .08 0 .1-.03Zm-.82.64a.15.15 0 0 0-.1.04c.04 0 .07-.02.1-.04Zm-.04-.26a.15.15 0 0 1-.2.1.15.15 0 0 1 .2-.1Zm-.09-.18a.15.15 0 0 1-.2.1.15.15 0 0 1 .2-.1ZM4.23 3c.02.06.06.1.12.12A.15.15 0 0 0 4.23 3Zm.3-.03a.15.15 0 0 1-.12-.15c.07.01.13.08.13.15Zm.19-.12a.15.15 0 0 1-.12-.18.15.15 0 0 1 .12.18Zm.17-.1a.15.15 0 0 1-.08-.19.15.15 0 0 1 .08.19Zm.46-.2a.15.15 0 0 1-.03-.13.15.15 0 0 1 .03.12Zm.24-.2c0 .03.02.06.03.08a.15.15 0 0 0-.03-.08Zm.28.07a.15.15 0 0 1-.03-.2.15.15 0 0 1 .03.2Zm.24-.05a.15.15 0 0 1-.05-.2.15.15 0 0 1 .05.2Zm-1.54.48a.03.03 0 1 0 0-.06.03.03 0 0 0 0 .06ZM4.38 3a.03.03 0 1 0 0-.06.03.03 0 0 0 0 .06Zm-.18.18a.03.03 0 1 0 0-.06.03.03 0 0 0 0 .06Zm.1.18a.03.03 0 1 0 0-.05.03.03 0 0 0 0 .05Zm.08.18a.03.03 0 1 0 0-.05.03.03 0 0 0 0 .05Zm.12.25a.03.03 0 1 1-.05 0 .03.03 0 0 1 .05 0Zm.25-1.06a.03.03 0 1 0 0-.06.03.03 0 0 0 0 .06Zm.21-.1a.03.03 0 1 0 0-.05.03.03 0 0 0 0 .06Zm.51-.16a.03.03 0 1 0 0-.05.03.03 0 0 0 0 .05Zm.27-.1a.03.03 0 1 0 0-.06.03.03 0 0 0 0 .06Zm.23-.04a.03.03 0 1 0 0-.06.03.03 0 0 0 0 .06Zm.23-.06a.03.03 0 1 0 0-.05.03.03 0 0 0 0 .05Zm-.91.91a.03.03 0 1 0 0-.06.03.03 0 0 0 0 .06Zm.09.18a.03.03 0 1 0 0-.05.03.03 0 0 0 0 .05Zm.1.18a.03.03 0 1 0 0-.05.03.03 0 0 0 0 .05Zm3.98.27a.03.03 0 1 0 0-.05.03.03 0 0 0 0 .05ZM9.3 3.8a.15.15 0 1 0 .25-.12.15.15 0 0 0 .15-.2.15.15 0 0 0 .09-.18.15.15 0 0 0-.1-.29.15.15 0 0 0-.17-.18.15.15 0 0 0-.18-.15.15.15 0 0 0-.22-.1.15.15 0 0 0-.24-.08.15.15 0 0 0-.27-.07.15.15 0 0 0-.27-.07.15.15 0 0 0-.15-.17.15.15 0 0 0-.1.04.15.15 0 0 0-.22-.04.15.15 0 1 0-.04.19.15.15 0 0 0 .23.05.15.15 0 0 0 .25.01v.02a.15.15 0 0 0 .27.1l.03.06a.15.15 0 0 0 0 .18.15.15 0 0 0 .03.2.15.15 0 0 0-.15.2.15.15 0 0 0-.09.18.15.15 0 1 0 .2.1.15.15 0 0 0 .1-.18.15.15 0 0 0 .04-.26.15.15 0 0 0 .12-.24.15.15 0 0 0 .02-.06.15.15 0 0 0 .16.02.15.15 0 0 0 .18.1.15.15 0 0 0 .17.12.15.15 0 0 0 .19.15.15.15 0 0 0 0 .07.15.15 0 0 0-.09.18.15.15 0 0 0-.04.26.15.15 0 0 0-.15.16Zm-.48-1.15a.15.15 0 0 1-.21-.03.15.15 0 0 1 .21-.03.15.15 0 0 0 0 .06Zm.04-.03a.15.15 0 0 1 .02.12.15.15 0 0 1-.06-.09l.04-.03Zm0 0a.15.15 0 0 0-.04-.03c.01-.04.03-.07.06-.1a.15.15 0 0 1-.02.13Zm-.13-.06a.03.03 0 1 1 0-.06.03.03 0 0 1 0 .06Zm0 .3a.15.15 0 0 1-.12-.06.15.15 0 0 1 .25 0 .15.15 0 0 1-.13.06Zm0 0a.03.03 0 1 1 0 .06.03.03 0 0 1 0-.06Zm0-.12a.03.03 0 1 1 0-.06.03.03 0 0 1 0 .06Zm-.12.75a.15.15 0 0 0-.2-.1.15.15 0 0 0 .2.1Zm.09-.19a.15.15 0 0 0-.2-.1.15.15 0 0 0 .2.1Zm.04-.26a.15.15 0 0 0-.1-.03c.02.02.06.03.1.03Zm-.91-.66a.15.15 0 0 0 .04-.2.15.15 0 0 0-.04.2Zm.23.05a.15.15 0 0 0 .03-.2.15.15 0 0 0-.03.2Zm.28-.07c0 .03-.01.06-.03.08 0-.03.01-.06.03-.08Zm.24.2a.15.15 0 0 0 .03-.13.15.15 0 0 0-.03.12Zm.46.2a.15.15 0 0 0 .08-.19.15.15 0 0 0-.08.19Zm.18.1a.15.15 0 0 0 .12-.18.15.15 0 0 0-.12.18Zm.36.27c.06-.01.1-.06.12-.12a.15.15 0 0 0-.12.12Zm-.06-.3c0 .08-.05.14-.13.15 0-.07.06-.14.13-.15Zm.06.37a.15.15 0 0 1 .2.1.15.15 0 0 1-.2-.1Zm-.09.18a.15.15 0 0 1 .2.1.15.15 0 0 1-.2-.1Zm.06.3a.15.15 0 0 1-.1-.04c.04 0 .08.02.1.04Zm0-.13a.03.03 0 1 0 0-.05.03.03 0 0 0 0 .05Zm.09-.18a.03.03 0 1 0 0-.05.03.03 0 0 0 0 .05Zm.09-.18a.03.03 0 1 0 0-.06.03.03 0 0 0 0 .06ZM9.55 3a.03.03 0 1 0 0-.06.03.03 0 0 0 0 .06Zm-.18-.15a.03.03 0 1 0 0-.06.03.03 0 0 0 0 .06Zm-.19-.12a.03.03 0 1 0 0-.06.03.03 0 0 0 0 .06Zm-.2-.1a.03.03 0 1 0 0-.05.03.03 0 0 0 0 .06Zm-.52-.16a.03.03 0 1 0 0-.05.03.03 0 0 0 0 .05Zm-.27-.1a.03.03 0 1 0 0-.06.03.03 0 0 0 0 .06Zm-.23-.04a.03.03 0 1 0 0-.06.03.03 0 0 0 0 .06Zm-.22-.06a.03.03 0 1 0 0-.05.03.03 0 0 0 0 .05Zm.9.91a.03.03 0 1 0 0-.06.03.03 0 0 0 0 .06Zm-.09.18a.03.03 0 1 0 0-.05.03.03 0 0 0 0 .05Zm-.09.18a.03.03 0 1 0 0-.05.03.03 0 0 0 0 .05Z" fill="#fff"/><path d="M6.94 1.35H6.8v.22h-.24v.13h.24v.25h.14V1.7h.24v-.13h-.24v-.22Z" fill="#f6c540"/><path d="M3.62 5.46h6.5v5.52s-.2 2.75-3.25 2.75c-3.06 0-3.25-2.75-3.25-2.75V5.46Z" fill="#c51918"/><path d="M5.58 5.65c-.06 0-.15.04-.28.1-.12.04-.25.14-.12.25.12.1.3.33.3.25 0-.09.22-.17.22-.13 0 .04-.07.13.1.13.18 0 .27.05.08.05-.18 0-.2.08-.32.08s-.38-.08-.38-.13.15.25.3.25c.16 0 .25.14.32.07.08-.07.07-.07.2-.07.12 0 .08-.3.08-.3s-.44-.55-.5-.55Zm2.51 0c.06 0 .15.04.27.1.12.04.25.14.12.25-.12.1-.3.33-.3.25 0-.09-.21-.17-.21-.13 0 .04.06.13-.11.13-.17 0-.26.05-.08.05.19 0 .2.08.33.08.12 0 .37-.08.37-.13s-.14.25-.3.25c-.15 0-.24.14-.32.07-.08-.07-.07-.07-.2-.07-.12 0-.07-.3-.07-.3s.44-.55.5-.55Z" fill="#e8aa00"/><path d="M8.88 6.25c.13.3-.83 1.37-.83 1.37h-.1c-.05 0-.13-.11-.23-.24-.07-.1-.15-.2-.23-.28-.15-.16-.07-.3 0-.42l.06-.11a.54.54 0 0 0 .05-.15c0-.04 0-.08.04-.17.04-.13.2-.3.31-.43l.1-.1c.06-.09.02-.09-.1-.09h-.06c-.17 0-.49.08-.58.17-.1.1-.2.11-.34.11s-.05.1.08.17c-.15.02-.24.26-.29.47-.03-.2-.1-.45-.24-.47.14-.07.23-.17.08-.17-.15 0-.25-.02-.34-.1-.1-.1-.41-.18-.58-.18h-.05c-.13 0-.17 0-.11.08.02.03.05.07.1.11.1.12.27.3.31.43l.05.17c0 .03 0 .07.04.15.01.03.03.07.06.1.07.13.15.27 0 .43-.08.08-.16.18-.23.28-.1.13-.18.24-.22.24h-.11s-.96-1.08-.83-1.37c.05-.11.12-.22.19-.3.1-.14.17-.24.03-.24-.22 0-1.11.57-1.11 1.84s.08 2 .27 2.5c.13.35.01.69-.08.94-.04.11-.07.21-.07.28 0 .23.35.03.35-.1 0-.08.05.02.1.13.05.12.1.24.1.15 0-.1.07-.2.11-.3a.46.46 0 0 0 .08-.17c0-.05.05-.05.1-.05.07 0 .15.01.15-.09 0-.06.03-.07.06-.1.05-.02.12-.05.12-.34 0-.22.04-.14.1-.06.04.08.09.18.12.06l.06-.13c.05-.09.12-.2.14-.26-.06.25-.22.52-.32.64l-.28.42s.17.1.28 0c.07-.05.07 0 .07.05 0 .04.01.09.05.09h.09c-.04.1-.07.26.04.16.09-.08.14-.1.18-.13.05-.02.06-.03.06-.08s.02-.03.05 0c.02.02.06.05.1.05.04 0 .05-.07.06-.16a1.26 1.26 0 0 1 .06-.26c.05-.15.07-.23.13-.03.03.1.07.16.11.21.06.08.1.14.07.24l-.05.12c-.06.15-.13.33-.13.48 0 .08-.08.2-.15.31-.09.13-.17.25-.1.3.1.09-.03.4-.15.55-.11.15-.1.34.08.34.1 0 .15.03.2.06.03.03.07.05.12.05.12 0 .18-.06.18-.06s.07.11.2.11c.11 0 .14-.1.14-.1l.09.1V13v.48l.28-.1s.03.1.15.1.19-.1.19-.1.06.05.18.05c.05 0 .09-.02.13-.05a.3.3 0 0 1 .19-.06c.17 0 .19-.19.08-.34-.12-.16-.25-.46-.14-.55.06-.05-.02-.17-.1-.3-.08-.1-.16-.23-.16-.31 0-.15-.07-.33-.13-.48l-.05-.12c-.03-.1.01-.16.07-.24a.67.67 0 0 0 .11-.2c.06-.2.08-.13.13.02l.02.05.04.21c.02.1.02.16.07.16.03 0 .07-.03.09-.06.03-.02.05-.04.05.01s.01.06.06.08c.04.02.1.05.18.13.11.1.08-.05.04-.15h.04l.05-.01c.04 0 .04-.05.05-.09 0-.05 0-.1.07-.05.11.1.28 0 .28 0l-.28-.42c-.1-.12-.26-.39-.32-.64.02.06.09.17.14.26l.06.13c.03.12.08.02.13-.06s.1-.16.1.06c0 .29.06.32.11.35.03.02.06.03.06.1 0 .09.08.09.15.08.05 0 .1 0 .1.05s.04.1.08.18c.05.09.1.2.1.29 0 .09.06-.03.12-.15.05-.1.1-.2.1-.14 0 .14.34.34.34.11 0-.07-.03-.17-.07-.28-.1-.25-.21-.59-.08-.93.2-.51.27-1.24.27-2.51 0-1.27-.89-1.84-1.11-1.84-.14 0-.07.1.03.23l.2.31Zm-.83 3.73Zm.08 1.18c0-.03.02 0 .04.06-.03 0-.04-.01-.04-.06Zm-2.73.06c.03 0 .04-.01.04-.06 0-.03-.02 0-.04.06ZM5.51 10Z" fill="#f7fcff"/><path d="M5.12 12c0-.09.22-.29.22-.29v.02c.03.02.24.19.24.27 0 .05-.03.12-.05.18l-.03.11c0 .02 0 0 .01-.01.03-.05.1-.15.18-.08.1.09.1.22.1.31a2.55 2.55 0 0 0 0 .03c0-.03-.03-.12-.1-.12-.11 0-.2.1-.2.1v.17s.02.14.09.07c.06-.07.07.1 0 .1-.05 0-.09.03-.13.08-.04.04-.08.08-.11.08V13c-.04 0-.06-.04-.1-.07-.02-.04-.05-.08-.1-.08-.07 0-.06-.16 0-.09.07.07.08-.07.08-.07v-.17s-.07-.1-.18-.1c-.08 0-.1.1-.11.12v-.03c0-.09 0-.22.1-.31.09-.07.15.03.18.08 0 .02.01.03.01.01 0-.02-.01-.06-.04-.1a.52.52 0 0 1-.06-.19Zm2.98 0c0-.09.23-.29.23-.29v.02c.03.02.23.19.23.27 0 .05-.02.12-.04.18l-.04.11c0 .02.01 0 .02-.01.03-.05.09-.15.17-.08.12.09.12.22.11.31v.03c0-.03-.03-.12-.1-.12-.12 0-.2.1-.2.1v.17s.02.14.08.07c.07-.07.08.1 0 .1-.04 0-.08.03-.12.08-.04.04-.08.08-.11.08V13c-.04 0-.06-.04-.1-.07-.02-.04-.06-.08-.1-.08-.08 0-.06-.16 0-.09.07.07.08-.07.08-.07v-.17s-.08-.1-.19-.1c-.07 0-.1.1-.1.12v-.03c0-.09 0-.22.1-.31.09-.07.15.03.18.08 0 .02.01.03.01.01l-.04-.1a.52.52 0 0 1-.06-.19Z" fill="#e8aa00"/><path d="M4.9 11.47c.2 0 .23-.38.23-.38s.17-.17.17-.04c0 .07-.04.15-.08.22-.03.06-.06.1-.03.1h.28c.23 0-.04.1-.17.15l-.13.05c-.05 0-.1.02-.16.05-.12.05-.17.4-.12.52.06.1-.05.06-.1 0-.03-.04-.04 0-.07.08a.7.7 0 0 1-.09.17c-.07.09-.07 0-.07-.16v-.1c0-.15.03-.15.08-.15.02 0 .05 0 .08-.03a.28.28 0 0 0 .1-.14c0-.02 0-.05.02-.09.04-.13-.2.08-.28.19-.04.06-.07.06-.12.07a.43.43 0 0 0-.1.04c-.09.04-.07-.04-.04-.13a.7.7 0 0 0 .03-.17c0-.08.05-.06.11-.03l.12.03c.1 0 .16-.04.22-.1h.01c.05-.04-.06-.03-.2-.01l-.13.01c-.1 0-.11 0-.14-.02l-.13-.08c-.2-.08.13-.05.27 0 .07.03.14.01.21-.01.07-.02.14-.04.22-.04Zm3.88 0c-.2 0-.24-.38-.24-.38s-.17-.17-.17-.04c0 .07.05.15.08.22.04.06.06.1.03.1h-.27c-.23 0 .04.1.16.15l.13.05c.05 0 .1.02.16.05.12.05.18.4.12.52-.06.1.06.06.1 0 .03-.04.05 0 .07.08.03.05.05.12.09.17.07.09.07 0 .07-.16v-.1c0-.15-.03-.15-.07-.15-.03 0-.06 0-.09-.03a.216.216 0 0 1-.09-.14l-.02-.09c-.05-.13.2.08.27.19.04.06.07.06.12.07l.11.04c.08.04.06-.04.03-.13a.7.7 0 0 1-.03-.17c0-.08-.05-.06-.11-.03a.32.32 0 0 1-.12.03c-.1 0-.15-.04-.22-.1-.06-.04.05-.03.19-.01l.14.01c.1 0 .1 0 .13-.02l.13-.08c.2-.08-.12-.05-.26 0-.08.03-.15.01-.22-.01a.665.665 0 0 0-.22-.04Z" fill="#e8aa00"/><path d="M5.65 7.71h2.43v2.21s-.26 1.1-1.21 1.1c-.96 0-1.22-1.1-1.22-1.1v-2.2Z" fill="#c51918"/><path d="M7.2 7.68h-.64v1.27h-.9v.45h.9v1.63h.63V9.4h.9v-.45h-.9V7.68Z" fill="#f7fcff"/><path d="M6.06 8.32c.06 0 .1-.05.06-.1a.06.06 0 0 0-.08 0L6 8.2h-.04c-.01 0-.02 0-.01-.1 0-.03.04-.04.12-.04.16 0 .22.01.22.03v.22l-.08.07c-.03.03 0 .08.04.08h.04v.18c-.05.03-.09.05-.13.05-.13 0-.2-.05-.21-.11v-.04h.07v.04c0 .02.02.05.05.05.03 0 .06-.02.06-.05 0-.1-.05-.16-.15-.14-.05-.02-.09-.01-.12.02-.02.02-.02.04-.02.12 0 .12.13.21.32.21.08 0 .15-.03.22-.1a.05.05 0 0 0 .02-.03V8.4c0-.01 0-.03-.02-.04a.05.05 0 0 0 .02-.04V8.1c0-.1-.1-.14-.33-.14-.13 0-.21.04-.23.13-.02.16.03.25.14.22l.08.02Zm1.6-.1c-.04.05 0 .1.05.1.02 0 .05 0 .08-.02.12.03.16-.06.15-.22-.02-.09-.1-.13-.24-.13-.22 0-.33.03-.33.14v.24c0 .01 0 .03.02.04a.05.05 0 0 0-.02.04v.25l.02.03c.07.07.15.1.22.1.2 0 .33-.09.33-.21 0-.08 0-.1-.03-.12-.03-.03-.07-.04-.12-.02-.1-.02-.15.04-.15.14 0 .03.03.05.06.05s.06-.03.06-.05v-.04h.07v.04c0 .06-.07.1-.2.1-.05 0-.09 0-.13-.04v-.18h.03c.05 0 .08-.05.04-.08l-.07-.07v-.22c0-.02.06-.03.21-.03.09 0 .12.01.13.04 0 .1 0 .1-.02.1h-.04l-.03.01a.06.06 0 0 0-.09.01Zm.18.31Zm-.13 1.42c-.06 0-.09-.05-.06-.1a.06.06 0 0 1 .09 0l.03-.02h.04c.02 0 .02 0 .02-.1 0-.03-.04-.04-.13-.04-.15 0-.21.01-.21.03v.22l.07.07c.04.03.01.08-.04.08h-.03v.18c.04.03.08.05.12.05.14 0 .21-.05.22-.11v-.04h-.08v.04c0 .02-.03.05-.06.05s-.05-.02-.06-.05c0-.1.06-.16.15-.14.05-.02.1-.01.12.02.02.03.03.05.03.12 0 .12-.14.21-.33.21a.34.34 0 0 1-.22-.1.05.05 0 0 1-.02-.03v-.25L7.4 10h-.01a.05.05 0 0 1-.02-.04v-.24c0-.1.11-.14.33-.14.13 0 .22.04.24.13.01.16-.03.25-.15.22a.31.31 0 0 1-.08.02Zm-1.65 0c.06 0 .1-.05.06-.1a.06.06 0 0 0-.08 0L6 9.82h-.04c-.01 0-.02 0-.01-.1 0-.03.04-.04.12-.04.16 0 .22.01.22.03v.22l-.08.07c-.03.03 0 .08.04.08h.04v.18c-.05.03-.09.05-.13.05-.13 0-.2-.05-.21-.11v-.04h.07v.04c0 .02.02.05.05.05.03 0 .06-.02.06-.05 0-.1-.05-.16-.15-.14-.05-.02-.09-.01-.12.02-.02.03-.02.05-.02.12 0 .12.13.21.32.21.08 0 .15-.03.22-.1a.05.05 0 0 0 .02-.03v-.25c0-.01 0-.03-.02-.04a.05.05 0 0 0 .02-.04v-.24c0-.1-.1-.14-.33-.14-.13 0-.21.04-.23.13-.02.16.03.25.14.22l.08.02Z" fill="#f7fcff"/></svg>