<svg viewBox="0 0 20 15" fill="none" xmlns="http://www.w3.org/2000/svg"><path d="M0 0v15h20V0H0Z" fill="#feca00"/><path d="M0 0v8.75h20V0H0Z" fill="#3ca5d9"/><path d="M0 11.25V15h20v-3.75H0Z" fill="#5a962a"/><path d="M15.05 7.42a2.58 2.58 0 0 1-.11 0l-.38 1.23-.08-1.29-.12-.02-.65 1.11.22-1.27a2.52 2.52 0 0 1-.1-.05l-.9.93.51-1.18a2.44 2.44 0 0 1-.09-.07l-1.09.7.77-1.03a2.49 2.49 0 0 1-.07-.1l-1.22.44 1-.83a2.4 2.4 0 0 1-.06-.1l-1.28.14 1.15-.58-.02-.12-1.28-.15 1.25-.3v-.12l-1.2-.44h1.29c0-.05.02-.09.03-.12l-1.07-.7 1.25.28.06-.1-.88-.93 1.16.56.08-.08-.64-1.11 1 .82.1-.07-.37-1.23.77 1.03.12-.04-.07-1.28.51 1.17.12-.01.23-1.26.23 1.26.12.01.52-1.17-.07 1.28.11.04.78-1.03-.37 1.23.1.07 1-.82-.65 1.11.08.09L18 2.75l-.88.93.06.1 1.26-.29-1.08.71c0 .04.02.08.03.11h1.3l-1.22.45v.12l1.27.3-1.3.15-.01.12 1.16.58-1.3-.15c0 .04-.02.07-.04.1l1 .84-1.23-.44-.07.1.77 1.03-1.09-.7-.09.07.52 1.18-.9-.93-.1.05.22 1.27-.66-1.11-.11.02-.08 1.29-.38-1.23Zm-.08-.91c.87 0 1.58-.7 1.58-1.56 0-.87-.7-1.56-1.58-1.56-.88 0-1.59.7-1.59 1.56 0 .86.71 1.56 1.59 1.56Zm.9-1.52a.9.9 0 1 1-1.78 0 .9.9 0 0 1 1.79 0Z" fill="#ffdc17"/></svg>