<svg viewBox="0 0 20 15" fill="none" xmlns="http://www.w3.org/2000/svg"><path fill="#67bd23" d="M0 0h20v15H0z"/><path d="M9.02 2.55a.92.92 0 0 0-.14.38v.02c0 .1 0 .27.1.15.13-.13.24-.28.22-.4-.03-.12-.1-.28-.18-.15Zm-1.13.28c0-.17.21-.3.27-.3.05 0 0 .15-.1.21-.08.05-.02.08.05.1l.08.04c.08.04-.03.17-.17.2-.13.05-.13-.08-.13-.25Zm-.2.2c-.08.18-.22.53-.1.8l.05.1c.11.24.2.43.4.4.2-.03.3-.4.34-.53v-.02c.03-.1.13-.26.16-.15v.24c0 .1-.02.2 0 .24.03.09.15.48.44.39a.76.76 0 0 0 .33-.25c.07-.07.12-.13.18-.11.05.02.1.08.16.15.08.1.18.23.3.2.17-.02.3-.2.37-.31.02-.03.03-.06.05-.07.05-.07.07-.03.1.02a.5.5 0 0 0 .04.05c.06.07.17.12.25 0 .07-.11.19-.46.04-.4-.16.06-.36.14-.43 0-.08-.15-.28-.61-.18-.61.1 0 .27 0 .24-.16-.04-.17.3.36.37.47l.07.13c.14.25.41.75.47.8.05.04.1.92.12 1.31h-.18c-.24 0-.42.02-.57.04a.96.96 0 0 1-.39 0 1.35 1.35 0 0 0-.17-.03c-.13-.02-.22-.04-.02-.1.06-.03.13-.04.2-.06.27-.07.6-.15.57-.5-.04-.46-.1-.65-.43-.6-.34.07-.44.33-.44.6 0 .2-.03.21-.12.22h-.06l-.05.01c-.18.03-.54.08-.77.41-.22.32-.2-.15-.18-.38v-.09c0-.13-.04-.24-.14-.48l-.01-.01c-.1-.23-.22-.5-.38-.24-.17.25.03.62.1.67.07.06.44.86.08 1.26s-.87.78-1.01.66c-.14-.13-.22-.2-.06-.3l.11-.07c.27-.12.78-.37.68-.9a4.68 4.68 0 0 0-.15-.61c-.03-.1-.04-.13 0-.13h.02c.07 0 .14.01.06-.19-.09-.23-.21-.5-.44-.23-.23.25-.14.41 0 .57.14.16.37.45.1.7l-.22.22c-.14.16-.24.25-.24.16 0-.12-.03-.3-.1-.15a1.7 1.7 0 0 0-.04.1c-.06.15-.13.34-.33.42-.24.1-.77.5-.77.5s-.35.31-.2.29c.17-.03.59-.15.7-.25.12-.1.39-.16.39-.16s.32.6.66.5c.33-.1 1.07-.9 1.07-.9s.46.62.98.66c.52.05.64-.12.5-.23l-.15-.1c-.16-.09-.35-.2-.28-.3.1-.16.3-.2.64-.26l.15-.02c.29-.04.54-.08.61-.33.04-.14.16-.23.24-.29l.04-.02v.09c0 .24 0 1.03-.04 1.12-.03.08.16.03.22-.07s.14-.23.14-.43v-.13c0-.3 0-.9-.05-1.03-.07-.16-.05-.31 0-.27.02.01.16.28.32.58.17.34.37.72.41.77.05.05.07-.08.1-.2a.82.82 0 0 1 .04-.2c.05-.1.1-.17.1 0v.06c0 .2.01.59-.33.81l-.3.21c-.2.13-.3.21-.38.23-.1.03-.09.23.04.23h.04a1 1 0 0 0 1-.56c.3-.57.1-2.34.06-2.78v-.1a.66.66 0 0 0-.04-.12c-.04-.14-.1-.34-.06-.44.04-.08.06-.07.08-.05.02 0 .04.02.07-.02.06-.07.14-.18 0-.36a1.1 1.1 0 0 1-.12-.23c-.07-.14-.11-.25-.2-.14-.13.18-.2.7-.13.96.06.26.34 2.28.17 2.11-.1-.1-.2-.29-.3-.5-.06-.14-.14-.3-.22-.43-.2-.33-.61-1-.5-1.2l.08-.14c.05-.07.07-.1.03-.21a.65.65 0 0 0-.14-.23c-.04-.05-.1-.1-.13-.19-.08-.17-.26-.28-.26-.11 0 .16-.1.32-.15.16-.05-.16-.35-.52-.5-.4-.09.08-.07.13-.05.17.01.02.02.04 0 .07l-.02.04c-.03.06-.06.13-.1.03l-.03-.08c-.05-.14-.11-.34-.31-.15-.24.23-.27.46-.14.6.14.12.34.44.24.59-.1.14-.3.25-.38.1a.76.76 0 0 1-.1-.55c.04-.22.1-.9-.17-.81-.26.07-.23.46-.17.63.06.18.1.47.05.56v.01c-.06.11-.2.4-.35.3-.15-.1-.26-.38-.2-.65.08-.26.03-.68-.18-.55-.22.13-.46.54-.46.75 0 .2-.09.46-.18.3l-.01-.02c-.09-.15-.2-.36-.14-.57.07-.22-.05-.48-.13-.3Zm-4.15-.38c-.01.02 0 .03.02.05.02.03.06.07.1.17.03.08.04.2.05.28 0 .12.01.2.06.1.08-.16.12-.52 0-.6-.12-.08-.2-.04-.23 0Zm1.56.34c-.24 0-.2-.35-.2-.35s0-.03.1-.03c.07 0 .08.04.08.07l.02.04c.01.01.01 0 .01-.02s.01-.06.04-.06c.05 0 .06.05.06.13 0 .09.06.02.06-.05s.07-.08.12-.08c.06 0-.05.35-.3.35ZM3.8 6.8c-.02-.33.05-.65.2-.65.14 0 .14.32.14.32s.08.65.74.68c.66.03 1.1-1.12 1.1-1.12.04-.19.02-.43.02-.43-.04-.09-.06 0-.11.18-.04.16-.1.39-.21.62-.22.5-.68.49-.97.48h-.03c-.29 0-.52-.48-.54-.73-.03-.25.06-.44.06-.44s.22-.24.21.18c0 .41.2.48.57.51.37.03.64-.53.7-.75.06-.21-.3.12-.3.12-.09.09-.3 0-.4-.22-.1-.22.1-.48.27-.67.17-.18.37-.03.37-.03.25.04.35.21.35.21.12.1-.01-.42-.01-.42a7.02 7.02 0 0 1-.24-1.16.5.5 0 0 0-.04.16s.16.7-.07.93c-.11.1-.17.16-.23.17-.07 0-.14-.06-.27-.17-.27-.22-.28 0-.28.27V5.9c0 .17-.1.16-.2.16-.05 0-.1 0-.12.02l.03-.49c.01-.14-.19-.73-.19-.73-.17-.15-.37-.52-.37-.52-.05-.28-.15-.13-.15-.13 0 .2-.06.6-.37.48-.32-.12-.14-1.24-.14-1.24s.12.01.14.3c0 .28.16.5.16.5.08.2.1-.46.1-.46 0-.27.34-.52.34-.52.19-.1.18.33.18.33.1.28 0 .49 0 .49-.02.28.19.14.19.14.14-.01-.11-.81-.11-.81-.12-.28-.05-.54-.05-.54 0-.15.2-.19.2-.19.12.02.13.59.13.59 0 .36.1.68.18.74.09.07-.01-.2-.09-.27-.04-.05-.03-.16-.01-.29l.01-.23c0-.21.13-.11.28 0 .11.09.1.23.1.39l-.01.13c0 .2.1.33.26.46.14.1.14-.06.13-.2v-.05c0-.1-.08-.25-.15-.39a5.67 5.67 0 0 1-.06-.12c-.08-.15-.04-.2.03-.3l.05-.09c.1-.17.29.01.36.17l.01.03-.01-.2c-.04-.12.32-.4.32-.4.23-.05.28.7.28.7.08.26-.2.15-.2.15-.13 0 .15 1.09.15 1.09.02.37.2.18.2.18.14-.06.15.3.15.3.1.14.27-.34.27-.34.13-.18.33.22.33.22.09.13.28-.23.28-.23.11-.07.09.04.05.18a1.1 1.1 0 0 0-.05.25c0 .19-.03.2-.23.3-.22.1-.29-.07-.29-.07-.05-.06-.4.15-.4.15-.13.05-.22-.06-.22-.06-.05-.07-.05.24-.05.64v.2c0 .5-.74 1.1-1.43 1.22A.86.86 0 0 1 3.8 6.8Zm.68-.63c0 .08.02.02.03-.08-.02.02-.03.04-.03.08Zm-.73-.92c.3-.27.5-.22.5-.22s.07 0 .16.1c.08.09-.21.27-.4.33-.14.04-.3.12-.46.2l-.21.1c-.2.1.1-.25.4-.51Zm-.37 1.1s-.3.48-.25.8c.05.3.25.37.39.33.13-.03.2-.34.2-.34s-.1-.21-.2-.1c0 0-.17.08-.14-.12s0-.57 0-.57Zm2-1.16s-.2.06-.1.15c.1.1.24.1.24 0s-.15-.15-.15-.15Zm3.94-.47s-.02.35.22.34c.23 0 .33-.36.28-.36-.06 0-.12.02-.12.09 0 .07-.06.13-.06.05s-.02-.13-.07-.13c-.02 0-.02.04-.03.06 0 .02 0 .03-.01.02l-.02-.04c0-.03-.01-.07-.09-.07-.1 0-.1.04-.1.04Zm2.77-.5c-.24.01-.22-.34-.22-.34s0-.03.1-.03c.08 0 .09.03.1.06l.01.04c.01.02.01 0 .02-.02 0-.02 0-.06.03-.06.05 0 .06.05.06.13s.07.02.07-.05.05-.08.11-.09c.06 0-.04.35-.28.36ZM6.65 6c-.11-.05-.1-.1 0-.18.1-.1.21.04.33.18.1.13.03.23-.02.32l-.03.05c-.06.1-.22.09-.16 0s-.02-.3-.12-.37Zm7.93-.5c-.1.09-.1.13 0 .19.11.05.06.3 0 .38-.06.1.1.19.17.08v-.02c.06-.1.13-.22.08-.4-.04-.19-.15-.32-.25-.23Zm1.38-2.03c-.11-.06-.1-.1 0-.19s.2.04.25.23c.04.18-.02.3-.08.4l-.01.02c-.06.1-.22.01-.16-.07.05-.1.1-.33 0-.39Zm-4.1-.7c-.1.09-.11.13 0 .19.1.06.23.42.17.5-.06.1.1.11.16 0 .05-.1.11-.35 0-.5-.12-.15-.24-.28-.34-.19ZM10.44 4.9c-.13.06-.21.1-.14.14.07.05.24.06.24 0v-.03c0-.07.01-.16-.1-.11ZM9.16 6.1c.14 0 .25-.03.25-.03l.35.02c.15 0 .13.14-.06.22-.16.08-.17.13-.2.24v.03c-.03.12-.05.2-.18.17-.13-.04-.26-.36-.33-.52V6.2c-.06-.12 0-.12.09-.11h.08ZM7.47 3.02c.05 0 .12-.33 0-.38-.12-.04-.46.02-.42.15.01.05.05.1.08.14.07.1.14.2.05.3-.13.16-.53.5-.6.54l-.02.01c-.09.05-.24.14-.13.14l.14.01c.1 0 .22.02.29 0 .05-.02.13-.11.21-.21.08-.1.17-.2.24-.25.16-.11.2-.33.16-.36l-.06-.03c-.07-.03-.18-.08-.14-.15.04-.1.08-.03.08 0 0 .04.07.09.12.09Zm-.09 1.1-.12.04s-.07 0-.1-.08a.2.2 0 0 1 .02-.13c.02-.05.04-.1-.02-.1-.1 0-.17.17-.2.27s.12.21.2.27c.08.05.19-.06.28-.15.09-.1-.06-.12-.06-.12Zm5.73 2.93c-.12-.16-.07-.53.04-.76.09-.17.09-.08.08.1v.18c0 .21.06.29.15.4l.08.08c.12.17.23 0 .23-.1s.22-.56.38-.73c.17-.18.3-.07.3 0s.16.3.34.35c.18.05.25-.42.25-.42V4.73c0-.41-.1-.5-.2-.56l-.05-.05-.15-.14c-.13-.13-.3-.28-.36-.39-.09-.12-.09-.36-.08-.6v-.13c0-.28.38.12.47.28.06.1.05.17.03.24-.01.04-.03.09-.03.14 0 .15.12.12.12 0v-.1c-.02-.18-.04-.5.1-.56.12-.05.14.02.21.2l.08.2c.1.2.07.3.04.42a.98.98 0 0 0-.04.26c0 .23.17.43.28.57l.1.12c.07.12-.08-.8-.2-1-.13-.18-.06-.6.12-.84.14-.17.23.05.32.27l.09.2c.1.19 0 .32-.08.43l-.04.05c-.04.05-.01.12.02.2.04.12.1.26.1.47 0 .4.15.8.39 1.1.22.3.27.66.31 1.01l.01.06c.05.37.06-.58 0-1.06-.05-.48-.24-2.16-.16-2.6.05-.28.1-.15.18.04.04.1.09.21.15.3l.03.05c.14.18.15.2.07.33-.05.07-.1.06-.12.05-.03 0-.04 0-.04.05l.05.48c.07.6.2 1.64.2 2.18 0 .76-.41 1.06-.76 1.2-.35.12-.54 0-.54-.14 0-.07-.05-.03-.12.03-.05.04-.13.1-.19.1-.12 0-.08-.15 0-.3.06-.09.04-.1.03-.1-.01-.01-.03-.02-.03-.06 0-.08 0-.17.13-.17s.24 0 .12.17c-.08.11-.07.11-.02.12.03 0 .08 0 .14.04l.1.06.07.03c.11.07.4-.17.66-.42.2-.18.1-.22 0-.26a.3.3 0 0 1-.11-.06c-.04-.04-.1-.15-.17-.26-.09-.15-.18-.3-.23-.34-.03-.03-.02.06 0 .18.02.13.05.3 0 .36-.07.1-.24.25-.32.25-.08 0 0-1.41 0-1.41s-.43-.6-.37-.38a4.8 4.8 0 0 1-.26 1.92c-.2.23-.61-.06-.71-.23-.1-.16-.22 0-.27.17-.05.17-.15.54-.4.7-.17.1-.31-.16-.42-.36l-.1-.18Zm1.35-2.04s-.41.28-.48.36c-.07.09-.1.15 0 .2.1.05.47-.13.6-.28.14-.15.24-.3.2-.38-.06-.1-.32.1-.32.1Zm-.68-.62c-.16-.2.1-.28.1-.28s.13 0 .27.12c.08.06.07 0 .06-.09a.645.645 0 0 1 0-.24c.07-.15.3.02.35.21.05.13 0 .14-.07.14l-.1.03c-.07.03-.04.17-.02.32l.03.21c0 .19-.45-.23-.62-.42Z" fill="#fff"/><path d="M8.88 2.93h.07-.07Zm.14-.38-.06-.05.06.05Zm-.14.4h.07-.07Zm.1.15-.05-.05.05.05Zm.22-.4.07-.02-.07.02Zm-1.15.04.04.07-.04-.07Zm.06.1-.03.07.03-.07Zm.08.04.03-.07-.03.07Zm-.6.96.07-.04-.06.04Zm.1-.8L7.6 3l.07.03Zm-.05.9-.07.02.07-.03Zm0 0 .07-.04-.07.03Zm.4.4-.01-.08v.07Zm.34-.54-.08-.02.08.02Zm0-.02-.07-.02.07.02Zm.16-.15.07-.02-.07.02Zm0 .24h-.08.08Zm0 0h.07-.07Zm0 .24.07-.03-.07.03Zm.44.39.03.07-.03-.07Zm.33-.25.06.05-.06-.05Zm.18-.11-.02.07.02-.07Zm.16.15.05-.05-.05.05Zm.3.2.02.08-.01-.07Zm.37-.31.06.04-.06-.04Zm0 0-.06-.05.06.05Zm.05-.07-.06-.05.06.05Zm.1.02.07-.04-.06.04Zm.04.05.06-.04-.06.04Zm.25 0-.06-.04.06.04Zm.04-.4-.03-.07.03.07Zm0 0-.04-.07.03.07Zm-.43 0-.07.03.07-.04Zm.06-.77.07-.02-.07.02Zm.37.47-.07.04.07-.04Zm.07.13-.07.03.07-.03Zm.47.8.04-.07-.04.06Zm.12 1.31-.02.07.1.02v-.1l-.08.01Zm-.75.04v.07-.07Zm-.39 0-.02.08.02-.07Zm-.17-.03.01-.07-.01.07Zm-.02-.1-.02-.08.02.07Zm.2-.06.02.07-.02-.07Zm.57-.5.07-.01h-.07Zm-1 .22V5.2v.08Zm-.05 0 .01.08-.01-.07Zm-.05.01-.01-.07v.07Zm0 0v.08-.08Zm0 0-.01-.07v.07Zm-.77.41.06.04-.06-.04Zm-.18-.38h.07-.07Zm0 0h-.08.08Zm-.14-.57-.07.03.07-.03Zm-.01-.01-.07.03.07-.03Zm-.38-.24.06.04-.06-.04Zm.1.67-.05.06.05-.06Zm.08 1.26-.06-.05.06.05Zm-1.01.66-.05.05.05-.05Zm-.06-.3-.04-.07.04.06Zm.11-.07.04.07-.04-.07Zm.68-.9-.07.02.07-.01Zm-.15-.61.07-.02-.07.02Zm.02-.13v.08-.08Zm.06-.19.07-.03-.07.03Zm-.44-.23.06.05-.06-.05Zm0 .57.06-.05-.06.05Zm.1.7-.05-.05.05.05Zm-.22.22.06.06-.06-.06Zm0 0-.05-.05.05.05Zm-.34.01-.07-.03.07.03Zm-.04.1-.07-.02.07.02Zm-.33.42.03.07-.03-.07Zm-.77.5-.05-.06.05.06Zm-.2.29V7.4v.08Zm.7-.25-.05-.05.05.05ZM7 7.07l.07-.04-.03-.05-.06.02.02.07Zm.66.5.02.08-.02-.08Zm1.07-.9.06-.05-.05-.08-.06.07.05.05Zm.98.66v-.07.07Zm.5-.23.05-.06-.05.06Zm-.15-.1.04-.06-.04.06Zm-.28-.3-.06-.05.06.04Zm.64-.26v-.08.08Zm.15-.02.01.07v-.07Zm.61-.33-.07-.02.07.02Zm.24-.29.05.07-.05-.07Zm.04-.02h.07v-.15l-.12.09.05.06Zm-.04 1.2.07.03-.07-.02Zm.22-.06-.07-.04.07.04Zm0 0-.06-.04.06.04Zm.14-.56h-.08.08Zm-.05-1.03-.07.03.07-.03Zm0-.27-.05.05.05-.05Zm.32.58-.07.03.07-.03Zm.41.77-.05.05.05-.05Zm.1-.2h.07-.07Zm.04-.2.07.04L12.6 6Zm.1.06h-.08.08Zm-.33.81.04.07-.04-.07Zm-.3.21.04.07-.05-.07Zm-.38.23.02.07-.02-.07Zm.08.23v.08-.08Zm1-.56.06.03-.07-.03Zm.06-2.78h-.07.07Zm-.04-.22-.07.02.07-.02Zm-.06-.44.07.03-.07-.03Zm.08-.05-.03.06.03-.06Zm.07-.02.05.05-.05-.05Zm0-.36.06-.05-.06.05Zm-.12-.23-.07.03.07-.03Zm-.2-.14.06.05-.06-.05Zm-.13.96.07-.02-.07.02Zm.17 2.11.06-.05-.06.05Zm-.3-.5-.06.04.07-.03Zm-.22-.43-.07.04.07-.04Zm-.5-1.2-.07-.04.07.03Zm.08-.14.06.05-.06-.05Zm.03-.21-.07.02.07-.02Zm-.14-.23-.06.05.06-.05Zm-.13-.19.07-.03-.07.03Zm-.9-.34.04.05-.05-.05Zm-.06.16-.07.03.07-.03Zm0 .07.07.03-.06-.03Zm-.02.04-.06-.04.06.04Zm0 0 .07.03-.07-.03Zm-.1.03.06-.03-.07.03Zm-.03-.08.07-.02-.07.02ZM10 2.65l-.05-.05.05.05Zm-.14.6.06-.06-.06.05Zm.24.59-.06-.05.06.05Zm-.38.1.06-.04-.06.04Zm-.27-1.36-.02-.08.02.08Zm-.12 1.2-.07-.04.07.03Zm0 0-.07-.03.06.03Zm-.35.3L9.02 4l-.04.07Zm-.38-1.2.03.06-.03-.06Zm-.64 1.06.07-.04-.07.04Zm-.01-.03.07-.04-.07.04Zm-.14-.57-.07-.02.07.02ZM3.56 2.7l-.06.05.06-.05Zm-.02-.05-.06-.05.06.05Zm.12.22.07-.03-.07.03Zm.05.28h-.08.08Zm.06.1-.07-.03.07.03Zm1.12-.6h.08-.08Zm.2.03.07-.01-.08.01Zm0 .04.06-.05-.05.05Zm.02-.02h-.07.07Zm-1.3 4.1h-.08.07Zm.33-.33h-.08.08Zm1.84-.44.07.03v-.01l-.07-.02ZM6 5.6h.08v-.03L6 5.6Zm-.11.18-.08-.01.08.01Zm-.21.62.07.03-.07-.03Zm-.97.48V6.8v.08Zm-.03 0V6.8v.08Zm-.54-.73h-.08.08Zm.06-.44-.06-.05v.01l-.01.01.07.03Zm.21.18h-.07.07Zm1.27-.24-.07-.02.07.02Zm-.3.12.06.05-.05-.05Zm-.4-.22.07-.03-.07.03Zm.27-.67-.05-.05.05.05Zm.37-.03-.05.06.02.01h.01l.02-.07Zm.35.21-.07.04v.02h.02l.05-.06Zm-.01-.42.07-.02-.07.02Zm-.2-.9.08-.01v-.01l-.07.02Zm-.04-.26.07-.01-.03-.22-.11.2.07.03Zm-.04.16-.07-.01v.02l.07-.01Zm-.07.93-.05-.05.05.05Zm-.23.17v-.08.08Zm-.27-.17-.05.06.05-.06Zm0 0 .05-.06-.05.06Zm0 0 .05-.06-.05.06Zm0 0 .04-.06-.04.06Zm0 0-.05.06.05-.06Zm0 0 .05-.06-.05.06Zm-.48 1.5V6v.07Zm-.09-.47h-.07.07Zm-.19-.73.08-.03-.01-.02-.02-.01-.05.06Zm-.37-.52-.08.01v.01l.01.01.07-.03Zm-.15-.13-.06-.04-.01.02v.02h.07Zm-.37.48-.03.07.03-.07Zm-.14-1.24v-.08h-.06l-.02.07h.08Zm.14.3h-.08.08Zm.16.5.07-.03v-.01l-.01-.01-.06.04Zm.1-.46h.08-.07Zm.34-.52-.03-.06h-.01l.04.06Zm.18.33h-.07v.02l.07-.02Zm0 .49-.07-.03v.03h.07Zm.19.14v-.08H4.4l-.02.01.05.07Zm-.11-.81.07-.02V3.4l-.07.03Zm-.05-.54.07.02-.07-.02Zm.2-.19v-.07h-.02l.02.07Zm.13.59h.07-.07Zm.1.47.05-.06-.06.06Zm-.02-.29h.07-.07Zm0 0H4.6h.08Zm.29-.23-.05.06.05-.06Zm0 0-.05.06.05-.06Zm.1.39h.07-.08Zm0 0h-.08.07Zm.25.59-.04.06.04-.06Zm.13-.2h.08-.08Zm-.15-.44.07-.03-.07.03Zm-.06-.12-.07.03.07-.03Zm.03-.3L5.2 3.1l.06.05Zm0 0L5.2 3.1l.06.05Zm0 0 .06.04-.06-.04Zm0 0 .06.04-.06-.04Zm.05-.09-.06-.04.06.04Zm.36.17-.07.03.07-.03Zm.01.03-.07.03.15-.04h-.08Zm-.01-.2h.07v-.02l-.07.03Zm.32-.4v-.08h-.02l-.01.02.04.06Zm.28.7H6.2v.02l.08-.03Zm-.2.15.03-.07h-.02v.07Zm.15 1.09h.07V4.6h-.07Zm.2.18-.03-.07-.01.01.05.06Zm.15.3h-.07v.04l.07-.04Zm.27-.34L6.8 4.7v.02l.06.03Zm.33.22-.07.04.07-.04Zm.28-.23-.04-.06h-.01l-.01.03.06.03Zm.05.18.07.02-.07-.02Zm-.28.55L7.2 5.4l.03.07Zm0 0-.04-.07.03.07Zm-.29-.07.07-.02v-.02l-.07.04Zm-.4.15.03.07-.03-.07Zm-.22-.06.06-.04-.06.04Zm-.05.64h.07-.07Zm0 0h-.08.08ZM4.84 7.55l-.01-.07.01.07Zm-.36-1.38h.08-.08Zm-.22-1.14-.02.08h.02v-.08Zm-.51.22.04.05-.04-.05Zm.66-.12-.06.05.06-.05Zm-.4.33.01.07L4 5.46Zm-.46.2-.03-.07.03.07Zm0 0 .04.06-.04-.06Zm-.21.1.03.07-.03-.07Zm-.2 1.38-.08.01h.07Zm.24-.79h.07l-.02-.23-.12.2.07.03Zm.14 1.13.01.08-.01-.08Zm.2-.34.07.02V7.1l-.08.03Zm-.2-.1.03.07h.01l.01-.01-.05-.05Zm-.14-.12-.07-.01h.07Zm1.9-1.58.04-.05-.05.05Zm.1-.15.02-.07-.03-.01h-.02l.02.08Zm4.16-.13v-.07.07Zm-.22-.34h.08-.08Zm.5-.02v-.07.07Zm-.12.09h.08-.08Zm-.06.05h-.08.08Zm-.07-.13v-.07.07Zm-.03.06h.08-.08Zm-.01.02.05-.05-.05.05Zm-.02-.04.08-.01-.08.01Zm-.09-.07v.08-.08Zm2.45-.8h.08-.08Zm.22.34v.08-.08Zm-.11-.37v.07-.07Zm.08.06.08-.01-.08.01Zm.02.04.05-.05-.05.05Zm.02-.02h-.08.08Zm.03-.06V3.8v.07Zm.06.13h-.07.07Zm.07-.05h.07-.07ZM6.65 5.8l-.05-.06.05.06Zm0 .18-.04.07.04-.07Zm.33 0 .06-.04-.06.04Zm-.02.32.06.04-.06-.04Zm-.03.05-.07-.04.07.04Zm-.16 0 .06.04-.06-.04Zm7.81-.87.05.05-.05-.05Zm0 .57.06.05-.06-.05Zm.17.08-.07-.04.07.04Zm0-.02-.06-.03.07.03Zm.08-.4.08-.02-.08.02Zm1.13-2.45.05.06-.05-.06Zm0 .19.03-.07-.03.07Zm.25.04.07-.02-.07.02Zm-.08.4-.07-.03.07.03Zm-.01.02-.07-.03.07.03Zm-.16-.07.06.04-.06-.04Zm-4.1-.9-.04.06.03-.06Zm0-.19-.06-.06.05.06Zm.17.7.06.04-.06-.04Zm.16 0-.07-.04.07.04Zm0-.51-.06.04.06-.04ZM10.45 4.9l.03.06-.03-.06Zm.1.1h-.08.08ZM9.4 6.08 9.41 6H9.4l.01.08Zm.3.24-.04-.06.03.06Zm-.2.24.07.01-.07-.01Zm-.01.03.07.01-.07-.01Zm-.18.17-.03.07.03-.07Zm-.33-.52.07-.03-.07.03Zm0-.03.06-.03-.07.03Zm.09-.11V6v.08Zm-1.6-3.45-.03.07.03-.07Zm-.42.15-.07.03.07-.03Zm.08.14.06-.04-.06.04Zm.05.3-.06-.05.06.05Zm-.6.54.04.06-.04-.06Zm-.02.01.03.07-.03-.07Zm0 .15.02-.07-.01.07Zm0 0v.08-.08Zm.3 0 .02.07-.02-.08Zm.21-.21-.06-.05.06.05Zm.24-.25.05.06-.05-.06Zm.16-.36-.05.05.05-.05Zm-.06-.03-.03.07.03-.07Zm-.14-.15-.07-.03.07.03Zm-.01 1.23v.08h.02l-.02-.08Zm.12-.04.02-.08h-.04l.02.08Zm-.22-.04-.07.02.07-.02Zm.02-.13.07.03-.07-.03Zm-.22.17.07.02-.07-.02Zm.2.27-.04.06.04-.06Zm.28-.15.05.05-.05-.05Zm5.71 2.05.07.04-.07-.04Zm-.04.76.06-.04-.06.04Zm.12-.66h.08-.08Zm.15.57.06-.04-.06.04Zm0 0-.06.05.06-.05Zm.08.1.05-.05-.05.04Zm.61-.84-.05-.05.05.05Zm.64.35.02-.08-.02.08Zm.25-.42h.07-.07Zm-.2-1.99.05-.06-.04.06Zm-.05-.05.06-.05-.06.05Zm-.15-.14-.05.05.05-.05Zm0 0 .05-.06-.05.06Zm-.36-.39.06-.04-.06.04Zm-.08-.6h.07-.07Zm0 0h-.08.08Zm.47.15.07-.04-.07.04Zm.03.24.07.02-.07-.02Zm.09.05h-.08.08Zm0 0h.07-.07Zm.1-.57-.04-.07.03.07Zm.21.2-.07.03.07-.03Zm.08.2-.07.03.07-.03Zm.04.42-.07-.01.07.01Zm.24.83.06-.05-.06.05Zm.1.12-.07.04.07-.04Zm-.2-1-.07.05.06-.04Zm.12-.84.06.05-.06-.05Zm.32.27.07-.03-.07.03Zm.09.2-.07.03.07-.03Zm-.08.43-.06-.05.06.05Zm-.04.05-.07-.04.07.04Zm.02.2.07-.02-.07.03Zm.49 1.58-.06.04.06-.04Zm.31 1-.07.01.07-.01Zm.01.06h-.07.07Zm-.16-3.66.07.02-.07-.02Zm.18.04-.07.02.07-.02Zm0 0 .07-.03-.07.03Zm.15.3-.07.04.07-.04Zm.03.05-.06.04.06-.04Zm.07.33-.07-.04.07.04Zm-.12.05-.02.08.02-.08Zm0 .53h-.07.08Zm-.55 3.37-.03-.07.03.07Zm-.66-.1-.04-.06.04.06Zm-.19-.2-.06-.03.06.03Zm.03-.1-.04.06.04-.07Zm.22-.06-.06-.04.06.04Zm-.02.12v-.08.08Zm.14.04.04-.06-.04.06Zm.1.06-.01.07.01-.07Zm.07.03-.04.06.04-.06Zm.66-.42.05.06-.05-.06Zm0-.26.02-.07-.03.07Zm-.11-.06-.06.05.06-.05Zm-.17-.26-.07.03.07-.03Zm0 0 .07-.04-.07.04Zm0 0 .06-.04-.06.03Zm-.23-.34-.04.06.04-.06Zm0 .18.07-.02-.07.02Zm0 .36-.06-.05.06.05Zm-.32-1.16h.08V5.4l-.02-.02-.06.04Zm-.37-.38-.07.02.07-.02Zm-.26 1.92-.06-.05.06.05Zm-.71-.23.06-.04-.06.04Zm-.27.17.07.02-.07-.02Zm-.4.7-.03-.07.04.06Zm-.42-.36-.07.03.07-.03Zm.77-1.86.06.05-.06-.05Zm.48-.36.04.06-.04-.06Zm-.48.56-.03.07.03-.07Zm.6-.28.06.05-.06-.05Zm.2-.38.06-.04-.07.04Zm-.9-.8v-.07h-.03l.02.07Zm-.1.28-.05.05.05-.05Zm.37-.16.05-.06-.05.06Zm.06-.09h.07-.07Zm0-.24-.06-.03.07.03Zm.35.21.08-.02-.08.02Zm-.07.14.01.08v-.08Zm-.1.03-.02-.07.03.07Zm-.02.32.08-.01h-.08ZM8.95 2.93A.5.5 0 0 1 9 2.78l.1-.2-.13-.08-.11.23a.64.64 0 0 0-.05.2h.15Zm0 .02v-.02H8.8v.02h.15Zm-.02.1a.12.12 0 0 1-.02.02h.01l.04.01s0 .01 0 0v-.13H8.8v.09c0 .03 0 .06.02.1 0 .02.03.07.1.08l.07-.02a.26.26 0 0 0 .05-.05l-.11-.1Zm.2-.34c0 .03-.01.08-.05.15l-.15.2.1.1a.96.96 0 0 0 .18-.23c.04-.07.08-.16.06-.25l-.15.03Zm-.04-.12v-.02h-.02l.03.06.02.08.15-.03a.52.52 0 0 0-.08-.2c-.02-.02-.06-.06-.11-.05-.06 0-.1.04-.12.07l.13.09Zm-.93-.14-.06.01a.54.54 0 0 0-.15.1.38.38 0 0 0-.13.27h.15c0-.06.03-.11.08-.16a.39.39 0 0 1 .1-.07c.01 0 .01 0 0 0v-.15Zm-.07.36c.07-.04.12-.11.14-.17a.2.2 0 0 0 .02-.1.1.1 0 0 0-.02-.05.1.1 0 0 0-.07-.04v.15c-.01 0-.03 0-.04-.02a.05.05 0 0 1-.02-.02v.02a.23.23 0 0 1-.09.1l.08.13Zm.05-.04a.76.76 0 0 1-.06-.02l.01.02v.04l-.08-.13a.15.15 0 0 0-.06.07.1.1 0 0 0 .02.1l.06.04.05.02.06-.14Zm.08.04-.08-.04-.06.14.07.03.07-.13Zm-.17.35a.43.43 0 0 0 .2-.13.18.18 0 0 0 .04-.1c0-.05-.03-.1-.07-.12l-.07.13v-.02l-.02.02a.28.28 0 0 1-.13.08l.05.14Zm-.23-.33v.12c0 .04 0 .08.02.11 0 .04.03.07.07.1.05.02.1.01.14 0L8 3.02h-.02l-.01-.08v-.11h-.15Zm-.16.97a.62.62 0 0 1-.02-.39c.02-.13.07-.26.11-.34L7.61 3c-.03.09-.1.22-.12.38a.77.77 0 0 0 .04.48l.13-.07Zm.05.1-.05-.1-.13.07.04.1.14-.07Zm0 0-.14.06.14-.06Zm.32.36-.1-.01a.22.22 0 0 1-.07-.07 1.4 1.4 0 0 1-.15-.28l-.14.06c.06.12.1.23.18.32a.3.3 0 0 0 .3.13l-.02-.15Zm.27-.48c-.01.07-.04.18-.1.29a.53.53 0 0 1-.08.13.16.16 0 0 1-.1.06l.03.15a.3.3 0 0 0 .18-.1.67.67 0 0 0 .11-.18c.06-.12.1-.25.1-.31l-.14-.04Zm0-.02v.02l.15.04V3.8l-.14-.04Zm.31-.15a.13.13 0 0 0-.03-.07.1.1 0 0 0-.09-.02.13.13 0 0 0-.05.03.23.23 0 0 0-.04.03.52.52 0 0 0-.1.18l.15.04a.38.38 0 0 1 .08-.14h-.06v-.01l.14-.04Zm0 .27.01-.15v-.12l-.15.04v.22h.14Zm0 0h-.15.15Zm0 .2v-.2l-.15-.01v.26l.15-.05Zm.35.35a.17.17 0 0 1-.13-.01.3.3 0 0 1-.1-.1.86.86 0 0 1-.12-.24l-.14.05a1 1 0 0 0 .13.28c.04.06.1.11.16.15.07.03.16.04.25 0l-.05-.13Zm.3-.23a.69.69 0 0 1-.3.23l.05.14c.17-.06.28-.18.36-.27l-.11-.1Zm.26-.13a.17.17 0 0 0-.16.03l-.1.1.1.1a.66.66 0 0 1 .1-.08l.06-.15Zm.18.17-.08-.1a.28.28 0 0 0-.1-.07l-.05.14.04.04.08.08.11-.09Zm.24.18c-.03.01-.06 0-.1-.04a.93.93 0 0 1-.14-.14l-.11.1.15.16c.06.05.14.09.23.07l-.03-.15Zm.32-.29-.14.19a.34.34 0 0 1-.18.1l.03.15c.1-.02.19-.08.26-.15l.15-.2-.12-.09Zm0 0 .12.09-.13-.08Zm.05-.07-.05.07.12.09a.99.99 0 0 1 .05-.07l-.12-.1Zm.23.03-.03-.04a.15.15 0 0 0-.05-.04.1.1 0 0 0-.09 0 .17.17 0 0 0-.06.05l.12.1v-.02h-.02a.04.04 0 0 1-.02 0l.01.02.01.01.13-.08Zm.03.05a.45.45 0 0 1-.03-.05l-.13.08.05.06.11-.1Zm.13 0a.09.09 0 0 1-.04.03h-.02a.12.12 0 0 1-.07-.03l-.11.1c.03.04.09.08.16.09.07 0 .15-.03.2-.1l-.12-.09Zm.13-.29h-.01a.04.04 0 0 1-.03-.02v.07a.8.8 0 0 1-.1.24l.13.09c.04-.07.1-.2.12-.3a.31.31 0 0 0 0-.15.12.12 0 0 0-.07-.07.13.13 0 0 0-.1 0l.06.14Zm-.01 0-.05-.14.05.14Zm-.52-.04c.03.05.07.09.12.1.04.02.1.02.14.02a.99.99 0 0 0 .26-.08l-.06-.14a.97.97 0 0 1-.22.07h-.07a.06.06 0 0 1-.04-.04l-.13.07Zm-.1-.72a.1.1 0 0 0-.07.03.1.1 0 0 0-.03.05.2.2 0 0 0 0 .08 3.7 3.7 0 0 0 .2.55l.13-.06a3.51 3.51 0 0 1-.19-.5V3.2l-.01.02a.05.05 0 0 1-.04.01V3.1Zm.15-.07v.04l-.02.02a.4.4 0 0 1-.14.01v.15c.05 0 .13 0 .2-.02a.18.18 0 0 0 .1-.08.2.2 0 0 0 0-.15l-.14.03Zm.52.43a5.23 5.23 0 0 0-.39-.53l-.02-.01h-.04a.08.08 0 0 0-.05.02.09.09 0 0 0-.02.04v.05L10.5 3l-.01.03a.07.07 0 0 1-.05.03h-.04l.12.14.21.33.14-.07Zm.07.12-.07-.12-.13.07.06.12.14-.07Zm.44.77-.01-.02a6.43 6.43 0 0 1-.43-.75l-.14.07.27.48a6.74 6.74 0 0 0 .22.34l.1-.12Zm.15 1.38a19.32 19.32 0 0 0-.11-1.33.11.11 0 0 0-.04-.05l-.09.12-.01-.01v.02l.02.11.04.36.04.78h.15Zm-.25.07h.16l.03-.14-.2-.01v.15Zm-.56.04c.15-.02.33-.04.56-.04v-.15c-.24 0-.43.02-.58.04l.02.15Zm-.42.01c.06.02.12.02.2.02l.22-.03-.02-.15a2.7 2.7 0 0 1-.22.03.4.4 0 0 1-.14-.01l-.04.14Zm-.16-.03.16.03.04-.14-.18-.04-.02.15Zm-.03-.26a.6.6 0 0 0-.12.05.12.12 0 0 0-.04.05.09.09 0 0 0 0 .1l.05.03a.3.3 0 0 0 .04 0c.03.02.06.02.1.03l.02-.15a1.37 1.37 0 0 1-.1-.02h.01a.06.06 0 0 1 .01.08v.01c-.01 0-.01 0 0 0l.02-.01.06-.03-.05-.14Zm.2-.05-.2.05.05.14.19-.05-.04-.14Zm.51-.43c0 .07 0 .13-.03.18a.3.3 0 0 1-.1.11c-.1.06-.24.1-.38.14l.04.14c.13-.03.3-.07.42-.16.06-.04.12-.1.15-.16a.48.48 0 0 0 .05-.26h-.15Zm-.34-.52a.36.36 0 0 1 .17 0c.04.01.06.03.08.07.03.04.05.09.06.17l.03.28.15-.01c0-.12-.02-.22-.03-.3a.64.64 0 0 0-.08-.22.3.3 0 0 0-.16-.13.5.5 0 0 0-.24 0l.02.14Zm-.38.51a.6.6 0 0 1 .09-.33.42.42 0 0 1 .3-.18l-.03-.15a.57.57 0 0 0-.4.25.75.75 0 0 0-.1.41h.14Zm-.18.3h.07l.08-.07a.24.24 0 0 0 .03-.1v-.13h-.15a.92.92 0 0 1-.01.15H9.9l.02.15Zm-.06.01h.06L9.9 5.2l-.06.01.02.15Zm-.05 0h.05l-.02-.15h-.05l.02.16Zm0 0-.02-.14.02.15Zm0 0-.02-.14.02.15Zm-.72.38c.21-.3.54-.35.72-.37l-.02-.15c-.17.02-.57.07-.82.44l.12.08Zm-.32-.42v.41l.04.09c.01.03.04.06.09.06.04 0 .08-.01.1-.04a.51.51 0 0 0 .09-.1l-.12-.08a.37.37 0 0 1-.06.07c-.02.01-.01 0 0 0 .02 0 .03.02.03.02l-.02-.05v-.37l-.15-.01Zm0 0h.15-.15Zm0-.09v.09h.15v-.09h-.14Zm-.13-.45c.1.24.14.34.14.45h.15c0-.15-.06-.28-.16-.5l-.13.05Zm-.01-.01v.01l.14-.06v-.01l-.14.06Zm-.25-.23c.04-.06.06-.07.07-.07 0 0 .02 0 .03.02l.07.11.08.17.14-.06-.08-.18a.63.63 0 0 0-.1-.15c-.04-.03-.1-.07-.17-.06-.07.02-.12.07-.16.14l.12.08Zm.09.58a.3.3 0 0 1-.05-.08.73.73 0 0 1-.07-.15.467.467 0 0 1 .03-.35l-.12-.08a.58.58 0 0 0-.05.47l.08.19c.02.05.05.09.08.11l.1-.11Zm.08 1.36c.21-.23.2-.56.14-.82a1.91 1.91 0 0 0-.2-.51.17.17 0 0 0-.02-.03l-.1.11.02.04.05.1c.04.08.08.2.1.32.06.25.06.52-.1.69l.11.1Zm-1.11.66c.07.06.16.05.24.02.08-.03.18-.08.27-.15.2-.13.42-.33.6-.53l-.1-.1c-.18.2-.4.38-.58.51l-.24.13c-.07.03-.09.01-.09.01l-.1.11Zm-.05-.42a.28.28 0 0 0-.1.1.16.16 0 0 0-.01.13c.01.04.04.07.07.1l.09.1.1-.12a1.5 1.5 0 0 1-.12-.13V6.9l.05-.04-.08-.13Zm.12-.06-.12.06.08.13.1-.06-.06-.13Zm.64-.82c.04.23-.05.4-.18.53-.14.13-.33.22-.46.29l.07.13c.13-.06.33-.16.49-.31a.7.7 0 0 0 .23-.66l-.15.02ZM8 5.25c.03.1.09.28.15.6l.15-.02a4.76 4.76 0 0 0-.16-.63L8 5.24Zm.06-.23a.1.1 0 0 0-.07.03.1.1 0 0 0-.02.08v.05l.03.06.14-.04a2.27 2.27 0 0 1-.02-.09l-.02.04-.02.02h-.02v-.15Zm.04 0h-.04v.15h.03v-.15Zm-.02-.1.03.1v.01l.02-.01H8.1l-.01.15h.06c.03 0 .06-.02.09-.05A.16.16 0 0 0 8.26 5a.58.58 0 0 0-.04-.14l-.14.06Zm-.31-.2c.05-.06.08-.08.1-.08.02 0 .04 0 .06.02.03.02.05.06.08.1l.07.17.14-.06a1.69 1.69 0 0 0-.08-.17.52.52 0 0 0-.1-.16.21.21 0 0 0-.19-.05.36.36 0 0 0-.2.13l.12.1Zm0 .47c-.07-.08-.11-.14-.12-.21-.01-.06 0-.15.12-.26l-.12-.1c-.12.13-.17.26-.15.38.01.11.08.2.15.29l.12-.1Zm.1.8A.45.45 0 0 0 8 5.76a.43.43 0 0 0-.02-.23 1.1 1.1 0 0 0-.21-.34l-.12.1c.07.08.16.18.2.29.01.05.02.1 0 .15a.3.3 0 0 1-.09.16l.1.1Zm-.22.23.21-.23-.1-.1-.22.22.1.1Zm0 0-.11-.1.1.1Zm-.37.1.01.06c.01.03.04.05.07.05l.06-.01c.02 0 .03-.02.04-.03.05-.03.12-.1.19-.17l-.11-.1a2 2 0 0 1-.18.17h.02c.02 0 .04.01.05.03 0 0 0 .01 0 0h-.15Zm.03-.12.02-.02h-.07s0-.01 0 0l.01.06.01.08h.15a.57.57 0 0 0-.04-.2.14.14 0 0 0-.03-.06.1.1 0 0 0-.08-.02.12.12 0 0 0-.07.04.27.27 0 0 0-.03.06l.13.06Zm-.03.1.03-.1-.13-.06-.04.1.14.06Zm-.37.46c.23-.1.31-.32.37-.46l-.14-.05c-.06.15-.13.3-.29.37l.06.14Zm-.8.43.04.06a8.88 8.88 0 0 0 .3-.2c.16-.12.35-.24.46-.29l-.06-.14a3.46 3.46 0 0 0-.7.45 9.75 9.75 0 0 0-.08.06l.04.06Zm-.2.21c-.01 0-.01 0 0 0l.02.02c.03.03.02.06.02.05l.02-.03a1.95 1.95 0 0 1 .19-.2L6.1 7.2a29.9 29.9 0 0 0-.05-.06 1.83 1.83 0 0 0-.25.29c0 .01-.02.06.02.1a.1.1 0 0 0 .05.03h.05l-.02-.15Zm.65-.22a2.12 2.12 0 0 1-.3.13 2.8 2.8 0 0 1-.35.1l.02.14a2.93 2.93 0 0 0 .58-.17.64.64 0 0 0 .15-.09l-.1-.11ZM7 7.07 6.98 7a1.1 1.1 0 0 0-.16.04.88.88 0 0 0-.26.14l.1.11a.74.74 0 0 1 .21-.1 1.86 1.86 0 0 1 .15-.05L7 7.07Zm.63.43c-.05.02-.12 0-.18-.03a.76.76 0 0 1-.2-.16 1.58 1.58 0 0 1-.18-.28L7 7.07l-.07.03v.01a1.23 1.23 0 0 0 .06.1l.16.2a.9.9 0 0 0 .23.2c.08.04.19.07.3.04l-.05-.15Zm1.1-.84-.05-.05v.01a5.45 5.45 0 0 1-.41.4l-.35.31a.84.84 0 0 1-.29.17l.05.15c.1-.03.21-.1.33-.2a4.88 4.88 0 0 0 .78-.74l-.06-.05Zm.99.6a1.17 1.17 0 0 1-.64-.33 2.4 2.4 0 0 1-.29-.31l-.06.04-.06.05a.93.93 0 0 0 .09.1l.22.23c.18.16.44.35.72.37l.02-.15Zm.45-.1a.1.1 0 0 1 .02.02v.01l-.02.02c-.06.04-.2.07-.45.05l-.02.15c.27.02.45 0 .55-.07.05-.04.1-.09.1-.15 0-.07-.05-.12-.1-.15l-.08.12Zm-.15-.1.15.1.09-.12-.16-.1-.08.13Zm-.3-.4a.16.16 0 0 0-.02.14l.08.11c.07.06.16.11.24.16l.08-.13-.21-.14a.14.14 0 0 1-.04-.05v-.02l-.13-.08Zm.7-.3c-.18.03-.32.06-.43.1a.5.5 0 0 0-.27.2l.13.07c.03-.05.1-.1.19-.13.1-.04.22-.06.4-.09l-.03-.15Zm.14-.02-.15.02.03.15.14-.02-.02-.15Zm.55-.27a.28.28 0 0 1-.18.2c-.1.03-.22.05-.37.07l.02.15c.14-.02.29-.04.4-.09a.43.43 0 0 0 .28-.3l-.15-.03Zm.27-.33c-.08.06-.22.16-.27.33l.15.04c.02-.1.12-.18.2-.24l-.08-.13Zm.03-.02-.03.02.09.13.03-.03-.09-.12Zm.13.15v-.1h-.16v.1h.16ZM11.49 7a10.82 10.82 0 0 0 .04-1.14h-.14a26.98 26.98 0 0 1-.04 1.08v.01l.14.05Zm.08-.13a.19.19 0 0 1-.1.07h-.01l.03.04V7l-.14-.05v.08a.1.1 0 0 0 .06.06h.1a.33.33 0 0 0 .2-.14l-.14-.08Zm0 0 .13.08-.12-.08Zm.13-.4c0 .19-.07.3-.12.4l.13.08c.05-.1.14-.25.14-.47h-.15Zm0-.13v.14h.15v-.13h-.15Zm-.04-1 .03.16.01.27v.57h.15v-.57a4.33 4.33 0 0 0-.05-.48l-.14.06Zm.12-.35a.1.1 0 0 0-.08-.02.1.1 0 0 0-.06.04.2.2 0 0 0-.03.1c0 .06.01.15.05.24l.14-.06a.43.43 0 0 1-.04-.18V5.1s-.01.02-.03.02h-.05l.1-.12Zm.33.6a47.52 47.52 0 0 0-.33-.6l-.1.11.02.04.07.13.2.4.14-.08Zm.4.75v-.02l-.04-.05-.1-.18-.26-.5-.13.07a45.2 45.2 0 0 0 .43.79l.1-.1Zm-.03-.16a1.2 1.2 0 0 1-.04.17h.01a.06.06 0 0 1 .06 0l-.1.1a.1.1 0 0 0 .05.03.1.1 0 0 0 .08-.02.12.12 0 0 0 .03-.04l.02-.03.04-.18-.15-.03Zm.06-.21a.42.42 0 0 0-.04.1l-.02.11.15.03a2.37 2.37 0 0 1 .04-.17l-.13-.07Zm.23.03a.4.4 0 0 0 0-.1.1.1 0 0 0-.05-.06.09.09 0 0 0-.09 0 .12.12 0 0 0-.03.03l-.02.03-.04.07.13.07a1.09 1.09 0 0 1 .04-.08l-.03.01h-.04a.06.06 0 0 1-.02-.03V6h.15Zm0 .05V6h-.15v.06h.15Zm-.36.89c.38-.25.37-.7.36-.89h-.15c0 .21.01.56-.29.76l.08.13Zm-.3.2.3-.2-.08-.13-.3.21.08.13Zm-.4.24c.05 0 .1-.04.17-.08l.23-.15-.09-.13a6.48 6.48 0 0 1-.35.22l.04.14Zm.02.09-.02-.01-.01-.03V7.4l-.03-.15c-.1.02-.13.13-.12.2 0 .08.06.18.18.18v-.15Zm.04 0h-.04v.15h.03v-.15Zm.93-.53a.93.93 0 0 1-.93.53v.15c.08 0 .27 0 .47-.07.2-.07.43-.23.6-.54l-.14-.07Zm.06-2.74c.02.23.08.78.1 1.34 0 .29 0 .57-.03.82-.02.25-.06.45-.13.58l.13.07c.08-.15.13-.38.15-.64.03-.25.03-.54.02-.83-.01-.57-.07-1.13-.1-1.35l-.14.01Zm-.01-.1v.1l.16-.01-.01-.07V4.1h-.15Zm-.03-.1.02.07v.02h.16l-.02-.06c0-.02 0-.05-.02-.08l-.14.05Zm-.05-.49a.45.45 0 0 0-.01.25l.06.24.14-.05a2.15 2.15 0 0 1-.05-.22c-.02-.07-.02-.13 0-.16l-.14-.06Zm.18-.1s-.05-.02-.1 0a.13.13 0 0 0-.05.05.33.33 0 0 0-.03.05l.13.06.02-.03h-.01a.05.05 0 0 1-.03.01l.07-.13Zm-.03.01a.04.04 0 0 1 .03 0l-.07.13.06.02c.04 0 .07-.02.1-.05l-.12-.1Zm0-.27c.06.09.07.14.06.17 0 .04-.02.07-.06.1l.11.1c.04-.03.09-.1.1-.18.02-.08-.01-.17-.1-.28l-.11.1Zm-.13-.24c.03.07.07.17.13.24l.12-.09a1.04 1.04 0 0 1-.12-.21l-.13.06Zm-.07-.12.01-.02h-.02l.03.04.05.1.13-.06a1.84 1.84 0 0 0-.04-.1.34.34 0 0 0-.06-.09.13.13 0 0 0-.12-.04.18.18 0 0 0-.1.08l.12.09Zm-.12.9c-.02-.12-.03-.3 0-.49 0-.09.03-.17.05-.25a.57.57 0 0 1 .07-.16l-.12-.1a.71.71 0 0 0-.1.22 1.77 1.77 0 0 0-.04.81l.14-.04Zm.05 2.18a.1.1 0 0 0 .05.03c.03 0 .05 0 .08-.02a.11.11 0 0 0 .03-.04.2.2 0 0 0 .01-.04 8.35 8.35 0 0 0-.04-.89c-.06-.52-.14-1.1-.18-1.23l-.14.04a15.4 15.4 0 0 1 .21 2.05h.01a.06.06 0 0 1 .06-.02h.01v.01l-.1.1Zm-.31-.52.15.3c.05.08.1.16.16.22l.1-.11a5.59 5.59 0 0 1-.28-.48l-.13.07Zm-.23-.43c.09.13.16.28.23.43l.13-.07c-.07-.14-.14-.3-.23-.44l-.13.08Zm-.5-1.28a.26.26 0 0 0-.02.13c0 .05 0 .1.02.15l.13.34c.12.24.27.5.37.66l.13-.08a7.36 7.36 0 0 1-.49-.96.5.5 0 0 1-.01-.11v-.06l-.13-.07Zm.09-.14-.09.14.14.07.07-.12-.12-.09Zm.02-.15.02.09-.04.06.12.09c.03-.04.05-.07.06-.12.01-.05 0-.1-.02-.16l-.14.04Zm-.13-.2c.06.07.1.12.13.2l.14-.04c-.03-.11-.1-.19-.15-.25l-.12.1Zm-.14-.2c.04.08.1.15.14.2l.12-.1a.85.85 0 0 1-.12-.17l-.14.07Zm-.12-.15c-.02 0-.03 0 0 0 .03.03.09.08.12.16l.14-.07a.5.5 0 0 0-.2-.22c-.03-.01-.09-.03-.14 0-.05.03-.07.09-.07.14h.15Zm-.29.18c0 .03.02.05.03.07l.07.05c.06.02.1-.03.13-.06a.46.46 0 0 0 .06-.24h-.15a.4.4 0 0 1-.01.1.2.2 0 0 1-.03.06c0 .01 0-.02.04 0h.02l-.02-.02-.14.04Zm-.38-.36h.06l.12.09c.1.09.18.2.2.27l.14-.04a.97.97 0 0 0-.23-.34.56.56 0 0 0-.18-.12c-.06-.02-.14-.03-.2.03l.1.11Zm-.03.07-.01-.02v-.01l.04-.04-.1-.11c-.05.04-.08.09-.09.14l.02.1.14-.06Zm0 .14c.04-.06 0-.12 0-.14l-.14.07v.01l.01-.01.13.07Zm-.02.04.02-.04-.13-.07-.02.04.13.07Zm0 0-.13-.06.13.06Zm-.24.03c0 .02.02.06.05.08a.1.1 0 0 0 .12 0 .18.18 0 0 0 .04-.06l.03-.05-.13-.07-.02.04-.01.02.03-.01h.03s0 .01 0 0v-.01l-.14.06Zm-.03-.08.03.08.13-.06a1 1 0 0 1-.02-.07l-.14.05Zm-.2-.12c.05-.05.08-.06.1-.06h.02a.2.2 0 0 1 .04.07l.04.1.14-.04-.04-.12a.34.34 0 0 0-.08-.11.17.17 0 0 0-.15-.05.33.33 0 0 0-.16.1l.1.1Zm-.12.48a.2.2 0 0 1-.06-.2.57.57 0 0 1 .19-.28l-.1-.11a.71.71 0 0 0-.23.37c-.03.12 0 .24.1.32l.1-.1Zm.24.69a.27.27 0 0 0 .04-.19.65.65 0 0 0-.06-.19 1.21 1.21 0 0 0-.22-.31l-.1.1c.05.07.13.17.18.28.03.05.04.1.05.14l-.01.08.12.09Zm-.5.1c.02.05.07.08.12.1.05.01.1 0 .15-.01.09-.03.17-.11.23-.2l-.12-.08a.37.37 0 0 1-.16.14h-.06s-.02 0-.04-.03l-.13.07Zm-.12-.6c-.04.24.02.43.11.6l.13-.08a.68.68 0 0 1-.1-.5l-.14-.02Zm-.07-.73h.03c.01 0 .02 0 .03.02.02.05.04.12.04.2.02.18 0 .4-.03.5l.15.03c.02-.11.05-.34.03-.53 0-.1-.02-.2-.06-.27a.21.21 0 0 0-.09-.09.19.19 0 0 0-.14 0l.04.14Zm-.12.54a.73.73 0 0 1-.03-.32c.02-.12.06-.2.15-.22l-.04-.15c-.17.05-.24.2-.26.35-.02.14 0 .3.04.39l.14-.05Zm.05.62a.36.36 0 0 0 .03-.14v-.15a1.43 1.43 0 0 0-.08-.33l-.14.05a1.28 1.28 0 0 1 .07.43c0 .04-.01.06-.02.07l.14.07Zm0 0-.14-.07v.01l.13.07Zm-.46.33c.06.04.13.04.18.02.05-.02.1-.06.13-.1.06-.08.12-.19.14-.24l-.13-.07a1.1 1.1 0 0 1-.13.21.2.2 0 0 1-.07.06h-.04l-.08.12Zm-.22-.73c-.04.15-.03.3.01.43s.12.24.21.3L9.02 4a.43.43 0 0 1-.15-.22.6.6 0 0 1 0-.34l-.15-.04Zm-.09-.47a.08.08 0 0 1 .04-.01h.01l.05.1c.02.1.02.26-.01.38l.14.04c.04-.14.05-.32.01-.46a.31.31 0 0 0-.1-.18.17.17 0 0 0-.1-.03.22.22 0 0 0-.11.03l.07.13Zm-.42.69c0-.09.05-.23.14-.37.09-.14.2-.26.28-.32l-.07-.13a1.1 1.1 0 0 0-.34.37.97.97 0 0 0-.16.45h.15Zm-.31.34a.2.2 0 0 0 .05.07c.03.01.06.02.1.01.03 0 .05-.02.07-.04a.26.26 0 0 0 .03-.06.84.84 0 0 0 .06-.32h-.15c0 .1-.02.2-.04.26L8 3.9h.04l-.01-.01-.13.07Zm-.02-.02.02.02.13-.07-.01-.03-.14.08Zm-.14-.63a.56.56 0 0 0 .01.35l.14.28.13-.08c-.05-.08-.1-.16-.13-.25a.41.41 0 0 1-.01-.26l-.14-.04Zm.01-.25.01-.03-.03.01h-.01l.01.02c.02.05.03.15 0 .25l.15.04A.54.54 0 0 0 7.87 3a.23.23 0 0 0-.04-.06.13.13 0 0 0-.08-.05.11.11 0 0 0-.09.03.2.2 0 0 0-.05.08l.14.06Zm-4.14-.42v-.01c-.01 0 0 0 0 0a.06.06 0 0 1-.01.05l-.12-.09a.1.1 0 0 0-.01.1c0 .02.02.04.03.05l.11-.1Zm.12.2a.62.62 0 0 0-.12-.2l-.11.1c.02.02.06.06.09.15l.14-.06Zm.05.3c0-.09-.01-.22-.05-.3l-.14.05a1 1 0 0 1 .04.26l.15-.01Zm-.08.07-.01.01h.01l.03-.01h.04a.06.06 0 0 1 .02.03v-.1h-.16l.01.09.01.07.04.04a.08.08 0 0 0 .09 0 .12.12 0 0 0 .03-.03.3.3 0 0 0 .02-.04l-.13-.06Zm.03-.5s.02.01.03.05v.14c0 .12-.03.24-.06.3l.13.07a1 1 0 0 0 .07-.54.24.24 0 0 0-.1-.15l-.07.12Zm-.13-.03.03-.01c.02 0 .05 0 .1.03l.08-.12a.29.29 0 0 0-.2-.06.2.2 0 0 0-.13.07l.12.1Zm1.3-.05h-.08a.5.5 0 0 0 0 .06l.01.13c.02.05.04.11.08.16.05.04.1.08.19.08v-.15a.1.1 0 0 1-.08-.04.2.2 0 0 1-.04-.08.48.48 0 0 1-.01-.15h-.08Zm.1-.1c-.06 0-.1 0-.13.02a.1.1 0 0 0-.04.04.09.09 0 0 0-.01.04 2.41 2.41 0 0 0 .15 0 .04.04 0 0 1 0 .01.07.07 0 0 1 0 .02l-.02.02H5v-.16Zm.16.13c0-.02-.01-.05-.04-.09A.166.166 0 0 0 5 2.52V2.69l.15-.03Zm0 0v.01-.01L5 2.7v.03l.03.04.11-.1Zm-.12.02v.01-.01l.03-.03a.07.07 0 0 1 .08 0v.01l-.1.1s.02.03.05.03a.08.08 0 0 0 .08-.04V2.7l-.14-.02Zm.1-.12a.1.1 0 0 0-.06.02.11.11 0 0 0-.03.05l-.01.05.15.02v-.02l-.01.02a.05.05 0 0 1-.03 0v-.14Zm.14.2-.01-.12a.12.12 0 0 0-.12-.08v.15h-.02V2.7v.07h.15Zm-.08-.05v.02h-.01.07l.02.04h-.15v.04l.04.05c.03.02.06.02.08.01a.1.1 0 0 0 .04-.02.2.2 0 0 0 .06-.14H5.2Zm.2-.15c-.04 0-.08 0-.12.02a.14.14 0 0 0-.08.13h.19v-.15Zm-.3.5c.16 0 .26-.12.32-.22l.06-.14v-.07a.1.1 0 0 0-.02-.04.09.09 0 0 0-.07-.03v.15l-.05-.02a.05.05 0 0 1 0-.03l-.01.01c0 .03-.02.06-.04.1-.05.08-.11.14-.2.14v.15Zm-1.1 3a.2.2 0 0 0-.16.09.5.5 0 0 0-.08.17c-.03.13-.05.3-.03.48l.15-.01c-.01-.16 0-.32.03-.43.01-.05.03-.1.05-.12l.03-.02v-.15Zm.14.4h.07a.62.62 0 0 0 0-.06c0-.03 0-.07-.02-.12a.4.4 0 0 0-.05-.13.17.17 0 0 0-.15-.08v.15l.03.01.03.09a.7.7 0 0 1 .01.14h.08Zm.74.6a.65.65 0 0 1-.56-.31.86.86 0 0 1-.1-.3h-.08l-.08.02a.64.64 0 0 0 .03.11.8.8 0 0 0 .79.63v-.14Zm1.1-1.04A23.3 23.3 0 0 1 5.91 6a2.03 2.03 0 0 1-.08.17c-.05.1-.12.24-.22.38s-.2.27-.33.37a.61.61 0 0 1-.4.15v.15c.18 0 .35-.07.5-.18.14-.11.26-.26.36-.4a3.17 3.17 0 0 0 .3-.59l-.06-.03ZM6 5.6h-.07a.92.92 0 0 1 0 .04 2.48 2.48 0 0 1-.03.38l.15.03a1.86 1.86 0 0 0 .03-.45H6Zm-.04.2a4.41 4.41 0 0 1 .05-.18c0 .01-.02.02-.05.02-.02 0-.03-.02-.03-.02v.01l.14-.06a.2.2 0 0 0-.02-.04.1.1 0 0 0-.14-.01.14.14 0 0 0-.03.04.55.55 0 0 0-.03.08l-.04.13.15.03Zm-.21.63c.1-.24.17-.47.21-.63l-.15-.03c-.04.15-.1.37-.2.6l.14.06Zm-1.04.52c.14 0 .34.01.54-.05.2-.07.38-.2.5-.47l-.14-.06a.66.66 0 0 1-.41.39c-.17.05-.34.05-.49.04v.15Zm-.03 0h.03V6.8h-.03v.15Zm-.62-.8c.02.14.09.34.19.5.05.07.11.15.18.2.07.06.16.1.25.1V6.8a.26.26 0 0 1-.16-.06.71.71 0 0 1-.15-.18c-.09-.14-.15-.3-.16-.42l-.15.02Zm.14-.44a13.88 13.88 0 0 0-.07-.03.12.12 0 0 0 0 .01.71.71 0 0 0-.05.13c-.01.09-.03.2-.02.34l.15-.02a.91.91 0 0 1 .05-.4l-.06-.03Zm.29.18c0-.1-.01-.19-.04-.24a.14.14 0 0 0-.15-.08.25.25 0 0 0-.11.05.4.4 0 0 0-.05.04l.06.05.05.05a.2.2 0 0 1 .03-.02.11.11 0 0 1 .04-.02c0 .02.02.07.02.17h.15Zm.5.44c-.19-.02-.31-.04-.39-.1-.07-.05-.11-.14-.11-.34h-.15c0 .22.05.37.17.46.12.09.28.11.47.13v-.15Zm.62-.7c-.03.1-.1.29-.22.44-.12.16-.26.27-.4.26l-.01.15c.22.01.4-.15.53-.32.12-.17.21-.37.24-.49l-.14-.04Zm-.22.14.05.05a1.42 1.42 0 0 1 .2-.16h.02l-.02-.01a.05.05 0 0 1-.03-.03v.01l.14.04c.01-.03.02-.07 0-.1a.1.1 0 0 0-.1-.07.2.2 0 0 0-.07.03 1.54 1.54 0 0 0-.24.19l.05.05Zm-.48-.19c.06.13.15.22.24.27.1.04.2.05.29-.03l-.1-.1c-.02.01-.06.02-.12 0a.4.4 0 0 1-.17-.2l-.14.06Zm.29-.75c-.09.1-.19.21-.25.34-.07.12-.1.27-.04.41l.14-.06c-.04-.08-.02-.17.03-.28.06-.1.15-.21.23-.3l-.11-.1Zm.42.02a7.6 7.6 0 0 0 .04-.06.25.25 0 0 0-.04-.02.4.4 0 0 0-.1-.04c-.1-.02-.22 0-.32.1l.1.1c.07-.06.14-.07.18-.06a.24.24 0 0 1 .09.04l.05-.06Zm.35.21a7.6 7.6 0 0 0 .06-.03.28.28 0 0 0-.02-.04.63.63 0 0 0-.38-.21l-.03.15a.48.48 0 0 1 .29.15.25.25 0 0 1 .01.02l.07-.04Zm-.01-.42-.08.02a.32.32 0 0 1 0 .02 3.16 3.16 0 0 1 .06.35l.02-.02c.04-.02.06 0 .05 0l-.09.11c.02.02.07.05.12.02a.1.1 0 0 0 .04-.05l.01-.04v-.17a2.57 2.57 0 0 0-.06-.25l-.07.01Zm-.2-.9H5.7v.04a12.81 12.81 0 0 0 .2.9l.14-.06a3.64 3.64 0 0 1-.17-.78 13 13 0 0 1-.02-.1v-.01h-.07Zm-.12-.25.05.27.15-.04a1.9 1.9 0 0 1-.05-.25l-.15.02Zm.04.15h.07a.58.58 0 0 1 .03-.12l-.13-.08a.39.39 0 0 0-.04.12.86.86 0 0 0 0 .07h.07Zm-.02.99a.5.5 0 0 0 .13-.29c.02-.1.02-.22.02-.32a2.63 2.63 0 0 0-.06-.4l-.07.02-.07.01a.9.9 0 0 1 .02.11l.03.26-.01.3a.36.36 0 0 1-.1.2l.11.1Zm-.28.18c.05 0 .1-.03.14-.06l.14-.12-.1-.11-.13.11-.06.03v.15Zm-.32-.18.17.13c.04.03.1.05.15.05v-.15l-.07-.02a2.1 2.1 0 0 1-.16-.13l-.1.12Zm0 0 .1-.12-.1.12Zm0 0 .1-.12-.1.12Zm0 0 .1-.12-.1.12Zm0 0 .1-.12-.1.12Zm0 0 .1-.12-.1.12Zm-.16.2v-.17l.03-.1c.03 0 .06.01.13.07l.1-.12a.43.43 0 0 0-.2-.1l-.1.01a.16.16 0 0 0-.06.06.4.4 0 0 0-.04.16 2 2 0 0 0-.01.2h.15Zm0 1.08V4.84h-.15V5.9h.15Zm-.27.24c.04 0 .1 0 .17-.03.07-.04.1-.11.1-.2h-.15l-.01.05-.01.02h-.1v.16Zm-.07 0h.07V6h-.08a.17.17 0 0 0-.1.04l.1.11Zm-.02-.55h-.07a2.14 2.14 0 0 1-.01.18l-.03.3.15.02a12.02 12.02 0 0 0 .04-.48V5.6h-.08Zm-.19-.73-.07.02.01.02a8.77 8.77 0 0 1 .18.69h.15a4.54 4.54 0 0 0-.19-.76l-.08.03Zm-.37-.52-.07.03a1.62 1.62 0 0 0 .04.07l.09.14c.07.11.17.25.27.33l.1-.11a3.6 3.6 0 0 1-.36-.5l-.07.04Zm-.15-.13.06.04c.01-.01.01 0 0 0-.02 0-.02-.02-.02 0l.03.1.15-.02A.45.45 0 0 0 4 4.17c-.03-.04-.07-.07-.12-.06a.14.14 0 0 0-.08.04.2.2 0 0 0-.03.02l.06.05Zm-.4.55c.1.04.18.04.25 0 .07-.03.12-.1.15-.16.06-.13.08-.29.08-.4h-.15c0 .1-.02.24-.07.33a.19.19 0 0 1-.08.1c-.02.01-.06.02-.13 0l-.05.13Zm-.11-1.31a16.1 16.1 0 0 0-.08-.01 3.42 3.42 0 0 0-.05.58c0 .15 0 .31.04.44.01.07.03.13.07.18.03.05.07.1.13.12l.05-.14c-.02 0-.04-.02-.06-.06a.47.47 0 0 1-.04-.13 4.41 4.41 0 0 1 .02-.96v-.01l-.08-.01Zm.21.3c0-.16-.04-.25-.09-.3a.2.2 0 0 0-.1-.07.13.13 0 0 0-.01 0 3.4 3.4 0 0 0-.02.14l.02.02c.01.02.05.08.05.2h.15Zm.09.5a12.37 12.37 0 0 1 .06-.05.4.4 0 0 1-.02-.03.94.94 0 0 1-.13-.43h-.15a1.06 1.06 0 0 0 .18.54l.06-.04Zm.1-.46h-.07a3.48 3.48 0 0 1-.05.44.06.06 0 0 1 .09 0v-.01l-.14.05.02.05.06.04c.04 0 .07-.02.08-.03a.14.14 0 0 0 .03-.04 4.02 4.02 0 0 0 .06-.5h-.07Zm.34-.52a12.4 12.4 0 0 0-.04-.06.72.72 0 0 0-.06.05l-.12.12c-.09.1-.19.24-.19.4h.15c0-.1.07-.21.15-.3a1.13 1.13 0 0 1 .16-.15l-.05-.06Zm.18.33h.08a.27.27 0 0 0 0-.02 1.16 1.16 0 0 0-.02-.2.32.32 0 0 0-.08-.15.15.15 0 0 0-.09-.05c-.04 0-.07 0-.1.03l.07.13h.01c.02 0 .03.03.04.07a.77.77 0 0 1 .02.19h.07Zm0 .49.06.03a.11.11 0 0 0 .01-.01l.01-.04.03-.11a.86.86 0 0 0-.04-.39l-.14.05a.71.71 0 0 1 0 .44l.07.03Zm.19.14-.05-.07a.13.13 0 0 1-.02.02.1.1 0 0 1-.03 0c-.01 0-.02-.02-.02-.09h-.15c0 .07 0 .13.04.18.03.05.08.07.13.07a.24.24 0 0 0 .13-.04.27.27 0 0 0 0-.01l-.03-.06Zm-.11-.81-.07.02v.01a4.9 4.9 0 0 1 .14.72s0-.02.03-.02v.15c.07 0 .1-.05.11-.09a.37.37 0 0 0 .01-.12 5.29 5.29 0 0 0-.15-.69l-.07.02Zm-.05-.54-.08-.01a.1.1 0 0 0 0 .01v.04l-.02.12c0 .11.02.25.08.4l.14-.05a.85.85 0 0 1-.05-.48l-.07-.03Zm.2-.19-.02-.07a.3.3 0 0 0-.04.01.43.43 0 0 0-.08.04.27.27 0 0 0-.14.2l.15.02c0-.04.03-.07.07-.1a.28.28 0 0 1 .07-.02l-.01-.08Zm.13.59h.07v-.01a2 2 0 0 0-.02-.29c0-.07-.02-.15-.04-.21a.32.32 0 0 0-.04-.1.14.14 0 0 0-.1-.05l-.01.15h-.01l.02.04a2.7 2.7 0 0 1 .05.46h.08Zm.23.68a.2.2 0 0 1-.05-.06 1.85 1.85 0 0 1-.11-.62h-.15a2 2 0 0 0 .13.68c.02.05.05.1.09.12l.09-.12Zm-.19-.16c.01 0 .03.03.04.07a.72.72 0 0 1 .06.13v.01V4c.02-.01.03-.03.05-.03h.03l-.08.12s.01.02.03.02a.1.1 0 0 0 .05 0c.06 0 .07-.06.07-.07a.2.2 0 0 0 0-.06l-.02-.06a.87.87 0 0 0-.05-.11.47.47 0 0 0-.07-.1l-.11.1Zm-.04-.35-.01.18c0 .06 0 .12.05.17l.1-.1v-.07l.01-.16-.15-.02Zm0 0 .15.02-.15-.02Zm.02-.22c0 .07 0 .15-.02.22l.15.02.02-.24h-.15Zm.4-.06L4.9 3.1a.36.36 0 0 0-.12-.06h-.07a.12.12 0 0 0-.06.05.25.25 0 0 0-.04.15h.15v-.06c-.01.01-.02 0-.01.01l.06.03.1.08.1-.12Zm0 0-.1.12.1-.12Zm.12.45V3.4A.33.33 0 0 0 5 3.18l-.09.12c.04.03.06.07.07.12v.2l.15.01Zm0 0h-.15.15Zm0 .13v-.13h-.15v.13h.14Zm.23.4c-.16-.12-.24-.24-.24-.4h-.15c0 .23.12.38.3.52l.09-.12Zm0-.13a1.5 1.5 0 0 1 0 .16l.02-.01c.02 0 .01 0-.02-.02l-.1.12c.05.03.1.05.14.05.07-.01.1-.06.1-.1a.37.37 0 0 0 .02-.1v-.1h-.15Zm0-.06v.06h.16v-.06h-.15Zm-.14-.35.1.2c.03.07.05.11.05.15h.15a.55.55 0 0 0-.06-.2l-.1-.22-.14.07Zm-.06-.13.06.13.14-.07a5.65 5.65 0 0 1-.07-.13l-.13.07Zm.04-.38c-.04.05-.07.1-.08.17-.02.06 0 .13.04.21l.13-.07c-.03-.06-.03-.1-.03-.11 0-.03.02-.06.06-.11l-.12-.09Zm0 0 .12.09-.12-.09Zm0 0 .12.09-.12-.09Zm0 0 .12.09-.12-.09Zm.05-.08-.05.08.12.09.06-.1-.13-.07Zm.49.18a.59.59 0 0 0-.2-.24.23.23 0 0 0-.15-.04.2.2 0 0 0-.14.1l.13.08.03-.03.05.01c.05.04.11.11.14.18l.14-.06Zm.01.03-.01-.03-.14.06.01.03.14-.06Zm-.08-.16H5.6v.02a3.77 3.77 0 0 0 .02.17h.15a4.98 4.98 0 0 1-.02-.2h-.07ZM6 2.67l-.04-.06a1.91 1.91 0 0 0-.31.31.33.33 0 0 0-.04.08v.1l.14-.05.03-.05a1.9 1.9 0 0 1 .27-.27L6 2.67Zm.28.7.07-.01a.91.91 0 0 0-.01-.12c0-.07-.02-.17-.04-.26a.96.96 0 0 0-.1-.26c-.03-.07-.1-.15-.21-.13l.03.15s.03 0 .06.05.05.13.07.22a2.4 2.4 0 0 1 .05.35h.08Zm-.2.15-.02.07a.27.27 0 0 0 .01.01l.04.01h.1c.05 0 .1-.02.14-.08.02-.05.02-.12 0-.19l-.15.05c.02.06.01.08.01.08h-.07a.3.3 0 0 1-.03-.01l-.03.06Zm.15 1.09.07-.02a8.1 8.1 0 0 1-.17-1v-.01l-.05.02.01-.15a.1.1 0 0 0-.09.04.16.16 0 0 0-.02.06 3.52 3.52 0 0 0 .05.52 10.42 10.42 0 0 0 .12.55l.08-.01Zm.2.18a8.3 8.3 0 0 1-.05-.06.12.12 0 0 1-.02.02.1.1 0 0 1-.03.01c.01 0 0 0 0 0a.37.37 0 0 1-.03-.15h-.15c0 .1.02.17.05.22l.06.07.08.01a.2.2 0 0 0 .1-.04.3.3 0 0 0 .04-.03l-.05-.05Zm.15.3h.08a.9.9 0 0 0-.03-.19.36.36 0 0 0-.06-.14.15.15 0 0 0-.07-.05.14.14 0 0 0-.1 0l.06.15c-.01 0-.01 0 0 0l.03.07a.8.8 0 0 1 .02.16h.07Zm.27-.34-.07-.03a.89.89 0 0 1-.02.07l-.07.15a.4.4 0 0 1-.08.1h.03l-.12.1c.02.02.05.05.1.05.04 0 .07-.02.1-.04l.1-.14a1.81 1.81 0 0 0 .1-.24l-.07-.02Zm.33.22.06-.03a.5.5 0 0 0 0-.02 1.27 1.27 0 0 0-.12-.17.34.34 0 0 0-.14-.11.15.15 0 0 0-.1 0 .18.18 0 0 0-.09.06l.13.09v-.01h.01a.2.2 0 0 1 .07.06.86.86 0 0 1 .1.16l.08-.03Zm.28-.23-.06-.03a.42.42 0 0 1-.01 0 1.24 1.24 0 0 1-.1.15.27.27 0 0 1-.06.06c-.01 0-.01 0 0 0v.01l-.11.09c.02.03.05.05.08.06.04 0 .07 0 .1-.02a.4.4 0 0 0 .11-.1 1.16 1.16 0 0 0 .12-.18l-.07-.04Zm.12.2.03-.1v-.15a.1.1 0 0 0-.07-.04h-.07a.25.25 0 0 0-.05.03l.08.12h.02-.01a.06.06 0 0 1-.04-.03v-.01l-.01.05-.02.1.14.03Zm-.04.23c0-.06.02-.15.04-.23l-.14-.04c-.02.08-.05.18-.05.27h.15Zm-.28.36.13-.06a.32.32 0 0 0 .09-.07c.05-.06.06-.14.06-.23h-.15c0 .1-.01.12-.02.13l-.05.04a1.9 1.9 0 0 1-.12.06l.06.13Zm0 0L7.2 5.4h-.01l.06.14Zm-.32-.13a5.2 5.2 0 0 0-.07.03.12.12 0 0 0 .01.02.24.24 0 0 0 .08.09c.07.04.17.05.3 0l-.07-.14c-.09.04-.13.02-.15.01a.1.1 0 0 1-.03-.03l-.07.02Zm-.4.15.04.07.01-.01a2.58 2.58 0 0 1 .29-.14h.03l-.02-.02.11-.1a.11.11 0 0 0-.09-.03l-.07.01a2.45 2.45 0 0 0-.33.16l.03.06Zm-.22-.06-.06.05a.11.11 0 0 0 .01 0 .26.26 0 0 0 .07.07c.06.03.13.05.23.01l-.06-.14a.1.1 0 0 1-.1 0 .14.14 0 0 1-.03-.03l-.06.04Zm.02.64a9.58 9.58 0 0 1 .02-.6s-.01.02-.03.02h-.06v-.01l.11-.1a.1.1 0 0 0-.03-.02.08.08 0 0 0-.07 0 .1.1 0 0 0-.05.03l-.01.03a.66.66 0 0 0-.02.15v.5h.14Zm0 0H6.2h.15Zm0 0H6.2h.15Zm0 0H6.2h.15Zm0 0H6.2h.15Zm0 0H6.2h.15Zm0 0H6.2h.15Zm0 0H6.2h.15Zm0 0H6.2h.15Zm0 0H6.2h.15Zm0 0H6.2h.15Zm0 0H6.2h.15Zm0 0H6.2h.15Zm0 0H6.2h.15Zm0 0H6.2h.15Zm0 0H6.2h.15Zm0 0H6.2h.15Zm0 0H6.2h.15Zm0 0H6.2h.15Zm0 0H6.2h.15Zm0 0H6.2h.15Zm0 .2v-.2H6.2v.2h.15Zm-1.48 1.3c.35-.07.72-.25 1-.5.28-.22.48-.52.48-.8H6.2c0 .21-.16.47-.43.7-.26.22-.6.4-.93.45l.03.15ZM3.73 6.8c.02.18.11.42.3.6.18.17.46.28.83.22l-.03-.15a.78.78 0 0 1-.95-.68h-.15Zm.68-.64a.47.47 0 0 0 0 .06l.02.02.02.02a.08.08 0 0 0 .1-.01l.01-.03v-.01a1 1 0 0 0 .02-.12l-.15-.01a1 1 0 0 1 0 .1v-.03a.07.07 0 0 1 .1-.02.07.07 0 0 1 .03.04s0 .01 0 0v-.02l-.15.01Zm.05-.13c-.04.03-.05.08-.05.13h.15v-.02l-.1-.11Zm-.2-1 .01-.08a.14.14 0 0 0-.01 0h-.04a.5.5 0 0 0-.12 0 .93.93 0 0 0-.4.23l.1.11a.78.78 0 0 1 .33-.18.36.36 0 0 1 .11-.01l.02-.08Zm.2.03a.4.4 0 0 0-.13-.1.24.24 0 0 0-.07-.01v.15h.01c.02.01.05.03.08.07l.11-.1Zm-.44.46c.11-.03.24-.1.34-.16.04-.04.09-.08.11-.12a.17.17 0 0 0 .03-.08.13.13 0 0 0-.04-.1l-.1.1h-.01c0-.01 0 0 0 0a.31.31 0 0 1-.08.08c-.08.06-.2.11-.29.14l.04.14Zm-.43.2c.15-.08.3-.16.43-.2l-.04-.14c-.14.04-.3.12-.46.2l.07.13Zm0 0-.07-.14.07.13Zm-.22.1.22-.1-.07-.14-.21.1.06.14Zm.33-.64a4.12 4.12 0 0 0-.47.48.23.23 0 0 0-.03.07l.01.07c.02.03.05.04.07.04h.05l.04-.02-.06-.14-.02.01c-.01 0 0 0 0 0s.03 0 .05.03v.04l.02-.02a3.98 3.98 0 0 1 .44-.45l-.1-.1Zm-.5 1.94a.97.97 0 0 1 .1-.47 2.36 2.36 0 0 1 .14-.26l-.06-.05-.07-.03a1.59 1.59 0 0 0-.04.08l-.1.2a1.1 1.1 0 0 0-.11.55l.15-.02Zm.3.28a.2.2 0 0 1-.17-.03c-.05-.04-.1-.11-.12-.25l-.15.02c.02.17.1.29.19.35.1.07.2.08.28.06L3.5 7.4Zm.21-.27a19 19 0 0 1-.07-.01.35.35 0 0 1-.01.04l-.03.1a.45.45 0 0 1-.06.1l-.04.04.03.15c.06-.02.1-.06.14-.1a.6.6 0 0 0 .07-.13 1.1 1.1 0 0 0 .05-.17l-.08-.02Zm-.14-.04.01-.01.02.01a.26.26 0 0 1 .05.07 16.85 16.85 0 0 1 .13-.06.7.7 0 0 1-.02-.04.4.4 0 0 0-.05-.07.19.19 0 0 0-.1-.06.165.165 0 0 0-.15.05l.11.1Zm-.26-.2c-.01.06-.01.12.01.16.03.04.07.06.1.07a.21.21 0 0 0 .11-.01.22.22 0 0 0 .02 0 7.62 7.62 0 0 0-.06-.14h-.04v-.05l-.14-.02Zm.07-.55-.08.01v.02a3.96 3.96 0 0 1 0 .53l.15.02a2.07 2.07 0 0 0 0-.58h-.07ZM5.32 5.3s0-.01 0 0h.01a.22.22 0 0 1 .06-.03 15.28 15.28 0 0 1-.04-.14.38.38 0 0 0-.04.01.37.37 0 0 0-.07.04.17.17 0 0 0-.07.1c0 .04.02.1.05.13l.1-.11Zm.13.05h-.01a.19.19 0 0 1-.12-.05l-.1.1c.06.06.14.1.21.1.04 0 .08 0 .11-.03a.14.14 0 0 0 .06-.12h-.15Zm-.08-.15-.02.07a.14.14 0 0 1 .02 0l.04.03c.03.02.04.04.04.05h.15c0-.09-.07-.15-.11-.18a.43.43 0 0 0-.1-.04l-.02.07ZM9.54 5a.1.1 0 0 1-.08-.03.2.2 0 0 1-.05-.09.48.48 0 0 1-.01-.15h-.15a.89.89 0 0 0 0 .06c0 .03 0 .08.02.13.01.05.04.11.08.15.05.05.11.08.19.08V5Zm.28-.21c-.02 0-.04 0-.05-.02a.05.05 0 0 1-.01-.03v.02l-.04.1c-.04.07-.1.13-.18.14v.15c.16-.01.26-.13.31-.23.03-.05.05-.1.05-.14 0-.02.01-.05 0-.07a.1.1 0 0 0-.02-.04.09.09 0 0 0-.06-.03v.15Zm-.04 0h.04v-.15c-.03 0-.08 0-.12.02a.14.14 0 0 0-.07.14h.15Zm-.22.06.01.05.04.05c.02.02.05.02.07 0a.1.1 0 0 0 .04-.02.2.2 0 0 0 .06-.14h-.15v.03s-.01 0 0 0h.06c.02.01.02.03.02.03h-.15Zm.02-.05h-.02v-.02.07h.15c0-.04 0-.09-.02-.12a.12.12 0 0 0-.12-.08v.15Zm.04-.01v-.02l-.01.01a.05.05 0 0 1-.03.02v-.15a.1.1 0 0 0-.07.02.11.11 0 0 0-.03.05l-.01.06h.15Zm-.14.07s.02.02.05.02a.08.08 0 0 0 .08-.05v-.04l-.14-.01.02-.03a.07.07 0 0 1 .08 0h.01l-.1.1Zm-.04-.08v.03l.04.05.1-.11s0 .01 0 0l-.14.03Zm-.01-.01h.01s0-.01 0 0l.15-.02c0-.02-.01-.06-.04-.09s-.08-.04-.13-.04v.15Zm-.1-.04h.07a.07.07 0 0 1-.01.03l-.01.02.05-.01V4.6c-.07 0-.1.01-.14.03a.1.1 0 0 0-.04.04.09.09 0 0 0 0 .04h.07Zm2.54-.84h-.07v.02a.69.69 0 0 0 .02.18c.01.05.04.1.08.15.05.04.11.07.2.07l-.01-.15a.1.1 0 0 1-.08-.03.2.2 0 0 1-.05-.09.48.48 0 0 1-.01-.14h-.08Zm.1-.11c-.05 0-.1.01-.13.03a.1.1 0 0 0-.03.04.1.1 0 0 0-.01.04h.15a.07.07 0 0 1 0 .03l-.02.02.05-.01v-.15Zm.17.13c0-.02-.01-.05-.04-.08-.03-.04-.08-.05-.13-.05v.15H12h-.01v.01l.15-.03Zm0 0v.01-.01l-.15.03.01.03.03.05.1-.11Zm-.12.03c0 .01 0 0 0 0l.03-.03a.07.07 0 0 1 .07 0h.01l-.1.1c0 .01.02.03.05.03a.08.08 0 0 0 .08-.04v-.04l.01-.01-.15-.01Zm.1-.13a.1.1 0 0 0-.06.02.1.1 0 0 0-.03.05v.06h.14v-.01.01a.05.05 0 0 1-.04.02V3.8Zm.14.2c0-.04 0-.09-.02-.12a.12.12 0 0 0-.12-.08v.15l-.01-.01V4l.15-.01Zm-.08-.05v.02h.05c.02.01.02.03.02.03h-.14v.05c0 .02.02.04.04.05.03.02.05.02.07.01a.1.1 0 0 0 .05-.02.2.2 0 0 0 .05-.15l-.15.01Zm.19-.16c-.03 0-.08 0-.11.02a.14.14 0 0 0-.08.14h.15c0-.01 0-.01 0 0h.01l.03-.01V3.8Zm-.28.5c.16 0 .26-.12.32-.22l.05-.14v-.07a.1.1 0 0 0-.03-.04.09.09 0 0 0-.06-.03v.15c-.02 0-.03 0-.05-.02a.05.05 0 0 1-.01-.02c0 .03-.02.07-.04.1-.04.08-.1.14-.18.15v.15ZM6.6 5.76a.52.52 0 0 0-.06.07.16.16 0 0 0-.04.09c0 .04.02.07.04.1a.3.3 0 0 0 .08.05l.07-.13a.17.17 0 0 1-.04-.03v.02l.01-.01.05-.05-.1-.1Zm.45.2a1.04 1.04 0 0 0-.2-.2.24.24 0 0 0-.11-.05c-.05 0-.1.02-.13.05l.1.11h.02l.04.01.16.17.12-.1Zm-.02.4c.03-.04.07-.1.08-.17a.27.27 0 0 0-.06-.23l-.12.1c.04.04.04.07.03.1 0 .04-.03.07-.06.12l.13.08ZM7 6.4l.03-.05-.13-.08c0 .02-.02.04-.03.05L7 6.4Zm-.28-.08c-.03.03-.04.08-.01.13.02.04.07.06.1.06.07 0 .15-.03.2-.11l-.14-.08a.06.06 0 0 1-.05.04l.02.01v.03l-.12-.08Zm-.1-.26c.03.02.07.07.09.13l.02.09-.01.04.12.08a.22.22 0 0 0 .04-.13.43.43 0 0 0-.03-.13.38.38 0 0 0-.16-.21l-.07.13Zm8-.45a.17.17 0 0 1-.03-.03v.02l.05-.06-.1-.1a.52.52 0 0 0-.06.06.16.16 0 0 0-.04.1c0 .03.02.06.04.09a.3.3 0 0 0 .08.05l.07-.13Zm.03.5a.54.54 0 0 0 .08-.24l-.01-.14a.19.19 0 0 0-.1-.12l-.06.13.01.03.01.08a.4.4 0 0 1-.05.17l.12.09Zm.04 0h-.03V6.1l-.13-.08a.14.14 0 0 0-.01.14c.01.04.04.06.08.08.03.02.07.03.11.02.05-.01.09-.04.11-.08l-.13-.08Zm.01-.02v.01l.12.08.01-.02-.13-.07Zm.07-.35c.04.15-.01.25-.07.35l.13.07c.06-.1.14-.25.09-.46l-.15.04Zm-.13-.2h.01l.03.01c.03.04.07.1.1.19l.14-.04a.57.57 0 0 0-.13-.25.2.2 0 0 0-.12-.06c-.05 0-.1.01-.13.04l.1.11Zm1.28-2.32a.52.52 0 0 0-.07.07.16.16 0 0 0-.04.08c0 .04.02.08.04.1a.3.3 0 0 0 .08.06l.07-.14a.17.17 0 0 1-.04-.02v.01h.01c0-.02.02-.03.05-.05l-.1-.11Zm.37.26a.57.57 0 0 0-.13-.25.2.2 0 0 0-.11-.06c-.05 0-.1.01-.13.05l.1.1h.01l.03.02c.03.03.06.1.09.18l.14-.04Zm-.08.46c.05-.1.13-.25.08-.46l-.14.04c.03.15-.02.25-.08.35l.14.07Zm-.01.02v-.02l-.13-.07v.02l.13.07Zm-.3-.16a.14.14 0 0 0-.01.14c.02.04.05.07.08.08.03.02.07.03.12.02.04 0 .08-.04.1-.08l-.13-.07h-.03l-.13-.09Zm.03-.27.02.02v.09a.4.4 0 0 1-.05.16l.13.09a.54.54 0 0 0 .07-.24V3.5a.19.19 0 0 0-.1-.12l-.07.14Zm-4.03-.65a.17.17 0 0 1-.04-.02c0 .02 0 .02 0 0 .02 0 .03-.02.05-.04l-.1-.12a.52.52 0 0 0-.06.07.16.16 0 0 0-.04.1c0 .03.02.06.04.09a.3.3 0 0 0 .08.05l.07-.13Zm.2.62a.17.17 0 0 0 .03-.08v-.08A.9.9 0 0 0 12 3a.32.32 0 0 0-.11-.12l-.07.13.05.07a.76.76 0 0 1 .1.32v.01l.12.09Zm.03-.08a.06.06 0 0 1-.05.03l.01.02c.02.02 0 .04.01.03l-.12-.09c-.03.04-.04.09-.01.14.02.04.07.05.1.05.07 0 .15-.03.2-.1l-.14-.08Zm0-.43c.05.06.06.14.06.22-.01.09-.04.17-.06.21l.13.07a.7.7 0 0 0 .08-.27c0-.1-.01-.22-.09-.32l-.11.1Zm-.22-.17.02-.01c.01 0 .03 0 .05.02l.16.16.11-.09a1.04 1.04 0 0 0-.18-.2.24.24 0 0 0-.12-.04c-.05 0-.1.01-.14.04l.1.12Zm-1.55 2.16v.05L10.4 5l.08-.04-.06-.13-.1.04a.4.4 0 0 0-.06.05.1.1 0 0 0-.05.09c0 .05.03.08.06.1l.08-.13Zm.12.06c0-.03.02-.04.02-.04h-.03a.22.22 0 0 1-.1-.02l-.1.12c.06.04.13.05.2.06.02 0 .06 0 .09-.02.03-.01.07-.04.07-.1h-.15Zm0-.04v.04h.15v-.03L10.47 5Zm.01-.04a.1.1 0 0 1 .02 0 .04.04 0 0 1-.03-.02V5l.15.01v-.06a.2.2 0 0 0 0-.07.11.11 0 0 0-.1-.07c-.03 0-.07 0-.1.02l.06.13Zm-1.07 1.1L9.4 6a.39.39 0 0 1-.02 0 1.08 1.08 0 0 1-.22.03v.15a1.4 1.4 0 0 0 .26-.03h.01l-.02-.07Zm.35-.04a2.54 2.54 0 0 1-.33-.03l-.02.08v.07a3.17 3.17 0 0 0 .35.03v-.15Zm-.02.36c.05-.02.1-.05.12-.08a.23.23 0 0 0 .07-.11c.01-.05 0-.1-.04-.13a.2.2 0 0 0-.13-.04v.15h.03v-.01l-.03.03a.33.33 0 0 1-.09.06l.07.13Zm-.16.18.03-.1.13-.08-.07-.13a.46.46 0 0 0-.18.13c-.04.05-.05.1-.06.15l.15.03Zm0 .03v-.03l-.15-.03v.03l.14.03Zm-.29.23c.04.01.08.02.12 0 .04 0 .07-.02.1-.05a.26.26 0 0 0 .04-.09l.02-.09-.14-.03-.02.08-.02.04h-.05l-.05.14Zm-.37-.57.14.32.1.15a.3.3 0 0 0 .13.1l.05-.15c-.01 0-.03-.01-.06-.05a3.05 3.05 0 0 1-.21-.43l-.15.06Zm0-.02v.02l.14-.05v-.03l-.15.06ZM9.07 6H9c-.02 0-.05 0-.08.03a.11.11 0 0 0-.04.1l.02.09.14-.06a.3.3 0 0 1-.01-.04.04.04 0 0 1-.02.03h.05L9.07 6Zm.08 0a1 1 0 0 1-.08 0v.15h.08v-.14ZM7.44 2.73l.01.03v.1a.4.4 0 0 1-.02.12s0-.02.04-.02v.15c.05 0 .07-.03.08-.04A.23.23 0 0 0 7.58 3a.56.56 0 0 0 .02-.29.203.203 0 0 0-.1-.13l-.06.14Zm-.32.06h.01a.24.24 0 0 1 .09-.05.56.56 0 0 1 .13-.02l.1.01.05-.14a.4.4 0 0 0-.15-.02c-.06 0-.12.01-.17.03a.39.39 0 0 0-.15.07.17.17 0 0 0-.05.17l.14-.05Zm.07.12a.46.46 0 0 1-.07-.12l-.14.05.09.16.12-.1Zm.05.4a.24.24 0 0 0 .05-.12v-.11c-.02-.07-.07-.13-.1-.17L7.07 3a.5.5 0 0 1 .07.12v.04a.1.1 0 0 1-.02.04l.12.1Zm-.62.54.11-.08a7.02 7.02 0 0 0 .5-.47l-.1-.1a3.63 3.63 0 0 1-.59.52l.08.13Zm-.03.02.03-.02-.08-.13-.02.02.07.13Zm-.16 0c-.01 0-.01 0 0 0l.02.02c.01.01.02.03.01.04v.03-.01l.13-.08-.07-.13-.15.1a.24.24 0 0 0-.03.02l-.03.07c0 .01 0 .03.02.05a.1.1 0 0 0 .04.03h.06v-.14Zm.14 0h-.14V4h.13l.01-.14Zm0 0-.01.16.02-.15Zm.27 0a2.55 2.55 0 0 1-.26 0l-.02.16h.17l.15-.01-.04-.15ZM7 3.68a2.87 2.87 0 0 1-.17.18l.04.15.07-.04A.63.63 0 0 0 7 3.9l.12-.13-.12-.1Zm.26-.26c-.09.06-.18.17-.26.26l.12.1c.08-.1.16-.2.23-.24l-.09-.12Zm.15-.25-.01-.02v.02c0 .02 0 .05-.02.08a.34.34 0 0 1-.12.17l.09.12a.5.5 0 0 0 .2-.36v-.06a.11.11 0 0 0-.04-.06l-.1.11Zm-.04-.01a.84.84 0 0 1 .04.02l.1-.12a.17.17 0 0 0-.04-.02l-.04-.02-.06.14ZM7.2 2.9a.13.13 0 0 0 0 .1c0 .04.03.06.05.08l.13.07.06-.14a.46.46 0 0 1-.1-.05s0-.01 0 0L7.2 2.9Zm.23.03c0-.02 0-.04-.02-.06a.12.12 0 0 0-.05-.06.1.1 0 0 0-.05 0 .1.1 0 0 0-.06.01.2.2 0 0 0-.05.08l.14.06v-.02l-.02.01H7.3a.04.04 0 0 1-.01-.02h.15Zm.04.01h-.01a.1.1 0 0 1-.04-.02v.01h-.14c0 .03 0 .06.02.07l.04.05c.04.02.08.04.13.04v-.15Zm-.19 1.3.13-.05-.05-.14-.13.04.05.14Zm-.2-.14c.03.06.07.1.1.12a.18.18 0 0 0 .08.02V4.1l-.03-.04-.14.05Zm.03-.17L7.1 4a.2.2 0 0 0 0 .1l.14-.05v-.02L7.26 4l-.14-.05Zm.05 0h-.02l-.01-.03-.02.04.14.05.02-.04v-.06a.1.1 0 0 0-.03-.07.12.12 0 0 0-.08-.03v.15Zm-.13.21A.7.7 0 0 1 7.1 4a.2.2 0 0 1 .04-.05h.02v-.16a.18.18 0 0 0-.11.05.36.36 0 0 0-.08.08.84.84 0 0 0-.08.18l.14.05Zm.17.18a.65.65 0 0 1-.13-.1.2.2 0 0 1-.03-.06v-.02l-.15-.05c-.02.05 0 .1 0 .13l.07.1.16.13.08-.13Zm.18-.13a.85.85 0 0 1-.12.11c-.05.03-.06.02-.06.02l-.08.13c.08.05.16.02.22-.02l.15-.14-.1-.1Zm0-.07-.01.07.03.01c0-.02 0-.02-.02 0l.11.1a.16.16 0 0 0 .05-.11.13.13 0 0 0-.05-.1.22.22 0 0 0-.1-.04v.08Zm5.7 2.14c-.05.12-.1.28-.1.43-.02.15 0 .3.07.4l.12-.08a.507.507 0 0 1-.05-.3c.01-.14.05-.28.1-.38l-.13-.07Zm.23.14a3.45 3.45 0 0 0-.01-.22s-.03-.05-.08-.05h-.05a.12.12 0 0 0-.02.03.47.47 0 0 0-.06.1l.13.07a.71.71 0 0 1 .04-.06v-.01l-.05.02a.07.07 0 0 1-.04-.03l-.01-.01v.15h.15Zm0 .17V6.4h-.15v.17h.14Zm.13.34a.6.6 0 0 1-.1-.13.48.48 0 0 1-.04-.21h-.15c0 .11.02.2.05.27.04.07.08.12.13.17l.1-.1Zm0 0-.12.1.12-.1Zm.07.1-.07-.1-.12.1.08.09.11-.1Zm.1-.06a.13.13 0 0 1-.04.1l-.06-.04-.11.09c.03.05.08.08.13.1.05 0 .1-.01.13-.04a.28.28 0 0 0 .1-.2h-.15Zm.4-.78a2.03 2.03 0 0 0-.35.62.95.95 0 0 0-.03.09l-.02.07h.15l.01-.03.03-.07a2.38 2.38 0 0 1 .33-.58l-.11-.1Zm.44.05c0-.08-.07-.15-.15-.17-.09-.02-.19.02-.28.12l.1.1c.08-.08.13-.08.15-.07.02 0 .03.02.03.02h.15Zm.28.27a.56.56 0 0 1-.28-.27h-.15v.06l.03.05a.71.71 0 0 0 .36.3l.04-.14Zm.23-.34-.08-.01v.01a1.45 1.45 0 0 1-.05.2.4.4 0 0 1-.06.12c-.02.03-.03.03-.04.02l-.04.15c.08.02.15-.02.2-.07a.54.54 0 0 0 .08-.17 1.33 1.33 0 0 0 .06-.22v-.02l-.07-.01Zm-.08-1.43v1.43h.15V4.73h-.15Zm-.16-.5a.3.3 0 0 1 .1.12c.04.07.06.18.06.38h.15c0-.21-.02-.35-.07-.44-.04-.1-.1-.14-.15-.18l-.09.12Zm-.06-.06.06.06.1-.12a.38.38 0 0 1-.05-.04l-.11.1Zm-.15-.14.15.14.1-.1-.15-.15-.1.11Zm0 0 .1-.1-.1.1Zm-.38-.4.17.2.21.2.1-.1-.2-.2a1.44 1.44 0 0 1-.15-.18l-.13.09ZM14.04 3v.35c.02.11.04.22.1.3l.12-.09a.49.49 0 0 1-.06-.22V3h-.16Zm0 0h.15-.15Zm0 0h.15-.15Zm0 0h.15-.15Zm0-.13V3h.15v-.13h-.15Zm.62.24a1.42 1.42 0 0 0-.38-.38.23.23 0 0 0-.1-.03.12.12 0 0 0-.1.05.2.2 0 0 0-.04.12h.15v-.03h-.01l.03.02.06.04c.1.09.22.22.26.29l.13-.08Zm.03.3.02-.13c0-.06-.02-.1-.05-.17l-.13.08.03.09-.02.1.15.03Zm-.02.12c0-.04 0-.08.02-.12l-.15-.04-.02.16h.15Zm-.03 0-.01.03h.03l.01.01v-.04h-.15c0 .05 0 .09.03.12.02.04.07.06.11.06.05-.01.08-.04.1-.07a.2.2 0 0 0 .03-.1h-.15Zm0-.09v.1h.15l-.01-.1h-.15Zm0 0h.14-.15Zm.13-.64a.21.21 0 0 0-.11.13.62.62 0 0 0-.04.17l.01.34h.15V3.1c0-.05 0-.1.02-.13l.03-.04-.06-.14Zm.32.25-.05-.13a.35.35 0 0 0-.05-.09.16.16 0 0 0-.1-.05c-.04 0-.08 0-.12.02l.06.14.04-.01.04.06.04.1.14-.04Zm.08.19-.08-.2-.14.06.08.2.14-.06Zm.04.47c.02-.06.03-.12.03-.2a.73.73 0 0 0-.07-.27l-.14.06c.05.1.06.16.06.21 0 .06 0 .1-.02.17l.14.03Zm-.03.24c0-.1.01-.17.03-.24l-.14-.03c-.02.07-.04.15-.04.27h.15Zm.26.52a1.82 1.82 0 0 1-.18-.24.56.56 0 0 1-.08-.28h-.15c0 .13.04.25.1.36.06.1.14.19.2.26l.11-.1Zm.1.13-.1-.13-.11.1.08.1.13-.07Zm-.33-.9a4.23 4.23 0 0 1 .2.92h.01V4.6c.01-.01.03-.04.07-.04.03 0 .04.02.05.02v.01l-.13.08.02.02.06.02c.04 0 .06-.02.07-.04a.1.1 0 0 0 0-.03 3.28 3.28 0 0 0-.23-1.05l-.12.1Zm.13-.94c-.1.13-.17.3-.2.47-.02.17 0 .34.07.46l.13-.08c-.05-.07-.07-.2-.04-.35.02-.15.08-.3.16-.4l-.12-.1Zm.45.28-.07-.16a.65.65 0 0 0-.08-.14.175.175 0 0 0-.14-.07c-.07 0-.12.04-.16.09l.12.1c.03-.05.04-.04.04-.04l.02.02.07.1.06.16.14-.06Zm.08.19-.08-.19-.14.06.1.2.12-.07Zm-.08.51c.03-.05.09-.12.12-.2a.38.38 0 0 0-.04-.31l-.13.07c.04.08.04.14.02.19a.56.56 0 0 1-.1.16l.13.1Zm-.04.06a.87.87 0 0 1 .04-.06l-.12-.09-.05.06.13.09Zm.03.13a.7.7 0 0 1-.03-.1V3.8l-.13-.09a.19.19 0 0 0-.02.14c0 .05.03.1.04.13l.14-.05Zm.1.5c0-.23-.06-.39-.1-.5l-.14.05c.04.11.1.25.1.44h.14Zm.38 1.05c-.23-.3-.38-.68-.38-1.06h-.15a2 2 0 0 0 .4 1.15l.13-.09Zm.33 1.04c-.05-.35-.1-.72-.33-1.04l-.12.1c.2.28.25.6.3.96l.15-.02Zm0 .06V6.5l-.15.02v.06l.16-.02Zm-.14-1.04a8.22 8.22 0 0 1 .03 1.1l.01-.03a.07.07 0 0 1 .11.02.7.7 0 0 1 0-.05l-.15.02v.06l.02.05.02.02a.08.08 0 0 0 .12-.03l.02-.04v-.28c0-.26 0-.62-.03-.86l-.15.02Zm-.17-2.62a3.1 3.1 0 0 0-.01.54 40.79 40.79 0 0 0 .18 2.08l.15-.02a40.6 40.6 0 0 1-.18-2.07l.01-.5-.15-.03Zm.33.02-.06-.13a.46.46 0 0 0-.03-.05.16.16 0 0 0-.04-.05.1.1 0 0 0-.1 0 .12.12 0 0 0-.05.05.6.6 0 0 0-.05.16l.15.03a.94.94 0 0 1 .03-.12h-.01l-.04.01h-.02s0-.01 0 0l.03.03.05.12.14-.05Zm0 0-.14.06.13-.07Zm.14.28c-.06-.07-.1-.18-.14-.28l-.14.05c.04.1.09.23.15.32l.13-.09Zm.03.05-.03-.05-.13.09.04.05.12-.09Zm.07.42c.04-.06.08-.12.06-.2a.32.32 0 0 0-.05-.1l-.08-.12-.12.09a2.35 2.35 0 0 1 .1.16l-.04.09.13.08Zm-.2.09h.09a.2.2 0 0 0 .1-.1l-.12-.07-.02.02h-.01l-.04.15Zm.05-.03v-.01l-.02.02a.06.06 0 0 1-.03.01l.04-.14h-.03a.1.1 0 0 0-.1.07v.05h.14Zm.05.47-.04-.32v-.15h-.16c0 .03 0 .09.02.17l.03.32.15-.02Zm.2 2.2c0-.55-.13-1.6-.2-2.2l-.15.02c.08.6.2 1.64.2 2.17h.15Zm-.8 1.25c.18-.07.38-.18.54-.38.15-.2.26-.48.26-.88h-.15c0 .37-.1.62-.23.79-.13.17-.31.27-.48.33l.06.14Zm-.65-.2c0 .1.08.2.2.23.1.05.26.04.45-.03l-.06-.14c-.16.06-.28.06-.35.03-.07-.02-.09-.06-.09-.09h-.15Zm.01.08a1.2 1.2 0 0 1 .06-.04h-.01c-.01 0-.03 0-.04-.02a.05.05 0 0 1-.02-.02h.15c0-.02 0-.06-.03-.09-.04-.03-.09-.02-.1-.01a.25.25 0 0 0-.06.03l-.04.04.1.11Zm-.24.13c.06 0 .1-.03.14-.05l.1-.08-.1-.11a.91.91 0 0 1-.08.06l-.06.03v.15Zm-.06-.41a.65.65 0 0 0-.09.23c0 .04 0 .08.03.12.03.04.08.06.12.06v-.15c-.01 0 0 0 0 0v-.01c0-.04.03-.1.07-.18l-.13-.07Zm.05-.01-.01-.01a.06.06 0 0 1-.01-.04v.01l-.03.05.13.07a.67.67 0 0 0 .03-.06l.02-.05a.1.1 0 0 0-.02-.07l-.03-.03-.08.13Zm-.06-.12c0 .03 0 .06.02.08l.04.04.08-.13.01.01h-.15Zm.2-.24c-.04 0-.07 0-.1.02a.16.16 0 0 0-.08.07c-.02.05-.02.12-.02.15h.15v-.05a.1.1 0 0 1 0-.03h.01l.04-.01V6.9Zm.18.29a.35.35 0 0 0 .06-.13v-.07a.12.12 0 0 0-.04-.06.2.2 0 0 0-.1-.03h-.1v.15a.86.86 0 0 1 .1 0c.01 0 .01 0 0 0v-.02l-.04.07.12.09Zm-.07 0-.01-.01.03.02v.05h.01c0-.02.02-.04.04-.06l-.12-.09-.05.07-.02.06a.09.09 0 0 0 .05.1h.05l.02-.15Zm.17.05c-.07-.05-.14-.05-.17-.06l-.02.15c.03 0 .07 0 .11.04l.08-.13Zm.07.04c.01 0 0 0 0 0l-.07-.04-.08.13a1.45 1.45 0 0 0 .13.06l.02-.15Zm.1.04a.27.27 0 0 0-.1-.04l-.02.15.04.02.07-.13Zm.57-.4a3.7 3.7 0 0 1-.52.4h-.06l-.07.13c.06.04.12.03.18 0a.8.8 0 0 0 .17-.09c.13-.08.27-.2.4-.33l-.1-.11Zm.01-.14.06.03h.02l-.01.02a.41.41 0 0 1-.08.09l.1.1a.55.55 0 0 0 .1-.12.16.16 0 0 0 .03-.13.17.17 0 0 0-.08-.09l-.08-.04-.06.14Zm-.13-.08.07.05.06.03.06-.14a.64.64 0 0 1-.05-.02.1.1 0 0 1-.03-.02l-.1.1Zm-.17-.28c.03.06.06.12.1.16l.07.12.11-.1a9.26 9.26 0 0 1-.16-.25l-.12.07Zm0 0 .13-.07-.14.07Zm0 0 .12-.07-.13.07Zm0 0 .12-.07-.13.07Zm-.21-.31.03.03.05.08.13.2.12-.07a7.84 7.84 0 0 0-.24-.36l-.1.12Zm.11.1a1.43 1.43 0 0 1-.01-.14v.02c-.01 0-.03.03-.06.03l-.04-.01.09-.12a.1.1 0 0 0-.06-.02.08.08 0 0 0-.07.05l-.01.04v.03c0 .04 0 .1.02.15l.14-.03Zm0 .42a.21.21 0 0 0 .03-.1v-.1l-.03-.22-.14.03a2.33 2.33 0 0 1 .02.28v.02l.12.09Zm-.39.28c.04 0 .08-.01.1-.03a.9.9 0 0 0 .28-.25l-.12-.09a.75.75 0 0 1-.25.22v.15Zm0-1.48h-.07v.05a34.58 34.58 0 0 0-.03 1.3l.02.06s0 .02.02.03c0 .01.03.03.06.03v-.15c.03 0 .05.02.05.03 0 0 .01 0 0 0v-.16a9.38 9.38 0 0 1 .02-1.13v-.05l-.07-.01Zm-.3-.4V5l-.02.04c-.03.03-.06.01-.06.01-.01 0-.01 0 0 0l.11.13a5.8 5.8 0 0 1 .2.25v.02h.01l.06-.04.06-.04v-.01a2.01 2.01 0 0 0-.07-.09 5.92 5.92 0 0 0-.32-.36c-.01 0-.06-.02-.1.02a.09.09 0 0 0-.02.04V5l.01.05.15-.04Zm-.28 2c.04-.05.07-.1.09-.17l.07-.24a6.04 6.04 0 0 0 .13-1.6l-.15.05.02.12v.22A7.45 7.45 0 0 1 15 6.8a.4.4 0 0 1-.06.11l.11.1Zm-.83-.25c.06.1.2.22.36.3.14.06.34.1.47-.06l-.1-.1c-.07.08-.18.08-.31.02a.74.74 0 0 1-.29-.24l-.13.08Zm-.13.15a.37.37 0 0 1 .1-.17v-.01l.03.03.13-.08c-.03-.05-.07-.09-.12-.1a.16.16 0 0 0-.14.04.5.5 0 0 0-.14.25l.14.04Zm-.42.74a.85.85 0 0 0 .3-.38c.06-.14.1-.28.12-.36l-.14-.04c-.03.08-.06.21-.12.34a.7.7 0 0 1-.24.3l.08.14Zm-.54-.39c.06.1.12.23.2.31.04.05.09.09.15.1.06.02.13.01.19-.02l-.08-.13c-.03.02-.05.02-.07.01a.19.19 0 0 1-.08-.06 1.42 1.42 0 0 1-.17-.28l-.14.07Zm-.09-.16.1.16.13-.07-.1-.18-.13.09Zm.99-1.68a4.47 4.47 0 0 1 .46-.34l-.04-.07-.04-.06-.02.01a7.66 7.66 0 0 0-.48.37l.12.09Zm-.03.09A.06.06 0 0 1 14 5.5l.01-.02.04-.05-.12-.1a.31.31 0 0 0-.08.16c0 .03 0 .07.03.1a.2.2 0 0 0 .08.06l.06-.13Zm.52-.27a1.04 1.04 0 0 1-.5.26H14l-.06.14c.02.01.05.02.08.01a.4.4 0 0 0 .08 0l.19-.08c.12-.05.26-.14.34-.23l-.11-.1Zm.18-.3c0 .01 0 .04-.03.1-.03.06-.08.13-.15.2l.1.1a.76.76 0 0 0 .18-.23c.04-.07.07-.16.03-.24l-.13.07Zm-.25.07.04.06a.5.5 0 0 1 .04-.03.98.98 0 0 1 .09-.05.32.32 0 0 1 .08-.03c.03 0 0 0 0-.02l.13-.07c-.04-.07-.11-.07-.15-.06a.46.46 0 0 0-.13.05 1.14 1.14 0 0 0-.13.08h-.01v.01l.04.06Zm-.59-.9-.02-.07a.3.3 0 0 0-.05.02.33.33 0 0 0-.09.06.2.2 0 0 0-.06.14c0 .06.03.12.08.18l.11-.1-.04-.08s0-.02.02-.03a.18.18 0 0 1 .07-.05l-.02-.07Zm.33.06a.61.61 0 0 0-.32-.13v.14h-.01a.1.1 0 0 1 .01 0h.06c.04.02.1.05.16.1l.1-.12Zm-.07-.02a1.16 1.16 0 0 1 .01.07l.03-.03a.06.06 0 0 1 .04 0l-.01-.02-.1.12.08.04a.1.1 0 0 0 .07-.01.1.1 0 0 0 .03-.05l.01-.07v-.07l-.16.02Zm.02-.28a.36.36 0 0 0-.03.15l.01.13.15-.02v-.22l-.13-.05Zm.49.22a.54.54 0 0 0-.2-.27.25.25 0 0 0-.15-.05.16.16 0 0 0-.14.1l.13.06.01-.01.06.02a.4.4 0 0 1 .14.2l.15-.05Zm-.14.24.06-.01c.02 0 .05-.02.07-.05a.14.14 0 0 0 .03-.08l-.02-.1-.15.04.02.06v-.02h-.03l.02.16Zm-.07.01.07-.01-.02-.15c-.02 0-.07 0-.11.03l.06.13Zm.02.25a1.29 1.29 0 0 1-.03-.2v-.04c.01-.01.01 0 0 0l-.05-.14a.15.15 0 0 0-.08.08.3.3 0 0 0-.02.1l.03.22.15-.02Zm.02.22-.02-.22-.15.02.02.2h.15Zm-.74-.37c.08.1.24.25.38.36.06.05.13.1.19.12.02.01.07.02.1 0 .06-.02.07-.07.07-.1h-.15s0-.02.02-.03c.02-.01.03 0 0-.01a2.93 2.93 0 0 1-.5-.44l-.11.1ZM8.7 9.91c-.5.06-3.07.05-3.84-.13-.17-.04-.07.74.04.92.11.18.99.36 1.3.4.25.04 1.26-.01 2.3-.07l.52-.03c.92-.05 2.26.04 2.96.08l.44.03c.22 0 .2.07.17.21l-.01.04c-.04.17.15.54.24.58.08.03.71 0 1.06-.13.2-.08.22-.07.27-.05.04.02.09.05.25.05.23 0 .24-.34.25-.58 0-.13.01-.23.05-.23s.1.13.15.25c.09.18.16.34.16 0 0-.55-.66-1.29-.87-1.23-.15.04-.4 0-.57-.03l-.15-.03c-.05 0-.03 0 0-.03s.1-.08.1-.15c0-.14-.13-.16-.24-.16-.1 0-.16.09-.16.16 0 .06.08.13.08.13h-.24c-.86-.01-3.81-.05-4.25 0Zm4.35 1.18s.06-.04.22-.23c.17-.22.24-.15.3-.08.03.04.07.08.12.08.14 0 .34 0 .47.1.12.11-.17.26-.26.26-.04 0-.07-.03-.1-.05-.03-.03-.07-.06-.11-.06-.05 0-.1.04-.13.07l-.06.04a.3.3 0 0 1-.1-.04.64.64 0 0 0-.27-.1l-.08.01Z" fill="#fff"/><path d="m4.86 9.78.02-.05-.02.05Zm3.85.13v.05-.05Zm-3.8.8.03-.03-.04.02Zm1.28.4v.05-.05Zm2.32-.08v-.05.05Zm.51-.03v-.05.05Zm2.96.08v-.05.05Zm.6.24.06.01h-.05Zm0 .04.05.01h-.05Zm.24.58.02-.05-.02.05Zm1.06-.13.02.04-.02-.04Zm.27-.05-.02.05.02-.05Zm.5-.53h-.05.05Zm.2.02-.04.02.04-.02Zm-.71-1.23.01.05-.01-.05Zm-.57-.03v.05-.05Zm-.16-.06-.03-.04.03.04Zm-.21-.02v.05h.13l-.1-.09-.03.04Zm-.24 0v.05-.05Zm.31.95.04.03-.04-.03Zm-.22.23.04-.02-.04.02Zm.52-.3-.04.03.04-.04Zm.59.18.03-.04-.03.04Zm-.36.2.03-.04-.03.04Zm-.24.01.03.04-.03-.04Zm-.15 0-.03.04.03-.04ZM4.85 9.82c.4.1 1.23.15 2.03.17.8.01 1.58 0 1.83-.03v-.1c-.26.03-1.02.04-1.83.03-.8-.02-1.63-.07-2-.16l-.03.1Zm.1.86a.79.79 0 0 1-.08-.21 2.3 2.3 0 0 1-.04-.58l.02-.06.03-.1a.1.1 0 0 0-.06 0 .1.1 0 0 0-.05.04.25.25 0 0 0-.04.1 2.4 2.4 0 0 0 .04.62c.03.1.06.19.09.24l.08-.05Zm1.25.38a6.48 6.48 0 0 1-1.07-.27.85.85 0 0 1-.13-.06.19.19 0 0 1-.06-.05l-.08.05c.02.03.05.06.09.08l.14.07a6.56 6.56 0 0 0 1.1.27v-.1Zm2.3-.08-1.45.07a7 7 0 0 1-.85 0l-.02.1c.14.02.46.02.88 0l1.45-.07v-.1Zm.52-.03-.52.03v.1l.53-.03v-.1Zm2.96.08c-.7-.04-2.04-.13-2.96-.08v.1c.92-.05 2.25.04 2.95.08l.01-.1Zm.44.03-.44-.03v.1l.44.03v-.1Zm.22.27.01-.1v-.1a.14.14 0 0 0-.1-.06.46.46 0 0 0-.13-.01v.1h.1l.03.02v.04l-.01.1.1.01Zm-.01.04v-.04l-.1-.02v.04l.1.02Zm.2.52-.01-.01a.98.98 0 0 1-.18-.37.33.33 0 0 1-.01-.14l-.1-.02c-.01.06 0 .12.01.18a1.07 1.07 0 0 0 .2.42l.06.03.04-.09Zm1.03-.13a2.56 2.56 0 0 1-1.02.13l-.04.1h.07l.1.01a3.15 3.15 0 0 0 .93-.15l-.04-.1Zm.3-.04-.04-.02h-.06c-.04 0-.1.02-.2.06l.04.1c.1-.05.14-.06.17-.06h.06l.04-.08Zm.24.04-.16-.02a.32.32 0 0 1-.07-.02l-.04.09.09.03.18.02v-.1Zm.2-.53c0 .12 0 .26-.04.36a.3.3 0 0 1-.06.12.13.13 0 0 1-.1.05v.1c.07 0 .13-.03.17-.08.04-.04.07-.1.09-.16.03-.12.04-.27.04-.39h-.1Zm.1-.28c-.04 0-.06.02-.07.04l-.02.07v.17h.1a1.58 1.58 0 0 1 .01-.2s0 .02-.02.02v-.1Zm.2.27-.08-.17a.4.4 0 0 0-.05-.06.084.084 0 0 0-.07-.04v.1c-.01 0-.01-.01 0 0l.03.05.08.17.09-.05Zm.06.03-.01.16.03-.01H15v-.01a.46.46 0 0 1-.03-.04l-.06-.13-.1.05a2.86 2.86 0 0 0 .1.17c0 .02.02.03.03.04l.04.02.04-.01a.1.1 0 0 0 .04-.06l.01-.18h-.1Zm-.8-1.18.06.01.12.07c.08.07.18.17.28.29.18.24.34.55.34.81h.1c0-.3-.17-.63-.36-.87-.1-.13-.2-.24-.3-.3a.63.63 0 0 0-.14-.1.2.2 0 0 0-.13 0l.02.1Zm-.6-.03.3.04h.3l-.03-.1a.77.77 0 0 1-.26 0c-.1 0-.2-.03-.29-.04l-.02.1Zm-.14-.03.05.01.1.02.01-.1a4.3 4.3 0 0 0-.16-.03v.1Zm-.04-.12-.02.02v.01l-.02.02.01.05.03.02h.04v-.1h-.01l.02.02a.05.05 0 0 1 0 .04v.01l.02-.01-.07-.08Zm.08-.11a.1.1 0 0 1-.02.06.34.34 0 0 1-.06.05l.07.08.07-.07a.2.2 0 0 0 .04-.12h-.1Zm-.18-.1.13.01.04.03.01.06h.1a.2.2 0 0 0-.03-.11.18.18 0 0 0-.07-.07.43.43 0 0 0-.18-.03v.1Zm-.11.1c0-.05.03-.1.1-.1v-.1a.2.2 0 0 0-.2.2h.1Zm.03.13.03-.04a.33.33 0 0 1-.04-.03l-.02-.06h-.1c0 .05.03.1.05.12a.38.38 0 0 0 .04.05l.04-.04Zm-.24.05h.24v-.1h-.24v.1Zm-4.25 0 .73-.02a84.82 84.82 0 0 1 3.52.02v-.1a289.72 289.72 0 0 0-3.52-.02c-.35 0-.62 0-.74.02l.01.1Zm4.52.87a1.83 1.83 0 0 1-.2.21h-.01v.01l-.01.01v.06l.08-.05v.05a.08.08 0 0 1-.01.01h.01l.04-.05.18-.19-.08-.06Zm.38-.08-.06-.05a.14.14 0 0 0-.09-.04.2.2 0 0 0-.1.05.67.67 0 0 0-.13.12l.08.06a.57.57 0 0 1 .1-.1l.05-.03c.01 0 .02 0 .03.02l.04.04.08-.07Zm.08.06c-.03 0-.05-.02-.08-.06l-.08.07c.03.03.08.09.16.09v-.1Zm.5.12a.5.5 0 0 0-.25-.1c-.1-.02-.18-.02-.25-.02v.1l.23.01a.4.4 0 0 1 .2.08l.07-.07Zm-.29.34.12-.03a.6.6 0 0 0 .12-.07.25.25 0 0 0 .09-.1v-.08a.14.14 0 0 0-.04-.06l-.07.07.02.02v.01l-.06.06a.5.5 0 0 1-.1.06.24.24 0 0 1-.08.02v.1Zm-.13-.06c.02.02.07.06.13.06v-.1c-.02 0-.04-.01-.07-.04l-.06.08Zm-.08-.05c.02 0 .04.02.08.05l.06-.08c-.03-.03-.07-.07-.14-.07v.1Zm-.1.06a.41.41 0 0 1 .05-.04.09.09 0 0 1 .05-.02v-.1a.19.19 0 0 0-.1.03l-.07.05.07.08Zm-.1.05a.1.1 0 0 0 .06-.02l.04-.03-.07-.08a.4.4 0 0 1-.03.03v.1Zm-.1-.05a1.27 1.27 0 0 0 .07.04l.04.01v-.1h-.02a1.1 1.1 0 0 1-.05-.03l-.05.08Zm-.26-.1c.04 0 .08.02.13.04l.12.06.05-.08-.13-.08a.42.42 0 0 0-.17-.04v.1Zm-.13 0 .04.02h.03l.01-.01h.05v-.1a.27.27 0 0 0-.1.02.05.05 0 0 1 .02 0s.03 0 .04.02l-.09.05Z" fill="#fff"/></svg>