<svg viewBox="0 0 20 15" fill="none" xmlns="http://www.w3.org/2000/svg"><path d="M0 0v15h20V0H0Z" fill="#3d58db"/><path d="M0 15h20V0L0 15Z" fill="#579d20"/><path d="m-.49 15.47-1.13-1.56L21.05-1.22 22.17.34-.49 15.47Z" fill="#feca00"/><path d="m2.28 4.1.86-.6.89.53-.31-.95.62-.68h-.85l-.35-1-.36 1-.85.03.63.65-.28 1.01Zm3.54 0 .85-.6.9.53-.32-.95.63-.68h-.85l-.36-1-.36 1-.84.03.62.65-.27 1.01Z" fill="#f7fcff"/><path d="m4.15 5.9.86-.58.89.53-.31-.95.62-.69h-.84l-.36-1-.36 1-.85.04.63.65-.28 1ZM3.14 7.26l-.86.6.28-1.02-.63-.65.85-.03.36-1 .35 1h.85l-.62.68.3.95-.88-.53Zm3.53 0-.85.6.27-1.02-.62-.65.84-.03.36-1 .36 1h.85l-.63.68.31.95-.89-.53Z" fill="#f7fcff"/></svg>