<svg xmlns="http://www.w3.org/2000/svg" width="20" height="15" fill="transparent" viewBox="0 0 20 15"><g clip-path="url(#a)"><mask id="b" width="20" height="15" x="0" y="0" maskUnits="userSpaceOnUse" style="mask-type:luminance"><path fill="#fff" d="M0 0h20v15H0z"/></mask><g mask="url(#b)"><path fill="#3D58DB" fill-rule="evenodd" d="M0 0v15h20V0H0Z" clip-rule="evenodd"/><mask id="c" width="20" height="15" x="0" y="0" maskUnits="userSpaceOnUse" style="mask-type:luminance"><path fill="#fff" fill-rule="evenodd" d="M0 0v15h20V0H0Z" clip-rule="evenodd"/></mask><g mask="url(#c)"><path fill="#579D20" fill-rule="evenodd" d="M0 15h20V0L0 15Z" clip-rule="evenodd"/><path fill="#FECA00" d="m-.489 15.466-1.127-1.56L21.047-1.221l1.127 1.56L-.489 15.466Z"/><path fill="#F7FCFF" fill-rule="evenodd" d="m2.283 4.092.852-.592.893.532-.313-.953.625-.682h-.846l-.359-1-.358 1-.847.035.626.647-.273 1.013Zm3.537 0 .852-.592.892.532-.312-.953.624-.682H7.03l-.358-1-.359 1-.847.035.626.647-.272 1.013Z" clip-rule="evenodd"/><path fill="#F7FCFF" fill-rule="evenodd" d="m4.155 5.909.852-.591.893.531-.313-.952.624-.682h-.845l-.359-1.001-.358 1-.847.036.625.647-.272 1.012ZM3.135 7.25l-.852.591.273-1.012-.626-.647.847-.035.358-1 .359 1h.846l-.625.682.313.953-.893-.532Zm3.537 0-.852.591.272-1.012-.626-.647.847-.035.359-1 .358 1h.846l-.624.682.312.953-.892-.532Z" clip-rule="evenodd"/></g></g></g><defs><clipPath id="a"><rect width="20" height="15" fill="#fff" rx="2"/></clipPath></defs></svg>