<svg viewBox="0 0 20 15" fill="none" xmlns="http://www.w3.org/2000/svg"><path d="M0 0v15h20V0H0Z" fill="#f7fcff"/><path d="M0 0v7.5h20V0H0Z" fill="#e31d1c"/><path d="M5.54 6.62S3.78 5.9 3.78 3.98c0-1.92 1.76-2.6 1.76-2.6-.86-.23-3.13-.03-3.13 2.6 0 2.64 2.24 3.14 3.13 2.64ZM6 6.3l.5-.3.52.3-.13-.6.42-.47h-.57l-.24-.55-.24.55-.57.03.42.44-.11.6Zm2.34-.34-.5.3.11-.6-.42-.44.57-.02.24-.56.25.56h.57l-.43.47.13.6-.52-.31ZM7.05 3.61l.51-.31.52.3-.13-.6.42-.46H7.8l-.24-.56-.24.56-.57.02.42.45-.12.6Zm-1.2.9-.5.31.12-.6-.43-.44.57-.03.25-.55.24.55h.57l-.42.47.12.6-.51-.3Zm2.85.28.5-.3.52.3-.12-.6.42-.47h-.57l-.24-.55-.25.55-.57.03.42.45-.11.6Z" fill="#f1f9ff"/></svg>