<svg xmlns="http://www.w3.org/2000/svg" width="20" height="15" fill="transparent" viewBox="0 0 20 15"><g clip-path="url(#a)"><mask id="b" width="20" height="15" x="0" y="0" maskUnits="userSpaceOnUse" style="mask-type:luminance"><path fill="#fff" d="M0 0h20v15H0z"/></mask><g mask="url(#b)"><path fill="#F7FCFF" fill-rule="evenodd" d="M0 0v15h20V0H0Z" clip-rule="evenodd"/><mask id="c" width="20" height="15" x="0" y="0" maskUnits="userSpaceOnUse" style="mask-type:luminance"><path fill="#fff" fill-rule="evenodd" d="M0 0v15h20V0H0Z" clip-rule="evenodd"/></mask><g fill-rule="evenodd" clip-rule="evenodd" mask="url(#c)"><path fill="#E31D1C" d="M0 0v7.5h20V0H0Z"/><path fill="#F1F9FF" d="M5.543 6.618s-1.766-.71-1.766-2.634c0-1.925 1.766-2.612 1.766-2.612-.859-.217-3.136-.023-3.136 2.612 0 2.634 2.243 3.131 3.136 2.634Zm.452-.318.507-.306.518.306-.127-.597.42-.47h-.57l-.241-.558-.242.558-.571.024.422.446-.116.597Zm2.348-.34-.506.306.115-.597-.422-.446.571-.025.242-.557.242.557h.57l-.42.471.126.597-.518-.306ZM7.054 3.606l.507-.306.518.306-.127-.597.421-.47h-.57L7.56 1.98l-.242.557-.571.025.422.446-.116.597Zm-1.198.908-.507.306.116-.597-.422-.447.571-.024.242-.557.242.557h.57l-.42.471.126.597-.518-.306Zm2.842.279.507-.306.518.306-.127-.597.421-.471h-.57l-.242-.557-.242.557-.571.024.422.447-.116.597Z"/></g></g></g><defs><clipPath id="a"><rect width="20" height="15" fill="#fff" rx="2"/></clipPath></defs></svg>