<svg viewBox="0 0 20 15" fill="none" xmlns="http://www.w3.org/2000/svg"><path d="M0 0v15h20V0H0Z" fill="#2e42a5"/><path fill="#2e42a5" d="M0 0h11v9H0z"/><mask id="a" style="maskType:alpha" maskUnits="userSpaceOnUse" x="0" y="0" width="11" height="9"><path fill="#fff" d="M0 0h11v9H0z"/></mask><g mask="url(#a)"><path d="M-1.253 8.125 1.223 9.21l10.083-8.03 1.306-1.614-2.647-.363-4.113 3.46-3.31 2.332-3.795 3.129Z" fill="#f7fcff"/><path d="m-.914 8.886 1.261.63L12.143-.583h-1.77L-.915 8.886Z" fill="#f50100"/><path d="M12.503 8.125 10.306 9.52-.056 1.18-1.362-.433l2.647-.363 4.113 3.46 3.31 2.332 3.795 3.129Z" fill="#f7fcff"/><path d="m12.418 8.67-1.261.63-5.023-4.323-1.489-.483-6.133-4.921H.283l6.13 4.804 1.628.58 4.377 3.714Z" fill="#f50100"/><mask id="b" maskUnits="userSpaceOnUse" x="-1" y="-1" width="13" height="11" fill="#000"><path fill="#fff" d="M-1-1h13v11H-1z"/><path d="M6 0H5v4H0v1h5v4h1V5h5V4H6V0Z"/></mask><path d="M6 0H5v4H0v1h5v4h1V5h5V4H6V0Z" fill="#f50100"/><path d="M5 0v-.938h-.938V0H5Zm1 0h.938v-.938H6V0ZM5 4v.938h.938V4H5ZM0 4v-.938h-.938V4H0Zm0 1h-.938v.938H0V5Zm5 0h.938v-.938H5V5Zm0 4h-.938v.938H5V9Zm1 0v.938h.938V9H6Zm0-4v-.938h-.938V5H6Zm5 0v.938h.938V5H11Zm0-1h.938v-.938H11V4ZM6 4h-.938v.938H6V4ZM5 .937h1V-.938H5V.938ZM5.938 4V0H4.063v4h1.875ZM0 4.938h5V3.063H0v1.874ZM.938 5V4H-.938v1H.938ZM5 4.062H0v1.875h5V4.063ZM5.938 9V5H4.063v4h1.875ZM6 8.062H5v1.876h1V8.062ZM5.062 5v4h1.875V5H5.063ZM11 4.062H6v1.875h5V4.063ZM10.062 4v1h1.876V4h-1.876ZM6 4.938h5V3.063H6v1.874ZM5.062 0v4h1.875V0H5.063Z" fill="#f7fcff" mask="url(#b)"/></g><path d="M13.774 6.02h-.25v.25c0 .27-.001.535-.003.793-.003.618-.005 1.201.01 1.736.02.76.076 1.443.221 2.016.147.575.389 1.062.798 1.402.412.342.962.51 1.669.51.72 0 1.284-.21 1.71-.598.42-.383.683-.918.846-1.527.324-1.209.275-2.8.187-4.346l-.013-.236h-5.176Z" fill="#b7e1ff" stroke="#f7fcff" stroke-width=".5"/><mask id="c" style="maskType:alpha" maskUnits="userSpaceOnUse" x="13" y="5" width="7" height="8"><path d="M13.774 6.02h-.25v.25c0 .27-.001.535-.003.793-.003.618-.005 1.201.01 1.736.02.76.076 1.443.221 2.016.147.575.389 1.062.798 1.402.412.342.962.51 1.669.51.72 0 1.284-.21 1.71-.598.42-.383.683-.918.846-1.527.324-1.209.275-2.8.187-4.346l-.013-.236h-5.176Z" fill="#fff" stroke="#fff" stroke-width=".5"/></mask><g mask="url(#c)"><path fill="#2e42a5" d="M15 11.25h3.75v1.25H15z"/><g filter="url(#d)"><path fill="#fdff00" d="M12.5 5H20v3.75h-7.5z"/></g><path d="M15.737 6.798a.889.889 0 0 0-.032-.172l.295.917a1.247 1.247 0 0 0-.077-.069l-.012-.01-.049-.042c-.063-.056-.094-.099-.099-.18a16.785 16.785 0 0 1-.01-.182 5.389 5.389 0 0 0-.016-.262Zm-.234 1.614.056.044-.056-.044Z" fill="#f7fcff" stroke="#272727" stroke-width=".625"/><path d="M15.517 8.778h.125v2.472h-.125V8.778Z" fill="#fdff00"/><path d="M15.063 10.508h1.114s.01.322-.159.262.017.06-.24 0-.484.187-.542.064c-.057-.123-.281.034-.227-.146l.054-.18Z" fill="#f7fcff"/><path fill="#212123" d="M15.083 10.477h1.083v.125h-1.083z"/><path d="M15.217 10.04h.891s.009.258-.127.21c-.135-.047.014.048-.192 0-.206-.047-.387.15-.433.051-.046-.098-.226.028-.182-.116l.043-.144Z" fill="#f7fcff"/><path fill="#212123" d="M15.233 10.017h.867v.125h-.867z"/><path d="M15.054 9.528h.966s.01.257-.137.21c-.147-.048.015.047-.209 0-.223-.048-.42.15-.47.05-.05-.098-.243.029-.196-.116l.046-.144Z" fill="#f7fcff"/><path fill="#212123" d="M15.072 9.504h.939v.125h-.939z"/><path d="M15.133 9.098h.892s.009.321-.127.262c-.135-.06.014.06-.192 0-.206-.06-.387.186-.434.063-.046-.123-.225.035-.182-.145l.043-.18Z" fill="#f7fcff"/><path fill="#212123" d="M15.15 9.067h.867v.125h-.867z"/><path d="M16.714 9.09h.125v2.472h-.125V9.09Z" fill="#fdff00"/><path d="M16.313 10.61h1.114s.01.257-.159.21c-.169-.048.017.047-.24 0-.257-.048-.484.149-.542.05-.057-.098-.281.028-.227-.116l.054-.144Z" fill="#f7fcff"/><path fill="#212123" d="M16.333 10.586h1.083v.125h-1.083z"/><path d="M16.478 10.144h.875s.009.193-.124.157c-.133-.035.013.036-.189 0-.202-.035-.38.112-.426.038-.045-.073-.22.021-.178-.087l.042-.108Z" fill="#f7fcff"/><path fill="#212123" d="M16.494 10.125h.851v.125h-.851z"/><path d="M16.304 9.631h.955s.01.193-.136.157c-.145-.035.015.036-.206 0-.22-.035-.415.112-.464.039-.05-.074-.242.02-.195-.088l.046-.108Z" fill="#f7fcff"/><path fill="#212123" d="M16.321 9.613h.929v.125h-.929z"/><path d="M16.389 9.2h.875s.009.257-.124.21c-.133-.048.013.047-.19 0-.201-.048-.38.149-.425.05-.045-.098-.221.028-.179-.116l.043-.144Z" fill="#f7fcff"/><path fill="#212123" d="M16.405 9.175h.851V9.3h-.851z"/><path d="M18.431 8.787h.125v3.286h-.125V8.787Z" fill="#fdff00"/><path d="M17.92 10.783h1.419s.014.257-.202.21c-.215-.048.022.047-.306 0-.327-.048-.616.15-.69.05-.073-.098-.358.029-.289-.116l.069-.144Z" fill="#f7fcff"/><path fill="#212123" d="M17.947 10.759h1.379v.125h-1.379z"/><path d="M18.13 10.16h1.115s.01.193-.158.157c-.17-.036.017.036-.24 0-.258-.036-.485.112-.543.038-.057-.074-.281.021-.227-.087l.054-.108Z" fill="#f7fcff"/><path fill="#212123" d="M18.152 10.144h1.083v.125h-1.083z"/><path d="M18.017 9.334h1.114s.011.257-.158.21c-.169-.048.017.047-.24 0-.258-.048-.484.15-.542.05-.058-.098-.282.029-.228-.116l.054-.144Z" fill="#f7fcff"/><path fill="#212123" d="M18.038 9.31h1.083v.125h-1.083z"/><path d="M15.116 11.054s.578.315 1.46.26c.882-.054.819.117 1.048-.126.229-.242.249-.188.534-.315.285-.127.326-.247.473-.247.148 0 1.714-.063 1.714-.063s-.143.129-.143.31.095.2 0 .364c-.096.165-.204.384-.343.448-.138.064-2.01.104-2.488.104-.478 0-1.458.053-1.571 0-.113-.053-.684-.735-.684-.735Z" fill="#272727"/><path d="m13.823 9.804.559-.514s.024 0 .128.257c.104.257.108.609.216.52.108-.087.274-.006.344-.263.07-.257.066-.59.155-.424.089.167.036-.076.178.306s.198-.164.276.382c.078.546.144.735.144.862s.71.506.438.766c-.272.261-.195.138-.438.302-.243.164-.491.069-.144.198s.297.362.297.534c0 .172-.02.25-.297.21-.276-.038-.612.1-.679.1-.067 0-.877-.165-.877-.505 0-.34-.3-2.731-.3-2.731Z" fill="#CE6201"/></g><defs><filter id="d" x="12.5" y="5" width="7.5" height="3.75" filterUnits="userSpaceOnUse" color-interpolation-filters="sRGB"><feFlood flood-opacity="0" result="BackgroundImageFix"/><feColorMatrix in="SourceAlpha" values="0 0 0 0 0 0 0 0 0 0 0 0 0 0 0 0 0 0 127 0" result="hardAlpha"/><feOffset/><feColorMatrix values="0 0 0 0 0 0 0 0 0 0 0 0 0 0 0 0 0 0 0.5 0"/><feBlend in2="BackgroundImageFix" result="effect1_dropShadow_1:16593"/><feBlend in="SourceGraphic" in2="effect1_dropShadow_1:16593" result="shape"/></filter></defs></svg>