<svg xmlns="http://www.w3.org/2000/svg" width="20" height="15" fill="transparent" viewBox="0 0 20 15"><g clip-path="url(#a)"><mask id="b" width="20" height="15" x="0" y="0" maskUnits="userSpaceOnUse" style="mask-type:luminance"><path fill="#fff" d="M0 0h20v15H0z"/></mask><g mask="url(#b)"><path fill="#2E42A5" fill-rule="evenodd" d="M0 0v15h20V0H0Z" clip-rule="evenodd"/><mask id="c" width="20" height="15" x="0" y="0" maskUnits="userSpaceOnUse" style="mask-type:luminance"><path fill="#fff" fill-rule="evenodd" d="M0 0v15h20V0H0Z" clip-rule="evenodd"/></mask><g mask="url(#c)"><path fill="#2E42A5" d="M0 0h11v9H0z"/><mask id="d" width="11" height="9" x="0" y="0" maskUnits="userSpaceOnUse" style="mask-type:luminance"><path fill="#fff" d="M0 0h11v9H0z"/></mask><g mask="url(#d)"><path fill="#F7FCFF" d="M-1.253 8.125 1.223 9.21l10.083-8.03 1.306-1.614-2.648-.363-4.112 3.46-3.31 2.332-3.795 3.129Z"/><path fill="#F50100" d="m-.914 8.886 1.261.63L12.143-.583h-1.771L-.914 8.886Z"/><path fill="#F7FCFF" d="M12.502 8.125 10.305 9.52-.056 1.18-1.362-.434l2.647-.363 4.113 3.46 3.31 2.332 3.794 3.129Z"/><path fill="#F50100" d="m12.418 8.67-1.261.63-5.023-4.323-1.49-.483-6.132-4.922H.283l6.13 4.805 1.627.58 4.378 3.714Z"/><mask id="e" width="13" height="11" x="-1" y="-1" fill="#000" maskUnits="userSpaceOnUse"><path fill="#fff" d="M-1-1h13v11H-1z"/><path fill-rule="evenodd" d="M6 0H5v4H0v1h5v4h1V5h5V4H6V0Z" clip-rule="evenodd"/></mask><path fill="#F50100" fill-rule="evenodd" d="M6 0H5v4H0v1h5v4h1V5h5V4H6V0Z" clip-rule="evenodd"/><path fill="#F7FCFF" d="M5 0v-.938h-.938V0H5Zm1 0h.938v-.938H6V0ZM5 4v.938h.938V4H5ZM0 4v-.938h-.938V4H0Zm0 1h-.938v.938H0V5Zm5 0h.938v-.938H5V5Zm0 4h-.938v.938H5V9Zm1 0v.938h.938V9H6Zm0-4v-.938h-.938V5H6Zm5 0v.938h.938V5H11Zm0-1h.938v-.938H11V4ZM6 4h-.938v.938H6V4ZM5 .937h1V-.938H5V.938ZM5.938 4V0H4.063v4h1.875ZM0 4.938h5V3.063H0v1.874ZM.938 5V4H-.938v1H.938ZM5 4.062H0v1.875h5V4.063ZM5.938 9V5H4.063v4h1.875ZM6 8.062H5v1.876h1V8.062ZM5.062 5v4h1.875V5H5.063ZM11 4.062H6v1.875h5V4.063ZM10.062 4v1h1.876V4h-1.876ZM6 4.938h5V3.063H6v1.874ZM5.062 0v4h1.875V0H5.063Z" mask="url(#e)"/></g><path fill="#B7E1FF" stroke="#F7FCFF" stroke-width=".5" d="M13.774 6.02h-.25v.25c0 .27-.001.535-.003.793-.003.618-.005 1.201.01 1.736.02.76.076 1.443.221 2.016.147.575.389 1.062.798 1.402.412.343.962.51 1.669.51.72 0 1.284-.21 1.71-.598.42-.383.683-.918.846-1.527.324-1.208.275-2.8.187-4.346l-.013-.235h-5.176Z"/><mask id="f" width="7" height="8" x="13" y="5" maskUnits="userSpaceOnUse" style="mask-type:luminance"><path fill="#fff" stroke="#fff" stroke-width=".5" d="M13.774 6.02h-.25v.25c0 .27-.001.535-.003.793-.003.618-.005 1.201.01 1.736.02.76.076 1.443.221 2.016.147.575.389 1.062.798 1.402.412.343.962.51 1.669.51.72 0 1.284-.21 1.71-.598.42-.383.683-.918.846-1.527.324-1.208.275-2.8.187-4.346l-.013-.235h-5.176Z"/></mask><g mask="url(#f)"><path fill="#2E42A5" d="M15 11.25h3.75v1.25H15z"/><g filter="url(#g)"><path fill="#FDFF00" d="M12.5 5H20v3.75h-7.5z"/></g><path fill="#F7FCFF" stroke="#272727" stroke-width=".625" d="M15.737 6.798a.889.889 0 0 0-.032-.172l.295.917a1.247 1.247 0 0 0-.077-.069l-.012-.01-.049-.042c-.063-.056-.094-.099-.099-.18a16.785 16.785 0 0 1-.01-.182 5.389 5.389 0 0 0-.016-.262Zm-.234 1.614.056.044-.056-.044Z"/><path fill="#FDFF00" d="M15.517 8.778h.125v2.472h-.125V8.778Z"/><path fill="#F7FCFF" fill-rule="evenodd" d="M15.063 10.508h1.114s.01.322-.158.262c-.17-.06.017.06-.24 0-.258-.06-.485.187-.543.064-.057-.123-.281.035-.227-.146l.054-.18Z" clip-rule="evenodd"/><path fill="#212123" d="M15.084 10.477h1.083v.125h-1.083z"/><path fill="#F7FCFF" fill-rule="evenodd" d="M15.217 10.041h.891s.009.257-.127.21c-.135-.048.014.047-.192 0-.206-.048-.387.149-.433.05-.046-.098-.226.028-.182-.116l.043-.144Z" clip-rule="evenodd"/><path fill="#212123" d="M15.233 10.017h.867v.125h-.867z"/><path fill="#F7FCFF" fill-rule="evenodd" d="M15.055 9.528h.965s.01.258-.137.21c-.147-.048.015.048-.208 0-.224-.048-.42.15-.47.05-.05-.098-.244.029-.197-.115l.047-.145Z" clip-rule="evenodd"/><path fill="#212123" d="M15.072 9.504h.939v.125h-.939z"/><path fill="#F7FCFF" fill-rule="evenodd" d="M15.134 9.098h.891s.009.321-.126.262c-.136-.06.013.06-.193 0-.206-.06-.387.186-.433.063-.046-.123-.226.035-.182-.145l.043-.18Z" clip-rule="evenodd"/><path fill="#212123" d="M15.15 9.067h.867v.125h-.867z"/><path fill="#FDFF00" d="M16.714 9.09h.125v2.472h-.125V9.09Z"/><path fill="#F7FCFF" fill-rule="evenodd" d="M16.313 10.61h1.114s.01.257-.158.21c-.17-.048.017.047-.24 0-.258-.048-.485.149-.543.05-.057-.098-.281.028-.227-.116l.054-.144Z" clip-rule="evenodd"/><path fill="#212123" d="M16.334 10.585h1.083v.125h-1.083z"/><path fill="#F7FCFF" fill-rule="evenodd" d="M16.478 10.144h.876s.008.193-.125.157c-.133-.035.014.036-.189 0-.202-.035-.38.112-.425.038-.046-.073-.222.021-.18-.087l.043-.108Z" clip-rule="evenodd"/><path fill="#212123" d="M16.494 10.126h.851v.125h-.851z"/><path fill="#F7FCFF" fill-rule="evenodd" d="M16.304 9.631h.955s.01.193-.136.157c-.145-.035.015.036-.206 0-.22-.035-.415.112-.464.038-.05-.073-.242.021-.195-.087l.046-.108Z" clip-rule="evenodd"/><path fill="#212123" d="M16.322 9.613h.929v.125h-.929z"/><path fill="#F7FCFF" fill-rule="evenodd" d="M16.389 9.2h.875s.009.257-.124.21c-.133-.048.013.047-.19 0-.201-.048-.38.149-.425.05-.045-.098-.221.028-.179-.116l.043-.144Z" clip-rule="evenodd"/><path fill="#212123" d="M16.405 9.175h.851V9.3h-.851z"/><path fill="#FDFF00" d="M18.432 8.787h.125v3.286h-.125V8.787Z"/><path fill="#F7FCFF" fill-rule="evenodd" d="M17.92 10.783h1.419s.013.257-.202.21c-.215-.048.022.047-.306 0-.327-.048-.616.15-.69.05-.073-.098-.358.029-.29-.116l.07-.144Z" clip-rule="evenodd"/><path fill="#212123" d="M17.947 10.759h1.379v.125h-1.379z"/><path fill="#F7FCFF" fill-rule="evenodd" d="M18.13 10.16h1.115s.01.193-.159.157c-.169-.036.018.036-.24 0-.257-.036-.484.112-.542.038-.057-.074-.281.021-.227-.087l.054-.108Z" clip-rule="evenodd"/><path fill="#212123" d="M18.151 10.144h1.083v.125h-1.083z"/><path fill="#F7FCFF" fill-rule="evenodd" d="M18.017 9.334h1.115s.01.258-.159.21c-.169-.047.017.048-.24 0-.258-.047-.484.15-.542.051-.058-.098-.282.028-.228-.116l.054-.145Z" clip-rule="evenodd"/><path fill="#212123" d="M18.038 9.31h1.083v.125h-1.083z"/><path fill="#272727" fill-rule="evenodd" d="M15.116 11.054s.578.315 1.46.26c.882-.054.819.117 1.048-.126.229-.242.249-.188.534-.315.285-.127.326-.247.473-.247.148 0 1.714-.063 1.714-.063s-.143.129-.143.31.095.2 0 .364c-.096.165-.204.384-.342.448-.14.064-2.011.104-2.489.104-.477 0-1.458.053-1.571 0-.113-.053-.684-.735-.684-.735Z" clip-rule="evenodd"/><path fill="#CE6201" fill-rule="evenodd" d="m13.824 9.804.558-.514s.024 0 .128.257c.104.257.109.609.217.52.108-.087.274-.006.344-.263.07-.257.065-.59.154-.424.089.167.036-.076.178.306s.198-.164.276.382c.078.546.144.735.144.862s.711.506.439.766c-.273.261-.196.138-.439.302-.242.164-.491.069-.144.198s.298.362.298.534c0 .172-.022.25-.298.21-.276-.038-.612.1-.679.1-.067 0-.876-.165-.876-.505 0-.34-.3-2.731-.3-2.731Z" clip-rule="evenodd"/></g></g></g></g><defs><clipPath id="a"><rect width="20" height="15" fill="#fff" rx="2"/></clipPath><filter id="g" width="7.5" height="3.75" x="12.5" y="5" color-interpolation-filters="sRGB" filterUnits="userSpaceOnUse"><feFlood flood-opacity="0" result="BackgroundImageFix"/><feColorMatrix in="SourceAlpha" result="hardAlpha" values="0 0 0 0 0 0 0 0 0 0 0 0 0 0 0 0 0 0 127 0"/><feOffset/><feColorMatrix values="0 0 0 0 0 0 0 0 0 0 0 0 0 0 0 0 0 0 0.5 0"/><feBlend in2="BackgroundImageFix" result="effect1_dropShadow_431_22621"/><feBlend in="SourceGraphic" in2="effect1_dropShadow_431_22621" result="shape"/></filter></defs></svg>