<svg xmlns="http://www.w3.org/2000/svg" width="20" height="15" fill="transparent" viewBox="0 0 20 15"><g clip-path="url(#a)"><mask id="b" width="20" height="15" x="0" y="0" maskUnits="userSpaceOnUse" style="mask-type:luminance"><path fill="#fff" d="M0 0h20v15H0z"/></mask><g mask="url(#b)"><path fill="#2E42A5" fill-rule="evenodd" d="M0 0v15h20V0H0Z" clip-rule="evenodd"/><mask id="c" width="20" height="15" x="0" y="0" maskUnits="userSpaceOnUse" style="mask-type:luminance"><path fill="#fff" fill-rule="evenodd" d="M0 0v15h20V0H0Z" clip-rule="evenodd"/></mask><g mask="url(#c)"><path fill="#F7FCFF" fill-rule="evenodd" d="M0 0v5h20V0H0Z" clip-rule="evenodd"/><path fill="#C51918" fill-rule="evenodd" d="M0 10v5h20v-5H0Z" clip-rule="evenodd"/><path fill="#2E42A5" fill-rule="evenodd" d="M8.588 3.148s-1.316-.622-2.952-.622-2.951.622-2.951.622.146 2.496.377 3.819c.1.565.574 1.388 1.004 1.778.49.444 1.57.97 1.57.97.313-.215.897-.311 1.644-.97.748-.658.933-1.778.933-1.778l.375-3.82Z" clip-rule="evenodd"/><path fill="#C51918" d="m8.414 3.066.547.274-.376 3.764c-.131.796-.46 1.425-.988 1.889a4.31 4.31 0 0 1-.864.597l-.87.449c-.07.034-.124.064-.167.094l-.069.047-.074-.036C4.822 9.788 4.14 9.308 3.8 9c-.463-.42-.952-1.28-1.056-1.874-.155-.89-.295-2.116-.393-3.787l.492-.257c.097 1.658.215 2.98.368 3.854.09.517.54 1.31.951 1.682.304.275.793.58 1.465.912.04-.023.085-.046.136-.071.001 0 .459-.204.618-.287a3.98 3.98 0 0 0 .804-.556c.468-.412.76-.967.878-1.673l.35-3.877Z"/><path fill="#fff" fill-rule="evenodd" d="M3.464 6.89s.12.365.34.775c.323.085.521.08.584.01.181-.202.825-.289.946-.116.074.107.335.181.62.083l-.032.006c.05-.018.165-.064.237-.092l.058-.023a.937.937 0 0 1 .267-.068c.1-.008.197.011.3.06.224.107.502.157.69.124.232-.402.397-.759.397-.759L6.774 5.837l-.436.473-.725-1.032-.607 1.032-.465-.473L3.464 6.89Zm.634 1.244a3.42 3.42 0 0 1-.143-.21c.28.051.471.024.577-.094.05-.056.199-.11.368-.134a.978.978 0 0 1 .212-.007.286.286 0 0 1 .063.011c.005.002.005.002 0-.005l-.001-.001c.13.185.48.284.811.163l-.031.006c.09-.028.25-.091.309-.114l.02-.008a.77.77 0 0 1 .214-.056.392.392 0 0 1 .206.042c.2.095.43.151.635.153a7.41 7.41 0 0 1-.135.208c-.158.037-.404-.011-.602-.12a.47.47 0 0 0-.273-.062.751.751 0 0 0-.239.07.673.673 0 0 0-.051.023c-.063.028-.163.074-.206.092l.036-.008c-.248.096-.465.026-.527-.077-.11-.182-.69-.093-.852.116-.044.056-.175.066-.39.012Zm.216.256.037.037c.564.55 1.262.82 1.262.82s.831-.252 1.303-.781c.04-.045.08-.094.12-.146a1.262 1.262 0 0 1-.525-.154.284.284 0 0 0-.167-.04.586.586 0 0 0-.195.061 4 4 0 0 1-.281.117l.036-.007c-.292.122-.602.025-.723-.157a.202.202 0 0 0-.049-.01.723.723 0 0 0-.18.007c-.143.022-.268.075-.31.128-.07.09-.179.13-.328.125Z" clip-rule="evenodd"/><path fill="#FECA00" fill-rule="evenodd" d="M4.467 3.679h-.44l.341-.32-.34-.337h.439l.185-.327.187.327h.438l-.323.317.287.34H4.84l-.187.345-.185-.345Zm2.071 0h-.44l.341-.32-.34-.337h.439l.185-.327.186.327h.44l-.325.317.288.34h-.403l-.186.345-.185-.345ZM5.375 4.73h-.44l.341-.32-.34-.337h.439l.186-.328.186.328h.439l-.324.317.287.34h-.402l-.186.345-.186-.345Z" clip-rule="evenodd"/></g></g></g><defs><clipPath id="a"><rect width="20" height="15" fill="#fff" rx="2"/></clipPath></defs></svg>