<svg viewBox="0 0 20 15" fill="none" xmlns="http://www.w3.org/2000/svg"><path d="M0 0v15h20V0H0Z" fill="#2e42a5"/><path d="M0 0v5h20V0H0Z" fill="#f7fcff"/><path d="M0 10v5h20v-5H0Z" fill="#c51918"/><path d="M8.59 3.15s-1.32-.62-2.95-.62c-1.64 0-2.96.62-2.96.62s.15 2.5.38 3.82c.1.56.58 1.39 1 1.78.5.44 1.58.97 1.58.97.3-.22.9-.32 1.64-.97a3.4 3.4 0 0 0 .93-1.78l.38-3.82Z" fill="#2e42a5"/><path d="m8.41 3.07.55.27L8.6 7.1a3.1 3.1 0 0 1-1 1.9c-.28.25-.56.43-.86.59l-.87.45c-.07.03-.12.06-.16.1l-.07.04-.08-.04A8.32 8.32 0 0 1 3.8 9a3.94 3.94 0 0 1-1.06-1.87 34.2 34.2 0 0 1-.39-3.79l.5-.26c.1 1.66.2 2.98.36 3.86.1.51.54 1.3.95 1.68.3.27.8.58 1.47.91l.13-.07s.46-.2.62-.29c.28-.14.54-.32.8-.55.47-.42.77-.97.88-1.68l.35-3.87Z" fill="#c51918"/><path d="M3.46 6.89s.12.36.34.77c.33.09.53.09.59.02.18-.2.82-.3.94-.12.08.1.34.18.62.08h-.03l.24-.08.06-.03c.1-.04.18-.06.26-.07.1 0 .2.02.3.06.23.11.5.16.7.13.23-.4.39-.76.39-.76l-1.1-1.05-.43.47-.73-1.03-.6 1.03-.47-.47-1.08 1.05Zm.64 1.24-.15-.2c.29.05.48.02.58-.1.05-.06.2-.11.37-.13a.98.98 0 0 1 .21-.01l.06.01c.01 0 0 0 0 0 .13.18.48.28.82.16h-.04c.1-.02.25-.09.31-.11h.02l.22-.07a.4.4 0 0 1 .2.05c.2.1.43.15.64.15l-.14.2a.95.95 0 0 1-.6-.11.47.47 0 0 0-.27-.06.75.75 0 0 0-.3.09l-.2.1.04-.02c-.25.1-.47.03-.53-.07-.1-.19-.69-.1-.85.11-.04.06-.18.07-.4.01Zm.21.26.04.04c.57.55 1.26.82 1.26.82s.83-.25 1.3-.78l.13-.15c-.18 0-.36-.06-.53-.15a.28.28 0 0 0-.17-.04.59.59 0 0 0-.2.06 4 4 0 0 1-.27.11h.03c-.29.12-.6.02-.72-.16a.2.2 0 0 0-.05-.01h-.18c-.14.03-.27.08-.3.14-.08.08-.19.12-.34.12Z" fill="#fff"/><path d="M4.47 3.68h-.44l.34-.32-.34-.34h.44l.18-.33.19.33h.44l-.33.32.3.34h-.41l-.19.34-.18-.34Zm2.07 0H6.1l.34-.32-.34-.34h.44l.18-.33.19.33h.44l-.33.32.3.34H6.9l-.19.34-.18-.34ZM5.38 4.73h-.44l.34-.32-.34-.34h.43l.2-.32.18.32h.44l-.33.32.29.34h-.4l-.19.35-.18-.35Z" fill="#feca00"/></svg>