<svg viewBox="0 0 20 15" fill="none" xmlns="http://www.w3.org/2000/svg"><path d="M0 0v15h20V0H0Z" fill="#3d58db"/><path d="M0 0v5h20V0H0Z" fill="#f7fcff"/><path d="M0 10v5h20v-5H0Z" fill="#e31d1c"/><path d="m9.75 3.77.31-.03-.03-.28H3.67l-.02.29.32.02-.32-.02v.14a78.26 78.26 0 0 0-.1 1.69c-.04.96-.06 2.09 0 2.61a5.5 5.5 0 0 0 3.19 4.38l.12.05.13-.05a5.58 5.58 0 0 0 3.24-4.38c.09-.64.04-1.77-.02-2.7a50.63 50.63 0 0 0-.13-1.61l-.01-.1v-.04l-.32.03Z" fill="#e31d1c" stroke="#fff" stroke-width=".63"/><path d="M6.41 4.12s.13.2.19.5.07.82.07.82L5.44 5.3v.93l1.25-.16-.02.88s-.37.04-.68 0c-.3-.04-.91-.2-.91-.2V7.8s.61-.2.91-.24c.3-.04.68 0 .68 0v1.3h.51v-1.3s.56-.05.89 0c.33.06.64.24.64.24V6.74s-.32.16-.62.2c-.3.04-.91 0-.91 0l.02-.88s.42-.04.65-.01c.23.03.52.17.52.17V5.3s-.28.16-.5.19c-.23.02-.7-.04-.7-.04s.01-.54.06-.8a2 2 0 0 1 .18-.52h-1Z" fill="#f7fcff"/><path d="M4.31 10.15s.28-.59.72-.7c.45-.11.92.35.92.35s.28-.93.98-.93.94.93.94.93.3-.35.73-.35.82.7.82.7-1.27 2.32-2.55 2.32c-1.28 0-2.56-2.32-2.56-2.32Z" fill="#2e42a5"/></svg>