<svg xmlns="http://www.w3.org/2000/svg" width="1760" height="15" fill="transparent" viewBox="0 0 1760 15"><g clip-path="url(#a)"><g clip-path="url(#b)"><mask id="c" width="20" height="15" x="0" y="0" maskUnits="userSpaceOnUse" style="mask-type:luminance"><path fill="#fff" d="M0 0h20v15H0z"/></mask><g mask="url(#c)"><path fill="#3D58DB" fill-rule="evenodd" d="M0 0v15h20V0H0Z" clip-rule="evenodd"/><mask id="d" width="20" height="15" x="0" y="0" maskUnits="userSpaceOnUse" style="mask-type:luminance"><path fill="#fff" fill-rule="evenodd" d="M0 0v15h20V0H0Z" clip-rule="evenodd"/></mask><g mask="url(#d)"><path fill="#F7FCFF" fill-rule="evenodd" d="M0 0v5h20V0H0Z" clip-rule="evenodd"/><path fill="#E31D1C" fill-rule="evenodd" d="M0 10v5h20v-5H0Z" clip-rule="evenodd"/><path fill="#E31D1C" stroke="#fff" stroke-width=".625" d="m9.753 3.769.31-.033-.03-.28h-6.36l-.02.292.313.021-.312-.02v.009l-.003.029-.007.11a77.319 77.319 0 0 0-.089 1.68c-.04.962-.067 2.089.003 2.615.137 1.026.762 3.33 3.18 4.375l.126.055.125-.056c2.296-1.027 3.064-3.095 3.242-4.373.089-.644.043-1.772-.02-2.71a51.146 51.146 0 0 0-.133-1.607l-.01-.103-.004-.027v-.01l-.311.033Z"/><mask id="e" width="8" height="10" x="3" y="3" maskUnits="userSpaceOnUse" style="mask-type:luminance"><path fill="#fff" stroke="#fff" stroke-width=".625" d="m9.753 3.769.31-.033-.03-.28h-6.36l-.02.292.313.021-.312-.02v.009l-.003.029-.007.11a77.319 77.319 0 0 0-.089 1.68c-.04.962-.067 2.089.003 2.615.137 1.026.762 3.33 3.18 4.375l.126.055.125-.056c2.296-1.027 3.064-3.095 3.242-4.373.089-.644.043-1.772-.02-2.71a51.146 51.146 0 0 0-.133-1.607l-.01-.103-.004-.027v-.01l-.311.033Z"/></mask><g fill-rule="evenodd" clip-rule="evenodd" mask="url(#e)"><path fill="#F7FCFF" d="M6.41 4.119s.13.196.188.497c.057.3.067.827.067.827l-1.224-.15v.928l1.252-.16-.02.882s-.375.039-.682 0a9.994 9.994 0 0 1-.912-.202v1.063s.614-.197.912-.242c.297-.045.681 0 .681 0v1.305h.508V7.562s.556-.048.887.004c.332.053.646.238.646.238V6.741s-.318.159-.619.198c-.3.04-.914.004-.914.004l.02-.881s.417-.043.65-.012c.233.032.525.171.525.171v-.928s-.285.155-.508.183c-.224.028-.694-.033-.694-.033s.009-.543.057-.808.184-.516.184-.516H6.411Z"/><path fill="#2E42A5" d="M4.311 10.153s.275-.59.722-.701c.447-.112.915.35.915.35s.286-.935.984-.935.942.935.942.935.298-.35.726-.35.825.701.825.701-1.279 2.321-2.557 2.321c-1.279 0-2.557-2.32-2.557-2.32Z"/></g></g></g></g><g clip-path="url(#f)"><mask id="g" width="20" height="15" x="60" y="0" maskUnits="userSpaceOnUse" style="mask-type:luminance"><path fill="#fff" d="M60 0h20v15H60z"/></mask><g mask="url(#g)"><path fill="#F7FCFF" fill-rule="evenodd" d="M60 0v15h20V0H60Z" clip-rule="evenodd"/><mask id="h" width="20" height="15" x="60" y="0" maskUnits="userSpaceOnUse" style="mask-type:luminance"><path fill="#fff" fill-rule="evenodd" d="M60 0v15h20V0H60Z" clip-rule="evenodd"/></mask><g fill-rule="evenodd" clip-rule="evenodd" mask="url(#h)"><path fill="#78D843" d="M60 0v5h20V0H60Z"/><path fill="#3D58DB" d="M60 10v5h20v-5H60Z"/></g></g></g><g clip-path="url(#i)"><mask id="j" width="20" height="15" x="120" y="0" maskUnits="userSpaceOnUse" style="mask-type:luminance"><path fill="#fff" d="M120 0h20v15h-20z"/></mask><g mask="url(#j)"><path fill="#F7FCFF" fill-rule="evenodd" d="M120 0v15h20V0h-20Z" clip-rule="evenodd"/><mask id="k" width="20" height="15" x="120" y="0" maskUnits="userSpaceOnUse" style="mask-type:luminance"><path fill="#fff" fill-rule="evenodd" d="M120 0v15h20V0h-20Z" clip-rule="evenodd"/></mask><g mask="url(#k)"><path fill="#56C6F5" fill-rule="evenodd" d="M120 7.5V15h20V7.5h-20Z" clip-rule="evenodd"/><path fill="#006923" fill-rule="evenodd" d="M126.409 5.643a.36.36 0 0 0-.035-.134c-.161-.3-.109-.674-.109-.674s-.191.438-.304.851a1.37 1.37 0 0 1-.159-.385s-.077 1.211.157 1.498c.234.287.39.413.39.413s.018-.502-.05-.896c.048-.164.091-.344.106-.498.031-.023.112-.084.213-.166a2.672 2.672 0 0 0-.045.363s.882-.64.904-.979c.023-.339.265-.629.265-.629s-.2.137-.429.321c.06-.284.248-.508.248-.508s-1.002.685-1.084 1.046a4.264 4.264 0 0 0-.068.377Zm.043 2.081c-.096-.181-.514-.941-.806-1.007-.331-.075-.579-.36-.579-.36s.52 1.096.864 1.234c.276.11.457.154.518.167-.01.148-.012.25-.012.25s.163-.118.412-.392c.248-.274.235-1.487.235-1.487s-.098.364-.363.577c-.178.143-.245.68-.269 1.018Zm-.782-.114c.378-.003.96.925.96.925s-.226.012-.619-.05c-.394-.062-1.008-1.12-1.008-1.12s.288.247.667.245Zm1.844 2.16s.224-1.182-.113-1.458c-.337-.275-.396-.687-.396-.687s-.3 1.31 0 1.65c.299.34.509.495.509.495Zm-1.36-.32c.22.262.921 0 .921 0l-.402-.367c-.556-.508-1.688-.187-1.383-.187.304 0 .643.294.864.555Zm.519 1.389c.408.345 1.29-.476 1.29-.476s-.227-.275-.648-.478c-.42-.203-1.972 0-1.972 0l.691.307s-.769.301-.565.284c.204-.017.796.017 1.204.363Z" clip-rule="evenodd"/><path fill="#093" fill-rule="evenodd" d="M132.008 10.123s-.35-.59 0-.875c.351-.285.49-.095.49-.423 0-.327.036-.23.208-.392.172-.163.05-.558.281-.36.231.197.274-.181.274.605V7.523c0-.442-.274-.337-.274-.633 0-.297-.274-.74 0-.74s.435.33.435.33.269.459.269 0-.479-.322-.704-.829c-.225-.506-.189.057-.489-.595-.299-.653-.656-.86-.328-.86h.536c.281 0 .716-.233.716 0v.493c0 .367.269.367.269.367s.147-.733.331-.367c.183.367.058.962.193.962.134 0 .023-.615.317-.144.294.472 0 .791 0 .973 0 .182-.317.627-.317.627s.062.218.317 0c.255-.217.497-.435.497-.217 0 .217.497.285 0 .633-.497.348-.18.696-.497.696s-.691.46-.841.46c-.15 0-.71.35-.43.35.28 0 .567-.702.761-.35.193.35.19-.058.35.146.16.205.32 1.313.16.868-.16-.445-.41-.445-.841-.445-.43 0-1.266.032-.985.239.281.206.597-.207.716 0 .119.206.085.413.269.206.185-.206.367 0 .524 0 .157 0-.157.231 0 .43.157.198.508.462.157.462-.35 0-.531-.28-.681 0-.15.28-.156.767-.43.384-.274-.384-.763-.19-.763-.384s.107-.226-.191-.226c-.299 0-.299-.236-.299-.236Z" clip-rule="evenodd"/><path fill="#C51918" fill-rule="evenodd" d="M133.448 5.906a.154.154 0 0 1-.152.157.154.154 0 0 1-.151-.157c0-.086.068-.156.151-.156.084 0 .152.07.152.156Zm-6.986.344c.083 0 .151-.07.151-.156a.154.154 0 0 0-.151-.157.153.153 0 0 0-.151.157c0 .086.067.156.151.156Zm.151.656a.154.154 0 0 1-.151.157.153.153 0 0 1-.151-.157c0-.086.067-.156.151-.156.083 0 .151.07.151.156Zm.091 1.594c.083 0 .151-.07.151-.156a.154.154 0 0 0-.151-.156.154.154 0 0 0-.152.156c0 .086.068.156.152.156Zm1.209 1.563c.084 0 .152-.07.152-.157a.154.154 0 0 0-.152-.156.154.154 0 0 0-.151.156c0 .087.068.156.151.156Zm5.807-2.376c.083 0 .151-.07.151-.156a.154.154 0 0 0-.151-.156.153.153 0 0 0-.151.156c0 .087.067.157.151.157Zm-.333 1.094a.154.154 0 0 1-.151.156.153.153 0 0 1-.151-.156c0-.086.067-.156.151-.156.083 0 .151.07.151.156Zm-1.421 1.531c.083 0 .151-.07.151-.156a.154.154 0 0 0-.151-.156.153.153 0 0 0-.151.156c0 .086.067.156.151.156Zm-3.841.032a.154.154 0 0 1-.151.156.153.153 0 0 1-.151-.156c0-.086.067-.156.151-.156.083 0 .151.07.151.156Z" clip-rule="evenodd"/><path fill="#FECA00" fill-rule="evenodd" d="M131.274 12.387c0-.128-1.938-1.463-2.458-1.758-.52-.294-3.06-1.916-2.369-4.379h-.104s-.468 3.035 2.757 4.922c1.468.985 1.541 1.215 1.541 1.215s.633.128.633 0Z" clip-rule="evenodd"/><path fill="#FECA00" fill-rule="evenodd" d="M128.703 12.387c0-.128 1.937-1.463 2.458-1.758.52-.294 3.06-1.916 2.368-4.379h.105s.468 3.035-2.757 4.922c-1.469.985-1.542 1.215-1.542 1.215s-.632.128-.632 0Z" clip-rule="evenodd"/><path fill="#56C6F5" fill-rule="evenodd" d="M130.03 10.553c1.353 0 2.45-1.75 2.45-3.46 0-1.708-1.097-2.593-2.45-2.593-1.353 0-2.449.885-2.449 2.594 0 1.708 1.096 3.46 2.449 3.46Z" clip-rule="evenodd"/><path fill="#fff" fill-rule="evenodd" d="M128.946 5.962s.377-.333.188-.333a.89.89 0 0 1-.129-.015c-.199-.032-.459-.074-.459.348v.724l-.001.001h-.055a.063.063 0 1 0 0 .125h.049l-.038.705-.071.006a.068.068 0 0 0-.062.073l.005.053a.067.067 0 0 0 .073.06l.045-.003c-.017.321-.031.602-.031.637 0 .084.574.051.574.051l-.037-.732.038-.004a.067.067 0 0 0 .061-.072l-.005-.053a.066.066 0 0 0-.072-.061l-.032.002-.031-.662h.074a.063.063 0 1 0 0-.125h-.079a8.138 8.138 0 0 1-.005-.198v-.527Z" clip-rule="evenodd"/><path fill="#000" fill-rule="evenodd" d="M128.669 6.875h.202v.269h-.202v-.27Zm-.06.937h.336v.625h-.336v-.625Z" clip-rule="evenodd"/><path fill="#fff" fill-rule="evenodd" d="M130.216 5.962s.377-.333.189-.333a.887.887 0 0 1-.13-.015c-.199-.032-.459-.074-.459.348v.725h-.056a.062.062 0 0 0 0 .125h.049l-.038.705-.071.006a.067.067 0 0 0-.061.073l.004.053a.068.068 0 0 0 .073.06l.045-.003c-.016.321-.031.602-.031.637 0 .084.574.051.574.051l-.037-.732.038-.004a.067.067 0 0 0 .061-.072l-.004-.053a.068.068 0 0 0-.073-.061l-.031.002a86.072 86.072 0 0 1-.031-.662h.073a.063.063 0 1 0 0-.125h-.078a5.578 5.578 0 0 1-.006-.198v-.527Z" clip-rule="evenodd"/><path fill="#000" fill-rule="evenodd" d="M129.939 6.875h.202v.269h-.202v-.27Zm-.06.937h.336v.625h-.336v-.625Z" clip-rule="evenodd"/><path fill="#fff" fill-rule="evenodd" d="M131.426 5.962s.377-.333.188-.333a.89.89 0 0 1-.129-.015c-.2-.032-.459-.074-.459.348v.724l-.001.001h-.055a.063.063 0 1 0 0 .125h.049l-.038.705-.072.006a.068.068 0 0 0-.061.073l.005.053a.067.067 0 0 0 .073.06l.045-.003c-.017.321-.031.602-.031.637 0 .084.574.051.574.051l-.037-.732.038-.004a.067.067 0 0 0 .061-.072l-.005-.053a.066.066 0 0 0-.072-.061l-.032.002-.031-.662h.074a.063.063 0 1 0 0-.125h-.079a8.138 8.138 0 0 1-.005-.198v-.527Z" clip-rule="evenodd"/><path fill="#000" fill-rule="evenodd" d="M131.149 6.875h.202v.269h-.202v-.27Zm-.06.937h.336v.625h-.336v-.625Z" clip-rule="evenodd"/><path fill="#E8AA00" fill-rule="evenodd" d="M131.573 4h-3.206v.479l-.022.001s-1.57 1.22-1.134 3.05c.436 1.827 2.167 3.183 2.167 3.183l.087-.315s-1.65-2.244-1.65-3.14c0-.896.312-1.738.641-1.868.199-.08.233-.063.287-.038.036.017.08.038.187.038.267 0 .535-.192.535-.192s.186.192.359.192.176-.192.176-.192v-.636h.019v.636s.003.192.176.192.359-.192.359-.192.268.192.535.192a.37.37 0 0 0 .187-.038c.054-.025.089-.041.287.038.329.13.641.972.641 1.868 0 .896-1.65 3.14-1.65 3.14l.087.315s1.732-1.356 2.167-3.184c.436-1.828-1.134-3.049-1.134-3.049l-.101-.009V4Z" clip-rule="evenodd"/><path fill="#FFD018" d="M128.367 4v-.313h-.313V4h.313Zm3.206 0h.312v-.313h-.312V4Zm-3.206.479.028.31.284-.025V4.48h-.312Zm-.022.001-.027-.31-.092.007-.072.057.191.246Zm-1.134 3.05.304-.073-.304.072Zm2.167 3.183-.193.246.369.29.125-.453-.301-.083Zm.087-.315.301.083.041-.146-.09-.123-.252.186Zm-1.009-5.008.116.29-.116-.29Zm.287-.038.132-.283-.132.283Zm.722-.154.224-.218-.187-.193-.219.157.182.254Zm.535 0 .312.004v-.004H130Zm0-.636V4.25h-.313v.313H130Zm.019 0h.313V4.25h-.313v.313Zm0 .636h-.312v.004l.312-.004Zm.535 0 .182-.254-.219-.157-.187.193.224.218Zm.722.154-.132-.283.132.283Zm.287.038-.115.29.115-.29Zm-1.009 5.008-.252-.185-.09.122.041.146.301-.083Zm.087.315-.301.084.125.451.369-.289-.193-.246Zm2.167-3.184.304.073-.304-.073Zm-1.134-3.049.191-.246-.072-.057-.091-.008-.028.311Zm-.101-.009h-.313v.286l.285.026.028-.312Zm-3.206-.159h3.206v-.625h-3.206v.626Zm.312.167V4h-.625v.479h.625Zm-.306.313.022-.002-.056-.623-.021.002.055.623Zm-.858 2.665c-.193-.807.054-1.483.364-1.97a3.436 3.436 0 0 1 .606-.716l.042-.035a.11.11 0 0 1 .009-.008l.002-.001h-.001l-.192-.247-.192-.246-.002.002-.005.004-.017.013a3.192 3.192 0 0 0-.245.227 4.07 4.07 0 0 0-.533.672c-.368.58-.688 1.428-.444 2.45l.608-.145Zm1.863 3.256.193-.246h-.001l-.002-.002-.013-.01-.051-.043a7.67 7.67 0 0 1-.809-.81c-.472-.549-.979-1.3-1.18-2.145l-.608.145c.234.983.811 1.823 1.314 2.408a8.293 8.293 0 0 0 .88.88l.06.05.017.014.005.003.001.002h.001l.193-.246Zm-.214-.399-.087.316.602.166.087-.315-.602-.167Zm-1.661-3.056c0 .298.13.66.286 1 .162.352.376.728.585 1.07a19.807 19.807 0 0 0 .82 1.228l.014.02.004.005.001.001.252-.184.252-.185-.001-.002a.017.017 0 0 1-.003-.004l-.013-.018-.051-.071A18.634 18.634 0 0 1 128.907 9a10.157 10.157 0 0 1-.55-1.005c-.153-.333-.229-.587-.229-.738h-.625Zm.838-2.159a.87.87 0 0 0-.382.336c-.095.14-.176.312-.242.498a4.117 4.117 0 0 0-.214 1.325h.625c0-.415.072-.814.179-1.118.054-.152.112-.271.169-.354.06-.089.098-.107.096-.106l-.231-.58Zm.534-.03c-.037-.017-.12-.057-.242-.049a.996.996 0 0 0-.292.08l.231.58a1.11 1.11 0 0 1 .091-.033c.019-.005.021-.004.012-.003h-.024a.193.193 0 0 1-.031-.006l-.017-.006.007.003.265-.566Zm.055.008a.324.324 0 0 1-.044-.003h.001c-.001 0-.003 0-.012-.005l-.265.566c.021.01.064.03.123.045a.805.805 0 0 0 .197.022v-.625Zm.535.121a8.289 8.289 0 0 1-.181-.254l.001-.001h-.001l-.004.003-.024.016a.948.948 0 0 1-.093.05.582.582 0 0 1-.233.065v.625c.201 0 .384-.07.502-.126a1.748 1.748 0 0 0 .195-.11l.013-.009.004-.003.002-.001h.001l-.182-.255Zm.359-.12c.013 0 .012.002-.005-.005a.664.664 0 0 1-.131-.094h.001v.001l-.224.218-.224.218h.001l.001.002.004.003.01.01.032.03c.027.024.065.056.111.089.08.055.237.152.424.152v-.625Zm.176.12-.313-.004V5.19l.001-.003v-.009s.001-.006.006-.016a.137.137 0 0 1 .046-.055.151.151 0 0 1 .084-.03v.625a.476.476 0 0 0 .481-.424.634.634 0 0 0 .006-.048l.001-.017v-.009L130 5.197Zm-.313-.636v.636h.625v-.636h-.625Zm.332-.312H130v.625h.019V4.25Zm-.312.313v.635h.625v-.636h-.625Zm.312.635-.312.004v.011l.001.017a.634.634 0 0 0 .051.195.473.473 0 0 0 .436.277v-.625c.018 0 .051.007.084.03a.152.152 0 0 1 .047.055l.005.016v.004l.001.005v.006l-.313.005Zm.176.504a.765.765 0 0 0 .424-.152c.046-.033.084-.065.111-.089l.033-.03.01-.01a.027.027 0 0 1 .003-.003l.001-.001h.001v-.001l-.224-.218-.224-.218h.001v-.001l-.002.002-.015.014a.63.63 0 0 1-.054.043.338.338 0 0 1-.06.035c-.017.007-.018.004-.005.004v.625Zm.359-.504-.182.254h.001v.001l.002.001.004.003.013.01.045.027c.036.023.088.052.15.082.118.056.301.126.502.126v-.625a.586.586 0 0 1-.233-.065.948.948 0 0 1-.093-.05l-.024-.016-.004-.003s-.001 0 0 0h.001l-.182.255Zm.535.504a.805.805 0 0 0 .197-.022c.06-.015.102-.035.123-.045l-.265-.566-.012.005h.001l-.009.002a.324.324 0 0 1-.035.001v.625Zm.32-.067.007-.003-.017.006a.203.203 0 0 1-.054.006c-.01 0-.008-.002.011.003l.092.033.23-.58a.996.996 0 0 0-.292-.08c-.122-.008-.204.032-.242.049l.265.566Zm.039.045c-.002 0 .035.017.095.106.057.083.116.202.169.354.107.304.179.703.179 1.118h.625a4.12 4.12 0 0 0-.214-1.325 2.24 2.24 0 0 0-.241-.498.878.878 0 0 0-.383-.336l-.23.581Zm.443 1.578c0 .15-.076.405-.229.738-.147.32-.347.673-.55 1.005a18.634 18.634 0 0 1-.792 1.188l-.014.018a.017.017 0 0 1-.003.004l-.001.001.252.186.252.185.001-.002.004-.005.014-.02.054-.075.19-.27c.157-.228.366-.541.576-.884.21-.341.423-.717.585-1.07.156-.34.286-.701.286-.999h-.625Zm-1.638 3.223.087.316.602-.167-.087-.316-.602.167Zm.388.232.193.246h.001l.001-.002.005-.003.017-.014.06-.05a8.293 8.293 0 0 0 .88-.88c.503-.585 1.08-1.425 1.314-2.408l-.608-.145c-.201.845-.708 1.596-1.18 2.146a7.67 7.67 0 0 1-.86.852l-.013.01-.002.002h-.001l.193.246Zm2.471-3.111c.244-1.022-.076-1.87-.444-2.45a4.07 4.07 0 0 0-.778-.899l-.017-.013-.005-.004-.001-.001h-.001v-.001l-.192.246-.192.247h-.001l.002.001.01.008.041.035a3.487 3.487 0 0 1 .607.715c.309.488.556 1.164.363 1.97l.608.146Zm-1.41-3.433-.102-.009-.055.623.101.009.056-.623ZM131.26 4v.471h.625V4h-.625Z"/><path fill="#8FC753" fill-rule="evenodd" d="M128.19 8.616s.196-.528.54-.352c.344.176.314.788.626.57.313-.218.136-.57.599-.57.464 0 .395.57.673.57s.302-.57.613-.57.626.352.626.352l-1.839 2.501-1.838-2.501Z" clip-rule="evenodd"/><path fill="#fff" fill-rule="evenodd" d="m124.956 11.536-.198-.267s.82 0 .931.193c.031.054.045.096.056.127.026.081.031.097.254.097.31 0 0-.307-.129-.417-.129-.11-.051-.3.129-.3.069 0 .189-.016.337-.036a6.52 6.52 0 0 1 .823-.071c.456 0 .078.407.078.407s.59 0 .444-.17c-.147-.169.492-.375.768-.375.258 0 1.417.058 1.573.066a76.615 76.615 0 0 1 1.631-.066c.277 0 .916.206.769.376-.147.17.444.17.444.17s-.378-.408.078-.408c.281 0 .587.04.823.071a3.2 3.2 0 0 0 .337.036c.179 0 .258.19.129.3-.129.11-.439.417-.129.417.222 0 .228-.016.254-.097.011-.031.024-.073.056-.127.107-.186.874-.192.928-.193a.164.164 0 0 1-.019-.076c0-.087.067-.157.151-.157.083 0 .151.07.151.157a.154.154 0 0 1-.151.156.152.152 0 0 1-.131-.077l-.196.264.204.252a.15.15 0 0 1 .123-.064c.083 0 .151.07.151.156a.154.154 0 0 1-.151.156.153.153 0 0 1-.151-.156c0-.018.002-.035.008-.05-.116-.057-.316-.144-.445-.144h-.361c.091 0 .591.33.439.473l-.025.024c-.149.141-.343.325-.525.225a1.13 1.13 0 0 1-.31-.25l-.152-.472s-.893-.23-.893-.07c0 .159-.002.237-.319.237-.177 0-.349-.03-.499-.057a1.965 1.965 0 0 0-.311-.04c-.124 0-.315.039-.456.067a1.48 1.48 0 0 1-.174.03c-.068 0-.429-.016-.181-.167.248-.15.305-.307.305-.307s-.992.147-1.385.156h-.036c-.389-.009-1.324-.156-1.324-.156s.057.157.305.307-.114.167-.181.167a1.48 1.48 0 0 1-.174-.03 2.781 2.781 0 0 0-.456-.066 1.85 1.85 0 0 0-.311.04c-.151.026-.322.056-.499.056-.317 0-.319-.078-.319-.238 0-.16-.894.071-.894.071l-.151.473s-.116.143-.31.249c-.183.1-.376-.084-.525-.225l-.025-.024c-.152-.143.348-.473.439-.473h-.361c-.192 0-.536.19-.536.19l.275-.34Zm-.43-.187c.084 0 .151-.07.151-.156a.153.153 0 0 0-.151-.157.154.154 0 0 0-.151.157c0 .086.068.156.151.156Zm0 .687c.084 0 .151-.07.151-.156a.153.153 0 0 0-.151-.156.154.154 0 0 0-.151.156c0 .086.068.156.151.156Z" clip-rule="evenodd"/><path fill="#FFD018" fill-rule="evenodd" d="M129.934 1.268h.125v.134h.154v.125h-.154v.228a.372.372 0 0 1 .304.37.369.369 0 0 1-.363.375.37.37 0 0 1-.363-.375c0-.184.128-.337.297-.369v-.229h-.141v-.125h.141v-.134Z" clip-rule="evenodd"/><path fill="#E31D1C" fill-rule="evenodd" d="M128.592 3.266c-.175 0-.544.187-.544.187l.287.636 1.73-.065 1.731.065.286-.636s-.369-.187-.543-.187c-.077 0-.087-.045-.098-.096-.014-.065-.03-.138-.19-.138-.113 0-.193.018-.258.034-.099.023-.162.038-.253-.034l-.012-.01c-.147-.116-.301-.237-.549-.237-.049 0-.086.046-.114.122-.027-.076-.064-.122-.114-.122-.248 0-.401.12-.549.238l-.012.009c-.091.072-.154.057-.253.034a1.028 1.028 0 0 0-.258-.034c-.16 0-.176.073-.19.138-.011.05-.02.096-.097.096Z" clip-rule="evenodd"/><path fill="#FFD018" fill-rule="evenodd" d="m129.755 2.23-.121.042c-.321.112-.599.148-.834.112-.483-.074-1.114.177-1.035.546.034.161.136.466.241.724.146.359.248.54.367.54l.232.011.017.001c.176.01.33.014.479.013.431-.002.698-.044.793-.173l.028-.038-.013-.046c-.113-.389-.165-.923-.156-1.6l.002-.132Zm-1.813.659c-.039-.18.455-.377.831-.32.235.037.501.01.798-.08-.002.602.047 1.09.148 1.467-.086.045-.313.074-.618.076-.146 0-.297-.004-.47-.013.001 0-.178-.01-.24-.012l-.007-.008a.63.63 0 0 1-.059-.09 3.08 3.08 0 0 1-.152-.327 5.187 5.187 0 0 1-.231-.693Zm2.342-.659.122.042c.321.112.599.148.833.112.484-.074 1.115.177 1.035.546a5.203 5.203 0 0 1-.24.724c-.146.359-.248.54-.368.54l-.231.011-.018.001a8.61 8.61 0 0 1-.479.013c-.431-.002-.698-.044-.793-.173l-.028-.038.013-.046c.113-.389.166-.923.156-1.6l-.002-.132Zm1.813.659c.039-.18-.454-.377-.831-.32-.234.037-.5.01-.797-.08.001.602-.048 1.09-.148 1.467.086.045.312.074.618.076.145 0 .297-.004.469-.013-.001 0 .178-.01.24-.012l.007-.008a.63.63 0 0 0 .059-.09 5.045 5.045 0 0 0 .383-1.02Z" clip-rule="evenodd"/><path fill="#5E5E5E" fill-rule="evenodd" d="M131.947 4.044a.81.81 0 0 1 .064-.213c.06-.16.101-.21.188-.263.045-.027.062-.05.083-.13a1.126 1.126 0 0 1 .073-.209.504.504 0 0 0 .019-.042.27.27 0 0 0 .019-.113c0-.056-.014-.1-.053-.182a.977.977 0 0 1-.034-.076.295.295 0 0 1-.025-.114v-.24c0-.141-.006-.15-.075-.14-.007 0-.013.002-.02.003l-.042.007a.08.08 0 0 1-.044-.005c-.024-.011-.043-.033-.086-.098-.021-.031-.043-.028-.121.01l-.025.012c-.08.037-.136.038-.183-.02-.073-.089-.121-.083-.209.003-.044.042-.066.058-.094.062h-.002c-.029.005-.031.005-.114-.046-.005.012-.018.017-.038.021a.276.276 0 0 1-.092.004c-.022-.003-.038-.01-.048-.031a4.14 4.14 0 0 0-.124-.002V2.18c.061 0 .112 0 .154.002l.011-.01c.023-.02.058-.05.075-.046.002 0 .009.007.018.015.014.012.033.03.052.042l.003.001c.082.05.085.052.097.05.011-.001.026-.013.06-.046.111-.108.198-.118.297.003.025.03.054.03.113.003a.906.906 0 0 1 .023-.011c.105-.051.151-.058.197.01.036.054.051.072.061.077h.002c.002.002.005.001.032-.004l.016-.003a.913.913 0 0 1 .023-.003c.115-.016.143.028.143.201v.241a.24.24 0 0 0 .021.09c.007.02.01.025.032.072.043.09.06.142.06.21a.334.334 0 0 1-.024.137 1.556 1.556 0 0 1-.021.047l-.019.042a1.144 1.144 0 0 0-.05.153c-.025.097-.052.134-.11.17-.076.046-.108.083-.163.23-.029.076-.046.13-.055.163l-.004.018c.009.007.008.012.005.026a.03.03 0 0 1-.004.007l-.001.002-.008.008a.016.016 0 0 1-.005.003h.003c-.004.003-.008.01-.015.017-.059.078-.133.078-.205.003l.043-.044c.047.05.079.05.115.003l.011-.015Zm-3.924 0a.83.83 0 0 0-.063-.213c-.061-.16-.102-.21-.189-.263-.045-.027-.062-.05-.083-.13a1.014 1.014 0 0 0-.073-.209.506.506 0 0 1-.019-.042.27.27 0 0 1-.019-.113c0-.056.014-.1.053-.182a.977.977 0 0 0 .034-.076.295.295 0 0 0 .025-.114v-.24c0-.141.006-.15.075-.14l.021.003.041.007a.08.08 0 0 0 .044-.005c.024-.011.043-.033.086-.098.021-.031.043-.028.121.01l.025.012c.08.037.136.038.183-.02.073-.089.121-.083.209.003.044.042.066.058.094.062h.002c.029.005.031.005.114-.046.006.012.018.017.038.021a.276.276 0 0 0 .092.004c.022-.003.038-.01.048-.031a4.14 4.14 0 0 1 .124-.002V2.18c-.061 0-.112 0-.153.002l-.012-.01c-.023-.02-.058-.05-.075-.046-.002 0-.008.007-.018.015a.421.421 0 0 1-.054.043c-.083.05-.086.052-.098.05-.011-.001-.026-.013-.06-.046-.111-.108-.198-.118-.297.003-.025.03-.054.03-.112.003l-.024-.011c-.105-.051-.151-.058-.197.01a.275.275 0 0 1-.06.077h-.003c-.002.002-.005.001-.032-.004l-.016-.003a.509.509 0 0 0-.023-.003c-.115-.016-.143.028-.143.201v.241a.24.24 0 0 1-.021.09c-.007.02-.01.025-.032.072a.447.447 0 0 0-.06.21c0 .057.007.095.024.137l.021.047.019.042c.018.044.034.092.05.153.025.097.052.134.11.17.076.046.108.083.163.23.029.076.047.13.055.163l.004.018c-.009.007-.008.012-.005.026a.03.03 0 0 0 .004.007l.001.002a.076.076 0 0 0 .013.011h-.003a.23.23 0 0 1 .015.017c.059.078.133.078.205.003l-.043-.044c-.047.05-.079.05-.115.003l-.011-.015Zm.726-1.835h-.001.001Z" clip-rule="evenodd"/><path fill="#272727" d="m128.609 11.178.038-.31c.671.082 1.12.123 1.346.123.34.016.746-.009 1.217-.074l.043.31a7.1 7.1 0 0 1-1.267.077c-.236 0-.693-.042-1.377-.126Z"/></g></g></g><g clip-path="url(#l)"><mask id="m" width="20" height="15" x="180" y="0" maskUnits="userSpaceOnUse" style="mask-type:luminance"><path fill="#fff" d="M180 0h20v15h-20z"/></mask><g fill-rule="evenodd" clip-rule="evenodd" mask="url(#m)"><path fill="#FBCD17" d="M186.25 0h7.5v15h-7.5V0Z"/><path fill="#006923" d="m190.047 9.056-2.178 1.512.696-2.589-1.599-1.653 2.165-.09.916-2.559.916 2.56h2.162l-1.595 1.742.799 2.436-2.282-1.359Z"/><path fill="#E11C1B" d="M193.75 0H200v15h-6.25V0Z"/><path fill="#006923" d="M180 0h6.25v15H180V0Z"/></g></g><g clip-path="url(#n)"><mask id="o" width="20" height="15" x="240" y="0" maskUnits="userSpaceOnUse" style="mask-type:luminance"><path fill="#fff" d="M240 0h20v15h-20z"/></mask><g fill-rule="evenodd" clip-rule="evenodd" mask="url(#o)"><path fill="#56C6F5" d="M240 0h20v15h-20V0Z"/><path fill="#F7FCFF" d="m250.112 9.198-2.353 1.496.789-2.618-1.678-1.711 2.314-.05 1.023-2.585.933 2.619 2.308.04-1.735 1.742.81 2.49-2.411-1.423Z"/></g></g><g clip-path="url(#p)"><mask id="q" width="20" height="15" x="300" y="0" maskUnits="userSpaceOnUse" style="mask-type:luminance"><path fill="#fff" d="M300 0h20v15h-20z"/></mask><g mask="url(#q)"><path fill="#4E8B1D" fill-rule="evenodd" d="M300 10h20v5h-20v-5Zm0-10h20v3.75h-20V0Z" clip-rule="evenodd"/><path fill="#AF0100" stroke="#fff" stroke-width="1.875" d="M300 4.063h-.938v6.875h21.876V4.062H300Z"/><path fill="#FECA00" fill-rule="evenodd" d="m310.001 9.059-1.558.941.355-1.836-1.298-1.375 1.758-.074.743-1.715.744 1.715h1.755l-1.295 1.449.39 1.836-1.594-.941Z" clip-rule="evenodd"/></g></g><g clip-path="url(#r)"><mask id="s" width="20" height="15" x="360" y="0" maskUnits="userSpaceOnUse" style="mask-type:luminance"><path fill="#fff" d="M360 0h20v15h-20z"/></mask><g mask="url(#s)"><path fill="#F7FCFF" fill-rule="evenodd" d="M360 0h20v15h-20V0Z" clip-rule="evenodd"/><path fill="#272727" fill-rule="evenodd" d="M360 0v5h20V0h-20Z" clip-rule="evenodd"/><path fill="#4E8B1D" fill-rule="evenodd" d="M360 10v5h20v-5h-20Z" clip-rule="evenodd"/><path fill="#E31D1C" stroke="#F7FCFF" stroke-width="1.25" d="M360 4.375h-.625v6.25h21.25v-6.25H360Z"/><path fill="#3D58DB" fill-rule="evenodd" d="m360 0 12.5 7.5L360 15V0Z" clip-rule="evenodd"/><path fill="#FECA00" fill-rule="evenodd" d="m364.155 9.005-1.262 1.313-.132-1.866-1.61-.992 1.679-.526.274-1.85 1.163 1.465 1.695-.455-.876 1.735.852 1.673-1.783-.497Z" clip-rule="evenodd"/></g></g><g clip-path="url(#t)"><mask id="u" width="20" height="15" x="420" y="0" maskUnits="userSpaceOnUse" style="mask-type:luminance"><path fill="#fff" d="M420 0h20v15h-20z"/></mask><g fill-rule="evenodd" clip-rule="evenodd" mask="url(#u)"><path fill="#FBCD17" d="M420 0v15h20V0h-20Z"/><path fill="#73BE4A" d="M420 0v5h20V0h-20Zm0 10v5h20v-5h-20Z"/><path fill="#C51918" d="M420 0v15l6.25-7.5L420 0Z"/><path fill="#272727" d="m430.626 8.67-1.169.705.267-1.377-.974-1.031 1.318-.056.558-1.286.558 1.286h1.316l-.971 1.087.292 1.377-1.195-.706Zm5 0-1.169.705.267-1.377-.974-1.031 1.318-.056.558-1.286.558 1.286h1.316l-.971 1.087.292 1.377-1.195-.706Z"/></g></g><g clip-path="url(#v)"><mask id="w" width="20" height="15" x="480" y="0" maskUnits="userSpaceOnUse" style="mask-type:luminance"><path fill="#fff" d="M480 0h20v15h-20z"/></mask><g mask="url(#w)"><path fill="#F7FCFF" fill-rule="evenodd" d="M480 0v15h20V0h-20Z" clip-rule="evenodd"/><mask id="x" width="20" height="15" x="480" y="0" maskUnits="userSpaceOnUse" style="mask-type:luminance"><path fill="#fff" fill-rule="evenodd" d="M480 0v15h20V0h-20Z" clip-rule="evenodd"/></mask><g mask="url(#x)"><path fill="#3D58DB" fill-rule="evenodd" d="M480 0v5h20V0h-20Zm0 10v5h20v-5h-20Z" clip-rule="evenodd"/><path stroke="#E8AA00" stroke-width=".625" d="M492.141 7.411a2.276 2.276 0 1 1-4.552 0 2.276 2.276 0 0 1 4.552 0Z"/><path fill="#1E601B" fill-rule="evenodd" d="M488.631 6.039s-.595.98-.595 1.652c0 .673.713 1.518 1.834 1.518 1.094 0 1.88-.653 1.903-1.518.024-.865-.588-1.48-.588-1.48s.346 1.245.173 1.75c-.173.504-.734 1.114-1.488 1.037-.755-.078-1.471-1.007-1.471-1.307 0-.3.232-1.652.232-1.652Z" clip-rule="evenodd"/><path stroke="#188396" stroke-width=".625" d="M488.85 7.705h2.005"/><path stroke="#E8AA00" stroke-width=".625" d="M489.037 7.379h1.725m-.106.378h-1.535l.774-1.285.761 1.285Z"/></g></g></g><g clip-path="url(#y)"><mask id="z" width="20" height="15" x="540" y="0" maskUnits="userSpaceOnUse" style="mask-type:luminance"><path fill="#fff" d="M540 0h20v15h-20z"/></mask><g mask="url(#z)"><path fill="#E31D1C" fill-rule="evenodd" d="M540 0v15h20V0h-20Z" clip-rule="evenodd"/><mask id="A" width="20" height="15" x="540" y="0" maskUnits="userSpaceOnUse" style="mask-type:luminance"><path fill="#fff" fill-rule="evenodd" d="M540 0v15h20V0h-20Z" clip-rule="evenodd"/></mask><g mask="url(#A)"><path fill="#2E42A5" fill-rule="evenodd" d="M540 7.5V15h20V7.5h-20Z" clip-rule="evenodd"/></g><path fill="#F7FCFF" fill-rule="evenodd" d="M540-1.25v17.5l12.5-8.75L540-1.25Z" clip-rule="evenodd"/><mask id="B" width="13" height="19" x="540" y="-2" maskUnits="userSpaceOnUse" style="mask-type:luminance"><path fill="#fff" fill-rule="evenodd" d="M540-1.25v17.5l12.5-8.75L540-1.25Z" clip-rule="evenodd"/></mask><g mask="url(#B)"><path fill="#FBCD17" fill-rule="evenodd" d="M545.079 5.743c.897 0 1.625-.446 1.625-.997 0-.55-.728-.996-1.625-.996-.898 0-1.626.446-1.626.997 0 .55.728.996 1.626.996Z" clip-rule="evenodd"/><path fill="#DA610A" fill-rule="evenodd" d="M545.221 3.99c-.133 0-.227.086-.227.215v.014a.263.263 0 0 0-.012.072.23.23 0 0 0 .077.178.142.142 0 0 1 .005.035c-.003-.011-.016-.02-.041-.038-.035-.026-.094-.068-.182-.157-.126-.129-.222-.179-.341-.159a.545.545 0 0 0-.113.036.42.42 0 0 1-.245.008c-.319-.061-.668-.001-1.047.174l.131.284c.324-.15.609-.199.858-.151a.73.73 0 0 0 .409-.021l.059-.022c-.004 0-.001.003.015.018l.052.052c.036.036.073.07.111.099-.073.02-.069.033-.056.081.006.02.013.045.017.079.009.074-.006.113.007.131.015.02.064.016.222.01l.166-.013c.13-.013.277-.03.367-.045.088-.015.111-.02.148-.047l.032-.04a14.744 14.744 0 0 1 1.027-.116c.006 0 .011 0 .043-.008a.968.968 0 0 0 .026-.01l.001-.001h-.001l.077-.181-.079-.096-.06-.017h-.087a.794.794 0 0 1-.152-.015l-.055-.01c-.244-.045-.47-.045-.949.026l-.027-.02a2.39 2.39 0 0 1 .271-.028l.093-.004h.015l-.002-.312h-.553Zm-.259.905.03-.006.029-.006a.643.643 0 0 1-.018.004l-.041.008Z" clip-rule="evenodd"/><path fill="#56C6F5" stroke="#E31D1C" stroke-width=".625" d="m544.953 5.363.051-.308.05.308c.621-.102 1.03-.09 1.266-.01.273.091.575.065.892-.042a5.805 5.805 0 0 0-.153 1.271c0 .455.088.822.168 1.144a.242.242 0 0 0 .007.025c.078.316.142.577.142.877 0 .269-.089.41-.214.499-.144.102-.385.167-.742.167-.504 0-.975.136-1.409.401l-.007-.005-.007.005a2.66 2.66 0 0 0-1.409-.401c-.358 0-.599-.065-.743-.167-.125-.089-.214-.23-.214-.5 0-.3.065-.56.143-.876l.006-.025c.08-.322.168-.69.168-1.144 0-.398-.052-.822-.152-1.27.317.106.618.132.891.04.237-.079.645-.09 1.266.011Z"/><path fill="#F7FCFF" fill-rule="evenodd" d="m545.49 6.39-.482-.429-.482.429h.143v.247l-.75.467v1.143h-.143v.214h2.5v-.214h-.178V7.104l-.786-.49V6.39h.178Z" clip-rule="evenodd"/><path fill="#FBCD17" d="M544.97 10.638c.663 0 1.12-.073 1.355-.196a.314.314 0 0 1 .284-.16c.517.02.917-.198 1.231-.676.34-.517.409-1.251.187-2.215l.562-.129c.254 1.104.171 1.995-.267 2.66-.392.597-.927.916-1.579.937-.334.247-.918.356-1.773.356-.828 0-1.441-.161-1.835-.502-.893-.211-1.461-.568-1.685-1.096-.238-.563-.238-1.345-.016-2.353l.564.125c-.199.9-.199 1.57-.016 2.003.127.302.498.548 1.125.719l.583.124-.028.147c.285.167.719.256 1.308.256Z"/><path stroke="#73BE4A" stroke-linecap="round" stroke-linejoin="round" stroke-width=".625" d="m542.946 5.515.32.128-.16.333.447-.23-.035.17-.095.47.183-.535v.473l.112-.473.332.1-.332-.206.332-.102"/><path fill="#FBCD17" fill-rule="evenodd" d="M543.555 6.21a.313.313 0 1 0 0-.625.313.313 0 0 0 0 .626Z" clip-rule="evenodd"/><path fill="#F7FCFF" fill-rule="evenodd" d="M546.651 6.17c-.006-.21-.029-.69-.136-.69-.107 0-.123.486-.125.694-.185.06-.324.22-.324.22h.92s-.145-.166-.335-.223Z" clip-rule="evenodd"/></g></g></g><g clip-path="url(#C)"><mask id="D" width="20" height="15" x="600" y="0" maskUnits="userSpaceOnUse" style="mask-type:luminance"><path fill="#fff" d="M600 0h20v15h-20z"/></mask><g fill-rule="evenodd" clip-rule="evenodd" mask="url(#D)"><path fill="#F7FCFF" d="M600 0h20v15h-20V0Z"/><path fill="#409100" d="m605.626 8.67-1.169.705.267-1.377-.974-1.031 1.318-.056.558-1.286.558 1.286h1.316l-.971 1.087.292 1.377-1.195-.706Zm8.75 0-1.169.705.267-1.377-.974-1.031 1.318-.056.558-1.286.558 1.286h1.316l-.971 1.087.292 1.377-1.195-.706Z"/><path fill="#E31D1C" d="M600 0v5h20V0h-20Z"/><path fill="#272727" d="M600 10v5h20v-5h-20Z"/></g></g><g clip-path="url(#E)"><mask id="F" width="20" height="15" x="660" y="0" maskUnits="userSpaceOnUse" style="mask-type:luminance"><path fill="#fff" d="M660 0h20v15h-20z"/></mask><g mask="url(#F)"><path fill="#3D58DB" fill-rule="evenodd" d="M660 0h20v15h-20V0Z" clip-rule="evenodd"/><path fill="#C51918" stroke="#FFD018" stroke-width="1.25" d="M660 3.125h-.625v8.75h21.25v-8.75H660Z"/><path fill="#FFD018" d="M664.468 5.832c-.075 0-.135-.17-.135-.379s.06-.378.135-.378h10.882c.075 0 .136.17.136.378 0 .21-.061.379-.136.379h-10.882Z"/><path fill="#F7FCFF" fill-rule="evenodd" d="m675.06 5.376.631-.806 1.119.806-1.119.828-.631-.828Z" clip-rule="evenodd"/><path fill="#FFD018" d="M664.468 8.332c-.075 0-.135-.17-.135-.379s.06-.378.135-.378h10.882c.075 0 .136.17.136.378 0 .21-.061.379-.136.379h-10.882Z"/><path fill="#F7FCFF" fill-rule="evenodd" d="m675.06 7.876.631-.806 1.119.806-1.119.828-.631-.828Z" clip-rule="evenodd"/><path fill="#FFD018" d="M662.716 9.889c-.101 0-.182-.193-.182-.43 0-.238.081-.43.182-.43h14.59c.101 0 .182.192.182.43 0 .237-.081.43-.182.43h-14.59Z"/><path fill="#F7FCFF" fill-rule="evenodd" d="M665.511 7.533s1.776-3.738 4.316-3.738c2.539 0 4.375 3.738 4.375 3.738s-2.241 3.688-4.346 3.688c-2.104 0-4.345-3.688-4.345-3.688Z" clip-rule="evenodd"/><mask id="G" width="10" height="9" x="665" y="3" maskUnits="userSpaceOnUse" style="mask-type:luminance"><path fill="#fff" fill-rule="evenodd" d="M665.511 7.533s1.776-3.738 4.316-3.738c2.539 0 4.375 3.738 4.375 3.738s-2.241 3.688-4.346 3.688c-2.104 0-4.345-3.688-4.345-3.688Z" clip-rule="evenodd"/></mask><g fill-rule="evenodd" clip-rule="evenodd" mask="url(#G)"><path fill="#272727" d="M669.953 3.55s-.58.704-.387 1.375c.193.671.643.6.643 1.192 0 .59-.207 1.193 0 1.193.208 0 .28.408.09.685-.19.276-.358.285-.346.735.011.45.995.892.518.892s-1.105.463-.905.463c.2 0 1.246.36 1.246.833v.851h-5.455V3.55h4.596Z"/><path fill="#F7FCFF" d="M667.387 6.202h-.272v1.106h.272V6.202Zm.801 0h-.272v1.106h.272V6.202Zm-.672 0h.271v1.106h-.271V6.202Zm1.072 0h-.271v1.106h.271V6.202Zm.129 0h.272v1.106h-.272V6.202Zm.672 0h-.272v1.106h.272V6.202Zm-2.274 1.586h.272v1.106h-.272V7.788Zm1.073 0h-.272v1.106h.272V7.788Zm-.672 0h.271v1.106h-.271V7.788Zm1.072 0h-.271v1.106h.271V7.788Zm.129 0h.272v1.106h-.272V7.788Zm.672 0h-.272v1.106h.272V7.788Z"/><path fill="#272727" d="M670.611 6.202h-.272v1.106h.272V6.202Zm.801 0h-.272v1.106h.272V6.202Zm-.672 0h.271v1.106h-.271V6.202Zm1.072 0h-.271v1.106h.271V6.202Zm.129 0h.272v1.106h-.272V6.202Zm.672 0h-.271v1.106h.271V6.202Zm-2.274 1.586h.272v1.106h-.272V7.788Zm1.073 0h-.272v1.106h.272V7.788Zm-.672 0h.271v1.106h-.271V7.788Zm1.072 0h-.271v1.106h.271V7.788Zm.129 0h.272v1.106h-.272V7.788Zm.672 0h-.271v1.106h.271V7.788Z"/><path fill="#3D58DB" d="M668.27 4.42c-.381.117-.555 1.115-.512 1.356.042.241.171-.03.171-.03s.264.572.291.726c.027.153.165-.233.165-.233s.457.314.519.665c.061.35.154-.401.154-.401l.104-.018-.066-.371.198.168-.061-.345s.148.194.111-.02l-.059-.332-.052-.292.196-.035s-.779-.956-1.159-.838Z"/></g><path fill="#3D58DB" fill-rule="evenodd" d="M676.305 8.56c-.395.05-.739 1.002-.739 1.247 0 .244.174 0 .174 0s.16.609.16.765c0 .156.203-.2.203-.2s.395.389.395.744c0 .356.222-.368.222-.368h.105v-.377l.165.2v-.35s.113.217.113 0v-.634h.198s-.601-1.077-.996-1.027Zm-12.809-.144c.395.05.739 1.002.739 1.246 0 .245-.174 0-.174 0s-.16.61-.16.765c0 .157-.204-.2-.204-.2s-.394.39-.394.745c0 .356-.222-.368-.222-.368h-.105v-.377l-.165.2v-.35s-.113.217-.113 0v-.634h-.198s.601-1.077.996-1.027Z" clip-rule="evenodd"/></g></g><g clip-path="url(#H)"><mask id="I" width="20" height="15" x="720" y="0" maskUnits="userSpaceOnUse" style="mask-type:luminance"><path fill="#fff" d="M720 0h20v15h-20z"/></mask><g mask="url(#I)"><path fill="#2E42A5" fill-rule="evenodd" d="M720 0v15h20V0h-20Z" clip-rule="evenodd"/><mask id="J" width="20" height="15" x="720" y="0" maskUnits="userSpaceOnUse" style="mask-type:luminance"><path fill="#fff" fill-rule="evenodd" d="M720 0v15h20V0h-20Z" clip-rule="evenodd"/></mask><g mask="url(#J)"><path fill="#2E42A5" d="M720 0h11v9h-11z"/><mask id="K" width="11" height="9" x="720" y="0" maskUnits="userSpaceOnUse" style="mask-type:luminance"><path fill="#fff" d="M720 0h11v9h-11z"/></mask><g mask="url(#K)"><path fill="#F7FCFF" d="m718.747 8.125 2.476 1.086 10.083-8.03 1.306-1.614-2.647-.363-4.113 3.46-3.31 2.332-3.795 3.129Z"/><path fill="#F50100" d="m719.086 8.886 1.261.63L732.143-.583h-1.771l-11.286 9.469Z"/><path fill="#F7FCFF" d="m732.503 8.125-2.197 1.396-10.362-8.34-1.306-1.614 2.647-.363 4.113 3.46 3.31 2.332 3.795 3.129Z"/><path fill="#F50100" d="m732.418 8.67-1.261.63-5.023-4.323-1.489-.483-6.133-4.922h1.771l6.13 4.805 1.628.58 4.377 3.714Z"/><mask id="L" width="13" height="11" x="719" y="-1" fill="#000" maskUnits="userSpaceOnUse"><path fill="#fff" d="M719-1h13v11h-13z"/><path fill-rule="evenodd" d="M726 0h-1v4h-5v1h5v4h1V5h5V4h-5V0Z" clip-rule="evenodd"/></mask><path fill="#F50100" fill-rule="evenodd" d="M726 0h-1v4h-5v1h5v4h1V5h5V4h-5V0Z" clip-rule="evenodd"/><path fill="#F7FCFF" d="M725 0v-.938h-.938V0H725Zm1 0h.938v-.938H726V0Zm-1 4v.938h.938V4H725Zm-5 0v-.938h-.938V4H720Zm0 1h-.938v.938H720V5Zm5 0h.938v-.938H725V5Zm0 4h-.938v.938H725V9Zm1 0v.938h.938V9H726Zm0-4v-.938h-.938V5H726Zm5 0v.938h.938V5H731Zm0-1h.938v-.938H731V4Zm-5 0h-.938v.938H726V4Zm-1-3.063h1V-.938h-1V.938ZM725.938 4V0h-1.876v4h1.876ZM720 4.938h5V3.063h-5v1.874Zm.938.062V4h-1.876v1h1.876ZM725 4.062h-5v1.875h5V4.063ZM725.938 9V5h-1.876v4h1.876Zm.062-.938h-1v1.876h1V8.062ZM725.062 5v4h1.876V5h-1.876ZM731 4.062h-5v1.875h5V4.063ZM730.062 4v1h1.876V4h-1.876ZM726 4.938h5V3.063h-5v1.874ZM725.062 0v4h1.876V0h-1.876Z" mask="url(#L)"/></g><path fill="#FECA00" fill-rule="evenodd" stroke="#F7FCFF" stroke-width=".5" d="M733.154 6.27s.554 7.458 3.052 7.458c2.497 0 3.111-7.457 3.111-7.457h-6.163Z" clip-rule="evenodd"/><path fill="#CF6900" fill-rule="evenodd" d="m736.195 6.639.091-.104.434.277c.063-.098.175-.143.331-.136l-.158-.24.129-.07.3.362.03.01-.076-.47.151-.018.098.609h.007c.043 0 .091.02.14.053l.107-.662.151.018-.076.47.03-.01.3-.361.129.068-.158.241c.156-.007.268.038.331.136l.434-.277.091.104-.476.303c.007.034.01.072.01.112v.07l.657-.143.048.122-.705.25v.085l.669-.054.02.128-.689.1v.148l.69.114-.027.127-.663-.1v1.437h-.102V7.886l-.444-.066c-.05.351-.106.794-.098.954.008.158.126.226.209.273.064.037.107.062.061.108-.107.104-.373.203-.639.203s-.528-.1-.585-.203c-.01-.02-.009-.018.001-.007.041.048.249.286.265-.374a3.619 3.619 0 0 0-.105-.94l-.346.052v1.452h-.101V7.902l-.663.099-.028-.127.691-.114v-.148l-.689-.1.02-.128.669.054v-.085l-.705-.25.048-.122.657.144v-.07c0-.041.003-.079.009-.113l-.475-.303Zm.869 1.032.006.02-.308.052v-.116l.302.044Zm.006-.475-.013.016-.295-.065v-.093l.002-.052.306.194Zm.196-.193a2 2 0 0 0-.1.093l-.363-.232c.051-.088.151-.12.308-.097l.155.236Zm.668.16.469-.299c-.051-.088-.151-.12-.308-.097l-.217.331.056.065Zm.158.061.349-.222a.435.435 0 0 1 .002.052v.093l-.351.077Zm.141.24.21-.075v.057l-.21.017Zm-.162.217.372-.054v.116l-.372-.062Zm-1.309-.292v.057l.211.017-.211-.074Z" clip-rule="evenodd"/><path fill="#00A727" fill-rule="evenodd" d="M735.549 9.902s-.821 1.375-.821 2.208c0 0 .56.444 1.522.444s1.457-.444 1.457-.444c-.271-.988-.732-2.208-.732-2.208h-1.426Z" clip-rule="evenodd"/><path fill="#E31D1C" fill-rule="evenodd" d="M735.589 9.522a.686.686 0 1 1 1.371 0v.47h-1.371v-.47Z" clip-rule="evenodd"/><path fill="#FF927F" fill-rule="evenodd" d="M733.45 8.02s1.083.224 1.083.576.437.48.544.384c.107-.095.862-.162.862-.62 0-.46.063-.584-.12-.876-.184-.291-.566-1.276-.654-.882-.088.395-.221.687-.465.452-.245-.235-.559-.733-.67-.452-.11.282.35.565 0 .565-.349 0-.103.018-.103.256 0 .239.042.463-.218.463-.259 0-.259.135-.259.135Z" clip-rule="evenodd"/></g></g></g><g clip-path="url(#M)"><mask id="N" width="20" height="15" x="780" y="0" maskUnits="userSpaceOnUse" style="mask-type:luminance"><path fill="#fff" d="M780 0h20v15h-20z"/></mask><g fill-rule="evenodd" clip-rule="evenodd" mask="url(#N)"><path fill="#E11C1B" d="M794 0h6v15h-6V0Z"/><path fill="#2E42A5" d="M780 0h7v15h-7V0Z"/><path fill="#FBCD17" d="M786 0h8v15h-8V0Z"/></g></g><g clip-path="url(#O)"><mask id="P" width="20" height="15" x="840" y="0" maskUnits="userSpaceOnUse" style="mask-type:luminance"><path fill="#fff" d="M840 0h20v15h-20z"/></mask><g mask="url(#P)"><path fill="#2E42A5" fill-rule="evenodd" d="M840 0v15h20V0h-20Z" clip-rule="evenodd"/><mask id="Q" width="20" height="15" x="840" y="0" maskUnits="userSpaceOnUse" style="mask-type:luminance"><path fill="#fff" fill-rule="evenodd" d="M840 0v15h20V0h-20Z" clip-rule="evenodd"/></mask><g mask="url(#Q)"><path fill="#F7FCFF" fill-rule="evenodd" d="M851.743 3.875h5.03l-.49.94h-1.526v.505h1.17l-.477.874h-.693v1.75l1.142-1.8 1.478 2.559h-.604l-.211-.28h-1.337l-.941 1.738v.096l-.026-.048-.026.048v-.096l-.94-1.738h-1.338l-.211.28h-.604l1.478-2.56 1.142 1.8V4.815h-1.526l-.49-.94Zm4.185 3.318-.328.505h.622l-.294-.505Zm-3.34 0 .328.505h-.621l.293-.505Zm-2.392-.56.519-.383.52.383-.183-.641.504-.405-.633-.014-.208-.633-.207.633-.633.014.504.405-.183.641Zm7.589-.383-.52.383.183-.641-.504-.405.633-.014.208-.633.207.633.633.014-.504.405.183.641-.519-.383Zm-2.11 4.877.519-.383.519.383-.183-.642.504-.405-.632-.013-.208-.634-.208.634-.632.013.504.405-.183.642Zm-3.369-.383-.519.383.183-.642-.504-.405.632-.013.208-.634.208.634.632.013-.504.405.183.642-.519-.383Zm1.425 1.881.519-.383.519.383-.183-.642.504-.405-.632-.013-.208-.634-.208.634-.632.013.504.405-.183.642Z" clip-rule="evenodd"/><path fill="#2E42A5" stroke="#fff" stroke-width=".625" d="M839.688-.313h8.125v6.875h-8.125z"/><mask id="R" width="10" height="8" x="839" y="-1" maskUnits="userSpaceOnUse" style="mask-type:luminance"><path fill="#fff" stroke="#fff" stroke-width=".625" d="M839.688-.313h8.125v6.875h-8.125z"/></mask><g fill-rule="evenodd" clip-rule="evenodd" mask="url(#R)"><path fill="#F50100" d="M845 0h2.5v6.25H845V0Z"/><path fill="#2E42A5" d="M840 0h2.5v6.25H840V0Z"/><path fill="#F7FCFF" d="M842.5 0h2.5v6.25h-2.5V0Z"/></g></g></g></g><g clip-path="url(#S)"><mask id="T" width="20" height="15" x="900" y="0" maskUnits="userSpaceOnUse" style="mask-type:luminance"><path fill="#fff" d="M900 0h20v15h-20z"/></mask><g mask="url(#T)"><path fill="#5EAA22" stroke="#F7FCFF" stroke-width="1.25" d="M900-.625h-.625v16.25h21.25V-.625H900Z"/><path fill="#FECA00" fill-rule="evenodd" d="M900 3.75v2.5h20v-2.5h-20Zm0 5v2.5h20v-2.5h-20Z" clip-rule="evenodd"/><path fill="#F50101" d="M900 0h10v8.75h-10z"/><path fill="#F7FCFF" fill-rule="evenodd" d="m905.156 6.34-2.324 1.438.902-2.414-1.859-1.627h2.28l1.001-2.406.764 2.406h2.253l-1.582 1.627.778 2.296-2.213-1.32Z" clip-rule="evenodd"/></g></g><g clip-path="url(#U)"><mask id="V" width="20" height="15" x="960" y="0" maskUnits="userSpaceOnUse" style="mask-type:luminance"><path fill="#fff" d="M960 0h20v15h-20z"/></mask><g mask="url(#V)"><path fill="#F50101" fill-rule="evenodd" d="M960 10h20v5h-20v-5Zm0-10h20v3.75h-20V0Z" clip-rule="evenodd"/><path fill="#3D58DB" stroke="#fff" stroke-width="1.875" d="M960 4.063h-.938v6.875h21.876V4.062H960Z"/></g></g><g clip-path="url(#W)"><mask id="X" width="20" height="15" x="1020" y="0" maskUnits="userSpaceOnUse" style="mask-type:luminance"><path fill="#fff" d="M1020 0h20v15h-20z"/></mask><g fill-rule="evenodd" clip-rule="evenodd" mask="url(#X)"><path fill="#F7FCFF" d="M1020 0h20v15h-20V0Z"/><path fill="#C51918" d="M1020 0v5h20V0h-20Z"/><path fill="#409100" d="M1020 10v5h20v-5h-20Z"/><path fill="#FB0" d="m1030.01 5.394-.37.26.13-.437-.36-.276.45-.01.15-.431.15.432.45.009-.36.276.13.438-.37-.261Zm-1.56.383-.37.26.13-.437-.36-.276.45-.01.15-.431.15.432.45.009-.36.276.13.438-.37-.261Zm-1.58 1.41.37-.261.37.26-.13-.437.36-.276-.45-.01-.15-.431-.15.432-.45.009.36.276-.13.438Zm-.02 1.228-.37.261.13-.438-.36-.276.45-.009.15-.432.15.432.45.01-.36.275.13.438-.37-.261Zm5.91.261.37-.261.37.261-.13-.438.36-.276-.45-.009-.15-.432-.14.432-.45.01.35.275-.13.438Zm-.1-1.75-.37.26.13-.437-.36-.276.45-.01.15-.431.14.432.45.009-.35.276.13.438-.37-.261Zm-1.57-.888.37-.261.37.26-.13-.437.36-.276-.45-.01-.15-.431-.15.432-.45.009.36.276-.13.438Zm-3.17 4.434-.12-.41c.64-.173 1.37-.259 2.2-.259.82 0 1.56.086 2.19.258l-.11.41c-.6-.161-1.29-.242-2.08-.242s-1.49.08-2.08.243Zm.79-.658c-.26.043-.47-.203-.47-.203l.26-.104c-.01-.175.09-.284.09-.284.09.04.21.255.21.255h.22s-.06.293-.31.336Zm3-.16s-.21.245-.46.202c-.25-.043-.32-.336-.32-.336h.23s.12-.215.2-.254c0 0 .11.108.1.283l.25.105Zm-1.74.082c-.26.007-.43-.265-.43-.265l.26-.068a.416.416 0 0 1 .14-.267c.08.05.16.28.16.28l.23.031s-.11.281-.36.289Z"/><path fill="#FB0" d="M1029.97 8.562s-.29.67-.75.722c-.46.052-.7-.381-.7-.381s-.03.45-.58.624c-.54.174-.83-.52-.83-.52s.28.255.73.144c.44-.111.61-.522.61-.522s.33.428.77.214.68-.476.68-.727v-.751s-.11-.195-.31-.195-.25.138-.25.138-.08-.781.63-.83v-.002l.02.001h.02v.001c.7.049.63.83.63.83s-.06-.138-.25-.138c-.2 0-.31.195-.31.195v.75c0 .252.24.514.68.728.44.214.76-.214.76-.214s.18.41.62.522c.44.111.73-.144.73-.144s-.29.694-.84.52c-.55-.174-.58-.624-.58-.624s-.23.433-.69.381c-.46-.052-.76-.722-.76-.722l-.01-.886-.02.886Zm0-1.873c-.33 0-.39.275-.39.275.28 0 .39.125.39.125s.21-.125.42-.125c0 0-.1-.275-.42-.275Z"/></g></g><g clip-path="url(#Y)"><mask id="Z" width="20" height="15" x="1080" y="0" maskUnits="userSpaceOnUse" style="mask-type:luminance"><path fill="#fff" d="M1080 0h20v15h-20z"/></mask><g mask="url(#Z)"><path fill="#2E42A5" fill-rule="evenodd" d="M1080 0v15h20V0h-20Z" clip-rule="evenodd"/><mask id="aa" width="20" height="15" x="1080" y="0" maskUnits="userSpaceOnUse" style="mask-type:luminance"><path fill="#fff" fill-rule="evenodd" d="M1080 0v15h20V0h-20Z" clip-rule="evenodd"/></mask><g fill-rule="evenodd" clip-rule="evenodd" mask="url(#aa)"><path fill="#F7FCFF" d="m1082.06 6.29-.55.342.21-.575-.47-.435h.57l.24-.622.18.622h.57l-.41.435.2.575-.54-.342Zm2.5-2.5-.55.342.21-.575-.47-.435h.57l.24-.622.18.622h.57l-.41.435.2.575-.54-.342Zm2.5 2.5-.55.342.21-.575-.47-.435h.57l.24-.622.18.622h.57l-.41.435.2.575-.54-.342Zm-2.5 2.5-.55.342.21-.575-.47-.435h.57l.24-.622.18.622h.57l-.41.435.2.575-.54-.342Z"/><path fill="#FECA00" d="M1095.53 3.414c-2.56 1.261-10.94 6.927-10.94 6.927h13.97c-.14-.032-.27-.057-.39-.082-1.03-.204-1.54-.305-2.64-2.511-1.24-2.47 0-4.334 0-4.334Zm-11.4 7.814-.19.475.19.522 14.23.275.39-.725-.39-.522-14.23-.025Z"/></g></g></g><g clip-path="url(#ab)"><mask id="ac" width="20" height="15" x="1140" y="0" maskUnits="userSpaceOnUse" style="mask-type:luminance"><path fill="#fff" d="M1140 0h20v15h-20z"/></mask><g mask="url(#ac)"><path fill="#E31D1C" stroke="#F7FCFF" stroke-width="1.25" d="M1140-.625h-.62v16.25h21.24V-.625H1140Z"/><path fill="#FECA00" fill-rule="evenodd" d="m1140 0 15 7.5-15 7.5V0Z" clip-rule="evenodd"/><path fill="#272727" fill-rule="evenodd" d="m1140 0 10 7.5-10 7.5V0Z" clip-rule="evenodd"/><path fill="#F7FCFF" fill-rule="evenodd" d="m1144.16 9.005-1.27 1.313-.13-1.866-1.61-.992 1.68-.526.27-1.85 1.17 1.465 1.69-.455-.87 1.735.85 1.673-1.78-.497Z" clip-rule="evenodd"/></g></g><g clip-path="url(#ad)"><mask id="ae" width="20" height="15" x="1200" y="0" maskUnits="userSpaceOnUse" style="mask-type:luminance"><path fill="#fff" d="M1200 0h20v15h-20z"/></mask><g mask="url(#ae)"><path fill="#29C470" fill-rule="evenodd" d="M1200 0v15h20V0h-20Z" clip-rule="evenodd"/><mask id="af" width="20" height="15" x="1200" y="0" maskUnits="userSpaceOnUse" style="mask-type:luminance"><path fill="#fff" fill-rule="evenodd" d="M1200 0v15h20V0h-20Z" clip-rule="evenodd"/></mask><g mask="url(#af)"><path fill="#C51918" d="M1201.25-.202h6.25V16.25h-6.25z"/><mask id="ag" width="7" height="18" x="1201" y="-1" maskUnits="userSpaceOnUse" style="mask-type:luminance"><path fill="#fff" d="M1201.25-.202h6.25V16.25h-6.25z"/></mask><g mask="url(#ag)"><path fill="#E8AA00" fill-rule="evenodd" d="m1201.62.566-.34.439-.03-.03.33-.426V.455l.04-.118-.02-.042-.2.196.38-.587v.2l.07.066.17-.302-.17-.29-.12.096.05.102-.04.024-.28-.472.18.123.03-.046-.17-.176.07-.083-.25-.368.03-.028.28.4-.07.078.17.171-.08.113-.05-.036.1.165.16-.128.21.355-.21.37-.12-.111v-.08l-.13.192.06.092-.05.136v.099Zm-.34 3.578.34-.439v-.098l.05-.137-.06-.091.13-.193v.08l.12.111.21-.37-.21-.354-.16.127-.1-.164.05.035.08-.112-.17-.172.07-.078-.28-.4-.03.029.25.367-.07.084.17.175-.03.046-.18-.123.28.472.04-.024-.05-.102.12-.096.17.29-.17.302-.07-.065v-.2l-.38.586.2-.195.02.041-.04.119v.093l-.33.425.03.03Zm.34 2.424-.34.438-.03-.03.33-.426v-.093l.04-.119-.02-.04-.2.194.38-.586v.2l.07.066.17-.302-.17-.29-.12.095.05.102-.04.024-.28-.472.18.123.03-.046-.17-.175.07-.084-.25-.367.03-.028.28.4-.07.078.17.17-.08.113-.05-.035.1.164.16-.127.21.354-.21.37-.12-.11v-.08l-.13.192.06.092-.05.136v.099Zm-.34 3.347.34-.439v-.099l.05-.136-.06-.092.13-.192v.08l.12.111.21-.37-.21-.354-.16.127-.1-.165.05.036.08-.113-.17-.17.07-.08-.28-.399-.03.028.25.368-.07.084.17.175-.03.046-.18-.123.28.472.04-.024-.05-.102.12-.096.17.29-.17.302-.07-.065v-.2l-.38.586.2-.195.02.04-.04.12v.093l-.33.425.03.03Zm0 2.585.34-.439v-.098l.05-.136-.06-.092.13-.193v.08l.12.111.21-.37-.21-.354-.16.127-.1-.164.05.035.08-.112-.17-.171.07-.079-.28-.4-.03.029.25.367-.07.084.17.175-.03.046-.18-.123.28.472.04-.024-.05-.102.12-.096.17.29-.17.302-.07-.065v-.2l-.38.586.2-.195.02.041-.04.119v.093l-.33.426.03.03Zm6.19 0-.34-.439v-.098l-.05-.136.06-.092-.13-.193v.08l-.12.111-.21-.37.21-.354.16.127.1-.164-.05.035-.08-.112.17-.171-.07-.079.28-.4.03.029-.25.367.07.084-.17.175.03.046.18-.123-.28.472-.04-.024.05-.102-.12-.096-.17.29.17.302.07-.065v-.2l.38.586-.2-.195-.02.041.04.119v.093l.33.426-.03.03Zm-.34-3.024.34.439.03-.03-.33-.426v-.094l-.04-.118.02-.041.2.195-.38-.586v.2l-.07.065-.17-.302.17-.29.12.096-.05.102.04.024.28-.472-.18.123-.03-.046.17-.175-.07-.084.25-.368-.03-.028-.28.4.07.078-.17.171.08.113.05-.036-.1.165-.16-.127-.21.354.21.37.12-.111v-.08l.13.192-.06.092.05.136v.1Zm.34-2.47-.34-.438v-.1l-.05-.135.06-.092-.13-.192v.08l-.12.11-.21-.37.21-.354.16.127.1-.164-.05.035-.08-.112.17-.171-.07-.079.28-.4.03.029-.25.367.07.084-.17.175.03.046.18-.123-.28.472-.04-.024.05-.102-.12-.096-.17.29.17.303.07-.066v-.2l.38.586-.2-.195-.02.041.04.119v.093l.33.426-.03.03Zm-.34-3.3.34.438.03-.03-.33-.426v-.093l-.04-.119.02-.041.2.195-.38-.586v.2l-.07.065-.17-.302.17-.29.12.096-.05.102.04.024.28-.472-.18.123-.03-.046.17-.175-.07-.084.25-.367-.03-.029-.28.4.07.078-.17.172.08.112.05-.035-.1.164-.16-.127-.21.354.21.37.12-.11v-.08l.13.192-.06.091.05.137v.098Zm.34-2.701-.34-.439V.467l-.05-.136.06-.092-.13-.192v.08l-.12.111-.21-.37.21-.355.16.128.1-.165-.05.036-.08-.113.17-.17-.07-.08.28-.399.03.028-.25.368.07.083-.17.176.03.046.18-.123-.28.472-.04-.024.05-.102-.12-.096-.17.29.17.302.07-.065v-.2l.38.586-.2-.196-.02.042.04.118V.55l.33.425-.03.03Z" clip-rule="evenodd"/><path fill="#389F5D" fill-rule="evenodd" d="M1204.57 9.103h.97v.228h.22v.182h.26v.592h-.26v.183h-.22v.182h-.95l-.26.232-.26-.232h-.88v-.182h-.22v-.183h-.22v-.592h.22v-.182h.22v-.228h.9l.24-.21.24.21Z" clip-rule="evenodd"/><path fill="#E8AA00" d="M1205.54 9.103h.25v-.25h-.25v.25Zm-.97 0-.17.187.07.063h.1v-.25Zm.97.228h-.25v.25h.25v-.25Zm.22 0h.25v-.25h-.25v.25Zm0 .182h-.25v.25h.25v-.25Zm.26 0h.25v-.25h-.25v.25Zm0 .592v.25h.25v-.25h-.25Zm-.26 0v-.25h-.25v.25h.25Zm0 .183v.25h.25v-.25h-.25Zm-.22 0v-.25h-.25v.25h.25Zm0 .182v.25h.25v-.25h-.25Zm-.95 0v-.25h-.09l-.07.063.16.187Zm-.26.232-.16.188.16.147.17-.148-.17-.187Zm-.26-.232.16-.187-.07-.063h-.09v.25Zm-.88 0h-.25v.25h.25v-.25Zm0-.182h.25v-.25h-.25v.25Zm-.22 0h-.25v.25h.25v-.25Zm0-.183h.25v-.25h-.25v.25Zm-.22 0h-.25v.25h.25v-.25Zm0-.592v-.25h-.25v.25h.25Zm.22 0v.25h.25v-.25h-.25Zm0-.182v-.25h-.25v.25h.25Zm.22 0v.25h.25v-.25h-.25Zm0-.228v-.25h-.25v.25h.25Zm.9 0v.25h.1l.07-.063-.17-.187Zm.24-.21.17-.186-.17-.148-.16.147.16.188Zm1.21-.04h-.97v.5h.97v-.5Zm.25.478v-.228h-.5v.228h.5Zm-.03-.25h-.22v.5h.22v-.5Zm.25.432v-.182h-.5v.182h.5Zm.01-.25h-.26v.5h.26v-.5Zm.25.842v-.592h-.5v.592h.5Zm-.51.25h.26v-.5h-.26v.5Zm.25-.067v-.183h-.5v.183h.5Zm-.47.25h.22v-.5h-.22v.5Zm.25-.068v-.182h-.5v.182h.5Zm-1.2.25h.95v-.5h-.95v.5Zm-.09.17.26-.233-.33-.374-.26.233.33.373Zm-.6-.233.27.233.33-.375-.27-.232-.33.374Zm-.71.063h.88v-.5h-.88v.5Zm-.25-.432v.182h.5v-.182h-.5Zm.03.25h.22v-.5h-.22v.5Zm-.25-.433v.183h.5v-.183h-.5Zm.03.25h.22v-.5h-.22v.5Zm-.25-.842v.592h.5v-.592h-.5Zm.47-.25h-.22v.5h.22v-.5Zm-.25.068v.182h.5v-.182h-.5Zm.47-.25h-.22v.5h.22v-.5Zm-.25.022v.228h.5v-.228h-.5Zm1.15-.25h-.9v.5h.9v-.5Zm.17.437.24-.21-.33-.374-.24.21.33.374Zm-.09-.21.23.21.33-.374-.23-.21-.33.374Z"/><path fill="#C51918" fill-rule="evenodd" d="M1203.32 9.63v-.403h.47l-.47.403Zm1.98 0v-.403h-.47l.47.403Zm-1.98.729v-.403l.47.403h-.47Zm1.98-.403v.403h-.47l.47-.403Z" clip-rule="evenodd"/><path fill="#E8AA00" fill-rule="evenodd" d="m1204.15 9.262.17-.212.15.212h-.32Zm0 .198.17.212.15-.212h-.32Zm.17.501-.17.212h.32l-.15-.212Zm-.17.41.17.212.15-.212h-.32Z" clip-rule="evenodd"/><path fill="#AF0100" fill-rule="evenodd" d="M1204.16 9.237v.09h-.1v.126h.1v.09h.32v-.09h.09v-.125h-.09v-.091h-.32Zm.32 1.002v-.091h-.32v.091h-.1v.125h.1v.091h.32v-.09h.09v-.126h-.09Zm-.95-.521.16-.213.15.213h-.31Zm0 .2.16.212.15-.213h-.31Zm1.44-.413-.15.213h.3l-.15-.213Zm-.15.412.15.213.15-.213h-.3Z" clip-rule="evenodd"/><path fill="#E8AA00" fill-rule="evenodd" d="M1203.53 9.692v.093h-.09v.128h.09v.093h.31v-.093h.09v-.128h-.09v-.093h-.31Zm1.59.093v-.093h-.3v.093h-.09v.128h.09v.093h.3v-.093h.09v-.128h-.09Z" clip-rule="evenodd"/><mask id="ah" width="5" height="4" x="1202" y="10" maskUnits="userSpaceOnUse" style="mask-type:luminance"><path fill="#fff" fill-rule="evenodd" d="m1203.89 10.782-1.11.624v1.035l1.11.65h1.19l1.14-.65v-1.035l-1.14-.624h-1.19Z" clip-rule="evenodd"/></mask><g mask="url(#ah)"><path fill="#E8AA00" d="M1202.79 11.935h1.73v1.14h-1.73v-1.14Z"/><path fill="#F9E8E7" d="M1202.62 10.795h1.903v1.139h-1.903z"/><path fill="#E8AA00" d="m1203.06 11.46.57-.346v.345h-.57Zm3.36-.665h-1.903v1.14h1.903z"/><path fill="#F9E8E7" d="m1205.85 11.46-.58-.346v.345h.58Zm.4 1.614h-1.726v-1.139h1.726z"/><path fill="#E8AA00" d="m1205.8 12.41-.57.345v-.345h.57Z"/><path fill="#FCFCFC" d="m1203.06 12.338.57.345v-.345h-.57Z"/></g><path fill="#C51918" fill-rule="evenodd" d="M1203.9 11.48h.29l.29-.092.28.091h.29v.866h-.29l-.28.137-.29-.137h-.29v-.866Z" clip-rule="evenodd"/><path fill="#C9343F" fill-rule="evenodd" d="M1204.87 10.96h.16v.177h.06v.125h-.06v.067h-.16v-.368Zm-1.57.548h-.15v.368h.15v-.067h.07v-.125h-.07v-.176Zm.23 0h-.16v.368h.16v-.368Zm-.23.456h-.15v.368h.15v-.067h.07v-.125h-.07v-.177Zm.07 0h.16v.368h-.16v-.369Zm2.21-.456h.16v.176h.06v.125h-.06v.067h-.16v-.368Zm.38 0h-.16v.368h.16v-.368Zm-.22.456h-.16v.368h.16v-.067h.06v-.125h-.06v-.177Zm.06 0h.16v.368h-.16v-.369Zm-.55-1.003h-.15v.368h.15v-.368Zm-1.28 0h-.16v.368h.16v-.067h.06v-.125h-.06v-.176Zm.06 0h.16v.368h-.16v-.368Zm.84 1.55h.16v.176h.06v.125h-.06v.067h-.16v-.369Zm.38 0h-.15v.368h.15v-.369Zm-1.28 0h-.16v.368h.16v-.067h.06v-.125h-.06v-.177Zm.06 0h.16v.368h-.16v-.369Z" clip-rule="evenodd"/><path fill="#fff" fill-rule="evenodd" d="M1204.39 11.666h.04v-.123h-.22v.141h-.18v.203h.17v-.045h-.12v-.112h.15l.22.195-.22.196h-.15v-.112h.12v-.045h-.17v.203h.18v.141h.22v-.123h-.04v.078h-.13v-.11l.23-.199.23.2v.109h-.13v-.079h-.05v.124h.22v-.141h.18v-.203h-.17v.045h.13v.112h-.15l-.23-.196.23-.195h.15v.112h-.13v.045h.17v-.203h-.18v-.141h-.22v.123h.05v-.078h.13v.11l-.23.199-.23-.2v-.109h.13v.078Z" clip-rule="evenodd"/><path fill="#E8AA00" fill-rule="evenodd" d="M1204.74 3h-.78v2.5h.78V3Zm-1.75.529h.48v1.346h-.48V3.529Zm2.29 0h.48v1.346h-.48V3.529Z" clip-rule="evenodd"/><path fill="#389F5D" fill-rule="evenodd" d="M1203.96 3.192h-.49v1.923h.49V3.192Zm-.97.53h-.49v.913h.49V3.72Zm2.77 0h.49v.913h-.49V3.72Zm-.53-.53h-.49v1.923h.49V3.192Z" clip-rule="evenodd"/><path fill="#E1E5E8" fill-rule="evenodd" d="M1203.86 3.433a.14.14 0 0 1-.14.144.149.149 0 0 1-.15-.144c0-.08.07-.144.15-.144.08 0 .14.064.14.144Zm-.97.48a.15.15 0 0 1-.15.145.14.14 0 0 1-.14-.144c0-.08.06-.145.14-.145.08 0 .15.065.15.145Zm0 .53c0 .08-.07.144-.15.144a.14.14 0 0 1-.14-.145c0-.08.06-.144.14-.144.08 0 .15.065.15.144Zm.83.576a.14.14 0 0 0 .14-.144.14.14 0 0 0-.14-.144c-.08 0-.15.064-.15.144 0 .08.07.144.15.144Zm2.29-.961a.14.14 0 0 0 .14-.144.14.14 0 0 0-.14-.145.15.15 0 0 0-.15.145c0 .08.07.144.15.144Zm.14.384a.14.14 0 0 1-.14.145.149.149 0 0 1-.15-.145c0-.08.07-.144.15-.144.08 0 .14.065.14.144Zm-1.17.577c.08 0 .15-.064.15-.144 0-.08-.07-.144-.15-.144a.14.14 0 0 0-.14.144c0 .08.06.144.14.144Zm.15-1.586c0 .08-.07.144-.15.144a.14.14 0 0 1-.14-.144c0-.08.06-.144.14-.144.08 0 .15.064.15.144Z" clip-rule="evenodd"/><path fill="#C51918" fill-rule="evenodd" d="M1204.5 3.24a.15.15 0 0 1-.15.145.149.149 0 0 1-.15-.145c0-.08.07-.144.15-.144.08 0 .15.065.15.144Zm-1.12.53c0 .079-.07.143-.15.143a.149.149 0 0 1-.15-.144c0-.08.07-.144.15-.144.08 0 .15.065.15.144Zm.97 1.682a.15.15 0 0 0 .15-.144c0-.08-.07-.144-.15-.144-.08 0-.15.064-.15.144 0 .08.07.144.15.144Zm1.32-1.683c0 .08-.07.144-.15.144a.149.149 0 0 1-.15-.144c0-.08.07-.144.15-.144.08 0 .15.065.15.144Zm-2.44 1.01a.15.15 0 0 0 .15-.144.15.15 0 0 0-.15-.145.15.15 0 0 0-.15.145c0 .08.07.144.15.144Zm2.44-.144c0 .08-.07.144-.15.144a.149.149 0 0 1-.15-.144c0-.08.07-.145.15-.145.08 0 .15.065.15.145Z" clip-rule="evenodd"/><path fill="#C51918" fill-rule="evenodd" d="m1203.5 3.995.48-.429h.77l.54.492h.72v.192h-.7v.01l-.56.57h-.77l-.48-.515V4.25h-.81v-.192h.81v-.063Z" clip-rule="evenodd"/><path fill="#E8AA00" fill-rule="evenodd" d="m1204.38 3.923.23.233-.24.229-.24-.229.23-.233.01-.01.01.01Zm.04.563.03-.025-.03-.026.24-.227.25.253-.11.12h-.07l-.12.077-.19-.172Zm-.05.05-.23.213-.15-.097h-.08l-.18-.192.3-.302-.31-.285.2-.191.07.056.11-.104-.03-.032.05-.05.25.256.25-.256.06.05-.04.032.11.104.07-.056.2.191-.3.285.29.302-.18.192h-.07l-.16.097-.23-.213Zm.13-.598v-.003l-.07-.064-.01-.009.18-.166.14.139.07-.057.1.095-.25.233-.16-.168Zm-.16.523-.21.197-.12-.078h-.07l-.11-.119.25-.253.26.253Zm-.51-.588.25.233.24-.244-.18-.166-.14.139-.07-.057-.1.095Zm-1.05 9.528c-.13-.166-.22-.278-.24-.276-.07.005-.14.777.8 1.365 0 0 .14.078.23 0 .08-.078 0-.193 0-.193-.31-.287-.6-.65-.79-.896Zm3.19 0c.13-.166.22-.278.24-.276.07.005.14.777-.8 1.365 0 0-.14.078-.23 0-.08-.078 0-.193 0-.193.31-.287.6-.65.79-.896Zm-.07 1.039c-.31.092-.67.111-.81.052a.682.682 0 0 0-.14-.045 1.261 1.261 0 0 0-.43-.014l-.06.006-.03.003c-.01 0-.02.002-.03.004a.119.119 0 0 0-.03-.004l-.02-.002h-.01a.557.557 0 0 0-.06-.007 1.27 1.27 0 0 0-.43.014 1.61 1.61 0 0 0-.14.045c-.13.06-.49.04-.81-.052 0 0 .57.227.91.127a.423.423 0 0 1 .1-.034.96.96 0 0 1 .31-.012c-.05.023-.1.05-.17.076v.028c.13-.054.29-.08.35-.087.07.008.22.033.36.087v-.028a3.113 3.113 0 0 1-.18-.076c.12-.011.22-.01.31.012.04.008.07.02.11.034.33.1.9-.127.9-.127Z" clip-rule="evenodd"/><path fill="#389F5D" fill-rule="evenodd" d="m1203.6 6.236-.78.69v.656l.68.687h1.4l.77-.733v-.56l-.77-.74h-1.3Z" clip-rule="evenodd"/><path fill="#C51918" fill-rule="evenodd" d="M1203.87 6.309h-.18v.137h.18v-.137Zm0 1.787h-.18v.137h.18v-.137Zm.27 0h.17v.137h-.17v-.137Zm.17-1.787h-.17v.137h.17v-.137Zm.27 1.787h.18v.137h-.18v-.137Zm.18-1.787h-.18v.137h.18v-.137Z" clip-rule="evenodd"/><path fill="#E8AA00" fill-rule="evenodd" d="M1204.1 6.273h-.18v.137h.18v-.137Zm0 1.823h-.18v.137h.18v-.137Zm.27-1.823h.18v.137h-.18v-.137Zm.18 1.823h-.18v.137h.18v-.137Z" clip-rule="evenodd"/><path fill="#750100" fill-rule="evenodd" d="M1203.07 6.151h2.36v.365h.34v1.51h-.34v.311h-2.36v-.312h-.37V6.516h.37v-.365Zm.13.502h-.36v1.236h.36V8.2h2.1v-.312h.34V6.653h-.34v-.365h-2.1v.365Z" clip-rule="evenodd"/><path fill="#389F5D" fill-rule="evenodd" d="M1204 6h-.22v.228h.22V6Zm.36 0h-.22v.228h.22V6Zm.13 0h.22v.228h-.22V6Zm-.49 2.279h-.22v.228h.22v-.228Zm.14 0h.22v.228h-.22v-.228Zm.57 0h-.22v.228h.22v-.228Zm-2.21-.505v-.221h.22v.221h-.22Zm0-.586v.221h.22v-.22h-.22Zm0-.143v-.221h.22v.22h-.22Zm3.18.508v.221h.23v-.221h-.23Zm0-.144v-.22h.23v.22h-.23Zm0-.585v.22h.23v-.22h-.23Z" clip-rule="evenodd"/><path fill="#C51918" fill-rule="evenodd" d="m1203.61 6.428-.38.332v1.074l.32.224h1.37l.32-.224V6.76l-.36-.332h-1.27Z" clip-rule="evenodd"/><path fill="#E1E5E8" fill-rule="evenodd" d="m1204.25 6.873-.46.393h.46v-.393Z" clip-rule="evenodd"/><path fill="#E8AA00" d="m1204.25 7.623-.46-.393h.46v.393Z"/><path fill="#E8AA00" fill-rule="evenodd" d="m1204.21 6.873.46.393h-.46v-.393Z" clip-rule="evenodd"/><path fill="#29AE66" fill-rule="evenodd" d="M1204.23 7.373c.08 0 .14-.063.14-.14 0-.077-.06-.14-.14-.14-.07 0-.14.063-.14.14 0 .077.07.14.14.14Z" clip-rule="evenodd"/><path fill="#E1E5E8" d="m1204.21 7.623.46-.393h-.46v.393Z"/><path fill="#C51918" fill-rule="evenodd" d="M1203.25 7.094h-.4v.127h.4v-.127Zm0 .232h-.4v.128h.4v-.128Zm1.99-.232h.4v.127h-.4v-.127Zm.4.232h-.4v.128h.4v-.128Z" clip-rule="evenodd"/><path fill="#E8AA00" fill-rule="evenodd" d="M1203.21 6.957h-.36v.14h.36v-.14Zm0 .232h-.36v.14h.36v-.14Zm-.36.233h.36v.14h-.36v-.14Zm2.75-.465h-.36v.14h.36v-.14Zm-.36.232h.36v.14h-.36v-.14Zm.36.233h-.36v.14h.36v-.14Zm.64-6.428v.253h-1.85v1.15h-.58c-.1 0-.38-.194-.38-.194h-.47l-.22-.222v-.223l-.23-.277v-.254h1.85V.077h.58c.1 0 .38.195.38.195h.47l.22.222v.223l.23.277Z" clip-rule="evenodd"/><path fill="#E1E5E8" fill-rule="evenodd" d="M1202.51.994v.253h1.85v1.15h.58c.1 0 .38-.194.38-.194h.47l.22-.222v-.223l.23-.277v-.254h-1.85V.077h-.58c-.1 0-.38.195-.38.195h-.47l-.22.222v.223l-.23.277Z" clip-rule="evenodd"/><path fill="#C51918" fill-rule="evenodd" d="m1203.75.428-.02-.097.4-.092c.05-.023.13-.09.25-.196l.05.06.01-.01c.11.107.2.173.24.196l.4.092-.02.097-.22-.045.02.019c-.01.009-.03.022-.05.04l-.09-.014.01-.032-.03-.004c-.01.033-.03.079-.05.138l-.1-.027.04-.181-.21-.198-.15.138a.64.64 0 0 1 .06.058c-.02.006-.03.011-.05.016v.001l.02.116-.09.027c-.02-.034-.03-.064-.04-.09l-.01.001a.11.11 0 0 0-.05-.04l.03-.023c0-.008-.01-.014-.01-.02l-.34.07Zm.02.358.05-.083-.27-.185.03-.043-.08-.059-.04.047-.11-.073-.05.084.11.07-.03.03.08.06.03-.035.28.187Zm-.34.1.05-.083-.28-.185.04-.043-.08-.059-.04.047-.11-.073-.05.084.11.07-.03.03.08.06.03-.035.28.187Zm-.15.3.05-.083-.27-.185.03-.043-.08-.059-.03.047-.11-.073-.06.084.11.07-.02.03.08.06.02-.035.28.187Zm.01.24-.06-.083-.28.187-.02-.034-.08.059.02.03-.1.07.05.084.11-.073.03.047.08-.059-.03-.043.28-.185Zm.09.217.05.083-.27.185.03.043-.08.06-.04-.048-.11.073-.05-.083.11-.07-.03-.031.08-.06.03.035.28-.187Zm.34.1.05.083-.27.185.03.043-.08.06-.03-.048-.11.073-.06-.083.11-.07-.02-.031.07-.06.03.035.28-.187Zm.52.478c-.02-.006-.03-.012-.05-.016l-.01-.005.03-.174-.09-.027a.798.798 0 0 1-.08.172l-.34-.07-.02.098.39.088.05.037.01-.004c.05.034.11.09.2.166l.03-.035.03.035c.11-.107.2-.172.25-.196l.01-.003a.13.13 0 0 0 .05.037l.05-.037v-.019l.01-.005.27-.064-.02-.098-.33.07a.798.798 0 0 1-.08-.172l-.1.027.04.181-.18.173-.14-.133c0-.009.01-.017.02-.026Zm1.19-.795.05-.083.28.187.03-.034.08.059-.02.03.1.07-.05.084-.11-.073-.04.047-.07-.059.03-.043-.28-.185Zm-.14.3.05-.083.28.187.02-.034.08.059-.02.03.1.07-.05.084-.11-.073-.03.047-.08-.059.03-.043-.27-.185Zm-.35.1.06-.083.28.187.02-.034.08.059-.02.03.1.07-.05.084-.11-.073-.03.047-.08-.059.03-.043-.28-.185Zm.54-.673.05.083.28-.187.03.034.08-.059-.03-.03.11-.07-.05-.084-.11.073-.04-.047-.08.06.04.042-.28.185Zm-.15-.3.06.083.28-.187.02.034.08-.059-.02-.03.1-.07-.05-.084-.11.073-.03-.047-.08.06.03.042-.28.185Zm-.34-.1.06.083.28-.187.02.034.08-.059-.02-.03.1-.07-.05-.084-.11.073-.03-.047-.08.06.03.042-.28.185Z" clip-rule="evenodd"/><path fill="#C51918" fill-rule="evenodd" d="m1203.88.72.55-.292v.8h1.36l-.32.234v.306h-.51l-.56.293v-.8h-1.36l.33-.234V.72h.51Z" clip-rule="evenodd"/><path fill="#29AE66" fill-rule="evenodd" d="m1204.96.72-.56-.292v.8h-1.36l.33.234v.306h.51l.55.293v-.8h1.36l-.32-.234V.72h-.51Z" clip-rule="evenodd"/><path fill="#29AE66" fill-rule="evenodd" d="m1203.61.928.09-.178.23.123.06-.094.16.114-.05.073.68.363.04-.063.16.114-.02.042.07.039-.09.177-.09-.05-.08.114-.16-.114.06-.094-.68-.362-.05.083-.16-.114.04-.062-.21-.111Z" clip-rule="evenodd"/><path fill="#C51918" fill-rule="evenodd" d="m1205.06.88-.11-.172-.22.139-.07-.09-.15.125.06.07-.65.408-.05-.059-.15.125.03.04-.07.044.1.17.09-.057.09.109.15-.125-.07-.089.65-.409.06.079.15-.125-.04-.059.2-.125Z" clip-rule="evenodd"/></g><path fill="#F7FCFF" fill-rule="evenodd" d="M1211.92 1.25s1.46 3.451.16 4.917c-1.29 1.465-4.58 1.183-4.58 1.183s4.22 1.907 6.06-.72c1.84-2.626-1.64-5.38-1.64-5.38Z" clip-rule="evenodd"/><path fill="#F7FCFF" fill-rule="evenodd" d="m1209.28 3.28-.39.271.14-.454-.38-.287.47-.01.16-.448.15.448.47.01-.37.287.13.454-.38-.27Zm.07 1.254-.38.27.13-.454-.37-.287.47-.01.15-.448.16.449.47.01-.38.286.14.455-.39-.271Zm-1.55.368.38-.272.39.272-.14-.455.37-.287-.46-.01-.16-.448-.15.448-.47.01.37.287-.13.455Zm1.55.946-.38.271.13-.454-.37-.287.47-.01.15-.448.16.448.47.01-.38.287.14.454-.39-.27Zm.89-1.426.39-.272.38.272-.13-.455.37-.287-.47-.01-.15-.448-.16.449-.47.01.38.286-.14.455Z" clip-rule="evenodd"/></g></g></g><g clip-path="url(#ai)"><mask id="aj" width="20" height="15" x="1260" y="0" maskUnits="userSpaceOnUse" style="mask-type:luminance"><path fill="#fff" d="M1260 0h20v15h-20z"/></mask><g mask="url(#aj)"><path fill="#E31D1C" fill-rule="evenodd" d="M1260 0v15h20V0h-20Z" clip-rule="evenodd"/><mask id="ak" width="20" height="15" x="1260" y="0" maskUnits="userSpaceOnUse" style="mask-type:luminance"><path fill="#fff" fill-rule="evenodd" d="M1260 0v15h20V0h-20Z" clip-rule="evenodd"/></mask><g fill-rule="evenodd" clip-rule="evenodd" mask="url(#ak)"><path fill="#F7FCFF" d="M1270 12.5a5 5 0 0 0 0-10 5 5 0 0 0 0 10Z"/><path fill="#E31D1C" d="M1270.88 11.032s-2.64-.72-2.64-3.549c0-2.829 2.64-3.61 2.64-3.61-1.09-.421-4.28.226-4.28 3.61 0 3.385 3.28 3.994 4.28 3.549Zm-.15-4.164-1.31.477 1.41.492.05 1.315.85-1.022 1.41.1-1.01-.829.61-1.197-1.2.403-.83-1.035.02 1.296Z"/></g></g></g><g clip-path="url(#al)"><mask id="am" width="20" height="15" x="1320" y="0" maskUnits="userSpaceOnUse" style="mask-type:luminance"><path fill="#fff" d="M1320 0h20v15h-20z"/></mask><g mask="url(#am)"><path fill="#E31D1C" fill-rule="evenodd" d="M1320 0v15h20V0h-20Z" clip-rule="evenodd"/><mask id="an" width="20" height="15" x="1320" y="0" maskUnits="userSpaceOnUse" style="mask-type:luminance"><path fill="#fff" fill-rule="evenodd" d="M1320 0v15h20V0h-20Z" clip-rule="evenodd"/></mask><g mask="url(#an)"><path fill="#F7FCFF" d="M1320 0h11.25v10H1320z"/><path fill="#E31D1C" fill-rule="evenodd" d="M1327.5 1.25h-2.5v2.5h-2.5v2.5h2.5v2.5h2.5v-2.5h2.5v-2.5h-2.5v-2.5Z" clip-rule="evenodd"/></g></g></g><g clip-path="url(#ao)"><mask id="ap" width="20" height="15" x="1380" y="0" maskUnits="userSpaceOnUse" style="mask-type:luminance"><path fill="#fff" d="M1380 0h20v15h-20z"/></mask><g mask="url(#ap)"><path fill="#E31D1C" fill-rule="evenodd" d="M1380 0v15h20V0h-20Z" clip-rule="evenodd"/><mask id="aq" width="20" height="15" x="1380" y="0" maskUnits="userSpaceOnUse" style="mask-type:luminance"><path fill="#fff" fill-rule="evenodd" d="M1380 0v15h20V0h-20Z" clip-rule="evenodd"/></mask><g mask="url(#aq)"><path fill="#F7FCFF" fill-rule="evenodd" d="M1390.02 10.07c-1.34-.329-2.39-1.449-2.38-3.091.01-1.537.94-2.837 2.41-3.188 1.48-.352 2.77.395 2.77.395-.41-.96-1.82-1.635-2.98-1.633-2.15.004-4.45 1.752-4.47 4.426-.02 2.772 2.46 4.35 4.64 4.347 1.75-.003 2.58-1.2 2.75-1.71 0 0-1.41.785-2.74.455Zm3.04-3.616-1.33.49 1.51.53-.03 1.586.99-1.19 1.64.12-1.3-1.116.85-1.19-1.38.467-1-1.102.05 1.405Z" clip-rule="evenodd"/></g></g></g><g clip-path="url(#ar)"><mask id="as" width="20" height="15" x="1440" y="0" maskUnits="userSpaceOnUse" style="mask-type:luminance"><path fill="#fff" d="M1440 0h20v15h-20z"/></mask><g mask="url(#as)"><path fill="#E31D1C" fill-rule="evenodd" d="M1440 0v15h20V0h-20Z" clip-rule="evenodd"/><mask id="at" width="20" height="15" x="1440" y="0" maskUnits="userSpaceOnUse" style="mask-type:luminance"><path fill="#fff" fill-rule="evenodd" d="M1440 0v15h20V0h-20Z" clip-rule="evenodd"/></mask><g mask="url(#at)"><path fill="#272727" stroke="#F7FCFF" stroke-width=".915" d="m1458.47 18.426-.33.271-.3-.312-18.96-20.25-.34-.356.38-.31 1.94-1.583.33-.27.29.311 18.97 20.25.33.357-.38.31-1.93 1.582Z"/></g></g></g><g clip-path="url(#au)"><mask id="av" width="20" height="15" x="1500" y="0" maskUnits="userSpaceOnUse" style="mask-type:luminance"><path fill="#fff" d="M1500 0h20v15h-20z"/></mask><g mask="url(#av)"><path fill="#00B4FF" fill-rule="evenodd" d="M1500 0v15h20V0h-20Z" clip-rule="evenodd"/><mask id="aw" width="20" height="15" x="1500" y="0" maskUnits="userSpaceOnUse" style="mask-type:luminance"><path fill="#fff" fill-rule="evenodd" d="M1500 0v15h20V0h-20Z" clip-rule="evenodd"/></mask><g mask="url(#aw)"><path fill="#2E42A5" d="M1500 0h11v9h-11z"/><mask id="ax" width="11" height="9" x="1500" y="0" maskUnits="userSpaceOnUse" style="mask-type:luminance"><path fill="#fff" d="M1500 0h11v9h-11z"/></mask><g mask="url(#ax)"><path fill="#F7FCFF" d="m1498.75 8.125 2.47 1.086 10.09-8.03 1.3-1.614-2.65-.363-4.11 3.46-3.31 2.332-3.79 3.129Z"/><path fill="#F50100" d="m1499.09 8.886 1.26.63 11.79-10.099h-1.77l-11.28 9.469Z"/><path fill="#F7FCFF" d="m1512.5 8.125-2.19 1.396-10.37-8.34-1.3-1.614 2.65-.363 4.11 3.46 3.31 2.332 3.79 3.129Z"/><path fill="#F50100" d="m1512.42 8.67-1.26.63-5.03-4.323-1.49-.483-6.13-4.922h1.77l6.13 4.805 1.63.58 4.38 3.714Z"/><mask id="ay" width="13" height="11" x="1499" y="-1" fill="#000" maskUnits="userSpaceOnUse"><path fill="#fff" d="M1499-1h13v11h-13z"/><path fill-rule="evenodd" d="M1506 0h-1v4h-5v1h5v4h1V5h5V4h-5V0Z" clip-rule="evenodd"/></mask><path fill="#F50100" fill-rule="evenodd" d="M1506 0h-1v4h-5v1h5v4h1V5h5V4h-5V0Z" clip-rule="evenodd"/><path fill="#F7FCFF" d="M1505 0v-.938h-.94V0h.94Zm1 0h.94v-.938h-.94V0Zm-1 4v.938h.94V4h-.94Zm-5 0v-.938h-.94V4h.94Zm0 1h-.94v.938h.94V5Zm5 0h.94v-.938h-.94V5Zm0 4h-.94v.938h.94V9Zm1 0v.938h.94V9h-.94Zm0-4v-.938h-.94V5h.94Zm5 0v.938h.94V5h-.94Zm0-1h.94v-.938h-.94V4Zm-5 0h-.94v.938h.94V4Zm-1-3.063h1V-.938h-1V.938Zm.94 3.063V0h-1.88v4h1.88Zm-5.94.938h5V3.063h-5v1.874Zm.94.062V4h-1.88v1h1.88Zm4.06-.938h-5v1.875h5V4.063Zm.94 4.938V5h-1.88v4h1.88Zm.06-.938h-1v1.876h1V8.062ZM1505.06 5v4h1.88V5h-1.88Zm5.94-.938h-5v1.875h5V4.063Zm-.94-.062v1h1.88V4h-1.88Zm-4.06.938h5V3.063h-5v1.874ZM1505.06 0v4h1.88V0h-1.88Z" mask="url(#ay)"/></g><path fill="#FFD018" fill-rule="evenodd" d="m1516.79 6.678.37-.703.84-.025-.65-.539.23-.726-.56.334-.7-.426.06.807-.62.378.81.102.22.798Zm-2.13.547-.37.703-.22-.798-.81-.102.62-.378-.06-.807.7.426.56-.334-.23.726.65.539-.84.025Zm-1.62 1.953.37-.703.84-.025-.65-.539.23-.726-.56.334-.7-.426.06.807-.62.378.81.102.22.798Zm-2.5 2.5.37-.704.84-.024-.65-.539.23-.726-.56.334-.7-.426.06.807-.62.378.81.102.22.798Zm-2.43 1.907-.69.407.23-.793-.65-.509h.74l.35-.727.39.727h.64l-.56.509.28.793-.73-.407Zm2.8-.11-.37.703-.22-.798-.81-.102.62-.378-.06-.808.7.427.56-.334-.23.726.65.539-.84.025Zm2.5-1.25-.37.703-.22-.798-.81-.102.62-.378-.06-.808.7.427.56-.334-.23.726.65.539-.84.025Zm2.5-1.25-.37.703-.22-.798-.81-.102.62-.378-.06-.807.7.426.56-.334-.23.726.65.539-.84.025Zm.88-.547.37-.703.84-.025-.65-.539.23-.726-.56.334-.7-.426.06.807-.62.378.81.102.22.798Z" clip-rule="evenodd"/></g></g></g><g clip-path="url(#az)"><mask id="aA" width="20" height="15" x="1560" y="0" maskUnits="userSpaceOnUse" style="mask-type:luminance"><path fill="#fff" d="M1560 0h20v15h-20z"/></mask><g mask="url(#aA)"><path fill="#EF0000" fill-rule="evenodd" d="M1560 0v15h20V0h-20Z" clip-rule="evenodd"/><mask id="aB" width="20" height="15" x="1560" y="0" maskUnits="userSpaceOnUse" style="mask-type:luminance"><path fill="#fff" fill-rule="evenodd" d="M1560 0v15h20V0h-20Z" clip-rule="evenodd"/></mask><g fill-rule="evenodd" clip-rule="evenodd" mask="url(#aB)"><path fill="#2E42A5" d="M1560 0v8.75h11.25V0H1560Z"/><path fill="#FEFFFF" d="m1565.46 6.757-.93 1.155-.22-1.464-1.38.538.53-1.38-1.46-.224 1.16-.926-1.16-.926 1.46-.224-.53-1.38 1.38.538.22-1.464.93 1.155.92-1.155.23 1.464 1.38-.538-.54 1.38 1.46.224-1.15.926 1.15.926-1.46.224.54 1.38-1.38-.538-.23 1.464-.92-1.155Zm0-.512c.98 0 1.78-.801 1.78-1.789 0-.988-.8-1.789-1.78-1.789a1.789 1.789 0 1 0 0 3.578Zm1.43-1.789c0 .79-.64 1.431-1.43 1.431-.79 0-1.44-.64-1.44-1.431 0-.79.65-1.431 1.44-1.431.79 0 1.43.64 1.43 1.431Z"/></g></g></g><g clip-path="url(#aC)"><mask id="aD" width="20" height="15" x="1620" y="0" maskUnits="userSpaceOnUse" style="mask-type:luminance"><path fill="#fff" d="M1620 0h20v15h-20z"/></mask><g mask="url(#aD)"><path fill="#3195F9" fill-rule="evenodd" d="M1620 0v15h20V0h-20Z" clip-rule="evenodd"/><mask id="aE" width="20" height="15" x="1620" y="0" maskUnits="userSpaceOnUse" style="mask-type:luminance"><path fill="#fff" fill-rule="evenodd" d="M1620 0v15h20V0h-20Z" clip-rule="evenodd"/></mask><g mask="url(#aE)"><path fill="#73BE4A" fill-rule="evenodd" d="M1620 0v15l20-15h-20Z" clip-rule="evenodd"/><path fill="#272727" stroke="#FFD018" stroke-width="1.563" d="m1618.86 15.9.44.65.65-.434L1642.61.988l.65-.433-.44-.65-1.38-2.08-.44-.65-.65.434-22.66 15.128-.65.433.43.65 1.39 2.08Z"/></g></g></g><g clip-path="url(#aF)"><mask id="aG" width="20" height="15" x="1680" y="0" maskUnits="userSpaceOnUse" style="mask-type:luminance"><path fill="#fff" d="M1680 0h20v15h-20z"/></mask><g mask="url(#aG)"><path fill="#3195F9" fill-rule="evenodd" d="M1680 0v15h20V0h-20Z" clip-rule="evenodd"/><mask id="aH" width="20" height="15" x="1680" y="0" maskUnits="userSpaceOnUse" style="mask-type:luminance"><path fill="#fff" fill-rule="evenodd" d="M1680 0v15h20V0h-20Z" clip-rule="evenodd"/></mask><g mask="url(#aH)"><path fill="#FECA00" fill-rule="evenodd" d="M1680 7.5V15h20V7.5h-20Z" clip-rule="evenodd"/></g></g></g><g clip-path="url(#aI)"><mask id="aJ" width="20" height="15" x="1740" y="0" maskUnits="userSpaceOnUse" style="mask-type:luminance"><path fill="#fff" d="M1740 0h20v15h-20z"/></mask><g mask="url(#aJ)"><path fill="#FECA00" fill-rule="evenodd" d="M1740 0v15h20V0h-20Z" clip-rule="evenodd"/><mask id="aK" width="20" height="15" x="1740" y="0" maskUnits="userSpaceOnUse" style="mask-type:luminance"><path fill="#fff" fill-rule="evenodd" d="M1740 0v15h20V0h-20Z" clip-rule="evenodd"/></mask><g mask="url(#aK)"><path fill="#272727" d="M1740 0h20v2.5h-20z"/><path fill="#D74800" d="M1740 5h20v2.5h-20z"/><path fill="#272727" d="M1740 7.5h20V10h-20z"/><path fill="#D74800" d="M1740 12.5h20V15h-20z"/><path fill="#F7FCFF" fill-rule="evenodd" d="M1750 11.25a3.75 3.75 0 1 0-.001-7.501 3.75 3.75 0 0 0 .001 7.501Z" clip-rule="evenodd"/><path fill="#272727" fill-rule="evenodd" d="m1748.55 5.205-.66.217.66.057s.11.262 0 .466c-.03.051-.1.118-.19.203-.26.249-.69.656-.69 1.318 0 .888 1.71 1.29 1.71 1.29v.422s.2.124-.93.124c-.99 0-.92.373-.89.577.01.032.01.059.01.08 0 .162.47-.16.69-.482.12-.17.61-.16 1.11-.114.04.004.4.777.09 1.176-.14.168-.6.19-.88.204-.15.007-.25.011-.24.032 0 .016.09.011.22.003.15-.009.37-.022.57-.003.03.003-.08.106-.2.21-.13.107-.25.216-.22.217.04.002.27-.126.48-.242.18-.096.34-.185.36-.185.16 0 .3.02.43.037.21.029.37.05.47-.037.03-.026-.15-.07-.33-.114-.19-.045-.39-.091-.36-.122.18-.172.1-.535.05-.82-.03-.128-.05-.24-.05-.314.02-.26.29-.123.51-.016.09.046.18.088.22.088.41 0-.1-.516-.38-.8a1.031 1.031 0 0 0-.06-.068c-.15-.146-.05-.127.18-.083.17.034.41.083.68.083.61 0 1.06-.2.9-.739-.1-.356-.66-.477-1.25-.603-.3-.066-.61-.132-.86-.233-.64-.249-.6-.612-.58-.918.01-.06.01-.117.01-.171 0-.333.57-.74.57-.74s-.26-.429-.69-.429c-.42 0-.46.43-.46.43Zm1.16 3.905v-.313s.26-.009.35.212c.09.22-.35.101-.35.101Z" clip-rule="evenodd"/><path fill="#D74800" fill-rule="evenodd" d="m1748.17 4.195.64.75.32-.076-.15-.759-.81.085Z" clip-rule="evenodd"/><path fill="#FFD018" fill-rule="evenodd" d="m1749 4.013.04 1.13.54-.134.23-.74-.81-.256Z" clip-rule="evenodd"/><path fill="#D74800" fill-rule="evenodd" d="M1748.49 5.9c.12 0 .21-.095.21-.212 0-.116-.09-.21-.21-.21s-.22.094-.22.21c0 .117.1.211.22.211Zm1.37-1.675-.63.754.13.31.72-.287-.22-.777Zm1.46 5.708s1.11-.494 1.11-1.187c0-.692-1.8-1.445-1.8-1.445s-1.05.242-.58.566c.48.324 1.12.448 1.12.88 0 .43.17.842-.18.842-.36 0 .33.344.33.344Z" clip-rule="evenodd"/><path fill="#FFFDFF" fill-rule="evenodd" d="M1749.73 7.174s-.4.069-.38.132c.05.176.59.405.82.564.48.324.93.288 1.27.077.34-.211-1.71-.773-1.71-.773Z" clip-rule="evenodd"/></g></g></g></g><defs><clipPath id="a"><rect width="1760" height="15" fill="#fff" rx="2"/></clipPath><clipPath id="b"><rect width="20" height="15" fill="#fff" rx="2"/></clipPath><clipPath id="f"><rect width="20" height="15" x="60" fill="#fff" rx="2"/></clipPath><clipPath id="i"><rect width="20" height="15" x="120" fill="#fff" rx="2"/></clipPath><clipPath id="l"><rect width="20" height="15" x="180" fill="#fff" rx="2"/></clipPath><clipPath id="n"><rect width="20" height="15" x="240" fill="#fff" rx="2"/></clipPath><clipPath id="p"><rect width="20" height="15" x="300" fill="#fff" rx="2"/></clipPath><clipPath id="r"><rect width="20" height="15" x="360" fill="#fff" rx="2"/></clipPath><clipPath id="t"><rect width="20" height="15" x="420" fill="#fff" rx="2"/></clipPath><clipPath id="v"><rect width="20" height="15" x="480" fill="#fff" rx="2"/></clipPath><clipPath id="y"><rect width="20" height="15" x="540" fill="#fff" rx="2"/></clipPath><clipPath id="C"><rect width="20" height="15" x="600" fill="#fff" rx="2"/></clipPath><clipPath id="E"><rect width="20" height="15" x="660" fill="#fff" rx="2"/></clipPath><clipPath id="H"><rect width="20" height="15" x="720" fill="#fff" rx="2"/></clipPath><clipPath id="M"><rect width="20" height="15" x="780" fill="#fff" rx="2"/></clipPath><clipPath id="O"><rect width="20" height="15" x="840" fill="#fff" rx="2"/></clipPath><clipPath id="S"><rect width="20" height="15" x="900" fill="#fff" rx="2"/></clipPath><clipPath id="U"><rect width="20" height="15" x="960" fill="#fff" rx="2"/></clipPath><clipPath id="W"><rect width="20" height="15" x="1020" fill="#fff" rx="2"/></clipPath><clipPath id="Y"><rect width="20" height="15" x="1080" fill="#fff" rx="2"/></clipPath><clipPath id="ab"><rect width="20" height="15" x="1140" fill="#fff" rx="2"/></clipPath><clipPath id="ad"><rect width="20" height="15" x="1200" fill="#fff" rx="2"/></clipPath><clipPath id="ai"><rect width="20" height="15" x="1260" fill="#fff" rx="2"/></clipPath><clipPath id="al"><rect width="20" height="15" x="1320" fill="#fff" rx="2"/></clipPath><clipPath id="ao"><rect width="20" height="15" x="1380" fill="#fff" rx="2"/></clipPath><clipPath id="ar"><rect width="20" height="15" x="1440" fill="#fff" rx="2"/></clipPath><clipPath id="au"><rect width="20" height="15" x="1500" fill="#fff" rx="2"/></clipPath><clipPath id="az"><rect width="20" height="15" x="1560" fill="#fff" rx="2"/></clipPath><clipPath id="aC"><rect width="20" height="15" x="1620" fill="#fff" rx="2"/></clipPath><clipPath id="aF"><rect width="20" height="15" x="1680" fill="#fff" rx="2"/></clipPath><clipPath id="aI"><rect width="20" height="15" x="1740" fill="#fff" rx="2"/></clipPath></defs></svg>