<svg viewBox="0 0 20 15" fill="none" xmlns="http://www.w3.org/2000/svg"><path d="M0 0v15h20V0H0Z" fill="#f7fcff"/><path d="M0 7.5V15h20V7.5H0Z" fill="#56C6f5"/><path d="M6.4 5.64c0-.05 0-.1-.03-.13-.16-.3-.1-.67-.1-.67s-.2.43-.3.85c-.13-.2-.17-.39-.17-.39s-.07 1.21.16 1.5c.23.29.39.41.39.41s.02-.5-.05-.9c.05-.16.09-.34.1-.5.04-.01.12-.08.22-.16l-.05.37s.89-.64.9-.98c.03-.34.27-.63.27-.63s-.2.13-.43.32c.06-.29.25-.51.25-.51s-1 .69-1.08 1.05a4.1 4.1 0 0 0-.07.37Zm.05 2.08c-.1-.18-.51-.94-.8-1-.33-.08-.58-.36-.58-.36s.52 1.1.86 1.23c.28.11.46.16.52.17L6.44 8s.16-.12.4-.4c.26-.27.24-1.48.24-1.48s-.1.36-.36.58c-.18.14-.24.68-.27 1.01Zm-.78-.11c.38 0 .96.93.96.93s-.23 0-.62-.05c-.4-.07-1-1.12-1-1.12s.28.24.66.24Zm1.84 2.16s.23-1.18-.1-1.46a1.2 1.2 0 0 1-.4-.68s-.3 1.3 0 1.65c.3.33.5.49.5.49Zm-1.36-.32c.22.26.93 0 .93 0l-.4-.37c-.56-.5-1.7-.18-1.39-.18.3 0 .64.29.86.55Zm.52 1.39c.41.34 1.3-.48 1.3-.48s-.23-.27-.65-.47c-.43-.2-1.98 0-1.98 0l.7.3s-.78.3-.57.29c.2-.02.8.01 1.2.36Z" fill="#006923"/><path d="M12 10.12s-.34-.59 0-.87c.36-.29.5-.1.5-.42 0-.33.03-.23.2-.4.18-.16.06-.55.29-.36.23.2.27-.18.27.6V7.53c0-.44-.27-.33-.27-.63s-.28-.74 0-.74c.27 0 .43.33.43.33s.27.46.27 0-.48-.32-.7-.83c-.23-.5-.2.06-.5-.6-.3-.65-.65-.85-.32-.85h.54c.28 0 .71-.24.71 0v.49c0 .37.27.37.27.37s.15-.74.33-.37c.19.37.06.96.2.96.13 0 .02-.61.31-.14.3.47 0 .79 0 .97 0 .18-.32.63-.32.63s.07.22.32 0c.26-.22.5-.44.5-.22s.5.29 0 .63c-.5.35-.18.7-.5.7s-.69.46-.84.46c-.15 0-.7.35-.43.35.28 0 .57-.7.76-.35.2.35.2-.06.35.15.16.2.32 1.3.16.86-.16-.44-.4-.44-.84-.44-.43 0-1.27.03-.98.24.28.2.6-.21.71 0 .12.2.09.41.27.2.19-.2.37 0 .52 0 .16 0-.15.23 0 .43.16.2.51.47.16.47s-.53-.28-.68 0c-.15.28-.15.76-.43.38-.27-.38-.76-.19-.76-.38 0-.2.1-.23-.2-.23-.3 0-.3-.24-.3-.24Z" fill="#093"/><path d="M13.45 5.9c0 .1-.07.16-.15.16a.15.15 0 0 1-.15-.15c0-.09.06-.16.15-.16.08 0 .15.07.15.16Zm-6.99.35c.09 0 .15-.07.15-.16a.15.15 0 0 0-.15-.15.15.15 0 0 0-.15.15c0 .09.07.16.15.16Zm.15.66c0 .08-.06.15-.15.15a.15.15 0 0 1-.15-.15c0-.09.07-.16.15-.16.09 0 .15.07.15.16Zm.1 1.59c.08 0 .14-.07.14-.16a.15.15 0 0 0-.15-.15.15.15 0 0 0-.15.15c0 .09.07.16.15.16Zm1.2 1.56c.09 0 .15-.07.15-.15a.15.15 0 0 0-.15-.16.15.15 0 0 0-.15.16c0 .08.07.15.15.15Zm5.81-2.37c.08 0 .15-.07.15-.16a.15.15 0 0 0-.15-.16.15.15 0 0 0-.15.16c0 .09.07.16.15.16Zm-.33 1.1c0 .08-.07.15-.15.15a.15.15 0 0 1-.16-.16c0-.09.07-.15.16-.15.08 0 .15.06.15.15Zm-1.42 1.52c.08 0 .15-.07.15-.15a.15.15 0 0 0-.15-.16.15.15 0 0 0-.16.16c0 .08.07.15.16.15Zm-3.85.03c0 .09-.06.16-.15.16a.15.15 0 0 1-.15-.16c0-.08.07-.15.15-.15.09 0 .16.07.16.15Z" fill="#c51918"/><path d="M11.27 12.39c0-.13-1.93-1.47-2.45-1.76-.52-.3-3.06-1.92-2.37-4.38h-.1s-.48 3.04 2.75 4.92c1.47.99 1.54 1.22 1.54 1.22s.63.13.63 0Z" fill="#feca00"/><path d="M8.7 12.39c0-.13 1.94-1.47 2.46-1.76.52-.3 3.06-1.92 2.37-4.38h.1s.47 3.04-2.75 4.92c-1.47.99-1.54 1.22-1.54 1.22s-.64.13-.64 0Z" fill="#feca00"/><path d="M10.03 10.55c1.35 0 2.45-1.75 2.45-3.46 0-1.7-1.1-2.59-2.45-2.59s-2.45.89-2.45 2.6c0 1.7 1.1 3.45 2.45 3.45Z" fill="#56C6F5"/><path d="M8.95 5.96s.37-.33.18-.33c-.03 0-.08 0-.12-.02-.2-.03-.46-.07-.46.35v.73h-.06a.06.06 0 0 0 0 .12h.05l-.04.7-.07.01a.07.07 0 0 0-.06.08v.05c0 .04.04.06.08.06h.04l-.03.63c0 .09.57.05.57.05L9 7.66h.04c.03 0 .06-.04.06-.07v-.06a.07.07 0 0 0-.08-.06h-.03l-.03-.66h.07a.06.06 0 1 0 0-.12h-.08v-.73Z" fill="#fff"/><path d="M8.67 6.88h.2v.26h-.2v-.26Zm-.07.93h.34v.63h-.33V7.8Z" fill="#000"/><path d="M10.22 5.96s.37-.33.18-.33c-.03 0-.08 0-.12-.02-.2-.03-.46-.07-.46.35v.73h-.06a.06.06 0 0 0 0 .12h.05l-.04.7-.07.01a.07.07 0 0 0-.06.08v.05c0 .04.04.06.08.06h.04l-.03.63c0 .09.57.05.57.05l-.03-.73h.04c.03 0 .06-.04.06-.07v-.06a.07.07 0 0 0-.08-.06h-.03l-.03-.66h.07a.06.06 0 0 0 0-.12h-.08v-.73Z" fill="#fff"/><path d="M9.94 6.88h.2v.26h-.2v-.26Zm-.06.93h.33v.63h-.33V7.8Z" fill="#000"/><path d="M11.43 5.96s.37-.33.18-.33c-.03 0-.08 0-.13-.02-.2-.03-.45-.07-.45.35v.73h-.06a.06.06 0 0 0 0 .12h.05l-.04.7-.07.01a.07.07 0 0 0-.06.08v.05c0 .04.04.06.08.06h.04l-.03.63c0 .09.57.05.57.05l-.03-.73h.03c.04 0 .07-.04.07-.07v-.06a.07.07 0 0 0-.08-.06h-.03l-.03-.66h.07a.06.06 0 0 0 0-.12h-.08v-.73Z" fill="#fff"/><path d="M11.15 6.88h.2v.26h-.2v-.26Zm-.06.93h.33v.63h-.33V7.8Z" fill="#000"/><path d="M11.57 4h-3.2v.48h-.02S6.77 5.7 7.2 7.53a6.7 6.7 0 0 0 2.17 3.18l.09-.31S7.82 8.15 7.82 7.26c0-.9.3-1.74.64-1.87.2-.08.23-.06.28-.04.04.02.08.04.19.04.27 0 .54-.2.54-.2s.18.2.35.2c.18 0 .18-.2.18-.2v-.63h.02v.64s0 .19.17.19c.18 0 .36-.2.36-.2s.27.2.54.2c.1 0 .15-.02.19-.04.05-.02.08-.04.28.04.33.13.64.97.64 1.87 0 .9-1.65 3.14-1.65 3.14l.1.31s1.72-1.35 2.16-3.18c.43-1.83-1.14-3.05-1.14-3.05h-.1V4Z" fill="#e8aa00"/><path d="M8.37 4v-.31h-.32V4h.32Zm3.2 0h.32v-.31h-.32V4Zm-3.2.48.02.31.29-.03v-.28h-.31Zm-.02 0-.03-.31h-.1l-.07.06.2.25ZM7.2 7.53l.3-.07-.3.07Zm2.17 3.18-.2.25.37.29.13-.45-.3-.09Zm.09-.31.3.08.04-.15-.1-.12-.24.19Zm-1-5.01.11.29-.11-.29Zm.28-.04.13-.28-.13.28Zm.73-.15.22-.22-.19-.2-.22.16.19.26Zm.53 0h.31H10Zm0-.64v-.31h-.31v.31H10Zm.02 0h.31v-.31h-.31v.31Zm0 .64H9.7h.3Zm.53 0 .19-.26-.22-.15-.19.19.22.22Zm.73.15-.14-.28.14.28Zm.28.04-.11.29.11-.29Zm-1 5-.26-.18-.09.12.04.15.3-.08Zm.08.32-.3.09.13.45.36-.3-.19-.24Zm2.17-3.18.3.07-.3-.07Zm-1.14-3.05.2-.25-.08-.05-.09-.01-.03.31Zm-.1 0h-.31v.28l.28.02.03-.3Zm-3.2-.17h3.2V3.7h-3.2v.62Zm.3.17V4h-.62v.48h.63Zm-.3.31h.02l-.05-.62h-.02l.05.62Zm-.86 2.67c-.19-.81.06-1.49.37-1.97a3.47 3.47 0 0 1 .66-.76l-.2-.25-.19-.25a1.33 1.33 0 0 0-.08.07 3.54 3.54 0 0 0-.72.85 3.14 3.14 0 0 0-.44 2.45l.6-.14Zm1.87 3.25.2-.24h-.01l-.01-.02a3.67 3.67 0 0 1-.25-.2 7.68 7.68 0 0 1-.62-.65 5.33 5.33 0 0 1-1.18-2.14l-.6.14c.23.98.8 1.83 1.31 2.41a8.3 8.3 0 0 0 .96.94l.2-.24Zm-.22-.4-.08.32.6.17.09-.32-.6-.17ZM7.5 7.26c0 .3.13.66.29 1 .16.35.37.73.58 1.07a20.02 20.02 0 0 0 .82 1.23l.02.02.26-.18.25-.19-.02-.02A12.72 12.72 0 0 1 8.9 9a10 10 0 0 1-.54-1 2.08 2.08 0 0 1-.23-.74H7.5Zm.84-2.16c-.17.07-.3.2-.38.34-.1.13-.18.3-.24.5a4.1 4.1 0 0 0-.22 1.32h.63c0-.42.07-.82.18-1.12.05-.15.11-.27.17-.35.06-.1.1-.11.1-.11l-.24-.58Zm.54-.03a.443.443 0 0 0-.25-.05 1 1 0 0 0-.29.08l.23.58.1-.03c.01 0 .01 0 0 0a.15.15 0 0 1-.05-.01H8.6h.01l.27-.57Zm.05 0a.31.31 0 0 1-.04 0h-.02l-.26.57.12.04a.8.8 0 0 0 .2.02v-.62Zm.54.13-.19-.26a.4.4 0 0 1-.02.02l-.1.05a.59.59 0 0 1-.23.07v.62c.2 0 .38-.07.5-.12a1.64 1.64 0 0 0 .21-.12l-.17-.26Zm.35-.12c.02 0 .02 0 0 0a.62.62 0 0 1-.13-.1l-.22.22-.23.22a.49.49 0 0 0 .05.04l.11.09c.08.06.24.15.42.15v-.62Zm.18.12h-.31v-.01a.2.2 0 0 1 0-.01v-.02l.05-.05a.15.15 0 0 1 .08-.03v.62a.48.48 0 0 0 .49-.42.57.57 0 0 0 0-.07L10 5.2Zm-.31-.64v.64h.62v-.64H9.7Zm.33-.31H10v.63h.02v-.63Zm-.31.31v.64h.62v-.64h-.62Zm.3.64h-.3a.4.4 0 0 0 0 .08l.05.15c.03.05.07.12.15.18.08.06.18.1.28.1v-.63c.02 0 .06 0 .09.03l.05.05a.06.06 0 0 1 0 .03h-.31Zm.18.5c.2 0 .35-.1.43-.15a1.23 1.23 0 0 0 .14-.12h.01v-.01a57.62 57.62 0 0 0-.44-.44.56.56 0 0 1-.13.1c-.02 0-.02 0 0 0v.62Zm.36-.5-.18.25a.7.7 0 0 0 .07.04 1.2 1.2 0 0 0 .65.2V5.1a.59.59 0 0 1-.23-.07 1 1 0 0 1-.12-.06l-.19.25Zm.54.5a.8.8 0 0 0 .2-.02l.12-.04-.27-.57h-.05v.63Zm.32-.06h-.01a.18.18 0 0 1-.06 0h.02l.09.04.23-.58a1 1 0 0 0-.3-.08c-.12 0-.2.03-.24.05l.27.57Zm.04.04.1.1a3.48 3.48 0 0 1 .35 1.47h.62c0-.47-.09-.94-.22-1.32a2.18 2.18 0 0 0-.24-.5.88.88 0 0 0-.38-.33l-.23.58Zm.44 1.58c0 .15-.07.4-.23.74a19.34 19.34 0 0 1-1.34 2.2h-.01v.01l.24.19.26.18a2.95 2.95 0 0 0 .07-.1 18.67 18.67 0 0 0 1.35-2.22c.16-.34.29-.7.29-1h-.63Zm-1.64 3.22.09.32.6-.17-.08-.32-.6.17Zm.4.23.18.25h.01a2.06 2.06 0 0 0 .08-.07 6.63 6.63 0 0 0 .88-.88 5.95 5.95 0 0 0 1.31-2.4l-.6-.15c-.2.84-.71 1.6-1.19 2.14a7.67 7.67 0 0 1-.86.85v.01h-.01l.2.25Zm2.46-3.1a3.14 3.14 0 0 0-.44-2.46 4.1 4.1 0 0 0-.78-.9l-.02-.01-.2.24-.19.25h.01a1.89 1.89 0 0 1 .2.19c.13.13.3.32.45.57.31.48.56 1.16.36 1.97l.61.14Zm-1.4-3.44-.11-.01-.06.62.1.01.06-.62ZM11.25 4v.47h.63V4h-.63Z" fill="#ffd018"/><path d="M8.19 8.62s.2-.53.54-.36c.34.18.31.8.63.57.3-.21.13-.57.6-.57.46 0 .39.57.67.57s.3-.57.61-.57.63.36.63.36l-1.84 2.5-1.84-2.5Z" fill="#8FC753"/><path d="m4.96 11.54-.2-.27s.82 0 .93.2l.05.12c.03.08.04.1.26.1.3 0 0-.31-.13-.42-.13-.11-.05-.3.13-.3l.34-.04c.23-.03.54-.07.82-.07.46 0 .08.4.08.4s.59 0 .44-.16c-.15-.17.5-.38.77-.38.26 0 1.42.06 1.57.07.16 0 1.38-.07 1.63-.07.28 0 .92.21.77.38-.14.17.45.17.45.17s-.38-.4.07-.4a6.52 6.52 0 0 1 1.16.1c.18 0 .26.19.13.3-.13.1-.44.42-.13.42.23 0 .23-.02.26-.1a.62.62 0 0 1 .05-.13c.11-.18.88-.19.93-.2a.16.16 0 0 1-.02-.07c0-.08.07-.15.15-.15.09 0 .15.07.15.15 0 .09-.06.16-.15.16a.15.15 0 0 1-.13-.08l-.2.27.21.25a.15.15 0 0 1 .12-.07c.09 0 .15.07.15.16s-.06.16-.15.16a.15.15 0 0 1-.15-.16l.01-.05a1.27 1.27 0 0 0-.44-.14h-.37c.1 0 .6.33.44.47l-.02.02c-.15.14-.34.33-.53.23s-.3-.25-.3-.25l-.16-.47s-.9-.23-.9-.07c0 .15 0 .23-.31.23-.18 0-.35-.03-.5-.05-.12-.02-.22-.04-.31-.04-.12 0-.31.04-.46.06l-.17.03c-.07 0-.43-.01-.18-.16s.3-.31.3-.31-.99.15-1.38.16H10c-.39-.01-1.32-.16-1.32-.16s.06.16.3.3c.25.16-.11.17-.18.17l-.17-.03c-.14-.02-.33-.06-.46-.06-.08 0-.19.02-.3.04-.16.02-.33.05-.5.05-.32 0-.33-.08-.33-.23 0-.16-.89.07-.89.07l-.15.47s-.12.14-.31.25c-.18.1-.38-.09-.53-.23l-.02-.02c-.15-.14.35-.47.44-.47h-.36c-.2 0-.54.19-.54.19l.28-.34Zm-.43-.2c.08 0 .15-.06.15-.15a.15.15 0 0 0-.15-.15.15.15 0 0 0-.16.15c0 .09.07.16.16.16Zm0 .7c.08 0 .15-.07.15-.16a.15.15 0 0 0-.15-.16.15.15 0 0 0-.16.16c0 .09.07.16.16.16Z" fill="#fff"/><path d="M9.93 1.27h.13v.13h.15v.13h-.15v.22c.17.03.3.19.3.38 0 .2-.16.37-.36.37a.37.37 0 0 1-.36-.37c0-.19.13-.34.3-.37v-.23h-.15V1.4h.14v-.13Z" fill="#ffd018"/><path d="M8.6 3.27c-.18 0-.55.18-.55.18l.28.64 1.74-.07 1.73.07.28-.64s-.37-.18-.54-.18c-.08 0-.09-.05-.1-.1-.01-.06-.03-.14-.19-.14-.11 0-.2.02-.26.04-.1.02-.16.03-.25-.04h-.01c-.15-.12-.3-.25-.55-.25-.05 0-.09.05-.11.13-.03-.08-.07-.13-.12-.13-.25 0-.4.13-.55.24l-.01.01c-.1.07-.15.06-.25.04a.888.888 0 0 0-.26-.04c-.16 0-.18.08-.2.14 0 .05-.01.1-.09.1Z" fill="#e31d1c"/><path d="m9.76 2.23-.13.04c-.32.11-.6.15-.83.11-.48-.07-1.11.18-1.04.55.04.16.14.47.25.72.14.36.24.54.36.54l.23.02h.5c.43 0 .7-.03.8-.16L9.91 4l-.01-.05a5.67 5.67 0 0 1-.16-1.6v-.13Zm-1.82.66c-.04-.18.46-.38.83-.32.24.04.5 0 .8-.08 0 .6.05 1.09.15 1.47-.09.04-.31.07-.62.07l-.47-.01L8.4 4a5.14 5.14 0 0 1-.44-1.11Zm2.34-.66.13.04c.32.11.6.15.83.11.48-.07 1.11.18 1.03.55-.03.16-.13.47-.24.72-.14.36-.24.54-.36.54l-.24.02h-.49c-.43 0-.7-.03-.8-.16L10.12 4l.01-.05c.11-.39.17-.92.16-1.6v-.13Zm1.82.66c.04-.18-.46-.38-.83-.32-.24.04-.5 0-.8-.08 0 .6-.05 1.09-.15 1.47.09.04.31.07.62.07a8.46 8.46 0 0 0 .71-.03 5.14 5.14 0 0 0 .44-1.11Z" fill="#ffd018"/><path d="m11.95 4.04.06-.2c.06-.17.1-.22.19-.27.04-.03.06-.05.08-.13l.05-.16.03-.05.01-.04a.28.28 0 0 0 .02-.12.4.4 0 0 0-.05-.18 1.11 1.11 0 0 1-.03-.07.3.3 0 0 1-.03-.12v-.24c0-.14 0-.15-.07-.14h-.02l-.05.01h-.04l-.09-.1c-.02-.03-.04-.03-.12 0l-.02.02c-.08.04-.14.04-.19-.02-.07-.09-.12-.08-.2 0-.05.05-.07.06-.1.07-.03 0-.03 0-.11-.05l-.04.02h-.1c-.02 0-.03 0-.04-.03h-.13v-.06h.16c.03-.03.07-.06.08-.05l.02.01.05.04.1.05c.01 0 .03 0 .06-.04.12-.1.2-.12.3 0 .03.03.06.03.11 0h.03c.1-.06.15-.06.2 0l.05.08h.06l.02-.01c.11-.02.14.03.14.2v.24c0 .03 0 .06.02.1l.03.06c.05.1.06.15.06.21s0 .1-.02.14l-.02.05-.02.04-.05.15c-.02.1-.05.14-.11.17-.08.05-.1.09-.16.23a1.75 1.75 0 0 0-.06.18v.03l-.01.02-.02.02c-.06.08-.13.08-.2 0l.04-.04c.05.05.08.05.12 0v-.02Zm-3.93 0a.8.8 0 0 0-.06-.2c-.06-.17-.1-.22-.19-.27-.04-.03-.06-.05-.08-.13a1.16 1.16 0 0 0-.08-.21l-.01-.04a.28.28 0 0 1-.02-.12c0-.05.01-.1.05-.18l.03-.07a.3.3 0 0 0 .03-.12v-.24c0-.14 0-.15.07-.14h.02l.05.01h.04l.09-.1c.02-.03.04-.03.12 0l.02.02c.08.04.14.04.19-.02.07-.09.12-.08.2 0 .05.05.07.06.1.07.03 0 .03 0 .11-.05l.04.02h.1c.02 0 .03 0 .04-.03h.13v-.06h-.16c-.03-.03-.07-.06-.08-.05l-.02.01a.43.43 0 0 1-.06.04c-.08.05-.08.06-.1.05 0 0-.02 0-.05-.04-.12-.1-.2-.12-.3 0-.03.03-.06.03-.11 0H8.1c-.1-.06-.15-.06-.2 0l-.05.08h-.06l-.02-.01c-.11-.02-.14.03-.14.2v.24c0 .03 0 .06-.02.1l-.03.06a.45.45 0 0 0-.06.21c0 .06 0 .1.02.14l.02.05.02.04.05.15c.02.1.05.14.11.17.08.05.1.09.16.23a1.74 1.74 0 0 1 .06.18v.03l.01.02.02.02c.06.08.13.08.2 0l-.04-.04c-.05.05-.08.05-.12 0v-.02Zm.73-1.83Z" fill="#5E5E5E"/><path d="m8.6 11.18.05-.31c.67.08 1.12.12 1.34.12.34.02.75 0 1.22-.07l.04.3c-.49.07-.91.1-1.26.08-.24 0-.7-.04-1.38-.12Z" fill="#272727"/></svg>