<svg xmlns="http://www.w3.org/2000/svg" width="20" height="15" fill="transparent" viewBox="0 0 20 15"><g clip-path="url(#a)"><mask id="b" width="20" height="15" x="0" y="0" maskUnits="userSpaceOnUse" style="mask-type:luminance"><path fill="#fff" d="M0 0h20v15H0z"/></mask><g mask="url(#b)"><path fill="#F7FCFF" fill-rule="evenodd" d="M0 0v15h20V0H0Z" clip-rule="evenodd"/><mask id="c" width="20" height="15" x="0" y="0" maskUnits="userSpaceOnUse" style="mask-type:luminance"><path fill="#fff" fill-rule="evenodd" d="M0 0v15h20V0H0Z" clip-rule="evenodd"/></mask><g mask="url(#c)"><path fill="#3D58DB" fill-rule="evenodd" d="M0 0v5h20V0H0Zm0 10v5h20v-5H0Z" clip-rule="evenodd"/><path stroke="#E8AA00" stroke-width=".625" d="M12.14 7.411a2.276 2.276 0 1 1-4.551 0 2.276 2.276 0 0 1 4.552 0Z"/><path fill="#1E601B" fill-rule="evenodd" d="M8.631 6.039s-.595.98-.595 1.652c0 .673.713 1.518 1.834 1.518 1.094 0 1.88-.653 1.903-1.518.024-.865-.588-1.48-.588-1.48s.346 1.245.173 1.75c-.173.504-.734 1.114-1.488 1.037C9.115 8.92 8.4 7.99 8.4 7.69c0-.3.231-1.652.231-1.652Z" clip-rule="evenodd"/><path stroke="#188396" stroke-width=".625" d="M8.85 7.705h2.005"/><path stroke="#E8AA00" stroke-width=".625" d="M9.037 7.379h1.725m-.106.378H9.121l.774-1.285.761 1.285Z"/></g></g></g><defs><clipPath id="a"><rect width="20" height="15" fill="#fff" rx="2"/></clipPath></defs></svg>