<svg viewBox="0 0 20 15" fill="none" xmlns="http://www.w3.org/2000/svg"><path d="M0 0v15h20V0H0Z" fill="#f7fcff"/><path d="M0 0v5h20V0H0Zm0 10v5h20v-5H0Z" fill="#3d58db"/><path d="M12.14 7.41a2.28 2.28 0 1 1-4.55 0 2.28 2.28 0 0 1 4.55 0Z" stroke="#e8aa00" stroke-width=".63"/><path d="M8.63 6.04s-.6.98-.6 1.65c0 .67.72 1.52 1.84 1.52 1.1 0 1.88-.65 1.9-1.52a2.21 2.21 0 0 0-.58-1.48s.34 1.25.17 1.75S10.62 9.08 9.87 9C9.12 8.92 8.4 8 8.4 7.7c0-.3.23-1.66.23-1.66Z" fill="#1E601B"/><path d="M8.85 7.7h2" stroke="#188396" stroke-width=".63"/><path d="M9.04 7.38h1.72m-.1.38H9.12l.78-1.29.76 1.29Z" stroke="#e8aa00" stroke-width=".63"/></svg>