<svg viewBox="0 0 20 15" fill="none" xmlns="http://www.w3.org/2000/svg"><path d="M0 0v15h20V0H0Z" fill="#e31d1c"/><path d="M0 7.5V15h20V7.5H0Z" fill="#2e42a5"/><path d="M0-1.25v17.5L12.5 7.5 0-1.25Z" fill="#f7fcff"/><path d="M5.08 5.74c.9 0 1.62-.44 1.62-1 0-.54-.72-.99-1.62-.99-.9 0-1.63.45-1.63 1s.73 1 1.63 1Z" fill="#fbcd17"/><path d="M5.22 4C5.1 4 5 4.07 5 4.2v.1c-.01.07.02.13.07.18v.03l-.04-.03c-.03-.03-.1-.07-.18-.16-.13-.13-.22-.18-.34-.16a.56.56 0 0 0-.11.04.42.42 0 0 1-.25 0c-.32-.06-.67 0-1.05.18l.14.28c.32-.15.6-.2.85-.15a.72.72 0 0 0 .47-.04l.02.02.05.05.11.1c-.07.02-.07.03-.06.08l.02.08v.13c.02.02.07.01.23 0a3.54 3.54 0 0 0 .68-.1l.03-.04a14.7 14.7 0 0 1 1.1-.13l.08-.18-.08-.1-.06-.02h-.1a.8.8 0 0 1-.15-.01l-.06-.01a2.67 2.67 0 0 0-.95.03l-.02-.02c.07-.02.17-.03.27-.03h.1V4h-.55Zm-.26.9L5 4.89h.03a8.36 8.36 0 0 1-.06 0Z" fill="#da610a"/><path d="m4.95 5.36.05.01h.05c.62-.1 1.03-.1 1.27-.02.27.1.57.07.9-.04a4.53 4.53 0 0 0 .02 2.44c.07.32.14.58.14.88 0 .27-.1.4-.22.5-.14.1-.38.16-.74.16-.5 0-.98.14-1.4.4H5c-.44-.26-.9-.4-1.41-.4-.36 0-.6-.06-.75-.16-.12-.1-.2-.23-.2-.5a3.53 3.53 0 0 1 .14-.9A4.53 4.53 0 0 0 2.8 5.3c.31.1.61.13.89.04.23-.08.64-.09 1.26.01Z" fill="#56C6F5" stroke="#e31d1c" stroke-width=".63"/><path d="m5.49 6.39-.48-.43-.48.43h.14v.25l-.75.46v1.15h-.14v.21h2.5v-.21H6.1V7.1l-.79-.49V6.4h.18Z" fill="#f7fcff"/><path d="M4.97 10.64c.66 0 1.12-.07 1.35-.2.07-.1.17-.16.29-.16.52.02.92-.2 1.23-.67.34-.52.4-1.26.19-2.22l.56-.13c.25 1.1.17 2-.27 2.66-.39.6-.92.92-1.58.94-.33.25-.91.35-1.77.35-.83 0-1.44-.16-1.83-.5-.9-.2-1.47-.57-1.69-1.1-.24-.56-.24-1.34-.02-2.35L2 7.4c-.2.9-.2 1.57-.02 2 .13.3.5.55 1.13.72l.58.13-.03.14c.29.17.72.26 1.31.26Z" fill="#fbcd17"/><path d="m2.95 5.52.32.12-.16.34.44-.23-.03.17-.1.47.19-.54v.47l.1-.47.34.1-.33-.2.33-.1" stroke="#73be4a" stroke-width=".63" stroke-linecap="round" stroke-linejoin="round"/><path d="M3.56 6.21a.31.31 0 1 0 0-.62.31.31 0 0 0 0 .62Z" fill="#fbcd17"/><path d="M6.65 6.17c0-.2-.03-.69-.13-.69-.11 0-.13.49-.13.7a.84.84 0 0 0-.32.21h.92s-.15-.16-.34-.22Z" fill="#f7fcff"/></svg>