<svg xmlns="http://www.w3.org/2000/svg" width="20" height="15" fill="transparent" viewBox="0 0 20 15"><g clip-path="url(#a)"><mask id="b" width="20" height="15" x="0" y="0" maskUnits="userSpaceOnUse" style="mask-type:luminance"><path fill="#fff" d="M0 0h20v15H0z"/></mask><g mask="url(#b)"><path fill="#E31D1C" fill-rule="evenodd" d="M0 0v15h20V0H0Z" clip-rule="evenodd"/><mask id="c" width="20" height="15" x="0" y="0" maskUnits="userSpaceOnUse" style="mask-type:luminance"><path fill="#fff" fill-rule="evenodd" d="M0 0v15h20V0H0Z" clip-rule="evenodd"/></mask><g mask="url(#c)"><path fill="#2E42A5" fill-rule="evenodd" d="M0 7.5V15h20V7.5H0Z" clip-rule="evenodd"/></g><path fill="#F7FCFF" fill-rule="evenodd" d="M0-1.25v17.5L12.5 7.5 0-1.25Z" clip-rule="evenodd"/><mask id="d" width="13" height="19" x="0" y="-2" maskUnits="userSpaceOnUse" style="mask-type:luminance"><path fill="#fff" fill-rule="evenodd" d="M0-1.25v17.5L12.5 7.5 0-1.25Z" clip-rule="evenodd"/></mask><g mask="url(#d)"><path fill="#FBCD17" fill-rule="evenodd" d="M5.079 5.743c.897 0 1.625-.446 1.625-.997 0-.55-.728-.996-1.625-.996-.898 0-1.626.446-1.626.997 0 .55.728.996 1.626.996Z" clip-rule="evenodd"/><path fill="#DA610A" fill-rule="evenodd" d="M5.22 3.99c-.132 0-.226.086-.226.215v.014a.249.249 0 0 0-.012.072.23.23 0 0 0 .077.178.147.147 0 0 1 .005.035c-.003-.011-.016-.02-.041-.038a1.325 1.325 0 0 1-.182-.157c-.126-.129-.222-.179-.34-.159a.556.556 0 0 0-.114.036.419.419 0 0 1-.245.008c-.319-.061-.668-.001-1.047.174l.131.284c.324-.15.609-.199.858-.151a.725.725 0 0 0 .468-.043c-.004 0-.001.003.015.018l.052.052c.036.036.073.07.111.099-.073.02-.07.033-.056.081.006.02.013.045.017.079.009.074-.006.113.007.131.015.02.064.016.222.01l.166-.013c.13-.013.277-.03.367-.045.088-.015.11-.02.148-.047l.032-.04a14.692 14.692 0 0 1 1.027-.116c.006 0 .011 0 .043-.008l.026-.01.001-.001.076-.181-.08-.096-.059-.017H6.58a.798.798 0 0 1-.152-.015l-.055-.01c-.244-.045-.47-.045-.95.026l-.026-.02c.077-.013.171-.023.27-.028l.094-.004h.015l-.002-.312H5.22Zm-.258.905.03-.006.03-.006-.019.004-.041.008Z" clip-rule="evenodd"/><path fill="#56C6F5" stroke="#E31D1C" stroke-width=".625" d="m4.953 5.363.05-.308.051.308c.62-.102 1.03-.09 1.266-.01.273.091.575.065.892-.042a5.806 5.806 0 0 0-.152 1.271c0 .455.087.822.167 1.144l.006.025c.079.316.143.577.143.877 0 .269-.089.41-.214.499-.144.102-.385.167-.742.167-.504 0-.975.136-1.41.401l-.006-.005-.007.005a2.658 2.658 0 0 0-1.41-.401c-.357 0-.598-.065-.742-.167-.125-.089-.214-.23-.214-.5 0-.3.065-.56.143-.876l.006-.025c.08-.322.168-.69.168-1.144 0-.398-.052-.822-.152-1.27.317.106.618.132.891.04.237-.079.645-.09 1.266.011Z"/><path fill="#F7FCFF" fill-rule="evenodd" d="m5.49 6.39-.482-.429-.482.429h.143v.247l-.75.467v1.143h-.143v.214h2.5v-.214h-.178V7.104l-.786-.49V6.39h.178Z" clip-rule="evenodd"/><path fill="#FBCD17" d="M4.97 10.638c.663 0 1.12-.073 1.355-.196a.316.316 0 0 1 .284-.16c.517.02.917-.198 1.231-.676.34-.517.409-1.251.187-2.215l.562-.129c.254 1.104.171 1.995-.267 2.66-.392.597-.927.916-1.58.937-.333.247-.917.356-1.772.356-.828 0-1.441-.161-1.835-.502-.893-.211-1.461-.568-1.685-1.096-.238-.563-.238-1.345-.016-2.353l.564.125c-.199.9-.199 1.57-.016 2.003.127.302.498.548 1.125.719l.583.124-.028.147c.285.167.72.256 1.308.256Z"/><path stroke="#73BE4A" stroke-linecap="round" stroke-linejoin="round" stroke-width=".625" d="m2.946 5.515.32.128-.16.333.447-.23-.035.17-.095.47.183-.535v.473l.112-.473.332.1-.332-.206.332-.102"/><path fill="#FBCD17" fill-rule="evenodd" d="M3.555 6.21a.312.312 0 1 0 0-.624.312.312 0 0 0 0 .625Z" clip-rule="evenodd"/><path fill="#F7FCFF" fill-rule="evenodd" d="M6.65 6.17c-.005-.21-.028-.69-.135-.69-.107 0-.123.486-.125.694a.842.842 0 0 0-.324.22h.92s-.145-.166-.335-.223Z" clip-rule="evenodd"/></g></g></g><defs><clipPath id="a"><rect width="20" height="15" fill="#fff" rx="2"/></clipPath></defs></svg>