<svg xmlns="http://www.w3.org/2000/svg" width="20" height="15" fill="transparent" viewBox="0 0 20 15"><g clip-path="url(#a)"><mask id="b" width="20" height="15" x="0" y="0" maskUnits="userSpaceOnUse" style="mask-type:luminance"><path fill="#fff" d="M0 0h20v15H0z"/></mask><g fill-rule="evenodd" clip-rule="evenodd" mask="url(#b)"><path fill="#F7FCFF" d="M0 0h20v15H0V0Z"/><path fill="#409100" d="m5.626 8.67-1.17.705.268-1.377-.974-1.031 1.318-.056.558-1.286.558 1.286H7.5l-.971 1.087.292 1.377-1.195-.706Zm8.75 0-1.169.705.267-1.377-.974-1.031 1.318-.056.558-1.286.558 1.286h1.316l-.971 1.087.292 1.377-1.195-.706Z"/><path fill="#E31D1C" d="M0 0v5h20V0H0Z"/><path fill="#272727" d="M0 10v5h20v-5H0Z"/></g></g><defs><clipPath id="a"><rect width="20" height="15" fill="#fff" rx="2"/></clipPath></defs></svg>