<svg xmlns="http://www.w3.org/2000/svg" width="20" height="15" fill="transparent" viewBox="0 0 20 15"><g clip-path="url(#a)"><mask id="b" width="20" height="15" x="0" y="0" maskUnits="userSpaceOnUse" style="mask-type:luminance"><path fill="#fff" d="M0 0h20v15H0z"/></mask><g mask="url(#b)"><path fill="#3D58DB" fill-rule="evenodd" d="M0 0h20v15H0V0Z" clip-rule="evenodd"/><path fill="#C51918" stroke="#FFD018" stroke-width="1.25" d="M0 3.125h-.625v8.75h21.25v-8.75H0Z"/><path fill="#FFD018" d="M4.468 5.832c-.075 0-.135-.17-.135-.379s.06-.378.135-.378H15.35c.075 0 .136.17.136.378 0 .21-.061.379-.136.379H4.468Z"/><path fill="#F7FCFF" fill-rule="evenodd" d="m15.06 5.376.631-.806 1.119.806-1.118.828-.632-.828Z" clip-rule="evenodd"/><path fill="#FFD018" d="M4.468 8.332c-.075 0-.135-.17-.135-.379s.06-.378.135-.378H15.35c.075 0 .136.17.136.378 0 .21-.061.379-.136.379H4.468Z"/><path fill="#F7FCFF" fill-rule="evenodd" d="m15.06 7.876.631-.806 1.119.806-1.118.828-.632-.828Z" clip-rule="evenodd"/><path fill="#FFD018" d="M2.716 9.889c-.1 0-.182-.193-.182-.43 0-.238.081-.43.182-.43h14.59c.1 0 .182.192.182.43 0 .237-.081.43-.182.43H2.716Z"/><path fill="#F7FCFF" fill-rule="evenodd" d="M5.51 7.533s1.777-3.738 4.317-3.738 4.375 3.738 4.375 3.738-2.241 3.688-4.346 3.688c-2.104 0-4.345-3.688-4.345-3.688Z" clip-rule="evenodd"/><mask id="c" width="10" height="9" x="5" y="3" maskUnits="userSpaceOnUse" style="mask-type:luminance"><path fill="#fff" fill-rule="evenodd" d="M5.51 7.533s1.777-3.738 4.317-3.738 4.375 3.738 4.375 3.738-2.241 3.688-4.346 3.688c-2.104 0-4.345-3.688-4.345-3.688Z" clip-rule="evenodd"/></mask><g fill-rule="evenodd" clip-rule="evenodd" mask="url(#c)"><path fill="#272727" d="M9.953 3.55s-.58.704-.387 1.375c.193.671.643.6.643 1.192 0 .59-.207 1.193 0 1.193.208 0 .28.408.09.685-.19.276-.358.285-.346.735.01.45.995.892.518.892s-1.105.463-.905.463c.2 0 1.246.36 1.246.833v.851H5.357V3.55h4.596Z"/><path fill="#F7FCFF" d="M7.387 6.202h-.272v1.106h.272V6.202Zm.8 0h-.27v1.106h.27V6.202Zm-.671 0h.271v1.106h-.271V6.202Zm1.072 0h-.271v1.106h.271V6.202Zm.129 0h.272v1.106h-.272V6.202Zm.672 0h-.271v1.106h.271V6.202ZM7.115 7.788h.272v1.106h-.272V7.788Zm1.073 0h-.272v1.106h.272V7.788Zm-.672 0h.271v1.106h-.271V7.788Zm1.072 0h-.271v1.106h.271V7.788Zm.129 0h.272v1.106h-.272V7.788Zm.672 0h-.271v1.106h.271V7.788Z"/><path fill="#272727" d="M10.61 6.202h-.27v1.106h.27V6.202Zm.802 0h-.272v1.106h.272V6.202Zm-.672 0h.271v1.106h-.271V6.202Zm1.072 0h-.271v1.106h.271V6.202Zm.13 0h.27v1.106h-.27V6.202Zm.671 0h-.271v1.106h.271V6.202ZM10.34 7.788h.272v1.106h-.272V7.788Zm1.073 0h-.272v1.106h.272V7.788Zm-.672 0h.271v1.106h-.271V7.788Zm1.072 0h-.271v1.106h.271V7.788Zm.13 0h.27v1.106h-.27V7.788Zm.671 0h-.271v1.106h.271V7.788Z"/><path fill="#3D58DB" d="M8.27 4.42c-.38.117-.555 1.115-.512 1.356.042.241.171-.03.171-.03s.264.572.29.726c.028.153.166-.233.166-.233s.457.314.519.665c.061.35.154-.401.154-.401l.104-.018-.066-.371.198.168-.061-.345s.148.194.11-.02l-.058-.332-.052-.292.196-.035s-.779-.956-1.16-.838Z"/></g><path fill="#3D58DB" fill-rule="evenodd" d="M16.305 8.56c-.395.05-.74 1.002-.74 1.247 0 .244.175 0 .175 0s.16.609.16.765c0 .156.203-.2.203-.2s.395.389.395.744c0 .356.222-.368.222-.368h.105v-.377l.165.2v-.35s.113.217.113 0v-.634h.198s-.6-1.077-.996-1.027ZM3.496 8.416c.395.05.74 1.002.74 1.246 0 .245-.175 0-.175 0s-.16.61-.16.765c0 .157-.204-.2-.204-.2s-.394.39-.394.745c0 .356-.222-.368-.222-.368h-.105v-.377l-.165.2v-.35s-.113.217-.113 0v-.634H2.5s.6-1.077.996-1.027Z" clip-rule="evenodd"/></g></g><defs><clipPath id="a"><rect width="20" height="15" fill="#fff" rx="2"/></clipPath></defs></svg>