<svg viewBox="0 0 20 15" fill="none" xmlns="http://www.w3.org/2000/svg"><path d="M0 0H20V15H0V0Z" fill="#3d58db"></path><path d="M0 3.125H-0.625V3.75V11.25V11.875H0H20H20.625V11.25V3.75V3.125H20H0Z" fill="#c51918" stroke="#ffd018" stroke-width="1.25"></path><path d="M4.46833 5.83177C4.39336 5.83177 4.33258 5.66227 4.33258 5.45318C4.33258 5.24409 4.39336 5.07458 4.46833 5.07458H15.3501C15.425 5.07458 15.4858 5.24409 15.4858 5.45318C15.4858 5.66227 15.425 5.83177 15.3501 5.83177H4.46833Z" fill="#ffd018"></path><path d="M15.0595 5.37631L15.6914 4.57019L16.8095 5.37631L15.6914 6.20363L15.0595 5.37631Z" fill="#f7fcff"></path><path d="M4.46833 8.33177C4.39336 8.33177 4.33258 8.16227 4.33258 7.95318C4.33258 7.74409 4.39336 7.57458 4.46833 7.57458H15.3501C15.425 7.57458 15.4858 7.74409 15.4858 7.95318C15.4858 8.16227 15.425 8.33177 15.3501 8.33177H4.46833Z" fill="#ffd018"></path><path d="M15.0595 7.87631L15.6914 7.07019L16.8095 7.87631L15.6914 8.70363L15.0595 7.87631Z" fill="#f7fcff"></path><path d="M2.71594 9.88854C2.61542 9.88854 2.53394 9.69608 2.53394 9.45867C2.53394 9.22127 2.61542 9.02881 2.71594 9.02881H17.3061C17.4066 9.02881 17.4881 9.22127 17.4881 9.45867C17.4881 9.69608 17.4066 9.88854 17.3061 9.88854H2.71594Z" fill="#ffd018"></path><path d="M5.5108 7.53292C5.5108 7.53292 7.28664 3.79541 9.82659 3.79541C12.3665 3.79541 14.2021 7.53292 14.2021 7.53292C14.2021 7.53292 11.9608 11.2213 9.85645 11.2213C7.75215 11.2213 5.5108 7.53292 5.5108 7.53292Z" fill="#f7fcff"></path><mask id="mask0_1:15146" maskUnits="userSpaceOnUse" x="5" y="3" width="10" height="9"><path d="M5.5108 7.53292C5.5108 7.53292 7.28664 3.79541 9.82659 3.79541C12.3665 3.79541 14.2021 7.53292 14.2021 7.53292C14.2021 7.53292 11.9608 11.2213 9.85645 11.2213C7.75215 11.2213 5.5108 7.53292 5.5108 7.53292Z" fill="white"></path></mask><g mask="url(#mask0_1:15146)"><path d="M9.95269 3.55005C9.95269 3.55005 9.37315 4.25393 9.56633 4.92512C9.75951 5.59632 10.2096 5.52543 10.2096 6.11653C10.2096 6.70763 10.0017 7.31047 10.2096 7.31047C10.4175 7.31047 10.4896 7.71837 10.2995 7.99491C10.1095 8.27145 9.94143 8.27999 9.95269 8.73006C9.96395 9.18012 10.9477 9.62192 10.4711 9.62192C9.99459 9.62192 9.36649 10.0845 9.56633 10.0845C9.76617 10.0845 10.8117 10.4449 10.8117 10.9178C10.8117 11.3908 10.8117 11.7693 10.8117 11.7693H5.35706V3.55005H9.95269Z" fill="#272727"></path><path d="M7.38685 6.2019H7.11536V7.30767H7.38685V6.2019ZM8.18775 6.2019H7.91626V7.30767H8.18775V6.2019ZM7.51581 6.2019H7.7873V7.30767H7.51581V6.2019ZM8.58821 6.2019H8.31671V7.30767H8.58821V6.2019ZM8.71717 6.2019H8.98866V7.30767H8.71717V6.2019ZM9.38911 6.2019H9.11762V7.30767H9.38911V6.2019ZM7.11536 7.78844H7.38685V8.89421H7.11536V7.78844ZM8.18775 7.78844H7.91626V8.89421H8.18775V7.78844ZM7.51581 7.78844H7.7873V8.89421H7.51581V7.78844ZM8.58821 7.78844H8.31671V8.89421H8.58821V7.78844ZM8.71717 7.78844H8.98866V8.89421H8.71717V7.78844ZM9.38911 7.78844H9.11762V8.89421H9.38911V7.78844Z" fill="#f7fcff"></path><path d="M10.6108 6.2019H10.3394V7.30767H10.6108V6.2019ZM11.4118 6.2019H11.1403V7.30767H11.4118V6.2019ZM10.7398 6.2019H11.0113V7.30767H10.7398V6.2019ZM11.8122 6.2019H11.5407V7.30767H11.8122V6.2019ZM11.9412 6.2019H12.2127V7.30767H11.9412V6.2019ZM12.6131 6.2019H12.3416V7.30767H12.6131V6.2019ZM10.3394 7.78844H10.6108V8.89421H10.3394V7.78844ZM11.4118 7.78844H11.1403V8.89421H11.4118V7.78844ZM10.7398 7.78844H11.0113V8.89421H10.7398V7.78844ZM11.8122 7.78844H11.5407V8.89421H11.8122V7.78844ZM11.9412 7.78844H12.2127V8.89421H11.9412V7.78844ZM12.6131 7.78844H12.3416V8.89421H12.6131V7.78844Z" fill="#272727"></path><path d="M8.26975 4.41966C7.88943 4.53748 7.7154 5.53487 7.75791 5.77595C7.80042 6.01703 7.92945 5.7457 7.92945 5.7457C7.92945 5.7457 8.1926 6.31764 8.21974 6.47151C8.24687 6.62539 8.38545 6.23891 8.38545 6.23891C8.38545 6.23891 8.8419 6.55336 8.90368 6.90375C8.96546 7.25413 9.05839 6.5028 9.05839 6.5028L9.16179 6.48456L9.09637 6.11356L9.29355 6.28217L9.23272 5.93715C9.23272 5.93715 9.38122 6.13122 9.34355 5.91761C9.30589 5.70399 9.28486 5.58473 9.28486 5.58473L9.23338 5.29276L9.42855 5.25835C9.42855 5.25835 8.65006 4.30183 8.26975 4.41966Z" fill="#3d58db"></path></g><path d="M16.3052 8.55983C15.9102 8.60983 15.5656 9.56184 15.5656 9.80664C15.5656 10.0514 15.7398 9.80664 15.7398 9.80664C15.7398 9.80664 15.8996 10.4156 15.8996 10.5718C15.8996 10.7281 16.1032 10.3715 16.1032 10.3715C16.1032 10.3715 16.4981 10.7605 16.4981 11.1163C16.4981 11.4721 16.7201 10.7483 16.7201 10.7483H16.8251V10.3715L16.99 10.5718V10.2215C16.99 10.2215 17.1026 10.4384 17.1026 10.2215C17.1026 10.0046 17.1026 9.88349 17.1026 9.88349V9.58701H17.3008C17.3008 9.58701 16.7002 8.50984 16.3052 8.55983Z" fill="#3d58db"></path><path d="M3.49559 8.41567C3.89058 8.46567 4.23517 9.41768 4.23517 9.66248C4.23517 9.90728 4.06098 9.66248 4.06098 9.66248C4.06098 9.66248 3.90114 10.2714 3.90114 10.4277C3.90114 10.5839 3.69755 10.2274 3.69755 10.2274C3.69755 10.2274 3.30264 10.6163 3.30264 10.9721C3.30264 11.3279 3.08066 10.6041 3.08066 10.6041H2.97567V10.2274L2.81076 10.4277V10.0773C2.81076 10.0773 2.69821 10.2942 2.69821 10.0773C2.69821 9.86042 2.69821 9.73932 2.69821 9.73932V9.44284H2.50002C2.50002 9.44284 3.10059 8.36567 3.49559 8.41567Z" fill="#3d58db"></path></svg>
