<svg viewBox="0 0 20 15" fill="none" xmlns="http://www.w3.org/2000/svg"><path d="M0 0v15h20V0H0Z" fill="#2e42a5"/><path d="M11.74 3.88h5.03l-.49.94h-1.52v.5h1.17l-.48.87h-.7v1.75l1.15-1.8 1.48 2.56h-.6l-.22-.28h-1.34l-.94 1.74v.1l-.02-.05-.03.05v-.1l-.94-1.74h-1.34l-.2.28h-.61l1.48-2.56 1.14 1.8V4.82h-1.53l-.49-.95Zm4.19 3.31-.33.5h.62l-.3-.5Zm-3.34 0 .33.5h-.63l.3-.5Zm-2.4-.56.53-.38.51.38-.18-.64.5-.4-.63-.02-.2-.63-.21.63-.63.02.5.4-.18.64Zm7.6-.38-.52.38.18-.64-.5-.4.63-.02.2-.63.21.63.64.02-.5.4.17.64-.52-.38Zm-2.12 4.88.52-.39.52.39-.18-.64.5-.41-.63-.01-.2-.64-.21.64-.64.01.5.4-.18.65Zm-3.36-.39-.52.39.18-.64-.5-.41.63-.01.2-.64.21.64.64.01-.5.4.18.65-.52-.39Zm1.42 1.88.52-.38.52.38-.18-.64.5-.4-.63-.02-.21-.63-.2.63-.64.02.5.4-.18.64Z" fill="#f7fcff"/><path fill="#2e42a5" stroke="#fff" stroke-width=".63" d="M-.31-.31h8.13v6.88H-.31z"/><path d="M5 0h2.5v6.25H5V0Z" fill="#f50100"/><path d="M0 0h2.5v6.25H0V0Z" fill="#2e42a5"/><path d="M2.5 0H5v6.25H2.5V0Z" fill="#f7fcff"/></svg>