<svg viewBox="0 0 20 15" fill="none" xmlns="http://www.w3.org/2000/svg"><path d="M0 0h20v15H0V0Z" fill="#f7fcff"/><path d="M0 0v5h20V0H0Z" fill="#c51918"/><path d="M0 10v5h20v-5H0Z" fill="#409100"/><path d="m10.01 5.4-.37.25.13-.43-.36-.28h.45l.15-.44.15.43.45.01-.36.28.13.43-.37-.26Zm-1.56.38-.37.26.13-.44-.36-.28h.45l.15-.44.15.43.45.01-.36.28.13.44-.37-.26Zm-1.58 1.4.37-.25.37.26-.13-.44.36-.28h-.45l-.15-.44-.15.43-.45.01.36.28-.13.44Zm-.02 1.23-.37.27.13-.44-.36-.28h.45l.15-.44.15.43.45.01-.36.28.13.44-.37-.27Zm5.91.27.37-.27.37.27-.13-.44.36-.28h-.45l-.15-.44-.14.43-.45.01.35.28-.13.44Zm-.1-1.75-.37.26.13-.44-.36-.28h.45l.15-.44.14.43.45.01-.35.28.13.44-.37-.26Zm-1.57-.9.37-.25.37.26-.13-.44.36-.28h-.45l-.15-.44-.15.43-.45.01.36.28-.13.44Zm-3.17 4.44-.12-.4A8.43 8.43 0 0 1 10 9.8c.82 0 1.56.09 2.2.26l-.12.41a8 8 0 0 0-2.08-.24 8 8 0 0 0-2.08.24Zm.79-.66c-.26.05-.47-.2-.47-.2l.26-.1c-.01-.18.1-.29.1-.29.08.04.2.26.2.26h.22s-.06.3-.31.33Zm3-.16s-.2.25-.46.2c-.25-.04-.32-.33-.32-.33h.23s.12-.21.2-.25c0 0 .1.1.1.28l.25.1Zm-1.74.09c-.26 0-.43-.27-.43-.27l.26-.07c.02-.17.14-.26.14-.26.08.05.16.28.16.28l.23.03s-.1.28-.36.29Z" fill="#fb0"/><path d="M9.97 8.56s-.29.67-.75.72c-.46.06-.7-.38-.7-.38s-.03.45-.58.63C7.4 9.7 7.11 9 7.11 9s.28.25.73.14c.44-.11.61-.52.61-.52s.33.43.77.21c.44-.21.68-.47.68-.72v-.76s-.11-.19-.3-.19c-.2 0-.26.14-.26.14s-.08-.78.63-.83H10c.7.05.63.83.63.83s-.06-.14-.25-.14c-.2 0-.31.2-.31.2v.75c0 .25.24.5.68.72.44.22.76-.21.76-.21s.18.41.62.52c.44.11.73-.14.73-.14s-.29.7-.84.52c-.55-.18-.58-.63-.58-.63s-.23.44-.7.38c-.45-.05-.75-.72-.75-.72l.01-.87-.02.88Zm0-1.87c-.33 0-.4.27-.4.27.3 0 .4.13.4.13s.21-.13.42-.13c0 0-.1-.27-.42-.27Z" fill="#fb0"/></svg>