<svg xmlns="http://www.w3.org/2000/svg" width="20" height="15" fill="transparent" viewBox="0 0 20 15"><g clip-path="url(#a)"><mask id="b" width="20" height="15" x="0" y="0" maskUnits="userSpaceOnUse" style="mask-type:luminance"><path fill="#fff" d="M0 0h20v15H0z"/></mask><g fill-rule="evenodd" clip-rule="evenodd" mask="url(#b)"><path fill="#F7FCFF" d="M0 0h20v15H0V0Z"/><path fill="#C51918" d="M0 0v5h20V0H0Z"/><path fill="#409100" d="M0 10v5h20v-5H0Z"/><path fill="#FB0" d="m10.013 5.394-.37.26.13-.437-.358-.276.45-.01.148-.431.147.432.45.009-.358.276.13.438-.37-.261Zm-1.561.383-.37.26.13-.437-.358-.276.45-.01.148-.431.148.432.45.009-.359.276.13.438-.37-.261Zm-1.583 1.41.369-.261.37.26-.13-.437.358-.276-.45-.01-.148-.431-.148.432-.45.009.359.276-.13.438Zm-.021 1.228-.37.261.13-.438-.358-.276.45-.009.148-.432.148.432.45.01-.359.275.13.438-.37-.261Zm5.917.261.369-.261.37.261-.13-.438.358-.276-.45-.009-.148-.432-.148.432-.45.01.359.275-.13.438Zm-.108-1.75-.37.26.131-.437-.359-.276.45-.01.148-.431.148.432.45.009-.359.276.13.438-.369-.261Zm-1.565-.888.37-.261.369.26-.13-.437.358-.276-.45-.01-.148-.431-.147.432-.45.009.358.276-.13.438Zm-3.175 4.434-.115-.41c.637-.173 1.37-.259 2.196-.259.826 0 1.558.086 2.196.258l-.116.41c-.597-.161-1.29-.242-2.08-.242s-1.483.08-2.08.243Zm.79-.658c-.255.043-.463-.203-.463-.203l.253-.104c-.008-.175.097-.284.097-.284.085.04.202.255.202.255h.229s-.064.293-.318.336Zm3.006-.16s-.208.245-.463.202c-.254-.043-.318-.336-.318-.336h.229s.116-.215.202-.254c0 0 .105.108.097.283l.253.105Zm-1.747.082c-.258.007-.43-.265-.43-.265l.265-.068a.4.4 0 0 1 .136-.267c.079.05.164.28.164.28l.227.031s-.104.281-.362.289Z"/><path fill="#FB0" d="M9.974 8.562s-.293.67-.755.722c-.461.052-.696-.381-.696-.381s-.03.45-.578.624c-.549.174-.837-.52-.837-.52s.285.255.728.144c.443-.111.617-.522.617-.522s.328.428.766.214c.439-.214.681-.476.681-.727v-.751s-.113-.195-.31-.195c-.195 0-.25.138-.25.138s-.077-.781.629-.83v-.002l.02.001h.019v.001c.706.049.629.83.629.83s-.055-.138-.251-.138-.31.195-.31.195v.75c0 .252.243.514.682.728.438.214.766-.214.766-.214s.174.41.617.522a.829.829 0 0 0 .728-.144s-.288.694-.837.52c-.548-.174-.578-.624-.578-.624s-.235.433-.696.381c-.462-.052-.755-.722-.755-.722l-.015-.886-.014.886Zm-.006-1.873c-.326 0-.392.275-.392.275.287 0 .392.125.392.125s.212-.125.425-.125c0 0-.1-.275-.425-.275Z"/></g></g><defs><clipPath id="a"><rect width="20" height="15" fill="#fff" rx="2"/></clipPath></defs></svg>