<svg viewBox="0 0 20 15" fill="none" xmlns="http://www.w3.org/2000/svg"><path d="M0 0v15h20V0H0Z" fill="#2e42a5"/><path d="m2.06 6.29-.55.34.21-.57-.47-.44h.57L2.06 5l.18.62h.57l-.4.44.2.57-.55-.34Zm2.5-2.5L4 4.13l.21-.57-.47-.44h.57l.24-.62.18.62h.57l-.4.44.2.57-.55-.34Zm2.5 2.5-.55.34.21-.57-.47-.44h.57L7.06 5l.18.62h.57l-.4.44.2.57-.55-.34Zm-2.5 2.5L4 9.13l.21-.57-.47-.44h.57l.24-.62.18.62h.57l-.4.44.2.57-.55-.34Z" fill="#f7fcff"/><path d="M15.53 3.41c-2.56 1.27-10.94 6.93-10.94 6.93h13.97l-.4-.08c-1.02-.2-1.53-.3-2.63-2.51-1.24-2.47 0-4.34 0-4.34Zm-11.4 7.82-.19.47.2.53 14.22.27.39-.72-.4-.53-14.22-.02Z" fill="#feca00"/></svg>