<svg viewBox="0 0 20 15" fill="none" xmlns="http://www.w3.org/2000/svg"><path d="M0 0v15h20V0H0Z" fill="#29C470"/><path fill="#c51918" d="M1.25-.2H7.5v16.45H1.25z"/><path d="M1.62.57 1.28 1 1.25.97l.33-.42V.46l.04-.12L1.6.3l-.2.2.38-.6v.2l.07.07.17-.3-.17-.3-.12.1.05.1-.04.03-.28-.47.18.12.03-.05-.17-.17.07-.08-.25-.37.03-.03.28.4-.07.08.17.17-.08.11-.05-.03.1.16.16-.13.21.36-.2.37-.13-.11V.05L1.6.24l.06.1-.05.13v.1Zm-.34 3.57.34-.43v-.1l.05-.14-.06-.1.13-.18v.08l.12.1.21-.36-.2-.36-.17.13-.1-.16.05.03.08-.11-.17-.17.07-.08-.27-.4-.04.03.25.36-.07.09.17.17-.03.05-.18-.12.28.47.04-.03-.05-.1.12-.1.17.3-.17.3-.07-.07v-.2l-.38.59.2-.2.02.05-.04.11v.11l-.33.42.03.03Zm.34 2.43L1.28 7l-.03-.03.33-.43v-.09l.04-.12-.02-.04-.2.2.38-.6v.2l.07.07.17-.3-.17-.3-.12.1.05.1-.04.03-.28-.47.18.12.03-.04-.17-.18.07-.08-.25-.37.03-.03.28.4-.07.08.17.17-.08.11-.05-.03.1.16.16-.12.21.35-.2.37-.13-.11v-.08l-.13.2.06.08-.05.14v.1ZM1.28 9.9l.34-.43v-.1l.05-.14-.06-.1.13-.18v.08l.12.1.21-.36-.2-.36-.17.13-.1-.16.05.03.08-.11-.17-.17.07-.08-.27-.4-.04.03.25.37-.07.08.17.17-.03.05-.18-.12.28.47.04-.02-.05-.1.12-.1.17.29-.17.3L1.78 9v-.2l-.38.6.2-.2.02.04-.04.12v.09l-.33.42.03.03Zm0 2.59.34-.44v-.1l.05-.13-.06-.1.13-.19v.08l.12.11.21-.37-.2-.35-.17.13-.1-.17.05.04.08-.12-.17-.17.07-.07-.27-.4-.04.02.25.37-.07.08.17.18-.03.05-.18-.13.28.48.04-.03-.05-.1.12-.1.17.3-.17.3-.07-.07v-.2l-.38.59.2-.2.02.04-.04.12v.1l-.33.42.03.03Zm6.19 0-.34-.44v-.1l-.05-.13.06-.1-.13-.19v.08l-.12.11-.21-.37.2-.35.17.13.1-.17-.05.04-.08-.12.17-.17-.07-.07.27-.4.04.02-.25.37.07.08-.17.18.03.05.18-.13-.28.48-.04-.03.05-.1-.12-.1-.17.3.17.3.07-.07v-.2l.38.59-.2-.2-.02.04.04.12v.1l.33.42-.03.03Zm-.34-3.02.34.43.03-.03-.33-.42v-.09l-.04-.12.02-.04.2.2-.38-.6V9l-.07.07-.17-.3.17-.3.12.1-.05.1.04.03.28-.47-.18.12-.03-.05.17-.17-.07-.08.25-.37-.04-.03-.27.4.07.08-.17.17.08.11.05-.03-.1.16-.16-.13-.21.36.2.37.13-.11v-.08l.13.19-.06.1.05.13v.1ZM7.47 7l-.34-.44v-.1l-.05-.14.06-.09-.13-.2v.09l-.12.11-.21-.37.2-.35.17.12.1-.16-.05.03-.08-.1.17-.18-.07-.08.27-.4.04.03-.25.37.07.08-.17.18.03.04.18-.12-.28.47-.04-.02.05-.1-.12-.1-.17.29.17.3.07-.06v-.2l.38.58-.2-.2-.02.05.04.12v.09l.33.43-.03.03Zm-.34-3.3.34.43.03-.03-.33-.42V3.6l-.04-.12.02-.05.2.2-.38-.59v.2l-.07.07-.17-.3.17-.3.12.1-.05.1.04.03.28-.47-.18.12-.03-.05.17-.17-.07-.09.25-.36-.04-.03-.27.4.07.08-.17.17.08.11.05-.03-.1.16-.16-.13-.21.36.2.37.13-.11v-.08l.13.19-.06.09.05.14v.1ZM7.47 1 7.13.56v-.1L7.08.33l.06-.1L7 .06v.08l-.12.1-.21-.36.2-.36.17.13.1-.16-.05.03-.08-.11.17-.17-.07-.08.27-.4.04.03-.25.37.07.08-.17.17.03.05.18-.12L7-.19l-.04-.02.05-.1-.12-.1-.17.29.17.3.07-.07v-.2l.38.6-.2-.2-.02.04.04.12v.09l.33.42-.03.03Z" fill="#e8aa00"/><path d="M4.57 9.1h.97v.23h.22v.18h.26v.6h-.26v.18h-.22v.18h-.95l-.26.23-.26-.23h-.88v-.18h-.22v-.18h-.22v-.6h.22v-.18h.22V9.1h.9l.24-.2.24.2Z" fill="#389F5D"/><path d="M5.54 9.1h.25v-.25h-.25v.25Zm-.97 0-.17.19.07.06h.1V9.1Zm.97.23h-.25v.25h.25v-.25Zm.22 0H6v-.25h-.25v.25Zm0 .18H5.5v.25h.25v-.25Zm.26 0h.25v-.25h-.25v.25Zm0 .6v.25h.25v-.25h-.25Zm-.26 0v-.25H5.5v.25h.25Zm0 .18v.25H6v-.25h-.25Zm-.22 0v-.25h-.25v.25h.25Zm0 .18v.25h.25v-.25h-.25Zm-.95 0v-.25h-.1l-.06.06.16.19Zm-.26.23-.16.19.16.15.17-.15-.17-.19Zm-.26-.23.16-.19-.07-.06h-.1v.25Zm-.88 0h-.25v.25h.25v-.25Zm0-.18h.25v-.25H3.2v.25Zm-.22 0h-.25v.25h.25v-.25Zm0-.18h.25v-.25h-.25v.25Zm-.22 0H2.5v.25h.25v-.25Zm0-.6v-.25H2.5v.25h.25Zm.22 0v.25h.25v-.25h-.25Zm0-.18v-.25h-.25v.25h.25Zm.22 0v.25h.25v-.25H3.2Zm0-.23v-.25h-.25v.25h.25Zm.9 0v.25h.1l.07-.06-.17-.19Zm.24-.2.17-.2-.17-.14-.16.15.16.18Zm1.2-.05h-.96v.5h.97v-.5Zm.26.48V9.1h-.5v.23h.5Zm-.03-.25h-.22v.5h.22v-.5Zm.25.43v-.18h-.5v.18H6Zm.01-.25h-.26v.5h.26v-.5Zm.25.85v-.6h-.5v.6h.5Zm-.51.25h.26v-.5h-.26v.5Zm.25-.07v-.18h-.5v.18H6Zm-.47.25h.22v-.5h-.22v.5Zm.25-.07v-.18h-.5v.18h.5Zm-1.2.25h.95v-.5h-.95v.5Zm-.1.17.27-.23-.33-.38-.26.24.33.37Zm-.59-.23.27.23.33-.37-.27-.24-.33.38Zm-.7.06h.87v-.5h-.88v.5Zm-.26-.43v.18h.5v-.18h-.5Zm.03.25h.22v-.5h-.22v.5Zm-.25-.43v.18h.5v-.18h-.5Zm.03.25h.22v-.5h-.22v.5ZM2.5 9.5v.6H3v-.6h-.5Zm.47-.25h-.22v.5h.22v-.5Zm-.25.07v.18h.5v-.18h-.5Zm.47-.25h-.22v.5h.22v-.5Zm-.25.02v.23h.5V9.1h-.5Zm1.15-.25h-.9v.5h.9v-.5Zm.17.44.24-.2-.33-.38-.24.2.33.38Zm-.1-.21.24.21.33-.37-.23-.21-.33.37Z" fill="#e8aa00"/><path d="M3.32 9.63v-.4h.47l-.47.4Zm1.98 0v-.4h-.47l.47.4Zm-1.98.73v-.4l.47.4h-.47Zm1.98-.4v.4h-.47l.47-.4Z" fill="#c51918"/><path d="m4.15 9.26.17-.21.16.21h-.33Zm0 .2.17.21.16-.21h-.33Zm.17.5-.17.21h.33l-.16-.2Zm-.17.41.17.21.16-.2h-.33Z" fill="#e8aa00"/><path d="M4.16 9.24v.09h-.1v.12h.1v.1h.32v-.1h.1v-.12h-.1v-.1h-.32Zm.32 1v-.1h-.32v.1h-.1v.12h.1v.1h.32v-.1h.1v-.12h-.1Zm-.95-.52.16-.21.15.2h-.3Zm0 .2.16.21.15-.21h-.3Zm1.44-.41-.15.2h.3l-.15-.2Zm-.15.4.15.22.15-.21h-.3Z" fill="#af0100"/><path d="M3.53 9.7v.09h-.09v.12h.1v.1h.3v-.1h.09V9.8h-.09v-.1h-.3Zm1.6.09v-.1h-.31v.1h-.1v.12h.1v.1h.3v-.1h.1V9.8h-.1ZM2.8 11.93h1.72v1.14H2.79v-1.14Z" fill="#e8aa00"/><path fill="#f9e8e7" d="M2.62 10.8h1.9v1.14h-1.9z"/><path d="m3.06 11.46.57-.35v.35h-.57Zm3.36-.66h-1.9v1.14h1.9z" fill="#e8aa00"/><path d="m5.85 11.46-.58-.35v.35h.58Zm.39 1.62H4.51v-1.14h1.73z" fill="#f9e8e7"/><path d="m5.8 12.41-.57.35v-.35h.57Z" fill="#e8aa00"/><path d="m3.06 12.34.57.34v-.34h-.57Z" fill="#fcfcfc"/><path d="M3.9 11.48h.29l.29-.1.28.1h.3v.87h-.3l-.28.13-.3-.13H3.9v-.87Z" fill="#c51918"/><path d="M4.87 10.96h.16v.18h.06v.12h-.06v.07h-.16v-.37Zm-1.57.55h-.15v.37h.15v-.07h.07v-.13H3.3v-.17Zm.23 0h-.16v.37h.16v-.37Zm-.23.45h-.15v.37h.15v-.06h.07v-.13H3.3v-.18Zm.07 0h.16v.37h-.16v-.37Zm2.21-.45h.16v.17h.06v.13h-.06v.07h-.16v-.37Zm.38 0H5.8v.37h.16v-.37Zm-.22.45h-.16v.37h.16v-.06h.06v-.13h-.06v-.18Zm.06 0h.16v.37H5.8v-.37Zm-.55-1H5.1v.37h.15v-.37Zm-1.28 0H3.8v.37h.16v-.07h.06v-.12h-.06v-.18Zm.06 0h.16v.37h-.16v-.37Zm.84 1.55h.16v.18h.06v.12h-.06v.07h-.16v-.37Zm.38 0H5.1v.37h.15v-.37Zm-1.28 0H3.8v.37h.16v-.07h.06v-.12h-.06v-.18Zm.06 0h.16v.37h-.16v-.37Z" fill="#c9343f"/><path d="M4.4 11.67h.03v-.13h-.22v.14h-.18v.2h.17v-.04h-.12v-.11h.15l.22.2-.22.2h-.15V12h.12v-.05h-.17v.2h.18v.15h.22v-.13H4.4v.08h-.13v-.1l.23-.2.23.2v.1H4.6v-.08h-.05v.13h.22v-.14h.18v-.2h-.16V12h.12v.11h-.15l-.23-.2.23-.19h.15v.11h-.12v.05h.16v-.2h-.18v-.15h-.22v.13h.05v-.08h.13v.1l-.23.2-.23-.2v-.1h.13v.08Z" fill="#fff"/><path d="M4.74 3h-.78v2.5h.78V3Zm-1.75.53h.48v1.35H3V3.52Zm2.29 0h.48v1.35h-.48V3.52Z" fill="#e8aa00"/><path d="M3.96 3.2h-.49v1.92h.5V3.19ZM3 3.71h-.5v.91h.49v-.9Zm2.77 0h.49v.91h-.49v-.9Zm-.53-.53h-.49v1.93h.49V3.19Z" fill="#389F5D"/><path d="M3.86 3.43c0 .08-.06.15-.14.15a.15.15 0 0 1-.15-.15c0-.08.07-.14.15-.14.08 0 .14.06.14.14Zm-.97.48c0 .08-.07.15-.15.15a.15.15 0 0 1-.14-.15c0-.08.06-.14.14-.14.08 0 .15.06.15.14Zm0 .53c0 .08-.07.15-.15.15a.15.15 0 0 1-.14-.15c0-.08.06-.14.14-.14.08 0 .15.06.15.14Zm.83.58c.08 0 .14-.07.14-.15a.15.15 0 0 0-.14-.14.15.15 0 0 0-.15.14c0 .08.07.15.15.15ZM6 4.06c.08 0 .14-.07.14-.15A.15.15 0 0 0 6 3.77a.15.15 0 0 0-.15.14c0 .08.07.15.15.15Zm.14.38c0 .08-.06.15-.14.15a.15.15 0 0 1-.15-.15c0-.08.07-.14.15-.14.08 0 .14.06.14.14Zm-1.17.58c.08 0 .15-.07.15-.15a.15.15 0 0 0-.15-.14.15.15 0 0 0-.14.14c0 .08.06.15.14.15Zm.15-1.59c0 .08-.07.15-.15.15a.15.15 0 0 1-.14-.15c0-.08.06-.14.14-.14.08 0 .15.06.15.14Z" fill="#e1e5e8"/><path d="M4.5 3.24c0 .08-.07.14-.15.14a.15.15 0 0 1-.15-.14c0-.08.07-.14.15-.14.08 0 .15.06.15.14Zm-1.12.53c0 .08-.07.14-.15.14a.15.15 0 0 1-.15-.14c0-.08.07-.14.15-.14.08 0 .15.06.15.14Zm.97 1.68c.08 0 .15-.06.15-.14a.15.15 0 0 0-.15-.15.15.15 0 0 0-.15.15c0 .08.07.14.15.14Zm1.32-1.68c0 .08-.07.14-.15.14a.15.15 0 0 1-.15-.14c0-.08.07-.14.15-.14.08 0 .15.06.15.14Zm-2.44 1c.08 0 .15-.06.15-.14a.15.15 0 0 0-.15-.14.15.15 0 0 0-.15.14c0 .08.07.15.15.15Zm2.44-.14c0 .08-.07.15-.15.15a.15.15 0 0 1-.15-.15c0-.08.07-.14.15-.14.08 0 .15.06.15.14Z" fill="#c51918"/><path d="m3.5 4 .48-.43h.77l.54.49H6v.19h-.7v.01l-.56.57h-.77l-.48-.51v-.07h-.8v-.2h.8V4Z" fill="#c51918"/><path d="m4.38 3.92.23.24-.24.23-.24-.23.23-.24h.02Zm.04.57.03-.03-.03-.02.24-.23.25.25-.1.12h-.08l-.12.08-.19-.17Zm-.05.05-.23.2-.15-.09H3.9l-.18-.19.3-.3-.3-.29.2-.19.06.06.1-.1-.02-.04.05-.05.25.26.25-.26.06.05-.04.03.1.1.08-.05.2.2-.3.28.3.3-.19.2h-.07l-.16.09-.23-.21Zm.13-.6-.07-.07.17-.17.14.14.07-.06.1.1-.25.23-.16-.17Zm-.16.52-.2.2L4 4.58h-.07l-.11-.12.25-.25.26.25Zm-.51-.59.25.24.24-.25-.18-.16-.14.14-.07-.06-.1.1ZM2.78 13.4c-.13-.16-.22-.28-.24-.28-.07.01-.14.78.8 1.37 0 0 .14.08.23 0 .08-.08 0-.2 0-.2-.31-.28-.6-.64-.79-.89Zm3.19 0c.13-.16.22-.28.24-.28.07.01.14.78-.8 1.37 0 0-.14.08-.23 0-.08-.08 0-.2 0-.2.31-.28.6-.64.79-.89Zm-.07 1.04c-.31.1-.67.11-.81.05a.8.8 0 0 0-.14-.04 1.26 1.26 0 0 0-.43-.02h-.06v.01h-.18c-.15-.02-.29-.02-.43 0a.8.8 0 0 0-.14.05c-.13.06-.5.04-.8-.05 0 0 .56.23.9.13a.59.59 0 0 1 .1-.04c.1-.02.2-.02.31 0l-.17.07v.03c.13-.06.29-.08.35-.1.07.02.22.04.36.1v-.03a3.66 3.66 0 0 1-.18-.08c.12-.01.22 0 .31.01l.1.04c.34.1.91-.13.91-.13Z" fill="#e8aa00"/><path d="m3.6 6.24-.78.69v.65l.68.69h1.4l.77-.73v-.56l-.77-.74H3.6Z" fill="#389F5D"/><path d="M3.87 6.3H3.7v.15h.18V6.3Zm0 1.8H3.7v.13h.18V8.1Zm.27 0h.17v.13h-.17V8.1Zm.17-1.8h-.17v.15h.17V6.3Zm.27 1.8h.18v.13h-.18V8.1Zm.18-1.8h-.18v.15h.18V6.3Z" fill="#c51918"/><path d="M4.1 6.27h-.18v.14h.18v-.14Zm0 1.83h-.18v.13h.18V8.1Zm.27-1.83h.18v.14h-.18v-.14Zm.18 1.83h-.18v.13h.18V8.1Z" fill="#e8aa00"/><path d="M3.07 6.15h2.36v.37h.34v1.5h-.34v.32H3.07v-.31H2.7V6.52h.37v-.37Zm.13.5h-.36V7.9h.36v.31h2.1V7.9h.34V6.65H5.3V6.3H3.2v.36Z" fill="#750100"/><path d="M4 6h-.22v.23H4V6Zm.36 0h-.22v.23h.22V6Zm.13 0h.22v.23H4.5V6ZM4 8.28h-.22v.23H4v-.23Zm.14 0h.22v.23h-.22v-.23Zm.57 0H4.5v.23h.22v-.23Zm-2.21-.5v-.23h.22v.22H2.5Zm0-.6v.23h.22v-.22H2.5Zm0-.14v-.22h.22v.22H2.5Zm3.18.51v.22h.23v-.22h-.23Zm0-.14v-.22h.23v.22h-.23Zm0-.59v.22h.23v-.22h-.23Z" fill="#389F5D"/><path d="m3.61 6.43-.38.33v1.07l.32.23h1.37l.32-.23V6.76l-.36-.33H3.6Z" fill="#c51918"/><path d="m4.25 6.87-.46.4h.46v-.4Z" fill="#e1e5e8"/><path d="m4.25 7.62-.46-.39h.46v.4Z" fill="#e8aa00"/><path d="m4.21 6.87.46.4h-.46v-.4Z" fill="#e8aa00"/><path d="M4.23 7.37a.14.14 0 1 0 0-.28.14.14 0 0 0 0 .28Z" fill="#29AE66"/><path d="m4.21 7.62.46-.39h-.46v.4Z" fill="#e1e5e8"/><path d="M3.25 7.1h-.4v.12h.4V7.1Zm0 .23h-.4v.12h.4v-.12Zm2-.24h.4v.13h-.4V7.1Zm.4.24h-.4v.12h.4v-.12Z" fill="#c51918"/><path d="M3.2 6.96h-.35v.14h.36v-.14Zm0 .23h-.35v.14h.36v-.14Zm-.35.23h.36v.14h-.36v-.14Zm2.75-.46h-.36v.14h.36v-.14Zm-.36.23h.36v.14h-.36v-.14Zm.36.23h-.36v.14h.36v-.14ZM6.24 1v.25H4.39V2.4H3.8c-.1 0-.38-.2-.38-.2h-.47l-.22-.22v-.22l-.23-.28v-.25h1.85V.08h.58c.1 0 .38.2.38.2h.47L6 .49v.23l.23.27Z" fill="#e8aa00"/><path d="m2.5 1 .01.25h1.85V2.4h.58c.1 0 .38-.2.38-.2h.47l.22-.22v-.22l.23-.28v-.25H4.39V.08H3.8c-.1 0-.38.2-.38.2h-.47l-.22.21v.23L2.5.99Z" fill="#e1e5e8"/><path d="m3.75.43-.02-.1.4-.1c.05-.01.13-.08.25-.19l.05.06c.12.1.2.17.25.19l.4.1-.02.09-.22-.05.02.02a.28.28 0 0 0-.05.04L4.72.48V.45H4.7l-.05.13-.1-.03.04-.18-.21-.2-.15.14.06.06a.87.87 0 0 1-.05.02l.02.11-.1.03a1.41 1.41 0 0 0-.03-.09.28.28 0 0 0-.06-.04L4.1.38V.36l-.34.07Zm.02.36L3.82.7 3.55.52l.03-.04L3.5.42l-.04.04-.1-.07-.06.08.1.07-.02.03.08.06L3.5.6l.28.19Zm-.34.1L3.48.8 3.2.62l.04-.04-.08-.06-.04.04-.1-.07-.06.08.1.07-.02.03.08.06.03-.03.28.19Zm-.15.3.05-.09-.27-.18.03-.04L3 .82l-.03.04-.1-.06-.07.07.1.07-.01.03.08.06L3 1l.28.19Zm0 .24-.05-.09-.28.2-.02-.04-.08.06.02.03-.1.07.05.08.1-.07.04.04.08-.06-.03-.04.28-.18Zm.1.21.05.09-.27.18.03.04-.08.06-.04-.04-.1.07-.06-.08.1-.07L3 1.86l.08-.06.03.03.28-.19Zm.34.1.05.09L3.5 2l.03.04-.08.06-.03-.04-.11.07-.06-.08.1-.07-.01-.03.07-.06.03.03.28-.19Zm.52.48a.87.87 0 0 0-.05-.02h-.01l.03-.17-.1-.03a.75.75 0 0 1-.07.17L3.7 2.1l-.02.1.39.09.05.03h.01l.2.17.03-.04.03.04c.11-.11.2-.18.25-.2l.06.03.05-.03v-.02l.28-.07-.02-.1-.33.07A.75.75 0 0 1 4.6 2l-.1.03.04.18-.18.17-.14-.13.02-.03Zm1.2-.8.04-.08.28.2.03-.04.08.06-.02.03.1.07-.05.08-.11-.07-.04.04-.07-.06.03-.04-.28-.18Zm-.15.3.05-.08.28.2.02-.04.08.06-.02.03.1.07-.05.08-.1-.07L5.6 2l-.08-.06.03-.04-.27-.18Zm-.35.1L5 1.75l.28.2.02-.04.08.06-.02.03.1.07-.05.08-.1-.07-.04.04-.08-.06.03-.04-.28-.18Zm.54-.67.05.09.28-.2.03.04.08-.06L5.89 1 6 .92 5.95.84l-.11.07L5.8.87l-.08.06.04.04-.28.18Zm-.15-.3.06.09.28-.2.02.04.08-.06L5.75.7l.1-.07L5.8.54l-.1.07-.04-.04-.08.06.03.04-.28.18ZM5 .75l.06.09.28-.2.02.04.08-.06L5.4.6l.1-.07-.05-.08-.11.07-.03-.04-.08.06.03.04-.28.18Z" fill="#c51918"/><path d="m3.88.72.55-.3v.8H5.8l-.32.24v.3h-.51l-.56.3v-.8H3.04l.33-.23v-.3h.51Z" fill="#c51918"/><path d="M4.96.72 4.4.42v.8H3.04l.33.24v.3h.51l.55.3v-.8H5.8l-.32-.23v-.3h-.51Z" fill="#29AE66"/><path d="m3.61.93.1-.18.22.12.06-.1.16.12-.05.08.68.36.04-.06.16.11-.02.04.07.04-.09.18-.1-.05-.07.11-.16-.11.06-.1L4 1.13l-.05.08-.16-.1.04-.07-.2-.11Z" fill="#29AE66"/><path d="M5.06.88 4.96.7l-.23.14-.07-.1-.15.13.06.07-.65.41-.05-.06-.15.13.03.04-.07.04.1.17.1-.06.08.11.15-.12-.07-.1.65-.4.06.08.15-.13L4.86 1l.2-.12Z" fill="#c51918"/><path d="M11.92 1.25s1.46 3.45.16 4.92C10.78 7.63 7.5 7.35 7.5 7.35s4.22 1.9 6.06-.72C15.4 4 11.92 1.25 11.92 1.25Z" fill="#f7fcff"/><path d="m9.28 3.28-.39.27.14-.45-.38-.29.47-.01.16-.45.15.45.47.01-.37.29.13.45-.38-.27Zm.07 1.25-.38.27.13-.45-.37-.29h.47l.15-.45.16.44.47.01-.38.29.14.45-.39-.27ZM7.8 4.9l.38-.27.39.27-.14-.45.37-.29h-.47l-.15-.46-.15.45-.47.01.37.29-.13.45Zm1.55.95-.38.27.13-.45-.37-.3h.47l.15-.45.16.45h.47l-.38.3.14.45-.39-.27Zm.89-1.43.39-.27.38.27-.13-.45.37-.29h-.47l-.15-.46-.16.45-.47.01.38.29-.14.45Z" fill="#f7fcff"/></svg>