<svg xmlns="http://www.w3.org/2000/svg" width="20" height="15" fill="transparent" viewBox="0 0 20 15"><g clip-path="url(#a)"><mask id="b" width="20" height="15" x="0" y="0" maskUnits="userSpaceOnUse" style="mask-type:luminance"><path fill="#fff" d="M0 0h20v15H0z"/></mask><g mask="url(#b)"><path fill="#E31D1C" fill-rule="evenodd" d="M0 0v15h20V0H0Z" clip-rule="evenodd"/><mask id="c" width="20" height="15" x="0" y="0" maskUnits="userSpaceOnUse" style="mask-type:luminance"><path fill="#fff" fill-rule="evenodd" d="M0 0v15h20V0H0Z" clip-rule="evenodd"/></mask><g fill-rule="evenodd" clip-rule="evenodd" mask="url(#c)"><path fill="#F7FCFF" d="M10 12.5a5 5 0 1 0 0-10 5 5 0 0 0 0 10Z"/><path fill="#E31D1C" d="M10.877 11.032s-2.636-.72-2.636-3.549c0-2.829 2.636-3.61 2.636-3.61-1.09-.421-4.28.226-4.28 3.61 0 3.385 3.279 3.994 4.28 3.549Zm-.146-4.164-1.307.477 1.405.492.048 1.315.855-1.022 1.41.1-1.016-.829.612-1.197-1.195.403-.828-1.035.017 1.296Z"/></g></g></g><defs><clipPath id="a"><rect width="20" height="15" fill="#fff" rx="2"/></clipPath></defs></svg>