<svg viewBox="0 0 20 15" fill="none" xmlns="http://www.w3.org/2000/svg"><path d="M0 0v15h20V0H0Z" fill="#00B4FF"/><path fill="#2e42a5" d="M0 0h11v9H0z"/><mask id="a" maskUnits="userSpaceOnUse" x="0" y="0" width="11" height="9"><path fill="#fff" d="M0 0h11v9H0z"/></mask><g mask="url(#a)"><path d="M-1.253 8.125 1.223 9.21l10.083-8.03 1.306-1.614-2.647-.363-4.113 3.46-3.31 2.332-3.795 3.129Z" fill="#f7fcff"/><path d="m-.914 8.886 1.261.63L12.143-.583h-1.77L-.915 8.886Z" fill="#f50100"/><path d="M12.503 8.125 10.306 9.52-.056 1.18-1.362-.433l2.647-.363 4.113 3.46 3.31 2.332 3.795 3.129Z" fill="#f7fcff"/><path d="m12.418 8.67-1.261.63-5.023-4.323-1.489-.483-6.133-4.921H.283l6.13 4.804 1.628.58 4.377 3.714Z" fill="#f50100"/><mask id="b" maskUnits="userSpaceOnUse" x="-1" y="-1" width="13" height="11" fill="#000"><path fill="#fff" d="M-1-1h13v11H-1z"/><path d="M6 0H5v4H0v1h5v4h1V5h5V4H6V0Z"/></mask><path d="M6 0H5v4H0v1h5v4h1V5h5V4H6V0Z" fill="#f50100"/><path d="M5 0v-.938h-.938V0H5Zm1 0h.938v-.938H6V0ZM5 4v.938h.938V4H5ZM0 4v-.938h-.938V4H0Zm0 1h-.938v.938H0V5Zm5 0h.938v-.938H5V5Zm0 4h-.938v.938H5V9Zm1 0v.938h.938V9H6Zm0-4v-.938h-.938V5H6Zm5 0v.938h.938V5H11Zm0-1h.938v-.938H11V4ZM6 4h-.938v.938H6V4ZM5 .937h1V-.938H5V.938ZM5.938 4V0H4.063v4h1.875ZM0 4.938h5V3.063H0v1.874ZM.938 5V4H-.938v1H.938ZM5 4.062H0v1.875h5V4.063ZM5.938 9V5H4.063v4h1.875ZM6 8.062H5v1.876h1V8.062ZM5.062 5v4h1.875V5H5.063ZM11 4.062H6v1.875h5V4.063ZM10.062 4v1h1.876V4h-1.876ZM6 4.938h5V3.063H6v1.874ZM5.062 0v4h1.875V0H5.063Z" fill="#f7fcff" mask="url(#b)"/></g><path d="m16.785 6.678.38-.703.832-.025-.644-.539.222-.726-.556.334-.702-.426.068.807-.63.378.818.102.212.798Zm-2.12.547-.38.703-.213-.798-.816-.102.629-.378-.068-.807.702.426.556-.334-.222.726.645.539-.833.025Zm-1.63 1.953.38-.703.833-.025-.645-.539.222-.726-.556.334-.702-.426.068.807-.63.378.817.102.213.798Zm-2.5 2.5.38-.703.833-.025-.645-.539.222-.726-.556.334-.702-.426.068.807-.63.378.817.102.213.798ZM8.11 13.585l-.688.407.229-.793-.648-.509h.734l.358-.727.382.727h.649l-.565.509.275.793-.726-.407Zm2.806-.11-.38.703-.213-.798-.817-.102.63-.378-.068-.807.702.426.556-.334-.222.726.645.539-.833.025Zm2.5-1.25-.38.703-.213-.798-.816-.102.629-.378-.068-.807.702.426.556-.334-.222.726.645.539-.833.025Zm2.5-1.25-.38.703-.213-.798-.816-.102.629-.378-.068-.807.702.426.556-.334-.222.726.644.539-.832.025Zm.87-.547.38-.703.832-.025-.644-.539.222-.726-.556.334-.702-.426.068.807-.63.378.818.102.212.798Z" fill="#ffd018"/></svg>