<svg viewBox="0 0 20 15" fill="none" xmlns="http://www.w3.org/2000/svg"><path d="M0 0v15h20V0H0Z" fill="#ef0000"/><path d="M0 0v8.75h11.25V0H0Z" fill="#2e42a5"/><path d="M5.46 6.76 4.53 7.9l-.22-1.46-1.38.54.53-1.38L2 5.38l1.16-.92L2 3.53l1.46-.22-.53-1.38 1.38.53L4.53 1l.93 1.16L6.38 1l.23 1.46 1.38-.53-.54 1.38 1.46.22-1.15.93 1.15.92-1.46.23.54 1.38-1.38-.54-.23 1.46-.92-1.15Zm0-.52a1.79 1.79 0 1 0 0-3.57 1.79 1.79 0 0 0 0 3.57Zm1.43-1.78a1.43 1.43 0 1 1-2.87 0 1.43 1.43 0 0 1 2.87 0Z" fill="#feffff"/></svg>