<svg viewBox="0 0 20 15" fill="none" xmlns="http://www.w3.org/2000/svg"><path d="M0 0v15h20V0H0Z" fill="#feca00"/><path fill="#272727" d="M0 0h20v2.5H0z"/><path fill="#d74800" d="M0 5h20v2.5H0z"/><path fill="#272727" d="M0 7.5h20V10H0z"/><path fill="#d74800" d="M0 12.5h20V15H0z"/><path d="M10 11.25a3.75 3.75 0 1 0 0-7.5 3.75 3.75 0 0 0 0 7.5Z" fill="#f7fcff"/><path d="m8.55 5.2-.66.22.66.06s.1.26 0 .46c-.03.06-.1.12-.19.2-.26.26-.69.66-.69 1.33 0 .88 1.71 1.29 1.71 1.29v.42s.2.12-.93.12c-.99 0-.92.37-.89.58v.08c0 .16.48-.16.7-.48.12-.17.6-.16 1.1-.12.05 0 .41.78.1 1.18-.14.17-.6.19-.88.2-.15.01-.25.01-.24.04h.22c.15-.01.37-.02.57 0 .03 0-.08.1-.2.2-.13.11-.25.22-.22.22.04 0 .27-.12.48-.24l.36-.18c.16 0 .3.01.43.03.2.03.37.05.47-.03.03-.03-.15-.07-.33-.12-.2-.04-.39-.1-.36-.12.18-.17.1-.54.05-.82a1.5 1.5 0 0 1-.05-.32c.02-.25.3-.12.5-.01.1.05.19.09.23.09.4 0-.1-.52-.38-.8l-.06-.07c-.15-.15-.05-.13.18-.08.17.03.41.08.68.08.61 0 1.06-.2.9-.74-.1-.36-.66-.48-1.25-.6-.3-.07-.6-.14-.87-.24-.63-.25-.6-.6-.57-.91l.01-.18c0-.33.56-.73.56-.73s-.25-.43-.68-.43c-.42 0-.46.43-.46.43ZM9.7 9.12V8.8s.27-.01.36.2c.1.23-.36.11-.36.11Z" fill="#272727"/><path d="m8.17 4.2.64.75.32-.08-.15-.76-.8.08Z" fill="#d74800"/><path d="m9 4.01.04 1.13.54-.13.23-.74L9 4Z" fill="#ffd018"/><path d="M8.49 5.9c.12 0 .21-.1.21-.21a.21.21 0 0 0-.43 0c0 .11.1.2.22.2Zm1.37-1.68-.63.76.13.3.72-.28-.22-.78Zm1.46 5.71s1.11-.5 1.11-1.18c0-.7-1.8-1.45-1.8-1.45s-1.05.24-.58.57c.48.32 1.12.45 1.12.88s.17.84-.18.84c-.36 0 .33.34.33.34Z" fill="#d74800"/><path d="M9.73 7.17s-.4.07-.38.14c.05.17.59.4.82.56.48.32.93.29 1.27.08.34-.21-1.71-.78-1.71-.78Z" fill="#fffdff"/></svg>