<svg xmlns="http://www.w3.org/2000/svg" width="20" height="15" fill="transparent" viewBox="0 0 20 15"><g clip-path="url(#a)"><mask id="b" width="20" height="15" x="0" y="0" maskUnits="userSpaceOnUse" style="mask-type:luminance"><path fill="#fff" d="M0 0h20v15H0z"/></mask><g mask="url(#b)"><path fill="#FECA00" fill-rule="evenodd" d="M0 0v15h20V0H0Z" clip-rule="evenodd"/><mask id="c" width="20" height="15" x="0" y="0" maskUnits="userSpaceOnUse" style="mask-type:luminance"><path fill="#fff" fill-rule="evenodd" d="M0 0v15h20V0H0Z" clip-rule="evenodd"/></mask><g mask="url(#c)"><path fill="#272727" d="M0 0h20v2.5H0z"/><path fill="#D74800" d="M0 5h20v2.5H0z"/><path fill="#272727" d="M0 7.5h20V10H0z"/><path fill="#D74800" d="M0 12.5h20V15H0z"/><path fill="#F7FCFF" fill-rule="evenodd" d="M10 11.25a3.75 3.75 0 1 0 0-7.5 3.75 3.75 0 0 0 0 7.5Z" clip-rule="evenodd"/><path fill="#272727" fill-rule="evenodd" d="m8.55 5.205-.661.217.66.057s.108.262 0 .466a1.046 1.046 0 0 1-.186.203c-.262.249-.692.656-.692 1.318 0 .888 1.713 1.29 1.713 1.29v.422s.199.124-.936.124c-.983 0-.922.373-.888.577.005.032.01.059.01.08 0 .162.472-.16.694-.482.116-.17.604-.16 1.105-.114.04.004.404.777.087 1.176-.133.168-.593.19-.88.204-.146.007-.248.011-.239.032.008.016.094.011.22.003.157-.009.376-.022.577-.003.03.003-.088.106-.208.21-.123.107-.248.216-.213.217.04.002.27-.126.48-.242.174-.096.333-.185.358-.185.158 0 .301.02.426.037.21.029.37.05.472-.037.03-.026-.15-.07-.334-.114-.19-.045-.382-.091-.352-.122.174-.172.101-.535.044-.82a1.485 1.485 0 0 1-.044-.314c.015-.26.29-.123.505-.016.094.046.177.088.222.088.408 0-.098-.516-.377-.8a13.806 13.806 0 0 1-.067-.068c-.141-.146-.042-.127.182-.083.172.034.415.083.68.083.614 0 1.062-.2.906-.739-.103-.356-.664-.477-1.25-.603-.303-.066-.613-.132-.869-.233-.63-.249-.599-.612-.572-.918.006-.06.01-.117.01-.171 0-.333.562-.74.562-.74s-.256-.429-.68-.429c-.425 0-.465.43-.465.43ZM9.705 9.11v-.313s.262-.009.354.212c.092.22-.354.101-.354.101Z" clip-rule="evenodd"/><path fill="#D74800" fill-rule="evenodd" d="m8.173 4.195.634.75.328-.076-.157-.759-.805.085Z" clip-rule="evenodd"/><path fill="#FFD018" fill-rule="evenodd" d="m8.996 4.013.04 1.13.541-.134.23-.74-.811-.256Z" clip-rule="evenodd"/><path fill="#D74800" fill-rule="evenodd" d="M8.486 5.9c.12 0 .216-.095.216-.212a.214.214 0 0 0-.216-.21.214.214 0 0 0-.216.21c0 .117.096.211.216.211ZM9.86 4.225l-.63.754.134.31.719-.287-.223-.777Zm1.464 5.708s1.108-.494 1.108-1.187c0-.692-1.799-1.445-1.799-1.445s-1.058.242-.581.566c.477.324 1.116.448 1.116.88 0 .43.175.842-.18.842s.336.344.336.344Z" clip-rule="evenodd"/><path fill="#FFFDFF" fill-rule="evenodd" d="M9.726 7.174s-.392.069-.373.132c.051.176.587.405.82.564.477.324.93.288 1.266.077.336-.211-1.713-.773-1.713-.773Z" clip-rule="evenodd"/></g></g></g><defs><clipPath id="a"><rect width="20" height="15" fill="#fff" rx="2"/></clipPath></defs></svg>