<svg xmlns="http://www.w3.org/2000/svg" width="1040" height="15" fill="transparent" viewBox="0 0 1040 15"><g clip-path="url(#a)"><g clip-path="url(#b)"><mask id="c" width="20" height="15" x="0" y="0" maskUnits="userSpaceOnUse" style="mask-type:luminance"><path fill="#fff" d="M0 0h20v15H0z"/></mask><g mask="url(#c)"><path fill="#E31D1C" fill-rule="evenodd" d="M0 0h20v15H0V0Z" clip-rule="evenodd"/><path fill="#F7FCFF" fill-rule="evenodd" d="M0 1.25V2.5h20V1.25H0Zm0 2.5V5h20V3.75H0ZM0 7.5V6.25h20V7.5H0Zm0 1.25V10h20V8.75H0Zm0 3.75v-1.25h20v1.25H0ZM0 15v-1.25h20V15H0Z" clip-rule="evenodd"/><path fill="#2E42A5" d="M0 0h11.25v8.75H0z"/><path fill="#F7FCFF" fill-rule="evenodd" d="m1.3 2.717.662-.461.514.37h-.29l.588.52-.2.73h-.31l-.303-.67-.257.67H.935l.589.52-.224.821.662-.461.514.37h-.29l.588.52-.2.73h-.31l-.303-.67-.257.67H.935l.589.52-.224.821.662-.461.641.461-.199-.82.515-.521H2.68l.531-.37.514.37h-.29l.588.52-.224.821.662-.461.641.461-.199-.82.515-.521H5.18l.531-.37.514.37h-.29l.588.52-.224.821.662-.461.641.461-.199-.82.515-.521H7.68l.531-.37.514.37h-.29l.588.52-.224.821.662-.461.641.461-.199-.82.515-.521h-.655l-.303-.67-.257.67H8.83l-.177-.73.515-.52H8.93l.531-.37.641.461-.199-.82.515-.521h-.655l-.303-.67-.257.67H8.83l-.177-.73.515-.52H8.93l.531-.37.641.461-.199-.82.515-.521h-.655L9.46.706l-.257.67h-.769l.589.52-.2.73h-.31l-.303-.67-.257.67H7.58l-.177-.73.515-.52h-.655L6.96.706l-.257.67h-.769l.589.52-.2.73h-.31l-.303-.67-.257.67H5.08l-.177-.73.515-.52h-.655L4.46.706l-.257.67h-.769l.589.52-.2.73h-.31l-.303-.67-.257.67H2.58l-.177-.73.515-.52h-.655L1.96.706l-.257.67H.935l.589.52-.224.821Zm7.525 2.409.199-.73-.589-.52h.291l-.514-.37-.53.37h.237l-.515.52.177.73h.373l.257-.67.303.67h.31Zm-1.349 0-.514-.37-.53.37h.237l-.515.52.177.73h.373l.257-.67.303.67h.31l.2-.73-.589-.52h.291Zm-2.202.52-.2.73h-.31l-.303-.67-.257.67H3.83l-.177-.73.515-.52H3.93l.531-.37.514.37h-.29l.588.52Zm.18-.52H5.08l-.177-.73.515-.52H5.18l.531-.37.514.37h-.29l.588.52-.2.73h-.31l-.303-.67-.257.67Zm-1.63 0 .2-.73-.589-.52h.291l-.514-.37-.53.37h.237l-.515.52.177.73h.373l.257-.67.303.67h.31Zm3.95-1.98-.2.73h-.31l-.303-.67-.257.67H6.33l-.177-.73.515-.52H6.43l.531-.37.514.37h-.29l.588.52Zm-2.798-.52-.514-.37-.53.37h.237l-.515.52.177.73h.373l.257-.67.303.67h.31l.2-.73-.589-.52h.291Z" clip-rule="evenodd"/></g></g><g clip-path="url(#d)"><mask id="e" width="20" height="15" x="60" y="0" maskUnits="userSpaceOnUse" style="mask-type:luminance"><path fill="#fff" d="M60 0h20v15H60z"/></mask><g mask="url(#e)"><path fill="#E31D1C" fill-rule="evenodd" d="M60 0h20v15H60V0Z" clip-rule="evenodd"/><path fill="#F7FCFF" fill-rule="evenodd" d="M60 1.25V2.5h20V1.25H60Zm0 2.5V5h20V3.75H60Zm0 3.75V6.25h20V7.5H60Zm0 1.25V10h20V8.75H60Zm0 3.75v-1.25h20v1.25H60Zm0 2.5v-1.25h20V15H60Z" clip-rule="evenodd"/><path fill="#2E42A5" d="M60 0h11.25v8.75H60z"/><path fill="#F7FCFF" fill-rule="evenodd" d="m61.3 2.717.662-.461.514.37h-.29l.588.52-.2.73h-.31l-.303-.67-.257.67h-.769l.589.52-.224.821.662-.461.514.37h-.29l.588.52-.2.73h-.31l-.303-.67-.257.67h-.769l.589.52-.224.821.662-.461.641.461-.199-.82.515-.521h-.238l.531-.37.514.37h-.29l.588.52-.224.821.662-.461.641.461-.199-.82.515-.521h-.238l.531-.37.514.37h-.29l.588.52-.224.821.662-.461.641.461-.199-.82.515-.521h-.238l.531-.37.514.37h-.29l.588.52-.224.821.662-.461.641.461-.199-.82.515-.521h-.655l-.302-.67-.258.67h-.373l-.177-.73.515-.52h-.238l.531-.37.641.461-.199-.82.515-.521h-.655l-.302-.67-.258.67h-.373l-.177-.73.515-.52h-.238l.531-.37.641.461-.199-.82.515-.521h-.655l-.302-.67-.258.67h-.769l.589.52-.2.73h-.31l-.302-.67-.258.67h-.373l-.177-.73.515-.52h-.655l-.302-.67-.258.67h-.769l.589.52-.2.73h-.31l-.302-.67-.258.67h-.373l-.177-.73.515-.52h-.655l-.302-.67-.258.67h-.769l.589.52-.2.73h-.31l-.303-.67-.257.67h-.373l-.177-.73.515-.52h-.655l-.303-.67-.257.67h-.769l.589.52-.224.821Zm7.525 2.409.199-.73-.589-.52h.291l-.514-.37-.53.37h.237l-.515.52.177.73h.373l.258-.67.302.67h.31Zm-1.349 0-.514-.37-.53.37h.237l-.515.52.177.73h.373l.258-.67.302.67h.31l.2-.73-.589-.52h.291Zm-2.202.52-.2.73h-.31l-.302-.67-.258.67h-.373l-.177-.73.515-.52h-.238l.531-.37.514.37h-.29l.588.52Zm.18-.52h-.373l-.177-.73.515-.52h-.238l.531-.37.514.37h-.29l.588.52-.2.73h-.31l-.302-.67-.258.67Zm-1.63 0 .2-.73-.589-.52h.291l-.514-.37-.53.37h.237l-.515.52.177.73h.373l.258-.67.302.67h.31Zm3.95-1.98-.2.73h-.31l-.302-.67-.258.67h-.373l-.177-.73.515-.52h-.238l.531-.37.514.37h-.29l.588.52Zm-2.798-.52-.514-.37-.53.37h.237l-.515.52.177.73h.373l.258-.67.302.67h.31l.2-.73-.589-.52h.291Z" clip-rule="evenodd"/></g></g><g clip-path="url(#f)"><mask id="g" width="20" height="15" x="120" y="0" maskUnits="userSpaceOnUse" style="mask-type:luminance"><path fill="#fff" d="M120 0h20v15h-20z"/></mask><g mask="url(#g)"><path fill="#F7FCFF" fill-rule="evenodd" d="M120 0v15h20V0h-20Z" clip-rule="evenodd"/><mask id="h" width="20" height="15" x="120" y="0" maskUnits="userSpaceOnUse" style="mask-type:luminance"><path fill="#fff" fill-rule="evenodd" d="M120 0v15h20V0h-20Z" clip-rule="evenodd"/></mask><g mask="url(#h)"><path fill="#2E42A5" d="M120 2.5h20v1.25h-20zm0 2.5h20v1.25h-20zm0 2.5h20v1.25h-20zm0 2.5h20v1.25h-20zm0 2.5h20v1.25h-20z"/><path fill="#F7FCFF" d="M120 0h10v8.75h-10z"/><path fill="#FFD018" fill-rule="evenodd" stroke="#F19900" stroke-opacity=".98" stroke-width=".5" d="M125.767 6.898s-.638 1.324-1.2 1.596c.242-.607.332-1.847.332-1.847s-1.458.578-1.969.473c.615-.43 1.469-1.226 1.469-1.226s-1.887-.617-1.841-.88c.852.153 2.023-.013 2.023-.013s-1.323-1.587-1.189-1.705c.202.196 1.788 1.024 1.788 1.024s.115-1.412.456-1.888c.041.336.52 1.858.52 1.858s.963-.964 1.498-.964c-.235.291-.791 1.57-.791 1.57s1.385-.022 1.912.238c-.638.09-1.756.652-1.756.652s1.456 1.104 1.323 1.334c-.781-.383-1.685-.51-1.685-.51s.25 1.536.048 1.884c-.197-.512-.938-1.596-.938-1.596Z" clip-rule="evenodd"/><path fill="#FFD018" fill-rule="evenodd" stroke="#F19900" stroke-opacity=".98" stroke-width=".5" d="M125.683 6.182a.624.624 0 1 0 .001-1.249.624.624 0 0 0-.001 1.25Z" clip-rule="evenodd"/></g></g></g><g clip-path="url(#i)"><mask id="j" width="20" height="15" x="180" y="0" maskUnits="userSpaceOnUse" style="mask-type:luminance"><path fill="#fff" d="M180 0h20v15h-20z"/></mask><g mask="url(#j)"><path fill="#14DC5A" fill-rule="evenodd" d="M180 10h20v5h-20v-5Z" clip-rule="evenodd"/><path fill="#0099B5" fill-rule="evenodd" d="M180 0h20v6.25h-20V0Z" clip-rule="evenodd"/><path fill="#F7FCFF" stroke="#C51918" stroke-width=".938" d="M178.75 5.781h-.469v4.689h23.438V5.78H178.75Z"/><path fill="#F7FCFF" fill-rule="evenodd" d="m190.455 1.5-.615.35.176-.71-.589-.52h.769l.258-.67.302.67h.655l-.515.52.248.71-.689-.35Zm-3.149 1.922.614-.348.689.348-.247-.708.515-.52h-.656l-.302-.67-.258.67h-.768l.588.52-.175.708Zm-1.696 1.299-.614.348.176-.708-.589-.52h.769l.257-.67.303.67h.655l-.515.52.247.708-.689-.348Zm2.346.003-.615.348.176-.708-.589-.52h.769l.258-.67.302.67h.655l-.515.52.248.708-.689-.348Zm2.5 0-.615.348.176-.708-.589-.52h.769l.258-.67.302.67h.655l-.515.52.248.708-.689-.348Zm-.65-1.302.614-.348.689.348-.247-.708.515-.52h-.656l-.302-.67-.258.67h-.768l.588.52-.175.708Zm2.535 1.65.615-.348.689.348-.248-.708.515-.52h-.655l-.302-.67-.258.67h-.769l.589.52-.176.708Zm.579-1.998-.614.348.175-.708-.588-.52h.768l.258-.67.302.67h.656l-.515.52.247.708-.689-.348Zm-.58-1.225.615-.348.689.348-.248-.708.515-.52h-.655l-.302-.67-.258.67h-.769l.589.52-.176.708Zm3.116 2.875-.615.348.176-.708-.589-.52h.769l.258-.67.302.67h.655l-.515.52.248.708-.689-.348Zm-.65-1.302.614-.348.689.348-.247-.708.515-.52h-.656l-.302-.67-.258.67h-.768l.588.52-.175.708Zm.649-1.921-.615.348.176-.708-.589-.52h.769l.258-.67.302.67h.655l-.515.52.248.708-.689-.348Zm-11.777 3.65s-1.51-.41-1.481-1.925c.028-1.514 1.553-1.908 1.553-1.908-.623-.236-2.466.081-2.5 1.893-.034 1.812 1.847 2.169 2.428 1.94Z" clip-rule="evenodd"/></g></g><g clip-path="url(#k)"><mask id="l" width="20" height="15" x="240" y="0" maskUnits="userSpaceOnUse" style="mask-type:luminance"><path fill="#fff" d="M240 0h20v15h-20z"/></mask><g mask="url(#l)"><path fill="#F7FCFF" fill-rule="evenodd" d="M240 0h20v15h-20V0Z" clip-rule="evenodd"/><path fill="#FFDC17" fill-rule="evenodd" d="M240 0h8.75v15H240V0Z" clip-rule="evenodd"/><path fill="#AF0100" d="m254.238 7.97-.215.014c.051.74.21 1.313.481 1.717.435.652 1.01 1.155 1.395 1.155.088 0 .108.033.079.113-.041.114-.17.226-.337.269-.278.072-.908.109-1.882.109v.209c.993 0 1.635-.038 1.937-.116.235-.06.421-.221.486-.402.076-.21-.038-.39-.283-.39-.286 0-.816-.465-1.214-1.06-.247-.37-.397-.91-.447-1.619Zm-1.021 0 .216.014c-.052.74-.211 1.313-.481 1.717-.436.652-1.011 1.155-1.396 1.155-.087 0-.108.033-.079.113.041.114.171.226.338.269.277.072.908.109 1.881.109v.209c-.993 0-1.635-.038-1.937-.116-.235-.06-.421-.221-.486-.402-.075-.21.038-.39.283-.39.286 0 .816-.465 1.214-1.06.248-.37.398-.91.447-1.619Z"/><path fill="#F4B300" fill-rule="evenodd" d="m257.542 4.249-5.714 4.454a2.062 2.062 0 0 0-.646-.101c-.927 0-1.703.592-1.703 1.36 0 .768.776 1.36 1.703 1.36.107 0 .211-.007.312-.022a.597.597 0 0 1-.199-.262c-.042-.117-.025-.226.041-.299a1.54 1.54 0 0 1-.154.008c-.625 0-1.108-.368-1.108-.785 0-.416.483-.785 1.108-.785.626 0 1.108.369 1.108.785a.61.61 0 0 1-.125.36l.045-.042c.198-.184-.247.576-.632.576-.087 0-.107.033-.078.113.038.107.154.212.306.26.626-.196 1.079-.68 1.079-1.267 0-.24-.076-.463-.208-.656l3.07-2.606.206.213.148-.135.513.38-.215.166.438.532.883-.68.015-.009-.002-.001.054-.043-.437-.532-.212.164-.574-.397.068-.06-.185-.192.278-.235.147.152.158-.143.497.393-.209.161.438.533.756-.584.087-.047-.012-.01.119-.092-.438-.532-.247.19-.544-.417.073-.067-.126-.13.566-.48-.448-.55Z" clip-rule="evenodd"/><path fill="#BFBFBF" fill-rule="evenodd" d="M249.804 9.203c.164 0 .297-.105.297-.235s-.133-.236-.297-.236c-.164 0-.297.106-.297.236s.133.235.297.235Zm.108 2.146c.164 0 .297-.106.297-.236s-.133-.235-.297-.235c-.164 0-.297.105-.297.235s.133.236.297.236Zm2.946-.236c0 .13-.133.236-.297.236-.165 0-.298-.106-.298-.236s.133-.235.298-.235c.164 0 .297.105.297.235Zm1.757-1.151c0-.345.157-.655.413-.891l-3.281-2.541-.037.029.096.086-.259.268-.136-.124-.503.387.192.148-.437.532-.874-.674-.024-.015.002-.001-.055-.043.438-.532.212.164.573-.397-.067-.06.248-.257-.289-.224-.199.206-.152-.138-.491.398.197.151-.438.533-.733-.565-.11-.066.012-.01-.119-.092.437-.532.248.19.544-.417-.074-.067.15-.155-.589-.456.372-.45 5.676 4.397c.23-.092.488-.142.76-.142.927 0 1.702.592 1.702 1.36 0 .768-.775 1.36-1.702 1.36-.107 0-.211-.007-.312-.022a.602.602 0 0 0 .198-.262c.043-.117.025-.226-.041-.299.051.005.102.008.155.008.625 0 1.108-.368 1.108-.785 0-.416-.483-.785-1.108-.785-.626 0-1.109.369-1.109.785 0 .128.046.25.126.36a2.435 2.435 0 0 1-.045-.042c-.198-.184.247.576.631.576.088 0 .108.033.079.113-.038.107-.154.212-.306.26-.627-.196-1.079-.68-1.079-1.267Z" clip-rule="evenodd"/><path fill="#F4B300" fill-rule="evenodd" d="M257.696 9.203c-.164 0-.297-.105-.297-.235s.133-.236.297-.236c.164 0 .297.106.297.236s-.133.235-.297.235Zm-.108 2.146c-.164 0-.298-.106-.298-.236s.134-.235.298-.235c.164 0 .297.105.297.235s-.133.236-.297.236Zm-2.946-.236c0 .13.133.236.297.236.164 0 .297-.106.297-.236s-.133-.235-.297-.235c-.164 0-.297.105-.297.235Z" clip-rule="evenodd"/><path fill="#AF0100" fill-rule="evenodd" d="M253.588 7.372a.08.08 0 0 0-.081.081v.338h-.3a.079.079 0 1 0 0 .157h.3v4.47a.08.08 0 0 0 .081.082h.162a.08.08 0 0 0 .081-.081V7.948h.462a.078.078 0 0 0 .078-.079.078.078 0 0 0-.078-.078h-.462v-.338a.08.08 0 0 0-.081-.08h-.162Z" clip-rule="evenodd"/><path fill="#979797" fill-rule="evenodd" d="m250.471 4.746.133.09c.308-.42.586-.505.868-.284.487.382.529 1.312.008 1.624-.621.372-.936 1.097-.661 1.491.255.364.868.226 1.473-.23.107-.082.21-.169.306-.26l-.128-.099c-.088.082-.181.16-.278.234-.54.408-1.059.525-1.238.267-.215-.307.059-.94.611-1.27.625-.373.577-1.434.009-1.879-.367-.287-.746-.171-1.103.316Zm2.38 1.907.132.092c.23-.31.387-.646.439-.976l-.161-.024c-.048.305-.194.617-.41.908Zm4.192-1.907-.132.09c-.308-.42-.586-.505-.868-.284-.487.382-.53 1.312-.008 1.624.621.372.936 1.097.66 1.491-.254.364-.867.226-1.472-.23a3.503 3.503 0 0 1-.306-.26l.128-.099c.087.082.18.16.278.234.539.408 1.058.525 1.238.267.215-.307-.06-.94-.612-1.27-.624-.373-.576-1.434-.008-1.879.366-.287.746-.171 1.102.316Zm-2.38 1.907-.132.092c-.229-.31-.386-.646-.438-.976l.16-.024c.048.305.195.617.41.908Z" clip-rule="evenodd"/><path fill="#AF0100" fill-rule="evenodd" d="M253.669 12.51c.179 0 .324-.072.324-.162 0-.09-.145-.162-.324-.162-.179 0-.325.073-.325.162 0 .09.146.162.325.162Zm-.054-6.748c.627 0 1.135-.085 1.135-.19 0-.104-.508-.188-1.135-.188s-1.136.084-1.136.189c0 .104.509.189 1.136.189Z" clip-rule="evenodd"/><path fill="#F4B300" fill-rule="evenodd" d="M253.679 1.274h-.162v.187h-.154v.157h.154v.458h.162v-.458h.187V1.46h-.187v-.187Zm-1.22 2.261-.072-.122.121-.047-.211-.462.149-.064.217.477a2.78 2.78 0 0 1 .141-.037.217.217 0 0 1-.054-.146c0-.116.085-.21.189-.21.105 0 .189.094.189.21a.227.227 0 0 1-.018.09c.128-.016.262-.027.402-.031v-.177h-.203v-.127h.203v-.15h.214v.15h.248v.127h-.248v.176c.16.003.309.014.448.033a.23.23 0 0 1-.019-.091c0-.116.085-.21.19-.21.104 0 .189.094.189.21a.222.222 0 0 1-.058.15c.06.016.118.034.174.054l.155-.34.149.063-.154.337.036.018-.082.117-.013-.006-.025.055-.148-.064.024-.053a2.727 2.727 0 0 0-.866-.137v.056h-.214V3.33a2.95 2.95 0 0 0-1.053.206Zm-.072.14.038.064-.128.054.211.463c-.041.015-.081.03-.121.047l.072.122a2.95 2.95 0 0 1 1.053-.206v.055h.214v-.056c.341.006.629.052.866.137l-.024.053.148.063.025-.055.013.007.082-.118a2.554 2.554 0 0 0-.036-.017l.154-.338-.149-.063-.155.34a2.202 2.202 0 0 0-.174-.053.223.223 0 0 0 .058-.15c0-.116-.085-.21-.189-.21-.105 0-.19.094-.19.21a.23.23 0 0 0 .019.09 3.693 3.693 0 0 0-.448-.033v-.176h.248V3.78h-.248v-.15h-.214v.15h-.203v.126h.203v.178c-.14.004-.274.014-.402.031a.227.227 0 0 0 .018-.09c0-.116-.084-.21-.189-.21-.104 0-.189.094-.189.21 0 .056.02.108.054.146a2.78 2.78 0 0 0-.141.036l-.189-.415c.327-.134.717-.202 1.172-.202.46 0 .829.07 1.108.206l.082-.118c-.307-.15-.703-.224-1.19-.224-.485 0-.905.074-1.259.222Zm0 .89.038.063-.128.055.211.462a2.67 2.67 0 0 0-.121.048l.072.121a2.95 2.95 0 0 1 1.053-.206v.055h.214v-.056c.341.006.629.052.866.137l-.024.053.148.064.025-.055.013.006.082-.117a2.554 2.554 0 0 0-.036-.018l.154-.337-.149-.064-.155.34a2.206 2.206 0 0 0-.174-.053.223.223 0 0 0 .058-.15c0-.116-.085-.21-.189-.21-.105 0-.19.094-.19.21a.23.23 0 0 0 .019.091 3.695 3.695 0 0 0-.448-.033v-.176h.248v-.127h-.248v-.15h-.214v.15h-.203v.127h.203v.177c-.14.004-.274.015-.402.032a.227.227 0 0 0 .018-.091c0-.116-.084-.21-.189-.21-.104 0-.189.094-.189.21 0 .057.02.108.054.146a2.78 2.78 0 0 0-.141.037l-.189-.415c.327-.135.717-.202 1.172-.202.46 0 .829.069 1.108.205l.082-.117c-.307-.15-.703-.225-1.19-.225-.485 0-.905.074-1.259.223Zm0 .89.072.121c.331-.138.726-.208 1.187-.208.46 0 .829.07 1.108.206l.082-.118c-.307-.15-.703-.224-1.19-.224-.485 0-.905.074-1.259.222Z" clip-rule="evenodd"/></g></g><g clip-path="url(#m)"><mask id="n" width="20" height="15" x="300" y="0" maskUnits="userSpaceOnUse" style="mask-type:luminance"><path fill="#fff" d="M300 0h20v15h-20z"/></mask><g fill-rule="evenodd" clip-rule="evenodd" mask="url(#n)"><path fill="#FFDC17" d="M305 0h10v15h-10V0Z"/><path fill="#5FBF2B" d="M315 0h5v15h-5V0Z"/><path fill="#2E42A5" d="M300 0h5v15h-5V0Z"/><path fill="#5FBF2B" d="m312.329 3.125-1.9 2.79 1.9 2.69 1.9-2.69-1.9-2.79Zm-4.656.05-2.048 2.74 1.9 2.64 1.9-2.64-1.752-2.74Zm.354 5.818 2.048-2.74 1.752 2.74-1.752 2.82-2.048-2.82Z"/></g></g><g clip-path="url(#o)"><mask id="p" width="20" height="15" x="360" y="0" maskUnits="userSpaceOnUse" style="mask-type:luminance"><rect width="20" height="15" x="360" fill="#fff" rx="1.25"/></mask><g mask="url(#p)"><path fill="#2E42A5" fill-rule="evenodd" d="M360 0v15h20V0h-20Z" clip-rule="evenodd"/><mask id="q" width="20" height="15" x="360" y="0" maskUnits="userSpaceOnUse" style="mask-type:luminance"><path fill="#fff" fill-rule="evenodd" d="M360 0v15h20V0h-20Z" clip-rule="evenodd"/></mask><g fill-rule="evenodd" clip-rule="evenodd" mask="url(#q)"><path fill="#FECA00" d="M360 0v5h20V0h-20Z"/><path fill="#E31D1C" d="M360 10v5h20v-5h-20Z"/><path fill="#F7FCFF" d="m367.961 7.412.614-.348.689.348-.248-.708.515-.52h-.655l-.302-.67-.258.67h-.768l.577.51h-.648l-.302-.67-.257.67h-.769l.588.521-.112.454h-.49l-.303-.67-.257.67h-.769l.589.52-.109.44h-.215l-.302-.67-.258.67h-.768l.588.52-.175.708.614-.348.689.348-.248-.708.515-.52h-.033l.14-.08.689.348-.247-.708.295-.298-.008.032.614-.348.689.348-.247-.708.511-.517.007.006-.175.708Zm4.053-.027-.614-.349-.689.349.248-.708-.515-.52h.655l.302-.67.258.67h.768l-.578.51h.652l.302-.67.258.67h.768l-.588.52.112.455h.49l.303-.67.257.67h.769l-.589.52.109.44h.215l.302-.67.258.67h.768l-.588.52.175.708-.614-.349-.689.349.248-.708-.515-.52h.033l-.14-.08-.689.348.247-.708-.295-.298.008.032-.614-.349-.689.349.247-.708-.513-.519-.008.008.175.708Z"/><path fill="#F7FCFF" d="m369.896 6.584-.614.349.175-.709-.588-.52h.768l.258-.67.302.67h.655l-.515.52.248.709-.689-.349Z"/></g></g></g><g clip-path="url(#r)"><mask id="s" width="20" height="15" x="420" y="0" maskUnits="userSpaceOnUse" style="mask-type:luminance"><path fill="#fff" d="M420 0h20v15h-20z"/></mask><g mask="url(#s)"><path fill="#2E42A5" fill-rule="evenodd" d="M420 0v15h20V0h-20Z" clip-rule="evenodd"/><mask id="t" width="20" height="15" x="420" y="0" maskUnits="userSpaceOnUse" style="mask-type:luminance"><path fill="#fff" fill-rule="evenodd" d="M420 0v15h20V0h-20Z" clip-rule="evenodd"/></mask><g mask="url(#t)"><path fill="#2E42A5" d="M420 0h11v9h-11z"/><mask id="u" width="11" height="9" x="420" y="0" maskUnits="userSpaceOnUse" style="mask-type:luminance"><path fill="#fff" d="M420 0h11v9h-11z"/></mask><g mask="url(#u)"><path fill="#F7FCFF" d="m418.747 8.125 2.476 1.086 10.083-8.03 1.306-1.614-2.647-.363-4.113 3.46-3.31 2.332-3.795 3.129Z"/><path fill="#F50100" d="m419.086 8.886 1.261.63L432.143-.583h-1.771l-11.286 9.469Z"/><path fill="#F7FCFF" d="m432.503 8.125-2.197 1.396-10.362-8.34-1.306-1.614 2.647-.363 4.113 3.46 3.31 2.332 3.795 3.129Z"/><path fill="#F50100" d="m432.418 8.67-1.261.63-5.023-4.323-1.489-.483-6.133-4.922h1.771l6.13 4.805 1.628.58 4.377 3.714Z"/><mask id="v" width="13" height="11" x="419" y="-1" fill="#000" maskUnits="userSpaceOnUse"><path fill="#fff" d="M419-1h13v11h-13z"/><path fill-rule="evenodd" d="M426 0h-1v4h-5v1h5v4h1V5h5V4h-5V0Z" clip-rule="evenodd"/></mask><path fill="#F50100" fill-rule="evenodd" d="M426 0h-1v4h-5v1h5v4h1V5h5V4h-5V0Z" clip-rule="evenodd"/><path fill="#F7FCFF" d="M425 0v-.938h-.938V0H425Zm1 0h.938v-.938H426V0Zm-1 4v.938h.938V4H425Zm-5 0v-.938h-.938V4H420Zm0 1h-.938v.938H420V5Zm5 0h.938v-.938H425V5Zm0 4h-.938v.938H425V9Zm1 0v.938h.938V9H426Zm0-4v-.938h-.938V5H426Zm5 0v.938h.938V5H431Zm0-1h.938v-.938H431V4Zm-5 0h-.938v.938H426V4Zm-1-3.063h1V-.938h-1V.938ZM425.938 4V0h-1.876v4h1.876ZM420 4.938h5V3.063h-5v1.874Zm.938.062V4h-1.876v1h1.876ZM425 4.062h-5v1.875h5V4.063ZM425.938 9V5h-1.876v4h1.876Zm.062-.938h-1v1.876h1V8.062ZM425.062 5v4h1.876V5h-1.876ZM431 4.062h-5v1.875h5V4.063ZM430.062 4v1h1.876V4h-1.876ZM426 4.938h5V3.063h-5v1.874ZM425.062 0v4h1.876V0h-1.876Z" mask="url(#v)"/></g><path fill="#3B7E05" fill-rule="evenodd" stroke="#F7FCFF" stroke-width=".5" d="M432.654 6.27v4.081s-.06 3.377 3.051 3.377c3.112 0 3.112-3.377 3.112-3.377v-4.08h-6.163Z" clip-rule="evenodd"/><path fill="#FFD018" fill-rule="evenodd" d="m432.648 12.43.496-.497c.775.957 1.589 1.422 2.456 1.422.866 0 1.68-.465 2.454-1.422l.282.283.012-.018c.173.146.286.283.341.441a.526.526 0 0 1-.215.637 1.098 1.098 0 0 1-.129.073.325.325 0 0 1-.253.028.363.363 0 0 1-.233-.216c-.703.621-1.458.938-2.259.938-.795 0-1.543-.311-2.242-.923a.364.364 0 0 1-.236.21.327.327 0 0 1-.253-.032 1.207 1.207 0 0 1-.128-.075.527.527 0 0 1-.203-.64.65.65 0 0 1 .119-.197l-.009-.011Z" clip-rule="evenodd"/><path fill="#fff" d="m433.144 11.933.194-.158-.175-.216-.196.197.177.177Zm-.496.498-.177-.177-.159.16.142.174.194-.157Zm5.406-.498.177-.176-.197-.197-.174.216.194.157Zm.282.283-.177.177.214.214.17-.251-.207-.14Zm.012-.018.162-.19-.213-.18-.156.23.207.14Zm.341.441.236-.081-.236.081Zm-.215.637.133.211-.133-.211Zm-.129.073-.105-.227.105.227Zm-.253.028.068-.24-.068.24Zm-.233-.216.231-.095-.133-.326-.264.233.166.188Zm-4.501.015.165-.188-.257-.224-.137.312.229.1Zm-.236.21-.064-.241.064.242Zm-.253-.032-.109.225.109-.225Zm-.128-.075-.136.21.136-.21Zm-.203-.64-.235-.086.235.086Zm.119-.197.191.16.133-.158-.13-.16-.194.157Zm.31-.686-.496.498.354.353.496-.498-.354-.353Zm2.633 1.35c-.765 0-1.515-.408-2.262-1.33l-.388.314c.802.991 1.681 1.515 2.65 1.515v-.5Zm2.26-1.33c-.746.922-1.496 1.33-2.26 1.33v.5c.968 0 1.847-.525 2.648-1.516l-.388-.314Zm.653.263-.282-.282-.354.353.282.283.354-.354Zm-.372.02-.012.017.414.28.012-.018-.414-.28Zm.784.499c-.076-.22-.228-.392-.415-.55l-.323.381c.157.134.232.235.266.332l.472-.163Zm-.318.93a.776.776 0 0 0 .318-.93l-.472.163c.051.149-.002.274-.112.343l.266.423Zm-.156.087c.05-.023.101-.053.156-.088l-.266-.423c-.048.03-.079.047-.101.058l.211.453Zm-.427.042a.564.564 0 0 0 .427-.042l-.211-.453a.203.203 0 0 1-.05.019c-.002 0-.009.001-.03-.005l-.136.481Zm-.396-.362a.61.61 0 0 0 .396.362l.136-.48a.12.12 0 0 1-.07-.072l-.462.19ZM435.6 14.35c.873 0 1.685-.347 2.424-1.001l-.331-.375c-.666.59-1.364.876-2.093.876v.5Zm-2.407-.984c.736.643 1.541.984 2.407.984v-.5c-.723 0-1.415-.281-2.077-.86l-.33.376Zm-.007.264a.612.612 0 0 0 .401-.352l-.458-.2a.117.117 0 0 1-.071.068l.128.484Zm-.426-.05a.566.566 0 0 0 .426.05l-.128-.484c-.021.006-.028.004-.03.004a.215.215 0 0 1-.049-.02l-.219.45Zm-.155-.09c.054.035.105.066.155.09l.219-.45a.943.943 0 0 1-.101-.06l-.273.42Zm-.302-.936a.776.776 0 0 0 .302.935l.273-.418c-.108-.07-.159-.198-.105-.346l-.47-.17Zm.163-.272a.912.912 0 0 0-.163.272l.47.171a.425.425 0 0 1 .075-.122l-.382-.321Zm-.012.307.009.011.388-.315a.996.996 0 0 1-.009-.01l-.388.314Z"/><path fill="#F50100" fill-rule="evenodd" d="m433.722 7.163.07.025c.057-.13.066-.229 0-.292l-.002-.003c-.016-.024-.043-.067.002-.159l-.032-.065c-.065.132-.094.228-.043.292l.002.004.003.002c.03.027.042.1 0 .196Zm0 .946.07.025c.057-.13.066-.229 0-.292l-.002-.003c-.016-.024-.043-.067.002-.159l-.032-.065c-.065.132-.094.228-.043.292l.002.004.003.002c.03.027.042.1 0 .196Zm.07.87-.07-.026c.042-.095.03-.169 0-.195l-.003-.003-.002-.003c-.051-.064-.022-.16.043-.293l.032.066c-.045.091-.018.134-.002.158l.002.003c.066.064.057.163 0 .293Zm.416.988.069.025c.057-.13.066-.229 0-.292l-.002-.003c-.015-.024-.043-.067.002-.159l-.032-.065c-.064.132-.094.228-.043.292l.003.004.003.002c.029.027.041.1 0 .196Zm-.507.836-.07-.025c.042-.096.03-.17 0-.196l-.003-.002-.002-.004c-.051-.064-.022-.16.043-.292l.032.065c-.045.092-.018.134-.002.159l.002.003c.066.063.057.162 0 .292Zm-.07.92.07.026c.057-.13.066-.229 0-.293l-.002-.002c-.016-.025-.043-.067.002-.159l-.032-.065c-.065.132-.094.228-.043.292l.002.003.003.003c.03.027.042.1 0 .195Zm3.073.026-.069-.026c.041-.095.029-.168 0-.195l-.003-.003-.003-.003c-.05-.064-.021-.16.044-.292l.031.065c-.044.092-.017.134-.001.159l.001.002c.067.064.057.163 0 .293Zm-.069-.938.069.026c.057-.13.067-.23 0-.293l-.001-.003c-.016-.024-.043-.066.001-.158l-.031-.065c-.065.132-.094.228-.044.292l.003.003.003.003c.029.027.041.1 0 .195Zm.069-.886-.069-.026c.041-.095.029-.169 0-.195l-.003-.003-.003-.003c-.05-.065-.021-.16.044-.293l.031.066c-.044.091-.017.134-.001.158l.001.003c.067.064.057.163 0 .293Zm-.099-.904.069.025c.057-.13.066-.229 0-.292l-.002-.003c-.015-.024-.043-.067.002-.159l-.032-.065c-.065.133-.094.228-.043.293l.002.003.004.003c.029.026.041.1 0 .195Zm.069-.92-.069-.026c.041-.095.029-.169 0-.195l-.004-.003-.002-.003c-.051-.065-.022-.16.043-.293l.032.065c-.045.092-.017.135-.002.159l.002.003c.066.063.057.162 0 .292Zm-.069-.905.069.026c.057-.13.066-.229 0-.293l-.002-.002c-.015-.025-.043-.067.002-.159l-.032-.065c-.065.132-.094.228-.043.292l.002.003.004.003c.029.027.041.1 0 .195Z" clip-rule="evenodd"/><path fill="#FFD018" fill-rule="evenodd" d="M434.225 6.76a.072.072 0 0 0 .008-.034c0-.037-.028-.067-.063-.067-.034 0-.062.03-.062.067 0 .016.005.031.014.043l-.237.366.025.02.236-.366a.06.06 0 0 0 .058-.005l.248.37.025-.02-.252-.375Zm-.008.316a.071.071 0 0 0 .016-.046c0-.037-.028-.067-.063-.067-.034 0-.062.03-.062.067 0 .023.01.043.026.055l-.059.072h-.401s.044.1.18.127c.042.04.149.114.149.114l-.061.074h.433v-.074c.106-.001.145-.084.159-.114.006-.012.008-.016.008 0 0 .053.077 0 .077 0s.127-.127.127-.249c0-.12-.267.122-.267.122h-.181l-.081-.081Zm-.543 1.027h.401l.059-.072a.069.069 0 0 1-.026-.055c0-.037.028-.067.062-.067.035 0 .063.03.063.067a.071.071 0 0 1-.016.046l.081.08h.181s.267-.242.267-.12c0 .12-.127.248-.127.248s-.077.053-.077 0c0-.016-.002-.013-.008 0-.014.03-.053.113-.159.114v.074h-.433l.061-.074s-.107-.074-.149-.114c-.136-.027-.18-.127-.18-.127Zm.551-.398a.072.072 0 0 0 .008-.033c0-.037-.028-.067-.063-.067-.034 0-.062.03-.062.067 0 .016.005.031.014.043l-.237.366.025.02.236-.366a.06.06 0 0 0 .058-.005l.248.37.025-.02-.252-.375Zm-.551 1.242h.401l.059-.071a.069.069 0 0 1-.026-.055c0-.037.028-.068.062-.068.035 0 .063.03.063.068a.071.071 0 0 1-.016.045l.081.081h.181s.267-.242.267-.121-.127.248-.127.248-.077.054-.077 0c0-.015-.002-.012-.008 0-.014.03-.053.113-.159.114v.074h-.433l.061-.074s-.107-.074-.149-.114c-.136-.026-.18-.127-.18-.127Zm.551-.397a.072.072 0 0 0 .008-.033c0-.038-.028-.068-.063-.068-.034 0-.062.03-.062.068 0 .016.005.03.014.042l-.237.366.025.02.236-.366a.06.06 0 0 0 .058-.005l.248.371.025-.02-.252-.375Zm-.066 1.41h.401l.06-.07a.07.07 0 0 1-.027-.056c0-.037.028-.067.063-.067.034 0 .062.03.062.067a.071.071 0 0 1-.016.046l.081.08h.182s.267-.242.267-.12c0 .12-.128.248-.128.248s-.077.053-.077 0c0-.015-.001-.012-.007 0-.014.03-.054.113-.16.114v.074h-.432l.061-.074s-.107-.074-.149-.114c-.137-.027-.181-.127-.181-.127Zm.551-.397a.061.061 0 0 0 .008-.033c0-.037-.028-.067-.062-.067-.035 0-.063.03-.063.067 0 .016.006.031.014.043l-.236.366.024.02.237-.366a.055.055 0 0 0 .024.005.06.06 0 0 0 .033-.01l.249.37.024-.02-.252-.375Zm-1.127 1.209h.401l.059-.072a.069.069 0 0 1-.026-.055c0-.037.028-.067.062-.067.035 0 .063.03.063.067a.071.071 0 0 1-.016.046l.081.08h.181s.267-.242.267-.12c0 .12-.127.248-.127.248s-.077.053-.077 0c0-.016-.002-.013-.008 0-.014.03-.053.113-.159.114v.074h-.433l.061-.075s-.107-.074-.149-.113c-.136-.027-.18-.127-.18-.127Zm.551-.398a.072.072 0 0 0 .008-.033c0-.037-.028-.067-.063-.067-.034 0-.062.03-.062.067 0 .016.005.031.014.043l-.237.366.025.02.236-.367a.06.06 0 0 0 .058-.005l.248.372.025-.02-.252-.376Zm-.551 1.343h.401l.059-.07a.069.069 0 0 1-.026-.056c0-.037.028-.067.062-.067.035 0 .063.03.063.067a.071.071 0 0 1-.016.046l.081.08h.181s.267-.242.267-.12c0 .12-.127.248-.127.248s-.077.053-.077 0c0-.016-.002-.013-.008 0-.014.03-.053.113-.159.113v.075h-.433l.061-.075s-.107-.074-.149-.113c-.136-.027-.18-.128-.18-.128Zm.551-.397a.072.072 0 0 0 .008-.033c0-.037-.028-.068-.063-.068-.034 0-.062.03-.062.068 0 .016.005.03.014.042l-.237.367.025.02.236-.367a.061.061 0 0 0 .058-.005l.248.372.025-.02-.252-.376Zm2.452.397h.402l.059-.07a.069.069 0 0 1-.026-.056c0-.037.028-.067.062-.067.035 0 .063.03.063.067a.072.072 0 0 1-.017.046l.081.08h.182s.267-.242.267-.12c0 .12-.128.248-.128.248s-.077.053-.077 0c0-.016-.001-.013-.007 0-.014.03-.054.113-.159.113v.075h-.433l.061-.075s-.107-.074-.149-.113c-.137-.027-.181-.128-.181-.128Zm.552-.397a.072.072 0 0 0 .008-.033c0-.037-.028-.068-.063-.068-.034 0-.062.03-.062.068 0 .016.005.03.013.042l-.236.367.025.02.236-.367a.058.058 0 0 0 .057-.005l.249.372.024-.02-.251-.376Zm-.552-.515h.402l.059-.07a.069.069 0 0 1-.026-.056c0-.037.028-.068.062-.068.035 0 .063.03.063.068a.072.072 0 0 1-.017.046l.081.08h.182s.267-.242.267-.12c0 .12-.128.248-.128.248s-.077.053-.077 0c0-.016-.001-.013-.007 0-.014.03-.054.113-.159.113v.074h-.433l.061-.074s-.107-.074-.149-.113a.248.248 0 0 1-.181-.128Zm.552-.397a.072.072 0 0 0 .008-.033c0-.037-.028-.068-.063-.068-.034 0-.062.03-.062.068 0 .016.005.03.013.042l-.236.367.025.02.236-.367a.057.057 0 0 0 .057-.005l.249.371.024-.02-.251-.375Zm-.552-.515h.402l.059-.071a.069.069 0 0 1-.026-.055c0-.038.028-.068.062-.068.035 0 .063.03.063.068a.072.072 0 0 1-.017.045l.081.081h.182s.267-.242.267-.121-.128.248-.128.248-.077.054-.077 0c0-.015-.001-.012-.007 0-.014.03-.054.113-.159.114v.074h-.433l.061-.074s-.107-.074-.149-.114a.248.248 0 0 1-.181-.127Zm.552-.397a.072.072 0 0 0 .008-.033c0-.038-.028-.068-.063-.068-.034 0-.062.03-.062.068 0 .016.005.03.013.042l-.236.366.025.02.236-.366a.058.058 0 0 0 .057-.005l.249.371.024-.02-.251-.375Zm-.582-.481h.401l.06-.071a.07.07 0 0 1-.027-.056c0-.037.028-.067.063-.067.034 0 .062.03.062.067a.071.071 0 0 1-.016.046l.081.08h.181s.268-.242.268-.12c0 .12-.128.248-.128.248s-.077.053-.077 0c0-.015-.002-.012-.007 0-.015.03-.054.113-.16.114v.074h-.433l.061-.074s-.106-.074-.148-.114c-.137-.027-.181-.127-.181-.127Zm.551-.398a.072.072 0 0 0 .008-.033c0-.037-.028-.067-.062-.067-.035 0-.063.03-.063.067 0 .016.005.031.014.043l-.236.366.024.02.237-.366a.055.055 0 0 0 .024.005.06.06 0 0 0 .033-.01l.249.371.024-.02-.252-.376Zm-.551-.548h.401l.06-.071a.07.07 0 0 1-.027-.056c0-.037.028-.067.063-.067.034 0 .062.03.062.067a.071.071 0 0 1-.016.046l.081.08h.181s.268-.242.268-.12c0 .12-.128.248-.128.248s-.077.053-.077 0c0-.015-.002-.012-.007 0-.015.03-.054.113-.16.114v.074h-.433l.061-.074s-.106-.074-.148-.114c-.137-.026-.181-.127-.181-.127Zm.551-.398a.072.072 0 0 0 .008-.033c0-.037-.028-.067-.062-.067-.035 0-.063.03-.063.067a.07.07 0 0 0 .014.043l-.236.366.024.02.237-.366a.055.055 0 0 0 .024.005.06.06 0 0 0 .033-.01l.249.371.024-.02-.252-.376Z" clip-rule="evenodd"/><path fill="#FFC6B5" fill-rule="evenodd" d="m435.4 7.866-.21.683s-.353.456-.418.68c-.065.223-.1.37-.082.37a.233.233 0 0 0 .161-.217c0-.154.549-.649.549-.649l.163-.867h-.163Z" clip-rule="evenodd"/><path fill="#FFD018" fill-rule="evenodd" d="M437.107 6.793a.072.072 0 0 0 .008-.033c0-.037-.028-.067-.062-.067-.035 0-.063.03-.063.067 0 .016.006.031.014.043l-.236.366.024.02.237-.366a.055.055 0 0 0 .024.005.06.06 0 0 0 .033-.01l.249.37.024-.02-.252-.375Zm-.008.317a.071.071 0 0 0 .016-.046c0-.037-.028-.067-.062-.067-.035 0-.063.03-.063.067a.07.07 0 0 0 .027.055l-.06.072h-.401s.044.1.181.127c.042.04.149.114.149.114l-.061.074h.432v-.074c.106-.001.146-.085.16-.114.005-.013.007-.016.007 0 0 .053.077 0 .077 0s.128-.127.128-.249c0-.12-.267.122-.267.122h-.182l-.081-.081Z" clip-rule="evenodd"/><path fill="#FFC6B5" fill-rule="evenodd" d="M435.913 7.592c.005.013.01.022.01.035 0 .04-.167.098-.288.098-.12 0-.073-.098 0-.152.074-.053-.006-.146-.073-.146-.064 0-.064-.09-.063-.163V6.97c0-.114.03-.1.089-.075.035.015.079.034.132.034.09 0 .095.02.108.077.009.034.02.08.055.144.057.1.045.124.027.16-.012.025-.027.055-.027.117 0 .104.018.14.03.165Zm.148.726.036-.385s-.036-.14.047-.14c.083 0 .212.672.259.942.03.172.002.204-.077.296-.044.052-.105.124-.182.25-.127.21-.119.333-.112.427.004.063.007.112-.031.166-.09.125-.126.007-.162-.109l-.008-.025c-.034-.108.122-.435.227-.657l.039-.082c.1-.213.091-.288.047-.378-.043-.09-.083-.305-.083-.305Z" clip-rule="evenodd"/><path fill="#FFD018" fill-rule="evenodd" d="M436.262 12.106a.172.172 0 0 1-.167.177c-.092 0-.167-.08-.167-.177 0-.098.075-.177.167-.177.092 0 .167.08.167.177Zm-.887.05c-.075.062-.167.076-.204.031-.038-.044-.008-.132.067-.195.075-.062.166-.077.204-.032.038.045.007.132-.067.195Z" clip-rule="evenodd"/><path fill="#A95601" fill-rule="evenodd" d="M435.594 6.74s-.173.036-.115.123c.057.086-.076.064.115.075.191.011.244.081.217.132-.026.052-.046.18 0 .256.047.077.062.21.144.144.083-.067.241-.159.193-.28-.049-.12.019-.26-.087-.327-.106-.068-.129-.027-.19-.123-.06-.095-.15-.122-.213-.06l-.064.06Z" clip-rule="evenodd"/><path fill="#F7FCFF" fill-rule="evenodd" d="M435.56 7.61s-.349.42-.292.569c.057.148.143.155.1.366-.043.21.026.535-.1.95-.125.413-.208 1.384-.167 1.384.042 0 .099.536.05.777-.05.24-.394.441-.05.441.344 0 .385.048.523 0 .137-.047.333.138.333 0 0-.137.014-.165.119-.165h.193c.092 0 .214.086.214-.119s.023-.645-.096-.987c-.118-.342-.078-.124-.194-.581-.069-.271-.123-.379-.165-.473-.028-.065-.111.049-.13-.053-.007-.035.049-.237.05-.264.004-.162.128-.19.128-.469 0-.324-.078-.68 0-.858.078-.179.269-.071.193-.245-.076-.173-.101-.272-.244-.272h-.465Z" clip-rule="evenodd"/><path fill="#272727" d="m433.117 12.59.058-.077c.835.778 1.607 1.165 2.316 1.165.709 0 1.572-.41 2.588-1.236l.054.082c-1.03.837-1.91 1.256-2.642 1.256-.733 0-1.524-.397-2.374-1.19Z"/></g></g></g><g clip-path="url(#w)"><mask id="x" width="20" height="15" x="480" y="0" maskUnits="userSpaceOnUse" style="mask-type:luminance"><path fill="#fff" d="M480 0h20v15h-20z"/></mask><g mask="url(#x)"><path fill="#F7FCFF" fill-rule="evenodd" d="M480 0v15h20V0h-20Z" clip-rule="evenodd"/><mask id="y" width="20" height="15" x="480" y="0" maskUnits="userSpaceOnUse" style="mask-type:luminance"><path fill="#fff" fill-rule="evenodd" d="M480 0v15h20V0h-20Z" clip-rule="evenodd"/></mask><g mask="url(#y)"><path fill="#E8AA00" fill-rule="evenodd" d="M491.002 5.134c.151.086.242.307.242.307h-2.555l.176-.307s-.176-.08-.088-.08c.089 0 .342-.355.342-.355h-.106s-.054-.088.106-.088.288-.572.288-.572.105-.267-.152-.335c-.257-.067-.566.224-.566.224s.075-.466.176-.567c.047-.046.134-.054.215-.06.092-.009.175-.016.175-.081 0-.123.3-.218.792-.218.491 0 .67.587.67.702 0 .116.168.729.168.729s-.168 0-.168.079.527.42.527.42-.394.116-.242.202Zm-9.266-2.09c.196-.085 2.188.509 3.68.954.858.255 1.551.462 1.642.462.249 0 .718.603.483.857-.234.254-.313.402-.156.402.156 0 .947-.205.947-.205V7.87s-.758.18-.947 0c-.092-.087-.232-.092-.352-.097-.128-.004-.234-.008-.234-.11 0-.195-.436-.226-.436-.226s-.404-.134-.404-.259-.265-.48-.265-.48-1.008-.57-1.865-1.197a26.31 26.31 0 0 0-.508-.36c-.647-.45-1.181-.822-1.276-1.253-.448-.443-.618-.713-.309-.846Zm6.291 4.976s-.339.234-.714.86c-.185.308-.2.58-.211.775-.011.203-.018.326-.202.326-.216 0-.373.046-.5.084-.088.026-.161.048-.231.048-.172 0-.501.647-.336.797.164.15.854.388.854 0s.185-.609.522-.609.939-.223.939-.712c0-.49.656-.455.656-.455l-.777-1.114Zm6.699-4.022c1.492-.445 3.484-1.039 3.68-.955.309.133.139.403-.309.846-.095.431-.629.803-1.276 1.253a26.31 26.31 0 0 0-.508.36 22.25 22.25 0 0 1-1.865 1.197s-.265.355-.265.48-.404.259-.404.259-.437.03-.437.227c0 .1-.105.105-.233.11-.12.004-.26.01-.352.096-.189.18-.947 0-.947 0V5.514s.79.205.947.205c.157 0 .078-.148-.157-.402-.234-.254.235-.857.484-.857.091 0 .784-.207 1.642-.462Zm-2.611 4.022s.339.234.714.86c.185.308.2.58.211.775.011.203.018.326.202.326.216 0 .373.046.5.084.088.026.161.048.231.048.171 0 .5.647.336.797-.165.15-.854.388-.854 0s-.185-.609-.522-.609-.939-.223-.939-.712c0-.49-.656-.455-.656-.455l.777-1.114Zm-3.652 1.631c0-.215.381-.378.381-.378l1.147-.484.014.29.015-.29 1.147.484s.381.163.381.378c0 .108.162.3.323.49s.322.38.322.486c0 .188-.435.61-.698.866l-.096.094c-.06.06-.125.134-.193.21-.193.22-.407.462-.586.462-.126 0-.228.088-.326.172-.09.077-.176.151-.274.151a.02.02 0 0 1-.015-.007.019.019 0 0 1-.014.007c-.098 0-.184-.074-.274-.151-.098-.084-.2-.172-.326-.172-.179 0-.393-.243-.586-.462-.068-.076-.133-.15-.193-.21l-.096-.094c-.263-.255-.698-.678-.698-.866 0-.107.16-.296.321-.486.162-.19.324-.382.324-.49Z" clip-rule="evenodd"/><path fill="#46A000" fill-rule="evenodd" d="M484.381 6.67c.025.29.108.46.108.46s.144.228.226.23c.042.105.088.213.137.322.226.6.533 1.389.847 2.107a.49.49 0 0 0-.089-.05c-.263-.124-.452-.138-.452-.138s-.352.015-.316.115c.036.1.473.317.651.253.019-.008.04-.014.059-.021.082-.028.157-.054.178-.088l.126.28a1.439 1.439 0 0 0-.451-.137s-.352.015-.316.115c.036.1.473.317.651.252l.059-.02c.049-.018.096-.034.13-.051.317.675.623 1.214.841 1.35h.44s-.38-.538-.86-1.29c.145-.103.346-.33.346-.472l.001-.063c.003-.167.005-.308-.178-.126-.205.205-.283.377-.283.377l-.02.072-.116-.188c.144-.101.349-.33.349-.474l.001-.063c.003-.166.005-.308-.178-.126a1.44 1.44 0 0 0-.283.378l-.02.072-.167-.278c.141-.074.4-.344.4-.505l.001-.063c.002-.166.005-.308-.178-.126-.205.205-.283.378-.283.378s-.023.073-.037.152a22.36 22.36 0 0 1-.217-.379.05.05 0 0 0 .007 0c.106 0 .46-.335.46-.524l.001-.063c.002-.167.005-.308-.178-.126-.205.205-.283.378-.283.378s-.052.165-.047.264a20.693 20.693 0 0 1-.285-.53h.003c.106 0 .459-.337.459-.526l.001-.063c.003-.166.005-.308-.177-.125a1.414 1.414 0 0 0-.283.377s-.048.149-.048.249a13.508 13.508 0 0 1-.266-.554l-.12-.324a.037.037 0 0 0 .014-.011c.069-.082.038-.569-.107-.69a1.686 1.686 0 0 1-.047-.041c-.126-.11-.233-.202-.211.055Zm.489.74s.014-.188.137-.451c.109-.234.156-.1.21.057l.021.06c.064.177-.153.614-.253.65-.1.037-.115-.315-.115-.315Zm.493 1.806a1.435 1.435 0 0 0-.452-.137s-.352.015-.316.115c.036.1.473.317.651.253a.694.694 0 0 1 .059-.021c.157-.055.291-.1.058-.21Zm-.699-.7s.189.015.452.138c.233.109.099.155-.058.21l-.059.02c-.178.065-.615-.152-.651-.252-.037-.1.316-.115.316-.115Zm.246-.424c-.263-.123-.452-.137-.452-.137s-.352.015-.316.115c.036.1.473.317.651.252l.059-.02c.157-.055.291-.101.058-.21Zm-.551-.814s.173.078.378.283c.182.183.04.18-.126.178l-.063-.001c-.189 0-.525-.354-.525-.46 0-.106.336 0 .336 0Z" clip-rule="evenodd"/><path fill="#0093E1" fill-rule="evenodd" d="M497.932 6.462h-1.336s.284 0 .315.273c0 0 .006 2.309 0 2.49-.007.182-.315.243-.315.243s1.621.005 1.336 0c-.284-.005-.347-.243-.347-.243v-2.49c0-.21.347-.273.347-.273Zm-15.079 2.821-1.084-2.78h.924c-.161 0-.22.204-.22.204l.647 1.846s.626-1.507.626-1.774c0-.268-.263-.276-.263-.276h1.205l-.291.097s-.964 2.21-.964 2.683c-.046.105.444.175.444.175h-1.294l.27-.175Zm11.064-.873.716-1.319.021 1.468-.222-.072-.157.98.791-1.518-.263-.1.98-1.06-.334 1.434-.19-.168-1.123 2.096 1.254-1.436-.242-.121 1.238-.81-.539 1.32-.301-.216-1.271 1.6-.528-.202.528-1.876h-.358Zm-.414 2.502h-.396v.302h-.311l-.883 1.024h.487l.169.576.227-.203v.203l.442-.203.423.366.316-1.408-.213-.156.109-.095-.109-.405h-.261Z" clip-rule="evenodd"/><path fill="#F7FCFF" fill-rule="evenodd" d="M487.715 5.008s.581.402 1.163.402c.582 0 1.163-.402 1.163-.402s.582.402 1.163.402c.582 0 1.164-.402 1.164-.402v1.813c0 1.875-2.327 3.328-2.327 3.328s-2.439-1.334-2.326-3.35v-1.79Z" clip-rule="evenodd"/><mask id="z" width="6" height="6" x="487" y="5" maskUnits="userSpaceOnUse" style="mask-type:luminance"><path fill="#fff" fill-rule="evenodd" d="M487.715 5.008s.581.402 1.163.402c.582 0 1.163-.402 1.163-.402s.582.402 1.163.402c.582 0 1.164-.402 1.164-.402v1.813c0 1.875-2.327 3.328-2.327 3.328s-2.439-1.334-2.326-3.35v-1.79Z" clip-rule="evenodd"/></mask><g fill-rule="evenodd" clip-rule="evenodd" mask="url(#z)"><path fill="#2E42A5" d="M487.55 4.888h4.9v1.887h-4.9V4.888Z"/><path fill="#AF0100" d="M488.497 6.775h-.412v3.815h.412V6.775Zm.7 0h-.412v3.815h.412V6.775Zm.288 0h.412v3.815h-.412V6.775Zm1.112 0h-.412v3.815h.412V6.775Zm.288 0h.412v3.815h-.412V6.775Zm1.112 0h-.412v3.815h.412V6.775Z"/></g></g></g></g><g clip-path="url(#A)"><mask id="B" width="20" height="15" x="540" y="0" maskUnits="userSpaceOnUse" style="mask-type:luminance"><path fill="#fff" d="M540 0h20v15h-20z"/></mask><g mask="url(#B)"><path fill="#F7FCFF" fill-rule="evenodd" d="M540 0h20v15h-20V0Z" clip-rule="evenodd"/><path fill="#E31D1C" fill-rule="evenodd" d="M540 0v15h20V0h-20Z" clip-rule="evenodd"/><mask id="C" width="20" height="15" x="540" y="0" maskUnits="userSpaceOnUse" style="mask-type:luminance"><path fill="#fff" fill-rule="evenodd" d="M540 0v15h20V0h-20Z" clip-rule="evenodd"/></mask><g mask="url(#C)"><path fill="#FFD221" fill-rule="evenodd" d="m550.039 9.988-3.22 2.046 1.08-3.583-2.296-2.34 3.166-.07 1.4-3.537 1.277 3.584 3.158.055-2.374 2.384 1.109 3.409-3.3-1.948Z" clip-rule="evenodd"/></g></g></g><g clip-path="url(#D)"><mask id="E" width="20" height="15" x="600" y="0" maskUnits="userSpaceOnUse" style="mask-type:luminance"><path fill="#fff" d="M600 0h20v15h-20z"/></mask><g fill-rule="evenodd" clip-rule="evenodd" mask="url(#E)"><path fill="#C51918" d="M613.75 0H620v15h-6.25V0Z"/><path fill="#2E42A5" d="M600 0h7.5v15H600V0Z"/><path fill="#F7FCFF" d="M606.25 0h7.5v15h-7.5V0Z"/></g></g><g clip-path="url(#F)"><mask id="G" width="20" height="15" x="660" y="0" maskUnits="userSpaceOnUse" style="mask-type:luminance"><path fill="#fff" d="M660 0h20v15h-20z"/></mask><g mask="url(#G)"><path fill="#C51918" fill-rule="evenodd" d="M660 0v15h20V0h-20Z" clip-rule="evenodd"/><mask id="H" width="20" height="15" x="660" y="0" maskUnits="userSpaceOnUse" style="mask-type:luminance"><path fill="#fff" fill-rule="evenodd" d="M660 0v15h20V0h-20Z" clip-rule="evenodd"/></mask><g fill-rule="evenodd" clip-rule="evenodd" mask="url(#H)"><path fill="#2E42A5" d="M660 0v8.75h10V0h-10Z"/><path fill="#FEFFFF" d="m662.228 4.858-.662.4.151-.78-.552-.585.747-.032.316-.728.316.728h.746l-.55.616.166.78-.678-.4Zm5 0-.662.4.151-.78-.552-.585.747-.032.316-.728.316.728h.746l-.55.616.166.78-.678-.4Zm-2.562-2.272-.624.377.143-.735-.52-.55.703-.03.298-.685.297.686h.702l-.518.58.156.734-.637-.377Zm.675 2.68-.389.235.089-.46-.325-.343.44-.018.185-.429.186.429h.439l-.324.362.098.459-.399-.235Zm-.71 2.752-.936.564.214-1.102-.779-.824 1.054-.045.447-1.029.446 1.03h1.053l-.777.868.233 1.102-.955-.564Z"/></g></g></g><g clip-path="url(#I)"><mask id="J" width="20" height="15" x="720" y="0" maskUnits="userSpaceOnUse" style="mask-type:luminance"><path fill="#fff" d="M720 0h20v15h-20z"/></mask><g mask="url(#J)"><path fill="#F7FCFF" fill-rule="evenodd" d="M720 0v15h20V0h-20Z" clip-rule="evenodd"/><mask id="K" width="20" height="15" x="720" y="0" maskUnits="userSpaceOnUse" style="mask-type:luminance"><path fill="#fff" fill-rule="evenodd" d="M720 0v15h20V0h-20Z" clip-rule="evenodd"/></mask><g fill-rule="evenodd" clip-rule="evenodd" mask="url(#K)"><path fill="#E31D1C" d="M720 0v5h20V0h-20Z"/><path fill="#272727" d="M720 10v5h20v-5h-20Z"/></g></g></g><g clip-path="url(#L)"><path fill="#fff" d="M780 0h20v15h-20z"/><path fill="#DFDFDF" d="M786.931 13.268c-.416.126-1.015.384-1.255.528-.078.05-.071.107.049.321.085.138.17.258.184.258.021 0 .254-.094.515-.214.261-.113.594-.262.747-.29.117-.02.225-.039.291-.064.026.058.01.026.059.117.07.13.026.127.147.163.127.037.441-.114.441-.114.367-.114.572-.126 1.891-.126s1.524.012 1.89.132c0 0 .295.09.333.1.038.01.058.02.098.01.036-.007.074-.056.091-.086 0 0 .081-.174.102-.235.07.03.198.07.322.104.148.044.479.176.74.29.261.119.494.213.515.213.014 0 .099-.12.184-.258.169-.296.183-.27-.431-.553-.818-.378-1.636-.547-1.714-.365-.014.034-.026.055-.045.1-.082-.017-.297-.062-.512-.094-.663-.107-2.483-.107-3.146 0-.215.032-.361.084-.482.114-.069-.123-.055-.074-.069-.108-.056-.126-.43-.106-.945.057Z"/><path fill="#171796" d="M787.531 5.496c-.014.205.028.35.14.46.049.052.092.114.092.114s-.057.063-.104.11a.545.545 0 0 0-.157.403c0 .155.045.262.166.402 0 0 .102.052.1.115-.003.064-.109.128-.109.128-.218.255-.211.547.016.79l.098.107h4.46l.109-.122c.21-.238.21-.495.002-.768 0 0-.105-.075-.107-.137-.001-.063.1-.125.1-.125.218-.275.213-.528-.012-.793-.102-.117-.104-.14-.024-.194.131-.093.211-.405.152-.595-.088-.285-.464-.475-.694-.35a1.512 1.512 0 0 0-.192.137.584.584 0 0 1-.135.098.646.646 0 0 1-.125-.1c-.23-.208-.507-.233-.737.002 0 0-.032.126-.081.13-.048.004-.116-.112-.116-.112-.234-.233-.528-.223-.767.022 0 0-.034.103-.088.09-.054-.012-.098-.132-.098-.132-.14-.135-.229-.133-.39-.135-.092-.002-.26.02-.362.097-.101.075-.083.166-.107.16-.058-.015-.123-.11-.123-.11-.227-.205-.41-.24-.63-.117a.498.498 0 0 0-.277.425Z"/><path fill="#D42E12" d="M787.678 9.057s.091.045.088.101c-.003.057-.1.113-.1.113a.908.908 0 0 0-.132.195.57.57 0 0 0 .13.588c.09.09.092.128.007.236a1.004 1.004 0 0 0-.1.148.55.55 0 0 0 .481.787.478.478 0 0 0 .382-.17c.085-.093.13-.096.206-.012.111.128.258.207.381.207.145 0 .235-.047.382-.192 0 0 .058-.114.111-.114.053.001.102.116.102.116.221.246.443.253.739.02 0 0 .065-.095.121-.094.056.002.105.099.105.099.13.118.227.164.355.164.128 0 .223-.051.372-.204 0 0 .077-.115.123-.123.046-.007.095.089.095.089.182.17.282.224.415.224.137 0 .234-.047.372-.175.127-.12.196-.26.18-.376a1 1 0 0 0-.207-.433s-.08-.007-.068-.07c.012-.061.106-.125.106-.125.233-.283.235-.502.005-.782 0 0-.096-.055-.095-.118.002-.063.1-.126.1-.126.223-.273.22-.526-.005-.775l-.121-.13-2.217.002-2.218.003-.1.116c-.232.268-.23.54.005.811Z"/><path fill="#E9D315" fill-rule="evenodd" d="M791.138 8.513c.107 0 .197.074.215.17l.004.037v.384l.459-.244a.211.211 0 0 1 .284.085.207.207 0 0 1-.054.259l-.032.02-.385.205.385.205.032.02c.077.061.102.17.054.26a.211.211 0 0 1-.284.084l-.459-.244v.428a.213.213 0 0 1-.219.206.215.215 0 0 1-.215-.17l-.004-.036v-.376l-.361.192a.211.211 0 0 1-.284-.084.207.207 0 0 1 .054-.26l.032-.02.385-.205-.385-.205-.032-.02a.207.207 0 0 1-.054-.26.211.211 0 0 1 .284-.084l.361.192V8.72c0-.114.098-.207.219-.207Zm-2.125 0c.108 0 .197.074.216.17l.003.037v.384l.46-.244a.21.21 0 0 1 .283.085.204.204 0 0 1-.054.259l-.031.02-.386.205.386.205.031.02c.078.061.103.17.054.26a.21.21 0 0 1-.283.084l-.46-.244v.428a.213.213 0 0 1-.219.206.216.216 0 0 1-.215-.17l-.003-.036v-.376l-.362.192a.21.21 0 0 1-.283-.084.204.204 0 0 1 .054-.26l.031-.02.386-.205-.386-.205-.031-.02a.204.204 0 0 1-.054-.26.21.21 0 0 1 .283-.084l.362.192V8.72c0-.114.098-.207.218-.207Z" clip-rule="evenodd"/><path stroke="#000" stroke-width=".4" d="M786.677 4.375v3.66h.2v.09c-.114-.004-.198-.088-.2-.09v.428l.001 1c.001.758.002 1.614.004 2.006a.351.351 0 0 0 .09.262c.027.03.056.053.078.07l.029.022.035.026.124-.156-.124.156c.075.06.191.1.302.128.121.031.272.058.443.079.34.04.771.055 1.228.02a.898.898 0 0 1 .388.08.734.734 0 0 1 .222.17c.031.033.06.068.09.104l.003.004c.027.034.059.073.092.107a.452.452 0 0 0 .33.159c.156 0 .26-.088.328-.161a1.8 1.8 0 0 0 .092-.112l.001-.002a3.16 3.16 0 0 1 .084-.104.695.695 0 0 1 .207-.167.822.822 0 0 1 .372-.079c.513.008.952-.004 1.285-.036a3.16 3.16 0 0 0 .425-.063.718.718 0 0 0 .295-.124l.004-.004.017-.014c.013-.012.031-.028.051-.049a.528.528 0 0 0 .123-.187.591.591 0 0 0 .031-.18c0-.023-.002-.043-.003-.058l-.001-.005V4.174h-6.646v.2Z"/><path fill="#fff" d="M789.293 6.166c-.168.312-.175.453-.036.703a.865.865 0 0 0 .412.392c.456.207 1.039.054 1.268-.33.142-.236.126-.63-.03-.803l-.043-.046-.04.136c-.057.194-.113.292-.227.397-.212.194-.505.238-.808.118-.234-.094-.328-.225-.416-.587l-.021-.09-.059.11Z"/><path fill="#FF2500" fill-rule="evenodd" d="M791.131 2c0 .577-.357 1-.858 1s-.854-.423-.854-1c0-.58.353-1 .854-1s.858.42.858 1Zm-6.832.968V1.621l.51 1.347h.223l.499-1.347v1.347h.301V1.032h-.35l-.558 1.489-.565-1.49H784v1.937h.299Zm2.116 0 .19-.536h.71l.19.536h.32l-.713-1.936h-.301l-.713 1.936h.317Zm.29-.82h.507l-.254-.716-.253.716Zm2.01.82v-.772l.674-1.164h-.332l-.489.867-.493-.867h-.341l.671 1.164v.772h.31Zm1.558-.261c-.326 0-.537-.297-.537-.707s.211-.707.537-.707c.326 0 .541.297.541.707s-.215.707-.541.707Zm1.878-1.385v1.646h-.314V1.322h-.616v-.29h1.546v.29h-.616Zm1.727 1.646V1.322h.616v-.29h-1.546v.29h.616v1.646h.314ZM796 2.675v.293h-1.211V1.032H796v.29h-.903v.51h.818v.288h-.818v.555H796Z" clip-rule="evenodd"/><path fill="#DFDFDF" fill-rule="evenodd" stroke="#000" stroke-width=".3" d="M796.11 11.75s-.212-.419.325-.625c.538-.207.8.063 1.037.313.237.25.211 1.005.211 1.005l-.585.936-1.795.37-.715-.37-.838-1.629.063-1.6s.084-.612.084-.739c0-.126.39-1.11.39-1.11l.369-.365 1.043-.555.491-.245.61-.77-.068-.614-.695.885h-.588l-.613.257-.248.233-.301.01-.118-.243.329-.529.497-.5-.229-.423.339-.155-.065-.233.375.233.284-.233.054-.214-.648-.348s.634-.266.932-.238c.299.028.58.38.58.38l.855-.142s-.229.562-.155.562h.538l-.172.698h.662l-.49.537.382.21-.581.395.581.39-.54.356.304.588.48-.292.269.366-.405.9-.662.469-.631.159-.617.16-.245.16-.153-.615-1.042.715-.542 1.121.16 1.018.382.522.704.252.918-.173.481-.584.115-.597s-.279-.405-.481-.371c-.202.034-.622.312-.622.312Z" clip-rule="evenodd"/><path stroke="#000" stroke-width=".2" d="M795.054 7.762s1.112.103 1.409-.133m-2.245.854s1.111.104 1.408-.132m-1.595.794s.6.101.659-.108"/><path fill="#000" fill-rule="evenodd" d="M795.469 5.938a.156.156 0 1 1-.001-.313.156.156 0 0 1 .001.313Z" clip-rule="evenodd"/><path fill="#DFDFDF" fill-rule="evenodd" stroke="#000" stroke-width=".3" d="M783.89 11.75s.212-.419-.325-.625c-.538-.207-.8.063-1.037.313-.237.25-.211 1.005-.211 1.005l.585.936 1.795.37.715-.37.838-1.629-.063-1.6s-.084-.612-.084-.739c0-.126-.39-1.11-.39-1.11l-.369-.365-1.043-.555-.491-.245-.61-.77.068-.614.695.885h.588l.613.257.248.233.301.01.118-.243-.329-.529-.497-.5.229-.423-.339-.155.065-.233-.375.233-.284-.233-.054-.214.648-.348s-.634-.266-.932-.238c-.299.028-.58.38-.58.38l-.855-.142s.229.562.155.562h-.538l.172.698h-.662l.49.537-.382.21.581.395-.581.39.54.356-.304.588-.48-.292-.269.366.405.9.662.469.631.159.617.16.245.16.153-.615 1.042.715.542 1.121-.16 1.018-.382.522-.704.252-.918-.173-.481-.584-.115-.597s.279-.405.481-.371c.202.034.622.312.622.312Z" clip-rule="evenodd"/><path stroke="#000" stroke-width=".2" d="M784.946 7.762s-1.112.103-1.409-.133m2.245.854s-1.111.104-1.408-.132m1.595.794s-.6.101-.659-.108"/><path fill="#000" fill-rule="evenodd" d="M784.531 5.938a.156.156 0 1 0 .001-.313.156.156 0 0 0-.001.313Z" clip-rule="evenodd"/></g><g clip-path="url(#M)"><mask id="N" width="20" height="15" x="840" y="0" maskUnits="userSpaceOnUse" style="mask-type:luminance"><path fill="#fff" d="M840 0h20v15h-20z"/></mask><g mask="url(#N)"><path fill="#F7FCFF" fill-rule="evenodd" d="M840 0h20v15h-20V0Z" clip-rule="evenodd"/><path fill="#E31D1C" fill-rule="evenodd" d="M840 0v5h20V0h-20Z" clip-rule="evenodd"/><path fill="#3D58DB" fill-rule="evenodd" d="M840 10v5h20v-5h-20Z" clip-rule="evenodd"/><mask id="O" width="24" height="24" x="838" y="-4.25" fill="#000" maskUnits="userSpaceOnUse"><path fill="#fff" d="M838-4.25h24v24h-24z"/><path fill-rule="evenodd" d="M849.643 6.25 840-1.25v17.5l9.643-7.5H860v-2.5h-10.357Z" clip-rule="evenodd"/></mask><path fill="#5EAA22" fill-rule="evenodd" d="M849.643 6.25 840-1.25v17.5l9.643-7.5H860v-2.5h-10.357Z" clip-rule="evenodd"/><path fill="#F7FCFF" d="m840-1.25.767-.987-2.017-1.569v2.556H840Zm9.643 7.5-.768.987.339.263h.429V6.25Zm-9.643 10h-1.25v2.556l2.017-1.57-.767-.986Zm9.643-7.5V7.5h-.429l-.339.263.768.987Zm10.357 0V10h1.25V8.75H860Zm0-2.5h1.25V5H860v1.25ZM839.233-.263l9.642 7.5 1.535-1.974-9.643-7.5-1.534 1.974Zm2.017 16.513v-17.5h-2.5v17.5h2.5Zm7.625-8.487-9.642 7.5 1.534 1.974 9.643-7.5-1.535-1.974ZM860 7.5h-10.357V10H860V7.5Zm-1.25-1.25v2.5h2.5v-2.5h-2.5Zm-9.107 1.25H860V5h-10.357v2.5Z" mask="url(#O)"/><path fill="#272727" stroke="#FECA00" stroke-width="1.25" d="m840.375 3.25-1-.75v10l1-.75 5-3.75.667-.5-.667-.5-5-3.75Z"/></g></g><g clip-path="url(#P)"><mask id="Q" width="20" height="15" x="900" y="0" maskUnits="userSpaceOnUse" style="mask-type:luminance"><path fill="#fff" d="M900 0h20v15h-20z"/></mask><g mask="url(#Q)"><path fill="#F7FCFF" fill-rule="evenodd" d="M900 0h20v15h-20V0Z" clip-rule="evenodd"/><path fill="#5EAA22" fill-rule="evenodd" d="M900 0v15h20V0h-20Z" clip-rule="evenodd"/><mask id="R" width="20" height="15" x="900" y="0" maskUnits="userSpaceOnUse" style="mask-type:luminance"><path fill="#fff" fill-rule="evenodd" d="M900 0v15h20V0h-20Z" clip-rule="evenodd"/></mask><g mask="url(#R)"><path fill="#FF8126" d="M916.25 6.25H920V15h-3.75z"/><path fill="#272727" d="M912.5 6.25h3.75V15h-3.75z"/><path fill="#C51918" d="M908.75 6.25h3.75V15h-3.75z"/><path fill="#FF8126" fill-rule="evenodd" d="M913.51 1.948c.338.124 0 .315 0 .315s-.067-.078-.067-.143c0-.064-.259 0-.393.236-.127.223.107.222.352.221h.041c.138 0 .355-.013.557-.026.175-.011.339-.022.43-.022.196 0 .289 0 .547-.173.168-.113.724-.252 1.136-.355.223-.055.404-.1.461-.125.163-.073-.163.31-.163.31s1.257-.508 1.509-.681c.156-.107.085-.016-.03.133a3.759 3.759 0 0 0-.222.31c-.106.176.111.008.351-.178.129-.1.265-.205.361-.265.277-.173-.07.296-.223.443-.153.147.359 0 .536-.147.13-.107.011.081-.089.24-.036.057-.07.11-.088.144l-.003.006c-.069.125-.091.165.073.165.167 0-.429.463-.429.463s.178-.028 0 .28c-.104.182-.614.365-1.028.515-.288.103-.529.19-.555.249-.047.104-.511.224-.727.28-.077.02-.123.033-.107.033.061 0 .163.077.053.077-.111 0-.304.062-.304.062s.102 0 0 .145c-.049.07-.134.059-.194.051-.066-.008-.101-.013-.025.094.068.097.092.132.085.142-.009.012-.06-.009-.139-.009-.07 0-.145-.03-.224-.061-.087-.035-.178-.072-.273-.072-.173 0 0 .123.109.2l.013.009c.097.069.057.068-.119.068h-.057a.86.86 0 0 1-.199-.019c-.033-.006-.036-.007-.036.019 0 .024-.082-.01-.18-.051-.103-.043-.223-.093-.288-.093-.129 0 .272.266.272.266s-.208-.068-.322-.122c-.064-.031.018.115.092.247.056.1.107.192.086.192a.337.337 0 0 1-.089-.036c-.08-.038-.181-.087-.181-.022 0 .096.092.168.206.168.113 0 .131.15.064.15-.023 0-.051-.01-.079-.019-.051-.018-.099-.035-.099.02 0 .034.02.06.044.09.032.042.07.092.07.182 0 .156-.169.178-.114.075.056-.104-.191-.353-.191-.231v.156c0 .11-.022.118-.055.129a.133.133 0 0 0-.073.05.207.207 0 0 0-.05.098c-.003.016-.004.02-.033.02-.024 0-.043-.035-.069-.081-.04-.071-.095-.17-.204-.216-.104-.043-.109-.012-.119.042-.007.04-.016.092-.068.136-.079.067-.057.094-.031.127.015.018.031.039.031.069 0 .083-.138-.083-.138-.196 0-.112-.157-.26-.157-.178 0 .083 0 .178-.08.178-.039 0-.04.028-.042.065-.003.04-.005.091-.056.13-.05.04-.048.019-.046-.027.002-.043.006-.11-.033-.168-.049-.073-.008-.185.013-.243.013-.036.018-.05-.013-.018-.078.083-.178.083-.246.083h-.002c-.034 0-.064.043-.085.074-.021.03-.033.049-.033.001 0-.096.1-.347.288-.347a.397.397 0 0 0 .28-.11c.019-.015.037-.03.055-.041.081-.051 0-.119-.08-.168-.037-.022-.024-.095.002-.16.045-.028.078-.064.078-.1 0-.044-.048.023-.078.1a.392.392 0 0 1-.179.064c-.043 0-.016-.078.018-.175a.892.892 0 0 0 .061-.254c0-.07.012-.133.02-.176.011-.055.015-.079-.02-.05-.043.038-.276-.003-.435-.03a1.405 1.405 0 0 0-.143-.022c-.03 0-.006-.056.018-.111.03-.07.06-.14-.018-.096-.122.067-.369.064-.526.063h-.061c-.092 0-.029-.082.005-.125.019-.025.029-.037-.005-.015a.51.51 0 0 1-.291.077c-.048 0-.061-.028-.076-.059-.018-.037-.038-.079-.124-.078-.155.001-.19-.001-.275-.069-.045-.035-.02-.056-.006-.067.014-.011.017-.014-.051-.014h-.421c-.21 0 .001-.164.076-.164.076 0 .164-.147 0-.08-.104.041-.216.03-.349.016a2.247 2.247 0 0 0-.244-.017c-.249 0-.297-.115-.15-.115s.156-.084-.073-.084c-.144 0-.262-.04-.35-.068a.433.433 0 0 0-.124-.031c-.08 0-.168-.114 0-.114.169 0 .384-.094.2-.094-.104 0-.277-.056-.428-.104a1.321 1.321 0 0 0-.266-.07c-.037 0 .02-.012.096-.028.152-.033.378-.081.089-.081-.308 0-.632-.252-.855-.425-.091-.07-.165-.129-.215-.151-.173-.08 0-.236.05-.17.05.064.399.164.248.077a.91.91 0 0 1-.298-.315c-.05-.08-.011-.135.05-.072.061.063.345.244.345.244s-.152-.172-.272-.442c-.12-.27.12-.204.326 0 .206.204.4.258.497.27.097.012-.097-.147-.284-.27-.187-.123-.144-.563 0-.387.075.091.431.265.779.436.321.157.635.31.717.393.141.143.027-.07-.095-.3l-.075-.142c-.081-.157.246.021.619.224.268.146.56.305.739.36.124.04.271.1.419.162.363.15.726.301.726.106 0-.276.333-.706.689-.852.227-.092.333-.009.467.096.078.06.164.129.288.174Zm-.384 3.23c.08 0 .058-.836.058-.836s.238.513.238.735c0 .1-.007.13-.005.16.003.035.019.069.076.22.059.155.02.138-.086.092a.915.915 0 0 0-.37-.092c-.35 0 .008-.279.089-.279Z" clip-rule="evenodd"/></g></g></g><g clip-path="url(#S)"><mask id="T" width="20" height="15" x="960" y="0" maskUnits="userSpaceOnUse" style="mask-type:luminance"><path fill="#fff" d="M960 0h20v15h-20z"/></mask><g mask="url(#T)"><path fill="#F7FCFF" fill-rule="evenodd" d="M960 0v15h20V0h-20Z" clip-rule="evenodd"/><mask id="U" width="20" height="15" x="960" y="0" maskUnits="userSpaceOnUse" style="mask-type:luminance"><path fill="#fff" fill-rule="evenodd" d="M960 0v15h20V0h-20Z" clip-rule="evenodd"/></mask><g mask="url(#U)"><path fill="#FECA00" fill-rule="evenodd" d="M960 1.25v12.5h20V1.25h-20Z" clip-rule="evenodd"/><path fill="#272727" stroke="#E31D1C" stroke-width="2.188" d="M960 5.156h-1.094v4.688h22.188V5.156H960Z"/><path fill="#5EAA22" fill-rule="evenodd" d="M960 2.5V0h20v2.5h-20Zm0 12.5v-2.5h20V15h-20Z" clip-rule="evenodd"/></g><path fill="#F7FCFF" stroke="#272727" stroke-width="1.25" d="m960.373-.501-.998-.743v17.47l.992-.72L970.574 8.1l.689-.5-.683-.507-10.207-7.595Z"/><mask id="V" width="15" height="21" x="958" y="-3" maskUnits="userSpaceOnUse" style="mask-type:luminance"><path fill="#fff" stroke="#fff" stroke-width="1.25" d="m960.373-.501-.998-.743v17.47l.992-.72L970.574 8.1l.689-.5-.683-.507-10.207-7.595Z"/></mask><g fill-rule="evenodd" clip-rule="evenodd" mask="url(#V)"><path fill="#E31D1C" d="m964.674 8.924-2.362 1.906 1.083-2.547-1.861-1.793h2.197l.902-2.162.957 2.162h2.194l-1.96 1.793.981 2.547-2.131-1.906Z"/><path fill="#FECA00" d="M963.136 5.263s-.034-.082.168-.155.264-.228.423-.114c.158.114.258-.115.303.213.046.329.171.847.171.847l2.055 1.544h-.386s-.601.884-.502 1.658c0 0-.415-.063-.977-.063s-.93.135-.93.135l-.325-1.202s.117-.202.168-.365c.05-.163.26-.193.26-.322 0-.13-.207-.238-.103-.574.103-.335.103-1.338.103-1.338s-.326-.143-.26-.143.218-.12.109-.12h-.277Z"/></g></g></g><g clip-path="url(#W)"><mask id="X" width="20" height="15" x="1020" y="0" maskUnits="userSpaceOnUse" style="mask-type:luminance"><path fill="#fff" d="M1020 0h20v15h-20z"/></mask><g mask="url(#X)"><path fill="#F7FCFF" fill-rule="evenodd" d="M1020 0h20v15h-20V0Z" clip-rule="evenodd"/><path fill="#C51918" fill-rule="evenodd" d="M1020 0v5h20V0h-20Z" clip-rule="evenodd"/><path fill="#5EAA22" fill-rule="evenodd" d="M1020 10v5h20v-5h-20Z" clip-rule="evenodd"/><path fill="#272727" fill-rule="evenodd" d="m1020-1.25 10.42 8.75-10.42 8.75v-17.5Z" clip-rule="evenodd"/><mask id="Y" width="24" height="25" x="1018" y="-5.097" fill="#000" maskUnits="userSpaceOnUse"><path fill="#fff" d="M1018-5.097h24v25h-24z"/><path fill-rule="evenodd" d="m1020-2.097 10.88 8.347h9.12v2.5h-9.27L1020 16.757v-2.795l8.75-6.462L1020 .959v-3.056Z" clip-rule="evenodd"/></mask><path fill="#FFD018" fill-rule="evenodd" d="m1020-2.097 10.88 8.347h9.12v2.5h-9.27L1020 16.757v-2.795l8.75-6.462L1020 .959v-3.056Z" clip-rule="evenodd"/><path fill="#272727" d="m1030.88 6.25-.76.992.34.258h.42V6.25ZM1020-2.097l.76-.992-2.01-1.542v2.534h1.25Zm20 8.347h1.25V5H1040v1.25Zm0 2.5V10h1.25V8.75H1040Zm-9.27 0V7.5h-.41l-.34.248.75 1.002ZM1020 16.757h-1.25v2.492l2-1.49-.75-1.002Zm0-2.795-.74-1.005-.51.375v.63h1.25Zm8.75-6.462.74 1.005 1.36-.999-1.35-1.007-.75 1ZM1020 .959h-1.25v.626l.5.375.75-1.001Zm11.64 4.3-10.88-8.348-1.52 1.984 10.88 8.347 1.52-1.984Zm8.36-.26h-9.12v2.5h9.12V5Zm1.25 3.75v-2.5h-2.5v2.5h2.5ZM1030.73 10h9.27V7.5h-9.27V10Zm-9.98 7.76 10.73-8.007-1.5-2.004-10.73 8.007 1.5 2.004Zm-2-3.796v2.794h2.5v-2.795h-2.5Zm9.26-7.469-8.75 6.463 1.48 2.011 8.75-6.463-1.48-2.01Zm-8.76-4.534 8.75 6.541 1.5-2.002-8.75-6.541-1.5 2.002Zm-.5-4.057V.96h2.5v-3.056h-2.5Z" mask="url(#Y)"/><path fill="#FFD018" d="M1023.05 10.48v-.988c.88-.194 1.46-.447 1.74-.75.7-.862.24-2.88-1.2-2.866-.71 0-1.44.339-1.44 1.136 0 .991.2 1.415.9 1.415.69 0 .94.037 1.4-.585l.5.153c-.49.667-1.15 1.193-1.9 1.193-1.24 0-1.92-.933-1.92-2.013 0-1.334 1.09-2.267 2.39-2.267.97 0 2.51 1.192 2.51 2.267 0 1.074 0 1.567-.84 2.317-.34.303-1.18.842-2.14.988Z"/><path fill="#FFD018" fill-rule="evenodd" d="M1023.12 6.175c-.05-.013-.1.016-.11.063l-.03.13c-.01-.003-.01-.005-.01-.007a.083.083 0 0 0-.12-.016.09.09 0 0 0-.02.125l.06.08-.1.095a.09.09 0 0 0-.01.126c.04.036.09.038.13.005l.09-.084c.05.07.11.14.16.205l-.17.092c-.05.023-.06.077-.04.12.02.044.08.06.12.037l.2-.105c.04.063.09.122.13.179l-.24.126c-.04.023-.06.077-.03.12.02.044.07.06.12.037l.26-.138c.06.094.12.177.17.25l-.16.088c-.04.023-.06.077-.04.12a.1.1 0 0 0 .13.037l.18-.097c.07.112.11.18.11.198 0 .049.04.089.09.089.05 0 .09-.04.09-.09 0-.045-.05-.14-.15-.292.01-.002.01-.005.01-.008l.13-.29a.092.092 0 0 0-.04-.119c-.05-.02-.1 0-.12.045l-.09.198c-.06-.08-.12-.173-.2-.276l.09-.206a.092.092 0 0 0-.04-.118c-.05-.02-.1 0-.12.045l-.05.115a4.713 4.713 0 0 1-.09-.12l.13-.279a.088.088 0 0 0-.05-.118c-.04-.02-.1 0-.12.044l-.08.19a6.274 6.274 0 0 1-.18-.225l.07-.262c.02-.048-.01-.097-.06-.11Z" clip-rule="evenodd"/><path fill="#FFD018" fill-rule="evenodd" d="M1023.72 6.175c.05-.013.1.016.11.063l.03.13c0-.003.01-.005.01-.007a.083.083 0 0 1 .12-.016c.04.03.05.086.02.125l-.06.08.1.095c.04.033.04.09.01.126-.04.036-.09.038-.13.005l-.09-.084c-.05.07-.11.14-.16.205l.17.092c.05.023.06.077.04.12-.02.044-.08.06-.12.037l-.2-.105c-.04.063-.09.122-.13.179l.24.126c.04.023.06.077.03.12-.02.044-.08.06-.12.037l-.26-.138c-.06.094-.12.177-.18.25l.17.088c.04.023.06.077.04.12a.1.1 0 0 1-.13.037l-.18-.097a.965.965 0 0 0-.11.198.09.09 0 0 1-.09.089.09.09 0 0 1-.09-.09c0-.045.05-.14.14-.292V7.66l-.13-.29a.092.092 0 0 1 .04-.119c.05-.02.1 0 .12.045l.09.198c.06-.08.12-.173.2-.276l-.09-.206a.092.092 0 0 1 .04-.118c.05-.02.1 0 .12.045l.05.115.09-.12-.13-.279a.088.088 0 0 1 .05-.118c.04-.02.1 0 .12.044l.08.19c.06-.07.12-.146.18-.225l-.07-.262c-.02-.048.01-.097.06-.11Z" clip-rule="evenodd"/></g></g></g><defs><clipPath id="a"><rect width="1040" height="15" fill="#fff" rx="2"/></clipPath><clipPath id="b"><rect width="20" height="15" fill="#fff" rx="2"/></clipPath><clipPath id="d"><rect width="20" height="15" x="60" fill="#fff" rx="2"/></clipPath><clipPath id="f"><rect width="20" height="15" x="120" fill="#fff" rx="2"/></clipPath><clipPath id="i"><rect width="20" height="15" x="180" fill="#fff" rx="2"/></clipPath><clipPath id="k"><rect width="20" height="15" x="240" fill="#fff" rx="2"/></clipPath><clipPath id="m"><rect width="20" height="15" x="300" fill="#fff" rx="2"/></clipPath><clipPath id="o"><rect width="20" height="15" x="360" fill="#fff" rx="2"/></clipPath><clipPath id="r"><rect width="20" height="15" x="420" fill="#fff" rx="2"/></clipPath><clipPath id="w"><rect width="20" height="15" x="480" fill="#fff" rx="2"/></clipPath><clipPath id="A"><rect width="20" height="15" x="540" fill="#fff" rx="2"/></clipPath><clipPath id="D"><rect width="20" height="15" x="600" fill="#fff" rx="2"/></clipPath><clipPath id="F"><rect width="20" height="15" x="660" fill="#fff" rx="2"/></clipPath><clipPath id="I"><rect width="20" height="15" x="720" fill="#fff" rx="2"/></clipPath><clipPath id="L"><rect width="20" height="15" x="780" fill="#fff" rx="2"/></clipPath><clipPath id="M"><rect width="20" height="15" x="840" fill="#fff" rx="2"/></clipPath><clipPath id="P"><rect width="20" height="15" x="900" fill="#fff" rx="2"/></clipPath><clipPath id="S"><rect width="20" height="15" x="960" fill="#fff" rx="2"/></clipPath><clipPath id="W"><rect width="20" height="15" x="1020" fill="#fff" rx="2"/></clipPath></defs></svg>