<svg viewBox="0 0 20 15" fill="none" xmlns="http://www.w3.org/2000/svg"><path d="M0 0v15h20V0H0Z" fill="#f7fcff"/><path fill="#2e42a5" d="M0 2.5h20v1.25H0zM0 5h20v1.25H0zm0 2.5h20v1.25H0zM0 10h20v1.25H0zm0 2.5h20v1.25H0z"/><path fill="#f7fcff" d="M0 0h10v8.75H0z"/><path d="M5.77 6.9s-.64 1.32-1.2 1.6c.24-.61.33-1.85.33-1.85s-1.46.58-1.97.47c.61-.43 1.47-1.23 1.47-1.23s-1.89-.61-1.84-.88c.85.16 2.02 0 2.02 0S3.26 3.4 3.4 3.3c.2.2 1.79 1.02 1.79 1.02s.11-1.41.46-1.89c.04.34.52 1.86.52 1.86s.96-.96 1.5-.96c-.24.29-.8 1.57-.8 1.57s1.39-.03 1.92.23c-.64.1-1.76.66-1.76.66s1.46 1.1 1.32 1.33c-.78-.38-1.68-.51-1.68-.51s.25 1.54.04 1.88c-.2-.5-.93-1.6-.93-1.6Z" fill="#ffd018" stroke="#f19900" stroke-opacity=".98" stroke-width=".5"/><path d="M5.68 6.18a.62.62 0 1 0 0-1.25.62.62 0 0 0 0 1.25Z" fill="#ffd018" stroke="#f19900" stroke-opacity=".98" stroke-width=".5"/></svg>