<svg xmlns="http://www.w3.org/2000/svg" width="20" height="15" fill="transparent" viewBox="0 0 20 15"><g clip-path="url(#a)"><mask id="b" width="20" height="15" x="0" y="0" maskUnits="userSpaceOnUse" style="mask-type:luminance"><path fill="#fff" d="M0 0h20v15H0z"/></mask><g mask="url(#b)"><path fill="#14DC5A" fill-rule="evenodd" d="M0 10h20v5H0v-5Z" clip-rule="evenodd"/><path fill="#0099B5" fill-rule="evenodd" d="M0 0h20v6.25H0V0Z" clip-rule="evenodd"/><path fill="#F7FCFF" stroke="#C51918" stroke-width=".938" d="M-1.25 5.781h-.469v4.689H21.72V5.78H-1.25Z"/><path fill="#F7FCFF" fill-rule="evenodd" d="m10.455 1.5-.615.35.176-.71-.589-.52h.769l.258-.67.302.67h.655l-.515.52.248.71-.69-.35ZM7.306 3.423l.614-.348.69.348-.248-.708.514-.52h-.655l-.302-.67-.258.67h-.768l.588.52-.175.708ZM5.61 4.721l-.614.348.176-.708-.589-.52h.769l.257-.67.303.67h.655l-.515.52.247.708-.689-.348Zm2.346.003-.615.348.176-.708-.589-.52h.769l.258-.67.302.67h.655l-.515.52.248.708-.69-.348Zm2.5 0-.615.348.176-.708-.589-.52h.769l.258-.67.302.67h.655l-.515.52.248.708-.69-.348Zm-.65-1.302.614-.348.69.348-.248-.708.514-.52h-.655l-.302-.67-.258.67h-.768l.588.52-.175.708Zm2.535 1.65.615-.348.689.348-.248-.708.515-.52h-.655l-.302-.67-.258.67h-.769l.589.52-.176.708Zm.58-1.998-.615.348.175-.708-.588-.52h.768l.258-.67.302.67h.655l-.514.52.247.708-.689-.348Zm-.58-1.225.614-.348.689.348-.248-.708.515-.52h-.655l-.302-.67-.258.67h-.768l.588.52-.176.708Zm3.115 2.875-.615.348.176-.708-.589-.52h.769l.258-.67.302.67h.655l-.515.52.248.708-.69-.348Zm-.65-1.302.614-.348.69.348-.248-.708.514-.52h-.655l-.302-.67-.258.67h-.768l.588.52-.175.708Zm.649-1.921-.615.348.176-.708-.588-.52h.768l.258-.67.302.67h.655l-.515.52.248.708-.69-.348ZM3.678 5.15s-1.51-.41-1.481-1.925C2.225 1.712 3.75 1.318 3.75 1.318c-.623-.236-2.466.081-2.5 1.893-.034 1.812 1.847 2.169 2.428 1.94Z" clip-rule="evenodd"/></g></g><defs><clipPath id="a"><rect width="20" height="15" fill="#fff" rx="2"/></clipPath></defs></svg>