<svg viewBox="0 0 20 15" fill="none" xmlns="http://www.w3.org/2000/svg"><path d="M0 10h20v5H0v-5Z" fill="#14DC5A"/><path d="M0 0h20v6.25H0V0Z" fill="#0099B5"/><path d="M-1.25 5.78h-.47v4.69h23.44V5.78H-1.25Z" fill="#f7fcff" stroke="#c51918" stroke-width=".94"/><path d="m10.45 1.5-.61.35.18-.7-.6-.53h.78l.25-.67.3.67h.66l-.51.52.24.7-.69-.34ZM7.31 3.42l.61-.35.69.35-.25-.7.52-.53h-.66l-.3-.67-.26.67H6.9l.6.52-.18.71Zm-1.7 1.3L5 5.07l.17-.7-.59-.53h.77l.26-.67.3.67h.66l-.52.52.25.7-.69-.34Zm2.35 0-.62.35.18-.7-.6-.53h.78l.25-.67.3.67h.66l-.51.52.24.71-.68-.35Zm2.5 0-.62.35.18-.7-.6-.53h.78l.25-.67.3.67h.66l-.51.52.24.71-.68-.35Zm-.65-1.3.61-.35.69.35-.25-.7.52-.53h-.66l-.3-.67-.26.67H9.4l.6.52-.18.71Zm2.53 1.65.62-.35.68.35-.24-.7.51-.53h-.65l-.3-.67-.26.67h-.77l.59.52-.18.71Zm.58-2-.61.35.17-.7-.59-.53h.77l.26-.67.3.67h.66l-.52.52.25.71-.69-.35Zm-.58-1.22.61-.35.7.35-.25-.7.51-.53h-.65l-.3-.67-.26.67h-.77l.59.52-.18.7Zm3.12 2.87-.62.35.18-.7-.6-.53h.78l.25-.67.3.67h.66l-.51.52.24.71-.68-.35Zm-.65-1.3.61-.35.69.35-.25-.7.52-.53h-.66l-.3-.67-.26.67h-.77l.6.52-.18.71Zm.64-1.92-.61.35.18-.7-.6-.53h.78l.25-.67.3.67h.66l-.51.52.24.7-.69-.34ZM3.68 5.15s-1.51-.4-1.48-1.92c.03-1.52 1.55-1.91 1.55-1.91-.62-.24-2.47.08-2.5 1.9-.03 1.8 1.85 2.16 2.43 1.93Z" fill="#f7fcff"/></svg>