<svg viewBox="0 0 20 15" fill="none" xmlns="http://www.w3.org/2000/svg"><path d="M0 0h20v15H0V0Z" fill="#f7fcff"/><path d="M0 0h8.75v15H0V0Z" fill="#ffdc17"/><path d="m14.24 7.97-.22.01c.05.74.21 1.32.48 1.72.44.65 1.01 1.16 1.4 1.16.09 0 .1.03.08.1-.04.12-.17.23-.34.28-.28.07-.9.1-1.88.1v.22c1 0 1.63-.04 1.94-.12a.7.7 0 0 0 .48-.4c.08-.21-.04-.4-.28-.4-.29 0-.82-.46-1.21-1.05-.25-.37-.4-.91-.45-1.62Zm-1.02 0 .21.01a3.53 3.53 0 0 1-.48 1.72c-.43.65-1 1.16-1.4 1.16-.08 0-.1.03-.07.1.04.12.17.23.33.28.28.07.91.1 1.89.1v.22c-1 0-1.64-.04-1.94-.12a.7.7 0 0 1-.49-.4c-.07-.21.04-.4.29-.4.28 0 .81-.46 1.21-1.05.25-.37.4-.91.45-1.62Z" fill="#af0100"/><path d="M17.54 4.25 11.83 8.7c-.2-.06-.42-.1-.65-.1-.92 0-1.7.6-1.7 1.36 0 .77.78 1.36 1.7 1.36.1 0 .21 0 .31-.02a.6.6 0 0 1-.2-.26c-.04-.12-.02-.23.05-.3h-.16c-.62 0-1.1-.36-1.1-.78 0-.41.48-.78 1.1-.78.63 0 1.11.37 1.11.78a.6.6 0 0 1-.13.36l.05-.04c.2-.18-.25.58-.63.58-.09 0-.1.03-.08.1.04.12.15.22.3.27.63-.2 1.09-.68 1.09-1.27 0-.24-.08-.46-.21-.65l3.07-2.61.2.21.15-.13.51.38-.21.16.44.54.88-.68.02-.01.05-.05-.44-.53-.21.16-.58-.4.07-.05-.18-.2.27-.23.15.15.16-.14.5.4-.21.15.44.54.75-.59.09-.04-.01-.01.12-.1-.44-.53-.25.2-.54-.43.07-.06-.13-.13.57-.48-.45-.55Z" fill="#f4b300"/><path d="M9.8 9.2c.17 0 .3-.1.3-.23s-.13-.24-.3-.24c-.16 0-.3.1-.3.24 0 .13.14.23.3.23Zm.11 2.15c.17 0 .3-.1.3-.24 0-.13-.13-.23-.3-.23-.16 0-.3.1-.3.23s.14.24.3.24Zm2.95-.24c0 .13-.13.24-.3.24-.16 0-.3-.1-.3-.24 0-.13.14-.23.3-.23.16 0 .3.1.3.23Zm1.75-1.15c0-.34.16-.65.42-.89l-3.28-2.54-.04.03.1.09-.26.26-.14-.12-.5.39.2.14-.45.54-.87-.68-.03-.01-.05-.05.44-.53.21.16.58-.4-.07-.05.25-.26-.3-.22-.2.2-.14-.13-.5.4.2.14-.44.54-.73-.57-.1-.06v-.01l-.12-.1.44-.53.25.2.54-.43-.07-.06.15-.16-.59-.45.37-.45 5.68 4.4c.23-.1.49-.15.76-.15.92 0 1.7.6 1.7 1.36 0 .77-.78 1.36-1.7 1.36-.1 0-.21 0-.31-.02a.6.6 0 0 0 .2-.26c.04-.12.02-.23-.05-.3h.16c.62 0 1.1-.36 1.1-.78 0-.41-.48-.78-1.1-.78-.63 0-1.11.37-1.11.78 0 .13.04.25.13.36a2.46 2.46 0 0 1-.05-.04c-.2-.18.25.58.63.58.09 0 .1.03.08.1-.04.12-.15.22-.3.27-.63-.2-1.09-.68-1.09-1.27Z" fill="#bfbfbf"/><path d="M17.7 9.2c-.17 0-.3-.1-.3-.23s.13-.24.3-.24c.16 0 .3.1.3.24 0 .13-.14.23-.3.23Zm-.11 2.15c-.17 0-.3-.1-.3-.24 0-.13.13-.23.3-.23.16 0 .3.1.3.23s-.14.24-.3.24Zm-2.95-.24c0 .13.13.24.3.24.16 0 .3-.1.3-.24 0-.13-.14-.23-.3-.23-.16 0-.3.1-.3.23Z" fill="#f4b300"/><path d="M13.59 7.37a.08.08 0 0 0-.08.08v.34h-.3a.08.08 0 0 0 0 .16h.3v4.47c0 .04.03.08.08.08h.16c.04 0 .08-.04.08-.08V7.95h.46a.08.08 0 1 0 0-.16h-.46v-.34a.08.08 0 0 0-.08-.08h-.16Z" fill="#af0100"/><path d="m10.47 4.75.13.09c.31-.42.59-.5.87-.29.49.38.53 1.31.01 1.63-.62.37-.94 1.1-.66 1.49.25.36.87.22 1.47-.23l.3-.26-.12-.1-.28.23c-.54.41-1.06.53-1.24.27-.21-.3.06-.94.62-1.27.62-.37.57-1.44 0-1.88-.36-.29-.74-.17-1.1.32Zm2.38 1.9.13.1c.23-.32.39-.65.44-.98l-.16-.02c-.05.3-.2.61-.4.9Zm4.19-1.9-.13.09c-.3-.42-.58-.5-.87-.29-.48.38-.53 1.31 0 1.63.62.37.93 1.1.66 1.49-.26.36-.87.22-1.48-.23l-.3-.26.12-.1.28.23c.54.41 1.06.53 1.24.27.22-.3-.06-.94-.61-1.27-.62-.37-.58-1.44 0-1.88.36-.29.74-.17 1.1.32Zm-2.38 1.9-.13.1a2.27 2.27 0 0 1-.44-.98l.16-.02c.05.3.2.61.41.9Z" fill="#979797"/><path d="M13.67 12.51c.18 0 .32-.07.32-.16 0-.1-.14-.16-.32-.16s-.33.07-.33.16.15.16.33.16Zm-.06-6.75c.63 0 1.14-.08 1.14-.19 0-.1-.5-.19-1.14-.19-.62 0-1.13.09-1.13.2 0 .1.5.18 1.13.18Z" fill="#af0100"/><path d="M13.68 1.27h-.16v.2h-.16v.15h.16v.46h.16v-.46h.19v-.16h-.2v-.19Zm-1.22 2.27-.07-.13.12-.04-.21-.47.15-.06.21.48.14-.04a.22.22 0 0 1-.05-.15c0-.11.08-.2.19-.2.1 0 .19.09.19.2 0 .04 0 .07-.02.1l.4-.04v-.17h-.2v-.13h.2v-.15h.22v.15h.24v.13h-.24v.17c.16 0 .3.02.44.04a.23.23 0 0 1-.01-.1c0-.11.08-.2.18-.2.1 0 .2.09.2.2 0 .06-.03.12-.06.15l.17.06.16-.34.14.06-.15.34.04.02-.09.11-.03.05-.15-.06.02-.05a2.72 2.72 0 0 0-.86-.14v.05h-.22v-.05c-.4.01-.75.08-1.05.2Zm-.07.14.03.06-.12.05.2.47a2.4 2.4 0 0 0-.11.04l.07.12c.3-.12.65-.19 1.05-.2v.05h.22v-.05c.34 0 .63.05.86.13l-.02.06.15.06.02-.05h.01l.09-.11-.04-.02.15-.34-.14-.06-.16.34a2.1 2.1 0 0 0-.17-.06c.03-.03.05-.09.05-.15 0-.11-.08-.2-.19-.2-.1 0-.18.09-.18.2l.01.1a3.7 3.7 0 0 0-.44-.04v-.17h.24v-.13h-.24v-.15h-.22v.15h-.2v.13h.2v.17c-.14 0-.27.02-.4.03a.23.23 0 0 0 .02-.09.2.2 0 0 0-.2-.2c-.1 0-.18.09-.18.2 0 .06.02.11.05.15l-.14.04-.19-.42c.33-.13.72-.2 1.18-.2.46 0 .82.07 1.1.2l.09-.11c-.31-.15-.7-.23-1.2-.23-.48 0-.9.08-1.25.23Zm0 .88.03.07-.12.05.2.47a2.4 2.4 0 0 0-.11.04l.07.12c.3-.12.65-.19 1.05-.2v.05h.22v-.05c.34 0 .63.05.86.13l-.02.06.15.06.02-.05h.01l.09-.12-.04-.01.15-.34-.14-.06-.16.34a2.1 2.1 0 0 0-.17-.06c.03-.03.05-.09.05-.15 0-.11-.08-.2-.19-.2-.1 0-.18.09-.18.2l.01.1a3.7 3.7 0 0 0-.44-.04V4.8h.24v-.12h-.24v-.15h-.22v.15h-.2v.12h.2v.18c-.14 0-.27.02-.4.03a.23.23 0 0 0 .02-.09.2.2 0 0 0-.2-.2c-.1 0-.18.09-.18.2 0 .06.02.11.05.15l-.14.04-.19-.42c.33-.13.72-.2 1.18-.2.46 0 .82.07 1.1.2l.09-.11c-.31-.15-.7-.23-1.2-.23-.48 0-.9.08-1.25.22Zm0 .9.07.12c.33-.14.72-.21 1.19-.21.46 0 .82.07 1.1.2l.09-.11c-.31-.15-.7-.23-1.2-.23-.48 0-.9.08-1.25.22Z" fill="#f4b300"/></svg>
