<svg xmlns="http://www.w3.org/2000/svg" width="20" height="15" fill="transparent" viewBox="0 0 20 15"><g clip-path="url(#a)"><mask id="b" width="20" height="15" x="0" y="0" maskUnits="userSpaceOnUse" style="mask-type:luminance"><path fill="#fff" d="M0 0h20v15H0z"/></mask><g mask="url(#b)"><path fill="#F7FCFF" fill-rule="evenodd" d="M0 0h20v15H0V0Z" clip-rule="evenodd"/><path fill="#FFDC17" fill-rule="evenodd" d="M0 0h8.75v15H0V0Z" clip-rule="evenodd"/><path fill="#AF0100" d="m14.239 7.97-.216.014c.051.74.21 1.313.48 1.717.436.652 1.011 1.155 1.396 1.155.088 0 .108.033.08.113-.042.114-.171.226-.338.269-.278.072-.908.109-1.882.109v.209c.993 0 1.635-.038 1.937-.116.235-.06.421-.221.486-.402.076-.21-.038-.39-.283-.39-.285 0-.816-.465-1.214-1.06-.247-.37-.397-.91-.447-1.619Zm-1.022 0 .216.014c-.052.74-.211 1.313-.481 1.717-.436.652-1.011 1.155-1.396 1.155-.087 0-.108.033-.079.113.041.114.17.226.338.269.277.072.908.109 1.881.109v.209c-.993 0-1.635-.038-1.937-.116-.235-.06-.42-.221-.486-.402-.075-.21.038-.39.283-.39.286 0 .816-.465 1.214-1.06.248-.37.398-.91.447-1.619Z"/><path fill="#F4B300" fill-rule="evenodd" d="m17.541 4.249-5.713 4.454a2.062 2.062 0 0 0-.646-.101c-.927 0-1.703.592-1.703 1.36 0 .768.776 1.36 1.703 1.36.107 0 .21-.007.312-.022a.598.598 0 0 1-.199-.262c-.042-.117-.025-.226.041-.299a1.54 1.54 0 0 1-.154.008c-.625 0-1.108-.368-1.108-.785 0-.416.483-.785 1.108-.785.626 0 1.108.369 1.108.785a.61.61 0 0 1-.125.36l.045-.042c.198-.184-.247.576-.632.576-.087 0-.107.033-.079.113.039.107.155.212.307.26.626-.196 1.079-.68 1.079-1.267 0-.24-.076-.463-.208-.656l3.07-2.606.206.213.148-.135.513.38-.215.166.438.532.883-.68.015-.009-.002-.001.054-.043-.438-.532-.211.164-.574-.397.068-.06-.185-.192.277-.235.148.152.158-.143.497.393-.209.161.438.533.756-.584.087-.047-.012-.01.12-.092-.439-.532-.247.19-.544-.417.073-.067-.126-.13.566-.48-.448-.55Z" clip-rule="evenodd"/><path fill="#BFBFBF" fill-rule="evenodd" d="M9.804 9.203c.164 0 .297-.105.297-.235s-.133-.236-.297-.236c-.164 0-.297.106-.297.236s.133.235.297.235Zm.108 2.146c.164 0 .297-.106.297-.236s-.133-.235-.297-.235c-.164 0-.297.105-.297.235s.133.236.297.236Zm2.946-.236c0 .13-.133.236-.297.236-.165 0-.298-.106-.298-.236s.133-.235.298-.235c.164 0 .297.105.297.235Zm1.757-1.151c0-.345.157-.655.413-.891l-3.28-2.541-.038.029.096.086-.26.268-.135-.124-.503.387.193.148-.438.532-.874-.674-.024-.015.002-.001-.055-.043.438-.532.212.164.573-.397-.067-.06.248-.257-.289-.224-.199.206-.152-.138-.491.398.197.151-.438.533-.733-.565-.11-.066.012-.01-.12-.092.438-.532.248.19.544-.417-.074-.067.15-.155-.589-.456.372-.45 5.676 4.397c.23-.092.488-.142.76-.142.926 0 1.702.592 1.702 1.36 0 .768-.776 1.36-1.702 1.36-.107 0-.211-.007-.313-.022a.599.599 0 0 0 .2-.262c.042-.117.025-.226-.042-.299.05.005.102.008.155.008.625 0 1.108-.368 1.108-.785 0-.416-.483-.785-1.108-.785-.626 0-1.109.369-1.109.785 0 .128.046.25.126.36a2.46 2.46 0 0 1-.045-.042c-.198-.184.247.576.631.576.088 0 .108.033.08.113a.478.478 0 0 1-.307.26c-.627-.196-1.08-.68-1.08-1.267Z" clip-rule="evenodd"/><path fill="#F4B300" fill-rule="evenodd" d="M17.696 9.203c-.164 0-.297-.105-.297-.235s.133-.236.297-.236c.164 0 .297.106.297.236s-.133.235-.297.235Zm-.108 2.146c-.164 0-.297-.106-.297-.236s.133-.235.297-.235c.164 0 .297.105.297.235s-.133.236-.297.236Zm-2.946-.236c0 .13.133.236.297.236.164 0 .297-.106.297-.236s-.133-.235-.297-.235c-.164 0-.297.105-.297.235Z" clip-rule="evenodd"/><path fill="#AF0100" fill-rule="evenodd" d="M13.588 7.372a.081.081 0 0 0-.081.081v.338h-.3a.078.078 0 1 0 0 .157h.3v4.47a.08.08 0 0 0 .08.082h.163a.081.081 0 0 0 .08-.081V7.948h.463a.078.078 0 1 0 0-.157h-.462v-.338a.081.081 0 0 0-.081-.08h-.162Z" clip-rule="evenodd"/><path fill="#979797" fill-rule="evenodd" d="m10.471 4.746.133.09c.308-.42.586-.505.868-.284.487.382.53 1.312.008 1.624-.621.372-.936 1.097-.66 1.491.253.364.867.226 1.472-.23.107-.082.21-.169.306-.26l-.128-.099c-.088.082-.18.16-.278.234-.54.408-1.059.525-1.238.267-.215-.307.06-.94.611-1.27.625-.373.577-1.434.009-1.879-.367-.287-.746-.171-1.103.316Zm2.38 1.907.132.092c.23-.31.387-.646.439-.976l-.16-.024c-.049.305-.195.617-.41.908Zm4.192-1.907-.132.09c-.308-.42-.586-.505-.868-.284-.487.382-.53 1.312-.008 1.624.621.372.936 1.097.66 1.491-.254.364-.867.226-1.472-.23a3.626 3.626 0 0 1-.306-.26l.128-.099c.087.082.18.16.278.234.54.408 1.058.525 1.238.267.215-.307-.06-.94-.612-1.27-.624-.373-.576-1.434-.008-1.879.366-.287.745-.171 1.102.316Zm-2.38 1.907-.132.092c-.23-.31-.386-.646-.438-.976l.16-.024c.048.305.195.617.41.908Z" clip-rule="evenodd"/><path fill="#AF0100" fill-rule="evenodd" d="M13.669 12.51c.179 0 .324-.072.324-.162 0-.09-.145-.162-.324-.162-.18 0-.325.073-.325.162 0 .09.146.162.325.162Zm-.054-6.748c.627 0 1.135-.085 1.135-.19 0-.104-.508-.188-1.135-.188s-1.136.084-1.136.189c0 .104.509.189 1.136.189Z" clip-rule="evenodd"/><path fill="#F4B300" fill-rule="evenodd" d="M13.679 1.274h-.162v.187h-.154v.157h.154v.458h.162v-.458h.187V1.46h-.187v-.187Zm-1.22 2.261-.072-.122.121-.047-.21-.462.148-.064.217.477c.046-.014.093-.026.14-.037a.22.22 0 0 1-.053-.146c0-.116.085-.21.19-.21.104 0 .188.094.188.21a.228.228 0 0 1-.018.09c.128-.016.262-.027.402-.031v-.177h-.203v-.127h.203v-.15h.214v.15h.248v.127h-.248v.176c.16.003.31.014.448.033a.226.226 0 0 1-.019-.091c0-.116.085-.21.19-.21.104 0 .189.094.189.21a.22.22 0 0 1-.058.15c.06.016.118.034.174.054l.155-.34.149.063-.155.337.037.018-.082.117-.013-.006-.025.055-.148-.064.024-.053a2.724 2.724 0 0 0-.866-.137v.056h-.214V3.33a2.946 2.946 0 0 0-1.053.206Zm-.072.14.038.064-.128.054.211.463c-.041.015-.081.03-.121.047l.072.122a2.946 2.946 0 0 1 1.053-.206v.055h.214v-.056c.341.006.63.052.866.137l-.024.053.148.063.025-.055.013.007.082-.118a1.59 1.59 0 0 0-.037-.017l.155-.338-.149-.063-.155.34a2.106 2.106 0 0 0-.174-.053.22.22 0 0 0 .058-.15c0-.116-.085-.21-.19-.21-.104 0-.189.094-.189.21 0 .032.007.063.02.09-.14-.019-.29-.03-.449-.033v-.176h.248V3.78h-.248v-.15h-.214v.15h-.203v.126h.203v.178c-.14.004-.274.014-.402.031a.228.228 0 0 0 .018-.09c0-.116-.084-.21-.189-.21-.104 0-.19.094-.19.21a.22.22 0 0 0 .055.146 2.832 2.832 0 0 0-.141.036l-.19-.415c.328-.134.718-.202 1.173-.202.46 0 .829.07 1.108.206l.082-.118c-.307-.15-.704-.224-1.19-.224-.485 0-.905.074-1.26.222Zm0 .89.038.063-.128.055.211.462a1.79 1.79 0 0 0-.121.048l.072.121a2.946 2.946 0 0 1 1.053-.206v.055h.214v-.056c.341.006.63.052.866.137l-.024.053.148.064.025-.055.013.006.082-.117a1.59 1.59 0 0 0-.037-.018l.155-.337-.149-.064-.155.34a2.11 2.11 0 0 0-.174-.053.22.22 0 0 0 .058-.15c0-.116-.085-.21-.19-.21-.104 0-.189.094-.189.21a.21.21 0 0 0 .02.091c-.14-.02-.29-.03-.449-.033v-.176h.248v-.127h-.248v-.15h-.214v.15h-.203v.127h.203v.177c-.14.004-.274.015-.402.032a.228.228 0 0 0 .018-.091c0-.116-.084-.21-.189-.21-.104 0-.19.094-.19.21 0 .057.021.108.055.146a2.832 2.832 0 0 0-.141.037l-.19-.415c.328-.135.718-.202 1.173-.202.46 0 .829.069 1.108.205l.082-.117c-.307-.15-.704-.225-1.19-.225-.485 0-.905.074-1.26.223Zm0 .89.072.121c.33-.138.726-.208 1.187-.208.46 0 .829.07 1.108.206l.082-.118c-.307-.15-.704-.224-1.19-.224-.485 0-.905.074-1.26.222Z" clip-rule="evenodd"/></g></g><defs><clipPath id="a"><rect width="20" height="15" fill="#fff" rx="2"/></clipPath></defs></svg>