<svg xmlns="http://www.w3.org/2000/svg" width="20" height="15" fill="transparent" viewBox="0 0 20 15"><g clip-path="url(#a)"><mask id="b" width="20" height="15" x="0" y="0" maskUnits="userSpaceOnUse" style="mask-type:luminance"><path fill="#fff" d="M0 0h20v15H0z"/></mask><g fill-rule="evenodd" clip-rule="evenodd" mask="url(#b)"><path fill="#FFDC17" d="M5 0h10v15H5V0Z"/><path fill="#5FBF2B" d="M15 0h5v15h-5V0Z"/><path fill="#2E42A5" d="M0 0h5v15H0V0Z"/><path fill="#5FBF2B" d="m12.329 3.125-1.9 2.79 1.9 2.69 1.9-2.69-1.9-2.79Zm-4.656.05-2.048 2.74 1.9 2.64 1.9-2.64-1.752-2.74Zm.354 5.818 2.048-2.74 1.752 2.74-1.752 2.82-2.048-2.82Z"/></g></g><defs><clipPath id="a"><rect width="20" height="15" fill="#fff" rx="2"/></clipPath></defs></svg>