<svg viewBox="0 0 20 15" fill="none" xmlns="http://www.w3.org/2000/svg"><path d="M0 0v15h20V0H0Z" fill="#2e42a5"/><path d="M0 0v5h20V0H0Z" fill="#feca00"/><path d="M0 10v5h20v-5H0Z" fill="#e31d1c"/><path d="m7.96 7.41.61-.35.7.35-.25-.7.51-.53h-.65l-.3-.67-.26.67h-.77l.58.51h-.65l-.3-.67-.26.67h-.77l.59.53-.12.45h-.49L5.83 7l-.26.67h-.76l.58.52-.1.44h-.22l-.3-.67-.26.67h-.77l.6.52-.18.7.61-.34.69.35-.25-.71.52-.52h-.04l.14-.08.7.35-.26-.71.3-.3v.03l.6-.35.7.35-.25-.7.5-.52h.02l-.18.71Zm4.05-.03-.61-.34-.69.34.25-.7-.52-.52h.66l.3-.67.26.67h.77l-.58.5h.65l.3-.66.26.67h.77l-.59.52.11.45h.5l.3-.67.25.67h.77l-.59.52.11.44h.22l.3-.67.26.67h.77l-.6.52.18.71-.61-.35-.7.35.26-.7-.52-.53h.03l-.14-.08-.68.35.24-.7-.3-.3.02.03-.62-.35-.69.35.25-.71-.51-.52h-.01l.17.71Z" fill="#f7fcff"/><path d="m9.9 6.58-.62.35.18-.7-.6-.53h.78l.25-.67.3.67h.66l-.51.52.24.71-.68-.35Z" fill="#f7fcff"/></svg>