<svg xmlns="http://www.w3.org/2000/svg" width="20" height="15" fill="transparent" viewBox="0 0 20 15"><g clip-path="url(#a)"><mask id="b" width="20" height="15" x="0" y="0" maskUnits="userSpaceOnUse" style="mask-type:luminance"><path fill="#fff" d="M0 0h20v15H0z"/></mask><g mask="url(#b)"><path fill="#2E42A5" fill-rule="evenodd" d="M0 0v15h20V0H0Z" clip-rule="evenodd"/><mask id="c" width="20" height="15" x="0" y="0" maskUnits="userSpaceOnUse" style="mask-type:luminance"><path fill="#fff" fill-rule="evenodd" d="M0 0v15h20V0H0Z" clip-rule="evenodd"/></mask><g mask="url(#c)"><path fill="#2E42A5" d="M0 0h11v9H0z"/><mask id="d" width="11" height="9" x="0" y="0" maskUnits="userSpaceOnUse" style="mask-type:luminance"><path fill="#fff" d="M0 0h11v9H0z"/></mask><g mask="url(#d)"><path fill="#F7FCFF" d="M-1.253 8.125 1.223 9.21l10.083-8.03 1.306-1.614-2.647-.363-4.113 3.46-3.31 2.332-3.795 3.129Z"/><path fill="#F50100" d="m-.914 8.886 1.261.63L12.143-.583h-1.77L-.915 8.886Z"/><path fill="#F7FCFF" d="M12.503 8.125 10.306 9.52-.056 1.18-1.362-.434l2.647-.363 4.113 3.46 3.31 2.332 3.795 3.129Z"/><path fill="#F50100" d="m12.418 8.67-1.261.63-5.023-4.323-1.489-.483-6.133-4.922H.283l6.13 4.805 1.628.58 4.377 3.714Z"/><mask id="e" width="13" height="11" x="-1" y="-1" fill="#000" maskUnits="userSpaceOnUse"><path fill="#fff" d="M-1-1h13v11H-1z"/><path fill-rule="evenodd" d="M6 0H5v4H0v1h5v4h1V5h5V4H6V0Z" clip-rule="evenodd"/></mask><path fill="#F50100" fill-rule="evenodd" d="M6 0H5v4H0v1h5v4h1V5h5V4H6V0Z" clip-rule="evenodd"/><path fill="#F7FCFF" d="M5 0v-.938h-.938V0H5Zm1 0h.938v-.938H6V0ZM5 4v.938h.938V4H5ZM0 4v-.938h-.938V4H0Zm0 1h-.938v.938H0V5Zm5 0h.938v-.938H5V5Zm0 4h-.938v.938H5V9Zm1 0v.938h.938V9H6Zm0-4v-.938h-.938V5H6Zm5 0v.938h.938V5H11Zm0-1h.938v-.938H11V4ZM6 4h-.938v.938H6V4ZM5 .937h1V-.938H5V.938ZM5.938 4V0H4.063v4h1.875ZM0 4.938h5V3.063H0v1.874ZM.938 5V4H-.938v1H.938ZM5 4.062H0v1.875h5V4.063ZM5.938 9V5H4.063v4h1.875ZM6 8.062H5v1.876h1V8.062ZM5.062 5v4h1.875V5H5.063ZM11 4.062H6v1.875h5V4.063ZM10.062 4v1h1.876V4h-1.876ZM6 4.938h5V3.063H6v1.874ZM5.062 0v4h1.875V0H5.063Z" mask="url(#e)"/></g><path fill="#3B7E05" fill-rule="evenodd" stroke="#F7FCFF" stroke-width=".5" d="M12.654 6.27v4.081s-.06 3.377 3.051 3.377c3.112 0 3.112-3.377 3.112-3.377v-4.08h-6.163Z" clip-rule="evenodd"/><path fill="#FFD018" fill-rule="evenodd" d="m12.648 12.43.496-.497c.774.957 1.59 1.422 2.456 1.422.866 0 1.68-.465 2.454-1.422l.282.283.012-.018c.173.146.286.283.34.441a.527.527 0 0 1-.214.637 1.204 1.204 0 0 1-.129.073.326.326 0 0 1-.253.028.363.363 0 0 1-.233-.216c-.703.621-1.458.938-2.26.938-.793 0-1.542-.311-2.24-.923a.363.363 0 0 1-.237.21.325.325 0 0 1-.253-.032 1.197 1.197 0 0 1-.128-.075.527.527 0 0 1-.203-.64.661.661 0 0 1 .119-.197.852.852 0 0 1-.009-.011Z" clip-rule="evenodd"/><path fill="#fff" d="m13.144 11.933.194-.158-.175-.216-.196.197.177.177Zm-.496.498-.177-.177-.159.16.142.174.194-.157Zm5.406-.498.177-.176-.197-.197-.174.216.194.157Zm.282.283-.177.177.215.214.17-.251-.208-.14Zm.012-.018.162-.19-.213-.18-.156.23.207.14Zm.34.441.237-.081-.236.081Zm-.214.637.134.211-.134-.211Zm-.129.073-.105-.227.105.227Zm-.253.028.068-.24-.068.24Zm-.233-.216.231-.095-.134-.326-.263.233.166.188Zm-4.5.015.164-.188-.257-.224-.137.312.23.1Zm-.237.21-.064-.241.064.242Zm-.253-.032-.11.225.11-.225Zm-.128-.075-.136.21.136-.21Zm-.203-.64-.235-.086.235.086Zm.119-.197.191.16.133-.158-.13-.16-.194.157Zm.31-.686-.496.498.354.353.496-.498-.354-.353Zm2.633 1.35c-.765 0-1.515-.408-2.262-1.33l-.388.314c.802.991 1.681 1.515 2.65 1.515v-.5Zm2.26-1.33c-.746.922-1.496 1.33-2.26 1.33v.5c.968 0 1.847-.525 2.648-1.516l-.388-.314Zm.653.263-.282-.282-.354.353.282.283.354-.354Zm-.372.02-.012.017.414.28.012-.018-.414-.28Zm.784.499c-.076-.22-.228-.392-.415-.55l-.323.381c.157.134.232.235.266.332l.472-.163Zm-.317.93a.777.777 0 0 0 .317-.93l-.472.163c.05.149-.002.274-.112.343l.267.423Zm-.157.087c.05-.023.101-.053.157-.088l-.267-.423a.959.959 0 0 1-.101.058l.21.453Zm-.427.042a.56.56 0 0 0 .427-.042l-.211-.453a.195.195 0 0 1-.05.019c-.002 0-.009.001-.03-.005l-.136.481Zm-.396-.362c.07.174.213.31.396.362l.136-.48a.12.12 0 0 1-.07-.072l-.462.19ZM15.6 14.35c.873 0 1.685-.347 2.424-1.001l-.33-.375c-.667.59-1.365.876-2.094.876v.5Zm-2.407-.984c.736.643 1.541.984 2.407.984v-.5c-.723 0-1.415-.281-2.077-.86l-.33.376Zm-.007.264a.613.613 0 0 0 .401-.352l-.458-.2c-.019.042-.048.062-.07.068l.127.484Zm-.426-.05a.565.565 0 0 0 .426.05l-.128-.484c-.021.006-.028.004-.03.004a.197.197 0 0 1-.05-.02l-.218.45Zm-.155-.09c.054.035.105.066.155.09l.219-.45a.947.947 0 0 1-.1-.06l-.274.42Zm-.302-.936a.777.777 0 0 0 .302.935l.273-.418c-.108-.07-.159-.198-.105-.346l-.47-.17Zm.163-.272a.908.908 0 0 0-.163.272l.47.171a.413.413 0 0 1 .075-.122l-.382-.321Zm-.012.307.009.011.388-.315a.442.442 0 0 1-.009-.01l-.388.314Z"/><path fill="#F50100" fill-rule="evenodd" d="m13.722 7.163.07.025c.057-.13.066-.229 0-.292l-.002-.003c-.015-.024-.043-.067.002-.159l-.032-.065c-.065.132-.094.228-.043.292l.002.004.003.002c.03.027.042.1 0 .196Zm0 .946.07.025c.057-.13.066-.229 0-.292l-.002-.003c-.015-.024-.043-.067.002-.159l-.032-.065c-.065.132-.094.228-.043.292l.002.004.003.002c.03.027.042.1 0 .196Zm.07.87-.07-.026c.042-.095.03-.169 0-.195l-.003-.003-.002-.003c-.051-.064-.022-.16.043-.293l.032.066c-.045.091-.018.134-.002.158l.002.003c.066.064.057.163 0 .293Zm.416.988.07.025c.056-.13.065-.229 0-.292l-.003-.003c-.015-.024-.043-.067.002-.159l-.032-.065c-.064.132-.094.228-.043.292l.003.004.003.002c.029.027.041.1 0 .196Zm-.507.836-.07-.025c.042-.096.03-.17 0-.196l-.003-.002-.002-.004c-.051-.064-.022-.16.043-.292l.032.065c-.045.092-.018.134-.002.159l.002.003c.066.063.057.162 0 .292Zm-.07.92.07.026c.057-.13.066-.229 0-.293l-.002-.002c-.016-.025-.043-.067.002-.159l-.032-.065c-.065.132-.094.228-.043.292l.002.003.003.003c.03.027.042.1 0 .195Zm3.073.026-.07-.026c.043-.095.03-.168 0-.195l-.002-.003-.003-.003c-.05-.064-.021-.16.043-.292l.032.065c-.044.092-.017.134-.002.159l.002.002c.067.064.057.163 0 .293Zm-.07-.938.07.026c.057-.13.067-.23 0-.293l-.002-.003c-.015-.024-.042-.066.002-.158l-.032-.065c-.064.132-.093.228-.043.292l.003.003.003.003c.03.027.041.1 0 .195Zm.07-.886-.07-.026c.043-.095.03-.169 0-.195l-.002-.003-.003-.003c-.05-.065-.021-.16.043-.293l.032.066c-.044.091-.017.134-.002.158l.002.003c.067.064.057.163 0 .293Zm-.1-.904.07.025c.057-.13.066-.229 0-.292l-.002-.003c-.015-.024-.043-.067.002-.159l-.032-.065c-.065.133-.094.228-.043.293l.003.003.003.003c.029.026.041.1 0 .195Zm.07-.92-.07-.026c.042-.095.03-.169 0-.195l-.002-.003-.003-.003c-.05-.065-.022-.16.043-.293l.032.065c-.045.092-.017.135-.002.159l.002.003c.066.063.057.162 0 .292Zm-.07-.905.07.026c.057-.13.066-.229 0-.293l-.002-.002c-.015-.025-.043-.067.002-.159l-.032-.065c-.065.132-.094.228-.043.292l.003.003.003.003c.029.027.041.1 0 .195Z" clip-rule="evenodd"/><path fill="#FFD018" fill-rule="evenodd" d="M14.225 6.76a.072.072 0 0 0 .008-.034c0-.037-.028-.067-.063-.067-.034 0-.062.03-.062.067 0 .016.005.031.014.043l-.237.366.025.02.236-.366a.058.058 0 0 0 .058-.005l.248.37.025-.02-.252-.375Zm-.008.316a.07.07 0 0 0 .016-.046c0-.037-.028-.067-.063-.067-.034 0-.062.03-.062.067 0 .023.01.043.026.055l-.059.072h-.401s.043.1.18.127c.042.04.15.114.15.114l-.062.074h.433v-.074c.105-.001.145-.084.16-.114.005-.012.007-.016.007 0 0 .053.077 0 .077 0s.127-.127.127-.249c0-.12-.267.122-.267.122h-.181l-.082-.081Zm-.543 1.027h.401l.06-.072a.07.07 0 0 1-.027-.055c0-.037.028-.067.063-.067.034 0 .062.03.062.067a.07.07 0 0 1-.017.046l.082.08h.181s.267-.242.267-.12c0 .12-.127.248-.127.248s-.077.053-.077 0c0-.016-.002-.013-.008 0-.014.03-.054.113-.159.114v.074h-.433l.061-.074s-.107-.074-.149-.114a.248.248 0 0 1-.18-.127Zm.551-.398a.072.072 0 0 0 .008-.033c0-.037-.028-.067-.063-.067-.034 0-.062.03-.062.067 0 .016.005.031.014.043l-.237.366.025.02.236-.366a.058.058 0 0 0 .058-.005l.248.37.025-.02-.252-.375Zm-.551 1.242h.401l.06-.071a.07.07 0 0 1-.027-.055c0-.037.028-.068.063-.068.034 0 .062.03.062.068a.07.07 0 0 1-.017.045l.082.081h.181s.267-.242.267-.121-.127.248-.127.248-.077.054-.077 0c0-.015-.002-.012-.008 0-.014.03-.054.113-.159.114v.074h-.433l.061-.074s-.107-.074-.149-.114c-.136-.026-.18-.127-.18-.127Zm.551-.397a.072.072 0 0 0 .008-.033c0-.038-.028-.068-.063-.068-.034 0-.062.03-.062.068 0 .016.005.03.014.042l-.237.366.025.02.236-.366a.058.058 0 0 0 .058-.005l.248.371.025-.02-.252-.375Zm-.066 1.41h.401l.06-.07a.07.07 0 0 1-.027-.056c0-.037.028-.067.063-.067.034 0 .062.03.062.067a.07.07 0 0 1-.016.046l.081.08h.182s.267-.242.267-.12c0 .12-.128.248-.128.248s-.077.053-.077 0c0-.015-.002-.012-.007 0-.014.03-.054.113-.16.114v.074h-.432l.06-.074s-.106-.074-.148-.114c-.137-.027-.181-.127-.181-.127Zm.551-.397a.072.072 0 0 0 .008-.033c0-.037-.028-.067-.062-.067-.035 0-.063.03-.063.067 0 .016.006.031.014.043l-.236.366.024.02.237-.366a.058.058 0 0 0 .057-.005l.249.37.024-.02-.252-.375Zm-1.128 1.209h.402l.06-.072a.07.07 0 0 1-.027-.055c0-.037.028-.067.062-.067.035 0 .063.03.063.067a.07.07 0 0 1-.016.046l.08.08h.182s.267-.242.267-.12c0 .12-.127.248-.127.248s-.077.053-.077 0c0-.016-.002-.013-.008 0-.014.03-.053.113-.159.114v.074h-.433l.061-.075s-.107-.074-.149-.113c-.136-.027-.18-.127-.18-.127Zm.552-.398a.07.07 0 0 0 .008-.033c0-.037-.028-.067-.063-.067-.034 0-.062.03-.062.067 0 .016.005.031.014.043l-.237.366.025.02.236-.367a.059.059 0 0 0 .057-.005l.25.372.024-.02-.252-.376Zm-.552 1.343h.402l.06-.07a.07.07 0 0 1-.027-.056c0-.037.028-.067.062-.067.035 0 .063.03.063.067a.07.07 0 0 1-.016.046l.08.08h.182s.267-.242.267-.12c0 .12-.127.248-.127.248s-.077.053-.077 0c0-.016-.002-.013-.008 0-.014.03-.053.113-.159.113v.075h-.433l.061-.075s-.107-.074-.149-.113a.248.248 0 0 1-.18-.128Zm.552-.397a.071.071 0 0 0 .008-.033c0-.037-.028-.068-.063-.068-.034 0-.062.03-.062.068 0 .016.005.03.014.042l-.237.367.025.02.236-.367a.058.058 0 0 0 .058-.005l.248.372.025-.02-.252-.376Zm2.452.397h.402l.059-.07a.07.07 0 0 1-.026-.056c0-.037.028-.067.062-.067.035 0 .063.03.063.067a.07.07 0 0 1-.017.046l.081.08h.182s.267-.242.267-.12c0 .12-.128.248-.128.248s-.077.053-.077 0c0-.016-.001-.013-.007 0-.014.03-.054.113-.16.113v.075h-.432l.06-.075s-.106-.074-.148-.113a.248.248 0 0 1-.18-.128Zm.552-.397a.072.072 0 0 0 .008-.033c0-.037-.028-.068-.063-.068-.034 0-.062.03-.062.068 0 .016.005.03.014.042l-.237.367.025.02.236-.367a.059.059 0 0 0 .057-.005l.249.372.024-.02-.251-.376Zm-.552-.515h.402l.059-.07a.07.07 0 0 1-.026-.056c0-.037.028-.068.062-.068.035 0 .063.03.063.068a.07.07 0 0 1-.017.046l.081.08h.182s.267-.242.267-.12c0 .12-.128.248-.128.248s-.077.053-.077 0c0-.016-.001-.013-.007 0-.014.03-.054.113-.16.113v.074h-.432l.06-.074s-.106-.074-.148-.113c-.137-.027-.18-.128-.18-.128Zm.552-.397a.072.072 0 0 0 .008-.033c0-.037-.028-.068-.063-.068-.034 0-.062.03-.062.068 0 .016.005.03.014.042l-.237.367.025.02.236-.367a.059.059 0 0 0 .057-.005l.249.371.024-.02-.251-.375Zm-.552-.515h.402l.059-.071a.07.07 0 0 1-.026-.055c0-.038.028-.068.062-.068.035 0 .063.03.063.068a.07.07 0 0 1-.017.045l.081.081h.182s.267-.242.267-.121-.128.248-.128.248-.077.054-.077 0c0-.015-.001-.012-.007 0-.014.03-.054.113-.16.114v.074h-.432l.06-.074s-.106-.074-.148-.114a.243.243 0 0 1-.18-.127Zm.552-.397a.072.072 0 0 0 .008-.033c0-.038-.028-.068-.063-.068-.034 0-.062.03-.062.068 0 .016.005.03.014.042l-.237.366.025.02.236-.366a.058.058 0 0 0 .057-.005l.249.371.024-.02-.251-.375Zm-.582-.481h.401l.06-.071a.07.07 0 0 1-.027-.056c0-.037.028-.067.063-.067.034 0 .062.03.062.067a.07.07 0 0 1-.016.046l.081.08h.181s.268-.242.268-.12c0 .12-.128.248-.128.248s-.077.053-.077 0c0-.015-.002-.012-.007 0-.015.03-.054.113-.16.114v.074h-.433l.061-.074s-.107-.074-.148-.114c-.137-.027-.181-.127-.181-.127Zm.551-.398a.07.07 0 0 0 .008-.033c0-.037-.028-.067-.062-.067-.035 0-.063.03-.063.067 0 .016.005.031.014.043l-.236.366.024.02.237-.366a.059.059 0 0 0 .057-.005l.249.371.024-.02-.252-.376Zm-.551-.548h.401l.06-.071a.07.07 0 0 1-.027-.056c0-.037.028-.067.063-.067.034 0 .062.03.062.067a.07.07 0 0 1-.016.046l.081.08h.181s.268-.242.268-.12c0 .12-.128.248-.128.248s-.077.053-.077 0c0-.015-.002-.012-.007 0-.015.03-.054.113-.16.114v.074h-.433l.061-.074s-.107-.074-.148-.114a.248.248 0 0 1-.181-.127Zm.551-.398a.07.07 0 0 0 .008-.033c0-.037-.028-.067-.062-.067-.035 0-.063.03-.063.067a.07.07 0 0 0 .014.043l-.236.366.024.02.237-.366a.059.059 0 0 0 .057-.005l.249.371.024-.02-.252-.376Z" clip-rule="evenodd"/><path fill="#FFC6B5" fill-rule="evenodd" d="m15.4 7.866-.21.683s-.353.456-.418.68c-.065.223-.1.37-.082.37a.232.232 0 0 0 .161-.217c0-.154.549-.649.549-.649l.163-.867H15.4Z" clip-rule="evenodd"/><path fill="#FFD018" fill-rule="evenodd" d="M17.107 6.793a.07.07 0 0 0 .008-.033c0-.037-.028-.067-.062-.067-.035 0-.063.03-.063.067 0 .016.006.031.014.043l-.236.366.024.02.237-.366a.058.058 0 0 0 .057-.005l.249.37.024-.02-.252-.375Zm-.008.317a.07.07 0 0 0 .016-.046c0-.037-.028-.067-.062-.067-.035 0-.063.03-.063.067 0 .023.01.043.027.055l-.06.072h-.401s.044.1.18.127c.043.04.15.114.15.114l-.061.074h.432v-.074c.106-.001.145-.085.16-.114.005-.013.007-.016.007 0 0 .053.077 0 .077 0s.128-.127.128-.249c0-.12-.268.122-.268.122h-.18l-.082-.081Z" clip-rule="evenodd"/><path fill="#FFC6B5" fill-rule="evenodd" d="M15.912 7.592c.006.013.01.022.01.035 0 .04-.166.098-.287.098-.12 0-.073-.098 0-.152.074-.053-.006-.146-.073-.146-.064 0-.064-.09-.063-.163V6.97c0-.114.03-.1.09-.075a.325.325 0 0 0 .131.034c.09 0 .095.02.108.077.009.034.02.08.055.144.057.1.045.124.027.16a.228.228 0 0 0-.027.117c0 .104.018.14.03.165Zm.15.726.035-.385s-.036-.14.047-.14c.083 0 .212.672.259.942.03.172.002.204-.077.296-.044.052-.105.124-.182.25-.127.21-.119.333-.112.427.004.063.007.112-.031.166-.09.125-.126.007-.162-.109l-.008-.025c-.034-.108.122-.435.227-.657L16.097 9c.1-.213.09-.288.047-.378-.043-.09-.083-.305-.083-.305Z" clip-rule="evenodd"/><path fill="#FFD018" fill-rule="evenodd" d="M16.262 12.106a.172.172 0 0 1-.167.177c-.092 0-.167-.08-.167-.177 0-.098.075-.177.167-.177.092 0 .167.08.167.177Zm-.887.05c-.075.062-.166.076-.204.031-.038-.044-.008-.132.067-.195.075-.062.166-.077.204-.032.038.045.008.132-.067.195Z" clip-rule="evenodd"/><path fill="#A95601" fill-rule="evenodd" d="M15.594 6.74s-.173.036-.115.123c.057.086-.076.064.115.075.191.011.244.081.218.132-.027.052-.047.18 0 .256.046.077.061.21.144.144.082-.067.24-.159.192-.28-.049-.12.02-.26-.087-.327-.105-.068-.13-.027-.19-.123-.06-.095-.15-.122-.213-.06l-.064.06Z" clip-rule="evenodd"/><path fill="#F7FCFF" fill-rule="evenodd" d="M15.56 7.61s-.349.42-.292.569c.057.148.143.155.1.366-.043.21.026.535-.1.95-.126.413-.208 1.384-.167 1.384.041 0 .099.536.05.777-.05.24-.394.441-.05.441.344 0 .385.048.523 0 .137-.047.333.138.333 0 0-.137.014-.165.12-.165h.192c.092 0 .214.086.214-.119s.023-.645-.096-.987c-.118-.342-.078-.124-.195-.581-.068-.271-.122-.379-.163-.473-.03-.065-.112.049-.131-.053-.007-.035.05-.237.05-.264.004-.162.128-.19.128-.469 0-.324-.078-.68 0-.858.078-.179.269-.071.193-.245-.076-.173-.101-.272-.244-.272h-.465Z" clip-rule="evenodd"/><path fill="#272727" d="m13.117 12.59.058-.077c.835.778 1.607 1.165 2.316 1.165.709 0 1.572-.41 2.588-1.236l.054.082c-1.03.837-1.91 1.256-2.642 1.256-.733 0-1.524-.397-2.374-1.19Z"/></g></g></g><defs><clipPath id="a"><rect width="20" height="15" fill="#fff" rx="2"/></clipPath></defs></svg>