<svg viewBox="0 0 20 15" fill="none" xmlns="http://www.w3.org/2000/svg"><path d="M0 0v15h20V0H0Z" fill="#2e42a5"/><path fill="#2e42a5" d="M0 0h11v9H0z"/><mask id="a" maskUnits="userSpaceOnUse" x="0" y="0" width="11" height="9"><path fill="#fff" d="M0 0h11v9H0z"/></mask><g mask="url(#a)"><path d="M-1.253 8.125 1.223 9.21l10.083-8.03 1.306-1.614-2.647-.363-4.113 3.46-3.31 2.332-3.795 3.129Z" fill="#f7fcff"/><path d="m-.914 8.886 1.261.63L12.143-.583h-1.77L-.915 8.886Z" fill="#f50100"/><path d="M12.503 8.125 10.306 9.52-.056 1.18-1.362-.433l2.647-.363 4.113 3.46 3.31 2.332 3.795 3.129Z" fill="#f7fcff"/><path d="m12.418 8.67-1.261.63-5.023-4.323-1.489-.483-6.133-4.921H.283l6.13 4.804 1.628.58 4.377 3.714Z" fill="#f50100"/><mask id="b" maskUnits="userSpaceOnUse" x="-1" y="-1" width="13" height="11" fill="#000"><path fill="#fff" d="M-1-1h13v11H-1z"/><path d="M6 0H5v4H0v1h5v4h1V5h5V4H6V0Z"/></mask><path d="M6 0H5v4H0v1h5v4h1V5h5V4H6V0Z" fill="#f50100"/><path d="M5 0v-.938h-.938V0H5Zm1 0h.938v-.938H6V0ZM5 4v.938h.938V4H5ZM0 4v-.938h-.938V4H0Zm0 1h-.938v.938H0V5Zm5 0h.938v-.938H5V5Zm0 4h-.938v.938H5V9Zm1 0v.938h.938V9H6Zm0-4v-.938h-.938V5H6Zm5 0v.938h.938V5H11Zm0-1h.938v-.938H11V4ZM6 4h-.938v.938H6V4ZM5 .937h1V-.938H5V.938ZM5.938 4V0H4.063v4h1.875ZM0 4.938h5V3.063H0v1.874ZM.938 5V4H-.938v1H.938ZM5 4.062H0v1.875h5V4.063ZM5.938 9V5H4.063v4h1.875ZM6 8.062H5v1.876h1V8.062ZM5.062 5v4h1.875V5H5.063ZM11 4.062H6v1.875h5V4.063ZM10.062 4v1h1.876V4h-1.876ZM6 4.938h5V3.063H6v1.874ZM5.062 0v4h1.875V0H5.063Z" fill="#f7fcff" mask="url(#b)"/></g><path d="M12.654 6.27v4.081s-.06 3.376 3.052 3.376c3.111 0 3.111-3.376 3.111-3.376v-4.08h-6.163Z" fill="#3B7E05" stroke="#f7fcff" stroke-width=".5"/><path d="m12.648 12.43.496-.497c.775.957 1.59 1.422 2.456 1.422.866 0 1.68-.465 2.454-1.422l.282.283.012-.018c.173.146.287.283.341.441a.527.527 0 0 1-.215.637 1.204 1.204 0 0 1-.129.073.325.325 0 0 1-.253.028.363.363 0 0 1-.233-.217c-.703.622-1.458.938-2.259.938-.794 0-1.543-.31-2.242-.922a.363.363 0 0 1-.236.21.326.326 0 0 1-.253-.032 1.214 1.214 0 0 1-.127-.075.527.527 0 0 1-.204-.64.66.66 0 0 1 .12-.198l-.01-.01Z" fill="#ffd018"/><path d="m13.144 11.933.194-.158-.175-.216-.196.197.177.177Zm-.496.497-.177-.176-.159.16.142.174.194-.158Zm5.406-.497.177-.177-.196-.197-.175.217.194.157Zm.282.283-.177.176.215.215.17-.251-.208-.14Zm.012-.018.162-.19-.213-.18-.156.23.207.14Zm.341.441.236-.082-.236.082Zm-.215.637.134.211-.134-.211Zm-.129.073-.105-.227.105.227Zm-.253.028.068-.24-.068.24Zm-.233-.217.231-.095-.133-.325-.264.233.166.187Zm-4.5.016.164-.188-.257-.225-.137.313.23.1Zm-.237.21-.064-.241.064.242Zm-.253-.032-.109.225.11-.225Zm-.127-.075-.137.21.136-.21Zm-.204-.64-.235-.086.235.086Zm.12-.198.19.161.133-.158-.13-.16-.194.157Zm.309-.685-.496.498.354.353.496-.498-.354-.353Zm2.633 1.35c-.764 0-1.515-.408-2.262-1.33l-.388.314c.802.991 1.682 1.515 2.65 1.515v-.5Zm2.26-1.33c-.746.922-1.496 1.33-2.26 1.33v.5c.968 0 1.847-.525 2.649-1.516l-.39-.314Zm.653.263-.282-.283-.354.354.282.282.354-.353Zm-.372.02-.012.017.414.28.012-.018-.414-.28Zm.784.498c-.076-.22-.228-.391-.415-.55l-.323.382c.157.134.232.235.266.332l.472-.164Zm-.317.93a.777.777 0 0 0 .317-.93l-.472.164c.051.148-.002.274-.111.343l.266.423Zm-.157.088c.05-.023.101-.053.157-.088l-.267-.423a.962.962 0 0 1-.101.058l.21.453Zm-.427.042a.565.565 0 0 0 .427-.042l-.211-.453a.191.191 0 0 1-.05.018c-.002 0-.009.002-.03-.004l-.136.481Zm-.396-.362c.07.174.213.31.396.362l.136-.48c-.022-.007-.052-.028-.07-.072l-.462.19ZM15.6 14.348c.873 0 1.685-.346 2.425-1l-.332-.375c-.666.59-1.364.875-2.093.875v.5Zm-2.406-.984c.735.644 1.54.984 2.406.984v-.5c-.723 0-1.415-.28-2.077-.86l-.33.376Zm-.008.264a.613.613 0 0 0 .401-.351l-.458-.2c-.019.042-.048.062-.07.068l.127.483Zm-.426-.05a.565.565 0 0 0 .426.05l-.128-.483c-.021.005-.028.004-.03.004a.194.194 0 0 1-.05-.02l-.218.45Zm-.155-.09c.054.036.105.067.155.09l.219-.449a.976.976 0 0 1-.1-.06l-.274.42Zm-.302-.935a.777.777 0 0 0 .302.935l.273-.418c-.108-.071-.159-.198-.105-.346l-.47-.171Zm.163-.272a.91.91 0 0 0-.163.272l.47.171a.413.413 0 0 1 .075-.122l-.382-.321Zm-.012.307.01.011.387-.315-.009-.01-.388.314Z" fill="#fff"/><path d="m13.723 7.163.069.025c.057-.13.066-.229 0-.292l-.002-.003c-.015-.024-.043-.067.002-.159l-.032-.065c-.065.132-.094.228-.043.292l.002.004.004.002c.029.027.041.1 0 .196Zm0 .946.069.025c.057-.13.066-.229 0-.292l-.002-.003c-.015-.024-.043-.067.002-.159l-.032-.065c-.065.132-.094.228-.043.292l.002.004.004.002c.029.027.041.1 0 .196Zm.069.87-.07-.026c.042-.095.03-.169 0-.195l-.003-.003-.002-.003c-.05-.064-.022-.16.043-.293l.032.066c-.045.091-.017.134-.002.158l.002.003c.066.064.057.163 0 .293Zm.416.988.07.025c.056-.13.066-.229 0-.292l-.002-.003c-.016-.024-.043-.067.001-.159l-.031-.065c-.065.132-.094.228-.044.292l.003.004.003.002c.03.027.041.1 0 .196Zm-.507.836-.07-.025c.042-.096.03-.17 0-.196l-.003-.002-.002-.004c-.05-.064-.022-.16.043-.292l.032.065c-.045.092-.017.134-.002.159l.002.003c.066.063.057.162 0 .292Zm-.07.92.07.026c.057-.13.066-.229 0-.293l-.002-.002c-.015-.025-.043-.067.002-.159l-.032-.065c-.065.132-.094.228-.043.292l.002.003.004.003c.029.027.041.1 0 .195Zm3.074.026-.07-.026c.042-.095.03-.168 0-.195l-.003-.003-.003-.003c-.05-.064-.021-.16.044-.292l.032.065c-.045.092-.018.134-.002.159l.002.002c.066.064.057.163 0 .293Zm-.07-.938.07.026c.057-.13.066-.23 0-.293l-.002-.003c-.016-.024-.043-.066.002-.158l-.032-.065c-.065.132-.094.228-.043.292l.002.003.003.003c.03.027.042.1 0 .195Zm.07-.886-.07-.026c.042-.095.03-.169 0-.195l-.003-.003-.003-.003c-.05-.065-.021-.16.044-.293l.032.066c-.045.091-.018.134-.002.158l.002.003c.066.064.057.163 0 .293Zm-.1-.904.07.025c.056-.13.066-.229 0-.292l-.003-.003c-.015-.024-.042-.067.002-.159l-.032-.065c-.064.133-.093.228-.043.293l.003.003.003.003c.03.026.041.1 0 .195Zm.07-.92-.07-.026c.041-.095.03-.169 0-.195l-.003-.003-.003-.003c-.05-.065-.021-.16.043-.293l.032.065c-.044.092-.017.135-.002.159l.002.003c.067.063.057.162 0 .292Zm-.07-.905.07.026c.056-.13.066-.229 0-.293l-.003-.002c-.015-.025-.042-.067.002-.159l-.032-.065c-.064.132-.093.228-.043.292l.003.003.003.003c.03.027.041.1 0 .195Z" fill="#f50100"/><path d="M14.225 6.76a.072.072 0 0 0 .008-.034c0-.037-.028-.067-.062-.067-.035 0-.063.03-.063.067 0 .016.005.031.014.043l-.236.366.024.02.236-.366a.058.058 0 0 0 .058-.005l.248.371.025-.02-.252-.376Zm-.008.316a.07.07 0 0 0 .016-.046c0-.037-.028-.067-.062-.067-.035 0-.063.03-.063.067 0 .023.01.043.026.056l-.059.07h-.401s.044.101.18.128c.042.04.15.114.15.114l-.062.074h.433v-.074c.106-.001.145-.084.16-.114.005-.012.007-.015.007 0 0 .053.077 0 .077 0s.127-.127.127-.248c0-.122-.267.12-.267.12h-.181l-.081-.08Zm-.543 1.027h.401l.06-.071a.07.07 0 0 1-.027-.056c0-.037.028-.067.063-.067.034 0 .062.03.062.067a.07.07 0 0 1-.016.046l.08.08h.182s.268-.242.268-.12c0 .12-.128.248-.128.248s-.077.053-.077 0c0-.016-.002-.012-.008 0-.014.03-.053.113-.159.114v.074h-.433l.061-.074s-.107-.074-.148-.114c-.137-.027-.181-.127-.181-.127Zm.551-.398a.072.072 0 0 0 .008-.033c0-.037-.028-.067-.062-.067-.035 0-.063.03-.063.067 0 .016.005.031.014.043l-.236.366.024.02.236-.366a.058.058 0 0 0 .058-.005l.248.37.025-.02-.252-.375Zm-.551 1.242h.401l.06-.07a.07.07 0 0 1-.027-.056c0-.037.028-.068.063-.068.034 0 .062.03.062.068a.07.07 0 0 1-.016.046l.08.08h.182s.268-.242.268-.12c0 .12-.128.248-.128.248s-.077.053-.077 0c0-.016-.002-.013-.008 0-.014.03-.053.112-.159.113v.074h-.433l.061-.074s-.107-.074-.148-.113c-.137-.027-.181-.128-.181-.128Zm.551-.397a.072.072 0 0 0 .008-.033c0-.037-.028-.068-.062-.068-.035 0-.063.03-.063.068 0 .016.005.03.014.042l-.236.367.024.02.236-.367a.058.058 0 0 0 .058-.005l.248.372.025-.02-.252-.376Zm-.066 1.41h.402l.059-.07a.07.07 0 0 1-.026-.056c0-.037.027-.067.062-.067.034 0 .063.03.063.067a.07.07 0 0 1-.017.046l.081.08h.182s.267-.242.267-.12c0 .12-.128.248-.128.248s-.077.053-.077 0c0-.015-.001-.012-.007 0-.014.03-.054.113-.16.114v.074h-.432l.06-.074s-.106-.074-.148-.114c-.137-.026-.18-.127-.18-.127Zm.552-.397a.072.072 0 0 0 .008-.033c0-.037-.028-.067-.063-.067s-.063.03-.063.067c0 .017.006.031.014.043l-.236.366.024.02.237-.366a.058.058 0 0 0 .057-.005l.249.371.024-.02-.251-.376Zm-1.128 1.209h.401l.06-.072a.07.07 0 0 1-.027-.055c0-.037.028-.067.063-.067.034 0 .062.03.062.067a.07.07 0 0 1-.016.046l.08.08h.182s.268-.242.268-.12c0 .12-.128.248-.128.248s-.077.053-.077 0c0-.016-.002-.012-.008 0-.014.03-.053.113-.159.114v.074h-.433l.061-.074s-.107-.074-.148-.114c-.137-.027-.181-.127-.181-.127Zm.551-.398a.072.072 0 0 0 .008-.033c0-.037-.028-.067-.062-.067-.035 0-.063.03-.063.067 0 .016.005.031.014.043l-.237.366.025.02.236-.366a.059.059 0 0 0 .057-.005l.25.37.024-.02-.252-.375Zm-.551 1.344h.401l.06-.072a.07.07 0 0 1-.027-.055c0-.037.028-.067.063-.067.034 0 .062.03.062.067a.071.071 0 0 1-.016.046l.08.08h.182s.268-.242.268-.12c0 .12-.128.248-.128.248s-.077.053-.077 0c0-.016-.002-.013-.008 0-.014.03-.053.113-.159.114v.074h-.433l.061-.074s-.107-.074-.148-.114c-.137-.027-.181-.127-.181-.127Zm.551-.398a.072.072 0 0 0 .008-.033c0-.037-.028-.067-.062-.067-.035 0-.063.03-.063.067 0 .016.005.031.014.043l-.237.366.025.02.236-.366a.059.059 0 0 0 .058-.005l.248.37.025-.02-.252-.375Zm2.452.398h.402l.059-.072a.07.07 0 0 1-.026-.055c0-.037.028-.067.062-.067.035 0 .063.03.063.067a.07.07 0 0 1-.017.046l.081.08h.182s.267-.242.267-.12c0 .12-.128.248-.128.248s-.077.053-.077 0c0-.016-.001-.013-.007 0-.014.03-.054.113-.16.114v.074h-.432l.06-.074s-.106-.074-.148-.114c-.137-.027-.18-.127-.18-.127Zm.552-.398a.072.072 0 0 0 .008-.033c0-.037-.028-.067-.063-.067-.034 0-.062.03-.062.067 0 .016.005.031.014.043l-.237.366.025.02.236-.366a.06.06 0 0 0 .057-.005l.249.37.024-.02-.251-.375Zm-.552-.514h.402l.059-.072a.07.07 0 0 1-.026-.055c0-.037.028-.068.062-.068.035 0 .063.03.063.068a.07.07 0 0 1-.017.046l.081.08h.182s.267-.242.267-.12c0 .12-.128.248-.128.248s-.077.053-.077 0c0-.016-.001-.013-.007 0-.014.03-.054.113-.16.113v.075h-.432l.06-.075s-.106-.074-.148-.113c-.137-.027-.18-.127-.18-.127Zm.552-.398a.072.072 0 0 0 .008-.033c0-.037-.028-.068-.063-.068-.034 0-.062.03-.062.068 0 .016.005.03.014.043l-.237.366.025.02.236-.367a.06.06 0 0 0 .057-.005l.249.372.024-.02-.251-.376Zm-.552-.515h.402l.059-.07a.07.07 0 0 1-.026-.056c0-.037.028-.068.062-.068.035 0 .063.03.063.068a.07.07 0 0 1-.017.046l.081.08h.182s.267-.242.267-.12c0 .12-.128.248-.128.248s-.077.053-.077 0c0-.016-.001-.013-.007 0-.014.03-.054.112-.16.113v.074h-.432l.06-.074s-.106-.074-.148-.114c-.137-.026-.18-.127-.18-.127Zm.552-.397a.072.072 0 0 0 .008-.033c0-.037-.028-.068-.063-.068-.034 0-.062.03-.062.068 0 .016.005.03.014.042l-.237.367.025.02.236-.367a.058.058 0 0 0 .057-.005l.249.371.024-.02-.251-.375Zm-.582-.481h.401l.06-.071a.07.07 0 0 1-.027-.055c0-.038.028-.068.063-.068.034 0 .062.03.062.068a.07.07 0 0 1-.016.045l.081.08h.181s.268-.242.268-.12c0 .12-.128.248-.128.248s-.077.053-.077 0c0-.015-.002-.012-.007 0-.015.03-.054.113-.16.114v.074h-.432l.06-.074s-.106-.074-.148-.114c-.137-.026-.181-.127-.181-.127Zm.552-.398a.072.072 0 0 0 .007-.033c0-.037-.028-.067-.062-.067-.035 0-.063.03-.063.067 0 .017.006.031.014.043l-.236.366.024.02.237-.366a.058.058 0 0 0 .057-.005l.249.371.024-.02-.252-.376Zm-.552-.548h.401l.06-.071a.07.07 0 0 1-.027-.055c0-.038.028-.068.063-.068.034 0 .062.03.062.068a.07.07 0 0 1-.016.045l.081.081h.181s.268-.242.268-.121-.128.248-.128.248-.077.053-.077 0c0-.015-.002-.012-.007 0-.015.03-.054.113-.16.114v.074h-.432l.06-.074s-.106-.074-.148-.114c-.137-.026-.181-.127-.181-.127Zm.552-.398a.072.072 0 0 0 .007-.032c0-.038-.028-.068-.062-.068-.035 0-.063.03-.063.068 0 .016.006.03.014.042l-.236.366.024.02.237-.366a.058.058 0 0 0 .057-.005l.249.371.024-.02-.252-.376Z" fill="#ffd018"/><path d="m15.4 7.866-.21.683s-.352.456-.417.68c-.066.223-.101.37-.083.37a.232.232 0 0 0 .161-.217c0-.154.549-.649.549-.649l.164-.867H15.4Z" fill="#ffc6b5"/><path d="M17.107 6.793a.07.07 0 0 0 .008-.033c0-.037-.028-.067-.062-.067-.035 0-.063.03-.063.067 0 .016.006.03.014.043l-.236.366.024.02.237-.367a.058.058 0 0 0 .057-.005l.249.372.024-.02-.252-.376Zm-.008.317a.07.07 0 0 0 .016-.046c0-.037-.028-.067-.062-.067-.035 0-.063.03-.063.067 0 .023.01.043.027.055l-.06.072h-.401s.044.1.18.127c.043.04.15.113.15.113l-.061.075h.432V7.43c.106 0 .145-.084.16-.113.005-.013.007-.016.007 0 0 .053.077 0 .077 0s.128-.127.128-.249c0-.12-.268.122-.268.122h-.18l-.082-.081Z" fill="#ffd018"/><path d="M15.913 7.593c.005.012.01.021.01.035 0 .039-.167.097-.288.097-.12 0-.073-.097 0-.151.074-.054-.005-.147-.073-.147-.064 0-.063-.09-.063-.163V6.97c0-.114.03-.1.09-.075a.325.325 0 0 0 .131.034c.09 0 .095.02.108.077.009.034.02.08.055.144.057.1.045.124.027.16-.012.025-.027.055-.027.117 0 .104.018.14.03.166Zm.148.725.036-.384s-.036-.141.047-.141c.084 0 .213.672.26.942.029.172.002.204-.078.296-.044.052-.105.124-.181.25-.128.21-.12.333-.113.427.004.063.007.112-.031.166-.09.125-.126.007-.162-.109l-.008-.025c-.034-.108.122-.435.227-.657l.039-.081c.1-.214.09-.289.047-.379a1.744 1.744 0 0 1-.083-.305Z" fill="#ffc6b5"/><path d="M16.262 12.106c0 .098-.075.177-.167.177-.092 0-.167-.08-.167-.177 0-.098.075-.177.167-.177.093 0 .167.08.167.177Zm-.887.05c-.075.062-.166.076-.204.032-.038-.045-.008-.133.067-.196.075-.062.166-.077.204-.032.038.045.008.132-.067.195Z" fill="#ffd018"/><path d="M15.595 6.74s-.174.036-.116.123c.058.086-.076.064.116.075.19.011.243.081.217.132-.026.052-.047.18 0 .256.046.077.061.21.144.144.082-.067.24-.159.192-.28-.048-.12.02-.26-.086-.327-.106-.068-.13-.027-.19-.123-.061-.095-.15-.122-.214-.06l-.063.06Z" fill="#a95601"/><path d="M15.56 7.611s-.349.42-.292.568c.057.148.143.156.1.366-.043.21.026.536-.1.95-.125.413-.208 1.384-.167 1.384.042 0 .099.536.05.777-.05.24-.394.441-.05.441.345 0 .385.048.523 0 .137-.047.333.138.333 0 0-.137.014-.165.12-.165h.192c.093 0 .214.087.214-.118s.023-.646-.096-.988c-.118-.342-.078-.124-.194-.581-.07-.27-.123-.378-.164-.473-.03-.065-.112.05-.131-.053-.007-.034.05-.237.05-.263.004-.163.128-.19.128-.47 0-.324-.077-.68 0-.858.078-.178.269-.071.193-.245-.076-.173-.101-.272-.244-.272h-.465Z" fill="#f7fcff"/><path d="m13.117 12.59.058-.077c.835.778 1.607 1.165 2.316 1.165.709 0 1.573-.41 2.589-1.236l.053.082c-1.03.837-1.91 1.256-2.642 1.256-.733 0-1.524-.397-2.374-1.19Z" fill="#272727"/></svg>