<svg xmlns="http://www.w3.org/2000/svg" width="20" height="15" fill="transparent" viewBox="0 0 20 15"><g clip-path="url(#a)"><mask id="b" width="20" height="15" x="0" y="0" maskUnits="userSpaceOnUse" style="mask-type:luminance"><path fill="#fff" d="M0 0h20v15H0z"/></mask><g mask="url(#b)"><path fill="#C51918" fill-rule="evenodd" d="M0 0v15h20V0H0Z" clip-rule="evenodd"/><mask id="c" width="20" height="15" x="0" y="0" maskUnits="userSpaceOnUse" style="mask-type:luminance"><path fill="#fff" fill-rule="evenodd" d="M0 0v15h20V0H0Z" clip-rule="evenodd"/></mask><g fill-rule="evenodd" clip-rule="evenodd" mask="url(#c)"><path fill="#2E42A5" d="M0 0v8.75h10V0H0Z"/><path fill="#FEFFFF" d="m2.228 4.858-.662.4.151-.78-.552-.585.747-.032.316-.728.316.728h.746l-.55.616.166.78-.678-.4Zm5 0-.662.4.151-.78-.552-.585.747-.032.316-.728.316.728h.746l-.55.616.166.78-.678-.4ZM4.666 2.586l-.624.377.143-.735-.52-.55.703-.03.298-.685.297.686h.702l-.518.58.156.734-.637-.377Zm.675 2.68-.39.235.09-.46-.325-.343.44-.018.185-.429.186.429h.44l-.325.362.098.459-.399-.235ZM4.63 8.018l-.935.564.214-1.102-.78-.824 1.055-.045.447-1.029.446 1.03H6.13l-.777.868.233 1.102-.955-.564Z"/></g></g></g><defs><clipPath id="a"><rect width="20" height="15" fill="#fff" rx="2"/></clipPath></defs></svg>