<svg viewBox="0 0 20 15" fill="none" xmlns="http://www.w3.org/2000/svg"><path d="M0 0v15h20V0H0Z" fill="#c51918"/><path d="M0 0v8.75h10V0H0Z" fill="#2e42a5"/><path d="m2.23 4.86-.66.4.15-.78-.55-.59.74-.03.32-.73.31.73h.75l-.55.62.17.78-.68-.4Zm5 0-.66.4.15-.78-.55-.59.74-.03.32-.73.31.73h.75l-.55.62.17.78-.68-.4ZM4.67 2.59l-.63.37.14-.73-.51-.55.7-.03.3-.69.3.69h.7l-.52.58.15.73-.63-.37Zm.67 2.68-.39.23.1-.46-.33-.34.44-.02.18-.43.19.43h.44l-.33.36.1.46-.4-.23Zm-.71 2.75-.93.56.2-1.1-.77-.82 1.05-.05.45-1.03.45 1.03h1.05l-.78.87.24 1.1-.96-.56Z" fill="#feffff"/></svg>