<svg viewBox="0 0 20 15" fill="none" xmlns="http://www.w3.org/2000/svg"><path d="M0 0h20v15H0V0Z" fill="#f7fcff"/><path d="M0 0v15h20V0H0Z" fill="#5eaa22"/><path fill="#ff8126" d="M16.25 6.25H20V15h-3.75z"/><path fill="#272727" d="M12.5 6.25h3.75V15H12.5z"/><path fill="#c51918" d="M8.75 6.25h3.75V15H8.75z"/><path d="M13.5 1.95c.35.12 0 .31 0 .31s-.06-.07-.06-.14c0-.06-.26 0-.39.24-.13.22.1.22.35.22h.04l.56-.03.43-.02c.2 0 .29 0 .55-.17.17-.12.72-.26 1.13-.36l.46-.12c.17-.08-.16.3-.16.3s1.26-.5 1.51-.68c.16-.1.09-.01-.03.14-.07.1-.16.2-.22.3-.1.18.1.02.35-.17l.36-.27c.28-.17-.07.3-.22.45-.16.14.36 0 .53-.15.13-.1.01.08-.09.24l-.08.15c-.08.13-.1.17.07.17.16 0-.43.46-.43.46s.17-.03 0 .28c-.1.18-.62.36-1.03.51-.29.1-.53.2-.56.25-.04.1-.5.23-.72.28l-.11.04c.06 0 .16.07.05.07-.1 0-.3.07-.3.07s.1 0 0 .14c-.05.07-.14.06-.2.05-.06 0-.1-.01-.02.1.07.1.1.13.08.14l-.13-.01a.64.64 0 0 1-.23-.06.75.75 0 0 0-.27-.07c-.17 0 0 .12.1.2h.02c.1.07.06.07-.12.07h-.05a.91.91 0 0 1-.2-.02c-.04 0-.04 0-.04.02 0 .03-.08 0-.18-.05-.1-.04-.22-.1-.29-.1-.13 0 .27.27.27.27s-.2-.06-.32-.12c-.06-.03.02.12.1.25.05.1.1.2.08.2a.33.33 0 0 1-.09-.04c-.08-.04-.18-.1-.18-.03 0 .1.1.17.2.17.12 0 .14.15.07.15-.02 0-.05 0-.08-.02-.05-.02-.1-.03-.1.02 0 .04.02.06.05.1.03.03.07.08.07.17 0 .16-.17.18-.12.08.06-.1-.19-.35-.19-.23v.15c0 .11-.02.12-.05.13a.13.13 0 0 0-.08.05.22.22 0 0 0-.05.1c0 .02 0 .02-.03.02-.02 0-.04-.03-.07-.08a.518.518 0 0 0-.2-.22c-.1-.04-.11 0-.12.05 0 .04-.02.09-.07.13-.08.07-.06.1-.03.13.01.02.03.04.03.07 0 .08-.14-.09-.14-.2 0-.11-.15-.26-.15-.18 0 .09 0 .18-.09.18-.03 0-.04.03-.04.07 0 .04 0 .09-.05.13-.05.04-.05.02-.05-.03 0-.04 0-.1-.03-.17-.05-.07-.01-.18.01-.24.01-.04.02-.05-.01-.02-.08.08-.18.08-.25.08-.03 0-.06.05-.09.08-.02.03-.03.05-.03 0 0-.1.1-.35.29-.35.14 0 .22-.06.28-.1a.64.64 0 0 1 .06-.05c.08-.05 0-.12-.09-.17-.03-.02-.02-.1 0-.16.05-.03.09-.06.09-.1 0-.04-.05.03-.08.1a.4.4 0 0 1-.18.07c-.04 0-.02-.08.02-.18.02-.08.06-.18.06-.25a.9.9 0 0 1 .02-.18c0-.05.01-.08-.02-.05-.05.04-.28 0-.44-.03L12 4.46c-.03 0 0-.06.02-.11.03-.07.06-.14-.02-.1-.12.07-.37.07-.53.07h-.06c-.09 0-.03-.09 0-.13.03-.02.04-.04 0-.01a.51.51 0 0 1-.29.07c-.05 0-.06-.03-.08-.06-.01-.03-.03-.07-.12-.07-.15 0-.19 0-.27-.07-.05-.04-.02-.06-.01-.07.01-.01.02-.01-.05-.01h-.42c-.21 0 0-.17.07-.17.08 0 .17-.14 0-.08-.1.04-.21.03-.34.02l-.25-.02c-.25 0-.3-.11-.15-.11s.16-.09-.07-.09c-.15 0-.26-.04-.35-.07l-.13-.03c-.08 0-.16-.11 0-.11.17 0 .39-.1.2-.1-.1 0-.27-.05-.42-.1-.12-.04-.22-.07-.27-.07-.04 0 .02-.01.1-.03.15-.03.37-.08.09-.08-.31 0-.64-.25-.86-.42-.1-.07-.16-.13-.21-.15-.18-.08 0-.24.05-.17.05.06.4.16.24.07a.9.9 0 0 1-.3-.31c-.04-.08 0-.14.06-.07.06.06.34.24.34.24s-.15-.17-.27-.44c-.12-.27.12-.2.32 0 .21.2.4.26.5.27.1.01-.1-.15-.28-.27-.19-.12-.15-.56 0-.39.07.1.43.27.78.44.32.15.63.3.71.39.14.14.03-.07-.1-.3l-.07-.14c-.08-.16.25.02.62.22.27.15.56.3.74.36l.42.16c.36.15.73.3.73.11 0-.28.33-.7.69-.85.22-.1.33-.01.46.1.08.05.17.12.29.17Zm-.37 3.23c.08 0 .05-.84.05-.84s.24.51.24.74v.16l.07.22c.06.15.02.14-.08.09-.09-.04-.22-.1-.37-.1-.35 0 0-.27.09-.27Z" fill="#ff8126"/></svg>