<svg viewBox="0 0 20 15" fill="none" xmlns="http://www.w3.org/2000/svg"><path d="M0 0v15h20V0H0Z" fill="#f7fcff"/><path d="M0 1.25v12.5h20V1.25H0Z" fill="#feca00"/><path d="M0 5.16h-1.1v4.69h22.2v-4.7H0Z" fill="#272727" stroke="#e31d1c" stroke-width="2.19"/><path d="M0 2.5V0h20v2.5H0ZM0 15v-2.5h20V15H0Z" fill="#5eaa22"/><path d="m.37-.5-1-.74v17.47l1-.72 10.2-7.4.7-.5-.69-.52L.38-.5Z" fill="#f7fcff" stroke="#272727" stroke-width="1.25"/><path d="m4.67 8.92-2.36 1.91L3.4 8.28 1.53 6.5h2.2l.9-2.16.96 2.16h2.2L5.82 8.3l.99 2.54-2.14-1.9Z" fill="#e31d1c"/><path d="M3.14 5.26s-.04-.08.16-.15c.2-.08.27-.23.43-.12.16.12.25-.11.3.22.05.33.17.84.17.84L6.26 7.6h-.39s-.6.88-.5 1.66c0 0-.42-.07-.98-.07s-.93.14-.93.14l-.32-1.2s.11-.2.16-.37c.05-.16.26-.2.26-.32 0-.13-.2-.24-.1-.57.1-.34.1-1.34.1-1.34s-.32-.15-.26-.15c.07 0 .22-.12.11-.12h-.27Z" fill="#feca00"/></svg>